<svg xmlns="http://www.w3.org/2000/svg" height="35.25mm" viewBox="0 0 8.07 5.48"><path fill="var(--text-color)" d="M.012 2.87A.381.381 0 0 1 0 2.794c0-.116.088-.307.265-.575.01-.019.138-.204.384-.554-.04-.184-.078-.308-.12-.372-.07-.1-.18-.149-.33-.149H.19L.36.984h.045c.13 0 .228.041.294.124.043.058.084.16.124.306l.194.773c.1.345.208.573.327.682h-.302c-.091-.116-.17-.291-.236-.53l-.132-.574c-.166.23-.264.371-.294.426a.956.956 0 0 0-.157.48c0 .08.026.146.079.198zM1.753 2.365v-.14h1.674v.14zm0-.616v-.14h1.674v.14ZM4.249 1.62h.897v.038l-.98 1.02h.414c.099 0 .161-.001.186-.007a.169.169 0 0 0 .074-.05.544.544 0 0 0 .075-.136h.053l-.124.388h-.922v-.041l.98-1.021h-.409c-.086 0-.136.002-.153.004a.18.18 0 0 0-.083.045.46.46 0 0 0-.078.12h-.054ZM7.574 0 7.11 1.604a.737.737 0 0 0-.03.145c0 .021.006.039.017.053.01.017.026.03.046.038.027.01.064.016.111.016l-.012.054h-.678l.012-.054a.943.943 0 0 0 .174-.025.19.19 0 0 0 .087-.07.691.691 0 0 0 .078-.202l.195-.7c-.124.183-.24.31-.348.385a.376.376 0 0 1-.21.079.243.243 0 0 1-.22-.116.47.47 0 0 1-.07-.252c0-.143.044-.294.132-.45.088-.158.204-.287.348-.39A.544.544 0 0 1 7.045 0c.068 0 .124.017.165.05a.309.309 0 0 1 .1.157l.045-.162ZM7.25.277c0-.06-.018-.11-.054-.149A.18.18 0 0 0 7.061.07c-.116 0-.238.1-.364.298-.127.198-.19.386-.19.562 0 .073.015.127.046.166a.151.151 0 0 0 .115.053c.058 0 .124-.033.199-.099.11-.096.2-.22.273-.372A.95.95 0 0 0 7.25.277Zm0 0"/><path fill="var(--text-color)" fill-rule="evenodd" d="M86.519 237.199h2.276v-.132h-2.276Zm0 0" style="stroke-width:.264583" transform="translate(-80.715 -234.987)"/><path fill="var(--text-color)" d="m7.054 3.572-.1.326c.105-.12.197-.204.277-.252a.462.462 0 0 1 .248-.074.27.27 0 0 1 .211.1c.06.065.091.152.091.26 0 .21-.085.421-.252.636-.168.215-.366.323-.591.323a.44.44 0 0 1-.124-.017.436.436 0 0 1-.124-.054l-.104.368a.677.677 0 0 0-.028.14c0 .02.005.036.016.05.01.017.029.03.054.038a.541.541 0 0 0 .145.012l-.013.054h-.665l.012-.054c.089-.006.148-.023.178-.05.03-.024.062-.097.095-.214l.36-1.249a.786.786 0 0 0 .033-.145.072.072 0 0 0-.025-.058c-.015-.016-.036-.024-.066-.024a.672.672 0 0 0-.112.012v-.058zm-.331 1.137c.06.069.138.103.236.103a.3.3 0 0 0 .148-.041.539.539 0 0 0 .15-.12c.049-.055.092-.117.131-.186.042-.071.077-.154.108-.248a.955.955 0 0 0 .045-.285c0-.077-.018-.135-.053-.174a.15.15 0 0 0-.12-.062c-.103 0-.203.06-.302.178a1.1 1.1 0 0 0-.22.409zm0 0"/></svg>