<svg xmlns="http://www.w3.org/2000/svg" height="70.5mm" viewBox="0 0 78.52 42.93"><path fill="var(--background-color)" fill-rule="evenodd" stroke="var(--text-color)" stroke-linejoin="round" stroke-miterlimit="10" stroke-width=".031749599999999996" d="M60.405 39.265H42.307V0h36.195v39.265Zm0 0"/><path fill="var(--text-color)" d="M43.895 2.54V1.234h.492c.1 0 .182.014.243.041a.29.29 0 0 1 .141.12.323.323 0 0 1 .054.174.277.277 0 0 1-.05.157.33.33 0 0 1-.136.12c.08.022.14.062.182.12.043.055.066.12.066.194a.371.371 0 0 1-.042.173.298.298 0 0 1-.095.12.469.469 0 0 1-.144.067.864.864 0 0 1-.211.02Zm.173-.756h.285a.57.57 0 0 0 .166-.017.186.186 0 0 0 .1-.066.186.186 0 0 0 .032-.112.208.208 0 0 0-.033-.115.144.144 0 0 0-.087-.067.678.678 0 0 0-.198-.02h-.265zm0 .603h.327a.535.535 0 0 0 .12-.008.262.262 0 0 0 .099-.033.21.21 0 0 0 .09-.186.214.214 0 0 0-.036-.124.192.192 0 0 0-.104-.079.686.686 0 0 0-.19-.02h-.306ZM45.096 2.54V1.234h.16V2.54ZM45.465 2.065c0-.174.047-.303.145-.389a.453.453 0 0 1 .297-.103c.133 0 .24.043.323.128a.485.485 0 0 1 .124.351c0 .122-.02.218-.058.29a.38.38 0 0 1-.161.161.462.462 0 0 1-.228.058.427.427 0 0 1-.322-.128c-.08-.085-.12-.208-.12-.368Zm.165 0c0 .122.026.213.079.273a.248.248 0 0 0 .198.09.25.25 0 0 0 .199-.09c.054-.06.082-.153.082-.277 0-.116-.028-.204-.082-.265a.254.254 0 0 0-.199-.09.251.251 0 0 0-.198.09c-.053.058-.079.148-.079.269zM47.148 2.193l.157.02a.398.398 0 0 1-.132.257.39.39 0 0 1-.26.09.416.416 0 0 1-.315-.123c-.08-.085-.12-.208-.12-.368 0-.101.017-.191.05-.269a.35.35 0 0 1 .157-.17.46.46 0 0 1 .227-.057.4.4 0 0 1 .253.078c.066.05.108.123.128.22l-.157.024a.259.259 0 0 0-.083-.14.19.19 0 0 0-.132-.05.26.26 0 0 0-.203.087c-.05.058-.074.149-.074.273 0 .127.025.219.074.277.05.058.113.087.19.087a.219.219 0 0 0 .157-.058.28.28 0 0 0 .083-.178zM47.454 2.54V1.234h.162v.744L48 1.593h.207l-.364.352.401.595h-.198l-.315-.483-.115.107v.376Zm0 0"/><path fill="var(--background-color)" fill-rule="evenodd" stroke="var(--text-color)" stroke-linejoin="round" stroke-miterlimit="10" stroke-width=".031749599999999996" d="M18.23 39.265H0V0h36.46v39.265Zm0 0"/><path fill="var(--text-color)" d="M1.508 2.54V1.234H2c.102 0 .183.014.244.041a.29.29 0 0 1 .14.12.323.323 0 0 1 .055.174.277.277 0 0 1-.05.157.33.33 0 0 1-.137.12c.08.022.141.062.182.12.044.055.067.12.067.194a.371.371 0 0 1-.042.173.298.298 0 0 1-.095.12.469.469 0 0 1-.145.067.864.864 0 0 1-.21.02Zm.174-.756h.285a.57.57 0 0 0 .166-.017.186.186 0 0 0 .099-.066.186.186 0 0 0 .033-.112.208.208 0 0 0-.033-.115.144.144 0 0 0-.087-.067.678.678 0 0 0-.198-.02h-.265zm0 .603h.327a.535.535 0 0 0 .12-.008.262.262 0 0 0 .099-.033.21.21 0 0 0 .09-.186.214.214 0 0 0-.037-.124.192.192 0 0 0-.103-.079.686.686 0 0 0-.19-.02h-.306ZM2.71 2.54V1.234h.16V2.54ZM3.053 2.065c0-.174.048-.303.145-.389a.453.453 0 0 1 .297-.103c.133 0 .24.043.323.128a.485.485 0 0 1 .124.351c0 .122-.02.218-.058.29a.38.38 0 0 1-.161.161.462.462 0 0 1-.228.058.427.427 0 0 1-.322-.128c-.08-.085-.12-.208-.12-.368Zm.165 0c0 .122.026.213.079.273a.248.248 0 0 0 .198.09.25.25 0 0 0 .199-.09c.055-.06.082-.153.082-.277 0-.116-.027-.204-.082-.265a.254.254 0 0 0-.199-.09.251.251 0 0 0-.198.09c-.053.058-.079.148-.079.269zM4.764 2.193l.157.02a.398.398 0 0 1-.133.257.39.39 0 0 1-.26.09.416.416 0 0 1-.314-.123c-.08-.085-.12-.208-.12-.368 0-.101.016-.191.05-.269a.35.35 0 0 1 .157-.17.46.46 0 0 1 .227-.057.4.4 0 0 1 .252.078c.066.05.109.123.128.22l-.157.024a.259.259 0 0 0-.082-.14.19.19 0 0 0-.133-.05.26.26 0 0 0-.202.087c-.05.058-.075.149-.075.273 0 .127.025.219.075.277.05.058.112.087.19.087a.219.219 0 0 0 .157-.058.28.28 0 0 0 .083-.178zM5.07 2.54V1.234h.161v.744l.385-.385h.206l-.363.352.4.595h-.198l-.314-.483-.116.107v.376Zm0 0"/><path fill="var(--background-color)" fill-rule="evenodd" stroke="var(--text-color)" stroke-linejoin="round" stroke-miterlimit="10" stroke-width=".032" d="M20.426 14.552H7.303V1.455h26.246v13.097zm0 0"/><path fill="var(--text-color)" d="M8.784 4.048V2.742h.492c.102 0 .183.014.244.041a.29.29 0 0 1 .14.12.323.323 0 0 1 .055.174.277.277 0 0 1-.05.157.33.33 0 0 1-.136.12c.08.023.14.062.181.12.044.055.067.12.067.194a.371.371 0 0 1-.042.174.298.298 0 0 1-.095.12.469.469 0 0 1-.145.066.864.864 0 0 1-.21.02Zm.174-.756h.285a.57.57 0 0 0 .166-.017.186.186 0 0 0 .099-.066.186.186 0 0 0 .033-.112.208.208 0 0 0-.033-.115.144.144 0 0 0-.087-.066.678.678 0 0 0-.198-.021h-.265zm0 .603h.327a.535.535 0 0 0 .12-.008.262.262 0 0 0 .099-.033.21.21 0 0 0 .09-.186.214.214 0 0 0-.037-.124.192.192 0 0 0-.103-.079.686.686 0 0 0-.19-.02h-.306ZM9.985 4.048V2.742h.162v1.306ZM10.355 3.573c0-.174.047-.303.144-.389a.453.453 0 0 1 .298-.103c.132 0 .24.043.322.128a.485.485 0 0 1 .124.352c0 .121-.02.218-.057.289a.38.38 0 0 1-.162.161.462.462 0 0 1-.227.058.427.427 0 0 1-.322-.128c-.081-.085-.12-.208-.12-.368Zm.165 0c0 .122.026.213.079.273a.248.248 0 0 0 .198.09.25.25 0 0 0 .198-.09c.055-.06.083-.153.083-.277 0-.116-.028-.204-.083-.265a.254.254 0 0 0-.198-.09.251.251 0 0 0-.198.09c-.053.058-.079.148-.079.269zM12.038 3.701l.157.02a.398.398 0 0 1-.132.257.39.39 0 0 1-.26.091.416.416 0 0 1-.315-.124c-.08-.085-.12-.208-.12-.368 0-.101.017-.191.05-.269a.35.35 0 0 1 .157-.17.46.46 0 0 1 .227-.057.4.4 0 0 1 .252.078c.067.05.109.123.129.22l-.158.024a.259.259 0 0 0-.082-.14.19.19 0 0 0-.133-.05.26.26 0 0 0-.202.087c-.05.058-.074.149-.074.273 0 .127.024.219.074.277.05.058.113.087.19.087a.219.219 0 0 0 .157-.058.28.28 0 0 0 .083-.178zM12.344 4.048V2.742h.161v.744l.385-.384h.207l-.364.351.4.595h-.198l-.314-.483-.116.107v.376ZM13.825 4.048V2.742h.173v.537h.682v-.537h.174v1.306h-.174v-.616h-.682v.616ZM15.745 3.742l.17.021a.424.424 0 0 1-.15.227.432.432 0 0 1-.268.079.443.443 0 0 1-.335-.128c-.08-.085-.12-.205-.12-.36 0-.157.042-.279.124-.368a.423.423 0 0 1 .323-.132.41.41 0 0 1 .31.128c.08.086.12.207.12.364v.041h-.711a.377.377 0 0 0 .09.24.258.258 0 0 0 .2.083.24.24 0 0 0 .148-.046.279.279 0 0 0 .1-.149zm-.525-.26h.53a.324.324 0 0 0-.063-.178.245.245 0 0 0-.198-.09.252.252 0 0 0-.186.074.281.281 0 0 0-.083.194zM16.749 3.933a.68.68 0 0 1-.174.107.546.546 0 0 1-.173.029.362.362 0 0 1-.244-.074.253.253 0 0 1-.083-.195c0-.046.01-.089.03-.128a.27.27 0 0 1 .082-.09.361.361 0 0 1 .12-.055c.03-.008.076-.016.14-.024.133-.017.229-.034.29-.054v-.046c0-.063-.016-.108-.046-.136a.275.275 0 0 0-.182-.054c-.077 0-.134.015-.17.042-.035.024-.061.07-.078.136l-.157-.02a.373.373 0 0 1 .07-.162.314.314 0 0 1 .14-.095.657.657 0 0 1 .216-.033c.083 0 .149.01.198.029a.22.22 0 0 1 .162.178.934.934 0 0 1 .008.148v.215c0 .15.002.244.008.286.008.039.023.076.046.111h-.17a.346.346 0 0 1-.033-.115zm-.012-.36a1.11 1.11 0 0 1-.265.062.48.48 0 0 0-.14.033.126.126 0 0 0-.083.124c0 .044.014.082.045.112.033.028.08.041.145.041a.312.312 0 0 0 .273-.153.397.397 0 0 0 .025-.161ZM17.75 4.048v-.12a.295.295 0 0 1-.264.141.391.391 0 0 1-.36-.236.623.623 0 0 1-.05-.256c0-.096.015-.183.046-.26a.366.366 0 0 1 .144-.174.376.376 0 0 1 .211-.062c.058 0 .109.012.153.037.044.023.08.053.112.091v-.467h.157v1.306Zm-.508-.471c0 .122.024.213.074.273a.241.241 0 0 0 .186.087.23.23 0 0 0 .178-.083c.05-.058.074-.146.074-.265 0-.129-.025-.224-.074-.285a.233.233 0 0 0-.186-.09.23.23 0 0 0-.182.086c-.048.058-.07.151-.07.277zM18.816 3.742l.17.021a.424.424 0 0 1-.15.227.432.432 0 0 1-.268.079.443.443 0 0 1-.335-.128c-.08-.085-.12-.205-.12-.36 0-.157.041-.279.124-.368a.423.423 0 0 1 .323-.132.41.41 0 0 1 .31.128c.08.086.12.207.12.364v.041h-.712a.377.377 0 0 0 .091.24.258.258 0 0 0 .199.083.24.24 0 0 0 .149-.046.279.279 0 0 0 .099-.149zm-.525-.26h.529a.324.324 0 0 0-.062-.178.245.245 0 0 0-.198-.09.252.252 0 0 0-.187.074.281.281 0 0 0-.082.194zM19.2 4.048v-.946h.144v.144a.346.346 0 0 1 .1-.132.191.191 0 0 1 .107-.033c.052 0 .107.016.165.05l-.058.148a.238.238 0 0 0-.115-.033.148.148 0 0 0-.095.033.172.172 0 0 0-.062.087.654.654 0 0 0-.025.186v.496ZM20.62 4.433a1.552 1.552 0 0 1-.226-.393 1.242 1.242 0 0 1-.025-.872c.055-.151.138-.302.252-.45h.116a1.592 1.592 0 0 0-.232.52 1.584 1.584 0 0 0-.037.339c0 .284.089.568.269.856zM20.931 4.048V2.742h.492c.101 0 .183.014.244.041a.29.29 0 0 1 .14.12.323.323 0 0 1 .054.174.277.277 0 0 1-.05.157.33.33 0 0 1-.136.12c.08.023.14.062.182.12.044.055.066.12.066.194a.371.371 0 0 1-.041.174.298.298 0 0 1-.095.12.469.469 0 0 1-.145.066.864.864 0 0 1-.21.02Zm.174-.756h.285a.57.57 0 0 0 .165-.017.186.186 0 0 0 .1-.066.186.186 0 0 0 .033-.112.208.208 0 0 0-.033-.115.144.144 0 0 0-.087-.066.678.678 0 0 0-.199-.021h-.264zm0 .603h.326a.535.535 0 0 0 .12-.008.262.262 0 0 0 .1-.033.21.21 0 0 0 .09-.186.214.214 0 0 0-.037-.124.192.192 0 0 0-.103-.079.686.686 0 0 0-.19-.02h-.306ZM22.132 4.048V2.742h.161v1.306ZM22.476 3.573c0-.174.047-.303.145-.389a.453.453 0 0 1 .297-.103c.132 0 .24.043.323.128a.485.485 0 0 1 .124.352c0 .121-.02.218-.058.289a.38.38 0 0 1-.161.161.462.462 0 0 1-.228.058.427.427 0 0 1-.322-.128c-.08-.085-.12-.208-.12-.368Zm.165 0c0 .122.026.213.079.273a.248.248 0 0 0 .198.09.25.25 0 0 0 .199-.09c.054-.06.082-.153.082-.277 0-.116-.028-.204-.082-.265a.254.254 0 0 0-.199-.09.251.251 0 0 0-.198.09c-.053.058-.079.148-.079.269zM24.187 3.701l.157.02a.398.398 0 0 1-.133.257.39.39 0 0 1-.26.091.416.416 0 0 1-.314-.124c-.08-.085-.12-.208-.12-.368 0-.101.016-.191.05-.269a.35.35 0 0 1 .156-.17.46.46 0 0 1 .228-.057.4.4 0 0 1 .252.078c.066.05.109.123.128.22l-.157.024a.259.259 0 0 0-.083-.14.19.19 0 0 0-.132-.05.26.26 0 0 0-.202.087c-.05.058-.075.149-.075.273 0 .127.025.219.075.277.05.058.112.087.19.087a.219.219 0 0 0 .157-.058.28.28 0 0 0 .083-.178zM24.493 4.048V2.742h.161v.744l.385-.384h.206l-.364.351.401.595h-.198l-.314-.483-.116.107v.376ZM25.948 4.048V2.742h.173v.537h.682v-.537h.174v1.306h-.174v-.616h-.682v.616ZM27.867 3.933a.68.68 0 0 1-.174.107.546.546 0 0 1-.173.029.362.362 0 0 1-.244-.074.253.253 0 0 1-.083-.195c0-.046.01-.089.029-.128a.27.27 0 0 1 .083-.09.361.361 0 0 1 .12-.055c.03-.008.076-.016.14-.024.132-.017.228-.034.29-.054v-.046c0-.063-.016-.108-.046-.136a.275.275 0 0 0-.182-.054c-.077 0-.134.015-.17.042-.036.024-.061.07-.078.136l-.157-.02a.373.373 0 0 1 .07-.162.314.314 0 0 1 .14-.095.657.657 0 0 1 .216-.033c.082 0 .149.01.198.029a.22.22 0 0 1 .161.178.934.934 0 0 1 .009.148v.215c0 .15.002.244.008.286.008.039.023.076.045.111h-.17a.346.346 0 0 1-.032-.115zm-.013-.36a1.11 1.11 0 0 1-.264.062.48.48 0 0 0-.14.033.126.126 0 0 0-.083.124c0 .044.014.082.045.112.033.028.08.041.145.041a.312.312 0 0 0 .273-.153.397.397 0 0 0 .024-.161ZM28.19 3.767l.157-.025a.21.21 0 0 0 .074.145c.042.033.1.05.174.05.071 0 .125-.015.161-.046.035-.03.054-.064.054-.103a.105.105 0 0 0-.045-.087.826.826 0 0 0-.166-.054 1.45 1.45 0 0 1-.248-.078.246.246 0 0 1-.103-.091.237.237 0 0 1-.033-.124.248.248 0 0 1 .107-.207.476.476 0 0 1 .244-.066c.075 0 .139.011.194.033.058.02.1.049.124.087a.35.35 0 0 1 .058.145l-.157.02a.163.163 0 0 0-.066-.111.219.219 0 0 0-.14-.042c-.075 0-.129.013-.162.037-.03.023-.045.05-.045.083 0 .023.006.041.02.058.01.017.03.031.058.041.017.007.064.02.145.042.113.03.191.055.236.074.046.02.082.049.107.087a.27.27 0 0 1-.008.285.308.308 0 0 1-.137.112.5.5 0 0 1-.198.037.469.469 0 0 1-.285-.074.354.354 0 0 1-.12-.228ZM29.178 4.048V2.742h.162v.467a.364.364 0 0 1 .285-.128c.068 0 .13.014.182.041a.247.247 0 0 1 .111.116.527.527 0 0 1 .033.21v.6h-.16v-.6c0-.079-.02-.137-.055-.173-.033-.038-.081-.058-.144-.058a.271.271 0 0 0-.137.038.22.22 0 0 0-.09.103.483.483 0 0 0-.025.174v.516ZM30.319 4.433h-.116c.175-.288.264-.572.264-.856a1.525 1.525 0 0 0-.12-.591 5.712 5.712 0 0 0-.144-.269h.116c.11.149.192.3.248.45a1.193 1.193 0 0 1-.025.873c-.061.149-.136.28-.223.393zm0 0"/><path fill="var(--background-color)" fill-rule="evenodd" stroke="var(--text-color)" stroke-linejoin="round" stroke-miterlimit="10" stroke-width=".032" d="M16.034 8.731h-5.82v-2.91H21.88v2.91zm0 0"/><path fill="var(--text-color)" d="M11.994 7.99V6.685h.496c.085 0 .151.004.199.013a.417.417 0 0 1 .16.062c.044.028.08.069.104.124a.404.404 0 0 1 .042.177c0 .111-.037.205-.108.282-.07.077-.197.115-.384.115h-.335v.534Zm.174-.686h.339c.112 0 .192-.02.24-.062.046-.041.07-.1.07-.177a.236.236 0 0 0-.042-.137.183.183 0 0 0-.111-.078.677.677 0 0 0-.161-.013h-.335ZM13.191 7.99v-.946h.145v.145a.346.346 0 0 1 .099-.133.191.191 0 0 1 .107-.033c.052 0 .108.017.166.05l-.058.149a.238.238 0 0 0-.116-.033.148.148 0 0 0-.095.033.172.172 0 0 0-.062.086.654.654 0 0 0-.025.187v.496ZM14.448 7.685l.17.02a.424.424 0 0 1-.15.228.432.432 0 0 1-.268.078.443.443 0 0 1-.335-.128c-.08-.085-.12-.205-.12-.36 0-.157.042-.279.124-.367a.423.423 0 0 1 .323-.133.41.41 0 0 1 .31.128c.08.086.12.207.12.364v.042h-.711a.377.377 0 0 0 .09.24.258.258 0 0 0 .199.082.24.24 0 0 0 .149-.045.279.279 0 0 0 .099-.15zm-.525-.26h.53a.324.324 0 0 0-.063-.179.245.245 0 0 0-.198-.09.252.252 0 0 0-.186.074.281.281 0 0 0-.083.194zM15.069 7.99l-.36-.946h.17l.202.566c.022.061.043.124.062.19.014-.05.033-.108.058-.177l.21-.58h.166l-.36.948ZM16.257 7.99V6.685h.174v.538h.682v-.538h.174v1.307h-.174v-.616h-.682v.616ZM18.149 7.875a.68.68 0 0 1-.174.107.546.546 0 0 1-.173.03.362.362 0 0 1-.244-.075.253.253 0 0 1-.083-.194c0-.047.01-.09.029-.129a.27.27 0 0 1 .083-.09.361.361 0 0 1 .12-.054c.03-.009.076-.017.14-.025.132-.017.228-.034.29-.054v-.045c0-.063-.016-.109-.046-.137a.275.275 0 0 0-.182-.053c-.078 0-.134.014-.17.04-.036.026-.062.071-.078.137l-.157-.02a.373.373 0 0 1 .07-.162.314.314 0 0 1 .14-.095.657.657 0 0 1 .216-.033c.082 0 .148.01.198.03a.22.22 0 0 1 .161.177.934.934 0 0 1 .009.149v.215c0 .149.002.244.008.285.008.04.023.076.045.112h-.17a.346.346 0 0 1-.032-.116zm-.013-.36a1.11 1.11 0 0 1-.264.062.48.48 0 0 0-.14.033.126.126 0 0 0-.083.124c0 .045.014.082.045.112.033.028.08.041.145.041a.312.312 0 0 0 .273-.153.397.397 0 0 0 .024-.16ZM18.5 7.71l.156-.025a.21.21 0 0 0 .075.144c.041.033.1.05.173.05.072 0 .126-.014.162-.045.035-.03.053-.065.053-.104a.105.105 0 0 0-.045-.087.826.826 0 0 0-.165-.053 1.45 1.45 0 0 1-.248-.079.246.246 0 0 1-.104-.09.237.237 0 0 1-.033-.125.248.248 0 0 1 .108-.207.476.476 0 0 1 .244-.066c.074 0 .138.012.194.033.058.02.1.049.124.087a.35.35 0 0 1 .058.145l-.157.02a.163.163 0 0 0-.067-.111.219.219 0 0 0-.14-.041c-.074 0-.128.012-.161.037-.031.022-.046.05-.046.082 0 .023.006.042.02.058.011.017.03.031.059.042.016.006.064.02.144.041.113.031.192.056.236.074.047.02.083.049.108.087a.27.27 0 0 1-.008.285.308.308 0 0 1-.137.112.5.5 0 0 1-.199.037.469.469 0 0 1-.285-.074.354.354 0 0 1-.12-.227ZM19.488 7.99V6.685h.161v.467a.364.364 0 0 1 .285-.128c.069 0 .13.015.182.042a.247.247 0 0 1 .112.115.527.527 0 0 1 .033.211v.6H20.1v-.6c0-.08-.019-.137-.054-.173-.033-.039-.082-.058-.145-.058a.271.271 0 0 0-.136.037.22.22 0 0 0-.091.103.483.483 0 0 0-.025.174v.517Zm0 0"/><path fill="var(--background-color)" fill-rule="evenodd" stroke="var(--text-color)" stroke-linejoin="round" stroke-miterlimit="10" stroke-width=".032" d="M27.702 8.731h-4.366v-2.91h8.758v2.91zm0 0"/><path fill="var(--text-color)" d="M25.223 7.99V6.685h.178l.686 1.026V6.684h.17v1.307h-.178l-.69-1.03v1.03ZM26.441 7.515c0-.173.048-.303.145-.388a.453.453 0 0 1 .297-.104c.133 0 .24.044.323.128a.485.485 0 0 1 .124.352c0 .122-.02.218-.058.29a.38.38 0 0 1-.161.16.462.462 0 0 1-.228.058.427.427 0 0 1-.322-.128c-.08-.085-.12-.208-.12-.368Zm.165 0c0 .122.026.213.079.273a.248.248 0 0 0 .198.091.25.25 0 0 0 .199-.091c.055-.06.083-.153.083-.277 0-.116-.028-.204-.083-.265a.254.254 0 0 0-.199-.09.251.251 0 0 0-.198.09c-.053.058-.079.148-.079.27zM27.532 7.99v-.946h.144v.132a.348.348 0 0 1 .302-.153c.058 0 .11.012.157.033.05.02.085.046.108.079a.331.331 0 0 1 .053.116c.006.03.009.082.009.157v.583h-.162v-.575a.415.415 0 0 0-.02-.149.144.144 0 0 0-.066-.078.213.213 0 0 0-.112-.03.261.261 0 0 0-.178.067c-.05.044-.074.127-.074.248v.517ZM29.157 7.643l.157.021a.398.398 0 0 1-.132.256.39.39 0 0 1-.26.091.416.416 0 0 1-.315-.124c-.08-.084-.12-.207-.12-.368 0-.101.017-.19.05-.268a.35.35 0 0 1 .157-.17.46.46 0 0 1 .227-.058.4.4 0 0 1 .252.079c.067.05.109.123.129.219l-.157.025a.259.259 0 0 0-.083-.14.19.19 0 0 0-.132-.05.26.26 0 0 0-.203.086c-.05.058-.074.15-.074.273 0 .127.024.22.074.277.05.058.113.087.19.087a.219.219 0 0 0 .157-.058.28.28 0 0 0 .083-.178zM30.112 7.685l.17.02a.424.424 0 0 1-.149.228.432.432 0 0 1-.269.078.443.443 0 0 1-.335-.128c-.08-.085-.12-.205-.12-.36 0-.157.042-.279.125-.367a.423.423 0 0 1 .322-.133.41.41 0 0 1 .31.128c.08.086.12.207.12.364v.042h-.711a.377.377 0 0 0 .09.24.258.258 0 0 0 .2.082.24.24 0 0 0 .148-.045.279.279 0 0 0 .1-.15zm-.525-.26h.53a.324.324 0 0 0-.063-.179.245.245 0 0 0-.198-.09.252.252 0 0 0-.186.074.281.281 0 0 0-.083.194zm0 0"/><path fill="var(--background-color)" fill-rule="evenodd" stroke="#4c4c4c" stroke-dasharray="1.1016, 1.1016, 1.1016, 1.1016" stroke-linejoin="round" stroke-miterlimit="10" stroke-width=".032" d="M10.213 21.828H5.848v-2.91h8.731v2.91zm0 0"/><path fill="var(--text-color)" d="M7.13 21.167V19.86h.174v.538h.682v-.538h.173v1.307h-.173v-.616h-.682v.616ZM9.049 21.051a.68.68 0 0 1-.174.108.546.546 0 0 1-.173.029.362.362 0 0 1-.244-.075.253.253 0 0 1-.083-.194c0-.047.01-.09.03-.128a.27.27 0 0 1 .082-.091.361.361 0 0 1 .12-.054c.03-.008.076-.017.14-.025.133-.016.229-.034.29-.054v-.045c0-.063-.016-.109-.046-.136a.275.275 0 0 0-.182-.054c-.077 0-.134.014-.17.041-.035.025-.061.07-.078.137l-.157-.021a.373.373 0 0 1 .07-.161.314.314 0 0 1 .14-.095.657.657 0 0 1 .216-.034c.083 0 .149.01.198.03a.22.22 0 0 1 .162.177.934.934 0 0 1 .008.149v.215c0 .149.002.244.008.285.008.04.023.077.046.112h-.17a.346.346 0 0 1-.033-.116zm-.012-.36a1.11 1.11 0 0 1-.265.062.48.48 0 0 0-.14.034.126.126 0 0 0-.083.124c0 .044.014.081.045.111.033.028.08.042.145.042a.312.312 0 0 0 .273-.153.397.397 0 0 0 .025-.162ZM9.372 20.886l.157-.025a.21.21 0 0 0 .075.145c.041.033.099.05.173.05.072 0 .125-.015.161-.046.036-.03.054-.064.054-.104a.105.105 0 0 0-.045-.086.826.826 0 0 0-.166-.054 1.45 1.45 0 0 1-.248-.079.246.246 0 0 1-.103-.09.237.237 0 0 1-.033-.125.248.248 0 0 1 .107-.206.476.476 0 0 1 .244-.066c.075 0 .139.01.195.033.057.02.099.048.124.086a.35.35 0 0 1 .058.145l-.158.02a.163.163 0 0 0-.066-.11.219.219 0 0 0-.14-.042c-.075 0-.128.012-.162.037-.03.023-.045.05-.045.083 0 .022.006.041.02.058.011.016.03.03.059.04.016.007.064.02.144.042.113.031.191.056.236.075.046.02.083.048.107.086a.27.27 0 0 1-.008.285.308.308 0 0 1-.136.112.5.5 0 0 1-.199.038.469.469 0 0 1-.285-.075.354.354 0 0 1-.12-.227ZM10.36 21.167V19.86h.162v.468a.364.364 0 0 1 .285-.129c.068 0 .13.015.182.042a.247.247 0 0 1 .112.116.527.527 0 0 1 .033.21v.6h-.162v-.6c0-.08-.018-.137-.053-.173-.033-.038-.082-.058-.145-.058a.271.271 0 0 0-.136.037.22.22 0 0 0-.091.103.483.483 0 0 0-.025.174v.517ZM11.348 20.522c0-.154.016-.278.05-.372a.472.472 0 0 1 .14-.22.366.366 0 0 1 .24-.078c.068 0 .129.016.182.046.054.028.099.068.132.12a.633.633 0 0 1 .083.194c.018.077.029.18.029.31 0 .155-.017.279-.05.372a.461.461 0 0 1-.14.22.361.361 0 0 1-.236.074.36.36 0 0 1-.298-.133c-.089-.11-.132-.287-.132-.533zm.165 0c0 .215.025.359.075.43a.23.23 0 0 0 .19.103.221.221 0 0 0 .186-.103c.05-.071.074-.215.074-.43s-.025-.358-.074-.43a.225.225 0 0 0-.19-.107.202.202 0 0 0-.174.095c-.058.08-.087.227-.087.442ZM12.96 21.167h-.16v-1.025a.807.807 0 0 1-.153.115.986.986 0 0 1-.17.079v-.153a1.03 1.03 0 0 0 .236-.153.586.586 0 0 0 .144-.178h.104zm0 0"/><path fill="var(--background-color)" fill-rule="evenodd" stroke="#4c4c4c" stroke-dasharray="1.1016, 1.1016, 1.1016, 1.1016" stroke-linejoin="round" stroke-miterlimit="10" stroke-width=".032" d="M5.848 30.534H2.91v-2.91h5.848v2.91zm0 0"/><path fill="var(--text-color)" d="M3.346 29.792v-1.306h.174v.537h.682v-.537h.174v1.306h-.174v-.616H3.52v.616ZM5.238 29.677a.68.68 0 0 1-.174.107.546.546 0 0 1-.173.029.362.362 0 0 1-.244-.074.253.253 0 0 1-.083-.195c0-.046.01-.089.03-.128a.27.27 0 0 1 .082-.09.361.361 0 0 1 .12-.055c.03-.008.076-.016.14-.024.133-.017.229-.035.29-.054v-.046c0-.063-.016-.108-.046-.136a.275.275 0 0 0-.182-.054c-.077 0-.134.015-.17.042-.035.024-.061.07-.078.136l-.157-.02a.373.373 0 0 1 .07-.162.314.314 0 0 1 .14-.095.657.657 0 0 1 .216-.033c.083 0 .149.01.198.029a.22.22 0 0 1 .162.178.934.934 0 0 1 .008.148v.215c0 .15.002.244.008.286.008.039.023.076.046.111h-.17a.346.346 0 0 1-.033-.115zm-.012-.36a1.11 1.11 0 0 1-.265.062.48.48 0 0 0-.14.033.126.126 0 0 0-.083.124c0 .044.014.082.045.112.033.027.08.04.145.04a.312.312 0 0 0 .273-.152.397.397 0 0 0 .025-.161ZM5.589 29.511l.157-.025a.21.21 0 0 0 .074.145c.041.033.1.05.174.05.071 0 .125-.015.16-.046.036-.03.055-.064.055-.103a.105.105 0 0 0-.046-.087.826.826 0 0 0-.165-.054 1.45 1.45 0 0 1-.248-.078.246.246 0 0 1-.104-.091.237.237 0 0 1-.033-.124.248.248 0 0 1 .108-.207.476.476 0 0 1 .244-.066c.074 0 .138.011.194.033.058.02.1.049.124.087a.35.35 0 0 1 .058.144l-.157.021A.163.163 0 0 0 6.118 29a.219.219 0 0 0-.14-.042c-.075 0-.129.013-.162.037-.031.023-.046.05-.046.083 0 .023.007.041.021.058.01.016.03.031.058.041.017.007.064.02.145.042.112.03.19.055.235.074.047.02.083.049.108.087a.27.27 0 0 1-.008.285.308.308 0 0 1-.137.112.5.5 0 0 1-.198.037.469.469 0 0 1-.286-.074.354.354 0 0 1-.12-.228ZM6.577 29.792v-1.306h.161v.467a.364.364 0 0 1 .286-.128c.068 0 .129.014.181.041a.247.247 0 0 1 .112.116.527.527 0 0 1 .033.21v.6H7.19v-.6c0-.079-.019-.137-.054-.173-.033-.038-.081-.058-.145-.058a.271.271 0 0 0-.136.038.22.22 0 0 0-.09.103.483.483 0 0 0-.026.174v.516ZM7.537 29.147c0-.154.016-.278.05-.372a.472.472 0 0 1 .14-.219.366.366 0 0 1 .24-.078c.068 0 .129.015.182.045.054.028.099.068.132.12a.633.633 0 0 1 .083.194c.018.078.029.181.029.31 0 .155-.017.28-.05.372a.461.461 0 0 1-.14.22.361.361 0 0 1-.236.074.36.36 0 0 1-.298-.132c-.089-.11-.132-.288-.132-.534zm.165 0c0 .215.025.359.075.43a.23.23 0 0 0 .19.104.221.221 0 0 0 .186-.104c.05-.071.074-.215.074-.43s-.025-.357-.074-.43a.225.225 0 0 0-.19-.107.202.202 0 0 0-.174.095c-.058.08-.087.227-.087.442Zm0 0"/><path fill="var(--background-color)" fill-rule="evenodd" stroke="#4c4c4c" stroke-dasharray="1.1016, 1.1016, 1.1016, 1.1016" stroke-linejoin="round" stroke-miterlimit="10" stroke-width=".032" d="M14.579 30.534h-2.91v-2.91h5.846v2.91zm0 0"/><path fill="var(--text-color)" d="M12.157 29.792v-1.306h.174v.537h.682v-.537h.173v1.306h-.173v-.616h-.682v.616ZM14.049 29.677a.68.68 0 0 1-.174.107.546.546 0 0 1-.174.029.362.362 0 0 1-.244-.074.253.253 0 0 1-.082-.195c0-.046.01-.089.029-.128a.27.27 0 0 1 .082-.09.361.361 0 0 1 .12-.055c.03-.008.077-.016.14-.024.133-.017.23-.035.29-.054v-.046c0-.063-.015-.108-.045-.136a.275.275 0 0 0-.182-.054c-.078 0-.134.015-.17.042-.036.024-.062.07-.078.136l-.157-.02a.373.373 0 0 1 .07-.162.314.314 0 0 1 .14-.095.657.657 0 0 1 .216-.033c.082 0 .148.01.198.029a.22.22 0 0 1 .161.178.934.934 0 0 1 .008.148v.215c0 .15.003.244.009.286.008.039.022.076.045.111h-.17a.346.346 0 0 1-.032-.115zm-.013-.36a1.11 1.11 0 0 1-.264.062.48.48 0 0 0-.14.033.126.126 0 0 0-.084.124c0 .044.015.082.046.112.033.027.08.04.145.04a.312.312 0 0 0 .272-.152.397.397 0 0 0 .025-.161ZM14.4 29.511l.156-.025a.21.21 0 0 0 .075.145c.041.033.099.05.173.05.072 0 .125-.015.162-.046.035-.03.053-.064.053-.103a.105.105 0 0 0-.045-.087.826.826 0 0 0-.166-.054 1.45 1.45 0 0 1-.248-.078.246.246 0 0 1-.103-.091.237.237 0 0 1-.033-.124.248.248 0 0 1 .107-.207.476.476 0 0 1 .244-.066c.075 0 .139.011.195.033.058.02.099.049.124.087a.35.35 0 0 1 .058.144l-.157.021a.163.163 0 0 0-.067-.111.219.219 0 0 0-.14-.042c-.075 0-.128.013-.161.037-.031.023-.046.05-.046.083 0 .023.006.041.02.058.011.016.03.031.059.041.016.007.064.02.144.042.113.03.192.055.236.074.046.02.083.049.107.087a.27.27 0 0 1-.008.285.308.308 0 0 1-.136.112.5.5 0 0 1-.199.037.469.469 0 0 1-.285-.074.354.354 0 0 1-.12-.228ZM15.388 29.792v-1.306h.16v.467a.364.364 0 0 1 .286-.128c.068 0 .13.014.182.041a.247.247 0 0 1 .112.116.527.527 0 0 1 .033.21v.6H16v-.6c0-.079-.02-.137-.054-.173-.033-.038-.082-.058-.145-.058a.271.271 0 0 0-.136.038.22.22 0 0 0-.091.103.483.483 0 0 0-.025.174v.516ZM16.955 29.792h-.161v-1.025a.807.807 0 0 1-.153.116.986.986 0 0 1-.17.078v-.153a1.03 1.03 0 0 0 .236-.153.586.586 0 0 0 .145-.177h.103zm0 0"/><path fill="var(--background-color)" fill-rule="evenodd" stroke="#4c4c4c" stroke-dasharray="1.1016, 1.1016, 1.1016, 1.1016" stroke-linejoin="round" stroke-miterlimit="10" stroke-width=".032" d="M23.336 30.534h-2.91v-2.91h5.82v2.91zm0 0"/><path fill="var(--text-color)" d="M20.809 29.792v-1.306h.173v.537h.683v-.537h.173v1.306h-.173v-.616h-.683v.616ZM22.728 29.677a.68.68 0 0 1-.174.107.546.546 0 0 1-.173.029.362.362 0 0 1-.244-.074.253.253 0 0 1-.083-.195c0-.046.01-.089.03-.128a.27.27 0 0 1 .082-.09.361.361 0 0 1 .12-.055c.03-.008.076-.016.14-.024.132-.017.229-.035.29-.054v-.046c0-.063-.016-.108-.046-.136a.275.275 0 0 0-.182-.054c-.077 0-.134.015-.17.042-.035.024-.061.07-.078.136l-.157-.02a.373.373 0 0 1 .07-.162.314.314 0 0 1 .14-.095.657.657 0 0 1 .216-.033c.083 0 .149.01.198.029a.22.22 0 0 1 .162.178.934.934 0 0 1 .008.148v.215c0 .15.002.244.008.286.008.039.023.076.046.111h-.17a.346.346 0 0 1-.033-.115zm-.012-.36a1.11 1.11 0 0 1-.265.062.48.48 0 0 0-.14.033.126.126 0 0 0-.083.124c0 .044.014.082.045.112.033.027.08.04.145.04a.312.312 0 0 0 .273-.152.397.397 0 0 0 .025-.161ZM23.051 29.511l.157-.025a.21.21 0 0 0 .075.145c.04.033.099.05.173.05.072 0 .125-.015.161-.046.036-.03.054-.064.054-.103a.105.105 0 0 0-.045-.087.826.826 0 0 0-.166-.054 1.45 1.45 0 0 1-.248-.078.246.246 0 0 1-.103-.091.237.237 0 0 1-.033-.124.248.248 0 0 1 .107-.207.476.476 0 0 1 .244-.066c.075 0 .139.011.195.033.057.02.099.049.124.087a.35.35 0 0 1 .057.144l-.157.021A.163.163 0 0 0 23.58 29a.219.219 0 0 0-.14-.042c-.075 0-.128.013-.162.037-.03.023-.045.05-.045.083 0 .023.006.041.02.058.011.016.03.031.059.041.016.007.064.02.144.042.113.03.191.055.236.074.046.02.083.049.107.087a.27.27 0 0 1-.008.285.308.308 0 0 1-.136.112.5.5 0 0 1-.199.037.469.469 0 0 1-.285-.074.354.354 0 0 1-.12-.228ZM24.04 29.792v-1.306h.16v.467a.364.364 0 0 1 .286-.128c.068 0 .13.014.182.041a.247.247 0 0 1 .112.116.527.527 0 0 1 .033.21v.6h-.162v-.6c0-.079-.018-.137-.053-.173-.033-.038-.082-.058-.145-.058a.271.271 0 0 0-.136.038.22.22 0 0 0-.091.103.483.483 0 0 0-.025.174v.516ZM25.874 29.64v.152h-.868c0-.038.006-.075.02-.111a.616.616 0 0 1 .104-.174c.05-.058.121-.124.215-.198.14-.116.236-.208.285-.277a.33.33 0 0 0 .079-.195.215.215 0 0 0-.07-.16.254.254 0 0 0-.178-.067.252.252 0 0 0-.186.07.26.26 0 0 0-.07.195l-.166-.017a.397.397 0 0 1 .128-.281.432.432 0 0 1 .298-.1c.124 0 .223.037.298.108.074.07.111.155.111.256a.404.404 0 0 1-.033.158.627.627 0 0 1-.107.157c-.05.055-.133.132-.248.231a2.18 2.18 0 0 0-.186.166.489.489 0 0 0-.07.086zm0 0"/><path fill="var(--background-color)" fill-rule="evenodd" stroke="#4c4c4c" stroke-dasharray="1.1016, 1.1016, 1.1016, 1.1016" stroke-linejoin="round" stroke-miterlimit="10" stroke-width=".032" d="M32.094 30.534h-2.91v-2.91h5.82v2.91zm0 0"/><path fill="var(--text-color)" d="M29.62 29.792v-1.306h.173v.537h.682v-.537h.174v1.306h-.174v-.616h-.682v.616ZM31.539 29.677a.68.68 0 0 1-.174.107.546.546 0 0 1-.174.029.362.362 0 0 1-.244-.074.253.253 0 0 1-.082-.195c0-.046.009-.089.029-.128a.27.27 0 0 1 .082-.09.361.361 0 0 1 .12-.055c.03-.008.077-.016.14-.024.133-.017.23-.035.29-.054v-.046c0-.063-.015-.108-.045-.136a.275.275 0 0 0-.182-.054c-.078 0-.135.015-.17.042-.036.024-.062.07-.078.136l-.157-.02a.373.373 0 0 1 .07-.162.314.314 0 0 1 .14-.095.657.657 0 0 1 .215-.033c.083 0 .15.01.199.029a.22.22 0 0 1 .161.178.934.934 0 0 1 .008.148v.215c0 .15.002.244.009.286.008.039.022.076.045.111h-.17a.346.346 0 0 1-.032-.115zm-.013-.36a1.11 1.11 0 0 1-.264.062.48.48 0 0 0-.14.033.126.126 0 0 0-.084.124c0 .044.015.082.046.112.033.027.08.04.145.04a.312.312 0 0 0 .272-.152.397.397 0 0 0 .025-.161ZM31.862 29.511l.157-.025a.21.21 0 0 0 .074.145c.042.033.1.05.174.05.071 0 .125-.015.161-.046.035-.03.054-.064.054-.103a.105.105 0 0 0-.046-.087.826.826 0 0 0-.165-.054 1.45 1.45 0 0 1-.248-.078.246.246 0 0 1-.103-.091.237.237 0 0 1-.034-.124.248.248 0 0 1 .108-.207.476.476 0 0 1 .244-.066c.074 0 .138.011.194.033.058.02.1.049.124.087a.35.35 0 0 1 .058.144l-.157.021a.163.163 0 0 0-.066-.111.219.219 0 0 0-.14-.042c-.075 0-.129.013-.162.037-.03.023-.045.05-.045.083 0 .023.006.041.02.058.01.016.03.031.058.041.017.007.064.02.145.042.112.03.191.055.235.074.047.02.083.049.108.087a.27.27 0 0 1-.008.285.308.308 0 0 1-.137.112.5.5 0 0 1-.198.037.469.469 0 0 1-.285-.074.354.354 0 0 1-.12-.228ZM32.85 29.792v-1.306h.161v.467a.364.364 0 0 1 .286-.128c.068 0 .129.014.182.041a.247.247 0 0 1 .111.116.527.527 0 0 1 .033.21v.6h-.161v-.6c0-.079-.019-.137-.054-.173-.033-.038-.081-.058-.144-.058a.271.271 0 0 0-.137.038.22.22 0 0 0-.09.103.483.483 0 0 0-.026.174v.516ZM33.842 29.445l.16-.02a.35.35 0 0 0 .092.198c.043.04.099.058.165.058a.258.258 0 0 0 .19-.079.265.265 0 0 0 .079-.194.236.236 0 0 0-.075-.178.24.24 0 0 0-.182-.074.562.562 0 0 0-.115.016l.02-.14c.01.003.019.004.025.004.068 0 .13-.018.186-.054.055-.035.083-.091.083-.165 0-.06-.02-.11-.062-.15a.21.21 0 0 0-.153-.057.212.212 0 0 0-.157.062.305.305 0 0 0-.083.174l-.161-.03a.419.419 0 0 1 .136-.247.38.38 0 0 1 .26-.091.41.41 0 0 1 .2.05.332.332 0 0 1 .185.293.276.276 0 0 1-.045.153.308.308 0 0 1-.137.111.283.283 0 0 1 .178.112.334.334 0 0 1 .066.21c0 .115-.041.21-.124.29a.437.437 0 0 1-.318.12.409.409 0 0 1-.285-.103.38.38 0 0 1-.128-.269Zm0 0"/><path fill="var(--background-color)" fill-rule="evenodd" stroke="#4c4c4c" stroke-dasharray="1.1016, 1.1016, 1.1016, 1.1016" stroke-linejoin="round" stroke-miterlimit="10" stroke-width=".032" d="M27.702 21.828h-4.366v-2.91h8.758v2.91zm0 0"/><path fill="var(--text-color)" d="M24.751 21.167V19.86h.174v.538h.682v-.538h.174v1.307h-.174v-.616h-.682v.616ZM26.67 21.051a.68.68 0 0 1-.173.108.546.546 0 0 1-.174.029.362.362 0 0 1-.244-.075.253.253 0 0 1-.083-.194c0-.047.01-.09.03-.128a.27.27 0 0 1 .082-.091.361.361 0 0 1 .12-.054c.03-.008.076-.017.14-.025.133-.016.229-.034.29-.054v-.045c0-.063-.016-.109-.046-.136a.275.275 0 0 0-.182-.054c-.077 0-.134.014-.169.041-.036.025-.062.07-.079.137l-.157-.021a.373.373 0 0 1 .07-.161.314.314 0 0 1 .141-.095.657.657 0 0 1 .215-.034c.083 0 .149.01.199.03a.22.22 0 0 1 .16.177.934.934 0 0 1 .01.149v.215c0 .149.001.244.007.285.009.04.023.077.046.112h-.17a.346.346 0 0 1-.033-.116zm-.012-.36a1.11 1.11 0 0 1-.265.062.48.48 0 0 0-.14.034.126.126 0 0 0-.083.124c0 .044.015.081.046.111.033.028.08.042.144.042a.312.312 0 0 0 .273-.153.397.397 0 0 0 .025-.162ZM26.993 20.886l.157-.025a.21.21 0 0 0 .075.145c.041.033.1.05.173.05.072 0 .126-.015.162-.046.035-.03.053-.064.053-.104a.105.105 0 0 0-.045-.086.826.826 0 0 0-.165-.054 1.45 1.45 0 0 1-.248-.079.246.246 0 0 1-.104-.09.237.237 0 0 1-.033-.125.248.248 0 0 1 .108-.206.476.476 0 0 1 .244-.066c.074 0 .138.01.194.033.058.02.1.048.124.086a.35.35 0 0 1 .058.145l-.157.02a.163.163 0 0 0-.066-.11.219.219 0 0 0-.141-.042c-.074 0-.128.012-.161.037-.031.023-.046.05-.046.083 0 .022.006.041.02.058.011.016.03.03.059.04.016.007.064.02.144.042.113.031.192.056.236.075.047.02.083.048.108.086a.27.27 0 0 1-.008.285.308.308 0 0 1-.137.112.5.5 0 0 1-.199.038.469.469 0 0 1-.285-.075.354.354 0 0 1-.12-.227ZM27.982 21.167V19.86h.161v.468a.364.364 0 0 1 .285-.129c.069 0 .13.015.182.042a.247.247 0 0 1 .112.116.527.527 0 0 1 .033.21v.6h-.161v-.6c0-.08-.019-.137-.054-.173-.033-.038-.082-.058-.145-.058a.271.271 0 0 0-.136.037.22.22 0 0 0-.091.103.483.483 0 0 0-.025.174v.517ZM29.817 21.014v.153h-.869c0-.038.007-.076.021-.112a.616.616 0 0 1 .103-.173c.05-.058.121-.124.215-.199.14-.116.236-.208.286-.277a.33.33 0 0 0 .078-.194.215.215 0 0 0-.07-.161.254.254 0 0 0-.178-.066.252.252 0 0 0-.186.07.26.26 0 0 0-.07.194l-.166-.016a.397.397 0 0 1 .129-.282.432.432 0 0 1 .297-.099c.124 0 .224.036.298.108.074.069.112.155.112.256a.404.404 0 0 1-.034.157.627.627 0 0 1-.107.157c-.05.056-.132.133-.248.232a2.18 2.18 0 0 0-.186.165.489.489 0 0 0-.07.087zM30.006 20.82l.161-.021a.35.35 0 0 0 .091.198c.043.04.1.058.165.058a.258.258 0 0 0 .19-.078.265.265 0 0 0 .08-.195.236.236 0 0 0-.075-.177.24.24 0 0 0-.182-.075.562.562 0 0 0-.116.017l.02-.14.026.003c.068 0 .13-.017.186-.053.054-.036.082-.091.082-.166 0-.06-.02-.11-.062-.149a.21.21 0 0 0-.153-.057.212.212 0 0 0-.157.062.305.305 0 0 0-.082.173l-.162-.029a.419.419 0 0 1 .137-.248.38.38 0 0 1 .26-.09.41.41 0 0 1 .199.049.332.332 0 0 1 .186.293.276.276 0 0 1-.046.153.308.308 0 0 1-.136.112.283.283 0 0 1 .177.112.334.334 0 0 1 .067.21c0 .114-.042.21-.124.29a.437.437 0 0 1-.319.12.409.409 0 0 1-.285-.104.38.38 0 0 1-.128-.268Zm0 0"/><path fill="var(--text-color)" fill-rule="evenodd" d="m38.656 121.576-.265 1.8-1.032-.503zm0 0" style="stroke-width:.264583" transform="translate(-29.898 -99.748)"/><path fill="none" stroke="var(--text-color)" stroke-miterlimit="10" stroke-width=".026" d="m5.848 27.623 2.275-4.552"/><path fill="var(--text-color)" fill-rule="evenodd" d="m41.566 121.576 1.296 1.297-1.031.502zm0 0" style="stroke-width:.264583" transform="translate(-29.898 -99.748)"/><path fill="none" stroke="var(--text-color)" stroke-miterlimit="10" stroke-width=".026" d="m14.579 27.623-2.276-4.552"/><path fill="var(--text-color)" fill-rule="evenodd" d="m56.144 121.576-.237 1.8-1.059-.503zm0 0" style="stroke-width:.264583" transform="translate(-29.898 -99.748)"/><path fill="none" stroke="var(--text-color)" stroke-miterlimit="10" stroke-width=".026" d="m23.336 27.623 2.303-4.552"/><path fill="var(--text-color)" fill-rule="evenodd" d="m59.082 121.576 1.296 1.297-1.059.502zm0 0" style="stroke-width:.264583" transform="translate(-29.898 -99.748)"/><path fill="none" stroke="var(--text-color)" stroke-miterlimit="10" stroke-width=".026" d="m32.094 27.623-2.302-4.552"/><path fill="var(--background-color)" fill-rule="evenodd" stroke="var(--text-color)" stroke-linejoin="round" stroke-miterlimit="10" stroke-width=".032" d="M18.97 13.097h-5.846v-2.91H24.79v2.91zm0 0"/><path fill="var(--text-color)" d="M14.723 12.383v-1.307h.58c.117 0 .207.013.268.038.06.022.108.064.145.124a.369.369 0 0 1 .053.194.33.33 0 0 1-.09.236c-.058.064-.151.103-.278.12.047.022.081.044.104.066.051.047.1.105.144.173l.228.356h-.215l-.174-.273a3.4 3.4 0 0 0-.128-.178.412.412 0 0 0-.087-.09.236.236 0 0 0-.078-.034.99.99 0 0 0-.1-.004h-.198v.579Zm.174-.732h.372c.08 0 .142-.008.186-.025a.194.194 0 0 0 .1-.078.198.198 0 0 0 .037-.116.19.19 0 0 0-.07-.153c-.045-.038-.115-.058-.212-.058h-.413zM15.965 11.907c0-.173.047-.303.144-.388a.453.453 0 0 1 .298-.104c.132 0 .24.044.322.128a.485.485 0 0 1 .124.352c0 .122-.02.218-.057.29a.38.38 0 0 1-.162.16.462.462 0 0 1-.227.058.427.427 0 0 1-.323-.128c-.08-.085-.12-.208-.12-.368Zm.165 0c0 .122.026.213.078.273a.248.248 0 0 0 .199.091.25.25 0 0 0 .198-.09c.055-.06.083-.154.083-.278 0-.116-.028-.203-.083-.264a.254.254 0 0 0-.198-.091.251.251 0 0 0-.199.09c-.052.058-.078.148-.078.27zM16.97 11.907c0-.173.047-.303.144-.388a.453.453 0 0 1 .298-.104c.132 0 .24.044.323.128a.485.485 0 0 1 .124.352c0 .122-.02.218-.058.29a.38.38 0 0 1-.161.16.462.462 0 0 1-.228.058.427.427 0 0 1-.322-.128c-.08-.085-.12-.208-.12-.368Zm.165 0c0 .122.026.213.079.273a.248.248 0 0 0 .198.091.25.25 0 0 0 .199-.09c.054-.06.082-.154.082-.278 0-.116-.028-.203-.082-.264a.254.254 0 0 0-.199-.091.251.251 0 0 0-.198.09c-.053.058-.079.148-.079.27zM18.412 12.238l.025.145a.737.737 0 0 1-.124.012.31.31 0 0 1-.137-.025.159.159 0 0 1-.066-.074.531.531 0 0 1-.02-.19v-.546h-.116v-.124h.115V11.2l.162-.095v.331h.16v.124h-.16v.554a.28.28 0 0 0 .008.09c.005.012.013.022.025.03a.112.112 0 0 0 .057.012.326.326 0 0 0 .07-.008zM19.118 12.383v-1.307h.173v.538h.683v-.538h.173v1.307h-.173v-.616h-.683v.616ZM21.01 12.267a.68.68 0 0 1-.174.107.546.546 0 0 1-.174.03.362.362 0 0 1-.244-.075.253.253 0 0 1-.082-.194c0-.047.009-.09.029-.128a.27.27 0 0 1 .082-.091.361.361 0 0 1 .12-.054c.03-.008.077-.017.14-.025.133-.017.23-.034.29-.054v-.045c0-.063-.015-.109-.045-.137a.275.275 0 0 0-.182-.053c-.078 0-.135.014-.17.041-.036.025-.062.07-.078.136l-.157-.02a.373.373 0 0 1 .07-.162.314.314 0 0 1 .14-.095.657.657 0 0 1 .215-.033c.083 0 .15.01.199.03a.22.22 0 0 1 .161.177.934.934 0 0 1 .008.149v.215c0 .149.002.244.009.285.008.04.022.077.045.112h-.17a.346.346 0 0 1-.033-.116zm-.013-.36a1.11 1.11 0 0 1-.265.062.48.48 0 0 0-.14.033.126.126 0 0 0-.083.124c0 .045.015.082.046.112.033.028.08.041.144.041a.312.312 0 0 0 .273-.153.397.397 0 0 0 .025-.16ZM21.36 12.102l.157-.025a.21.21 0 0 0 .075.144c.04.034.099.05.173.05.071 0 .125-.014.161-.045.036-.03.054-.064.054-.104a.105.105 0 0 0-.045-.087.826.826 0 0 0-.166-.053 1.45 1.45 0 0 1-.248-.079.246.246 0 0 1-.103-.09.237.237 0 0 1-.033-.125.248.248 0 0 1 .107-.207.476.476 0 0 1 .244-.066c.075 0 .139.012.195.033.057.02.099.049.124.087a.35.35 0 0 1 .057.145l-.157.02a.163.163 0 0 0-.066-.111.219.219 0 0 0-.14-.041c-.075 0-.129.012-.162.037-.03.023-.045.05-.045.083 0 .022.006.04.02.057.01.017.03.031.058.042.017.006.065.02.145.041.113.031.191.056.236.074.046.02.082.05.107.087a.27.27 0 0 1-.008.285.308.308 0 0 1-.136.112.5.5 0 0 1-.199.037.469.469 0 0 1-.285-.074.354.354 0 0 1-.12-.227ZM22.349 12.383v-1.307h.16v.467a.364.364 0 0 1 .286-.128c.068 0 .13.015.182.042a.247.247 0 0 1 .112.115.527.527 0 0 1 .033.211v.6h-.162v-.6c0-.08-.018-.137-.053-.173-.033-.039-.082-.058-.145-.058a.271.271 0 0 0-.136.037.22.22 0 0 0-.091.103.483.483 0 0 0-.025.174v.517Zm0 0"/><path fill="var(--text-color)" fill-rule="evenodd" d="m45.932 112.845-.556 1.746-.952-.714zm0 0" style="stroke-width:.264583" transform="translate(-29.898 -99.748)"/><path fill="none" stroke="var(--text-color)" stroke-miterlimit="10" stroke-width=".026" d="m11.669 18.918 3.545-4.71"/><path fill="var(--text-color)" fill-rule="evenodd" d="m51.779 112.845 1.509 1.032-.926.714zm0 0" style="stroke-width:.264583" transform="translate(-29.898 -99.748)"/><path fill="none" stroke="var(--text-color)" stroke-miterlimit="10" stroke-width=".026" d="m26.246 18.918-3.518-4.71"/><path fill="var(--background-color)" fill-rule="evenodd" stroke="var(--text-color)" stroke-linejoin="round" stroke-miterlimit="10" stroke-width=".032" d="M52.255 21.828h-4.391v-2.91h8.757v2.91zm0 0"/><path fill="var(--text-color)" d="M49.225 21.167V19.86h.174v.538h.682v-.538h.174v1.307h-.174v-.616h-.682v.616ZM51.144 21.051a.68.68 0 0 1-.173.108.546.546 0 0 1-.174.029.362.362 0 0 1-.244-.075.253.253 0 0 1-.083-.194c0-.047.01-.09.03-.128a.27.27 0 0 1 .082-.091.361.361 0 0 1 .12-.054c.03-.008.076-.017.14-.025.133-.016.229-.034.29-.054v-.045c0-.063-.016-.109-.046-.136a.275.275 0 0 0-.182-.054c-.077 0-.134.014-.169.041-.036.025-.062.07-.079.137l-.157-.021a.373.373 0 0 1 .07-.161.314.314 0 0 1 .141-.095.657.657 0 0 1 .215-.034c.083 0 .149.01.199.03a.22.22 0 0 1 .16.177.934.934 0 0 1 .01.149v.215c0 .149.001.244.007.285.009.04.023.077.046.112h-.17a.346.346 0 0 1-.033-.116zm-.012-.36a1.11 1.11 0 0 1-.265.062.48.48 0 0 0-.14.034.126.126 0 0 0-.083.124c0 .044.014.081.045.111.034.028.081.042.145.042a.312.312 0 0 0 .273-.153.397.397 0 0 0 .025-.162ZM51.467 20.886l.157-.025a.21.21 0 0 0 .075.145c.041.033.099.05.173.05.072 0 .126-.015.162-.046.035-.03.053-.064.053-.104a.105.105 0 0 0-.045-.086.826.826 0 0 0-.165-.054 1.45 1.45 0 0 1-.248-.079.246.246 0 0 1-.104-.09.237.237 0 0 1-.033-.125.248.248 0 0 1 .108-.206.476.476 0 0 1 .244-.066c.074 0 .138.01.194.033.058.02.099.048.124.086a.35.35 0 0 1 .058.145l-.157.02a.163.163 0 0 0-.067-.11.219.219 0 0 0-.14-.042c-.074 0-.128.012-.161.037-.031.023-.046.05-.046.083 0 .022.006.041.02.058.011.016.03.03.059.04.016.007.064.02.144.042.113.031.192.056.236.075.047.02.083.048.108.086a.27.27 0 0 1-.008.285.308.308 0 0 1-.137.112.5.5 0 0 1-.199.038.469.469 0 0 1-.285-.075.354.354 0 0 1-.12-.227ZM52.456 21.167V19.86h.161v.468a.364.364 0 0 1 .285-.129c.069 0 .13.015.182.042a.247.247 0 0 1 .112.116.527.527 0 0 1 .033.21v.6h-.161v-.6c0-.08-.019-.137-.054-.173-.033-.038-.082-.058-.145-.058a.271.271 0 0 0-.136.037.22.22 0 0 0-.091.103.483.483 0 0 0-.025.174v.517ZM53.443 20.522c0-.154.017-.278.05-.372a.472.472 0 0 1 .14-.22.366.366 0 0 1 .24-.078c.068 0 .13.016.182.046.055.028.1.068.132.12a.633.633 0 0 1 .083.194c.018.077.029.18.029.31 0 .155-.017.279-.05.372a.461.461 0 0 1-.14.22.361.361 0 0 1-.236.074.36.36 0 0 1-.298-.133c-.089-.11-.132-.287-.132-.533zm.165 0c0 .215.025.359.075.43a.23.23 0 0 0 .19.103.221.221 0 0 0 .186-.103c.05-.071.074-.215.074-.43s-.024-.358-.074-.43a.225.225 0 0 0-.19-.107.202.202 0 0 0-.174.095c-.058.08-.087.227-.087.442ZM55.056 21.167h-.161v-1.025a.807.807 0 0 1-.153.115.986.986 0 0 1-.17.079v-.153a1.03 1.03 0 0 0 .236-.153.586.586 0 0 0 .145-.178h.103zm0 0"/><path fill="var(--background-color)" fill-rule="evenodd" stroke="var(--text-color)" stroke-linejoin="round" stroke-miterlimit="10" stroke-width=".032" d="M65.644 30.534h-2.91v-2.91h5.82v2.91zm0 0"/><path fill="var(--text-color)" d="M63.195 29.792v-1.306h.174v.537h.682v-.537h.174v1.306h-.174v-.616h-.682v.616ZM65.114 29.677a.68.68 0 0 1-.173.107.546.546 0 0 1-.174.029.362.362 0 0 1-.244-.074.253.253 0 0 1-.083-.195c0-.046.01-.089.03-.128a.27.27 0 0 1 .082-.09.361.361 0 0 1 .12-.055c.03-.008.076-.016.14-.024.133-.017.229-.035.29-.054v-.046c0-.063-.016-.108-.046-.136a.275.275 0 0 0-.182-.054c-.077 0-.134.015-.17.042-.035.024-.061.07-.078.136l-.157-.02a.373.373 0 0 1 .07-.162.314.314 0 0 1 .141-.095.657.657 0 0 1 .215-.033c.083 0 .149.01.199.029a.22.22 0 0 1 .16.178.934.934 0 0 1 .01.148v.215c0 .15.001.244.007.286.009.039.023.076.046.111h-.17a.346.346 0 0 1-.033-.115zm-.012-.36a1.11 1.11 0 0 1-.265.062.48.48 0 0 0-.14.033.126.126 0 0 0-.083.124c0 .044.014.082.045.112.034.027.081.04.145.04a.312.312 0 0 0 .273-.152.397.397 0 0 0 .025-.161ZM65.437 29.511l.157-.025a.21.21 0 0 0 .075.145c.041.033.099.05.173.05.072 0 .126-.015.162-.046.035-.03.053-.064.053-.103a.105.105 0 0 0-.045-.087.826.826 0 0 0-.165-.054 1.45 1.45 0 0 1-.248-.078.246.246 0 0 1-.104-.091.237.237 0 0 1-.033-.124.248.248 0 0 1 .108-.207.476.476 0 0 1 .244-.066c.074 0 .138.011.194.033.058.02.099.049.124.087a.35.35 0 0 1 .058.144l-.157.021a.163.163 0 0 0-.067-.111.219.219 0 0 0-.14-.042c-.074 0-.128.013-.161.037-.031.023-.046.05-.046.083 0 .023.006.041.02.058.011.016.03.031.059.041.016.007.064.02.144.042.113.03.192.055.236.074.047.02.083.049.108.087a.27.27 0 0 1-.008.285.308.308 0 0 1-.137.112.5.5 0 0 1-.199.037.469.469 0 0 1-.285-.074.354.354 0 0 1-.12-.228ZM66.426 29.792v-1.306h.161v.467a.364.364 0 0 1 .285-.128c.069 0 .13.014.182.041a.247.247 0 0 1 .112.116.527.527 0 0 1 .033.21v.6h-.161v-.6c0-.079-.019-.137-.054-.173-.033-.038-.082-.058-.145-.058a.271.271 0 0 0-.136.038.22.22 0 0 0-.091.103.483.483 0 0 0-.025.174v.516ZM68.26 29.64v.152h-.868c0-.038.007-.075.021-.111a.616.616 0 0 1 .103-.174c.05-.058.121-.124.215-.198.14-.116.236-.208.286-.277a.33.33 0 0 0 .078-.195.215.215 0 0 0-.07-.16.254.254 0 0 0-.178-.067.252.252 0 0 0-.186.07.26.26 0 0 0-.07.195l-.166-.017a.397.397 0 0 1 .129-.281.432.432 0 0 1 .297-.1c.124 0 .223.037.298.108.074.07.112.155.112.256a.404.404 0 0 1-.034.158.627.627 0 0 1-.107.157c-.05.055-.132.132-.248.231a2.18 2.18 0 0 0-.186.166.489.489 0 0 0-.07.086zm0 0"/><path fill="var(--background-color)" fill-rule="evenodd" stroke="var(--text-color)" stroke-linejoin="round" stroke-miterlimit="10" stroke-width=".032" d="M74.4 37.81h-2.936V34.9h5.847v2.91zm0 0"/><path fill="var(--text-color)" d="M73.395 37.068v-1.153h-.434v-.153h1.042v.153h-.435v1.153ZM74.043 37.068l.347-.492-.318-.454h.199l.144.223c.027.041.05.076.066.103l.075-.103.161-.223h.19l-.326.446.351.5h-.198l-.195-.293-.05-.079-.252.372ZM74.983 36.721l.161-.02a.35.35 0 0 0 .09.198c.044.04.1.058.166.058a.258.258 0 0 0 .19-.079.265.265 0 0 0 .079-.194.236.236 0 0 0-.074-.178.24.24 0 0 0-.182-.074.562.562 0 0 0-.116.016l.02-.14c.01.003.02.004.025.004.069 0 .13-.018.186-.054.055-.035.083-.09.083-.165 0-.06-.02-.11-.062-.15a.21.21 0 0 0-.153-.057.212.212 0 0 0-.157.062.305.305 0 0 0-.083.174l-.16-.03a.419.419 0 0 1 .136-.247.38.38 0 0 1 .26-.091.41.41 0 0 1 .198.05.332.332 0 0 1 .186.293.276.276 0 0 1-.045.153.308.308 0 0 1-.136.111.283.283 0 0 1 .177.112.334.334 0 0 1 .066.21c0 .115-.04.21-.124.29a.437.437 0 0 1-.318.12.409.409 0 0 1-.285-.103.38.38 0 0 1-.128-.269Zm0 0"/><path fill="var(--background-color)" fill-rule="evenodd" stroke="#4c4c4c" stroke-dasharray="1.1016, 1.1016, 1.1016, 1.1016" stroke-linejoin="round" stroke-miterlimit="10" stroke-width=".032" d="M69.745 21.828h-4.366v-2.91h8.757v2.91zm0 0"/><path fill="var(--text-color)" d="M66.688 21.167V19.86h.173v.538h.682v-.538h.174v1.307h-.174v-.616h-.682v.616ZM68.607 21.051a.68.68 0 0 1-.174.108.546.546 0 0 1-.174.029.362.362 0 0 1-.243-.075.253.253 0 0 1-.083-.194c0-.047.01-.09.029-.128a.27.27 0 0 1 .082-.091.361.361 0 0 1 .12-.054c.03-.008.077-.017.14-.025.133-.016.23-.034.29-.054v-.045c0-.063-.015-.109-.045-.136a.275.275 0 0 0-.182-.054c-.078 0-.134.014-.17.041-.036.025-.062.07-.078.137l-.157-.021a.373.373 0 0 1 .07-.161.314.314 0 0 1 .14-.095.657.657 0 0 1 .216-.034c.082 0 .148.01.198.03a.22.22 0 0 1 .161.177.934.934 0 0 1 .009.149v.215c0 .149.002.244.008.285.008.04.023.077.045.112h-.17a.346.346 0 0 1-.032-.116zm-.013-.36a1.11 1.11 0 0 1-.264.062.48.48 0 0 0-.14.034.126.126 0 0 0-.083.124c0 .044.014.081.045.111.033.028.08.042.145.042a.312.312 0 0 0 .273-.153.397.397 0 0 0 .024-.162ZM68.93 20.886l.157-.025a.21.21 0 0 0 .074.145c.042.033.1.05.174.05.071 0 .125-.015.161-.046.035-.03.054-.064.054-.104a.105.105 0 0 0-.046-.086.826.826 0 0 0-.165-.054 1.45 1.45 0 0 1-.248-.079.246.246 0 0 1-.103-.09.237.237 0 0 1-.033-.125.248.248 0 0 1 .107-.206.476.476 0 0 1 .244-.066c.074 0 .139.01.194.033.058.02.1.048.124.086a.35.35 0 0 1 .058.145l-.157.02a.163.163 0 0 0-.066-.11.219.219 0 0 0-.14-.042c-.075 0-.129.012-.162.037-.03.023-.045.05-.045.083 0 .022.006.041.02.058.01.016.03.03.058.04.017.007.064.02.145.042.113.031.191.056.236.075.046.02.082.048.107.086a.27.27 0 0 1-.008.285.308.308 0 0 1-.137.112.5.5 0 0 1-.198.038.469.469 0 0 1-.285-.075.354.354 0 0 1-.12-.227ZM69.918 21.167V19.86h.162v.468a.364.364 0 0 1 .285-.129c.068 0 .129.015.182.042a.247.247 0 0 1 .111.116.527.527 0 0 1 .033.21v.6h-.16v-.6c0-.08-.02-.137-.055-.173-.033-.038-.081-.058-.144-.058a.271.271 0 0 0-.137.037.22.22 0 0 0-.09.103.483.483 0 0 0-.025.174v.517ZM71.753 21.014v.153h-.868c0-.038.006-.076.02-.112a.616.616 0 0 1 .104-.173c.05-.058.12-.124.215-.199.14-.116.235-.208.285-.277a.33.33 0 0 0 .079-.194.215.215 0 0 0-.07-.161.254.254 0 0 0-.178-.066.252.252 0 0 0-.186.07.26.26 0 0 0-.07.194l-.166-.016a.397.397 0 0 1 .128-.282.432.432 0 0 1 .298-.099c.124 0 .223.036.297.108.075.069.112.155.112.256a.404.404 0 0 1-.033.157.627.627 0 0 1-.108.157c-.05.056-.132.133-.248.232a2.18 2.18 0 0 0-.186.165.489.489 0 0 0-.07.087zM71.942 20.82l.162-.021a.35.35 0 0 0 .09.198c.044.04.1.058.166.058a.258.258 0 0 0 .19-.078.265.265 0 0 0 .079-.195.236.236 0 0 0-.075-.177.24.24 0 0 0-.182-.075.562.562 0 0 0-.115.017l.02-.14.025.003c.068 0 .13-.017.186-.053.055-.036.083-.091.083-.166 0-.06-.021-.11-.062-.149a.21.21 0 0 0-.153-.057.212.212 0 0 0-.157.062.305.305 0 0 0-.083.173l-.161-.029a.419.419 0 0 1 .136-.248.38.38 0 0 1 .26-.09.41.41 0 0 1 .199.049.332.332 0 0 1 .186.293.276.276 0 0 1-.045.153.308.308 0 0 1-.137.112.283.283 0 0 1 .178.112.334.334 0 0 1 .066.21c0 .114-.041.21-.124.29a.437.437 0 0 1-.318.12.409.409 0 0 1-.286-.104.38.38 0 0 1-.128-.268Zm0 0"/><path fill="var(--text-color)" fill-rule="evenodd" d="m98.187 121.576-.264 1.8-1.033-.503zm0 0" style="stroke-width:.264583" transform="translate(-29.898 -99.748)"/><path fill="none" stroke="var(--text-color)" stroke-miterlimit="10" stroke-width=".026" d="m65.379 27.623 2.275-4.552"/><path fill="var(--text-color)" fill-rule="evenodd" d="m101.098 121.576 1.323 1.297-1.059.502zm0 0" style="stroke-width:.264583" transform="translate(-29.898 -99.748)"/><path fill="none" stroke="var(--text-color)" stroke-miterlimit="10" stroke-width=".026" d="m74.136 27.623-2.302-4.552"/><path fill="var(--background-color)" fill-rule="evenodd" stroke="var(--text-color)" stroke-linejoin="round" stroke-miterlimit="10" stroke-width=".032" d="M62.733 14.552h-13.15V1.455h26.273v13.097zm0 0"/><path fill="var(--text-color)" d="M51.197 4.048V2.742h.492c.101 0 .183.014.244.041a.29.29 0 0 1 .14.12.323.323 0 0 1 .054.174.277.277 0 0 1-.05.157.33.33 0 0 1-.136.12c.08.023.14.062.182.12.044.055.066.12.066.194a.371.371 0 0 1-.041.174.298.298 0 0 1-.095.12.469.469 0 0 1-.145.066.864.864 0 0 1-.21.02Zm.174-.756h.285a.57.57 0 0 0 .165-.017.186.186 0 0 0 .1-.066.186.186 0 0 0 .033-.112.208.208 0 0 0-.033-.115.144.144 0 0 0-.087-.066.678.678 0 0 0-.199-.021h-.264zm0 .603h.326a.535.535 0 0 0 .12-.008.262.262 0 0 0 .1-.033.21.21 0 0 0 .09-.186.214.214 0 0 0-.037-.124.192.192 0 0 0-.103-.079.686.686 0 0 0-.19-.02h-.306ZM52.398 4.048V2.742h.161v1.306ZM52.742 3.573c0-.174.047-.303.144-.389a.453.453 0 0 1 .298-.103c.132 0 .24.043.323.128a.485.485 0 0 1 .124.352c0 .121-.02.218-.058.289a.38.38 0 0 1-.162.161.462.462 0 0 1-.227.058.427.427 0 0 1-.322-.128c-.081-.085-.12-.208-.12-.368Zm.165 0c0 .122.026.213.079.273a.248.248 0 0 0 .198.09.25.25 0 0 0 .199-.09c.054-.06.082-.153.082-.277 0-.116-.028-.204-.082-.265a.254.254 0 0 0-.199-.09.251.251 0 0 0-.198.09c-.053.058-.079.148-.079.269zM54.452 3.701l.158.02a.398.398 0 0 1-.133.257.39.39 0 0 1-.26.091.416.416 0 0 1-.314-.124c-.081-.085-.12-.208-.12-.368 0-.101.016-.191.05-.269a.35.35 0 0 1 .156-.17.46.46 0 0 1 .228-.057.4.4 0 0 1 .252.078c.066.05.108.123.128.22l-.157.024a.259.259 0 0 0-.083-.14.19.19 0 0 0-.132-.05.26.26 0 0 0-.203.087c-.05.058-.074.149-.074.273 0 .127.025.219.074.277.05.058.113.087.19.087a.219.219 0 0 0 .158-.058.28.28 0 0 0 .082-.178zM54.759 4.048V2.742h.161v.744l.384-.384h.207l-.364.351.401.595h-.198l-.314-.483-.116.107v.376ZM56.212 4.048V2.742h.173v.537h.683v-.537h.173v1.306h-.173v-.616h-.683v.616ZM58.132 3.742l.17.021a.424.424 0 0 1-.149.227.432.432 0 0 1-.269.079.443.443 0 0 1-.335-.128c-.08-.085-.12-.205-.12-.36 0-.157.042-.279.125-.368a.423.423 0 0 1 .322-.132.41.41 0 0 1 .31.128c.08.086.12.207.12.364v.041h-.711a.377.377 0 0 0 .09.24.258.258 0 0 0 .2.083.24.24 0 0 0 .148-.046.279.279 0 0 0 .1-.149zm-.525-.26h.53a.324.324 0 0 0-.063-.178.245.245 0 0 0-.198-.09.252.252 0 0 0-.186.074.281.281 0 0 0-.083.194zM59.136 3.933a.68.68 0 0 1-.174.107.546.546 0 0 1-.173.029.362.362 0 0 1-.244-.074.253.253 0 0 1-.083-.195c0-.046.01-.089.03-.128a.27.27 0 0 1 .082-.09.361.361 0 0 1 .12-.055c.03-.008.076-.016.14-.024.133-.017.229-.034.29-.054v-.046c0-.063-.016-.108-.046-.136a.275.275 0 0 0-.182-.054c-.077 0-.134.015-.17.042-.035.024-.061.07-.078.136l-.157-.02a.373.373 0 0 1 .07-.162.314.314 0 0 1 .141-.095.657.657 0 0 1 .215-.033c.083 0 .149.01.198.029a.22.22 0 0 1 .162.178.934.934 0 0 1 .008.148v.215c0 .15.002.244.008.286.008.039.023.076.046.111h-.17a.346.346 0 0 1-.033-.115zm-.012-.36a1.11 1.11 0 0 1-.265.062.48.48 0 0 0-.14.033.126.126 0 0 0-.083.124c0 .044.014.082.045.112.033.028.08.041.145.041a.312.312 0 0 0 .273-.153.397.397 0 0 0 .025-.161ZM60.165 4.048v-.12a.295.295 0 0 1-.265.141.391.391 0 0 1-.36-.236.623.623 0 0 1-.05-.256c0-.096.015-.183.046-.26a.366.366 0 0 1 .145-.174.376.376 0 0 1 .21-.062c.059 0 .11.012.154.037.043.023.08.053.111.091v-.467h.157v1.306Zm-.509-.471c0 .122.025.213.075.273a.241.241 0 0 0 .186.087.23.23 0 0 0 .177-.083c.05-.058.075-.146.075-.265 0-.129-.025-.224-.075-.285a.233.233 0 0 0-.186-.09.23.23 0 0 0-.182.086c-.047.058-.07.151-.07.277zM61.203 3.742l.17.021a.424.424 0 0 1-.15.227.432.432 0 0 1-.268.079.443.443 0 0 1-.335-.128c-.08-.085-.12-.205-.12-.36 0-.157.041-.279.124-.368a.423.423 0 0 1 .323-.132.41.41 0 0 1 .31.128c.08.086.12.207.12.364v.041h-.712a.377.377 0 0 0 .091.24.258.258 0 0 0 .199.083.24.24 0 0 0 .149-.046.279.279 0 0 0 .099-.149zm-.525-.26h.53a.324.324 0 0 0-.063-.178.245.245 0 0 0-.198-.09.252.252 0 0 0-.186.074.281.281 0 0 0-.083.194zM61.587 4.048v-.946h.144v.144a.346.346 0 0 1 .1-.132.191.191 0 0 1 .107-.033c.052 0 .107.016.165.05l-.058.148a.238.238 0 0 0-.115-.033.148.148 0 0 0-.095.033.172.172 0 0 0-.062.087.654.654 0 0 0-.025.186v.496ZM63.008 4.433a1.552 1.552 0 0 1-.227-.393 1.242 1.242 0 0 1-.025-.872c.055-.151.138-.302.252-.45h.116a1.592 1.592 0 0 0-.232.52 1.584 1.584 0 0 0-.037.339c0 .284.089.568.269.856zM63.318 4.048V2.742h.492c.101 0 .183.014.244.041a.29.29 0 0 1 .14.12.323.323 0 0 1 .054.174.277.277 0 0 1-.05.157.33.33 0 0 1-.136.12c.08.023.141.062.182.12.044.055.066.12.066.194a.371.371 0 0 1-.04.174.298.298 0 0 1-.096.12.469.469 0 0 1-.145.066.864.864 0 0 1-.21.02Zm.174-.756h.285a.57.57 0 0 0 .166-.017.186.186 0 0 0 .099-.066.186.186 0 0 0 .033-.112.208.208 0 0 0-.033-.115.144.144 0 0 0-.087-.066.678.678 0 0 0-.199-.021h-.264zm0 .603h.326a.535.535 0 0 0 .12-.008.262.262 0 0 0 .1-.033.21.21 0 0 0 .09-.186.214.214 0 0 0-.037-.124.192.192 0 0 0-.103-.079.686.686 0 0 0-.19-.02h-.306ZM64.52 4.048V2.742h.16v1.306ZM64.889 3.573c0-.174.047-.303.144-.389a.453.453 0 0 1 .298-.103c.132 0 .24.043.322.128a.485.485 0 0 1 .124.352c0 .121-.02.218-.058.289a.38.38 0 0 1-.16.161.462.462 0 0 1-.228.058.427.427 0 0 1-.323-.128c-.08-.085-.12-.208-.12-.368Zm.165 0c0 .122.026.213.078.273a.248.248 0 0 0 .199.09.25.25 0 0 0 .198-.09c.055-.06.083-.153.083-.277 0-.116-.028-.204-.083-.265a.254.254 0 0 0-.198-.09.251.251 0 0 0-.199.09c-.052.058-.078.148-.078.269zM66.572 3.701l.157.02a.398.398 0 0 1-.132.257.39.39 0 0 1-.26.091.416.416 0 0 1-.315-.124c-.08-.085-.12-.208-.12-.368 0-.101.017-.191.05-.269a.35.35 0 0 1 .157-.17.46.46 0 0 1 .227-.057.4.4 0 0 1 .252.078c.066.05.109.123.128.22l-.157.024a.259.259 0 0 0-.082-.14.19.19 0 0 0-.133-.05.26.26 0 0 0-.202.087c-.05.058-.075.149-.075.273 0 .127.025.219.075.277.05.058.112.087.19.087a.219.219 0 0 0 .157-.058.28.28 0 0 0 .083-.178zM66.878 4.048V2.742h.161v.744l.385-.384h.207l-.364.351.4.595h-.198l-.314-.483-.116.107v.376ZM68.333 4.048V2.742h.174v.537h.682v-.537h.173v1.306h-.173v-.616h-.682v.616ZM70.252 3.933a.68.68 0 0 1-.174.107.546.546 0 0 1-.173.029.362.362 0 0 1-.244-.074.253.253 0 0 1-.083-.195c0-.046.01-.089.03-.128a.27.27 0 0 1 .082-.09.361.361 0 0 1 .12-.055c.03-.008.076-.016.14-.024.133-.017.229-.034.29-.054v-.046c0-.063-.016-.108-.046-.136a.275.275 0 0 0-.182-.054c-.077 0-.134.015-.17.042-.035.024-.061.07-.078.136l-.157-.02a.373.373 0 0 1 .07-.162.314.314 0 0 1 .141-.095.657.657 0 0 1 .215-.033c.083 0 .149.01.198.029a.22.22 0 0 1 .162.178.934.934 0 0 1 .008.148v.215c0 .15.002.244.008.286.008.039.023.076.046.111h-.17a.346.346 0 0 1-.033-.115zm-.012-.36a1.11 1.11 0 0 1-.265.062.48.48 0 0 0-.14.033.126.126 0 0 0-.083.124c0 .044.014.082.045.112.033.028.08.041.145.041a.312.312 0 0 0 .273-.153.397.397 0 0 0 .025-.161ZM70.575 3.767l.157-.025a.21.21 0 0 0 .075.145c.041.033.099.05.173.05.072 0 .125-.015.162-.046.035-.03.053-.064.053-.103a.105.105 0 0 0-.045-.087.826.826 0 0 0-.166-.054 1.45 1.45 0 0 1-.248-.078.246.246 0 0 1-.103-.091.237.237 0 0 1-.033-.124.248.248 0 0 1 .107-.207.476.476 0 0 1 .244-.066c.075 0 .139.011.195.033.058.02.099.049.124.087a.35.35 0 0 1 .058.145l-.158.02a.163.163 0 0 0-.066-.111.219.219 0 0 0-.14-.042c-.075 0-.128.013-.161.037-.031.023-.046.05-.046.083 0 .023.006.041.02.058.011.017.03.031.059.041.016.007.064.02.144.042.113.03.191.055.236.074.046.02.083.049.107.087a.27.27 0 0 1-.008.285.308.308 0 0 1-.136.112.5.5 0 0 1-.199.037.469.469 0 0 1-.285-.074.354.354 0 0 1-.12-.228ZM71.564 4.048V2.742h.16v.467a.364.364 0 0 1 .286-.128c.068 0 .13.014.182.041a.247.247 0 0 1 .112.116.527.527 0 0 1 .033.21v.6h-.162v-.6c0-.079-.018-.137-.053-.173-.033-.038-.082-.058-.145-.058a.271.271 0 0 0-.136.038.22.22 0 0 0-.091.103.483.483 0 0 0-.025.174v.516ZM72.704 4.433h-.116c.176-.288.265-.572.265-.856a1.525 1.525 0 0 0-.12-.591 5.712 5.712 0 0 0-.145-.269h.116c.11.149.192.3.248.45a1.193 1.193 0 0 1-.025.873c-.06.149-.135.28-.223.393zm0 0"/><path fill="var(--background-color)" fill-rule="evenodd" stroke="var(--text-color)" stroke-linejoin="round" stroke-miterlimit="10" stroke-width=".032" d="M61.251 13.097h-5.82v-2.91h11.668v2.91zm0 0"/><path fill="var(--text-color)" d="M57.136 12.383v-1.307h.579c.118 0 .208.013.269.038.06.022.108.064.144.124a.369.369 0 0 1 .054.194.33.33 0 0 1-.09.236c-.059.064-.152.103-.278.12.047.022.08.044.103.066.052.047.1.105.145.173l.228.356h-.215l-.174-.273a3.4 3.4 0 0 0-.128-.178.412.412 0 0 0-.087-.09.236.236 0 0 0-.079-.034.99.99 0 0 0-.099-.004h-.198v.579Zm.174-.732h.372c.08 0 .141-.008.186-.025a.194.194 0 0 0 .1-.078.198.198 0 0 0 .036-.116.19.19 0 0 0-.07-.153c-.044-.038-.115-.058-.21-.058h-.414zM58.377 11.907c0-.173.048-.303.145-.388a.453.453 0 0 1 .298-.104c.132 0 .24.044.322.128a.485.485 0 0 1 .124.352c0 .122-.02.218-.058.29a.38.38 0 0 1-.161.16.462.462 0 0 1-.227.058.427.427 0 0 1-.323-.128c-.08-.085-.12-.208-.12-.368Zm.166 0c0 .122.025.213.078.273a.248.248 0 0 0 .199.091.25.25 0 0 0 .198-.09c.055-.06.083-.154.083-.278 0-.116-.028-.203-.083-.264a.254.254 0 0 0-.198-.091.251.251 0 0 0-.199.09c-.053.058-.078.148-.078.27zM59.41 11.907c0-.173.047-.303.145-.388a.453.453 0 0 1 .297-.104c.133 0 .24.044.323.128a.485.485 0 0 1 .124.352c0 .122-.02.218-.058.29a.38.38 0 0 1-.161.16.462.462 0 0 1-.228.058.427.427 0 0 1-.322-.128c-.08-.085-.12-.208-.12-.368Zm.165 0c0 .122.026.213.079.273a.248.248 0 0 0 .198.091.25.25 0 0 0 .199-.09c.055-.06.082-.154.082-.278 0-.116-.027-.203-.082-.264a.254.254 0 0 0-.199-.091.251.251 0 0 0-.198.09c-.053.058-.079.148-.079.27zM60.824 12.238l.025.145a.737.737 0 0 1-.124.012.31.31 0 0 1-.136-.025.159.159 0 0 1-.066-.074.531.531 0 0 1-.021-.19v-.546h-.116v-.124h.116V11.2l.161-.095v.331h.161v.124h-.16v.554a.28.28 0 0 0 .007.09c.006.012.014.022.025.03a.112.112 0 0 0 .058.012.326.326 0 0 0 .07-.008zM61.53 12.383v-1.307h.174v.538h.682v-.538h.174v1.307h-.174v-.616h-.682v.616ZM63.45 12.267a.68.68 0 0 1-.174.107.546.546 0 0 1-.174.03.362.362 0 0 1-.244-.075.253.253 0 0 1-.082-.194c0-.047.01-.09.029-.128a.27.27 0 0 1 .082-.091.361.361 0 0 1 .12-.054c.03-.008.077-.017.14-.025.133-.017.23-.034.29-.054v-.045c0-.063-.015-.109-.045-.137a.275.275 0 0 0-.182-.053c-.078 0-.134.014-.17.041-.036.025-.062.07-.078.136l-.157-.02a.373.373 0 0 1 .07-.162.314.314 0 0 1 .14-.095.657.657 0 0 1 .216-.033c.082 0 .148.01.198.03a.22.22 0 0 1 .161.177.934.934 0 0 1 .008.149v.215c0 .149.003.244.009.285.008.04.022.077.045.112h-.17a.346.346 0 0 1-.032-.116zm-.013-.36a1.11 1.11 0 0 1-.264.062.48.48 0 0 0-.14.033.126.126 0 0 0-.084.124c0 .045.015.082.046.112.033.028.08.041.145.041a.312.312 0 0 0 .272-.153.397.397 0 0 0 .025-.16ZM63.773 12.102l.157-.025a.21.21 0 0 0 .074.144c.042.034.1.05.174.05.071 0 .125-.014.161-.045.035-.03.054-.064.054-.104a.105.105 0 0 0-.046-.087.826.826 0 0 0-.165-.053 1.45 1.45 0 0 1-.248-.079.246.246 0 0 1-.103-.09.237.237 0 0 1-.033-.125.248.248 0 0 1 .107-.207.476.476 0 0 1 .244-.066c.074 0 .138.012.194.033.058.02.1.049.124.087a.35.35 0 0 1 .058.145l-.157.02a.163.163 0 0 0-.066-.111.219.219 0 0 0-.14-.041c-.075 0-.129.012-.162.037-.03.023-.045.05-.045.083 0 .022.006.04.02.057.01.017.03.031.058.042.017.006.064.02.145.041.113.031.191.056.236.074.046.02.082.05.107.087a.27.27 0 0 1-.008.285.308.308 0 0 1-.137.112.5.5 0 0 1-.198.037.469.469 0 0 1-.285-.074.354.354 0 0 1-.12-.227ZM64.761 12.383v-1.307h.161v.467a.364.364 0 0 1 .286-.128c.068 0 .129.015.182.042a.247.247 0 0 1 .111.115.527.527 0 0 1 .033.211v.6h-.16v-.6c0-.08-.02-.137-.055-.173-.033-.039-.081-.058-.144-.058a.271.271 0 0 0-.137.037.22.22 0 0 0-.09.103.483.483 0 0 0-.026.174v.517Zm0 0"/><path fill="var(--text-color)" fill-rule="evenodd" d="m87.974 112.845-.582 1.746-.926-.714zm0 0" style="stroke-width:.264583" transform="translate(-29.898 -99.748)"/><path fill="none" stroke="var(--text-color)" stroke-miterlimit="10" stroke-width=".026" d="m53.71 18.918 3.546-4.71"/><path fill="var(--text-color)" fill-rule="evenodd" d="m93.822 112.845 1.508 1.032-.926.714zm0 0" style="stroke-width:.264583" transform="translate(-29.898 -99.748)"/><path fill="none" stroke="var(--text-color)" stroke-miterlimit="10" stroke-width=".026" d="m68.29 18.918-3.547-4.71"/><path fill="var(--text-color)" d="M3.36 42.545v-1.153h-.434v-.153h1.041v.153h-.434v1.153ZM4.037 42.545v-.947h.144v.145a.346.346 0 0 1 .1-.132.191.191 0 0 1 .107-.033c.052 0 .108.016.165.05l-.057.148a.238.238 0 0 0-.116-.033.148.148 0 0 0-.095.033.172.172 0 0 0-.062.087.654.654 0 0 0-.025.186v.496ZM5.265 42.43a.68.68 0 0 1-.174.107.546.546 0 0 1-.174.029.362.362 0 0 1-.243-.075.253.253 0 0 1-.083-.194c0-.046.01-.089.029-.128a.27.27 0 0 1 .083-.09.361.361 0 0 1 .12-.055c.03-.008.076-.016.14-.024.132-.017.228-.035.29-.054V41.9c0-.063-.016-.108-.046-.136a.275.275 0 0 0-.182-.054c-.078 0-.134.015-.17.041-.036.025-.062.07-.078.137l-.157-.02a.373.373 0 0 1 .07-.162.314.314 0 0 1 .14-.095.657.657 0 0 1 .216-.033c.082 0 .148.01.198.029a.22.22 0 0 1 .161.178.934.934 0 0 1 .009.148v.215c0 .15.002.244.008.286.008.039.023.076.045.111h-.17a.346.346 0 0 1-.032-.116zm-.013-.36a1.11 1.11 0 0 1-.264.062.48.48 0 0 0-.14.033.126.126 0 0 0-.083.124c0 .044.014.082.045.112.033.027.08.04.145.04a.312.312 0 0 0 .273-.152.397.397 0 0 0 .024-.161ZM5.65 42.545v-.947h.145v.133a.348.348 0 0 1 .301-.153c.058 0 .11.011.157.033.05.02.085.045.108.078a.331.331 0 0 1 .054.116c.005.031.008.083.008.157v.583h-.161v-.574a.415.415 0 0 0-.021-.15.144.144 0 0 0-.066-.078.213.213 0 0 0-.112-.029.261.261 0 0 0-.178.066c-.05.045-.074.128-.074.248v.517ZM6.62 42.264l.158-.025a.21.21 0 0 0 .074.145c.041.033.1.05.174.05.071 0 .125-.015.16-.046.036-.03.055-.064.055-.103a.105.105 0 0 0-.046-.087.826.826 0 0 0-.165-.054 1.45 1.45 0 0 1-.248-.078.246.246 0 0 1-.104-.091.237.237 0 0 1-.033-.124.248.248 0 0 1 .108-.207.476.476 0 0 1 .244-.066c.074 0 .138.011.194.033.058.02.1.048.124.087a.35.35 0 0 1 .058.144l-.157.021a.163.163 0 0 0-.066-.112.219.219 0 0 0-.14-.04c-.075 0-.129.012-.162.036-.031.023-.046.05-.046.083 0 .023.007.041.021.058.01.016.03.03.058.041.016.006.064.02.145.042.112.03.19.055.235.074.047.02.083.049.108.087a.27.27 0 0 1-.008.285.308.308 0 0 1-.137.112.5.5 0 0 1-.198.037.469.469 0 0 1-.286-.075.354.354 0 0 1-.12-.227ZM8.23 42.43a.68.68 0 0 1-.175.107.546.546 0 0 1-.173.029.362.362 0 0 1-.244-.075.253.253 0 0 1-.083-.194c0-.046.01-.089.03-.128a.27.27 0 0 1 .082-.09.361.361 0 0 1 .12-.055c.03-.008.076-.016.14-.024.133-.017.229-.035.29-.054V41.9c0-.063-.016-.108-.046-.136a.275.275 0 0 0-.182-.054c-.077 0-.134.015-.17.041-.035.025-.061.07-.078.137l-.157-.02a.373.373 0 0 1 .07-.162.314.314 0 0 1 .141-.095.657.657 0 0 1 .215-.033c.083 0 .149.01.198.029a.22.22 0 0 1 .162.178.934.934 0 0 1 .008.148v.215c0 .15.002.244.008.286.008.039.023.076.046.111h-.17a.346.346 0 0 1-.033-.116zm-.013-.36a1.11 1.11 0 0 1-.265.062.48.48 0 0 0-.14.033.126.126 0 0 0-.083.124c0 .044.014.082.045.112.033.027.081.04.145.04a.312.312 0 0 0 .273-.152.397.397 0 0 0 .025-.161ZM9.234 42.198l.157.02a.398.398 0 0 1-.132.257.39.39 0 0 1-.26.09.416.416 0 0 1-.315-.123c-.08-.085-.12-.208-.12-.368 0-.101.017-.191.05-.269a.35.35 0 0 1 .157-.17.46.46 0 0 1 .228-.057.4.4 0 0 1 .252.078c.066.05.108.123.128.22l-.157.024a.259.259 0 0 0-.083-.14.19.19 0 0 0-.132-.05.26.26 0 0 0-.203.087c-.05.058-.074.149-.074.273 0 .127.025.219.074.277.05.058.113.087.19.087a.219.219 0 0 0 .158-.058.28.28 0 0 0 .082-.178zM9.892 42.4l.025.145a.737.737 0 0 1-.124.013.31.31 0 0 1-.137-.025.159.159 0 0 1-.066-.075.531.531 0 0 1-.02-.19v-.545h-.116v-.125h.116v-.235l.16-.095v.33h.162v.125h-.161v.553a.28.28 0 0 0 .008.091c.005.012.014.021.025.03a.112.112 0 0 0 .058.012.326.326 0 0 0 .07-.008zM10.07 41.42v-.181h.161v.182Zm0 1.125v-.947h.161v.947ZM10.41 42.07c0-.174.047-.303.144-.389a.453.453 0 0 1 .298-.103c.132 0 .24.043.322.128a.485.485 0 0 1 .124.351c0 .122-.02.218-.058.29a.38.38 0 0 1-.161.161.462.462 0 0 1-.227.058.427.427 0 0 1-.323-.128c-.08-.085-.12-.208-.12-.368Zm.165 0c0 .122.026.213.078.273a.248.248 0 0 0 .199.09.25.25 0 0 0 .198-.09c.055-.06.083-.153.083-.277 0-.116-.028-.204-.083-.265a.254.254 0 0 0-.198-.09.251.251 0 0 0-.199.09c-.052.058-.078.148-.078.269zM11.5 42.545v-.947h.145v.133a.348.348 0 0 1 .301-.153c.058 0 .11.011.157.033.05.02.085.045.108.078a.331.331 0 0 1 .054.116c.005.031.008.083.008.157v.583h-.161v-.574a.415.415 0 0 0-.021-.15.144.144 0 0 0-.066-.078.213.213 0 0 0-.112-.029.261.261 0 0 0-.177.066c-.05.045-.075.128-.075.248v.517ZM12.443 42.264l.157-.025a.21.21 0 0 0 .075.145c.04.033.099.05.173.05.072 0 .125-.015.161-.046.036-.03.054-.064.054-.103a.105.105 0 0 0-.045-.087.826.826 0 0 0-.166-.054 1.45 1.45 0 0 1-.248-.078.246.246 0 0 1-.103-.091.237.237 0 0 1-.033-.124.248.248 0 0 1 .107-.207.476.476 0 0 1 .244-.066c.075 0 .139.011.195.033.057.02.099.048.124.087a.35.35 0 0 1 .057.144l-.157.021a.163.163 0 0 0-.066-.112.219.219 0 0 0-.14-.04c-.075 0-.128.012-.162.036-.03.023-.045.05-.045.083 0 .023.006.041.02.058.011.016.03.03.059.041.016.006.064.02.144.042.113.03.191.055.236.074.046.02.083.049.107.087a.27.27 0 0 1-.008.285.308.308 0 0 1-.136.112.5.5 0 0 1-.199.037.469.469 0 0 1-.285-.075.354.354 0 0 1-.12-.227ZM13.986 42.545V41.24h.173v.537h.682v-.537h.174v1.306h-.174v-.616h-.682v.616ZM15.877 42.43a.68.68 0 0 1-.173.107.546.546 0 0 1-.174.029.362.362 0 0 1-.244-.075.253.253 0 0 1-.083-.194c0-.046.01-.089.03-.128a.27.27 0 0 1 .082-.09.361.361 0 0 1 .12-.055c.03-.008.076-.016.14-.024.133-.017.229-.035.29-.054V41.9c0-.063-.016-.108-.046-.136a.275.275 0 0 0-.182-.054c-.077 0-.134.015-.17.041-.035.025-.061.07-.078.137l-.157-.02a.373.373 0 0 1 .07-.162.314.314 0 0 1 .141-.095.657.657 0 0 1 .215-.033c.083 0 .149.01.198.029a.22.22 0 0 1 .162.178.934.934 0 0 1 .008.148v.215c0 .15.002.244.008.286.009.039.023.076.046.111h-.17a.346.346 0 0 1-.033-.116zm-.012-.36a1.11 1.11 0 0 1-.265.062.48.48 0 0 0-.14.033.126.126 0 0 0-.083.124c0 .044.014.082.045.112.033.027.081.04.145.04a.312.312 0 0 0 .273-.152.397.397 0 0 0 .025-.161ZM16.228 42.264l.157-.025a.21.21 0 0 0 .074.145c.042.033.1.05.174.05.071 0 .125-.015.161-.046.035-.03.054-.064.054-.103a.105.105 0 0 0-.046-.087.826.826 0 0 0-.165-.054 1.45 1.45 0 0 1-.248-.078.246.246 0 0 1-.103-.091.237.237 0 0 1-.033-.124.248.248 0 0 1 .107-.207.476.476 0 0 1 .244-.066c.074 0 .138.011.194.033.058.02.1.048.124.087a.35.35 0 0 1 .058.144l-.157.021a.163.163 0 0 0-.066-.112.219.219 0 0 0-.14-.04c-.075 0-.129.012-.162.036-.03.023-.045.05-.045.083 0 .023.006.041.02.058.01.016.03.03.058.041.017.006.064.02.145.042.113.03.191.055.236.074.046.02.082.049.107.087a.27.27 0 0 1-.008.285.308.308 0 0 1-.137.112.5.5 0 0 1-.198.037.469.469 0 0 1-.285-.075.354.354 0 0 1-.12-.227ZM17.216 42.545V41.24h.161v.467a.364.364 0 0 1 .286-.128c.068 0 .129.014.182.041a.247.247 0 0 1 .111.116.527.527 0 0 1 .033.21v.6h-.16v-.6c0-.079-.02-.137-.055-.173-.033-.038-.081-.058-.144-.058a.271.271 0 0 0-.137.037.22.22 0 0 0-.09.104.483.483 0 0 0-.026.173v.517ZM18.87 42.24l.17.02a.424.424 0 0 1-.149.227.432.432 0 0 1-.269.079.443.443 0 0 1-.334-.128c-.081-.085-.12-.205-.12-.36 0-.157.041-.279.124-.368a.423.423 0 0 1 .322-.132.41.41 0 0 1 .31.128c.08.086.12.207.12.364v.041h-.71a.377.377 0 0 0 .09.24.258.258 0 0 0 .198.083.24.24 0 0 0 .15-.046.279.279 0 0 0 .098-.149zm-.525-.261h.53a.324.324 0 0 0-.062-.178.245.245 0 0 0-.199-.09.252.252 0 0 0-.186.074.281.281 0 0 0-.083.194zM19.87 42.545v-.12a.295.295 0 0 1-.264.14.391.391 0 0 1-.36-.235.623.623 0 0 1-.05-.256c0-.096.015-.183.046-.26a.366.366 0 0 1 .144-.174.376.376 0 0 1 .211-.062c.058 0 .109.012.153.037.044.023.08.053.112.091v-.467h.157v1.306Zm-.508-.471c0 .122.024.213.074.273a.241.241 0 0 0 .186.087.23.23 0 0 0 .178-.083c.05-.058.074-.146.074-.265 0-.129-.025-.224-.074-.285a.233.233 0 0 0-.186-.09.23.23 0 0 0-.182.086c-.048.058-.07.15-.07.277zM20.79 41.42v-.181h.162v.182Zm0 1.125v-.947h.162v.947ZM21.213 42.545v-.947h.145v.133a.348.348 0 0 1 .302-.153c.058 0 .11.011.157.033.05.02.085.045.107.078a.331.331 0 0 1 .054.116c.005.031.008.083.008.157v.583h-.16v-.574a.415.415 0 0 0-.022-.15.144.144 0 0 0-.066-.078.213.213 0 0 0-.111-.029.261.261 0 0 0-.178.066c-.05.045-.074.128-.074.248v.517ZM23.342 42.43a.68.68 0 0 1-.174.107.546.546 0 0 1-.173.029.362.362 0 0 1-.244-.075.253.253 0 0 1-.083-.194c0-.046.01-.089.03-.128a.27.27 0 0 1 .082-.09.361.361 0 0 1 .12-.055c.03-.008.076-.016.14-.024.133-.017.229-.035.29-.054V41.9c0-.063-.016-.108-.046-.136a.275.275 0 0 0-.182-.054c-.077 0-.134.015-.17.041-.035.025-.061.07-.078.137l-.157-.02a.373.373 0 0 1 .07-.162.314.314 0 0 1 .141-.095.657.657 0 0 1 .215-.033c.083 0 .149.01.198.029a.22.22 0 0 1 .162.178.934.934 0 0 1 .008.148v.215c0 .15.002.244.008.286.008.039.023.076.046.111h-.17a.346.346 0 0 1-.033-.116zm-.012-.36a1.11 1.11 0 0 1-.265.062.48.48 0 0 0-.14.033.126.126 0 0 0-.083.124c0 .044.014.082.045.112.033.027.081.04.145.04a.312.312 0 0 0 .273-.152.397.397 0 0 0 .025-.161ZM24.275 42.545V41.24h.26l.31.926c.027.086.048.149.062.19.017-.046.04-.116.07-.207l.315-.91h.231v1.307h-.165V41.45l-.38 1.095h-.158l-.38-1.112v1.112ZM26.389 42.24l.169.02a.424.424 0 0 1-.149.227.432.432 0 0 1-.269.079.443.443 0 0 1-.334-.128c-.081-.085-.12-.205-.12-.36 0-.157.041-.279.124-.368a.423.423 0 0 1 .322-.132.41.41 0 0 1 .31.128c.08.086.12.207.12.364v.041h-.71a.377.377 0 0 0 .09.24.258.258 0 0 0 .198.083.24.24 0 0 0 .15-.046.279.279 0 0 0 .099-.149zm-.525-.261h.529a.324.324 0 0 0-.062-.178.245.245 0 0 0-.199-.09.252.252 0 0 0-.186.074.281.281 0 0 0-.082.194zM26.772 42.545v-.947h.145v.145a.346.346 0 0 1 .1-.132.191.191 0 0 1 .107-.033c.051 0 .107.016.165.05l-.058.148a.238.238 0 0 0-.116-.033.148.148 0 0 0-.095.033.172.172 0 0 0-.062.087.654.654 0 0 0-.025.186v.496ZM27.38 42.545V41.24h.161v.744l.385-.385h.206l-.363.352.4.595h-.198l-.314-.483-.116.107v.376ZM28.302 42.545V41.24h.162v1.306ZM29.353 42.24l.17.02a.424.424 0 0 1-.15.227.432.432 0 0 1-.268.079.443.443 0 0 1-.335-.128c-.08-.085-.12-.205-.12-.36 0-.157.041-.279.124-.368a.423.423 0 0 1 .323-.132.41.41 0 0 1 .31.128c.08.086.12.207.12.364v.041h-.712a.377.377 0 0 0 .091.24.258.258 0 0 0 .199.083.24.24 0 0 0 .149-.046.279.279 0 0 0 .099-.149zm-.525-.261h.529a.324.324 0 0 0-.062-.178.245.245 0 0 0-.198-.09.252.252 0 0 0-.186.074.281.281 0 0 0-.083.194zM30.568 42.545v-1.153h-.434v-.153h1.042v.153h-.434v1.153ZM31.245 42.545v-.947h.145v.145a.346.346 0 0 1 .1-.132.191.191 0 0 1 .107-.033c.051 0 .107.016.165.05l-.058.148a.238.238 0 0 0-.116-.033.148.148 0 0 0-.095.033.172.172 0 0 0-.062.087.654.654 0 0 0-.024.186v.496ZM32.502 42.24l.17.02a.424.424 0 0 1-.15.227.432.432 0 0 1-.268.079.443.443 0 0 1-.335-.128c-.08-.085-.12-.205-.12-.36 0-.157.042-.279.124-.368a.423.423 0 0 1 .323-.132.41.41 0 0 1 .31.128c.08.086.12.207.12.364v.041h-.711a.377.377 0 0 0 .09.24.258.258 0 0 0 .2.083.24.24 0 0 0 .148-.046.279.279 0 0 0 .1-.149zm-.525-.261h.53a.324.324 0 0 0-.063-.178.245.245 0 0 0-.198-.09.252.252 0 0 0-.186.074.281.281 0 0 0-.083.194zM33.535 42.24l.17.02a.424.424 0 0 1-.15.227.432.432 0 0 1-.268.079.443.443 0 0 1-.335-.128c-.08-.085-.12-.205-.12-.36 0-.157.041-.279.124-.368a.423.423 0 0 1 .323-.132.41.41 0 0 1 .31.128c.08.086.12.207.12.364v.041h-.712a.377.377 0 0 0 .091.24.258.258 0 0 0 .199.083.24.24 0 0 0 .149-.046.279.279 0 0 0 .099-.149zm-.525-.261h.529a.324.324 0 0 0-.062-.178.245.245 0 0 0-.198-.09.252.252 0 0 0-.186.074.281.281 0 0 0-.083.194zM46.8 42.545l.505-1.306h.186l.538 1.306h-.199l-.153-.397h-.545l-.145.397Zm.381-.537h.443l-.137-.364a2.584 2.584 0 0 1-.09-.269c-.017.083-.041.166-.071.248zM48.184 42.545v-.822h-.145v-.125h.145v-.103c0-.063.005-.11.016-.14a.18.18 0 0 1 .079-.1.299.299 0 0 1 .165-.041.78.78 0 0 1 .15.017l-.022.14a.696.696 0 0 0-.095-.008c-.05 0-.085.011-.107.033-.02.02-.03.058-.03.116v.086h.187v.125h-.186v.822ZM48.997 42.4l.025.145a.737.737 0 0 1-.124.013.31.31 0 0 1-.136-.025.159.159 0 0 1-.066-.075.531.531 0 0 1-.021-.19v-.545h-.116v-.125h.116v-.235l.161-.095v.33h.161v.125h-.16v.553a.28.28 0 0 0 .007.091c.006.012.014.021.025.03a.112.112 0 0 0 .058.012.326.326 0 0 0 .07-.008zM49.799 42.24l.17.02a.424.424 0 0 1-.15.227.432.432 0 0 1-.268.079.443.443 0 0 1-.335-.128c-.08-.085-.12-.205-.12-.36 0-.157.041-.279.124-.368a.423.423 0 0 1 .322-.132.41.41 0 0 1 .31.128c.08.086.12.207.12.364v.041h-.71a.377.377 0 0 0 .09.24.258.258 0 0 0 .199.083.24.24 0 0 0 .148-.046.279.279 0 0 0 .1-.149zm-.525-.261h.529a.324.324 0 0 0-.062-.178.245.245 0 0 0-.199-.09.252.252 0 0 0-.186.074.281.281 0 0 0-.082.194zM50.182 42.545v-.947h.145v.145a.346.346 0 0 1 .1-.132.191.191 0 0 1 .107-.033c.051 0 .107.016.165.05l-.058.148a.238.238 0 0 0-.116-.033.148.148 0 0 0-.095.033.172.172 0 0 0-.062.087.654.654 0 0 0-.025.186v.496ZM51.314 42.545V41.24h.496c.085 0 .151.004.199.012a.417.417 0 0 1 .161.062c.043.028.079.07.103.124a.404.404 0 0 1 .042.178c0 .11-.036.205-.108.281-.069.078-.197.116-.384.116h-.335v.533Zm.174-.686h.339c.113 0 .192-.02.24-.062.046-.041.07-.1.07-.178a.236.236 0 0 0-.041-.136.183.183 0 0 0-.112-.079.677.677 0 0 0-.161-.012h-.335ZM52.511 42.545v-.947h.145v.145a.346.346 0 0 1 .1-.132.191.191 0 0 1 .107-.033c.051 0 .107.016.165.05l-.058.148a.238.238 0 0 0-.116-.033.148.148 0 0 0-.095.033.172.172 0 0 0-.062.087.654.654 0 0 0-.025.186v.496ZM53.743 42.545v-.14a.35.35 0 0 1-.301.16.442.442 0 0 1-.158-.028.272.272 0 0 1-.111-.083.297.297 0 0 1-.046-.12.625.625 0 0 1-.012-.148v-.588h.161v.526c0 .082.004.14.013.169a.159.159 0 0 0 .062.1.2.2 0 0 0 .124.036.254.254 0 0 0 .132-.037.2.2 0 0 0 .09-.099.486.486 0 0 0 .03-.186v-.509h.161v.947ZM54.152 42.545v-.947h.145v.133a.348.348 0 0 1 .301-.153c.058 0 .11.011.157.033.05.02.085.045.108.078a.331.331 0 0 1 .054.116c.005.031.008.083.008.157v.583h-.161v-.574a.415.415 0 0 0-.021-.15.144.144 0 0 0-.066-.078.213.213 0 0 0-.112-.029.261.261 0 0 0-.178.066c-.05.045-.074.128-.074.248v.517ZM55.157 41.42v-.181h.161v.182Zm0 1.125v-.947h.161v.947ZM55.58 42.545v-.947h.145v.133a.348.348 0 0 1 .301-.153c.058 0 .11.011.158.033.05.02.084.045.107.078a.331.331 0 0 1 .054.116c.005.031.008.083.008.157v.583h-.161v-.574a.415.415 0 0 0-.02-.15.144.144 0 0 0-.067-.078.213.213 0 0 0-.112-.029.261.261 0 0 0-.177.066c-.05.045-.075.128-.075.248v.517ZM56.556 42.624l.157.025a.14.14 0 0 0 .054.103c.041.03.096.045.165.045.075 0 .13-.015.17-.045a.225.225 0 0 0 .083-.124c.008-.033.012-.101.012-.207a.326.326 0 0 1-.26.124.361.361 0 0 1-.306-.14.536.536 0 0 1-.108-.34c0-.09.017-.173.05-.247a.4.4 0 0 1 .14-.178.398.398 0 0 1 .224-.062.35.35 0 0 1 .277.132v-.112h.148v.819a.76.76 0 0 1-.045.31.335.335 0 0 1-.145.149.493.493 0 0 1-.24.054.46.46 0 0 1-.277-.079c-.069-.05-.102-.126-.099-.227Zm.133-.57c0 .123.024.214.074.272.05.058.112.087.186.087a.238.238 0 0 0 .186-.083c.05-.058.074-.147.074-.268 0-.116-.026-.203-.078-.26a.23.23 0 0 0-.182-.092.241.241 0 0 0-.186.087c-.05.058-.074.144-.074.256zM58.45 42.545v-1.153h-.435v-.153h1.042v.153h-.434v1.153ZM59.098 42.545l.347-.492-.318-.455h.198l.145.224c.027.041.05.076.066.103l.074-.103.162-.224h.19l-.327.447.352.5h-.199l-.194-.293-.05-.079-.252.372ZM60.033 41.9c0-.154.017-.278.05-.372a.472.472 0 0 1 .14-.219.366.366 0 0 1 .24-.078c.068 0 .13.015.182.045.055.028.1.068.132.12a.633.633 0 0 1 .083.194c.019.078.029.181.029.31 0 .155-.017.28-.05.372a.461.461 0 0 1-.14.22.361.361 0 0 1-.236.074.36.36 0 0 1-.297-.132c-.09-.11-.133-.288-.133-.534zm.166 0c0 .215.024.359.074.43a.23.23 0 0 0 .19.104.221.221 0 0 0 .186-.104c.05-.071.075-.215.075-.43s-.025-.357-.075-.43a.225.225 0 0 0-.19-.107.202.202 0 0 0-.174.095c-.057.08-.086.227-.086.442ZM61.022 42.152v-.16h.496v.16zM62.494 42.392v.153h-.868c0-.038.006-.075.02-.111a.616.616 0 0 1 .104-.174c.05-.058.12-.124.215-.198.14-.116.235-.208.285-.277a.33.33 0 0 0 .078-.195.215.215 0 0 0-.07-.161.254.254 0 0 0-.178-.066.252.252 0 0 0-.186.07.26.26 0 0 0-.07.194l-.165-.016a.397.397 0 0 1 .128-.281.432.432 0 0 1 .298-.1c.124 0 .223.037.297.108.075.07.112.155.112.256a.404.404 0 0 1-.033.157.627.627 0 0 1-.108.158c-.05.055-.132.132-.248.231a2.18 2.18 0 0 0-.186.165.489.489 0 0 0-.07.087zM63.27 42.545v-.822h-.145v-.125h.144v-.103c0-.063.006-.11.017-.14a.18.18 0 0 1 .078-.1.299.299 0 0 1 .166-.041.78.78 0 0 1 .149.017l-.021.14a.696.696 0 0 0-.095-.008c-.05 0-.086.011-.108.033-.02.02-.029.058-.029.116v.086h.187v.125h-.187v.822ZM63.732 42.545v-.947h.144v.145a.346.346 0 0 1 .1-.132.191.191 0 0 1 .107-.033c.052 0 .107.016.165.05l-.058.148a.238.238 0 0 0-.115-.033.148.148 0 0 0-.095.033.172.172 0 0 0-.062.087.654.654 0 0 0-.025.186v.496ZM64.282 42.07c0-.174.047-.303.144-.389a.453.453 0 0 1 .298-.103c.132 0 .24.043.322.128a.485.485 0 0 1 .124.351c0 .122-.02.218-.057.29a.38.38 0 0 1-.162.161.462.462 0 0 1-.227.058.427.427 0 0 1-.323-.128c-.08-.085-.12-.208-.12-.368Zm.165 0c0 .122.026.213.078.273a.248.248 0 0 0 .199.09.25.25 0 0 0 .198-.09c.055-.06.083-.153.083-.277 0-.116-.028-.204-.083-.265a.254.254 0 0 0-.198-.09.251.251 0 0 0-.199.09c-.052.058-.078.148-.078.269zM65.372 42.545v-.947h.145v.133a.336.336 0 0 1 .29-.153c.067 0 .124.015.169.045.046.028.08.069.099.12a.34.34 0 0 1 .293-.165c.093 0 .166.027.215.078.05.05.075.13.075.24v.65H66.5v-.596a.439.439 0 0 0-.017-.14.143.143 0 0 0-.058-.067.17.17 0 0 0-.095-.029.226.226 0 0 0-.165.066c-.045.045-.066.116-.066.215v.55h-.161v-.616a.268.268 0 0 0-.042-.161c-.025-.035-.068-.054-.128-.054a.224.224 0 0 0-.21.145.586.586 0 0 0-.026.194v.492ZM67.761 42.4l.025.145a.737.737 0 0 1-.124.013.31.31 0 0 1-.136-.025.159.159 0 0 1-.066-.075.531.531 0 0 1-.021-.19v-.545h-.116v-.125h.116v-.235l.161-.095v.33h.161v.125h-.16v.553a.28.28 0 0 0 .007.091c.006.012.014.021.025.03a.112.112 0 0 0 .058.012.326.326 0 0 0 .07-.008zM67.94 42.545V41.24h.16v.467a.364.364 0 0 1 .286-.128c.068 0 .129.014.182.041a.247.247 0 0 1 .111.116.527.527 0 0 1 .033.21v.6h-.161v-.6c0-.079-.019-.137-.054-.173-.033-.038-.081-.058-.144-.058a.271.271 0 0 0-.137.037.22.22 0 0 0-.09.104.483.483 0 0 0-.026.173v.517ZM69.593 42.24l.17.02a.424.424 0 0 1-.149.227.432.432 0 0 1-.269.079.443.443 0 0 1-.334-.128c-.081-.085-.12-.205-.12-.36 0-.157.041-.279.124-.368a.423.423 0 0 1 .322-.132.41.41 0 0 1 .31.128c.08.086.12.207.12.364v.041h-.711a.377.377 0 0 0 .091.24.258.258 0 0 0 .198.083.24.24 0 0 0 .15-.046.279.279 0 0 0 .098-.149zm-.525-.261h.53a.324.324 0 0 0-.062-.178.245.245 0 0 0-.199-.09.252.252 0 0 0-.186.074.281.281 0 0 0-.083.194zM70.493 42.545V41.24h.492c.101 0 .183.014.244.041a.29.29 0 0 1 .14.12.323.323 0 0 1 .054.174.277.277 0 0 1-.05.157.33.33 0 0 1-.136.12c.08.022.14.062.182.12.043.055.066.12.066.194a.371.371 0 0 1-.041.173.298.298 0 0 1-.095.12.469.469 0 0 1-.145.067.864.864 0 0 1-.21.02Zm.174-.756h.285a.57.57 0 0 0 .165-.017.186.186 0 0 0 .1-.066.186.186 0 0 0 .033-.112.208.208 0 0 0-.034-.115.144.144 0 0 0-.086-.067.678.678 0 0 0-.199-.02h-.264zm0 .603h.326a.535.535 0 0 0 .12-.008.262.262 0 0 0 .1-.033.21.21 0 0 0 .09-.186.214.214 0 0 0-.037-.124.192.192 0 0 0-.103-.079.686.686 0 0 0-.19-.02h-.306ZM71.694 42.545V41.24h.161v1.306ZM72.063 42.07c0-.174.048-.303.145-.389a.453.453 0 0 1 .298-.103c.132 0 .24.043.322.128a.485.485 0 0 1 .124.351c0 .122-.02.218-.058.29a.38.38 0 0 1-.161.161.462.462 0 0 1-.227.058.427.427 0 0 1-.323-.128c-.08-.085-.12-.208-.12-.368Zm.166 0c0 .122.025.213.078.273a.248.248 0 0 0 .199.09.25.25 0 0 0 .198-.09c.055-.06.083-.153.083-.277 0-.116-.028-.204-.083-.265a.254.254 0 0 0-.198-.09.251.251 0 0 0-.199.09c-.053.058-.078.148-.078.269zM73.747 42.198l.157.02a.398.398 0 0 1-.133.257.39.39 0 0 1-.26.09.416.416 0 0 1-.314-.123c-.08-.085-.12-.208-.12-.368 0-.101.016-.191.05-.269a.35.35 0 0 1 .156-.17.46.46 0 0 1 .228-.057.4.4 0 0 1 .252.078c.066.05.109.123.128.22l-.157.024a.259.259 0 0 0-.083-.14.19.19 0 0 0-.132-.05.26.26 0 0 0-.202.087c-.05.058-.075.149-.075.273 0 .127.025.219.075.277.05.058.112.087.19.087a.219.219 0 0 0 .157-.058.28.28 0 0 0 .083-.178zM74.053 42.545V41.24h.161v.744l.385-.385h.206l-.364.352.401.595h-.198l-.314-.483-.116.107v.376Zm0 0"/><path fill="var(--background-color)" fill-rule="evenodd" stroke="var(--text-color)" stroke-linejoin="round" stroke-miterlimit="10" stroke-width=".032" d="M58.34 8.731h-5.82v-2.91h11.668v2.91zm0 0"/><path fill="var(--text-color)" d="M54.222 7.99V6.685h.496c.084 0 .15.004.198.013a.417.417 0 0 1 .161.062c.044.028.079.069.104.124a.404.404 0 0 1 .041.177c0 .111-.036.205-.107.282-.07.077-.198.115-.385.115h-.335v.534Zm.173-.686h.34c.112 0 .191-.02.239-.062.047-.041.07-.1.07-.177a.236.236 0 0 0-.041-.137.183.183 0 0 0-.112-.078.677.677 0 0 0-.16-.013h-.336ZM55.419 7.99v-.946h.144v.145a.346.346 0 0 1 .1-.133.191.191 0 0 1 .107-.033c.052 0 .107.017.165.05l-.058.149a.238.238 0 0 0-.115-.033.148.148 0 0 0-.095.033.172.172 0 0 0-.062.086.654.654 0 0 0-.025.187v.496ZM56.675 7.685l.17.02a.424.424 0 0 1-.149.228.432.432 0 0 1-.269.078.443.443 0 0 1-.334-.128c-.081-.085-.12-.205-.12-.36 0-.157.041-.279.124-.367a.423.423 0 0 1 .322-.133.41.41 0 0 1 .31.128c.08.086.12.207.12.364v.042h-.711a.377.377 0 0 0 .091.24.258.258 0 0 0 .198.082.24.24 0 0 0 .15-.045.279.279 0 0 0 .098-.15zm-.525-.26h.53a.324.324 0 0 0-.062-.179.245.245 0 0 0-.199-.09.252.252 0 0 0-.186.074.281.281 0 0 0-.083.194zM57.324 7.99l-.36-.946h.17l.202.566c.022.061.042.124.062.19.014-.05.033-.108.058-.177l.21-.58h.166l-.36.948ZM58.486 7.99V6.685h.174v.538h.682v-.538h.174v1.307h-.174v-.616h-.682v.616ZM60.406 7.875a.68.68 0 0 1-.174.107.546.546 0 0 1-.174.03.362.362 0 0 1-.244-.075.253.253 0 0 1-.082-.194c0-.047.009-.09.029-.129a.27.27 0 0 1 .082-.09.361.361 0 0 1 .12-.054c.03-.009.077-.017.14-.025.133-.017.23-.034.29-.054v-.045c0-.063-.015-.109-.045-.137a.275.275 0 0 0-.182-.053c-.078 0-.135.014-.17.04-.036.026-.062.071-.078.137l-.157-.02a.373.373 0 0 1 .07-.162.314.314 0 0 1 .14-.095.657.657 0 0 1 .215-.033c.083 0 .15.01.199.03a.22.22 0 0 1 .161.177.934.934 0 0 1 .008.149v.215c0 .149.002.244.009.285.008.04.022.076.045.112h-.17a.346.346 0 0 1-.032-.116zm-.013-.36a1.11 1.11 0 0 1-.264.062.48.48 0 0 0-.141.033.126.126 0 0 0-.083.124c0 .045.015.082.046.112.033.028.08.041.145.041a.312.312 0 0 0 .272-.153.397.397 0 0 0 .025-.16ZM60.729 7.71l.157-.025a.21.21 0 0 0 .074.144c.042.033.1.05.174.05.071 0 .125-.014.161-.045.035-.03.054-.065.054-.104a.105.105 0 0 0-.046-.087.826.826 0 0 0-.165-.053 1.45 1.45 0 0 1-.248-.079.246.246 0 0 1-.103-.09.237.237 0 0 1-.034-.125.248.248 0 0 1 .108-.207.476.476 0 0 1 .244-.066c.074 0 .138.012.194.033.058.02.1.049.124.087a.35.35 0 0 1 .058.145l-.157.02a.163.163 0 0 0-.066-.111.219.219 0 0 0-.14-.041c-.075 0-.129.012-.162.037-.031.022-.045.05-.045.082 0 .023.006.042.02.058.01.017.03.031.058.042.017.006.064.02.145.041.112.031.191.056.235.074.047.02.083.049.108.087a.27.27 0 0 1-.008.285.308.308 0 0 1-.137.112.5.5 0 0 1-.198.037.469.469 0 0 1-.285-.074.354.354 0 0 1-.12-.227ZM61.717 7.99V6.685h.161v.467a.364.364 0 0 1 .286-.128c.068 0 .129.015.182.042a.247.247 0 0 1 .111.115.527.527 0 0 1 .033.211v.6h-.161v-.6c0-.08-.019-.137-.054-.173-.033-.039-.081-.058-.144-.058a.271.271 0 0 0-.137.037.22.22 0 0 0-.09.103.483.483 0 0 0-.026.174v.517Zm0 0"/><path fill="var(--background-color)" fill-rule="evenodd" stroke="var(--text-color)" stroke-linejoin="round" stroke-miterlimit="10" stroke-width=".032" d="M70.01 8.731h-4.366v-2.91H74.4v2.91zm0 0"/><path fill="var(--text-color)" d="M67.45 7.99V6.685h.179l.686 1.026V6.684h.17v1.307h-.178l-.69-1.03v1.03ZM68.696 7.515c0-.173.048-.303.145-.388a.453.453 0 0 1 .297-.104c.133 0 .24.044.323.128a.485.485 0 0 1 .124.352c0 .122-.02.218-.058.29a.38.38 0 0 1-.161.16.462.462 0 0 1-.228.058.427.427 0 0 1-.322-.128c-.08-.085-.12-.208-.12-.368Zm.165 0c0 .122.026.213.079.273a.248.248 0 0 0 .198.091.25.25 0 0 0 .199-.091c.055-.06.082-.153.082-.277 0-.116-.027-.204-.082-.265a.254.254 0 0 0-.199-.09.251.251 0 0 0-.198.09c-.053.058-.079.148-.079.27zM69.76 7.99v-.946h.144v.132a.348.348 0 0 1 .302-.153c.057 0 .11.012.157.033.05.02.084.046.107.079a.331.331 0 0 1 .054.116c.005.03.008.082.008.157v.583h-.161v-.575a.415.415 0 0 0-.02-.149.144.144 0 0 0-.067-.078.213.213 0 0 0-.111-.03.261.261 0 0 0-.178.067c-.05.044-.075.127-.075.248v.517ZM71.412 7.643l.157.021a.398.398 0 0 1-.132.256.39.39 0 0 1-.26.091.416.416 0 0 1-.315-.124c-.08-.084-.12-.207-.12-.368 0-.101.017-.19.05-.268a.35.35 0 0 1 .157-.17.46.46 0 0 1 .227-.058.4.4 0 0 1 .252.079c.067.05.109.123.129.219l-.157.025a.259.259 0 0 0-.083-.14.19.19 0 0 0-.132-.05.26.26 0 0 0-.203.086c-.05.058-.074.15-.074.273 0 .127.024.22.074.277.05.058.113.087.19.087a.219.219 0 0 0 .157-.058.28.28 0 0 0 .083-.178zM72.367 7.685l.17.02a.424.424 0 0 1-.149.228.432.432 0 0 1-.269.078.443.443 0 0 1-.335-.128c-.08-.085-.12-.205-.12-.36 0-.157.042-.279.125-.367a.423.423 0 0 1 .322-.133.41.41 0 0 1 .31.128c.08.086.12.207.12.364v.042h-.711a.377.377 0 0 0 .09.24.258.258 0 0 0 .2.082.24.24 0 0 0 .148-.045.279.279 0 0 0 .1-.15zm-.525-.26h.53a.324.324 0 0 0-.063-.179.245.245 0 0 0-.198-.09.252.252 0 0 0-.186.074.281.281 0 0 0-.083.194zm0 0"/><path fill="var(--background-color)" fill-rule="evenodd" stroke="#4c4c4c" stroke-dasharray="1.1016, 1.1016, 1.1016, 1.1016" stroke-linejoin="round" stroke-miterlimit="10" stroke-width=".032" d="M74.268 30.534h-2.804v-2.91h5.582v2.91zm0 0"/><path fill="var(--text-color)" d="M71.715 29.792v-1.306h.173v.537h.682v-.537h.174v1.306h-.174v-.616h-.682v.616ZM73.606 29.677a.68.68 0 0 1-.173.107.546.546 0 0 1-.174.029.362.362 0 0 1-.244-.074.253.253 0 0 1-.083-.195c0-.046.01-.089.03-.128a.27.27 0 0 1 .082-.09.361.361 0 0 1 .12-.055c.03-.008.076-.016.14-.024.133-.017.229-.035.29-.054v-.046c0-.063-.016-.108-.046-.136a.275.275 0 0 0-.181-.054c-.078 0-.135.015-.17.042-.036.024-.062.07-.078.136l-.158-.02a.373.373 0 0 1 .07-.162.314.314 0 0 1 .141-.095.657.657 0 0 1 .215-.033c.083 0 .15.01.199.029a.22.22 0 0 1 .16.178.934.934 0 0 1 .01.148v.215c0 .15.001.244.007.286.009.039.023.076.046.111h-.17a.346.346 0 0 1-.033-.115zm-.012-.36a1.11 1.11 0 0 1-.265.062.48.48 0 0 0-.14.033.126.126 0 0 0-.083.124c0 .044.015.082.046.112.033.027.08.04.144.04a.312.312 0 0 0 .273-.152.397.397 0 0 0 .025-.161ZM73.957 29.511l.157-.025a.21.21 0 0 0 .074.145c.042.033.1.05.174.05.071 0 .125-.015.161-.046.035-.03.054-.064.054-.103a.105.105 0 0 0-.045-.087.826.826 0 0 0-.166-.054 1.45 1.45 0 0 1-.248-.078.246.246 0 0 1-.103-.091.237.237 0 0 1-.033-.124.248.248 0 0 1 .107-.207.476.476 0 0 1 .244-.066c.075 0 .139.011.194.033.058.02.1.049.124.087a.35.35 0 0 1 .058.144l-.157.021a.163.163 0 0 0-.066-.111.219.219 0 0 0-.14-.042c-.075 0-.129.013-.162.037-.03.023-.045.05-.045.083 0 .023.006.041.02.058.01.016.03.031.058.041.017.007.064.02.145.042.113.03.191.055.236.074.046.02.082.049.107.087a.27.27 0 0 1-.008.285.308.308 0 0 1-.137.112.5.5 0 0 1-.198.037.469.469 0 0 1-.285-.074.354.354 0 0 1-.12-.228ZM74.945 29.792v-1.306h.162v.467a.364.364 0 0 1 .285-.128c.068 0 .13.014.182.041a.247.247 0 0 1 .111.116.527.527 0 0 1 .033.21v.6h-.16v-.6c0-.079-.02-.137-.055-.173-.033-.038-.081-.058-.144-.058a.271.271 0 0 0-.137.038.22.22 0 0 0-.09.103.483.483 0 0 0-.025.174v.516ZM75.91 29.445l.16-.02a.35.35 0 0 0 .091.198c.044.04.1.058.166.058a.258.258 0 0 0 .19-.079.265.265 0 0 0 .079-.194.236.236 0 0 0-.075-.178.24.24 0 0 0-.182-.074.562.562 0 0 0-.116.016l.021-.14c.01.003.019.004.025.004.068 0 .13-.018.186-.054.055-.035.083-.091.083-.165 0-.06-.021-.11-.062-.15a.21.21 0 0 0-.153-.057.212.212 0 0 0-.157.062.305.305 0 0 0-.083.174l-.161-.03a.419.419 0 0 1 .136-.247.38.38 0 0 1 .26-.091.41.41 0 0 1 .199.05.332.332 0 0 1 .186.293.276.276 0 0 1-.045.153.308.308 0 0 1-.137.111.283.283 0 0 1 .178.112.334.334 0 0 1 .066.21c0 .115-.041.21-.124.29a.437.437 0 0 1-.318.12.409.409 0 0 1-.286-.103.38.38 0 0 1-.128-.269Zm0 0"/><path fill="var(--background-color)" fill-rule="evenodd" stroke="var(--text-color)" stroke-linejoin="round" stroke-miterlimit="10" stroke-width=".032" d="M5.848 37.81H2.91V34.9h5.848v2.91zm0 0"/><path fill="var(--text-color)" d="M4.894 37.068v-1.153H4.46v-.153h1.042v.153h-.434v1.153ZM5.543 37.068l.347-.492-.318-.454h.198l.145.223c.027.041.05.076.066.103l.074-.103.161-.223h.19l-.326.446.351.5h-.198l-.194-.293-.05-.079-.252.372ZM6.478 36.423c0-.154.016-.278.05-.372a.472.472 0 0 1 .14-.219.366.366 0 0 1 .24-.078c.068 0 .13.015.182.045.055.028.099.068.132.12a.633.633 0 0 1 .083.194c.018.078.029.181.029.31 0 .155-.017.28-.05.372a.461.461 0 0 1-.14.22.361.361 0 0 1-.236.074.36.36 0 0 1-.298-.132c-.089-.11-.132-.288-.132-.534zm.165 0c0 .215.025.359.075.43a.23.23 0 0 0 .19.104.221.221 0 0 0 .186-.104c.05-.071.074-.215.074-.43s-.024-.357-.074-.43a.225.225 0 0 0-.19-.107.202.202 0 0 0-.174.095c-.058.08-.087.227-.087.442Zm0 0"/><path fill="var(--background-color)" fill-rule="evenodd" stroke="var(--text-color)" stroke-linejoin="round" stroke-miterlimit="10" stroke-width=".032" d="M14.579 37.81h-2.91V34.9h5.846v2.91zm0 0"/><path fill="var(--text-color)" d="M13.546 37.068v-1.153h-.434v-.153h1.042v.153h-.434v1.153ZM14.167 37.068l.347-.492-.318-.454h.198l.145.223c.027.041.05.076.066.103l.075-.103.16-.223h.191l-.327.446.352.5h-.199l-.194-.293-.05-.079-.252.372ZM15.71 37.068h-.161v-1.025a.807.807 0 0 1-.153.116.986.986 0 0 1-.17.078v-.153a1.03 1.03 0 0 0 .236-.153.586.586 0 0 0 .145-.177h.103zm0 0"/><path fill="var(--background-color)" fill-rule="evenodd" stroke="var(--text-color)" stroke-linejoin="round" stroke-miterlimit="10" stroke-width=".032" d="M23.336 37.81h-2.91V34.9h5.82v2.91zm0 0"/><path fill="var(--text-color)" d="M22.357 37.068v-1.153h-.434v-.153h1.041v.153h-.434v1.153ZM22.978 37.068l.347-.492-.318-.454h.198l.145.223c.027.041.05.076.066.103l.074-.103.161-.223h.19l-.326.446.351.5h-.198l-.194-.293-.05-.079-.252.372ZM24.76 36.915v.153h-.868c0-.038.007-.075.021-.111a.616.616 0 0 1 .103-.174c.05-.058.121-.124.215-.198.14-.116.236-.208.286-.277a.33.33 0 0 0 .078-.195.215.215 0 0 0-.07-.16.254.254 0 0 0-.178-.067.252.252 0 0 0-.186.07.26.26 0 0 0-.07.195l-.166-.017a.397.397 0 0 1 .129-.281.432.432 0 0 1 .297-.1c.124 0 .223.037.298.108.074.07.111.155.111.256a.404.404 0 0 1-.033.158.627.627 0 0 1-.107.157c-.05.055-.132.132-.248.231a2.18 2.18 0 0 0-.186.166.489.489 0 0 0-.07.086zm0 0"/><path fill="var(--background-color)" fill-rule="evenodd" stroke="var(--text-color)" stroke-linejoin="round" stroke-miterlimit="10" stroke-width=".032" d="M32.094 37.81h-2.91V34.9h5.82v2.91zm0 0"/><path fill="var(--text-color)" d="M31.009 37.068v-1.153h-.435v-.153h1.042v.153h-.434v1.153ZM31.657 37.068l.347-.492-.318-.454h.198l.145.223c.027.041.05.076.066.103l.075-.103.16-.223h.191l-.327.446.352.5h-.199l-.194-.293-.05-.079-.252.372ZM32.596 36.721l.162-.02a.35.35 0 0 0 .09.198c.044.04.1.058.166.058a.258.258 0 0 0 .19-.079.265.265 0 0 0 .079-.194.236.236 0 0 0-.075-.178.24.24 0 0 0-.182-.074.562.562 0 0 0-.115.016l.02-.14c.01.003.019.004.025.004.068 0 .13-.018.186-.054.055-.035.083-.09.083-.165 0-.06-.02-.11-.062-.15a.21.21 0 0 0-.153-.057.212.212 0 0 0-.157.062.305.305 0 0 0-.083.174l-.161-.03a.419.419 0 0 1 .136-.247.38.38 0 0 1 .26-.091.41.41 0 0 1 .2.05.332.332 0 0 1 .185.293.276.276 0 0 1-.045.153.308.308 0 0 1-.137.111.283.283 0 0 1 .178.112.334.334 0 0 1 .066.21c0 .115-.041.21-.124.29a.437.437 0 0 1-.318.12.409.409 0 0 1-.285-.103.38.38 0 0 1-.129-.269Zm0 0"/><path fill="var(--text-color)" fill-rule="evenodd" d="m35.746 130.281.581 1.746h-1.163zm0 0" style="stroke-width:.264583" transform="translate(-29.898 -99.748)"/><path fill="none" stroke="var(--text-color)" stroke-miterlimit="10" stroke-width=".026" d="M5.848 34.9v-2.965"/><path fill="var(--text-color)" fill-rule="evenodd" d="m44.477 130.281.582 1.746h-1.164zm0 0" style="stroke-width:.264583" transform="translate(-29.898 -99.748)"/><path fill="none" stroke="var(--text-color)" stroke-miterlimit="10" stroke-width=".026" d="M14.579 34.9v-2.965"/><path fill="var(--text-color)" fill-rule="evenodd" d="m53.234 130.281.583 1.746h-1.165zm0 0" style="stroke-width:.264583" transform="translate(-29.898 -99.748)"/><path fill="none" stroke="var(--text-color)" stroke-miterlimit="10" stroke-width=".026" d="M23.336 34.9v-2.965"/><path fill="var(--text-color)" fill-rule="evenodd" d="m61.992 130.281.582 1.746H61.41zm0 0" style="stroke-width:.264583" transform="translate(-29.898 -99.748)"/><path fill="none" stroke="var(--text-color)" stroke-miterlimit="10" stroke-width=".026" d="M32.094 34.9v-2.965"/><path fill="var(--text-color)" fill-rule="evenodd" d="m104.299 130.281.582 1.746h-1.164zm0 0" style="stroke-width:.264583" transform="translate(-29.898 -99.748)"/><path fill="none" stroke="var(--text-color)" stroke-miterlimit="10" stroke-width=".026" d="M74.4 34.9v-2.965"/></svg>