<!-- Created with Inkscape (http://www.inkscape.org/) -->

<svg
   height="35.25mm"
   viewBox="0 0 29.37 17.54"
   id="diag6"
   xmlns="http://www.w3.org/2000/svg">
  <g
     id="layer1"
     transform="translate(-64.293749,-130.70416)">
    <g
       id="g2153"
       transform="matrix(0.26458333,0,0,0.26458333,-2.011246,-16.060003)">
      <path
         fill-rule="evenodd"
         fill="var(--background-color)"
         fill-opacity="1"
         stroke-width="0.12"
         stroke-linecap="butt"
         stroke-linejoin="round"
         stroke="var(--text-color)"
         stroke-opacity="1"
         stroke-miterlimit="10"
         d="m 303.30078,171 h -30.5 v 66.30078 h 61 V 171 Z m 0,0"
         transform="matrix(1,0,0,-1,0,792)"
         id="path2152" />
    </g>
    <g
       fill="var(--text-color)"
       fill-opacity="1"
       id="g2154"
       transform="matrix(0.26458333,0,0,0.26458333,-2.011246,-16.060003)">
      <g
         id="use2153"
         transform="translate(278.29999,563.70001)">
        <path
           d="M 1.796875,0 V -4.359375 H 0.15625 V -4.9375 h 3.9375 v 0.578125 H 2.453125 V 0 Z m 0,0"
           id="path26" />
      </g>
    </g>
    <g
       fill="var(--text-color)"
       fill-opacity="1"
       id="g2155"
       transform="matrix(0.26458333,0,0,0.26458333,-2.011246,-16.060003)">
      <g
         id="use2154"
         transform="translate(282.20285,563.70001)">
        <path
           d="M 0.453125,0 V -3.578125 H 1 v 0.546875 c 0.132812,-0.257812 0.257812,-0.425781 0.375,-0.5 0.125,-0.082031 0.257812,-0.125 0.40625,-0.125 0.207031,0 0.414062,0.0625 0.625,0.1875 l -0.21875,0.5625 c -0.148438,-0.082031 -0.292969,-0.125 -0.4375,-0.125 -0.136719,0 -0.257812,0.042969 -0.359375,0.125 C 1.285156,-2.832031 1.207031,-2.722656 1.15625,-2.578125 1.09375,-2.367188 1.0625,-2.132812 1.0625,-1.875 V 0 Z m 0,0"
           id="path25" />
      </g>
    </g>
    <g
       fill="var(--text-color)"
       fill-opacity="1"
       id="g2156"
       transform="matrix(0.26458333,0,0,0.26458333,-2.011246,-16.060003)">
      <g
         id="use2155"
         transform="translate(284.50433,563.70001)">
        <path
           d="M 2.8125,-0.4375 C 2.582031,-0.25 2.363281,-0.113281 2.15625,-0.03125 1.945312,0.0390625 1.722656,0.078125 1.484375,0.078125 1.085938,0.078125 0.78125,-0.015625 0.5625,-0.203125 0.351562,-0.398438 0.25,-0.644531 0.25,-0.9375 c 0,-0.175781 0.035156,-0.335938 0.109375,-0.484375 0.082031,-0.144531 0.1875,-0.257813 0.3125,-0.34375 C 0.804688,-1.859375 0.957031,-1.925781 1.125,-1.96875 1.238281,-2 1.421875,-2.03125 1.671875,-2.0625 2.160156,-2.125 2.519531,-2.191406 2.75,-2.265625 c 0,-0.082031 0,-0.140625 0,-0.171875 0,-0.238281 -0.058594,-0.410156 -0.171875,-0.515625 C 2.421875,-3.085938 2.191406,-3.15625 1.890625,-3.15625 1.597656,-3.15625 1.382812,-3.101562 1.25,-3 1.113281,-2.90625 1.015625,-2.734375 0.953125,-2.484375 L 0.359375,-2.5625 C 0.410156,-2.8125 0.5,-3.015625 0.625,-3.171875 0.75,-3.328125 0.925781,-3.445312 1.15625,-3.53125 c 0.238281,-0.082031 0.515625,-0.125 0.828125,-0.125 0.300781,0 0.546875,0.039062 0.734375,0.109375 0.195312,0.0625 0.335938,0.152344 0.421875,0.265625 0.09375,0.105469 0.160156,0.242188 0.203125,0.40625 0.019531,0.105469 0.03125,0.292969 0.03125,0.5625 V -1.5 c 0,0.5625 0.00781,0.921875 0.03125,1.078125 C 3.4375,-0.273438 3.488281,-0.132812 3.5625,0 H 2.921875 C 2.859375,-0.125 2.820312,-0.269531 2.8125,-0.4375 Z M 2.75,-1.796875 C 2.53125,-1.703125 2.203125,-1.625 1.765625,-1.5625 1.503906,-1.53125 1.320312,-1.488281 1.21875,-1.4375 1.125,-1.394531 1.046875,-1.332031 0.984375,-1.25 0.929688,-1.164062 0.90625,-1.070312 0.90625,-0.96875 c 0,0.167969 0.054688,0.308594 0.171875,0.421875 0.125,0.105469 0.304687,0.15625 0.546875,0.15625 0.238281,0 0.445312,-0.050781 0.625,-0.15625 C 2.4375,-0.648438 2.570312,-0.789062 2.65625,-0.96875 2.71875,-1.101562 2.75,-1.304688 2.75,-1.578125 Z m 0,0"
           id="path27" />
      </g>
    </g>
    <g
       fill="var(--text-color)"
       fill-opacity="1"
       id="g2157"
       transform="matrix(0.26458333,0,0,0.26458333,-2.011246,-16.060003)">
      <g
         id="use2156"
         transform="translate(288.4072,563.70001)">
        <path
           d="M 0.453125,0 V -3.578125 H 1 v 0.5 c 0.269531,-0.382813 0.65625,-0.578125 1.15625,-0.578125 0.207031,0 0.398438,0.042969 0.578125,0.125 0.1875,0.074219 0.328125,0.171875 0.421875,0.296875 0.09375,0.125 0.15625,0.273437 0.1875,0.4375 0.019531,0.117187 0.03125,0.3125 0.03125,0.59375 V 0 H 2.765625 v -2.171875 c 0,-0.25 -0.027344,-0.4375 -0.078125,-0.5625 -0.042969,-0.125 -0.125,-0.222656 -0.25,-0.296875 -0.117188,-0.070312 -0.257812,-0.109375 -0.421875,-0.109375 -0.261719,0 -0.484375,0.085937 -0.671875,0.25 -0.1875,0.167969 -0.28125,0.480469 -0.28125,0.9375 V 0 Z m 0,0"
           id="path43" />
      </g>
    </g>
    <g
       fill="var(--text-color)"
       fill-opacity="1"
       id="g2158"
       transform="matrix(0.26458333,0,0,0.26458333,-2.011246,-16.060003)">
      <g
         id="use2157"
         transform="translate(292.31003,563.70001)">
        <path
           d="M 0.21875,-1.0625 0.8125,-1.15625 c 0.039062,0.242188 0.132812,0.421875 0.28125,0.546875 0.15625,0.125 0.375,0.1875 0.65625,0.1875 0.28125,0 0.488281,-0.054687 0.625,-0.171875 0.132812,-0.113281 0.203125,-0.242188 0.203125,-0.390625 0,-0.132813 -0.0625,-0.242187 -0.1875,-0.328125 C 2.304688,-1.363281 2.097656,-1.429688 1.765625,-1.515625 1.316406,-1.628906 1.003906,-1.726562 0.828125,-1.8125 0.660156,-1.894531 0.53125,-2.007812 0.4375,-2.15625 0.351562,-2.300781 0.3125,-2.457031 0.3125,-2.625 c 0,-0.164062 0.035156,-0.316406 0.109375,-0.453125 0.070313,-0.132813 0.171875,-0.242187 0.296875,-0.328125 0.101562,-0.070312 0.234375,-0.128906 0.390625,-0.171875 0.164063,-0.050781 0.34375,-0.078125 0.53125,-0.078125 0.28125,0 0.523437,0.042969 0.734375,0.125 0.21875,0.074219 0.378906,0.183594 0.484375,0.328125 0.101563,0.136719 0.171875,0.320313 0.203125,0.546875 L 2.46875,-2.578125 C 2.4375,-2.765625 2.359375,-2.90625 2.234375,-3 2.109375,-3.101562 1.925781,-3.15625 1.6875,-3.15625 c -0.28125,0 -0.484375,0.046875 -0.609375,0.140625 -0.117187,0.085937 -0.171875,0.1875 -0.171875,0.3125 0,0.085937 0.023438,0.15625 0.078125,0.21875 0.039063,0.0625 0.117187,0.117187 0.234375,0.15625 0.050781,0.023437 0.226562,0.074219 0.53125,0.15625 0.425781,0.117187 0.722656,0.210937 0.890625,0.28125 0.175781,0.074219 0.3125,0.183594 0.40625,0.328125 0.101563,0.136719 0.15625,0.308594 0.15625,0.515625 0,0.199219 -0.0625,0.386719 -0.1875,0.5625 C 2.898438,-0.304688 2.726562,-0.164062 2.5,-0.0625 2.28125,0.03125 2.03125,0.078125 1.75,0.078125 c -0.46875,0 -0.828125,-0.09375 -1.078125,-0.28125 C 0.429688,-0.398438 0.28125,-0.6875 0.21875,-1.0625 Z m 0,0"
           id="path41" />
      </g>
    </g>
    <g
       fill="var(--text-color)"
       fill-opacity="1"
       id="g2159"
       transform="matrix(0.26458333,0,0,0.26458333,-2.011246,-16.060003)">
      <g
         id="use2158"
         transform="translate(295.81079,563.70001)">
        <path
           d="M 2.8125,-0.4375 C 2.582031,-0.25 2.363281,-0.113281 2.15625,-0.03125 1.945312,0.0390625 1.722656,0.078125 1.484375,0.078125 1.085938,0.078125 0.78125,-0.015625 0.5625,-0.203125 0.351562,-0.398438 0.25,-0.644531 0.25,-0.9375 c 0,-0.175781 0.035156,-0.335938 0.109375,-0.484375 0.082031,-0.144531 0.1875,-0.257813 0.3125,-0.34375 C 0.804688,-1.859375 0.957031,-1.925781 1.125,-1.96875 1.238281,-2 1.421875,-2.03125 1.671875,-2.0625 2.160156,-2.125 2.519531,-2.191406 2.75,-2.265625 c 0,-0.082031 0,-0.140625 0,-0.171875 0,-0.238281 -0.058594,-0.410156 -0.171875,-0.515625 C 2.421875,-3.085938 2.191406,-3.15625 1.890625,-3.15625 1.597656,-3.15625 1.382812,-3.101562 1.25,-3 1.113281,-2.90625 1.015625,-2.734375 0.953125,-2.484375 L 0.359375,-2.5625 C 0.410156,-2.8125 0.5,-3.015625 0.625,-3.171875 0.75,-3.328125 0.925781,-3.445312 1.15625,-3.53125 c 0.238281,-0.082031 0.515625,-0.125 0.828125,-0.125 0.300781,0 0.546875,0.039062 0.734375,0.109375 0.195312,0.0625 0.335938,0.152344 0.421875,0.265625 0.09375,0.105469 0.160156,0.242188 0.203125,0.40625 0.019531,0.105469 0.03125,0.292969 0.03125,0.5625 V -1.5 c 0,0.5625 0.00781,0.921875 0.03125,1.078125 C 3.4375,-0.273438 3.488281,-0.132812 3.5625,0 H 2.921875 C 2.859375,-0.125 2.820312,-0.269531 2.8125,-0.4375 Z M 2.75,-1.796875 C 2.53125,-1.703125 2.203125,-1.625 1.765625,-1.5625 1.503906,-1.53125 1.320312,-1.488281 1.21875,-1.4375 1.125,-1.394531 1.046875,-1.332031 0.984375,-1.25 0.929688,-1.164062 0.90625,-1.070312 0.90625,-0.96875 c 0,0.167969 0.054688,0.308594 0.171875,0.421875 0.125,0.105469 0.304687,0.15625 0.546875,0.15625 0.238281,0 0.445312,-0.050781 0.625,-0.15625 C 2.4375,-0.648438 2.570312,-0.789062 2.65625,-0.96875 2.71875,-1.101562 2.75,-1.304688 2.75,-1.578125 Z m 0,0"
           id="path28" />
      </g>
    </g>
    <g
       fill="var(--text-color)"
       fill-opacity="1"
       id="g2160"
       transform="matrix(0.26458333,0,0,0.26458333,-2.011246,-16.060003)">
      <g
         id="use2159"
         transform="translate(299.71362,563.70001)">
        <path
           d="m 2.8125,-1.3125 0.59375,0.078125 c -0.0625,0.417969 -0.230469,0.742187 -0.5,0.96875 -0.273438,0.2304688 -0.605469,0.34375 -1,0.34375 -0.492188,0 -0.886719,-0.15625 -1.1875,-0.46875 -0.304688,-0.320313 -0.453125,-0.785156 -0.453125,-1.390625 0,-0.382812 0.0625,-0.722656 0.1875,-1.015625 0.132813,-0.289063 0.332031,-0.503906 0.59375,-0.640625 0.269531,-0.144531 0.554687,-0.21875 0.859375,-0.21875 0.394531,0 0.710938,0.101562 0.953125,0.296875 0.25,0.1875 0.410156,0.464844 0.484375,0.828125 L 2.75,-2.4375 C 2.695312,-2.675781 2.597656,-2.851562 2.453125,-2.96875 2.304688,-3.09375 2.132812,-3.15625 1.9375,-3.15625 c -0.3125,0 -0.570312,0.109375 -0.765625,0.328125 -0.1875,0.21875 -0.28125,0.5625 -0.28125,1.03125 0,0.480469 0.09375,0.828125 0.28125,1.046875 0.1875,0.21875 0.429687,0.328125 0.734375,0.328125 0.238281,0 0.4375,-0.070313 0.59375,-0.21875 0.15625,-0.144531 0.257812,-0.367187 0.3125,-0.671875 z m 0,0"
           id="path47" />
      </g>
    </g>
    <g
       fill="var(--text-color)"
       fill-opacity="1"
       id="g2161"
       transform="matrix(0.26458333,0,0,0.26458333,-2.011246,-16.060003)">
      <g
         id="use2160"
         transform="translate(303.21442,563.70001)">
        <path
           d="M 1.78125,-0.546875 1.875,0 C 1.707031,0.03125 1.554688,0.046875 1.421875,0.046875 c -0.230469,0 -0.40625,-0.03125 -0.53125,-0.09375 -0.117187,-0.070313 -0.199219,-0.164063 -0.25,-0.28125 C 0.585938,-0.441406 0.5625,-0.679688 0.5625,-1.046875 v -2.0625 H 0.125 v -0.46875 H 0.5625 V -4.46875 l 0.609375,-0.359375 v 1.25 H 1.78125 v 0.46875 H 1.171875 v 2.09375 c 0,0.179687 0.00781,0.292969 0.03125,0.34375 0.019531,0.042969 0.054687,0.078125 0.109375,0.109375 0.050781,0.03125 0.117188,0.046875 0.203125,0.046875 0.070313,0 0.160156,-0.007813 0.265625,-0.03125 z m 0,0"
           id="path30" />
      </g>
    </g>
    <g
       fill="var(--text-color)"
       fill-opacity="1"
       id="g2162"
       transform="matrix(0.26458333,0,0,0.26458333,-2.011246,-16.060003)">
      <g
         id="use2161"
         transform="translate(305.21783,563.70001)">
        <path
           d="m 0.453125,-4.25 v -0.6875 h 0.625 V -4.25 Z m 0,4.25 v -3.578125 h 0.625 V 0 Z m 0,0"
           id="path48" />
      </g>
    </g>
    <g
       fill="var(--text-color)"
       fill-opacity="1"
       id="g2163"
       transform="matrix(0.26458333,0,0,0.26458333,-2.011246,-16.060003)">
      <g
         id="use2162"
         transform="translate(306.71518,563.70001)">
        <path
           d="m 0.234375,-1.796875 c 0,-0.65625 0.179687,-1.144531 0.546875,-1.46875 0.3125,-0.257813 0.691406,-0.390625 1.140625,-0.390625 0.488281,0 0.890625,0.164062 1.203125,0.484375 0.3125,0.324219 0.46875,0.765625 0.46875,1.328125 0,0.460938 -0.070312,0.824219 -0.203125,1.09375 C 3.253906,-0.488281 3.050781,-0.285156 2.78125,-0.140625 2.519531,0.00390625 2.234375,0.078125 1.921875,0.078125 1.410156,0.078125 1,-0.0820312 0.6875,-0.40625 0.382812,-0.726562 0.234375,-1.191406 0.234375,-1.796875 Z m 0.625,0 c 0,0.460937 0.097656,0.804687 0.296875,1.03125 0.195312,0.230469 0.453125,0.34375 0.765625,0.34375 0.300781,0 0.550781,-0.113281 0.75,-0.34375 C 2.867188,-0.992188 2.96875,-1.34375 2.96875,-1.8125 c 0,-0.4375 -0.101562,-0.769531 -0.296875,-1 -0.199219,-0.226562 -0.449219,-0.34375 -0.75,-0.34375 -0.3125,0 -0.570313,0.117188 -0.765625,0.34375 -0.199219,0.21875 -0.296875,0.558594 -0.296875,1.015625 z m 0,0"
           id="path34" />
      </g>
    </g>
    <g
       fill="var(--text-color)"
       fill-opacity="1"
       id="g2164"
       transform="matrix(0.26458333,0,0,0.26458333,-2.011246,-16.060003)">
      <g
         id="use2163"
         transform="translate(310.61801,563.70001)">
        <path
           d="M 0.453125,0 V -3.578125 H 1 v 0.5 c 0.269531,-0.382813 0.65625,-0.578125 1.15625,-0.578125 0.207031,0 0.398438,0.042969 0.578125,0.125 0.1875,0.074219 0.328125,0.171875 0.421875,0.296875 0.09375,0.125 0.15625,0.273437 0.1875,0.4375 0.019531,0.117187 0.03125,0.3125 0.03125,0.59375 V 0 H 2.765625 v -2.171875 c 0,-0.25 -0.027344,-0.4375 -0.078125,-0.5625 -0.042969,-0.125 -0.125,-0.222656 -0.25,-0.296875 -0.117188,-0.070312 -0.257812,-0.109375 -0.421875,-0.109375 -0.261719,0 -0.484375,0.085937 -0.671875,0.25 -0.1875,0.167969 -0.28125,0.480469 -0.28125,0.9375 V 0 Z m 0,0"
           id="path44" />
      </g>
    </g>
    <path
       fill-rule="evenodd"
       fill="var(--background-color)"
       fill-opacity="1"
       stroke-width="0.03175"
       stroke-linecap="butt"
       stroke-linejoin="round"
       stroke="var(--text-color)"
       stroke-opacity="1"
       stroke-miterlimit="10"
       d="m 75.299797,142.39854 h -2.196248 v -2.93626 h 4.392496 v 2.93626 z m 0,0"
       id="path2164" />
    <g
       fill="var(--text-color)"
       fill-opacity="1"
       id="g2165"
       transform="matrix(0.26458333,0,0,0.26458333,-2.011246,-16.060003)">
      <g
         id="use2164"
         transform="translate(289.29999,596)">
        <path
           d="m 0.640625,0 v -4.9375 h 0.65625 V 0 Z m 0,0"
           id="path32" />
      </g>
    </g>
    <g
       fill="var(--text-color)"
       fill-opacity="1"
       id="g2166"
       transform="matrix(0.26458333,0,0,0.26458333,-2.011246,-16.060003)">
      <g
         id="use2165"
         transform="translate(291.30341,596)">
        <path
           d="M 0.453125,0 V -3.578125 H 1 v 0.5 c 0.269531,-0.382813 0.65625,-0.578125 1.15625,-0.578125 0.207031,0 0.398438,0.042969 0.578125,0.125 0.1875,0.074219 0.328125,0.171875 0.421875,0.296875 0.09375,0.125 0.15625,0.273437 0.1875,0.4375 0.019531,0.117187 0.03125,0.3125 0.03125,0.59375 V 0 H 2.765625 v -2.171875 c 0,-0.25 -0.027344,-0.4375 -0.078125,-0.5625 -0.042969,-0.125 -0.125,-0.222656 -0.25,-0.296875 -0.117188,-0.070312 -0.257812,-0.109375 -0.421875,-0.109375 -0.261719,0 -0.484375,0.085937 -0.671875,0.25 -0.1875,0.167969 -0.28125,0.480469 -0.28125,0.9375 V 0 Z m 0,0"
           id="path45" />
      </g>
    </g>
    <path
       fill-rule="evenodd"
       fill="var(--background-color)"
       fill-opacity="1"
       stroke-width="0.03175"
       stroke-linecap="butt"
       stroke-linejoin="round"
       stroke="var(--text-color)"
       stroke-opacity="1"
       stroke-miterlimit="10"
       d="m 75.299797,146.79103 h -2.196248 v -2.93729 h 4.392496 v 2.93729 z m 0,0"
       id="path2166" />
    <g
       fill="var(--text-color)"
       fill-opacity="1"
       id="g2167"
       transform="matrix(0.26458333,0,0,0.26458333,-2.011246,-16.060003)">
      <g
         id="use2166"
         transform="translate(289.29999,612.59998)">
        <path
           d="M 0.625,0 V -0.6875 H 1.328125 V 0 Z m 0,0"
           id="path35" />
      </g>
    </g>
    <g
       fill="var(--text-color)"
       fill-opacity="1"
       id="g2168"
       transform="matrix(0.26458333,0,0,0.26458333,-2.011246,-16.060003)">
      <g
         id="use2167"
         transform="translate(291.30341,612.59998)">
        <path
           d="M 0.625,0 V -0.6875 H 1.328125 V 0 Z m 0,0"
           id="path36" />
      </g>
    </g>
    <g
       fill="var(--text-color)"
       fill-opacity="1"
       id="g2169"
       transform="matrix(0.26458333,0,0,0.26458333,-2.011246,-16.060003)">
      <g
         id="use2168"
         transform="translate(293.20285,612.59998)">
        <path
           d="M 0.625,0 V -0.6875 H 1.328125 V 0 Z m 0,0"
           id="path37" />
      </g>
    </g>
    <path
       fill-rule="evenodd"
       fill="var(--background-color)"
       fill-opacity="1"
       stroke-width="0.03175"
       stroke-linecap="butt"
       stroke-linejoin="round"
       stroke="var(--text-color)"
       stroke-opacity="1"
       stroke-miterlimit="10"
       d="m 75.299797,138.00707 h -2.196248 v -2.91041 h 4.392496 v 2.91041 z m 0,0"
       id="path2169" />
    <g
       fill="var(--text-color)"
       fill-opacity="1"
       id="g2170"
       transform="matrix(0.26458333,0,0,0.26458333,-2.011246,-16.060003)">
      <g
         id="use2169"
         transform="translate(289.29999,579.29999)">
        <path
           d="m 0.640625,0 v -4.9375 h 0.65625 V 0 Z m 0,0"
           id="path33" />
      </g>
    </g>
    <g
       fill="var(--text-color)"
       fill-opacity="1"
       id="g2171"
       transform="matrix(0.26458333,0,0,0.26458333,-2.011246,-16.060003)">
      <g
         id="use2170"
         transform="translate(291.30341,579.29999)">
        <path
           d="M 0.453125,0 V -3.578125 H 1 v 0.5 c 0.269531,-0.382813 0.65625,-0.578125 1.15625,-0.578125 0.207031,0 0.398438,0.042969 0.578125,0.125 0.1875,0.074219 0.328125,0.171875 0.421875,0.296875 0.09375,0.125 0.15625,0.273437 0.1875,0.4375 0.019531,0.117187 0.03125,0.3125 0.03125,0.59375 V 0 H 2.765625 v -2.171875 c 0,-0.25 -0.027344,-0.4375 -0.078125,-0.5625 -0.042969,-0.125 -0.125,-0.222656 -0.25,-0.296875 -0.117188,-0.070312 -0.257812,-0.109375 -0.421875,-0.109375 -0.261719,0 -0.484375,0.085937 -0.671875,0.25 -0.1875,0.167969 -0.28125,0.480469 -0.28125,0.9375 V 0 Z m 0,0"
           id="path46" />
      </g>
    </g>
    <path
       fill-rule="evenodd"
       fill="var(--background-color)"
       fill-opacity="1"
       stroke-width="0.03175"
       stroke-linecap="butt"
       stroke-linejoin="round"
       stroke="var(--text-color)"
       stroke-opacity="1"
       stroke-miterlimit="10"
       d="m 82.65542,138.00707 h -2.222088 v -2.91041 h 4.418336 v 2.91041 z m 0,0"
       id="path2171" />
    <g
       fill="var(--text-color)"
       fill-opacity="1"
       id="g2172"
       transform="matrix(0.26458333,0,0,0.26458333,-2.011246,-16.060003)">
      <g
         id="use2171"
         transform="translate(314.20001,579.29999)">
        <path
           d="m 0.328125,-2.40625 c 0,-0.820312 0.21875,-1.460938 0.65625,-1.921875 0.445313,-0.46875 1.023437,-0.703125 1.734375,-0.703125 0.457031,0 0.867188,0.109375 1.234375,0.328125 0.363281,0.21875 0.640625,0.527344 0.828125,0.921875 0.195312,0.386719 0.296875,0.824219 0.296875,1.3125 0,0.5 -0.105469,0.949219 -0.3125,1.34375 -0.199219,0.398438 -0.484375,0.699219 -0.859375,0.90625 -0.367188,0.1992188 -0.765625,0.296875 -1.203125,0.296875 -0.460937,0 -0.875,-0.109375 -1.25,-0.328125 C 1.085938,-0.476562 0.804688,-0.785156 0.609375,-1.171875 0.421875,-1.554688 0.328125,-1.96875 0.328125,-2.40625 Z m 0.6875,0.015625 c 0,0.59375 0.160156,1.0625 0.484375,1.40625 0.320312,0.34375 0.722656,0.515625 1.203125,0.515625 0.5,0 0.90625,-0.171875 1.21875,-0.515625 C 4.242188,-1.335938 4.40625,-1.832031 4.40625,-2.46875 4.40625,-2.875 4.335938,-3.222656 4.203125,-3.515625 4.066406,-3.816406 3.863281,-4.050781 3.59375,-4.21875 c -0.261719,-0.164062 -0.554688,-0.25 -0.875,-0.25 -0.46875,0 -0.871094,0.164062 -1.203125,0.484375 -0.335937,0.3125 -0.5,0.84375 -0.5,1.59375 z m 0,0"
           id="path42" />
      </g>
    </g>
    <g
       fill="var(--text-color)"
       fill-opacity="1"
       id="g2173"
       transform="matrix(0.26458333,0,0,0.26458333,-2.011246,-16.060003)">
      <g
         id="use2172"
         transform="translate(319.50314,579.29999)">
        <path
           d="M 2.8125,0 V -0.53125 C 2.53125,-0.125 2.148438,0.078125 1.671875,0.078125 1.460938,0.078125 1.265625,0.0390625 1.078125,-0.03125 0.890625,-0.113281 0.75,-0.21875 0.65625,-0.34375 0.570312,-0.46875 0.515625,-0.617188 0.484375,-0.796875 0.453125,-0.910156 0.4375,-1.097656 0.4375,-1.359375 v -2.21875 h 0.609375 v 1.984375 c 0,0.3125 0.015625,0.527344 0.046875,0.640625 0.03125,0.15625 0.109375,0.28125 0.234375,0.375 0.125,0.09375 0.28125,0.140625 0.46875,0.140625 0.175781,0 0.34375,-0.046875 0.5,-0.140625 0.164063,-0.09375 0.28125,-0.21875 0.34375,-0.375 C 2.710938,-1.117188 2.75,-1.351562 2.75,-1.65625 V -3.578125 H 3.359375 V 0 Z m 0,0"
           id="path29" />
      </g>
    </g>
    <g
       fill="var(--text-color)"
       fill-opacity="1"
       id="g2174"
       transform="matrix(0.26458333,0,0,0.26458333,-2.011246,-16.060003)">
      <g
         id="use2173"
         transform="translate(323.40601,579.29999)">
        <path
           d="M 1.78125,-0.546875 1.875,0 C 1.707031,0.03125 1.554688,0.046875 1.421875,0.046875 c -0.230469,0 -0.40625,-0.03125 -0.53125,-0.09375 -0.117187,-0.070313 -0.199219,-0.164063 -0.25,-0.28125 C 0.585938,-0.441406 0.5625,-0.679688 0.5625,-1.046875 v -2.0625 H 0.125 v -0.46875 H 0.5625 V -4.46875 l 0.609375,-0.359375 v 1.25 H 1.78125 v 0.46875 H 1.171875 v 2.09375 c 0,0.179687 0.00781,0.292969 0.03125,0.34375 0.019531,0.042969 0.054687,0.078125 0.109375,0.109375 0.050781,0.03125 0.117188,0.046875 0.203125,0.046875 0.070313,0 0.160156,-0.007813 0.265625,-0.03125 z m 0,0"
           id="path31" />
      </g>
    </g>
    <path
       fill-rule="evenodd"
       fill="var(--background-color)"
       fill-opacity="1"
       stroke-width="0.03175"
       stroke-linecap="butt"
       stroke-linejoin="round"
       stroke="var(--text-color)"
       stroke-opacity="1"
       stroke-miterlimit="10"
       d="m 82.65542,142.39854 h -2.222088 v -2.93626 h 4.418336 v 2.93626 z m 0,0"
       id="path2174" />
    <g
       fill="var(--text-color)"
       fill-opacity="1"
       id="g2175"
       transform="matrix(0.26458333,0,0,0.26458333,-2.011246,-16.060003)">
      <g
         id="use2174"
         transform="translate(317.10001,596)">
        <path
           d="M 0.625,0 V -0.6875 H 1.328125 V 0 Z m 0,0"
           id="path38" />
      </g>
    </g>
    <g
       fill="var(--text-color)"
       fill-opacity="1"
       id="g2176"
       transform="matrix(0.26458333,0,0,0.26458333,-2.011246,-16.060003)">
      <g
         id="use2175"
         transform="translate(318.99942,596)">
        <path
           d="M 0.625,0 V -0.6875 H 1.328125 V 0 Z m 0,0"
           id="path39" />
      </g>
    </g>
    <g
       fill="var(--text-color)"
       fill-opacity="1"
       id="g2177"
       transform="matrix(0.26458333,0,0,0.26458333,-2.011246,-16.060003)">
      <g
         id="use2176"
         transform="translate(321.00284,596)">
        <path
           d="M 0.625,0 V -0.6875 H 1.328125 V 0 Z m 0,0"
           id="path40" />
      </g>
    </g>
    <path
       fill-rule="evenodd"
       fill="var(--text-color)"
       fill-opacity="1"
       d="m 73.103549,136.55187 -1.772502,0.58188 v -1.16376 z m 0,0"
       id="path2177"
       style="stroke-width:0.264583" />
    <g
       id="g2178"
       transform="matrix(0.26458333,0,0,0.26458333,-2.011246,-16.060003)">
      <path
         fill="none"
         stroke-width="0.1"
         stroke-linecap="butt"
         stroke-linejoin="miter"
         stroke="var(--text-color)"
         stroke-opacity="1"
         stroke-miterlimit="10"
         d="m 250.60156,215.19922 h 28"
         transform="matrix(1,0,0,-1,0,792)"
         id="path2178" />
    </g>
    <path
       fill-rule="evenodd"
       fill="var(--text-color)"
       fill-opacity="1"
       d="m 73.103549,140.94333 -1.772502,0.58291 v -1.16478 z m 0,0"
       id="path2179"
       style="stroke-width:0.264583" />
    <g
       id="g2180"
       transform="matrix(0.26458333,0,0,0.26458333,-2.011246,-16.060003)">
      <path
         fill="none"
         stroke-width="0.1"
         stroke-linecap="butt"
         stroke-linejoin="miter"
         stroke="var(--text-color)"
         stroke-opacity="1"
         stroke-miterlimit="10"
         d="m 250.60156,198.60156 h 28"
         transform="matrix(1,0,0,-1,0,792)"
         id="path2180" />
    </g>
    <path
       fill-rule="evenodd"
       fill="var(--text-color)"
       fill-opacity="1"
       d="m 73.103549,145.30896 -1.772502,0.58291 v -1.16479 z m 0,0"
       id="path2181"
       style="stroke-width:0.264583" />
    <g
       id="g2182"
       transform="matrix(0.26458333,0,0,0.26458333,-2.011246,-16.060003)">
      <path
         fill="none"
         stroke-width="0.1"
         stroke-linecap="butt"
         stroke-linejoin="miter"
         stroke="var(--text-color)"
         stroke-opacity="1"
         stroke-miterlimit="10"
         d="m 250.60156,182.10156 h 28"
         transform="matrix(1,0,0,-1,0,792)"
         id="path2182" />
    </g>
    <g
       id="g2183"
       transform="matrix(0.26458333,0,0,0.26458333,-2.011246,-16.060003)">
      <path
         fill-rule="evenodd"
         fill="var(--text-color)"
         fill-opacity="1"
         d="M 361.60156,576.80078 354.89844,579 v -4.39844 z m 0,0"
         id="path2183" />
    </g>
    <path
       fill="none"
       stroke-width="0.0264583"
       stroke-linecap="butt"
       stroke-linejoin="miter"
       stroke="var(--text-color)"
       stroke-opacity="1"
       stroke-miterlimit="10"
       d="M 84.851668,136.55186 H 92.23313"
       id="path2184" />
    <g
       id="g2185"
       transform="matrix(0.26458333,0,0,0.26458333,-2.011246,-16.060003)">
      <path
         fill-rule="evenodd"
         fill="var(--text-color)"
         fill-opacity="1"
         d="m 361.60156,593.39844 -6.70312,2.20312 v -4.40234 z m 0,0"
         id="path2185" />
    </g>
    <path
       fill="none"
       stroke-width="0.0264583"
       stroke-linecap="butt"
       stroke-linejoin="miter"
       stroke="var(--text-color)"
       stroke-opacity="1"
       stroke-miterlimit="10"
       d="M 84.851668,140.94333 H 92.23313"
       id="path2186" />
  </g>
</svg>
