<?xml version="1.0" encoding="UTF-8"?>
<svg height="35.25mm" version="1.1" viewBox="0 0 29.37 17.54" xmlns="http://www.w3.org/2000/svg">
 <path d="M13.943 17.542h-8.07V0h16.14v17.542Zm0 0" fill="var(--background-color)" fill-rule="evenodd" stroke="var(--text-color)" stroke-linejoin="round" stroke-miterlimit="10" stroke-width=".03175"/>
 <path d="M7.804 2.381V1.228H7.37v-.153h1.042v.153h-.434v1.153ZM8.481 2.381v-.946h.145v.144a.346.346 0 0 1 .099-.132.191.191 0 0 1 .107-.033c.055 0 .11.017.166.05l-.058.149a.238.238 0 0 0-.116-.034.148.148 0 0 0-.095.034.172.172 0 0 0-.062.086.654.654 0 0 0-.025.186v.496ZM9.714 2.266a.68.68 0 0 1-.173.107.557.557 0 0 1-.178.03.362.362 0 0 1-.244-.075.253.253 0 0 1-.083-.195c0-.046.01-.088.03-.128a.27.27 0 0 1 .082-.09.361.361 0 0 1 .12-.054c.03-.009.078-.017.144-.025.13-.017.225-.034.286-.054v-.045c0-.064-.016-.109-.046-.137a.275.275 0 0 0-.182-.054c-.077 0-.134.015-.17.042-.035.025-.061.07-.078.136l-.157-.02a.373.373 0 0 1 .07-.162.314.314 0 0 1 .141-.095.674.674 0 0 1 .22-.033c.079 0 .144.01.193.029a.22.22 0 0 1 .112.07.257.257 0 0 1 .054.108.934.934 0 0 1 .008.149v.215c0 .148.002.244.008.285.009.04.022.076.042.111h-.17a.285.285 0 0 1-.029-.115Zm-.016-.36a1.092 1.092 0 0 1-.26.062.49.49 0 0 0-.145.033.161.161 0 0 0-.062.05.135.135 0 0 0-.021.074c0 .045.014.082.045.112.033.028.081.041.145.041a.32.32 0 0 0 .165-.041.244.244 0 0 0 .108-.112.397.397 0 0 0 .025-.161ZM10.123 2.381v-.946h.144v.132a.353.353 0 0 1 .306-.153c.055 0 .106.011.153.033a.25.25 0 0 1 .112.079.278.278 0 0 1 .05.115c.005.031.008.083.008.158v.582h-.162v-.574a.415.415 0 0 0-.02-.149.144.144 0 0 0-.066-.079.213.213 0 0 0-.112-.028.261.261 0 0 0-.178.066c-.05.044-.074.127-.074.248v.516ZM11.093 2.1l.157-.024c.01.064.035.111.075.144.041.033.099.05.173.05.075 0 .13-.015.166-.046.035-.03.053-.064.053-.103 0-.035-.016-.064-.05-.087a.826.826 0 0 0-.164-.054 1.45 1.45 0 0 1-.249-.078.246.246 0 0 1-.103-.091.237.237 0 0 1-.033-.124.248.248 0 0 1 .108-.207.476.476 0 0 1 .244-.066c.074 0 .138.011.194.033.058.02.1.049.128.087a.312.312 0 0 1 .054.145l-.157.02a.167.167 0 0 0-.062-.111.226.226 0 0 0-.145-.042c-.075 0-.128.013-.161.038-.031.022-.046.05-.046.082 0 .023.006.042.02.058.011.017.032.031.063.041.013.007.06.02.14.042.113.03.192.056.236.074.047.02.083.049.108.087a.223.223 0 0 1 .04.136.252.252 0 0 1-.049.15.308.308 0 0 1-.136.11.5.5 0 0 1-.199.038.469.469 0 0 1-.285-.074.354.354 0 0 1-.12-.228ZM12.706 2.266a.68.68 0 0 1-.174.107.557.557 0 0 1-.178.03.362.362 0 0 1-.244-.075.253.253 0 0 1-.082-.195c0-.046.01-.088.029-.128a.27.27 0 0 1 .082-.09.361.361 0 0 1 .12-.054c.03-.009.079-.017.145-.025.13-.017.224-.034.285-.054v-.045c0-.064-.015-.109-.045-.137a.275.275 0 0 0-.182-.054c-.078 0-.135.015-.17.042-.036.025-.062.07-.078.136l-.157-.02a.373.373 0 0 1 .07-.162.314.314 0 0 1 .14-.095.674.674 0 0 1 .22-.033c.08 0 .144.01.194.029a.22.22 0 0 1 .112.07.257.257 0 0 1 .053.108.934.934 0 0 1 .009.149v.215c0 .148.002.244.008.285.008.04.022.076.041.111h-.17a.285.285 0 0 1-.028-.115Zm-.017-.36a1.092 1.092 0 0 1-.26.062.49.49 0 0 0-.145.033.161.161 0 0 0-.062.05.135.135 0 0 0-.02.074c0 .045.014.082.045.112.033.028.08.041.145.041a.32.32 0 0 0 .165-.041.244.244 0 0 0 .107-.112.397.397 0 0 0 .025-.161ZM13.738 2.034l.157.02a.398.398 0 0 1-.132.257.396.396 0 0 1-.264.091.416.416 0 0 1-.315-.124c-.08-.085-.12-.208-.12-.368 0-.101.017-.191.05-.269a.35.35 0 0 1 .157-.169.474.474 0 0 1 .228-.058.39.39 0 0 1 .252.079c.066.05.108.123.128.219l-.157.025a.243.243 0 0 0-.079-.141.205.205 0 0 0-.136-.05.26.26 0 0 0-.203.087c-.05.058-.074.149-.074.273 0 .127.025.22.074.277.05.058.114.087.195.087a.219.219 0 0 0 .157-.058.308.308 0 0 0 .082-.178zM14.392 2.237l.025.144a.665.665 0 0 1-.12.013.32.32 0 0 1-.14-.025.159.159 0 0 1-.067-.074.531.531 0 0 1-.02-.19v-.546h-.116v-.124h.115v-.236l.162-.095v.33h.16v.125h-.16v.554a.28.28 0 0 0 .008.09c.005.012.014.021.029.03a.1.1 0 0 0 .053.012.326.326 0 0 0 .07-.008zM14.57 1.257v-.182h.166v.182Zm0 1.124v-.946h.166v.946ZM14.909 1.906c0-.174.047-.303.144-.389a.459.459 0 0 1 .302-.103c.13 0 .236.043.319.128a.485.485 0 0 1 .124.352.66.66 0 0 1-.054.289.38.38 0 0 1-.161.161.462.462 0 0 1-.228.058.432.432 0 0 1-.326-.128c-.081-.085-.12-.208-.12-.368Zm.165 0c0 .122.026.213.079.273.051.06.12.09.202.09a.25.25 0 0 0 .199-.09c.051-.06.078-.153.078-.277a.398.398 0 0 0-.078-.265.254.254 0 0 0-.199-.09.257.257 0 0 0-.202.09c-.053.058-.079.148-.079.269zM16 2.381v-.946h.144v.132a.353.353 0 0 1 .306-.153c.055 0 .105.011.153.033a.25.25 0 0 1 .111.079.278.278 0 0 1 .05.115c.005.031.008.083.008.158v.582h-.16v-.574a.415.415 0 0 0-.022-.149.144.144 0 0 0-.066-.079.213.213 0 0 0-.111-.028.261.261 0 0 0-.178.066c-.05.044-.075.127-.075.248v.516Zm0 0" fill="var(--text-color)"/>
 <path d="m11.006 11.694h-2.196v-2.936h4.392v2.936z" fill="var(--background-color)" fill-rule="evenodd" stroke="var(--text-color)" stroke-linejoin="round" stroke-miterlimit="10" stroke-width=".032"/>
 <path d="M10.408 10.928V9.62h.174v1.307ZM10.889 10.928V9.98h.145v.132a.353.353 0 0 1 .306-.153c.054 0 .105.011.153.033a.25.25 0 0 1 .111.079.278.278 0 0 1 .05.115c.005.032.008.083.008.158v.583h-.161v-.575a.415.415 0 0 0-.02-.149.144.144 0 0 0-.067-.079.213.213 0 0 0-.112-.028.261.261 0 0 0-.177.066c-.05.044-.075.127-.075.248v.517Zm0 0" fill="var(--text-color)"/>
 <path d="m11.006 16.087h-2.196v-2.937h4.392v2.937z" fill="var(--background-color)" fill-rule="evenodd" stroke="var(--text-color)" stroke-linejoin="round" stroke-miterlimit="10" stroke-width=".032"/>
 <path d="m10.404 15.32v-0.182h0.186v0.182zm0.53 0v-0.182h0.186v0.182zm0.503 0v-0.182h0.186v0.182z" fill="var(--text-color)"/>
 <path d="m11.006 7.303h-2.196v-2.91h4.392v2.91z" fill="var(--background-color)" fill-rule="evenodd" stroke="var(--text-color)" stroke-linejoin="round" stroke-miterlimit="10" stroke-width=".032"/>
 <path d="M10.408 6.509V5.203h.174v1.306ZM10.889 6.509v-.947h.145v.133a.353.353 0 0 1 .306-.153c.054 0 .105.01.153.033a.25.25 0 0 1 .111.078.278.278 0 0 1 .05.116c.005.031.008.083.008.157v.583h-.161v-.575a.415.415 0 0 0-.02-.149.144.144 0 0 0-.067-.078.213.213 0 0 0-.112-.029.261.261 0 0 0-.177.066c-.05.045-.075.127-.075.248v.517Zm0 0" fill="var(--text-color)"/>
 <path d="m18.362 7.303h-2.222v-2.91h4.418v2.91z" fill="var(--background-color)" fill-rule="evenodd" stroke="var(--text-color)" stroke-linejoin="round" stroke-miterlimit="10" stroke-width=".032"/>
 <path d="M16.914 5.872c0-.217.058-.386.174-.508a.604.604 0 0 1 .458-.186c.121 0 .23.029.327.087.096.057.17.14.22.244a.76.76 0 0 1 .078.347.755.755 0 0 1-.083.355.543.543 0 0 1-.227.24.654.654 0 0 1-.319.079.598.598 0 0 1-.554-.33.735.735 0 0 1-.074-.328Zm.182.004a.52.52 0 0 0 .128.373.417.417 0 0 0 .318.136c.133 0 .24-.046.323-.136.085-.094.128-.225.128-.393 0-.108-.019-.2-.054-.277a.429.429 0 0 0-.393-.252.443.443 0 0 0-.318.128c-.089.082-.132.223-.132.421zM18.974 6.509v-.14a.35.35 0 0 1-.301.16.442.442 0 0 1-.158-.028.272.272 0 0 1-.111-.083.297.297 0 0 1-.046-.12.625.625 0 0 1-.012-.149v-.587h.161v.525c0 .083.004.14.013.17a.159.159 0 0 0 .062.099.2.2 0 0 0 .124.037.254.254 0 0 0 .132-.037.2.2 0 0 0 .09-.1.486.486 0 0 0 .03-.185v-.509h.161v.947ZM19.734 6.364l.025.145a.665.665 0 0 1-.12.012.32.32 0 0 1-.14-.024.159.159 0 0 1-.067-.075.531.531 0 0 1-.02-.19v-.546h-.116v-.124h.116v-.235l.16-.095v.33h.162v.124h-.161v.554a.28.28 0 0 0 .008.091c.005.012.015.02.03.03a.1.1 0 0 0 .053.012.326.326 0 0 0 .07-.009zm0 0" fill="var(--text-color)"/>
 <path d="m18.362 11.694h-2.222v-2.936h4.418v2.936z" fill="var(--background-color)" fill-rule="evenodd" stroke="var(--text-color)" stroke-linejoin="round" stroke-miterlimit="10" stroke-width=".032"/>
 <path d="m17.76 10.928v-0.182h0.186v0.182zm0.502 0v-0.182h0.186v0.182zm0.53 0v-0.182h0.186v0.182z" fill="var(--text-color)"/>
 <path transform="translate(-64.294 -130.7)" d="m73.104 136.55-1.773 0.582v-1.164z" fill="var(--text-color)" fill-rule="evenodd" stroke-width=".26458"/>
 <path d="m0 5.848h7.408" fill="none" stroke="var(--text-color)" stroke-miterlimit="10" stroke-width=".026458"/>
 <path transform="translate(-64.294 -130.7)" d="m73.104 140.94-1.773 0.583v-1.165z" fill="var(--text-color)" fill-rule="evenodd" stroke-width=".26458"/>
 <path d="m0 10.24h7.408" fill="none" stroke="var(--text-color)" stroke-miterlimit="10" stroke-width=".026458"/>
 <path transform="translate(-64.294 -130.7)" d="m73.104 145.31-1.773 0.583v-1.165z" fill="var(--text-color)" fill-rule="evenodd" stroke-width=".26458"/>
 <path d="m0 14.605h7.408" fill="none" stroke="var(--text-color)" stroke-miterlimit="10" stroke-width=".026458"/>
 <path d="m29.369 5.848-1.774 0.582v-1.164z" fill="var(--text-color)" fill-rule="evenodd"/>
 <path d="m20.558 5.848h7.381" fill="none" stroke="var(--text-color)" stroke-miterlimit="10" stroke-width=".026"/>
 <path d="m29.369 10.24-1.774 0.582v-1.165z" fill="var(--text-color)" fill-rule="evenodd"/>
 <path d="m20.558 10.24h7.381" fill="none" stroke="var(--text-color)" stroke-miterlimit="10" stroke-width=".026"/>
</svg>
