<?xml version="1.0" encoding="UTF-8"?>
<svg height="35.25mm" version="1.1" viewBox="0 0 72.94 19.9" xmlns="http://www.w3.org/2000/svg">
 <g fill="var(--text-color)">
  <path d="M.885.678.794.976c.096-.11.18-.187.252-.232a.453.453 0 0 1 .231-.066.25.25 0 0 1 .195.09c.055.062.082.142.082.24 0 .19-.078.385-.235.584-.155.198-.335.297-.542.297a.412.412 0 0 1-.227-.066l-.095.335a.596.596 0 0 0-.03.128c0 .019.005.035.013.05a.09.09 0 0 0 .05.029.5.5 0 0 0 .136.012l-.012.05H0l.012-.05c.081-.003.136-.016.166-.041.028-.023.057-.09.087-.199L.595.992A.85.85 0 0 0 .625.86C.624.835.616.818.603.806a.088.088 0 0 0-.062-.02.96.96 0 0 0-.104.008v-.05zM.579 1.72a.273.273 0 0 0 .219.095.295.295 0 0 0 .136-.037.478.478 0 0 0 .14-.112 1.01 1.01 0 0 0 .216-.401.889.889 0 0 0 .041-.26c0-.069-.016-.121-.05-.158C1.252.81 1.216.79 1.175.79 1.08.79.986.843.893.95a1.006 1.006 0 0 0-.198.381zM2.355.703h1.406V.81H2.355Zm0 .426h1.406v.107H2.355ZM4.471.781 4.84.633h.05V.91a.698.698 0 0 1 .186-.22.356.356 0 0 1 .198-.062.38.38 0 0 1 .298.14c.1.115.149.263.149.447a.75.75 0 0 1-.178.513.467.467 0 0 1-.368.165.387.387 0 0 1-.285-.107v.364a.44.44 0 0 0 .016.157c.01.022.03.038.054.05a.3.3 0 0 0 .133.02v.05h-.625v-.05H4.5a.221.221 0 0 0 .12-.025.102.102 0 0 0 .037-.05.463.463 0 0 0 .017-.16v-1.13a.495.495 0 0 0-.012-.144.085.085 0 0 0-.034-.05.105.105 0 0 0-.062-.016.226.226 0 0 0-.078.02zm.418.207v.447c0 .097.004.16.012.19.014.05.044.094.091.132.047.04.106.058.178.058a.251.251 0 0 0 .21-.103c.072-.088.108-.212.108-.373 0-.181-.04-.322-.12-.421A.25.25 0 0 0 5.17.814a.266.266 0 0 0-.124.033.73.73 0 0 0-.157.141zM6.26.628v.27c.098-.18.2-.27.305-.27.05 0 .089.016.12.046a.132.132 0 0 1 .012.186.11.11 0 0 1-.082.033c-.031 0-.065-.014-.104-.046-.036-.03-.064-.045-.082-.045-.015 0-.031.008-.05.025a.623.623 0 0 0-.12.178v.57c0 .066.008.118.025.153.01.023.03.041.058.058.03.016.071.025.124.025v.045h-.612v-.045c.06 0 .105-.01.136-.03a.106.106 0 0 0 .046-.065.585.585 0 0 0 .008-.128v-.464c0-.137-.003-.22-.008-.248C6.03.85 6.019.83 6.003.82a.096.096 0 0 0-.058-.017.34.34 0 0 0-.091.017L5.842.773l.36-.145ZM7.369.628c.178 0 .323.069.434.203.093.119.14.254.14.405a.764.764 0 0 1-.078.327.596.596 0 0 1-.215.248.556.556 0 0 1-.298.082.509.509 0 0 1-.43-.215.673.673 0 0 1-.132-.409c0-.107.026-.215.078-.322a.54.54 0 0 1 .215-.24.57.57 0 0 1 .286-.079zm-.042.083a.279.279 0 0 0-.14.041.3.3 0 0 0-.116.145.714.714 0 0 0-.041.265c0 .173.034.324.103.45.071.124.163.186.277.186.083 0 .15-.034.207-.103.054-.068.082-.188.082-.36 0-.212-.045-.378-.136-.5a.289.289 0 0 0-.236-.124zM8.458.868c.115-.159.24-.24.376-.24.12 0 .227.053.318.157a.62.62 0 0 1 .14.426c0 .213-.07.384-.21.513a.579.579 0 0 1-.62.132.866.866 0 0 1-.22-.116V.504c0-.134-.002-.217-.008-.248C8.228.223 8.218.202 8.201.19a.084.084 0 0 0-.05-.016.267.267 0 0 0-.09.02L8.04.15 8.4 0h.058zm0 .083v.715a.459.459 0 0 0 .136.1c.05.022.1.032.149.032.08 0 .153-.042.219-.128.068-.088.103-.216.103-.384a.54.54 0 0 0-.103-.352C8.896.852 8.818.81 8.731.81a.271.271 0 0 0-.137.037.57.57 0 0 0-.136.104zM10.132 1.683a1.79 1.79 0 0 1-.232.165.355.355 0 0 1-.148.033.277.277 0 0 1-.207-.083.318.318 0 0 1-.079-.223c0-.06.013-.112.037-.153a.523.523 0 0 1 .186-.165 2.87 2.87 0 0 1 .443-.19v-.05c0-.118-.02-.2-.058-.244a.212.212 0 0 0-.165-.066.173.173 0 0 0-.129.045.126.126 0 0 0-.05.1v.074c0 .041-.01.073-.028.095a.097.097 0 0 1-.079.033.11.11 0 0 1-.082-.033.147.147 0 0 1-.03-.095c0-.074.039-.142.116-.203A.494.494 0 0 1 9.95.628c.104 0 .191.017.26.05.05.028.087.07.112.128.017.04.025.116.025.232v.405c0 .113 0 .184.004.21.005.025.012.042.02.05.011.009.023.013.038.013a.076.076 0 0 0 .037-.009.598.598 0 0 0 .103-.095v.07c-.097.133-.189.199-.277.199a.134.134 0 0 1-.103-.045c-.025-.03-.037-.081-.037-.153Zm0-.083v-.455c-.132.053-.218.09-.256.112a.404.404 0 0 0-.15.12.238.238 0 0 0-.04.136c0 .061.017.112.053.153a.176.176 0 0 0 .132.062c.067 0 .153-.042.26-.128zM10.972.868c.116-.159.241-.24.376-.24.121 0 .228.053.319.157a.62.62 0 0 1 .14.426c0 .213-.07.384-.21.513a.579.579 0 0 1-.62.132.866.866 0 0 1-.22-.116V.504c0-.134-.003-.217-.008-.248-.006-.033-.016-.054-.033-.066a.084.084 0 0 0-.05-.016.267.267 0 0 0-.09.02L10.554.15l.36-.149h.057zm0 .083v.715a.459.459 0 0 0 .137.1c.05.022.099.032.149.032.08 0 .152-.042.219-.128.068-.088.103-.216.103-.384a.54.54 0 0 0-.103-.352C11.41.852 11.333.81 11.245.81a.271.271 0 0 0-.136.037.57.57 0 0 0-.137.104zm0 0"/>
  <path d="M12.301 0c.035 0 .066.014.091.041a.121.121 0 0 1 .041.091c0 .04-.014.07-.04.095a.125.125 0 0 1-.092.038.128.128 0 0 1-.132-.133c0-.035.012-.066.037-.09A.123.123 0 0 1 12.301 0zm.108.628v.96c0 .074.005.124.016.148.01.025.026.045.046.058a.291.291 0 0 0 .12.017v.045h-.583v-.045a.262.262 0 0 0 .115-.017.13.13 0 0 0 .05-.058.357.357 0 0 0 .02-.148v-.464c0-.129-.003-.212-.012-.252-.008-.027-.02-.045-.033-.053a.072.072 0 0 0-.05-.017.34.34 0 0 0-.09.017L11.99.773l.36-.145ZM13.149 0v1.588c0 .074.004.124.012.148.01.023.027.04.05.054.025.015.067.02.128.02v.046h-.583v-.045a.238.238 0 0 0 .108-.017.13.13 0 0 0 .05-.058.45.45 0 0 0 .016-.148V.5c0-.134-.003-.217-.009-.248-.006-.03-.015-.05-.028-.062a.09.09 0 0 0-.054-.016.229.229 0 0 0-.083.02L12.731.15 13.087 0zM13.782 0c.035 0 .066.014.09.041a.121.121 0 0 1 .042.091c0 .04-.015.07-.041.095a.125.125 0 0 1-.091.038.128.128 0 0 1-.133-.133c0-.035.013-.066.037-.09A.123.123 0 0 1 13.782 0zm.107.628v.96c0 .074.005.124.017.148.01.025.025.045.045.058a.291.291 0 0 0 .12.017v.045h-.583v-.045a.262.262 0 0 0 .116-.017.13.13 0 0 0 .05-.058.357.357 0 0 0 .02-.148v-.464c0-.129-.004-.212-.012-.252-.009-.027-.02-.045-.033-.053a.072.072 0 0 0-.05-.017.34.34 0 0 0-.091.017l-.016-.046.36-.145ZM14.563.269V.66h.281v.091h-.28v.778c0 .077.01.13.032.157a.11.11 0 0 0 .087.037.162.162 0 0 0 .083-.025.182.182 0 0 0 .062-.078h.05a.424.424 0 0 1-.129.194.281.281 0 0 1-.17.062.241.241 0 0 1-.12-.033.2.2 0 0 1-.086-.095.558.558 0 0 1-.025-.195V.752h-.19v-.04a.48.48 0 0 0 .149-.096.788.788 0 0 0 .132-.165c.019-.033.047-.093.083-.182ZM14.89.661h.554v.05h-.025c-.04 0-.07.008-.09.025a.077.077 0 0 0-.03.062c0 .033.015.08.046.14l.29.604.268-.661a.292.292 0 0 0 .02-.104.07.07 0 0 0-.008-.037C15.91.732 15.9.726 15.882.72a.261.261 0 0 0-.078-.009v-.05h.388v.05a.193.193 0 0 0-.074.02.302.302 0 0 0-.058.059c-.006.011-.02.044-.041.099l-.488 1.195a.605.605 0 0 1-.186.26.36.36 0 0 1-.22.087.178.178 0 0 1-.123-.046.126.126 0 0 1-.05-.099c0-.036.01-.065.033-.087a.14.14 0 0 1 .1-.033c.03 0 .067.01.115.03.035.01.058.016.066.016.027 0 .056-.015.087-.042a.404.404 0 0 0 .09-.153l.088-.206L15.1.91a1.498 1.498 0 0 0-.062-.104.251.251 0 0 0-.054-.058.322.322 0 0 0-.095-.037Zm0 0"/>
  <path d="M17.646 1.683a1.79 1.79 0 0 1-.231.165.355.355 0 0 1-.149.033.277.277 0 0 1-.207-.083.318.318 0 0 1-.078-.223c0-.06.012-.112.037-.153a.523.523 0 0 1 .186-.165 2.87 2.87 0 0 1 .442-.19v-.05c0-.118-.02-.2-.058-.244a.212.212 0 0 0-.165-.066.173.173 0 0 0-.128.045.126.126 0 0 0-.05.1v.074c0 .041-.01.073-.029.095a.097.097 0 0 1-.078.033.11.11 0 0 1-.083-.033.147.147 0 0 1-.029-.095c0-.074.038-.142.116-.203a.494.494 0 0 1 .322-.095c.105 0 .192.017.26.05.05.028.088.07.112.128.017.04.025.116.025.232v.405c0 .113.001.184.004.21.006.025.013.042.021.05.01.009.023.013.037.013a.076.076 0 0 0 .038-.009.598.598 0 0 0 .103-.095v.07c-.097.133-.19.199-.277.199a.134.134 0 0 1-.103-.045c-.025-.03-.038-.081-.038-.153Zm0-.083v-.455c-.132.053-.218.09-.256.112a.404.404 0 0 0-.149.12.238.238 0 0 0-.041.136c0 .061.017.112.054.153a.176.176 0 0 0 .132.062c.066 0 .153-.042.26-.128zM18.48.88c.141-.167.275-.252.402-.252.066 0 .122.017.17.05a.312.312 0 0 1 .11.157.761.761 0 0 1 .03.24v.513a.46.46 0 0 0 .016.152c.01.023.026.04.046.054a.291.291 0 0 0 .12.017v.045h-.591v-.045h.024c.055 0 .093-.009.116-.025a.137.137 0 0 0 .05-.079c.002-.01.004-.05.004-.12v-.491A.471.471 0 0 0 18.93.86c-.028-.05-.074-.075-.14-.075-.103 0-.206.057-.31.17v.633c0 .08.005.13.016.148.01.025.027.045.05.058a.318.318 0 0 0 .128.017v.045h-.587v-.045h.025c.06 0 .1-.015.12-.046.021-.033.033-.092.033-.177V1.14c0-.143-.003-.23-.009-.26-.006-.03-.015-.051-.028-.062a.09.09 0 0 0-.054-.017.302.302 0 0 0-.087.017l-.02-.046.359-.145h.054ZM20.497 0v.876a.915.915 0 0 1 .227-.202.375.375 0 0 1 .174-.046c.066 0 .122.02.17.058.05.036.086.094.111.174.017.056.025.157.025.306v.422a.46.46 0 0 0 .017.152c.01.023.025.04.045.054.022.012.06.017.116.017v.045h-.587v-.045h.029c.054 0 .093-.009.115-.025a.149.149 0 0 0 .046-.079c.002-.013.004-.053.004-.12v-.421a.985.985 0 0 0-.02-.256.17.17 0 0 0-.067-.091.182.182 0 0 0-.107-.034.316.316 0 0 0-.133.034.6.6 0 0 0-.165.136v.633c0 .08.004.13.012.152.01.02.03.037.054.05.025.015.067.02.128.02v.046h-.59v-.045a.264.264 0 0 0 .123-.025.118.118 0 0 0 .042-.05.45.45 0 0 0 .016-.148V.504c0-.134-.004-.217-.012-.248-.006-.033-.016-.054-.03-.066a.09.09 0 0 0-.053-.016.295.295 0 0 0-.087.02L20.08.15 20.44 0zM22.082.628c.179 0 .324.069.434.203.093.119.14.254.14.405a.764.764 0 0 1-.078.327.596.596 0 0 1-.215.248.556.556 0 0 1-.297.082.509.509 0 0 1-.43-.215.673.673 0 0 1-.133-.409c0-.107.026-.215.079-.322a.54.54 0 0 1 .215-.24.57.57 0 0 1 .285-.079zm-.041.083a.279.279 0 0 0-.14.041.3.3 0 0 0-.116.145.714.714 0 0 0-.042.265c0 .173.034.324.104.45.07.124.163.186.277.186.082 0 .15-.034.206-.103.055-.068.083-.188.083-.36 0-.212-.046-.378-.136-.5a.289.289 0 0 0-.236-.124zM23.165.88c.14-.167.274-.252.401-.252.066 0 .122.017.17.05a.312.312 0 0 1 .111.157.761.761 0 0 1 .03.24v.513a.46.46 0 0 0 .016.152c.01.023.026.04.045.054a.291.291 0 0 0 .12.017v.045h-.591v-.045h.025c.055 0 .093-.009.116-.025a.137.137 0 0 0 .05-.079c.001-.01.003-.05.003-.12v-.491a.471.471 0 0 0-.045-.236c-.028-.05-.075-.075-.14-.075-.103 0-.206.057-.31.17v.633c0 .08.004.13.016.148.01.025.027.045.05.058a.318.318 0 0 0 .128.017v.045h-.587v-.045h.024c.06 0 .1-.015.12-.046.022-.033.033-.092.033-.177V1.14c0-.143-.003-.23-.008-.26-.006-.03-.015-.051-.029-.062a.09.09 0 0 0-.054-.017.302.302 0 0 0-.086.017l-.021-.046.36-.145h.053ZM24.37 1.112c-.003.177.04.316.128.418.088.099.19.148.306.148a.33.33 0 0 0 .203-.062.5.5 0 0 0 .149-.223l.037.03a.615.615 0 0 1-.157.326.428.428 0 0 1-.331.144.48.48 0 0 1-.368-.165c-.102-.113-.153-.265-.153-.455 0-.203.052-.361.157-.475a.507.507 0 0 1 .393-.174c.134 0 .245.045.33.133a.493.493 0 0 1 .129.355Zm0-.074h.554a.624.624 0 0 0-.029-.166.273.273 0 0 0-.231-.153.275.275 0 0 0-.195.083.354.354 0 0 0-.099.236zM26.132.628v.406h-.04a.543.543 0 0 0-.13-.26.29.29 0 0 0-.198-.071.22.22 0 0 0-.148.05c-.037.032-.054.069-.054.107 0 .047.013.089.041.124a.441.441 0 0 0 .166.112l.19.095c.175.085.264.198.264.339 0 .11-.041.198-.124.264a.434.434 0 0 1-.277.1.912.912 0 0 1-.248-.042.295.295 0 0 0-.07-.012c-.023 0-.04.011-.05.033h-.04v-.426h.04a.495.495 0 0 0 .141.277.338.338 0 0 0 .231.09c.06 0 .109-.016.145-.049a.17.17 0 0 0 .058-.128.205.205 0 0 0-.066-.153 1.026 1.026 0 0 0-.252-.153.753.753 0 0 1-.244-.17.296.296 0 0 1-.058-.19c0-.099.033-.18.1-.243a.352.352 0 0 1 .26-.1c.046 0 .104.01.173.03.044.014.073.02.087.02.013 0 .025-.002.033-.008a.208.208 0 0 0 .03-.042Zm0 0"/>
  <path d="M26.738.269V.66h.281v.091h-.28v.778c0 .077.01.13.032.157a.11.11 0 0 0 .087.037.162.162 0 0 0 .083-.025.182.182 0 0 0 .062-.078h.05a.424.424 0 0 1-.129.194.281.281 0 0 1-.17.062.241.241 0 0 1-.12-.033.2.2 0 0 1-.086-.095.558.558 0 0 1-.025-.195V.752h-.19v-.04a.48.48 0 0 0 .149-.096.788.788 0 0 0 .132-.165c.019-.033.047-.093.083-.182Zm0 0"/>
  <path d="M28.141.88c.14-.167.274-.252.401-.252.066 0 .122.017.17.05a.312.312 0 0 1 .111.157.761.761 0 0 1 .03.24v.513a.46.46 0 0 0 .016.152c.01.023.025.04.045.054a.291.291 0 0 0 .12.017v.045h-.591v-.045h.025c.054 0 .093-.009.115-.025a.137.137 0 0 0 .05-.079c.002-.01.004-.05.004-.12v-.491a.471.471 0 0 0-.045-.236c-.028-.05-.075-.075-.14-.075-.103 0-.207.057-.311.17v.633c0 .08.005.13.017.148.01.025.026.045.05.058a.318.318 0 0 0 .127.017v.045h-.587v-.045h.025c.06 0 .1-.015.12-.046.022-.033.033-.092.033-.177V1.14c0-.143-.003-.23-.008-.26-.006-.03-.016-.051-.03-.062a.09.09 0 0 0-.053-.017.302.302 0 0 0-.087.017l-.02-.046.36-.145h.053ZM29.73.628c.18 0 .324.069.434.203.093.119.141.254.141.405a.764.764 0 0 1-.079.327.596.596 0 0 1-.215.248.556.556 0 0 1-.297.082.509.509 0 0 1-.43-.215.673.673 0 0 1-.132-.409c0-.107.025-.215.078-.322a.54.54 0 0 1 .215-.24.57.57 0 0 1 .285-.079zm-.041.083a.279.279 0 0 0-.14.041.3.3 0 0 0-.116.145.714.714 0 0 0-.042.265c0 .173.034.324.104.45.071.124.163.186.277.186.082 0 .15-.034.206-.103.055-.068.083-.188.083-.36 0-.212-.045-.378-.136-.5a.289.289 0 0 0-.236-.124zM31.31 1.724a.618.618 0 0 1-.17.132.454.454 0 0 1-.525-.124.611.611 0 0 1-.145-.421c0-.174.054-.331.161-.472a.507.507 0 0 1 .418-.215c.104 0 .191.035.26.104V.504c0-.134-.003-.217-.008-.248-.006-.033-.016-.054-.033-.066a.084.084 0 0 0-.05-.016.296.296 0 0 0-.09.02L31.11.15 31.467 0h.057v1.38c0 .141.002.228.009.261a.136.136 0 0 0 .033.066c.013.012.03.017.05.017a.258.258 0 0 0 .094-.025l.017.046-.356.148h-.062Zm0-.095v-.612a.41.41 0 0 0-.05-.161.258.258 0 0 0-.104-.112.24.24 0 0 0-.124-.037c-.074 0-.142.035-.202.103-.08.091-.12.224-.12.397 0 .174.038.308.116.401.076.094.162.14.256.14.077 0 .153-.039.227-.12zM32.018 1.112c-.003.177.04.316.128.418.088.099.19.148.306.148a.33.33 0 0 0 .203-.062.5.5 0 0 0 .149-.223l.037.03a.615.615 0 0 1-.157.326.428.428 0 0 1-.331.144.48.48 0 0 1-.368-.165c-.102-.113-.153-.265-.153-.455 0-.203.052-.361.157-.475a.507.507 0 0 1 .393-.174c.134 0 .245.045.33.133a.493.493 0 0 1 .129.355Zm0-.074h.554a.624.624 0 0 0-.029-.166.273.273 0 0 0-.231-.153.275.275 0 0 0-.195.083.354.354 0 0 0-.099.236zM34.137.757v.785c0 .11.013.18.038.21.033.04.075.059.128.059h.107v.045h-.71v-.045h.053a.174.174 0 0 0 .09-.025.15.15 0 0 0 .063-.07.618.618 0 0 0 .016-.174V.757h-.231V.66h.231V.583c0-.118.019-.22.058-.302a.484.484 0 0 1 .442-.277c.092 0 .174.031.249.091.051.04.078.082.078.128a.11.11 0 0 1-.037.079c-.023.023-.046.033-.07.033a.11.11 0 0 1-.062-.02.41.41 0 0 1-.083-.096.35.35 0 0 0-.091-.095.153.153 0 0 0-.087-.025.16.16 0 0 0-.103.033.176.176 0 0 0-.062.1 1.98 1.98 0 0 0-.017.343V.66h.31v.096zm0 0"/>
  <path d="M34.85 0c.035 0 .066.014.09.041a.121.121 0 0 1 .042.091c0 .04-.014.07-.041.095a.125.125 0 0 1-.091.038.128.128 0 0 1-.132-.133c0-.035.012-.066.037-.09A.123.123 0 0 1 34.85 0zm.107.628v.96c0 .074.006.124.017.148.01.025.026.045.045.058a.291.291 0 0 0 .12.017v.045h-.583v-.045a.262.262 0 0 0 .116-.017.13.13 0 0 0 .05-.058.357.357 0 0 0 .02-.148v-.464c0-.129-.004-.212-.012-.252-.008-.027-.02-.045-.033-.053a.072.072 0 0 0-.05-.017.34.34 0 0 0-.09.017L34.54.773l.36-.145ZM35.631.88c.141-.167.274-.252.401-.252.067 0 .122.017.17.05a.312.312 0 0 1 .112.157.761.761 0 0 1 .029.24v.513a.46.46 0 0 0 .016.152c.01.023.026.04.046.054a.291.291 0 0 0 .12.017v.045h-.592v-.045h.025c.055 0 .093-.009.116-.025a.137.137 0 0 0 .05-.079c.002-.01.004-.05.004-.12v-.491a.471.471 0 0 0-.046-.236c-.028-.05-.074-.075-.14-.075-.103 0-.206.057-.31.17v.633c0 .08.005.13.016.148.01.025.027.045.05.058a.318.318 0 0 0 .128.017v.045h-.587v-.045h.025c.06 0 .1-.015.12-.046.021-.033.033-.092.033-.177V1.14c0-.143-.004-.23-.009-.26-.006-.03-.015-.051-.029-.062a.09.09 0 0 0-.053-.017.302.302 0 0 0-.087.017l-.02-.046.359-.145h.053Zm0 0"/>
  <path d="M37.477 1.724a.618.618 0 0 1-.17.132.454.454 0 0 1-.525-.124.611.611 0 0 1-.144-.421c0-.174.054-.331.161-.472a.507.507 0 0 1 .418-.215c.104 0 .19.035.26.104V.504c0-.134-.003-.217-.008-.248-.006-.033-.017-.054-.033-.066a.084.084 0 0 0-.05-.016.296.296 0 0 0-.09.02L37.278.15 37.634 0h.058v1.38c0 .141.002.228.008.261a.136.136 0 0 0 .033.066c.014.012.03.017.05.017a.258.258 0 0 0 .095-.025l.017.046-.356.148h-.062Zm0-.095v-.612a.41.41 0 0 0-.05-.161.258.258 0 0 0-.103-.112.24.24 0 0 0-.124-.037c-.074 0-.143.035-.202.103-.081.091-.12.224-.12.397 0 .174.038.308.115.401.077.094.163.14.257.14.076 0 .153-.039.227-.12zM38.756.628v.406h-.041a.543.543 0 0 0-.128-.26.29.29 0 0 0-.199-.071.22.22 0 0 0-.148.05c-.037.032-.054.069-.054.107 0 .047.013.089.041.124a.441.441 0 0 0 .166.112l.19.095c.175.085.264.198.264.339 0 .11-.041.198-.124.264a.434.434 0 0 1-.277.1.912.912 0 0 1-.248-.042.295.295 0 0 0-.07-.012c-.023 0-.04.011-.05.033h-.041v-.426h.041a.495.495 0 0 0 .14.277.338.338 0 0 0 .232.09c.06 0 .109-.016.145-.049a.17.17 0 0 0 .058-.128.205.205 0 0 0-.066-.153 1.026 1.026 0 0 0-.252-.153.753.753 0 0 1-.244-.17.296.296 0 0 1-.058-.19c0-.099.033-.18.1-.243a.352.352 0 0 1 .26-.1c.046 0 .104.01.173.03.044.014.072.02.087.02.013 0 .025-.002.033-.008a.208.208 0 0 0 .029-.042Zm0 0"/>
  <path d="M40.025.269V.66h.28v.091h-.28v.778c0 .077.01.13.033.157a.11.11 0 0 0 .087.037.162.162 0 0 0 .082-.025.182.182 0 0 0 .062-.078h.05a.424.424 0 0 1-.128.194.281.281 0 0 1-.17.062.241.241 0 0 1-.12-.033.2.2 0 0 1-.086-.095.558.558 0 0 1-.025-.195V.752h-.19v-.04a.48.48 0 0 0 .148-.096.788.788 0 0 0 .133-.165c.018-.033.046-.093.082-.182ZM40.77 0v.876a.915.915 0 0 1 .226-.202.375.375 0 0 1 .174-.046c.066 0 .122.02.17.058.05.036.086.094.111.174.017.056.025.157.025.306v.422a.46.46 0 0 0 .017.152c.01.023.025.04.045.054.022.012.06.017.116.017v.045h-.587v-.045h.029c.054 0 .093-.009.115-.025a.149.149 0 0 0 .046-.079c.002-.013.004-.053.004-.12v-.421a.985.985 0 0 0-.02-.256.17.17 0 0 0-.067-.091.182.182 0 0 0-.107-.034.316.316 0 0 0-.133.034.6.6 0 0 0-.165.136v.633c0 .08.004.13.012.152.01.02.03.037.054.05.025.015.067.02.128.02v.046h-.59v-.045a.264.264 0 0 0 .123-.025.118.118 0 0 0 .042-.05.45.45 0 0 0 .016-.148V.504c0-.134-.004-.217-.012-.248-.006-.033-.016-.054-.03-.066a.09.09 0 0 0-.053-.016.295.295 0 0 0-.087.02l-.02-.045.36-.149zm0 0"/>
  <path d="M41.97 1.112c-.003.177.039.316.128.418.088.099.19.148.306.148a.33.33 0 0 0 .202-.062.5.5 0 0 0 .15-.223l.036.03a.615.615 0 0 1-.157.326.428.428 0 0 1-.33.144.48.48 0 0 1-.368-.165c-.103-.113-.153-.265-.153-.455 0-.203.051-.361.157-.475a.507.507 0 0 1 .393-.174c.134 0 .245.045.33.133a.493.493 0 0 1 .128.355Zm0-.074h.554a.624.624 0 0 0-.03-.166.273.273 0 0 0-.23-.153.275.275 0 0 0-.195.083.354.354 0 0 0-.1.236zM43.969.88c.14-.167.274-.252.401-.252.066 0 .122.017.17.05a.312.312 0 0 1 .111.157.761.761 0 0 1 .03.24v.513a.46.46 0 0 0 .016.152c.01.023.025.04.045.054a.291.291 0 0 0 .12.017v.045h-.591v-.045h.025c.054 0 .093-.009.115-.025a.137.137 0 0 0 .05-.079c.002-.01.004-.05.004-.12v-.491A.471.471 0 0 0 44.42.86c-.028-.05-.075-.075-.14-.075-.103 0-.207.057-.311.17v.633c0 .08.005.13.017.148.01.025.026.045.05.058a.318.318 0 0 0 .127.017v.045h-.587v-.045h.025c.06 0 .1-.015.12-.046.022-.033.033-.092.033-.177V1.14c0-.143-.003-.23-.008-.26-.006-.03-.016-.051-.03-.062a.09.09 0 0 0-.053-.017.302.302 0 0 0-.087.017l-.02-.046.36-.145h.053ZM45.174 1.112c-.003.177.04.316.128.418.088.099.19.148.306.148a.33.33 0 0 0 .203-.062.5.5 0 0 0 .148-.223l.038.03a.615.615 0 0 1-.158.326.428.428 0 0 1-.33.144.48.48 0 0 1-.368-.165c-.103-.113-.153-.265-.153-.455 0-.203.051-.361.157-.475a.507.507 0 0 1 .393-.174c.134 0 .245.045.33.133a.493.493 0 0 1 .129.355Zm0-.074h.554a.624.624 0 0 0-.03-.166.273.273 0 0 0-.23-.153.275.275 0 0 0-.195.083.354.354 0 0 0-.1.236zM46.09.661h.559v.05c-.033 0-.058.007-.074.02a.054.054 0 0 0-.021.046c0 .02.014.052.045.095l.046.066.083.137.099-.137c.06-.084.09-.138.09-.16a.057.057 0 0 0-.02-.046c-.014-.014-.037-.02-.07-.02v-.05h.405v.05a.24.24 0 0 0-.112.032.932.932 0 0 0-.177.194l-.162.22.298.425a.874.874 0 0 0 .153.19.232.232 0 0 0 .124.038v.045h-.562v-.045c.038 0 .068-.01.09-.03a.05.05 0 0 0 .025-.045c0-.021-.027-.072-.082-.153l-.178-.256-.19.256a.553.553 0 0 0-.087.14c0 .024.01.042.029.059a.14.14 0 0 0 .087.029v.045h-.389v-.045a.214.214 0 0 0 .083-.033 1.1 1.1 0 0 0 .165-.195l.252-.33-.227-.331a.731.731 0 0 0-.153-.174.21.21 0 0 0-.128-.037Zm0 0"/>
  <path d="M47.833.269V.66h.281v.091h-.28v.778c0 .077.01.13.032.157a.11.11 0 0 0 .087.037.162.162 0 0 0 .083-.025.182.182 0 0 0 .062-.078h.05a.424.424 0 0 1-.129.194.281.281 0 0 1-.17.062.241.241 0 0 1-.12-.033.2.2 0 0 1-.086-.095.558.558 0 0 1-.025-.195V.752h-.19v-.04a.48.48 0 0 0 .149-.096.788.788 0 0 0 .132-.165c.019-.033.047-.093.083-.182Zm0 0"/>
  <path d="M49.215.868c.116-.159.241-.24.377-.24.12 0 .227.053.318.157a.62.62 0 0 1 .14.426c0 .213-.07.384-.21.513a.579.579 0 0 1-.62.132.866.866 0 0 1-.22-.116V.504c0-.134-.003-.217-.008-.248-.006-.033-.016-.054-.033-.066a.084.084 0 0 0-.05-.016.267.267 0 0 0-.09.02L48.798.15l.36-.149h.057zm0 .083v.715a.459.459 0 0 0 .137.1c.05.022.1.032.149.032.08 0 .153-.042.219-.128.068-.088.103-.216.103-.384a.54.54 0 0 0-.103-.352c-.066-.082-.144-.124-.232-.124a.271.271 0 0 0-.136.037.57.57 0 0 0-.137.104zM50.652 0v1.588c0 .074.004.124.012.148.01.023.027.04.05.054.025.015.067.02.128.02v.046h-.583v-.045a.238.238 0 0 0 .108-.017.13.13 0 0 0 .05-.058.45.45 0 0 0 .016-.148V.5c0-.134-.003-.217-.009-.248-.006-.03-.015-.05-.029-.062a.09.09 0 0 0-.053-.016.229.229 0 0 0-.083.02L50.234.15 50.59 0zM51.539.628c.179 0 .323.069.434.203.093.119.14.254.14.405a.764.764 0 0 1-.078.327.596.596 0 0 1-.215.248.556.556 0 0 1-.298.082.509.509 0 0 1-.43-.215.673.673 0 0 1-.132-.409c0-.107.026-.215.079-.322a.54.54 0 0 1 .215-.24.57.57 0 0 1 .285-.079zm-.041.083a.279.279 0 0 0-.141.041.3.3 0 0 0-.116.145.714.714 0 0 0-.041.265c0 .173.034.324.103.45.072.124.164.186.277.186.083 0 .151-.034.207-.103.055-.068.083-.188.083-.36 0-.212-.046-.378-.137-.5a.289.289 0 0 0-.235-.124zM53.318 1.401a.662.662 0 0 1-.19.364.454.454 0 0 1-.314.128.462.462 0 0 1-.356-.17.687.687 0 0 1-.148-.462c0-.187.054-.34.165-.455a.542.542 0 0 1 .405-.178c.118 0 .215.032.29.095.074.061.111.124.111.19a.113.113 0 0 1-.033.083c-.02.02-.048.03-.087.03-.052 0-.09-.017-.115-.05a.217.217 0 0 1-.03-.104.188.188 0 0 0-.053-.12.193.193 0 0 0-.124-.037.259.259 0 0 0-.211.095.507.507 0 0 0-.108.34c0 .14.035.266.104.375.071.111.166.166.285.166.085 0 .162-.03.232-.091a.565.565 0 0 0 .136-.215ZM53.849 0v1.19l.302-.276a.835.835 0 0 0 .111-.112.053.053 0 0 0 .013-.033c0-.017-.009-.03-.025-.041-.015-.014-.037-.022-.07-.025V.66h.52v.042a.545.545 0 0 0-.177.033.584.584 0 0 0-.157.107l-.306.281.306.39c.084.107.142.175.173.202a.309.309 0 0 0 .108.078c.021.012.06.017.115.017v.045h-.583v-.045a.133.133 0 0 0 .067-.017.041.041 0 0 0 .02-.037c0-.022-.018-.055-.053-.1l-.364-.466v.397a.44.44 0 0 0 .016.152c.01.025.026.044.046.054a.425.425 0 0 0 .128.017v.045h-.608v-.045c.06 0 .106-.009.137-.025a.097.097 0 0 0 .045-.041c.01-.03.017-.08.017-.15V.51c0-.141-.003-.226-.009-.257-.006-.03-.015-.05-.029-.062a.076.076 0 0 0-.053-.02.214.214 0 0 0-.083.024L53.431.15 53.787 0zM1.559 3.774l-.426 1.471a.64.64 0 0 0-.03.133c0 .018.005.035.013.05a.11.11 0 0 0 .046.032.362.362 0 0 0 .103.013l-.012.05H.628l.013-.05a.818.818 0 0 0 .161-.02.175.175 0 0 0 .079-.067.646.646 0 0 0 .074-.182l.178-.645a1.34 1.34 0 0 1-.319.356.376.376 0 0 1-.198.07.215.215 0 0 1-.198-.108.421.421 0 0 1-.067-.227c0-.132.04-.27.12-.413.083-.146.19-.265.323-.356a.498.498 0 0 1 .277-.107c.063 0 .113.015.153.045a.245.245 0 0 1 .09.14l.042-.144zm-.298.252c0-.055-.017-.1-.05-.137a.164.164 0 0 0-.124-.053c-.107 0-.22.09-.339.272a.971.971 0 0 0-.173.517c0 .066.013.116.041.15a.14.14 0 0 0 .107.049c.055 0 .116-.03.182-.087a1.08 1.08 0 0 0 .253-.343.868.868 0 0 0 .103-.368ZM2.355 3.798h1.406v.108H2.355Zm0 .426h1.406v.108H2.355ZM4.471 3.877l.368-.149h.05v.277a.698.698 0 0 1 .186-.219.356.356 0 0 1 .198-.062.38.38 0 0 1 .298.14c.1.114.149.263.149.447a.75.75 0 0 1-.178.513.467.467 0 0 1-.368.165.387.387 0 0 1-.285-.107v.363a.44.44 0 0 0 .016.157c.01.022.03.039.054.05a.3.3 0 0 0 .133.02v.05h-.625v-.05H4.5a.221.221 0 0 0 .12-.024.102.102 0 0 0 .037-.05.463.463 0 0 0 .017-.16v-1.13a.495.495 0 0 0-.012-.144.085.085 0 0 0-.034-.05.105.105 0 0 0-.062-.016.226.226 0 0 0-.078.02zm.418.207v.446c0 .097.004.16.012.19.014.05.044.094.091.133.047.039.106.058.178.058a.251.251 0 0 0 .21-.104c.072-.088.108-.212.108-.372 0-.182-.04-.322-.12-.422a.25.25 0 0 0-.198-.103.266.266 0 0 0-.124.033.73.73 0 0 0-.157.14zM6.26 3.724v.269c.098-.18.2-.269.305-.269.05 0 .089.016.12.045a.132.132 0 0 1 .012.187.11.11 0 0 1-.082.033c-.031 0-.065-.015-.104-.046-.036-.03-.064-.045-.082-.045-.015 0-.031.008-.05.024a.623.623 0 0 0-.12.178v.57c0 .067.008.119.025.154.01.022.03.041.058.058.03.016.071.024.124.024v.046h-.612v-.046c.06 0 .105-.009.136-.029a.106.106 0 0 0 .046-.066.585.585 0 0 0 .008-.128V4.22c0-.137-.003-.22-.008-.248-.006-.027-.017-.046-.033-.058a.096.096 0 0 0-.058-.016.34.34 0 0 0-.091.016l-.012-.045.36-.145ZM7.369 3.724c.178 0 .323.068.434.203.093.118.14.254.14.405a.764.764 0 0 1-.078.326.596.596 0 0 1-.215.248.556.556 0 0 1-.298.083.509.509 0 0 1-.43-.215.673.673 0 0 1-.132-.41c0-.107.026-.214.078-.322a.54.54 0 0 1 .215-.24.57.57 0 0 1 .286-.078zm-.042.083a.279.279 0 0 0-.14.041.3.3 0 0 0-.116.145.714.714 0 0 0-.041.264c0 .174.034.325.103.45.071.125.163.187.277.187.083 0 .15-.034.207-.103.054-.069.082-.188.082-.36 0-.212-.045-.378-.136-.5a.289.289 0 0 0-.236-.124zM8.458 3.964c.115-.16.24-.24.376-.24.12 0 .227.053.318.157a.62.62 0 0 1 .14.426c0 .213-.07.383-.21.513a.579.579 0 0 1-.62.132.866.866 0 0 1-.22-.116V3.6c0-.134-.002-.217-.008-.248-.006-.033-.016-.055-.033-.066a.084.084 0 0 0-.05-.017.267.267 0 0 0-.09.02l-.02-.045.359-.148h.058zm0 .082v.716a.459.459 0 0 0 .136.099c.05.023.1.033.149.033.08 0 .153-.042.219-.128.068-.088.103-.216.103-.385a.54.54 0 0 0-.103-.351c-.066-.083-.144-.124-.231-.124a.271.271 0 0 0-.137.037.57.57 0 0 0-.136.103zM10.132 4.778a1.79 1.79 0 0 1-.232.166.355.355 0 0 1-.148.033.277.277 0 0 1-.207-.083.318.318 0 0 1-.079-.223c0-.06.013-.112.037-.153a.523.523 0 0 1 .186-.166 2.87 2.87 0 0 1 .443-.19v-.05c0-.117-.02-.199-.058-.243a.212.212 0 0 0-.165-.066.173.173 0 0 0-.129.045.126.126 0 0 0-.05.1v.074c0 .041-.01.073-.028.095a.097.097 0 0 1-.079.033.11.11 0 0 1-.082-.033.147.147 0 0 1-.03-.095c0-.075.039-.142.116-.203a.494.494 0 0 1 .323-.095c.104 0 .191.017.26.05.05.028.087.07.112.128.017.04.025.116.025.231v.405c0 .114 0 .184.004.211.005.025.012.042.02.05.011.008.023.012.038.012a.076.076 0 0 0 .037-.008.598.598 0 0 0 .103-.095v.07c-.097.133-.189.199-.277.199a.134.134 0 0 1-.103-.046c-.025-.03-.037-.08-.037-.153Zm0-.082V4.24c-.132.052-.218.09-.256.111a.404.404 0 0 0-.15.12.238.238 0 0 0-.04.137c0 .06.017.111.053.153a.176.176 0 0 0 .132.062c.067 0 .153-.043.26-.128zM10.972 3.964c.116-.16.241-.24.376-.24.121 0 .228.053.319.157a.62.62 0 0 1 .14.426c0 .213-.07.383-.21.513a.579.579 0 0 1-.62.132.866.866 0 0 1-.22-.116V3.6c0-.134-.003-.217-.008-.248-.006-.033-.016-.055-.033-.066a.084.084 0 0 0-.05-.017.267.267 0 0 0-.09.02l-.021-.045.36-.148h.057zm0 .082v.716a.459.459 0 0 0 .137.099c.05.023.099.033.149.033.08 0 .152-.042.219-.128.068-.088.103-.216.103-.385a.54.54 0 0 0-.103-.351c-.067-.083-.144-.124-.232-.124a.271.271 0 0 0-.136.037.57.57 0 0 0-.137.103zm0 0"/>
  <path d="M12.301 3.096c.035 0 .066.014.091.041a.121.121 0 0 1 .041.09c0 .04-.014.071-.04.096a.125.125 0 0 1-.092.037.128.128 0 0 1-.132-.132c0-.035.012-.066.037-.091a.123.123 0 0 1 .095-.041zm.108.628v.96c0 .074.005.123.016.148.01.025.026.044.046.058a.291.291 0 0 0 .12.016v.046h-.583v-.046a.262.262 0 0 0 .115-.016.13.13 0 0 0 .05-.058.357.357 0 0 0 .02-.149V4.22c0-.13-.003-.213-.012-.252-.008-.027-.02-.046-.033-.054a.072.072 0 0 0-.05-.016.34.34 0 0 0-.09.016l-.017-.045.36-.145ZM13.149 3.096v1.587c0 .075.004.124.012.149.01.023.027.04.05.054.025.014.067.02.128.02v.046h-.583v-.046a.238.238 0 0 0 .108-.016.13.13 0 0 0 .05-.058.45.45 0 0 0 .016-.149V3.596c0-.134-.003-.217-.009-.248-.006-.03-.015-.05-.028-.062a.09.09 0 0 0-.054-.017.229.229 0 0 0-.083.02l-.025-.045.356-.148zM13.782 3.096c.035 0 .066.014.09.041a.121.121 0 0 1 .042.09c0 .04-.015.071-.041.096a.125.125 0 0 1-.091.037.128.128 0 0 1-.133-.132c0-.035.013-.066.037-.091a.123.123 0 0 1 .096-.041zm.107.628v.96c0 .074.005.123.017.148.01.025.025.044.045.058a.291.291 0 0 0 .12.016v.046h-.583v-.046a.262.262 0 0 0 .116-.016.13.13 0 0 0 .05-.058.357.357 0 0 0 .02-.149V4.22c0-.13-.004-.213-.012-.252-.009-.027-.02-.046-.033-.054a.072.072 0 0 0-.05-.016.34.34 0 0 0-.091.016l-.016-.045.36-.145ZM14.563 3.364v.393h.281v.091h-.28v.777c0 .078.01.13.032.157a.11.11 0 0 0 .087.038.162.162 0 0 0 .083-.025.182.182 0 0 0 .062-.079h.05a.424.424 0 0 1-.129.195.281.281 0 0 1-.17.062.241.241 0 0 1-.12-.034.2.2 0 0 1-.086-.095.558.558 0 0 1-.025-.194v-.802h-.19v-.041a.48.48 0 0 0 .149-.095.788.788 0 0 0 .132-.166c.019-.033.047-.093.083-.182ZM14.89 3.757h.554v.05h-.025c-.04 0-.07.008-.09.025a.077.077 0 0 0-.03.062c0 .033.015.08.046.14l.29.604.268-.662a.292.292 0 0 0 .02-.103.07.07 0 0 0-.008-.037c-.006-.009-.016-.015-.033-.021a.261.261 0 0 0-.078-.008v-.05h.388v.05a.193.193 0 0 0-.074.02.302.302 0 0 0-.058.058c-.006.012-.02.045-.041.1l-.488 1.194a.605.605 0 0 1-.186.26.36.36 0 0 1-.22.087.178.178 0 0 1-.123-.045.126.126 0 0 1-.05-.1c0-.035.01-.064.033-.086a.14.14 0 0 1 .1-.033c.03 0 .067.01.115.029.035.01.058.016.066.016.027 0 .056-.014.087-.041a.404.404 0 0 0 .09-.153l.088-.207-.43-.9a1.498 1.498 0 0 0-.062-.104.251.251 0 0 0-.054-.058.322.322 0 0 0-.095-.037Zm0 0"/>
  <path d="M17.316 3.364v.393h.28v.091h-.28v.777c0 .078.01.13.033.157a.11.11 0 0 0 .086.038.162.162 0 0 0 .083-.025.182.182 0 0 0 .062-.079h.05a.424.424 0 0 1-.128.195.281.281 0 0 1-.17.062.241.241 0 0 1-.12-.034.2.2 0 0 1-.087-.095.558.558 0 0 1-.024-.194v-.802h-.19v-.041a.48.48 0 0 0 .148-.095.788.788 0 0 0 .133-.166c.018-.033.046-.093.082-.182ZM18.033 3.096v.876a.915.915 0 0 1 .228-.203.375.375 0 0 1 .173-.045c.066 0 .122.02.17.058.05.036.087.094.111.174.017.055.025.157.025.305v.422a.46.46 0 0 0 .017.153c.01.023.026.04.045.054.022.011.06.016.116.016v.046h-.587v-.046h.029c.055 0 .093-.008.116-.024a.149.149 0 0 0 .045-.079c.002-.013.004-.054.004-.12v-.422a.985.985 0 0 0-.02-.256.17.17 0 0 0-.067-.09.182.182 0 0 0-.107-.034.316.316 0 0 0-.132.033.6.6 0 0 0-.166.137v.632c0 .08.004.131.013.153.01.02.029.036.053.05.025.014.068.02.129.02v.046h-.592v-.046a.264.264 0 0 0 .124-.024.118.118 0 0 0 .042-.05.45.45 0 0 0 .016-.149V3.6c0-.134-.004-.217-.012-.248-.006-.033-.016-.055-.03-.066a.09.09 0 0 0-.053-.017.295.295 0 0 0-.087.02l-.02-.045.36-.148zM19.234 4.208c-.003.176.04.316.128.417.088.1.19.15.306.15a.33.33 0 0 0 .203-.063.5.5 0 0 0 .148-.223l.038.029a.615.615 0 0 1-.157.326.428.428 0 0 1-.331.145.48.48 0 0 1-.368-.165c-.102-.113-.153-.265-.153-.455 0-.204.052-.362.157-.475a.507.507 0 0 1 .393-.174c.134 0 .245.044.33.132a.493.493 0 0 1 .129.356Zm0-.075h.554a.624.624 0 0 0-.03-.165.273.273 0 0 0-.23-.153.275.275 0 0 0-.195.083.354.354 0 0 0-.1.235zM21.588 4.778a1.79 1.79 0 0 1-.232.166.355.355 0 0 1-.148.033.277.277 0 0 1-.207-.083.318.318 0 0 1-.079-.223c0-.06.013-.112.038-.153a.523.523 0 0 1 .186-.166 2.87 2.87 0 0 1 .442-.19v-.05c0-.117-.02-.199-.058-.243a.212.212 0 0 0-.165-.066.173.173 0 0 0-.128.045.126.126 0 0 0-.05.1v.074c0 .041-.01.073-.029.095a.097.097 0 0 1-.079.033.11.11 0 0 1-.082-.033.147.147 0 0 1-.03-.095c0-.075.04-.142.117-.203a.494.494 0 0 1 .322-.095c.104 0 .191.017.26.05.05.028.087.07.112.128.017.04.025.116.025.231v.405c0 .114.001.184.004.211.005.025.012.042.02.05.011.008.023.012.038.012a.076.076 0 0 0 .037-.008.598.598 0 0 0 .103-.095v.07c-.097.133-.189.199-.276.199a.134.134 0 0 1-.104-.046c-.025-.03-.037-.08-.037-.153Zm0-.082V4.24c-.132.052-.218.09-.256.111a.404.404 0 0 0-.15.12.238.238 0 0 0-.04.137c0 .06.017.111.053.153a.176.176 0 0 0 .133.062c.066 0 .152-.043.26-.128zm0 0"/>
  <path d="M22.422 3.364v.393h.281v.091h-.28v.777c0 .078.01.13.032.157a.11.11 0 0 0 .087.038.162.162 0 0 0 .083-.025.182.182 0 0 0 .062-.079h.05a.424.424 0 0 1-.129.195.281.281 0 0 1-.17.062.241.241 0 0 1-.119-.034.2.2 0 0 1-.087-.095.558.558 0 0 1-.025-.194v-.802h-.19v-.041a.48.48 0 0 0 .149-.095.788.788 0 0 0 .132-.166c.019-.033.047-.093.083-.182ZM23.163 3.364v.393h.28v.091h-.28v.777c0 .078.01.13.033.157a.11.11 0 0 0 .086.038.162.162 0 0 0 .083-.025.182.182 0 0 0 .062-.079h.05a.424.424 0 0 1-.128.195.281.281 0 0 1-.17.062.241.241 0 0 1-.12-.034.2.2 0 0 1-.087-.095.558.558 0 0 1-.024-.194v-.802h-.19v-.041a.48.48 0 0 0 .148-.095.788.788 0 0 0 .133-.166c.018-.033.046-.093.082-.182ZM24.234 4.778a1.79 1.79 0 0 1-.232.166.355.355 0 0 1-.149.033.277.277 0 0 1-.207-.083.318.318 0 0 1-.078-.223c0-.06.012-.112.037-.153a.523.523 0 0 1 .186-.166 2.87 2.87 0 0 1 .443-.19v-.05c0-.117-.02-.199-.058-.243a.212.212 0 0 0-.166-.066.173.173 0 0 0-.128.045.126.126 0 0 0-.05.1v.074c0 .041-.01.073-.028.095a.097.097 0 0 1-.079.033.11.11 0 0 1-.083-.033.147.147 0 0 1-.029-.095c0-.075.039-.142.116-.203a.494.494 0 0 1 .323-.095c.104 0 .19.017.26.05.05.028.087.07.112.128.016.04.024.116.024.231v.405c0 .114.002.184.005.211.005.025.012.042.02.05.01.008.023.012.038.012a.076.076 0 0 0 .037-.008.598.598 0 0 0 .103-.095v.07c-.097.133-.19.199-.277.199a.134.134 0 0 1-.103-.046c-.025-.03-.037-.08-.037-.153Zm0-.082V4.24c-.133.052-.219.09-.257.111a.404.404 0 0 0-.149.12.238.238 0 0 0-.041.137c0 .06.018.111.054.153a.176.176 0 0 0 .132.062c.066 0 .153-.043.26-.128zm0 0"/>
  <path d="M25.764 4.497a.662.662 0 0 1-.19.364.454.454 0 0 1-.314.128.462.462 0 0 1-.356-.17.687.687 0 0 1-.148-.462c0-.188.054-.34.165-.455a.542.542 0 0 1 .405-.178c.118 0 .215.032.29.095.074.061.111.124.111.19a.113.113 0 0 1-.033.083c-.02.02-.048.029-.087.029-.052 0-.09-.017-.115-.05a.217.217 0 0 1-.03-.103.188.188 0 0 0-.053-.12.193.193 0 0 0-.124-.037.259.259 0 0 0-.211.095.507.507 0 0 0-.108.339c0 .14.035.267.104.376.071.11.166.165.285.165.085 0 .162-.03.232-.09a.565.565 0 0 0 .136-.215ZM26.295 3.096v1.19l.302-.277a.835.835 0 0 0 .111-.111.053.053 0 0 0 .013-.033c0-.017-.009-.03-.025-.042-.015-.013-.037-.021-.07-.025v-.04h.52v.04a.545.545 0 0 0-.177.034.584.584 0 0 0-.157.107l-.306.281.306.389c.084.107.142.175.173.202a.309.309 0 0 0 .108.079c.021.011.06.016.115.016v.046h-.583v-.046a.133.133 0 0 0 .067-.016.041.041 0 0 0 .02-.037c0-.022-.018-.055-.053-.1l-.364-.467v.397a.44.44 0 0 0 .016.153c.01.025.026.044.046.054a.425.425 0 0 0 .128.016v.046h-.608v-.046c.06 0 .106-.008.137-.024a.097.097 0 0 0 .045-.042c.01-.03.017-.08.017-.149V3.604c0-.14-.003-.225-.009-.256-.006-.03-.015-.05-.029-.062a.076.076 0 0 0-.053-.02.214.214 0 0 0-.083.024l-.025-.046.356-.148zM27.491 4.208c-.003.176.04.316.128.417.088.1.19.15.306.15a.33.33 0 0 0 .203-.063.5.5 0 0 0 .149-.223l.037.029a.615.615 0 0 1-.157.326.428.428 0 0 1-.33.145.48.48 0 0 1-.369-.165c-.102-.113-.153-.265-.153-.455 0-.204.052-.362.157-.475a.507.507 0 0 1 .393-.174c.134 0 .245.044.33.132a.493.493 0 0 1 .129.356Zm0-.075h.554a.624.624 0 0 0-.029-.165.273.273 0 0 0-.231-.153.275.275 0 0 0-.194.083.354.354 0 0 0-.1.235zM28.805 3.724v.269c.1-.18.2-.269.306-.269.05 0 .089.016.12.045a.132.132 0 0 1 .012.187.11.11 0 0 1-.082.033c-.031 0-.065-.015-.104-.046-.036-.03-.064-.045-.082-.045-.015 0-.031.008-.05.024a.623.623 0 0 0-.12.178v.57c0 .067.009.119.025.154.01.022.03.041.058.058.03.016.071.024.124.024v.046H28.4v-.046c.06 0 .106-.009.137-.029a.106.106 0 0 0 .045-.066.585.585 0 0 0 .008-.128V4.22c0-.137-.003-.22-.008-.248-.006-.027-.017-.046-.033-.058a.096.096 0 0 0-.058-.016.34.34 0 0 0-.09.016l-.013-.045.36-.145ZM30.484 3.852v.786c0 .11.013.18.037.21.034.04.076.058.129.058h.107v.046h-.71v-.046h.053a.174.174 0 0 0 .09-.024.15.15 0 0 0 .063-.07.618.618 0 0 0 .016-.174v-.786h-.231v-.095h.231V3.68c0-.118.019-.22.058-.302a.484.484 0 0 1 .442-.277c.091 0 .174.03.249.09.051.04.078.082.078.129a.11.11 0 0 1-.037.078c-.023.023-.046.033-.07.033a.11.11 0 0 1-.062-.02.41.41 0 0 1-.083-.095.35.35 0 0 0-.091-.095.153.153 0 0 0-.087-.025.16.16 0 0 0-.103.033.176.176 0 0 0-.062.1 1.98 1.98 0 0 0-.017.342v.087h.31v.095zm0 0"/>
  <path d="M31.224 3.096c.035 0 .066.014.09.041a.121.121 0 0 1 .042.09c0 .04-.015.071-.041.096a.125.125 0 0 1-.091.037.128.128 0 0 1-.133-.132c0-.035.013-.066.038-.091a.123.123 0 0 1 .095-.041zm.107.628v.96c0 .074.005.123.017.148.01.025.025.044.045.058a.291.291 0 0 0 .12.016v.046h-.583v-.046a.262.262 0 0 0 .116-.016.13.13 0 0 0 .05-.058.357.357 0 0 0 .02-.149V4.22c0-.13-.004-.213-.012-.252-.009-.027-.02-.046-.033-.054a.072.072 0 0 0-.05-.016.34.34 0 0 0-.09.016l-.017-.045.36-.145ZM32.005 3.976c.14-.167.274-.252.401-.252.066 0 .122.017.17.05a.312.312 0 0 1 .111.157.761.761 0 0 1 .03.24v.512a.46.46 0 0 0 .016.153c.01.023.026.04.045.054a.291.291 0 0 0 .12.016v.046h-.591v-.046h.025c.055 0 .093-.008.116-.024a.137.137 0 0 0 .05-.079c.001-.01.003-.05.003-.12v-.492a.471.471 0 0 0-.045-.235c-.028-.05-.075-.075-.14-.075-.103 0-.206.057-.31.17v.632c0 .08.004.13.016.149.01.025.027.044.05.058a.318.318 0 0 0 .127.016v.046h-.587v-.046h.025c.06 0 .1-.014.12-.045.022-.033.033-.092.033-.178v-.446c0-.143-.003-.23-.008-.26-.006-.03-.016-.051-.029-.063a.09.09 0 0 0-.054-.016.302.302 0 0 0-.087.016l-.02-.045.36-.145h.053Zm0 0"/>
  <path d="M33.824 4.82a.618.618 0 0 1-.17.132.454.454 0 0 1-.525-.124.611.611 0 0 1-.144-.422c0-.173.054-.33.161-.471a.507.507 0 0 1 .418-.215c.104 0 .19.035.26.103V3.6c0-.134-.003-.217-.008-.248-.006-.033-.017-.055-.033-.066a.084.084 0 0 0-.05-.017.296.296 0 0 0-.09.02l-.017-.045.355-.148h.058v1.38c0 .141.002.228.008.26a.136.136 0 0 0 .033.067c.014.011.03.017.05.017a.258.258 0 0 0 .095-.025l.017.045-.356.15h-.062Zm0-.096v-.611a.41.41 0 0 0-.05-.162.258.258 0 0 0-.103-.111.24.24 0 0 0-.124-.037c-.074 0-.143.035-.202.103-.081.09-.12.223-.12.397 0 .173.038.308.115.4.077.095.163.141.257.141.076 0 .153-.039.227-.12zM35.103 3.724v.405h-.041a.543.543 0 0 0-.128-.26.29.29 0 0 0-.199-.07.22.22 0 0 0-.148.049c-.037.033-.054.07-.054.108 0 .047.013.088.041.124a.441.441 0 0 0 .165.111l.19.095c.176.086.265.199.265.34 0 .11-.041.198-.124.264a.434.434 0 0 1-.277.1.912.912 0 0 1-.248-.042.295.295 0 0 0-.07-.013c-.023 0-.04.012-.05.033h-.041v-.425h.041a.495.495 0 0 0 .14.277.338.338 0 0 0 .232.09c.06 0 .109-.016.145-.05A.17.17 0 0 0 35 4.734a.205.205 0 0 0-.066-.153 1.026 1.026 0 0 0-.252-.153.753.753 0 0 1-.244-.17.296.296 0 0 1-.058-.19c0-.1.033-.18.099-.244a.352.352 0 0 1 .26-.099c.047 0 .105.01.174.029.044.014.072.02.087.02.013 0 .025-.001.033-.008a.208.208 0 0 0 .029-.041ZM36.398 3.364v.393h.282v.091h-.282v.777c0 .078.01.13.034.157a.11.11 0 0 0 .086.038.162.162 0 0 0 .083-.025.182.182 0 0 0 .062-.079h.05a.424.424 0 0 1-.129.195.281.281 0 0 1-.169.062.241.241 0 0 1-.12-.034.2.2 0 0 1-.087-.095.558.558 0 0 1-.025-.194v-.802h-.19v-.041a.48.48 0 0 0 .15-.095.788.788 0 0 0 .131-.166c.019-.033.047-.093.083-.182ZM37.116 3.096v.876a.915.915 0 0 1 .227-.203.375.375 0 0 1 .174-.045c.066 0 .122.02.17.058.05.036.086.094.111.174.017.055.025.157.025.305v.422a.46.46 0 0 0 .017.153c.01.023.025.04.045.054.022.011.06.016.116.016v.046h-.587v-.046h.029c.054 0 .093-.008.115-.024a.149.149 0 0 0 .046-.079c.002-.013.004-.054.004-.12v-.422a.985.985 0 0 0-.02-.256.17.17 0 0 0-.067-.09.182.182 0 0 0-.107-.034.316.316 0 0 0-.133.033.6.6 0 0 0-.165.137v.632c0 .08.004.131.012.153.01.02.03.036.054.05.025.014.067.02.128.02v.046h-.59v-.046a.264.264 0 0 0 .123-.024.118.118 0 0 0 .042-.05.45.45 0 0 0 .016-.149V3.6c0-.134-.004-.217-.012-.248-.007-.033-.016-.055-.03-.066a.09.09 0 0 0-.053-.017.295.295 0 0 0-.087.02l-.02-.045.36-.148zM38.317 4.208c-.003.176.039.316.128.417.088.1.19.15.306.15a.33.33 0 0 0 .202-.063.5.5 0 0 0 .15-.223l.036.029a.615.615 0 0 1-.157.326.428.428 0 0 1-.33.145.48.48 0 0 1-.368-.165c-.103-.113-.153-.265-.153-.455 0-.204.051-.362.157-.475a.507.507 0 0 1 .393-.174c.134 0 .244.044.33.132a.493.493 0 0 1 .128.356Zm0-.075h.554a.624.624 0 0 0-.03-.165.273.273 0 0 0-.23-.153.275.275 0 0 0-.195.083.354.354 0 0 0-.1.235zM40.316 3.976c.14-.167.274-.252.401-.252.066 0 .122.017.17.05a.312.312 0 0 1 .111.157.761.761 0 0 1 .03.24v.512a.46.46 0 0 0 .016.153c.01.023.025.04.045.054a.291.291 0 0 0 .12.016v.046h-.591v-.046h.025c.054 0 .093-.008.115-.024a.137.137 0 0 0 .05-.079c.002-.01.004-.05.004-.12v-.492a.471.471 0 0 0-.045-.235c-.028-.05-.075-.075-.14-.075-.103 0-.207.057-.311.17v.632c0 .08.005.13.017.149.01.025.026.044.05.058a.318.318 0 0 0 .127.016v.046h-.587v-.046h.025c.06 0 .1-.014.12-.045.022-.033.033-.092.033-.178v-.446c0-.143-.003-.23-.008-.26-.006-.03-.016-.051-.03-.063a.09.09 0 0 0-.053-.016.302.302 0 0 0-.087.016l-.02-.045.36-.145h.053ZM41.52 4.208c-.002.176.04.316.129.417.088.1.19.15.306.15a.33.33 0 0 0 .202-.063.5.5 0 0 0 .15-.223l.037.029a.615.615 0 0 1-.158.326.428.428 0 0 1-.33.145.48.48 0 0 1-.368-.165c-.103-.113-.153-.265-.153-.455 0-.204.051-.362.157-.475a.507.507 0 0 1 .393-.174c.134 0 .245.044.33.132a.493.493 0 0 1 .129.356Zm0-.075h.555a.624.624 0 0 0-.03-.165.273.273 0 0 0-.23-.153.275.275 0 0 0-.195.083.354.354 0 0 0-.1.235zM42.438 3.757h.558v.05c-.033 0-.058.007-.074.02a.054.054 0 0 0-.021.046c0 .02.014.052.045.095l.046.066.083.137.099-.137c.06-.085.09-.138.09-.161a.057.057 0 0 0-.02-.046c-.014-.013-.037-.02-.07-.02v-.05h.405v.05a.24.24 0 0 0-.112.033.932.932 0 0 0-.177.194l-.162.22.298.425a.874.874 0 0 0 .153.19.232.232 0 0 0 .124.037v.046h-.562v-.046c.038 0 .068-.009.09-.029a.05.05 0 0 0 .025-.045c0-.022-.027-.072-.082-.153l-.178-.256-.19.256a.553.553 0 0 0-.087.14c0 .023.01.042.029.058a.14.14 0 0 0 .087.03v.045h-.389v-.046a.214.214 0 0 0 .083-.033 1.1 1.1 0 0 0 .165-.194l.252-.33-.227-.331a.731.731 0 0 0-.153-.174.21.21 0 0 0-.128-.037Zm0 0"/>
  <path d="M44.18 3.364v.393h.281v.091h-.28v.777c0 .078.01.13.032.157a.11.11 0 0 0 .087.038.162.162 0 0 0 .083-.025.182.182 0 0 0 .062-.079h.05a.424.424 0 0 1-.129.195.281.281 0 0 1-.17.062.241.241 0 0 1-.12-.034.2.2 0 0 1-.086-.095.558.558 0 0 1-.025-.194v-.802h-.19v-.041a.48.48 0 0 0 .149-.095.788.788 0 0 0 .132-.166c.019-.033.047-.093.083-.182Zm0 0"/>
  <path d="M45.586 3.964c.116-.16.241-.24.377-.24.12 0 .227.053.318.157a.62.62 0 0 1 .14.426c0 .213-.07.383-.21.513a.579.579 0 0 1-.62.132.866.866 0 0 1-.22-.116V3.6c0-.134-.003-.217-.008-.248-.006-.033-.016-.055-.033-.066a.084.084 0 0 0-.05-.017.267.267 0 0 0-.09.02l-.021-.045.36-.148h.057zm0 .082v.716a.459.459 0 0 0 .137.099c.05.023.1.033.149.033.08 0 .153-.042.219-.128.068-.088.103-.216.103-.385a.54.54 0 0 0-.103-.351c-.066-.083-.144-.124-.232-.124a.271.271 0 0 0-.136.037.57.57 0 0 0-.137.103zm0 0"/>
  <path d="M46.996 3.096v1.587c0 .075.004.124.012.149.01.023.027.04.05.054.025.014.067.02.128.02v.046h-.583v-.046a.238.238 0 0 0 .108-.016.13.13 0 0 0 .05-.058.45.45 0 0 0 .016-.149V3.596c0-.134-.003-.217-.008-.248-.006-.03-.016-.05-.03-.062a.09.09 0 0 0-.053-.017.229.229 0 0 0-.083.02l-.024-.045.355-.148zM47.91 3.724c.179 0 .323.068.434.203.093.118.14.254.14.405a.764.764 0 0 1-.078.326.596.596 0 0 1-.215.248.556.556 0 0 1-.298.083.509.509 0 0 1-.43-.215.673.673 0 0 1-.132-.41c0-.107.026-.214.079-.322a.54.54 0 0 1 .215-.24.57.57 0 0 1 .285-.078zm-.041.083a.279.279 0 0 0-.141.041.3.3 0 0 0-.116.145.714.714 0 0 0-.041.264c0 .174.034.325.103.45.072.125.164.187.277.187.083 0 .151-.034.207-.103.055-.069.083-.188.083-.36 0-.212-.046-.378-.137-.5a.289.289 0 0 0-.235-.124zm0 0"/>
  <path d="M49.69 4.497a.662.662 0 0 1-.19.364.454.454 0 0 1-.315.128.462.462 0 0 1-.356-.17.687.687 0 0 1-.148-.462c0-.188.054-.34.165-.455a.542.542 0 0 1 .405-.178c.118 0 .215.032.29.095.074.061.111.124.111.19a.113.113 0 0 1-.033.083c-.02.02-.048.029-.087.029-.052 0-.09-.017-.115-.05a.217.217 0 0 1-.03-.103.188.188 0 0 0-.053-.12.193.193 0 0 0-.124-.037.259.259 0 0 0-.211.095.507.507 0 0 0-.107.339c0 .14.034.267.103.376.071.11.166.165.285.165.085 0 .162-.03.232-.09a.565.565 0 0 0 .136-.215ZM50.193 3.096v1.19l.302-.277a.835.835 0 0 0 .111-.111.053.053 0 0 0 .013-.033c0-.017-.008-.03-.025-.042-.014-.013-.037-.021-.07-.025v-.04h.52v.04a.545.545 0 0 0-.177.034.584.584 0 0 0-.157.107l-.306.281.306.389c.085.107.142.175.173.202a.309.309 0 0 0 .108.079c.022.011.06.016.116.016v.046h-.583v-.046a.133.133 0 0 0 .066-.016.041.041 0 0 0 .02-.037c0-.022-.018-.055-.053-.1l-.364-.467v.397a.44.44 0 0 0 .017.153c.01.025.025.044.045.054a.425.425 0 0 0 .128.016v.046h-.607v-.046c.06 0 .105-.008.136-.024a.097.097 0 0 0 .045-.042c.01-.03.017-.08.017-.149V3.604c0-.14-.003-.225-.008-.256-.007-.03-.016-.05-.03-.062a.076.076 0 0 0-.053-.02.214.214 0 0 0-.083.024l-.024-.046.355-.148zM1.559 6.843l-.426 1.472a.64.64 0 0 0-.03.132c0 .018.005.035.013.05a.11.11 0 0 0 .046.033.362.362 0 0 0 .103.012l-.012.05H.628l.013-.05a.818.818 0 0 0 .161-.02.175.175 0 0 0 .079-.067.646.646 0 0 0 .074-.182l.178-.645a1.34 1.34 0 0 1-.319.356.376.376 0 0 1-.198.07.215.215 0 0 1-.198-.107.421.421 0 0 1-.067-.228c0-.132.04-.27.12-.413.083-.146.19-.265.323-.356a.498.498 0 0 1 .277-.107c.063 0 .113.015.153.045a.245.245 0 0 1 .09.14l.042-.144zm-.298.252c0-.055-.017-.1-.05-.136a.164.164 0 0 0-.124-.054c-.107 0-.22.09-.339.273a.971.971 0 0 0-.173.516c0 .067.013.116.041.15a.14.14 0 0 0 .107.049c.055 0 .116-.03.182-.087a1.08 1.08 0 0 0 .253-.343.868.868 0 0 0 .103-.368ZM1.775 7.612h.484v.02l-.53.55h.228a.653.653 0 0 0 .1-.004.087.087 0 0 0 .037-.029.24.24 0 0 0 .04-.07h.03l-.066.207h-.496v-.021l.525-.55h-.22a.55.55 0 0 0-.082.004.084.084 0 0 0-.042.025.208.208 0 0 0-.045.062h-.029ZM2.964 6.868h1.405v.107H2.964Zm0 .425h1.405v.108H2.964ZM5.08 6.946l.368-.149h.05v.277a.698.698 0 0 1 .186-.219.356.356 0 0 1 .198-.062.38.38 0 0 1 .298.14c.099.114.148.263.148.447a.75.75 0 0 1-.177.513.467.467 0 0 1-.368.165.387.387 0 0 1-.285-.107v.364a.44.44 0 0 0 .016.157c.01.021.029.038.054.05a.3.3 0 0 0 .132.02v.05h-.624v-.05h.033a.221.221 0 0 0 .12-.025.102.102 0 0 0 .037-.05.463.463 0 0 0 .017-.16v-1.13a.495.495 0 0 0-.013-.144.085.085 0 0 0-.033-.05.105.105 0 0 0-.062-.016.226.226 0 0 0-.079.02zm.417.207v.446c0 .097.005.16.013.19.013.05.043.095.09.133.047.04.106.058.179.058a.251.251 0 0 0 .21-.104c.072-.088.108-.212.108-.372 0-.182-.04-.322-.12-.421a.25.25 0 0 0-.198-.104.266.266 0 0 0-.124.033.73.73 0 0 0-.158.14zM6.868 6.793v.269c.099-.179.2-.269.306-.269.05 0 .088.016.12.046a.132.132 0 0 1 .012.186.11.11 0 0 1-.083.033c-.03 0-.065-.015-.103-.046-.036-.03-.064-.045-.083-.045-.014 0-.03.008-.05.025a.623.623 0 0 0-.12.177v.57c0 .067.009.119.025.154.01.023.03.041.058.058.03.016.072.025.124.025v.045h-.611v-.045c.06 0 .105-.01.136-.03a.106.106 0 0 0 .045-.066.585.585 0 0 0 .009-.128V7.29c0-.137-.003-.22-.009-.248-.006-.027-.016-.046-.033-.058a.096.096 0 0 0-.058-.016.34.34 0 0 0-.09.016l-.013-.045.36-.145ZM7.977 6.793c.179 0 .324.068.434.203.093.119.14.254.14.405a.764.764 0 0 1-.078.326.596.596 0 0 1-.215.249.556.556 0 0 1-.297.082.509.509 0 0 1-.43-.215.673.673 0 0 1-.133-.409c0-.108.026-.215.079-.322a.54.54 0 0 1 .215-.24.57.57 0 0 1 .285-.079zm-.041.083a.279.279 0 0 0-.14.041.3.3 0 0 0-.117.145.714.714 0 0 0-.04.264c0 .174.033.325.102.451.072.124.164.186.277.186.083 0 .151-.034.207-.103.055-.068.083-.188.083-.36 0-.212-.046-.378-.137-.5a.289.289 0 0 0-.235-.124zM9.066 7.033c.116-.16.241-.24.376-.24.121 0 .228.053.319.157a.62.62 0 0 1 .14.426c0 .213-.07.384-.21.513a.579.579 0 0 1-.62.132.866.866 0 0 1-.22-.116V6.67c0-.134-.003-.217-.008-.248-.006-.033-.017-.055-.033-.066a.084.084 0 0 0-.05-.017.267.267 0 0 0-.09.021l-.021-.045.36-.15h.057zm0 .083v.715a.459.459 0 0 0 .137.1c.05.022.099.032.148.032.08 0 .153-.042.22-.128.068-.088.103-.216.103-.384a.54.54 0 0 0-.103-.352c-.067-.083-.144-.124-.232-.124a.271.271 0 0 0-.136.037.57.57 0 0 0-.137.104zM10.74 7.847a1.79 1.79 0 0 1-.231.166.355.355 0 0 1-.149.033.277.277 0 0 1-.207-.083.318.318 0 0 1-.078-.223c0-.06.012-.112.037-.153a.523.523 0 0 1 .186-.165 2.87 2.87 0 0 1 .442-.19v-.05c0-.118-.02-.2-.057-.244a.212.212 0 0 0-.166-.066.173.173 0 0 0-.128.045.126.126 0 0 0-.05.1v.074c0 .041-.01.073-.029.095a.097.097 0 0 1-.078.033.11.11 0 0 1-.083-.033.147.147 0 0 1-.029-.095c0-.075.039-.142.116-.203a.494.494 0 0 1 .322-.095c.105 0 .192.017.26.05.05.028.088.07.113.128.016.04.024.116.024.231v.406c0 .113.001.184.004.21.006.025.013.042.021.05.01.008.023.012.037.012a.076.076 0 0 0 .038-.008.598.598 0 0 0 .103-.095v.07c-.097.133-.19.199-.277.199A.134.134 0 0 1 10.778 8c-.025-.03-.038-.08-.038-.153Zm0-.082V7.31c-.132.053-.218.09-.256.112a.404.404 0 0 0-.149.12.238.238 0 0 0-.041.136c0 .06.017.112.054.153a.176.176 0 0 0 .132.062c.066 0 .153-.043.26-.128zM11.58 7.033c.117-.16.242-.24.377-.24.121 0 .227.053.318.157a.62.62 0 0 1 .14.426c0 .213-.07.384-.21.513a.579.579 0 0 1-.62.132.866.866 0 0 1-.22-.116V6.67c0-.134-.002-.217-.007-.248-.007-.033-.017-.055-.033-.066a.084.084 0 0 0-.05-.017.267.267 0 0 0-.091.021l-.02-.045.359-.15h.058zm0 .083v.715a.459.459 0 0 0 .137.1c.05.022.1.032.15.032.079 0 .152-.042.218-.128.068-.088.104-.216.104-.384a.54.54 0 0 0-.104-.352c-.066-.083-.143-.124-.231-.124a.271.271 0 0 0-.137.037.57.57 0 0 0-.136.104zm0 0"/>
  <path d="M12.91 6.165c.035 0 .066.014.09.041a.121.121 0 0 1 .042.091c0 .04-.015.07-.041.095a.125.125 0 0 1-.091.037.128.128 0 0 1-.133-.132c0-.035.013-.066.038-.09a.123.123 0 0 1 .095-.042zm.107.628v.96c0 .074.005.123.017.148.01.025.026.045.045.058a.291.291 0 0 0 .12.017v.045h-.583v-.045a.262.262 0 0 0 .116-.017.13.13 0 0 0 .05-.058.357.357 0 0 0 .02-.149V7.29c0-.129-.004-.213-.012-.252-.008-.027-.02-.045-.033-.054a.072.072 0 0 0-.05-.016.34.34 0 0 0-.09.016l-.017-.045.36-.145ZM13.757 6.165v1.587c0 .075.005.124.013.15.01.022.027.04.05.053.024.014.067.02.128.02v.046h-.583v-.045a.238.238 0 0 0 .107-.017.13.13 0 0 0 .05-.058.45.45 0 0 0 .016-.149V6.665c0-.134-.003-.217-.008-.248-.006-.03-.016-.05-.029-.062a.09.09 0 0 0-.054-.017.229.229 0 0 0-.082.021l-.025-.045.355-.15zM14.39 6.165c.035 0 .066.014.091.041a.121.121 0 0 1 .041.091c0 .04-.014.07-.04.095a.125.125 0 0 1-.092.037.128.128 0 0 1-.132-.132c0-.035.012-.066.037-.09a.123.123 0 0 1 .095-.042zm.108.628v.96c0 .074.005.123.016.148.01.025.026.045.046.058a.291.291 0 0 0 .12.017v.045h-.583v-.045a.262.262 0 0 0 .115-.017.13.13 0 0 0 .05-.058.357.357 0 0 0 .02-.149V7.29c0-.129-.004-.213-.012-.252-.008-.027-.02-.045-.033-.054a.072.072 0 0 0-.05-.016.34.34 0 0 0-.09.016l-.017-.045.36-.145ZM15.172 6.434v.392h.28v.091h-.28v.777c0 .078.01.13.033.158a.11.11 0 0 0 .087.037.162.162 0 0 0 .082-.025.182.182 0 0 0 .062-.079h.05a.424.424 0 0 1-.128.195.281.281 0 0 1-.17.062.241.241 0 0 1-.12-.033.2.2 0 0 1-.086-.095.558.558 0 0 1-.025-.195v-.802h-.19v-.041a.48.48 0 0 0 .148-.095.788.788 0 0 0 .133-.166c.018-.033.046-.093.082-.181ZM15.498 6.826h.554v.05h-.024c-.04 0-.07.008-.091.025a.077.077 0 0 0-.03.062c0 .033.015.08.046.14l.29.604.268-.662a.292.292 0 0 0 .021-.103.07.07 0 0 0-.008-.037c-.006-.008-.017-.015-.033-.02a.261.261 0 0 0-.079-.01v-.049h.389v.05a.193.193 0 0 0-.075.02.302.302 0 0 0-.058.058c-.006.012-.02.045-.04.1l-.489 1.194a.605.605 0 0 1-.186.26.36.36 0 0 1-.219.088.178.178 0 0 1-.124-.046.126.126 0 0 1-.05-.099c0-.036.01-.065.034-.087a.14.14 0 0 1 .099-.033c.03 0 .068.01.116.029.035.01.057.017.066.017.027 0 .056-.015.087-.042a.404.404 0 0 0 .09-.153l.087-.206-.43-.902a1.498 1.498 0 0 0-.062-.103.251.251 0 0 0-.053-.058.322.322 0 0 0-.096-.037Zm0 0"/>
  <path d="M17.924 6.434v.392h.281v.091h-.28v.777c0 .078.01.13.032.158a.11.11 0 0 0 .087.037.162.162 0 0 0 .083-.025.182.182 0 0 0 .062-.079h.05a.424.424 0 0 1-.129.195.281.281 0 0 1-.17.062.241.241 0 0 1-.12-.033.2.2 0 0 1-.086-.095.558.558 0 0 1-.025-.195v-.802h-.19v-.041a.48.48 0 0 0 .149-.095.788.788 0 0 0 .132-.166c.019-.033.047-.093.083-.181ZM18.642 6.165v.876a.915.915 0 0 1 .227-.202.375.375 0 0 1 .174-.046c.066 0 .122.02.17.058.049.036.086.094.11.174.017.055.026.157.026.306v.421a.46.46 0 0 0 .016.153c.01.023.026.04.046.054.021.011.06.017.115.017v.045h-.587v-.045h.03c.054 0 .092-.009.115-.025a.149.149 0 0 0 .046-.079c.002-.013.004-.054.004-.12v-.421a.985.985 0 0 0-.02-.257.17.17 0 0 0-.067-.09.182.182 0 0 0-.108-.034.316.316 0 0 0-.132.033.6.6 0 0 0-.165.137v.632c0 .08.004.132.012.153.01.02.03.036.054.05.025.014.067.02.128.02v.046h-.591v-.045a.264.264 0 0 0 .124-.025.118.118 0 0 0 .041-.05.45.45 0 0 0 .017-.149V6.67c0-.134-.004-.217-.013-.248-.006-.033-.015-.055-.029-.066a.09.09 0 0 0-.053-.017.295.295 0 0 0-.087.021l-.02-.045.359-.15zM19.842 7.277c-.003.177.04.316.129.417.087.1.19.15.306.15a.33.33 0 0 0 .202-.063.5.5 0 0 0 .149-.223l.037.029a.615.615 0 0 1-.157.327.428.428 0 0 1-.33.144.48.48 0 0 1-.369-.165c-.102-.113-.153-.265-.153-.455 0-.204.052-.362.158-.475a.507.507 0 0 1 .392-.174c.135 0 .245.044.331.132a.493.493 0 0 1 .128.356Zm0-.075h.554a.624.624 0 0 0-.029-.165.273.273 0 0 0-.231-.153.275.275 0 0 0-.194.083.354.354 0 0 0-.1.235zM22.196 7.847a1.79 1.79 0 0 1-.231.166.355.355 0 0 1-.149.033.277.277 0 0 1-.207-.083.318.318 0 0 1-.078-.223c0-.06.012-.112.037-.153a.523.523 0 0 1 .186-.165 2.87 2.87 0 0 1 .442-.19v-.05c0-.118-.02-.2-.057-.244a.212.212 0 0 0-.166-.066.173.173 0 0 0-.128.045.126.126 0 0 0-.05.1v.074c0 .041-.01.073-.028.095a.097.097 0 0 1-.079.033.11.11 0 0 1-.083-.033.147.147 0 0 1-.029-.095c0-.075.039-.142.116-.203a.494.494 0 0 1 .323-.095c.104 0 .19.017.26.05.05.028.087.07.112.128.016.04.024.116.024.231v.406c0 .113.002.184.005.21.005.025.012.042.02.05.01.008.023.012.037.012a.076.076 0 0 0 .038-.008.598.598 0 0 0 .103-.095v.07c-.097.133-.19.199-.277.199A.134.134 0 0 1 22.234 8c-.025-.03-.038-.08-.038-.153Zm0-.082V7.31c-.132.053-.218.09-.256.112a.404.404 0 0 0-.149.12.238.238 0 0 0-.041.136c0 .06.018.112.054.153a.176.176 0 0 0 .132.062c.066 0 .153-.043.26-.128zm0 0"/>
  <path d="M23.03 6.434v.392h.282v.091h-.281v.777c0 .078.01.13.033.158a.11.11 0 0 0 .087.037.162.162 0 0 0 .082-.025.182.182 0 0 0 .062-.079h.05a.424.424 0 0 1-.128.195.281.281 0 0 1-.17.062.241.241 0 0 1-.12-.033.2.2 0 0 1-.086-.095.558.558 0 0 1-.025-.195v-.802h-.19v-.041a.48.48 0 0 0 .149-.095.788.788 0 0 0 .132-.166c.018-.033.046-.093.083-.181ZM23.771 6.434v.392h.281v.091h-.28v.777c0 .078.01.13.032.158a.11.11 0 0 0 .087.037.162.162 0 0 0 .083-.025.182.182 0 0 0 .062-.079h.05a.424.424 0 0 1-.129.195.281.281 0 0 1-.17.062.241.241 0 0 1-.12-.033.2.2 0 0 1-.086-.095.558.558 0 0 1-.025-.195v-.802h-.19v-.041a.48.48 0 0 0 .149-.095.788.788 0 0 0 .132-.166c.019-.033.047-.093.083-.181ZM24.842 7.847a1.79 1.79 0 0 1-.231.166.355.355 0 0 1-.15.033.277.277 0 0 1-.206-.083.318.318 0 0 1-.079-.223c0-.06.013-.112.038-.153a.523.523 0 0 1 .186-.165 2.87 2.87 0 0 1 .442-.19v-.05c0-.118-.02-.2-.058-.244a.212.212 0 0 0-.165-.066.173.173 0 0 0-.128.045.126.126 0 0 0-.05.1v.074c0 .041-.01.073-.029.095a.097.097 0 0 1-.078.033.11.11 0 0 1-.083-.033.147.147 0 0 1-.029-.095c0-.075.038-.142.116-.203a.494.494 0 0 1 .322-.095c.105 0 .191.017.26.05.05.028.087.07.112.128.017.04.025.116.025.231v.406c0 .113.001.184.004.21.005.025.013.042.02.05.011.008.024.012.038.012a.076.076 0 0 0 .037-.008.598.598 0 0 0 .104-.095v.07c-.098.133-.19.199-.277.199A.134.134 0 0 1 24.879 8c-.025-.03-.037-.08-.037-.153Zm0-.082V7.31c-.132.053-.218.09-.256.112a.404.404 0 0 0-.15.12.238.238 0 0 0-.04.136c0 .06.017.112.053.153a.176.176 0 0 0 .133.062c.066 0 .153-.043.26-.128zm0 0"/>
  <path d="M26.373 7.566a.662.662 0 0 1-.19.364.454.454 0 0 1-.314.128.462.462 0 0 1-.356-.17.687.687 0 0 1-.149-.462c0-.187.055-.34.166-.455a.542.542 0 0 1 .405-.178c.118 0 .215.032.29.095.073.061.11.124.11.19a.113.113 0 0 1-.032.083c-.02.02-.049.03-.087.03-.053 0-.091-.017-.116-.05a.217.217 0 0 1-.029-.104.188.188 0 0 0-.054-.12.193.193 0 0 0-.124-.037.259.259 0 0 0-.21.095.507.507 0 0 0-.108.34c0 .14.034.266.103.375.072.11.167.166.286.166.084 0 .162-.03.231-.091a.565.565 0 0 0 .137-.215ZM26.903 6.165v1.19l.302-.277a.835.835 0 0 0 .112-.111.053.053 0 0 0 .012-.033c0-.017-.008-.03-.025-.042-.014-.013-.037-.021-.07-.024v-.042h.52v.042a.545.545 0 0 0-.177.033.584.584 0 0 0-.157.107l-.306.281.306.389c.085.107.143.176.174.202a.309.309 0 0 0 .107.079c.022.011.06.017.116.017v.045h-.583v-.045a.133.133 0 0 0 .066-.017.041.041 0 0 0 .02-.037c0-.022-.018-.055-.053-.1l-.364-.467v.397a.44.44 0 0 0 .017.153c.01.025.026.044.045.054a.425.425 0 0 0 .128.017v.045h-.607v-.045c.06 0 .105-.009.136-.025a.097.097 0 0 0 .046-.042c.01-.03.016-.08.016-.148V6.673c0-.14-.003-.225-.008-.256-.006-.03-.016-.05-.029-.062a.076.076 0 0 0-.054-.02.214.214 0 0 0-.082.024l-.025-.045.355-.15zM28.1 7.277c-.003.177.04.316.128.417.088.1.19.15.306.15a.33.33 0 0 0 .202-.063.5.5 0 0 0 .15-.223l.037.029a.615.615 0 0 1-.158.327.428.428 0 0 1-.33.144.48.48 0 0 1-.368-.165c-.103-.113-.153-.265-.153-.455 0-.204.051-.362.157-.475a.507.507 0 0 1 .393-.174c.134 0 .245.044.33.132a.493.493 0 0 1 .129.356Zm0-.075h.554a.624.624 0 0 0-.03-.165.273.273 0 0 0-.23-.153.275.275 0 0 0-.195.083.354.354 0 0 0-.1.235zM29.414 6.793v.269c.099-.179.2-.269.306-.269.05 0 .089.016.12.046a.132.132 0 0 1 .012.186.11.11 0 0 1-.083.033c-.03 0-.065-.015-.103-.046-.036-.03-.064-.045-.083-.045-.014 0-.03.008-.05.025a.623.623 0 0 0-.12.177v.57c0 .067.009.119.026.154.01.023.03.041.057.058.03.016.072.025.124.025v.045h-.611v-.045c.06 0 .105-.01.136-.03a.106.106 0 0 0 .046-.066.585.585 0 0 0 .008-.128V7.29c0-.137-.003-.22-.008-.248-.007-.027-.017-.046-.034-.058a.096.096 0 0 0-.057-.016.34.34 0 0 0-.091.016l-.013-.045.36-.145ZM30.56 6.826h.5v.05c-.045.003-.075.011-.091.025-.015.011-.02.029-.02.053 0 .028.005.061.02.1l.256.686.256-.558-.066-.178a.224.224 0 0 0-.082-.107.293.293 0 0 0-.108-.021v-.05h.57v.05c-.063.003-.107.014-.132.033-.02.014-.029.036-.029.066 0 .017.005.035.013.054l.269.686.252-.661a.328.328 0 0 0 .029-.112c0-.017-.01-.031-.03-.045-.016-.014-.049-.021-.099-.021v-.05h.38v.05c-.077.011-.134.062-.169.153l-.397 1.03h-.053l-.302-.766-.347.765h-.046l-.384-1.004a.354.354 0 0 0-.075-.129.263.263 0 0 0-.115-.05Zm0 0"/>
  <path d="M32.864 6.165c.035 0 .066.014.09.041a.121.121 0 0 1 .042.091c0 .04-.015.07-.041.095a.125.125 0 0 1-.091.037.128.128 0 0 1-.133-.132c0-.035.013-.066.038-.09a.123.123 0 0 1 .095-.042zm.107.628v.96c0 .074.005.123.017.148.01.025.026.045.045.058a.291.291 0 0 0 .12.017v.045h-.583v-.045a.262.262 0 0 0 .116-.017.13.13 0 0 0 .05-.058.357.357 0 0 0 .02-.149V7.29c0-.129-.004-.213-.012-.252-.008-.027-.02-.045-.033-.054a.072.072 0 0 0-.05-.016.34.34 0 0 0-.09.016l-.017-.045.36-.145ZM33.711 6.165v1.587c0 .075.005.124.013.15.01.022.027.04.05.053.024.014.067.02.128.02v.046h-.583v-.045a.238.238 0 0 0 .107-.017.13.13 0 0 0 .05-.058.45.45 0 0 0 .016-.149V6.665c0-.134-.003-.217-.008-.248-.006-.03-.016-.05-.029-.062a.09.09 0 0 0-.054-.017.229.229 0 0 0-.082.021l-.025-.045.355-.15zM34.452 6.165v1.587c0 .075.004.124.012.15.01.022.027.04.05.053.024.014.067.02.128.02v.046h-.583v-.045a.238.238 0 0 0 .107-.017.13.13 0 0 0 .05-.058.45.45 0 0 0 .016-.149V6.665c0-.134-.003-.217-.008-.248-.006-.03-.015-.05-.029-.062a.09.09 0 0 0-.053-.017.229.229 0 0 0-.083.021l-.025-.045.356-.15zm0 0"/>
  <path d="M35.67 7.277c-.003.177.04.316.129.417.087.1.19.15.306.15a.33.33 0 0 0 .202-.063.5.5 0 0 0 .149-.223l.037.029a.615.615 0 0 1-.157.327.428.428 0 0 1-.33.144.48.48 0 0 1-.369-.165c-.102-.113-.153-.265-.153-.455 0-.204.052-.362.157-.475a.507.507 0 0 1 .393-.174c.135 0 .245.044.331.132a.493.493 0 0 1 .128.356Zm0-.075h.554a.624.624 0 0 0-.029-.165.273.273 0 0 0-.231-.153.275.275 0 0 0-.194.083.354.354 0 0 0-.1.235zM36.571 6.826h.562v.05h-.037a.115.115 0 0 0-.079.025.09.09 0 0 0-.024.066c0 .03.009.066.029.107l.277.662.28-.687a.365.365 0 0 0 .03-.111.04.04 0 0 0-.013-.03.053.053 0 0 0-.037-.024.304.304 0 0 0-.087-.008v-.05h.389v.05a.192.192 0 0 0-.095.025.364.364 0 0 0-.083.132l-.422 1.025h-.053l-.426-1.009a.342.342 0 0 0-.058-.099.202.202 0 0 0-.066-.053.29.29 0 0 0-.087-.021ZM38.185 7.277c-.003.177.04.316.128.417.088.1.19.15.306.15a.33.33 0 0 0 .203-.063.5.5 0 0 0 .149-.223l.037.029a.615.615 0 0 1-.157.327.428.428 0 0 1-.331.144.48.48 0 0 1-.368-.165c-.102-.113-.153-.265-.153-.455 0-.204.052-.362.157-.475a.507.507 0 0 1 .393-.174c.134 0 .245.044.33.132a.493.493 0 0 1 .129.356Zm0-.075h.554a.624.624 0 0 0-.029-.165.273.273 0 0 0-.231-.153.275.275 0 0 0-.195.083.354.354 0 0 0-.099.235zM39.526 6.793v.269c.099-.179.2-.269.306-.269.05 0 .089.016.12.046a.132.132 0 0 1 .012.186.11.11 0 0 1-.083.033c-.03 0-.065-.015-.103-.046-.036-.03-.064-.045-.083-.045-.014 0-.03.008-.05.025a.623.623 0 0 0-.12.177v.57c0 .067.009.119.026.154.01.023.03.041.057.058.03.016.072.025.124.025v.045h-.611v-.045c.06 0 .105-.01.136-.03a.106.106 0 0 0 .045-.066.585.585 0 0 0 .009-.128V7.29c0-.137-.003-.22-.009-.248-.006-.027-.016-.046-.033-.058a.096.096 0 0 0-.057-.016.34.34 0 0 0-.091.016l-.013-.045.36-.145ZM41.755 7.566a.662.662 0 0 1-.19.364.454.454 0 0 1-.315.128.462.462 0 0 1-.355-.17.687.687 0 0 1-.15-.462c0-.187.056-.34.166-.455a.542.542 0 0 1 .405-.178c.118 0 .215.032.29.095.074.061.111.124.111.19a.113.113 0 0 1-.033.083c-.02.02-.048.03-.086.03-.053 0-.091-.017-.116-.05a.217.217 0 0 1-.03-.104.188.188 0 0 0-.053-.12.193.193 0 0 0-.124-.037.259.259 0 0 0-.21.095.507.507 0 0 0-.108.34c0 .14.034.266.103.375.071.11.166.166.285.166.085 0 .163-.03.232-.091a.565.565 0 0 0 .136-.215ZM42.607 7.847a1.79 1.79 0 0 1-.231.166.355.355 0 0 1-.149.033.277.277 0 0 1-.207-.083.318.318 0 0 1-.078-.223c0-.06.012-.112.037-.153a.523.523 0 0 1 .186-.165 2.87 2.87 0 0 1 .442-.19v-.05c0-.118-.02-.2-.057-.244a.212.212 0 0 0-.166-.066.173.173 0 0 0-.128.045.126.126 0 0 0-.05.1v.074c0 .041-.01.073-.028.095a.097.097 0 0 1-.079.033.11.11 0 0 1-.083-.033.147.147 0 0 1-.029-.095c0-.075.039-.142.116-.203a.494.494 0 0 1 .323-.095c.104 0 .19.017.26.05.05.028.087.07.112.128.016.04.024.116.024.231v.406c0 .113.001.184.005.21.005.025.012.042.02.05.01.008.023.012.037.012a.076.076 0 0 0 .038-.008.598.598 0 0 0 .103-.095v.07c-.097.133-.19.199-.277.199A.134.134 0 0 1 42.645 8c-.025-.03-.038-.08-.038-.153Zm0-.082V7.31c-.132.053-.218.09-.256.112a.404.404 0 0 0-.149.12.238.238 0 0 0-.041.136c0 .06.018.112.054.153a.176.176 0 0 0 .132.062c.066 0 .153-.043.26-.128zm0 0"/>
  <path d="M43.469 6.434v.392h.28v.091h-.28v.777c0 .078.01.13.033.158a.11.11 0 0 0 .086.037.162.162 0 0 0 .083-.025.182.182 0 0 0 .062-.079h.05a.424.424 0 0 1-.128.195.281.281 0 0 1-.17.062.241.241 0 0 1-.12-.033.2.2 0 0 1-.087-.095.558.558 0 0 1-.024-.195v-.802h-.19v-.041a.48.48 0 0 0 .148-.095.788.788 0 0 0 .133-.166c.018-.033.046-.093.082-.181ZM44.879 7.566a.662.662 0 0 1-.19.364.454.454 0 0 1-.315.128.462.462 0 0 1-.355-.17.687.687 0 0 1-.15-.462c0-.187.056-.34.166-.455a.542.542 0 0 1 .405-.178c.118 0 .215.032.29.095.074.061.111.124.111.19a.113.113 0 0 1-.033.083c-.02.02-.048.03-.087.03-.052 0-.09-.017-.115-.05a.217.217 0 0 1-.03-.104.188.188 0 0 0-.053-.12.193.193 0 0 0-.124-.037.259.259 0 0 0-.21.095.507.507 0 0 0-.108.34c0 .14.034.266.103.375.071.11.166.166.285.166.085 0 .163-.03.232-.091a.565.565 0 0 0 .136-.215Zm0 0"/>
  <path d="M45.378 6.165v.876a.915.915 0 0 1 .227-.202.375.375 0 0 1 .174-.046c.066 0 .122.02.17.058.05.036.086.094.111.174.017.055.025.157.025.306v.421a.46.46 0 0 0 .017.153c.01.023.025.04.045.054.022.011.06.017.116.017v.045h-.587v-.045h.029c.054 0 .093-.009.115-.025a.149.149 0 0 0 .046-.079c.002-.013.004-.054.004-.12v-.421a.985.985 0 0 0-.02-.257.17.17 0 0 0-.067-.09.182.182 0 0 0-.107-.034.316.316 0 0 0-.133.033.6.6 0 0 0-.165.137v.632c0 .08.004.132.012.153.01.02.03.036.054.05.025.014.067.02.128.02v.046h-.59v-.045a.264.264 0 0 0 .123-.025.118.118 0 0 0 .042-.05.45.45 0 0 0 .016-.149V6.67c0-.134-.004-.217-.012-.248-.007-.033-.016-.055-.03-.066a.09.09 0 0 0-.053-.017.295.295 0 0 0-.087.021l-.02-.045.36-.15zM48.085 6.826v.724c0 .138.002.223.008.256a.136.136 0 0 0 .033.066.092.092 0 0 0 .054.017.228.228 0 0 0 .09-.025l.017.045-.355.15h-.062v-.253c-.102.11-.181.18-.236.21a.37.37 0 0 1-.17.042.292.292 0 0 1-.277-.207 1.04 1.04 0 0 1-.024-.26v-.533a.24.24 0 0 0-.02-.116.11.11 0 0 0-.054-.05.274.274 0 0 0-.129-.016v-.05h.418v.798c0 .114.018.188.058.223.038.033.085.05.14.05.035 0 .077-.01.124-.033a.675.675 0 0 0 .17-.137V7.05c0-.066-.013-.111-.037-.136-.025-.025-.077-.037-.153-.037v-.05zM48.302 6.946l.368-.149h.05v.277a.698.698 0 0 1 .185-.219.356.356 0 0 1 .199-.062.38.38 0 0 1 .297.14c.1.114.15.263.15.447a.75.75 0 0 1-.179.513.467.467 0 0 1-.368.165.387.387 0 0 1-.285-.107v.364a.44.44 0 0 0 .017.157c.01.021.029.038.053.05a.3.3 0 0 0 .133.02v.05h-.625v-.05h.034a.221.221 0 0 0 .12-.025.102.102 0 0 0 .037-.05.463.463 0 0 0 .016-.16v-1.13a.495.495 0 0 0-.012-.144.085.085 0 0 0-.033-.05.105.105 0 0 0-.062-.016.226.226 0 0 0-.079.02zm.417.207v.446c0 .097.004.16.013.19.013.05.043.095.09.133.047.04.106.058.178.058a.251.251 0 0 0 .211-.104c.071-.088.108-.212.108-.372 0-.182-.04-.322-.12-.421A.25.25 0 0 0 49 6.979a.266.266 0 0 0-.124.033.73.73 0 0 0-.157.14zM50.865 6.921v.786c0 .11.013.18.037.21.033.04.076.059.128.059h.108v.045h-.711v-.045h.054a.174.174 0 0 0 .09-.025.15.15 0 0 0 .063-.07.618.618 0 0 0 .016-.174V6.92h-.231v-.095h.231v-.078c0-.118.019-.22.058-.302a.484.484 0 0 1 .442-.277c.091 0 .174.03.248.09.052.04.079.083.079.129a.11.11 0 0 1-.037.079c-.023.022-.046.033-.07.033a.11.11 0 0 1-.063-.021.41.41 0 0 1-.082-.095.35.35 0 0 0-.091-.095.153.153 0 0 0-.087-.025.16.16 0 0 0-.103.033.176.176 0 0 0-.062.1 1.98 1.98 0 0 0-.017.342v.087h.31v.095zm0 0"/>
  <path d="M51.623 6.793v.269c.1-.179.2-.269.306-.269.05 0 .089.016.12.046a.132.132 0 0 1 .012.186.11.11 0 0 1-.082.033c-.031 0-.065-.015-.104-.046-.036-.03-.064-.045-.082-.045-.015 0-.031.008-.05.025a.623.623 0 0 0-.12.177v.57c0 .067.008.119.025.154.01.023.03.041.058.058.03.016.071.025.124.025v.045h-.612v-.045c.06 0 .105-.01.136-.03a.106.106 0 0 0 .046-.066.585.585 0 0 0 .008-.128V7.29c0-.137-.003-.22-.008-.248-.006-.027-.017-.046-.033-.058a.096.096 0 0 0-.058-.016.34.34 0 0 0-.09.016l-.013-.045.36-.145ZM52.733 6.793c.178 0 .323.068.434.203.093.119.14.254.14.405a.764.764 0 0 1-.078.326.596.596 0 0 1-.215.249.556.556 0 0 1-.298.082.509.509 0 0 1-.43-.215.673.673 0 0 1-.132-.409c0-.108.026-.215.078-.322a.54.54 0 0 1 .215-.24.57.57 0 0 1 .286-.079zm-.042.083a.279.279 0 0 0-.14.041.3.3 0 0 0-.116.145.714.714 0 0 0-.041.264c0 .174.034.325.103.451.071.124.163.186.277.186.083 0 .15-.034.207-.103.055-.068.082-.188.082-.36 0-.212-.045-.378-.136-.5a.289.289 0 0 0-.236-.124zM53.85 7.045c.089-.084.14-.134.154-.148a.405.405 0 0 1 .124-.075.368.368 0 0 1 .136-.029c.075 0 .139.023.194.066a.295.295 0 0 1 .108.186.867.867 0 0 1 .227-.202.39.39 0 0 1 .19-.05.3.3 0 0 1 .17.05.3.3 0 0 1 .116.157c.018.05.029.128.029.236v.516a.46.46 0 0 0 .016.153c.008.02.023.036.046.05.024.014.064.02.12.02v.046h-.592v-.045h.025c.052 0 .092-.01.12-.034a.115.115 0 0 0 .041-.066.518.518 0 0 0 .009-.124v-.516a.4.4 0 0 0-.038-.203c-.033-.058-.086-.087-.16-.087a.295.295 0 0 0-.141.037.71.71 0 0 0-.17.129v.64c0 .08.004.132.013.153.01.02.028.036.053.05.025.014.067.02.128.02v.046h-.603v-.045c.066 0 .111-.009.136-.025a.138.138 0 0 0 .054-.07 1.22 1.22 0 0 0 .004-.129v-.516a.395.395 0 0 0-.041-.207.185.185 0 0 0-.161-.087.279.279 0 0 0-.141.041.467.467 0 0 0-.165.129v.64a.44.44 0 0 0 .016.153c.01.023.026.04.046.054a.336.336 0 0 0 .132.017v.045h-.591v-.045a.281.281 0 0 0 .116-.017.13.13 0 0 0 .05-.058.45.45 0 0 0 .016-.149v-.459c0-.129-.004-.213-.013-.252-.006-.03-.015-.05-.029-.058a.09.09 0 0 0-.053-.016.302.302 0 0 0-.087.016l-.02-.045.359-.145h.058zM57.285 7.653l-.012.368h-1.054v-.045l.793-1.059h-.392a.526.526 0 0 0-.166.017.138.138 0 0 0-.062.062.35.35 0 0 0-.041.161h-.054l.008-.33h1v.049l-.797 1.058h.434a.538.538 0 0 0 .186-.02.175.175 0 0 0 .079-.083.68.68 0 0 0 .037-.178zM58.429 7.033c.116-.16.24-.24.376-.24.12 0 .227.053.318.157a.62.62 0 0 1 .14.426c0 .213-.07.384-.21.513a.579.579 0 0 1-.62.132.866.866 0 0 1-.22-.116V6.67c0-.134-.002-.217-.007-.248-.007-.033-.017-.055-.034-.066a.084.084 0 0 0-.05-.017.267.267 0 0 0-.09.021l-.02-.045.359-.15h.058zm0 .083v.715a.459.459 0 0 0 .136.1c.05.022.1.032.149.032.08 0 .153-.042.22-.128.067-.088.102-.216.102-.384a.54.54 0 0 0-.103-.352c-.066-.083-.144-.124-.231-.124a.271.271 0 0 0-.137.037.57.57 0 0 0-.136.104zM59.865 6.165v1.587c0 .075.004.124.012.15.01.022.027.04.05.053.025.014.067.02.128.02v.046h-.583v-.045a.238.238 0 0 0 .108-.017.13.13 0 0 0 .05-.058.45.45 0 0 0 .016-.149V6.665c0-.134-.003-.217-.008-.248-.006-.03-.016-.05-.03-.062a.09.09 0 0 0-.053-.017.229.229 0 0 0-.083.021l-.024-.045.355-.15zM60.752 6.793c.179 0 .324.068.434.203.093.119.14.254.14.405a.764.764 0 0 1-.078.326.596.596 0 0 1-.215.249.556.556 0 0 1-.297.082.509.509 0 0 1-.43-.215.673.673 0 0 1-.133-.409c0-.108.026-.215.079-.322a.54.54 0 0 1 .215-.24.57.57 0 0 1 .285-.079zm-.041.083a.279.279 0 0 0-.14.041.3.3 0 0 0-.116.145.714.714 0 0 0-.042.264c0 .174.034.325.104.451.07.124.163.186.277.186.082 0 .15-.034.206-.103.055-.068.083-.188.083-.36 0-.212-.046-.378-.136-.5a.289.289 0 0 0-.236-.124zM62.532 7.566a.662.662 0 0 1-.19.364.454.454 0 0 1-.315.128.462.462 0 0 1-.355-.17.687.687 0 0 1-.149-.462c0-.187.055-.34.165-.455a.542.542 0 0 1 .405-.178c.118 0 .215.032.29.095.074.061.111.124.111.19a.113.113 0 0 1-.033.083c-.02.02-.048.03-.086.03-.053 0-.091-.017-.116-.05a.217.217 0 0 1-.03-.104.188.188 0 0 0-.053-.12.193.193 0 0 0-.124-.037.259.259 0 0 0-.21.095.507.507 0 0 0-.108.34c0 .14.034.266.103.375.071.11.167.166.285.166.085 0 .163-.03.232-.091a.565.565 0 0 0 .136-.215ZM63.062 6.165v1.19l.302-.277a.835.835 0 0 0 .111-.111.053.053 0 0 0 .013-.033c0-.017-.008-.03-.025-.042-.014-.013-.037-.021-.07-.024v-.042h.52v.042a.545.545 0 0 0-.177.033.584.584 0 0 0-.157.107l-.306.281.306.389c.085.107.142.176.173.202a.309.309 0 0 0 .108.079c.022.011.06.017.116.017v.045h-.583v-.045a.133.133 0 0 0 .066-.017.041.041 0 0 0 .02-.037c0-.022-.018-.055-.053-.1l-.364-.467v.397a.44.44 0 0 0 .017.153c.01.025.025.044.045.054a.425.425 0 0 0 .128.017v.045h-.607v-.045c.06 0 .105-.009.136-.025a.097.097 0 0 0 .045-.042c.01-.03.017-.08.017-.148V6.673c0-.14-.003-.225-.008-.256-.007-.03-.016-.05-.03-.062a.076.076 0 0 0-.053-.02.214.214 0 0 0-.083.024l-.024-.045.355-.15zM64.83 6.793v.405h-.042a.543.543 0 0 0-.128-.26.29.29 0 0 0-.199-.07.22.22 0 0 0-.149.05c-.036.032-.053.068-.053.107 0 .047.013.089.041.124a.441.441 0 0 0 .165.111l.19.095c.176.086.265.199.265.34 0 .11-.041.198-.124.264a.434.434 0 0 1-.277.1.912.912 0 0 1-.248-.042.295.295 0 0 0-.07-.013c-.023 0-.04.012-.05.034h-.041v-.426h.041a.495.495 0 0 0 .14.277.338.338 0 0 0 .232.09c.06 0 .109-.016.145-.049a.17.17 0 0 0 .058-.128.205.205 0 0 0-.066-.153 1.026 1.026 0 0 0-.253-.153.753.753 0 0 1-.243-.17.296.296 0 0 1-.058-.19c0-.099.033-.18.099-.244a.352.352 0 0 1 .26-.099c.047 0 .105.01.174.03.043.014.072.02.087.02.013 0 .025-.002.033-.008a.208.208 0 0 0 .029-.042ZM66.077 7.033c.116-.16.24-.24.376-.24.121 0 .227.053.318.157a.62.62 0 0 1 .141.426c0 .213-.07.384-.21.513a.579.579 0 0 1-.621.132.866.866 0 0 1-.22-.116V6.67c0-.134-.002-.217-.007-.248-.007-.033-.017-.055-.033-.066a.084.084 0 0 0-.05-.017.267.267 0 0 0-.091.021l-.02-.045.359-.15h.058zm0 .083v.715a.459.459 0 0 0 .136.1c.05.022.1.032.15.032.079 0 .152-.042.218-.128.068-.088.104-.216.104-.384a.54.54 0 0 0-.104-.352c-.066-.083-.143-.124-.231-.124a.271.271 0 0 0-.137.037.57.57 0 0 0-.136.104zM67.302 7.277c-.003.177.04.316.129.417.087.1.19.15.305.15a.33.33 0 0 0 .203-.063.5.5 0 0 0 .149-.223l.037.029a.615.615 0 0 1-.157.327.428.428 0 0 1-.33.144.48.48 0 0 1-.369-.165c-.102-.113-.153-.265-.153-.455 0-.204.052-.362.157-.475a.507.507 0 0 1 .393-.174c.135 0 .245.044.33.132a.493.493 0 0 1 .129.356Zm0-.075h.554a.624.624 0 0 0-.029-.165.273.273 0 0 0-.231-.153.275.275 0 0 0-.194.083.354.354 0 0 0-.1.235zM68.616 6.165v.876a.915.915 0 0 1 .228-.202.375.375 0 0 1 .173-.046c.066 0 .122.02.17.058.05.036.087.094.111.174.017.055.025.157.025.306v.421a.46.46 0 0 0 .017.153c.01.023.026.04.045.054.022.011.06.017.116.017v.045h-.587v-.045h.029c.055 0 .093-.009.116-.025a.149.149 0 0 0 .045-.079c.002-.013.004-.054.004-.12v-.421a.985.985 0 0 0-.02-.257.17.17 0 0 0-.067-.09.182.182 0 0 0-.107-.034.316.316 0 0 0-.132.033.6.6 0 0 0-.166.137v.632c0 .08.004.132.013.153.01.02.029.036.053.05.025.014.068.02.129.02v.046h-.592v-.045a.264.264 0 0 0 .124-.025.118.118 0 0 0 .042-.05.45.45 0 0 0 .016-.149V6.67c0-.134-.004-.217-.012-.248-.006-.033-.016-.055-.029-.066a.09.09 0 0 0-.054-.017.295.295 0 0 0-.087.021l-.02-.045.36-.15zm0 0"/>
  <path d="M69.92 6.165c.035 0 .066.014.091.041a.121.121 0 0 1 .042.091c0 .04-.015.07-.042.095a.125.125 0 0 1-.09.037.128.128 0 0 1-.133-.132c0-.035.012-.066.037-.09a.123.123 0 0 1 .095-.042zm.108.628v.96c0 .074.005.123.016.148.01.025.026.045.046.058a.291.291 0 0 0 .12.017v.045h-.583v-.045a.262.262 0 0 0 .116-.017.13.13 0 0 0 .05-.058.357.357 0 0 0 .02-.149V7.29c0-.129-.004-.213-.013-.252-.008-.027-.02-.045-.033-.054a.072.072 0 0 0-.05-.016.34.34 0 0 0-.09.016l-.017-.045.36-.145ZM70.702 7.045c.14-.167.274-.252.4-.252.067 0 .123.017.17.05a.312.312 0 0 1 .112.157.761.761 0 0 1 .029.24v.512a.46.46 0 0 0 .017.153c.01.023.025.04.045.054a.291.291 0 0 0 .12.017v.045h-.591v-.045h.024c.055 0 .094-.009.116-.025a.137.137 0 0 0 .05-.079c.002-.01.004-.05.004-.12V7.26a.471.471 0 0 0-.045-.235c-.028-.05-.075-.075-.141-.075-.102 0-.206.057-.31.17v.632c0 .08.005.13.016.15.01.024.027.044.05.057a.318.318 0 0 0 .128.017v.045h-.587v-.045h.025c.06 0 .1-.015.12-.046.022-.033.033-.092.033-.178v-.446c0-.143-.003-.23-.008-.26-.007-.03-.016-.051-.03-.063a.09.09 0 0 0-.053-.016.302.302 0 0 0-.087.016l-.02-.045.36-.145h.053Zm0 0"/>
  <path d="M72.52 7.889a.618.618 0 0 1-.169.132.454.454 0 0 1-.525-.124.611.611 0 0 1-.144-.422c0-.173.053-.33.16-.471a.507.507 0 0 1 .418-.215c.105 0 .192.035.26.103V6.67c0-.134-.002-.217-.007-.248-.007-.033-.017-.055-.034-.066a.084.084 0 0 0-.05-.017.296.296 0 0 0-.09.021l-.017-.045.356-.15h.058v1.382c0 .14.002.227.008.26a.136.136 0 0 0 .033.066c.014.012.03.017.05.017a.258.258 0 0 0 .095-.025l.016.045-.355.15h-.062Zm0-.095v-.612a.41.41 0 0 0-.049-.161.258.258 0 0 0-.103-.112.24.24 0 0 0-.124-.037c-.075 0-.143.035-.203.103-.08.091-.12.223-.12.397 0 .174.039.308.116.401.077.094.162.14.256.14.077 0 .153-.039.228-.12zM2.442 15.36l-.468 1.605a.737.737 0 0 0-.028.144c0 .022.005.04.016.054.01.017.026.03.046.037.026.01.064.017.111.017l-.012.054h-.682l.016-.054c.091-.008.149-.017.174-.025a.19.19 0 0 0 .087-.07.691.691 0 0 0 .078-.203l.194-.698c-.124.182-.24.31-.347.384a.396.396 0 0 1-.215.079.24.24 0 0 1-.215-.116.456.456 0 0 1-.074-.252c0-.143.043-.294.132-.45.088-.158.205-.287.352-.39a.544.544 0 0 1 .301-.115c.069 0 .124.016.166.05a.309.309 0 0 1 .099.156l.045-.16Zm-.327.278c0-.06-.019-.11-.054-.15a.18.18 0 0 0-.136-.057c-.116 0-.239.1-.368.298-.127.198-.19.386-.19.562 0 .072.014.127.045.165a.155.155 0 0 0 .12.054c.058 0 .122-.033.194-.1.11-.095.203-.22.277-.371a.95.95 0 0 0 .112-.401ZM3.009 16.503h.537v.024l-.587.612h.248a.79.79 0 0 0 .112-.004.11.11 0 0 0 .045-.029.351.351 0 0 0 .046-.083h.029l-.07.232H2.81v-.025l.592-.612h-.244a.688.688 0 0 0-.095.004.112.112 0 0 0-.05.025.276.276 0 0 0-.046.075h-.033zM3.968 16.138v-.14H5.65v.14zm0-.616v-.14H5.65v.14ZM6.799 20.01h-.02c-.177 0-.31-.119-.402-.352-.089-.207-.132-.486-.132-.835l.004-2.336c0-.33-.082-.497-.244-.5v-.124l.07-.009c.116-.038.174-.204.174-.5l-.004-2.332c0-.355.048-.638.145-.851.093-.212.23-.318.409-.318v.124l-.091.012-.074.041c-.15.114-.227.409-.232.885l-.016 2.22c-.004.367-.09.631-.257.794.168.157.253.423.257.798l.016 2.211c.005.626.134.94.389.947h.008zM10.717 13.137l.467-.231h.046v1.629c0 .107.004.175.012.202.01.025.03.046.058.062.027.015.085.021.174.021v.054h-.724v-.054a.43.43 0 0 0 .174-.02.123.123 0 0 0 .058-.054.773.773 0 0 0 .016-.211v-1.042c0-.14-.006-.23-.016-.269a.107.107 0 0 0-.037-.066.095.095 0 0 0-.062-.02.386.386 0 0 0-.145.04zM18.193 13.022c.042 0 .076.014.104.041a.144.144 0 0 1 .041.103c0 .04-.014.073-.041.1a.14.14 0 0 1-.104.04.132.132 0 0 1-.099-.04.132.132 0 0 1-.041-.1.14.14 0 0 1 .041-.103.136.136 0 0 1 .1-.041Zm.021.566-.281.996a.669.669 0 0 0-.029.12c0 .017.004.03.012.037.01.009.022.013.033.013.014 0 .03-.006.05-.02a.907.907 0 0 0 .165-.183l.05.033a.954.954 0 0 1-.227.248.307.307 0 0 1-.186.075.138.138 0 0 1-.095-.033.119.119 0 0 1-.038-.087c0-.035.013-.095.038-.178l.186-.637a.976.976 0 0 0 .045-.194.056.056 0 0 0-.025-.05.08.08 0 0 0-.058-.02c-.022 0-.066.006-.132.016v-.057Zm0 0"/>
  <path d="m19.203 13.621-.025.095h-.207l-.157.62c-.069.273-.14.486-.21.637-.1.209-.206.355-.319.438a.467.467 0 0 1-.264.091.225.225 0 0 1-.145-.05.125.125 0 0 1-.041-.095.1.1 0 0 1 .037-.078.117.117 0 0 1 .087-.033c.024 0 .047.008.066.025a.074.074 0 0 1 .025.053c0 .022-.01.042-.03.058-.016.014-.024.025-.024.033 0 .009.004.014.012.017.008.008.02.012.037.012a.269.269 0 0 0 .133-.041.369.369 0 0 0 .12-.112.92.92 0 0 0 .095-.219c.013-.041.05-.172.107-.393l.248-.963H18.5l.02-.095c.08 0 .135-.005.166-.016a.184.184 0 0 0 .083-.062.812.812 0 0 0 .103-.174c.058-.113.112-.2.161-.265a.792.792 0 0 1 .224-.186.443.443 0 0 1 .215-.066c.071 0 .129.02.173.058.044.036.066.074.066.116a.128.128 0 0 1-.033.087.11.11 0 0 1-.082.033.108.108 0 0 1-.075-.025.091.091 0 0 1-.025-.062c0-.017.006-.035.017-.058.013-.022.02-.037.02-.046 0-.013-.003-.022-.012-.028a.106.106 0 0 0-.053-.013.261.261 0 0 0-.162.054.673.673 0 0 0-.17.236 3.838 3.838 0 0 0-.14.417zM21.153 13.588l-.1.327c.102-.121.193-.205.273-.253a.484.484 0 0 1 .252-.074c.083 0 .154.033.215.1.06.065.091.152.091.26 0 .21-.085.421-.256.636-.168.215-.366.323-.591.323a.488.488 0 0 1-.128-.017.385.385 0 0 1-.12-.053l-.104.367a.587.587 0 0 0-.033.141c0 .019.006.035.017.05.01.016.029.029.054.037a.541.541 0 0 0 .144.012l-.012.054h-.67l.017-.054c.089-.006.148-.023.178-.05.03-.024.062-.097.095-.214l.36-1.249a.786.786 0 0 0 .032-.145.08.08 0 0 0-.02-.057c-.015-.017-.036-.025-.066-.025a.75.75 0 0 0-.116.012v-.058zm-.331 1.137a.29.29 0 0 0 .236.103.3.3 0 0 0 .148-.041.539.539 0 0 0 .15-.12c.049-.055.092-.117.131-.186.042-.071.077-.154.108-.248a.955.955 0 0 0 .045-.285c0-.077-.018-.135-.053-.174a.15.15 0 0 0-.12-.062c-.103 0-.205.06-.306.178a1.05 1.05 0 0 0-.215.41zM22.41 14.874v-.14h1.682v.14Zm1.682-1.683v.153l-1.302.521 1.302.52v.15l-1.683-.67ZM26.042 13.588l-.467 1.604a.737.737 0 0 0-.029.145c0 .021.006.039.017.053.01.017.026.03.045.038.027.01.064.016.112.016l-.012.054h-.683l.017-.054c.09-.008.149-.016.174-.025a.19.19 0 0 0 .086-.07.691.691 0 0 0 .079-.202l.194-.7c-.124.183-.24.311-.347.385a.396.396 0 0 1-.215.079.24.24 0 0 1-.215-.116.456.456 0 0 1-.074-.252c0-.143.043-.294.132-.45.088-.158.205-.287.351-.39a.544.544 0 0 1 .302-.115c.068 0 .124.017.166.05a.309.309 0 0 1 .099.157l.045-.162Zm-.326.277c0-.06-.019-.11-.054-.149a.18.18 0 0 0-.136-.058c-.116 0-.24.1-.368.298-.127.198-.19.386-.19.562 0 .073.014.127.045.166a.155.155 0 0 0 .12.053c.058 0 .122-.033.194-.099.11-.096.203-.22.277-.372a.95.95 0 0 0 .112-.401ZM7.964 19.446a1.488 1.488 0 0 1-.426-.657 2.384 2.384 0 0 1-.128-.786c0-.266.043-.527.132-.781.1-.3.24-.519.422-.657v.07c-.135.124-.238.338-.306.64a3.194 3.194 0 0 0 0 1.455c.068.309.17.523.306.642ZM9.585 17.557l-.467 1.604a.737.737 0 0 0-.029.144c0 .022.005.04.017.054.01.017.026.03.045.037.027.01.064.017.112.017l-.013.054h-.682l.017-.054c.09-.008.149-.017.174-.025a.19.19 0 0 0 .086-.07.691.691 0 0 0 .079-.203l.194-.698c-.124.182-.24.31-.347.384a.396.396 0 0 1-.215.079.24.24 0 0 1-.215-.116.456.456 0 0 1-.074-.252c0-.143.043-.294.132-.45.088-.158.205-.287.351-.39a.544.544 0 0 1 .302-.115c.068 0 .124.016.165.05a.309.309 0 0 1 .1.156l.045-.16Zm-.326.277c0-.06-.019-.11-.054-.15a.18.18 0 0 0-.136-.057c-.116 0-.24.1-.368.298-.127.198-.19.386-.19.562 0 .072.014.127.045.165a.155.155 0 0 0 .12.054c.058 0 .122-.033.194-.1.11-.095.203-.22.277-.371a.95.95 0 0 0 .112-.401ZM9.977 18.88l.604-2.158h.207l-.604 2.158zM12.21 17.557l-.1.326c.102-.12.193-.204.273-.252a.484.484 0 0 1 .253-.074c.082 0 .154.033.214.099s.091.153.091.26c0 .21-.085.422-.256.637-.168.215-.366.323-.591.323a.488.488 0 0 1-.128-.017.385.385 0 0 1-.12-.054l-.103.368a.587.587 0 0 0-.034.14c0 .02.006.036.017.05.01.017.029.03.054.038a.541.541 0 0 0 .144.012l-.012.054h-.67l.017-.054c.089-.006.148-.023.178-.05.03-.024.062-.097.095-.215l.36-1.248a.786.786 0 0 0 .032-.145.08.08 0 0 0-.02-.058c-.015-.016-.036-.024-.066-.024a.75.75 0 0 0-.116.012v-.058zm-.331 1.137a.29.29 0 0 0 .236.103.3.3 0 0 0 .148-.041.539.539 0 0 0 .15-.12c.049-.055.092-.117.132-.186.04-.072.076-.154.107-.248a.955.955 0 0 0 .046-.286c0-.076-.02-.134-.054-.173a.15.15 0 0 0-.12-.062c-.102 0-.205.06-.306.178a1.05 1.05 0 0 0-.215.409zM13.323 19.372c.127-.116.226-.32.298-.612.058-.237.087-.468.087-.695 0-.27-.025-.523-.075-.76-.066-.317-.169-.54-.31-.67v-.07c.182.13.323.347.422.653a2.491 2.491 0 0 1 .004 1.57c-.102.3-.244.52-.426.658ZM14.307 16.503h.537v.024l-.587.612h.248a.79.79 0 0 0 .112-.004.11.11 0 0 0 .045-.029.351.351 0 0 0 .046-.083h.028l-.07.232h-.558v-.025l.591-.612h-.244a.688.688 0 0 0-.095.004.112.112 0 0 0-.05.025.276.276 0 0 0-.045.075h-.033zM18.193 16.99a.144.144 0 0 1 .145.145c0 .04-.014.072-.041.1a.14.14 0 0 1-.104.04.132.132 0 0 1-.099-.04.132.132 0 0 1-.041-.1.14.14 0 0 1 .041-.103.136.136 0 0 1 .1-.042Zm.021.567-.281.996a.669.669 0 0 0-.029.12c0 .017.004.029.012.037.01.008.022.013.033.013.014 0 .03-.007.05-.021a.907.907 0 0 0 .165-.182l.05.033a.954.954 0 0 1-.227.248.307.307 0 0 1-.186.075.138.138 0 0 1-.095-.034.119.119 0 0 1-.038-.086c0-.035.013-.095.038-.178l.186-.637a.976.976 0 0 0 .045-.194.056.056 0 0 0-.025-.05.08.08 0 0 0-.058-.02c-.022 0-.066.006-.132.016v-.058Zm0 0"/>
  <path d="m19.203 17.59-.025.095h-.207l-.157.62c-.069.273-.14.486-.21.637-.1.208-.206.355-.319.438a.467.467 0 0 1-.264.09.225.225 0 0 1-.145-.049.125.125 0 0 1-.041-.095.1.1 0 0 1 .037-.078.117.117 0 0 1 .087-.033c.024 0 .047.008.066.024a.074.074 0 0 1 .025.054c0 .022-.01.041-.03.058-.016.013-.024.025-.024.033s.004.013.012.017c.008.008.02.012.037.012a.269.269 0 0 0 .133-.041.369.369 0 0 0 .12-.112.92.92 0 0 0 .095-.22c.013-.04.05-.172.107-.392l.248-.963H18.5l.02-.095c.08 0 .135-.005.166-.017a.184.184 0 0 0 .083-.062.812.812 0 0 0 .103-.173c.058-.113.112-.2.161-.265a.792.792 0 0 1 .224-.186.443.443 0 0 1 .215-.066c.071 0 .129.02.173.058.044.036.066.074.066.116a.128.128 0 0 1-.033.086.11.11 0 0 1-.082.033.108.108 0 0 1-.075-.024.091.091 0 0 1-.025-.062c0-.017.006-.036.017-.058.013-.022.02-.037.02-.046 0-.013-.003-.022-.012-.029a.106.106 0 0 0-.053-.012.261.261 0 0 0-.162.054.673.673 0 0 0-.17.235 3.838 3.838 0 0 0-.14.418zM21.153 17.557l-.1.326c.102-.12.193-.204.273-.252a.484.484 0 0 1 .252-.074c.083 0 .154.033.215.099.06.066.091.153.091.26 0 .21-.085.422-.256.637-.168.215-.366.323-.591.323a.488.488 0 0 1-.128-.017.385.385 0 0 1-.12-.054l-.104.368a.587.587 0 0 0-.033.14c0 .02.006.036.017.05.01.017.029.03.054.038a.541.541 0 0 0 .144.012l-.012.054h-.67l.017-.054c.089-.006.148-.023.178-.05.03-.024.062-.097.095-.215l.36-1.248a.786.786 0 0 0 .032-.145.08.08 0 0 0-.02-.058c-.015-.016-.036-.024-.066-.024a.75.75 0 0 0-.116.012v-.058zm-.331 1.137a.29.29 0 0 0 .236.103.3.3 0 0 0 .148-.041.539.539 0 0 0 .15-.12c.049-.055.092-.117.131-.186.042-.072.077-.154.108-.248a.955.955 0 0 0 .045-.286c0-.076-.018-.134-.053-.173a.15.15 0 0 0-.12-.062c-.103 0-.205.06-.306.178a1.05 1.05 0 0 0-.215.409zM22.41 17.334l1.682.673-1.683.67v-.145l1.307-.529-1.307-.517ZM26.042 17.557l-.467 1.604a.737.737 0 0 0-.029.144c0 .022.006.04.017.054.01.017.026.03.045.037.027.01.064.017.112.017l-.012.054h-.683l.017-.054c.09-.008.149-.017.174-.025a.19.19 0 0 0 .086-.07.691.691 0 0 0 .079-.203l.194-.698c-.124.182-.24.31-.347.384a.396.396 0 0 1-.215.079.24.24 0 0 1-.215-.116.456.456 0 0 1-.074-.252c0-.143.043-.294.132-.45.088-.158.205-.287.351-.39a.544.544 0 0 1 .302-.115c.068 0 .124.016.166.05a.309.309 0 0 1 .099.156l.045-.16Zm-.326.277c0-.06-.019-.11-.054-.15a.18.18 0 0 0-.136-.057c-.116 0-.24.1-.368.298-.127.198-.19.386-.19.562 0 .072.014.127.045.165a.155.155 0 0 0 .12.054c.058 0 .122-.033.194-.1.11-.095.203-.22.277-.371a.95.95 0 0 0 .112-.401ZM26.431 20.01v-.125l.091-.012c.2-.07.302-.38.302-.935 0-.246-.004-.616-.013-1.112a89.9 89.9 0 0 1-.008-1.108c0-.349.087-.613.26-.79-.173-.162-.26-.426-.26-.793 0-.245.002-.617.008-1.116.009-.496.013-.866.013-1.112 0-.62-.131-.93-.393-.93v-.124h.02c.171 0 .303.11.393.326.091.218.137.502.137.852 0 .279-.008.665-.025 1.161-.014.52-.02.906-.02 1.162 0 .34.084.509.256.509h.033v.124l-.087.008c-.135.036-.203.202-.203.5 0 .26.007.647.021 1.162.017.502.025.89.025 1.166 0 .79-.184 1.186-.55 1.186zm0 0"/>
 </g>
</svg>
