<!-- Created with Inkscape (http://www.inkscape.org/) -->

<svg
   height="35.25mm"
   viewBox="0 0 8.07 5.48"
   id="diag9"
   xmlns="http://www.w3.org/2000/svg">
  <g
     id="layer1"
     transform="translate(-80.714866,-234.9868)">
    <g
       fill="var(--text-color)"
       fill-opacity="1"
       id="g1586"
       transform="matrix(0.26458333,0,0,0.26458333,47.387288,156.47417)">
      <g
         id="use1586"
         transform="translate(125.4,307.60001)">
        <path
           d="M 0.609375,-0.015625 C 0.578125,-0.148438 0.5625,-0.242188 0.5625,-0.296875 c 0,-0.4375 0.332031,-1.160156 1,-2.171875 C 1.601562,-2.539062 2.085938,-3.238281 3.015625,-4.5625 2.867188,-5.257812 2.71875,-5.726562 2.5625,-5.96875 c -0.261719,-0.375 -0.679688,-0.5625 -1.25,-0.5625 -0.011719,0 -0.023438,0 -0.03125,0 L 1.921875,-7.140625 H 2.09375 c 0.488281,0 0.859375,0.15625 1.109375,0.46875 0.164063,0.21875 0.320313,0.605469 0.46875,1.15625 L 4.40625,-2.59375 c 0.375,1.304688 0.785156,2.164062 1.234375,2.578125 H 4.5 c -0.34375,-0.4375 -0.640625,-1.101563 -0.890625,-2 l -0.5,-2.171875 C 2.484375,-3.320312 2.113281,-2.785156 2,-2.578125 c -0.398438,0.667969 -0.59375,1.273437 -0.59375,1.8125 0,0.304687 0.097656,0.554687 0.296875,0.75 z m 0,0"
           id="path3" />
      </g>
    </g>
    <g
       fill="var(--text-color)"
       fill-opacity="1"
       id="g1587"
       transform="matrix(0.26458333,0,0,0.26458333,47.387288,156.47417)">
      <g
         id="use1587"
         transform="translate(131.39999,307.60001)">
        <path
           d="m 1.1875,-1.921875 v -0.53125 h 6.328125 v 0.53125 z m 0,-2.328125 V -4.78125 H 7.515625 V -4.25 Z m 0,0"
           id="path5" />
      </g>
    </g>
    <g
       fill="var(--text-color)"
       fill-opacity="1"
       id="g1588"
       transform="matrix(0.26458333,0,0,0.26458333,47.387288,156.47417)">
      <g
         id="use1588"
         transform="translate(141.10001,307.60001)">
        <path
           d="M 0.921875,-4.734375 H 4.3125 v 0.140625 l -3.703125,3.859375 h 1.5625 c 0.375,0 0.609375,-0.007813 0.703125,-0.03125 0.101562,-0.03125 0.195312,-0.09375 0.28125,-0.1875 C 3.238281,-1.046875 3.332031,-1.21875 3.4375,-1.46875 H 3.640625 L 3.171875,0 H -0.3125 V -0.15625 L 3.390625,-4.015625 H 1.84375 c -0.324219,0 -0.515625,0.00781 -0.578125,0.015625 -0.105469,0.023438 -0.210937,0.078125 -0.3125,0.171875 C 0.859375,-3.734375 0.757812,-3.582031 0.65625,-3.375 H 0.453125 Z m 0,0"
           id="path4" />
      </g>
    </g>
    <g
       fill="var(--text-color)"
       fill-opacity="1"
       id="g1589"
       transform="matrix(0.26458333,0,0,0.26458333,47.387288,156.47417)">
      <g
         id="use1589"
         transform="translate(149.39999,301.60001)">
        <path
           d="m 5.1875,-4.859375 -1.75,6.0625 C 3.363281,1.484375 3.328125,1.664062 3.328125,1.75 c 0,0.082031 0.019531,0.148438 0.0625,0.203125 0.039063,0.0625 0.097656,0.109375 0.171875,0.140625 0.101562,0.039062 0.242188,0.0625 0.421875,0.0625 L 3.9375,2.359375 H 1.375 L 1.421875,2.15625 C 1.773438,2.125 1.992188,2.09375 2.078125,2.0625 2.210938,2.007812 2.320312,1.921875 2.40625,1.796875 2.5,1.671875 2.597656,1.414062 2.703125,1.03125 L 3.4375,-1.609375 C 2.96875,-0.921875 2.53125,-0.4375 2.125,-0.15625 1.84375,0.0390625 1.578125,0.140625 1.328125,0.140625 0.960938,0.140625 0.6875,-0.00390625 0.5,-0.296875 0.320312,-0.585938 0.234375,-0.90625 0.234375,-1.25 c 0,-0.539062 0.164063,-1.109375 0.5,-1.703125 0.332031,-0.59375 0.769531,-1.082031 1.3125,-1.46875 0.414063,-0.289063 0.796875,-0.4375 1.140625,-0.4375 0.257812,0 0.46875,0.0625 0.625,0.1875 0.164062,0.125 0.289062,0.324219 0.375,0.59375 L 4.359375,-4.6875 Z M 3.96875,-3.8125 c 0,-0.226562 -0.070312,-0.414062 -0.203125,-0.5625 C 3.628906,-4.519531 3.457031,-4.59375 3.25,-4.59375 c -0.4375,0 -0.898438,0.375 -1.375,1.125 -0.480469,0.75 -0.71875,1.460938 -0.71875,2.125 0,0.273438 0.054688,0.480469 0.171875,0.625 0.125,0.136719 0.269531,0.203125 0.4375,0.203125 0.21875,0 0.46875,-0.125 0.75,-0.375 0.414063,-0.363281 0.757813,-0.832031 1.03125,-1.40625 C 3.828125,-2.878906 3.96875,-3.382812 3.96875,-3.8125 Z m 0,0"
           id="path1" />
      </g>
    </g>
    <path
       fill-rule="evenodd"
       fill="var(--text-color)"
       fill-opacity="1"
       d="m 86.51875,237.19896 h 2.275829 v -0.13229 H 86.51875 Z m 0,0"
       id="path1589"
       style="stroke-width:0.264583" />
    <g
       id="g1591"
       transform="matrix(0.26458333,0,0,0.26458333,47.387288,156.47417)">
      <g
         fill="var(--text-color)"
         fill-opacity="1"
         id="g1590">
        <g
           id="use1590"
           transform="translate(150.2,315.10001)">
          <path
             d="m 2.421875,-4.859375 -0.375,1.234375 c 0.394531,-0.457031 0.742187,-0.773438 1.046875,-0.953125 0.300781,-0.1875 0.613281,-0.28125 0.9375,-0.28125 0.3125,0 0.578125,0.125 0.796875,0.375 0.226563,0.25 0.34375,0.578125 0.34375,0.984375 0,0.792969 -0.320313,1.59375 -0.953125,2.40625 C 3.582031,-0.28125 2.835938,0.125 1.984375,0.125 1.804688,0.125 1.648438,0.101562 1.515625,0.0625 1.378906,0.03125 1.222656,-0.0351562 1.046875,-0.140625 L 0.65625,1.25 C 0.582031,1.519531 0.546875,1.695312 0.546875,1.78125 c 0,0.070312 0.019531,0.132812 0.0625,0.1875 C 0.648438,2.03125 0.71875,2.078125 0.8125,2.109375 0.90625,2.140625 1.085938,2.15625 1.359375,2.15625 L 1.3125,2.359375 H -1.203125 L -1.15625,2.15625 C -0.820312,2.132812 -0.597656,2.070312 -0.484375,1.96875 -0.367188,1.875 -0.25,1.601562 -0.125,1.15625 L 1.234375,-3.5625 c 0.082031,-0.289062 0.125,-0.472656 0.125,-0.546875 0,-0.09375 -0.03125,-0.164063 -0.09375,-0.21875 -0.054687,-0.0625 -0.136719,-0.09375 -0.25,-0.09375 -0.105469,0 -0.246094,0.015625 -0.421875,0.046875 v -0.21875 z m -1.25,4.296875 c 0.226563,0.261719 0.523437,0.390625 0.890625,0.390625 0.1875,0 0.375,-0.050781 0.5625,-0.15625 0.195312,-0.101563 0.382812,-0.253906 0.5625,-0.453125 0.1875,-0.207031 0.351562,-0.441406 0.5,-0.703125 0.15625,-0.269531 0.289062,-0.582031 0.40625,-0.9375 C 4.207031,-2.785156 4.265625,-3.144531 4.265625,-3.5 c 0,-0.289062 -0.070313,-0.507812 -0.203125,-0.65625 -0.125,-0.15625 -0.277344,-0.234375 -0.453125,-0.234375 -0.386719,0 -0.765625,0.226563 -1.140625,0.671875 -0.375,0.4375 -0.652344,0.953125 -0.828125,1.546875 z m 0,0"
             id="path6" />
        </g>
      </g>
    </g>
  </g>
</svg>
