<?xml version="1.0" encoding="UTF-8"?>
<svg height="70.5mm" version="1.1" viewBox="0 0 97.74 41.02" xmlns="http://www.w3.org/2000/svg">
 <path d="m37.598 24.467h-4.525v-3.017h9.023v3.017z" fill="var(--background-color)" fill-rule="evenodd" stroke="var(--text-color)" stroke-linejoin="round" stroke-miterlimit="10" stroke-width=".032"/>
 <path d="M34.518 23.752V22.41h.178v.55h.699v-.55h.178v1.343h-.178v-.632h-.699v.632ZM36.48 23.632a.656.656 0 0 1-.183.112.557.557 0 0 1-.177.029c-.108 0-.19-.026-.248-.079a.254.254 0 0 1-.087-.198.25.25 0 0 1 .033-.128.242.242 0 0 1 .087-.095.445.445 0 0 1 .12-.058c.03-.009.078-.017.144-.025.133-.014.23-.031.294-.054v-.045c0-.066-.016-.113-.046-.14-.041-.04-.103-.059-.186-.059a.303.303 0 0 0-.173.042.266.266 0 0 0-.083.144l-.161-.02a.423.423 0 0 1 .074-.166.302.302 0 0 1 .145-.099.597.597 0 0 1 .219-.037c.085 0 .153.01.203.029.051.02.09.044.115.074a.296.296 0 0 1 .054.112c.005.03.008.081.008.153v.219c0 .155.002.252.009.293.008.04.021.078.04.116h-.169a.251.251 0 0 1-.033-.12Zm-.017-.368a1.115 1.115 0 0 1-.269.062.49.49 0 0 0-.145.033.14.14 0 0 0-.066.054.142.142 0 0 0-.02.079c0 .044.016.081.05.111.032.028.08.042.144.042a.34.34 0 0 0 .17-.042.263.263 0 0 0 .111-.115.413.413 0 0 0 .025-.166ZM36.834 23.463l.162-.025c.01.064.037.114.078.149.041.036.1.054.174.054.076 0 .133-.015.17-.046a.151.151 0 0 0 .053-.112.105.105 0 0 0-.045-.086.613.613 0 0 0-.17-.058 1.434 1.434 0 0 1-.252-.079.24.24 0 0 1-.108-.09.267.267 0 0 1-.033-.133c0-.043.01-.084.03-.12a.275.275 0 0 1 .078-.09.476.476 0 0 1 .248-.07c.076-.001.145.01.202.032.058.023.1.053.129.09a.353.353 0 0 1 .057.15l-.16.024a.185.185 0 0 0-.067-.12.245.245 0 0 0-.149-.04c-.074 0-.128.012-.161.036-.033.025-.05.054-.05.087 0 .023.007.042.021.058.013.02.034.035.062.046.017.006.066.02.149.041.116.033.195.06.24.079.046.02.082.048.107.086a.23.23 0 0 1 .042.14.277.277 0 0 1-.05.158.308.308 0 0 1-.137.112.532.532 0 0 1-.202.037c-.127 0-.223-.026-.29-.079a.364.364 0 0 1-.128-.231zM37.853 23.752V22.41h.165v.483a.363.363 0 0 1 .29-.136.37.37 0 0 1 .186.045.242.242 0 0 1 .116.116c.024.05.037.123.037.22v.615h-.166v-.616c0-.083-.018-.141-.053-.178a.2.2 0 0 0-.153-.057.28.28 0 0 0-.14.037.22.22 0 0 0-.092.103.5.5 0 0 0-.025.178v.533ZM38.84 23.09c0-.158.016-.287.049-.384a.483.483 0 0 1 .144-.223.373.373 0 0 1 .244-.079.37.37 0 0 1 .186.046c.055.028.1.07.137.124a.627.627 0 0 1 .083.198c.021.078.033.184.033.319 0 .157-.017.284-.05.38a.492.492 0 0 1-.149.227.364.364 0 0 1-.24.079.368.368 0 0 1-.306-.14c-.088-.113-.132-.295-.132-.546zm.169 0c0 .222.024.369.074.443a.23.23 0 0 0 .194.108c.075 0 .138-.036.19-.108.052-.074.08-.221.08-.442 0-.224-.028-.37-.08-.443-.052-.071-.117-.107-.194-.107a.217.217 0 0 0-.182.095c-.055.083-.082.235-.082.455ZM40.517 23.752h-.165v-1.05a.887.887 0 0 1-.157.112.967.967 0 0 1-.174.087v-.162a.949.949 0 0 0 .244-.153.635.635 0 0 0 .145-.182h.107zm0 0" fill="var(--text-color)"/>
 <path d="m50.377 33.488h-3.757v-3.015h7.515v3.015z" fill="var(--background-color)" fill-rule="evenodd" stroke="var(--text-color)" stroke-linejoin="round" stroke-miterlimit="10" stroke-width=".032"/>
 <path d="M47.827 32.854V31.51h.178v.55h.698v-.55h.178v1.344h-.178v-.633h-.698v.633ZM49.788 32.734a.656.656 0 0 1-.182.112.557.557 0 0 1-.178.028c-.107 0-.19-.025-.248-.078a.254.254 0 0 1-.087-.199.25.25 0 0 1 .033-.128.242.242 0 0 1 .087-.095.445.445 0 0 1 .12-.058c.03-.008.079-.016.145-.024.132-.014.23-.031.293-.054v-.046c0-.066-.015-.112-.045-.14-.041-.038-.104-.058-.186-.058a.303.303 0 0 0-.174.041.266.266 0 0 0-.082.145l-.162-.02a.423.423 0 0 1 .075-.166.302.302 0 0 1 .144-.1.597.597 0 0 1 .22-.037c.084 0 .152.01.202.03.052.02.091.044.116.074a.296.296 0 0 1 .054.111c.005.031.008.082.008.153v.22c0 .155.002.252.008.293.008.04.022.078.041.116h-.17a.251.251 0 0 1-.032-.12Zm-.017-.368a1.115 1.115 0 0 1-.268.062.49.49 0 0 0-.145.033.14.14 0 0 0-.066.054.142.142 0 0 0-.02.078c0 .045.016.082.049.112.033.028.08.041.144.041a.34.34 0 0 0 .17-.041.263.263 0 0 0 .112-.116.413.413 0 0 0 .024-.165ZM50.143 32.564l.161-.024c.01.064.037.113.079.148.041.037.099.054.173.054.077 0 .134-.014.17-.045a.151.151 0 0 0 .054-.112.105.105 0 0 0-.046-.087.613.613 0 0 0-.17-.058 1.434 1.434 0 0 1-.252-.078.24.24 0 0 1-.107-.091.267.267 0 0 1-.033-.132c0-.044.01-.084.029-.12a.275.275 0 0 1 .078-.091.476.476 0 0 1 .248-.07c.077 0 .145.01.203.033.058.022.1.052.128.09a.353.353 0 0 1 .058.15l-.161.024a.185.185 0 0 0-.066-.12.245.245 0 0 0-.15-.041c-.074 0-.127.012-.16.037-.034.025-.05.054-.05.087 0 .023.006.041.02.058.014.02.035.035.063.045.016.006.066.02.148.042.116.033.196.06.24.078.047.02.083.049.108.087a.23.23 0 0 1 .041.14.277.277 0 0 1-.05.158.308.308 0 0 1-.136.111.532.532 0 0 1-.203.037c-.127 0-.223-.025-.289-.078a.364.364 0 0 1-.128-.232zM51.162 32.854V31.51h.165v.484a.363.363 0 0 1 .29-.137.37.37 0 0 1 .185.046.242.242 0 0 1 .116.116c.025.05.037.123.037.219v.616h-.165v-.616c0-.083-.019-.142-.054-.178a.2.2 0 0 0-.153-.058.28.28 0 0 0-.14.037.22.22 0 0 0-.091.104.5.5 0 0 0-.025.178v.533ZM53.042 32.697v.157h-.889a.267.267 0 0 1 .017-.116.667.667 0 0 1 .111-.178c.05-.058.121-.125.215-.202.146-.121.244-.216.294-.286a.333.333 0 0 0 .079-.198.22.22 0 0 0-.07-.165.259.259 0 0 0-.183-.066.257.257 0 0 0-.19.07.278.278 0 0 0-.074.198l-.17-.016a.417.417 0 0 1 .128-.29c.077-.066.18-.099.31-.099s.232.036.306.108c.075.072.112.16.112.264a.404.404 0 0 1-.033.157.63.63 0 0 1-.112.166 2.36 2.36 0 0 1-.252.235c-.1.083-.163.14-.19.17a.655.655 0 0 0-.07.09zm0 0" fill="var(--text-color)"/>
 <path d="m60.907 33.488h-3.783v-3.015h7.54v3.015z" fill="var(--background-color)" fill-rule="evenodd" stroke="#4c4c4c" stroke-dasharray="1.1424, 1.1424, 1.1424, 1.1424" stroke-linejoin="round" stroke-miterlimit="10" stroke-width=".032"/>
 <path d="M58.33 32.854V31.51h.179v.55h.698v-.55h.178v1.344h-.178v-.633h-.698v.633ZM60.292 32.734a.656.656 0 0 1-.182.112.557.557 0 0 1-.178.028c-.107 0-.19-.025-.248-.078a.254.254 0 0 1-.087-.199.25.25 0 0 1 .033-.128.242.242 0 0 1 .087-.095.445.445 0 0 1 .12-.058c.03-.008.079-.016.145-.024.132-.014.23-.031.293-.054v-.046c0-.066-.015-.112-.045-.14-.042-.038-.104-.058-.186-.058a.303.303 0 0 0-.174.041.266.266 0 0 0-.083.145l-.16-.02a.423.423 0 0 1 .074-.166.302.302 0 0 1 .144-.1.597.597 0 0 1 .22-.037c.084 0 .152.01.202.03.052.02.091.044.116.074a.296.296 0 0 1 .054.111c.005.031.008.082.008.153v.22c0 .155.002.252.008.293.008.04.022.078.041.116h-.17a.251.251 0 0 1-.032-.12Zm-.017-.368a1.115 1.115 0 0 1-.268.062.49.49 0 0 0-.145.033.14.14 0 0 0-.066.054.142.142 0 0 0-.02.078c0 .045.016.082.049.112.033.028.08.041.144.041a.34.34 0 0 0 .17-.041.263.263 0 0 0 .111-.116.413.413 0 0 0 .025-.165ZM60.647 32.564l.161-.024c.01.064.037.113.079.148.041.037.099.054.173.054.077 0 .134-.014.17-.045a.151.151 0 0 0 .054-.112.105.105 0 0 0-.046-.087.613.613 0 0 0-.17-.058 1.434 1.434 0 0 1-.252-.078.24.24 0 0 1-.107-.091.267.267 0 0 1-.033-.132c0-.044.01-.084.029-.12a.275.275 0 0 1 .078-.091.476.476 0 0 1 .248-.07c.077 0 .145.01.203.033.058.022.1.052.128.09a.353.353 0 0 1 .058.15l-.161.024a.185.185 0 0 0-.066-.12.245.245 0 0 0-.15-.041c-.074 0-.127.012-.16.037-.034.025-.05.054-.05.087 0 .023.006.041.02.058.014.02.035.035.063.045.016.006.066.02.148.042.116.033.196.06.24.078.047.02.083.049.108.087a.23.23 0 0 1 .041.14.277.277 0 0 1-.05.158.308.308 0 0 1-.136.111.532.532 0 0 1-.203.037c-.127 0-.223-.025-.289-.078a.364.364 0 0 1-.128-.232zM61.666 32.854V31.51h.165v.484a.363.363 0 0 1 .29-.137.37.37 0 0 1 .185.046.242.242 0 0 1 .116.116c.025.05.037.123.037.219v.616h-.165v-.616c0-.083-.019-.142-.054-.178a.2.2 0 0 0-.153-.058.28.28 0 0 0-.14.037.22.22 0 0 0-.091.104.5.5 0 0 0-.025.178v.533ZM62.652 32.498l.165-.02c.019.094.05.16.095.202a.247.247 0 0 0 .17.062.275.275 0 0 0 .277-.281.246.246 0 0 0-.075-.186.259.259 0 0 0-.19-.074.562.562 0 0 0-.116.016l.017-.145c.01.004.02.005.029.005.068 0 .13-.018.186-.054.058-.038.087-.096.087-.174a.213.213 0 0 0-.22-.21.231.231 0 0 0-.165.061.306.306 0 0 0-.078.182l-.166-.029a.412.412 0 0 1 .137-.256.405.405 0 0 1 .268-.09.41.41 0 0 1 .199.049.337.337 0 0 1 .194.297.285.285 0 0 1-.05.162.308.308 0 0 1-.136.111c.08.02.142.058.186.116a.35.35 0 0 1 .066.215c0 .119-.043.219-.128.302a.457.457 0 0 1-.327.12.432.432 0 0 1-.293-.104.413.413 0 0 1-.132-.277zm0 0" fill="var(--text-color)"/>
 <path d="m55.642 24.467h-4.525v-3.017h9.023v3.017z" fill="var(--background-color)" fill-rule="evenodd" stroke="#4c4c4c" stroke-dasharray="1.1424, 1.1424, 1.1424, 1.1424" stroke-linejoin="round" stroke-miterlimit="10" stroke-width=".032"/>
 <path d="M52.537 23.752V22.41h.177v.55h.699v-.55h.178v1.343h-.178v-.632h-.699v.632ZM54.497 23.632a.656.656 0 0 1-.181.112.557.557 0 0 1-.178.029c-.108 0-.19-.026-.248-.079a.254.254 0 0 1-.087-.198.25.25 0 0 1 .033-.128.242.242 0 0 1 .087-.095.445.445 0 0 1 .12-.058c.03-.009.078-.017.144-.025.133-.014.23-.031.294-.054v-.045c0-.066-.016-.113-.046-.14-.04-.04-.103-.059-.186-.059a.303.303 0 0 0-.173.042.266.266 0 0 0-.083.144l-.161-.02a.423.423 0 0 1 .074-.166.302.302 0 0 1 .145-.099.597.597 0 0 1 .22-.037c.084 0 .152.01.202.029.051.02.09.044.115.074a.296.296 0 0 1 .054.112c.005.03.008.081.008.153v.219c0 .155.002.252.009.293.008.04.021.078.041.116h-.17a.251.251 0 0 1-.033-.12Zm-.016-.368a1.115 1.115 0 0 1-.269.062.49.49 0 0 0-.144.033.14.14 0 0 0-.067.054.142.142 0 0 0-.02.079c0 .044.016.081.05.111.032.028.08.042.144.042a.34.34 0 0 0 .17-.042.263.263 0 0 0 .111-.115.413.413 0 0 0 .025-.166ZM54.826 23.463l.161-.025c.01.064.038.114.079.149.041.036.1.054.174.054.076 0 .133-.015.17-.046a.151.151 0 0 0 .053-.112.105.105 0 0 0-.046-.086.613.613 0 0 0-.17-.058 1.434 1.434 0 0 1-.251-.079.24.24 0 0 1-.108-.09.267.267 0 0 1-.033-.133c0-.043.01-.084.03-.12a.275.275 0 0 1 .078-.09.476.476 0 0 1 .248-.07c.076-.001.144.01.202.032.058.023.1.053.128.09a.353.353 0 0 1 .058.15l-.161.024a.185.185 0 0 0-.066-.12.245.245 0 0 0-.149-.04c-.074 0-.128.012-.161.036-.033.025-.05.054-.05.087 0 .023.006.042.02.058.014.02.035.035.063.046.016.006.066.02.149.041.115.033.195.06.24.079.046.02.082.048.107.086a.23.23 0 0 1 .041.14.277.277 0 0 1-.05.158.308.308 0 0 1-.136.112.532.532 0 0 1-.202.037c-.127 0-.224-.026-.29-.079a.364.364 0 0 1-.128-.231zM55.845 23.752V22.41h.165v.483a.363.363 0 0 1 .29-.136.37.37 0 0 1 .186.045.242.242 0 0 1 .115.116c.025.05.038.123.038.22v.615h-.166v-.616c0-.083-.018-.141-.053-.178a.2.2 0 0 0-.153-.057.28.28 0 0 0-.141.037.22.22 0 0 0-.09.103.5.5 0 0 0-.026.178v.533ZM57.725 23.595v.157h-.888a.267.267 0 0 1 .016-.116.667.667 0 0 1 .112-.177c.05-.058.12-.125.215-.203.145-.12.244-.216.293-.285a.333.333 0 0 0 .079-.199.22.22 0 0 0-.07-.165.259.259 0 0 0-.182-.066.257.257 0 0 0-.19.07.278.278 0 0 0-.075.199l-.17-.017a.417.417 0 0 1 .129-.29c.076-.066.18-.099.31-.099.129 0 .231.037.306.108.074.072.111.16.111.264a.404.404 0 0 1-.033.158.63.63 0 0 1-.111.165 2.36 2.36 0 0 1-.253.236c-.099.082-.163.14-.19.17a.655.655 0 0 0-.07.09zM57.915 23.397l.165-.021c.02.094.051.161.096.203a.247.247 0 0 0 .17.062.275.275 0 0 0 .277-.281.246.246 0 0 0-.075-.187.259.259 0 0 0-.19-.074.562.562 0 0 0-.116.016l.016-.144c.01.003.02.004.03.004.067 0 .13-.018.185-.054.058-.038.087-.096.087-.173a.213.213 0 0 0-.22-.21.231.231 0 0 0-.164.06.306.306 0 0 0-.079.183l-.165-.03a.412.412 0 0 1 .136-.256.405.405 0 0 1 .269-.09.41.41 0 0 1 .198.049.337.337 0 0 1 .195.298.285.285 0 0 1-.05.16.308.308 0 0 1-.136.113c.08.02.141.057.186.115a.35.35 0 0 1 .066.215c0 .12-.044.22-.128.302a.457.457 0 0 1-.327.12.432.432 0 0 1-.294-.103.413.413 0 0 1-.132-.277zm0 0" fill="var(--text-color)"/>
 <path transform="translate(-427.3 285.17)" d="m481.44-260.7-0.264 1.878-1.086-0.53z" fill="var(--text-color)" fill-rule="evenodd" stroke-width=".26458"/>
 <path d="m51.117 30.473 2.356-4.71" fill="none" stroke="var(--text-color)" stroke-miterlimit="10" stroke-width=".026"/>
 <path transform="translate(-427.3 285.17)" d="m484.43-260.7 1.349 1.349-1.058 0.529z" fill="var(--text-color)" fill-rule="evenodd" stroke-width=".26458"/>
 <path d="m60.14 30.473-2.354-4.71" fill="none" stroke="var(--text-color)" stroke-miterlimit="10" stroke-width=".026"/>
 <path d="m48.101 16.952h-13.52v-13.547h27.067v13.547z" fill="var(--background-color)" fill-rule="evenodd" stroke="var(--text-color)" stroke-linejoin="round" stroke-miterlimit="10" stroke-width=".032"/>
 <path d="M36.226 6.237V4.893h.504c.101 0 .183.015.244.041.063.028.113.07.149.129a.303.303 0 0 1 .004.339.324.324 0 0 1-.14.12.362.362 0 0 1 .19.124.32.32 0 0 1 .066.202.38.38 0 0 1-.14.302.472.472 0 0 1-.15.066.912.912 0 0 1-.215.02Zm.178-.777h.293a.62.62 0 0 0 .17-.017.186.186 0 0 0 .099-.066.193.193 0 0 0 .037-.12.208.208 0 0 0-.033-.116.16.16 0 0 0-.095-.07.696.696 0 0 0-.203-.02h-.268Zm0 .62h.334a.535.535 0 0 0 .12-.009.327.327 0 0 0 .104-.037.18.18 0 0 0 .066-.074.224.224 0 0 0-.013-.24.19.19 0 0 0-.107-.079.586.586 0 0 0-.194-.024h-.31ZM37.453 6.237V4.893h.165v1.344ZM37.818 5.749c0-.179.05-.312.149-.401a.46.46 0 0 1 .306-.108c.134 0 .245.045.33.133.085.089.129.21.129.363 0 .125-.02.224-.058.298a.399.399 0 0 1-.166.166.497.497 0 0 1-.235.057.445.445 0 0 1-.331-.128c-.083-.088-.124-.215-.124-.38zm.17 0c0 .127.026.222.082.285a.26.26 0 0 0 .203.091c.082 0 .15-.03.206-.095.055-.063.083-.158.083-.285 0-.121-.028-.212-.083-.273a.265.265 0 0 0-.206-.095.258.258 0 0 0-.203.095c-.056.06-.083.153-.083.277ZM39.574 5.881l.162.02a.425.425 0 0 1-.14.261.384.384 0 0 1-.265.095.418.418 0 0 1-.323-.128c-.08-.088-.12-.213-.12-.376 0-.104.017-.195.05-.273a.362.362 0 0 1 .161-.178.455.455 0 0 1 .232-.062.39.39 0 0 1 .256.083.364.364 0 0 1 .132.227l-.161.025a.264.264 0 0 0-.079-.149.21.21 0 0 0-.14-.05.26.26 0 0 0-.207.092c-.05.058-.074.152-.074.28 0 .133.025.23.074.29.05.058.114.087.194.087.067 0 .12-.018.162-.058a.327.327 0 0 0 .086-.186ZM39.89 6.237V4.893h.166v.765l.388-.393h.215l-.372.36.41.612h-.203l-.322-.496-.116.111v.385ZM41.398 6.237V4.893h.177v.55h.7v-.55h.177v1.344h-.178v-.633h-.699v.633ZM43.388 5.923l.17.02a.396.396 0 0 1-.15.232.44.44 0 0 1-.277.082.448.448 0 0 1-.339-.128c-.082-.088-.124-.212-.124-.372 0-.162.042-.29.124-.38a.432.432 0 0 1 .331-.137c.13 0 .236.046.318.137a.525.525 0 0 1 .124.372l-.004.041h-.723a.37.37 0 0 0 .09.248.267.267 0 0 0 .203.087c.06 0 .112-.016.153-.05a.323.323 0 0 0 .104-.152zm-.542-.265h.546a.335.335 0 0 0-.066-.186.252.252 0 0 0-.203-.095.26.26 0 0 0-.19.078.292.292 0 0 0-.087.203zM44.416 6.117a.656.656 0 0 1-.181.111.557.557 0 0 1-.178.03c-.108 0-.19-.026-.248-.08a.254.254 0 0 1-.087-.198.25.25 0 0 1 .033-.128.242.242 0 0 1 .087-.095.445.445 0 0 1 .12-.058c.03-.008.078-.016.144-.025.133-.013.23-.03.294-.053v-.046c0-.066-.016-.112-.046-.14-.04-.039-.103-.058-.186-.058a.303.303 0 0 0-.173.041.266.266 0 0 0-.083.145l-.161-.02a.423.423 0 0 1 .074-.166.302.302 0 0 1 .145-.1.597.597 0 0 1 .22-.037c.084 0 .152.01.202.03.051.019.09.044.115.074a.296.296 0 0 1 .054.111c.005.031.008.082.008.153v.22c0 .154.002.252.009.293.008.04.021.077.041.116h-.17a.251.251 0 0 1-.033-.12Zm-.016-.368a1.115 1.115 0 0 1-.269.062.49.49 0 0 0-.144.033.14.14 0 0 0-.067.054.142.142 0 0 0-.02.078c0 .045.016.082.05.112.032.028.08.041.144.041a.34.34 0 0 0 .17-.041.263.263 0 0 0 .111-.116.413.413 0 0 0 .025-.165ZM45.47 6.237v-.124a.307.307 0 0 1-.273.144.397.397 0 0 1-.368-.24.664.664 0 0 1-.05-.264c0-.1.015-.187.046-.265a.383.383 0 0 1 .364-.248c.058 0 .11.013.157.038a.305.305 0 0 1 .112.099v-.484h.165v1.344Zm-.52-.484c0 .124.025.218.078.281a.236.236 0 0 0 .368.004c.05-.06.074-.15.074-.273 0-.132-.027-.229-.078-.293a.233.233 0 0 0-.372-.004c-.048.06-.07.156-.07.285zM46.535 5.923l.17.02a.396.396 0 0 1-.15.232.44.44 0 0 1-.277.082.448.448 0 0 1-.339-.128c-.082-.088-.124-.212-.124-.372 0-.162.042-.29.124-.38a.432.432 0 0 1 .331-.137c.13 0 .236.046.318.137a.525.525 0 0 1 .125.372l-.005.041h-.723a.37.37 0 0 0 .09.248.267.267 0 0 0 .203.087c.06 0 .112-.016.153-.05a.323.323 0 0 0 .104-.152zm-.542-.265h.546a.335.335 0 0 0-.066-.186.252.252 0 0 0-.203-.095.26.26 0 0 0-.19.078.292.292 0 0 0-.087.203zM46.923 6.237v-.972h.149v.145a.44.44 0 0 1 .103-.137.191.191 0 0 1 .108-.033c.057 0 .113.019.169.054l-.054.153a.24.24 0 0 0-.124-.037.166.166 0 0 0-.099.033.172.172 0 0 0-.058.09.604.604 0 0 0-.029.195v.509Zm0 0" fill="var(--text-color)"/>
 <path d="m46.329 15.444h-6.006v-3.016h12.039v3.016z" fill="var(--background-color)" fill-rule="evenodd" stroke="var(--text-color)" stroke-linejoin="round" stroke-miterlimit="10" stroke-width=".032"/>
 <path d="M41.39 14.677v-1.344h.264l.318.951.066.199c.014-.05.038-.121.07-.215l.323-.935h.24v1.344h-.174v-1.125l-.388 1.125h-.162l-.388-1.145v1.145ZM43.573 14.363l.17.02a.396.396 0 0 1-.149.232.44.44 0 0 1-.277.083.448.448 0 0 1-.339-.129c-.083-.087-.124-.211-.124-.372 0-.162.041-.289.124-.38a.432.432 0 0 1 .33-.136c.13 0 .237.045.32.136a.525.525 0 0 1 .123.372l-.004.041h-.723a.37.37 0 0 0 .09.249.267.267 0 0 0 .203.086c.06 0 .112-.016.153-.05a.323.323 0 0 0 .103-.152zm-.541-.265h.546a.335.335 0 0 0-.067-.186.252.252 0 0 0-.202-.095.26.26 0 0 0-.19.079.292.292 0 0 0-.087.202zM43.962 14.677v-.972h.148v.145a.44.44 0 0 1 .104-.136.191.191 0 0 1 .107-.033c.058 0 .114.018.17.053l-.054.153a.24.24 0 0 0-.124-.037.166.166 0 0 0-.1.033.172.172 0 0 0-.057.091.604.604 0 0 0-.03.194v.509ZM44.574 14.677v-1.344h.166v.765l.388-.393h.215l-.372.36.41.612h-.203l-.322-.496-.116.111v.385ZM45.523 14.677v-1.344h.165v1.344ZM46.642 14.363l.17.02a.396.396 0 0 1-.15.232.44.44 0 0 1-.277.083.448.448 0 0 1-.339-.129c-.082-.087-.124-.211-.124-.372 0-.162.042-.289.124-.38a.432.432 0 0 1 .331-.136c.13 0 .236.045.318.136a.525.525 0 0 1 .124.372l-.004.041h-.723a.37.37 0 0 0 .09.249.267.267 0 0 0 .203.086c.06 0 .112-.016.153-.05a.323.323 0 0 0 .104-.152zm-.542-.265h.546a.335.335 0 0 0-.066-.186.252.252 0 0 0-.203-.095.26.26 0 0 0-.19.079.292.292 0 0 0-.087.202zM47.562 14.677v-1.344h.596c.117 0 .207.013.268.038a.3.3 0 0 1 .15.128.373.373 0 0 1-.034.442c-.06.066-.156.108-.285.124a.501.501 0 0 1 .107.066c.052.05.102.11.15.182l.23.364h-.223l-.177-.281a2.708 2.708 0 0 0-.129-.182.373.373 0 0 0-.09-.091.41.41 0 0 0-.079-.037 1.097 1.097 0 0 0-.1-.004h-.206v.595Zm.178-.752h.38a.567.567 0 0 0 .19-.025.192.192 0 0 0 .104-.079.218.218 0 0 0 .037-.12.202.202 0 0 0-.07-.157c-.045-.041-.116-.062-.215-.062h-.426ZM48.825 14.19c0-.18.05-.313.148-.402a.46.46 0 0 1 .306-.107c.135 0 .245.044.331.132.085.089.128.21.128.364 0 .124-.02.223-.058.297a.399.399 0 0 1-.165.166.497.497 0 0 1-.236.058.445.445 0 0 1-.33-.129c-.083-.087-.124-.215-.124-.38zm.169 0c0 .126.027.221.083.284a.26.26 0 0 0 .202.091c.083 0 .151-.03.207-.095.055-.063.083-.158.083-.285 0-.12-.028-.212-.083-.273a.265.265 0 0 0-.207-.095.258.258 0 0 0-.202.095c-.056.061-.083.153-.083.277ZM49.882 14.19c0-.18.05-.313.15-.402a.46.46 0 0 1 .305-.107c.134 0 .245.044.33.132.086.089.129.21.129.364 0 .124-.02.223-.058.297a.399.399 0 0 1-.165.166.497.497 0 0 1-.236.058.445.445 0 0 1-.33-.129c-.083-.087-.125-.215-.125-.38zm.17 0c0 .126.027.221.083.284a.26.26 0 0 0 .202.091c.083 0 .151-.03.207-.095.055-.063.083-.158.083-.285 0-.12-.028-.212-.083-.273a.265.265 0 0 0-.207-.095.258.258 0 0 0-.202.095c-.056.061-.083.153-.083.277ZM51.362 14.528l.025.149a.737.737 0 0 1-.124.012.288.288 0 0 1-.14-.029.157.157 0 0 1-.071-.074.552.552 0 0 1-.02-.194v-.558h-.12v-.129h.12v-.243l.165-.1v.343h.165v.129h-.165v.566a.28.28 0 0 0 .008.09.06.06 0 0 0 .029.034.112.112 0 0 0 .058.012c.016 0 .039-.002.07-.008zm0 0" fill="var(--text-color)"/>
 <path transform="translate(-427.3 285.17)" d="m470.91-269.73-0.61 1.8-0.951-0.715z" fill="var(--text-color)" fill-rule="evenodd" stroke-width=".26458"/>
 <path d="m39.079 21.45 3.651-4.841" fill="none" stroke="var(--text-color)" stroke-miterlimit="10" stroke-width=".026"/>
 <path transform="translate(-427.3 285.17)" d="m476.91-269.73 1.562 1.085-0.953 0.715z" fill="var(--text-color)" fill-rule="evenodd" stroke-width=".26458"/>
 <path d="m54.134 21.45-3.651-4.841" fill="none" stroke="var(--text-color)" stroke-miterlimit="10" stroke-width=".026"/>
 <path d="m43.604 10.92h-6.006v-2.99h12.011v2.99z" fill="var(--background-color)" fill-rule="evenodd" stroke="var(--text-color)" stroke-linejoin="round" stroke-miterlimit="10" stroke-width=".032"/>
 <path d="M39.356 10.153V8.809h.509c.087 0 .155.004.202.012a.348.348 0 0 1 .273.194.412.412 0 0 1 .041.183c0 .113-.037.21-.111.289-.073.08-.203.12-.393.12h-.343v.546Zm.178-.703h.347c.116 0 .197-.022.244-.066a.23.23 0 0 0 .075-.182.225.225 0 0 0-.046-.14.203.203 0 0 0-.112-.084.738.738 0 0 0-.165-.012h-.343ZM40.601 10.153V9.18h.15v.145a.44.44 0 0 1 .103-.137.191.191 0 0 1 .107-.033c.058 0 .114.019.17.054l-.054.153a.24.24 0 0 0-.124-.037.166.166 0 0 0-.1.033.172.172 0 0 0-.057.09.604.604 0 0 0-.03.195v.509ZM41.88 9.838l.17.021a.396.396 0 0 1-.15.232.44.44 0 0 1-.276.082.448.448 0 0 1-.34-.128c-.082-.088-.123-.212-.123-.372 0-.162.041-.29.124-.38a.432.432 0 0 1 .33-.137c.13 0 .236.046.319.137a.525.525 0 0 1 .124.372l-.004.041h-.724a.37.37 0 0 0 .091.248.267.267 0 0 0 .203.087c.06 0 .111-.017.153-.05a.323.323 0 0 0 .103-.153zm-.542-.264h.546a.335.335 0 0 0-.066-.186.252.252 0 0 0-.203-.095.26.26 0 0 0-.19.078.292.292 0 0 0-.087.203zM42.54 10.153l-.367-.972h.174l.206.583c.025.06.047.126.066.194.014-.051.034-.113.058-.186l.22-.591h.169l-.368.972ZM43.753 10.153V8.809h.178v.55h.699v-.55h.177v1.344h-.177V9.52h-.699v.633ZM45.714 10.033a.656.656 0 0 1-.182.111.557.557 0 0 1-.178.03c-.107 0-.19-.027-.248-.08a.254.254 0 0 1-.086-.198.25.25 0 0 1 .033-.128.242.242 0 0 1 .086-.095.445.445 0 0 1 .12-.058c.03-.008.079-.016.145-.025.132-.013.23-.03.294-.053V9.49c0-.066-.016-.113-.046-.14-.041-.039-.103-.058-.186-.058a.303.303 0 0 0-.174.041.266.266 0 0 0-.082.145l-.161-.021a.423.423 0 0 1 .074-.165.302.302 0 0 1 .145-.1.597.597 0 0 1 .219-.037c.084 0 .153.01.202.03.052.019.091.044.116.074a.296.296 0 0 1 .054.111c.005.031.008.082.008.153v.22c0 .154.002.251.008.293.009.04.022.077.042.116h-.17a.251.251 0 0 1-.033-.12Zm-.016-.368a1.115 1.115 0 0 1-.27.062.49.49 0 0 0-.144.033.14.14 0 0 0-.066.054.142.142 0 0 0-.02.078c0 .045.016.082.049.112.033.028.08.041.145.041a.34.34 0 0 0 .17-.041.263.263 0 0 0 .11-.116.413.413 0 0 0 .026-.165ZM46.07 9.863l.16-.025c.01.064.038.114.079.15.041.035.1.053.174.053.076 0 .133-.015.169-.046a.151.151 0 0 0 .054-.111.105.105 0 0 0-.046-.087.613.613 0 0 0-.17-.058 1.434 1.434 0 0 1-.251-.078.24.24 0 0 1-.108-.091.267.267 0 0 1-.033-.133c0-.043.01-.083.029-.12a.275.275 0 0 1 .079-.09.476.476 0 0 1 .248-.07c.076 0 .144.01.202.032.058.023.1.053.128.091a.353.353 0 0 1 .058.15l-.161.024a.185.185 0 0 0-.066-.12.245.245 0 0 0-.149-.041c-.074 0-.128.012-.161.037-.033.025-.05.054-.05.087 0 .022.006.041.02.058.014.02.035.035.063.045.016.006.066.02.149.041.115.033.195.06.24.079.046.02.082.049.107.087a.23.23 0 0 1 .041.14.277.277 0 0 1-.05.157.308.308 0 0 1-.136.112.532.532 0 0 1-.202.037c-.127 0-.224-.026-.29-.078a.364.364 0 0 1-.128-.232zM47.088 10.153V8.809h.165v.484a.363.363 0 0 1 .29-.137.37.37 0 0 1 .186.046.242.242 0 0 1 .115.115c.025.05.038.123.038.22v.616h-.166v-.616c0-.083-.018-.142-.053-.178a.2.2 0 0 0-.153-.058.28.28 0 0 0-.141.037.22.22 0 0 0-.09.103.5.5 0 0 0-.026.178v.534Zm0 0" fill="var(--text-color)"/>
 <path d="m55.642 10.92h-4.525v-2.99h9.023v2.99z" fill="var(--background-color)" fill-rule="evenodd" stroke="var(--text-color)" stroke-linejoin="round" stroke-miterlimit="10" stroke-width=".032"/>
 <path d="M52.982 10.153V8.809h.182l.703 1.054V8.81h.174v1.344h-.182l-.707-1.055v1.055ZM54.275 9.665c0-.18.05-.312.149-.401a.46.46 0 0 1 .306-.108c.134 0 .245.045.33.133.085.088.129.21.129.363 0 .124-.02.224-.058.298a.399.399 0 0 1-.166.165.497.497 0 0 1-.235.058.445.445 0 0 1-.331-.128c-.083-.088-.124-.215-.124-.38zm.17 0c0 .127.026.222.082.285a.26.26 0 0 0 .203.09c.082 0 .15-.03.206-.094.055-.063.083-.158.083-.285 0-.121-.028-.212-.083-.273a.265.265 0 0 0-.206-.095.258.258 0 0 0-.203.095c-.056.06-.083.153-.083.277ZM55.368 10.153V9.18h.15v.136a.35.35 0 0 1 .31-.16c.057 0 .11.01.16.032.05.023.085.05.108.083a.327.327 0 0 1 .054.12c.005.033.008.087.008.161v.6h-.165V9.56a.433.433 0 0 0-.021-.153.144.144 0 0 0-.066-.078.234.234 0 0 0-.116-.03c-.07 0-.13.024-.182.067-.05.045-.074.128-.074.252v.534ZM57.063 9.797l.161.02a.425.425 0 0 1-.14.261.384.384 0 0 1-.265.095.418.418 0 0 1-.322-.128c-.081-.088-.12-.213-.12-.376 0-.105.016-.195.05-.273a.362.362 0 0 1 .16-.178.455.455 0 0 1 .232-.062.39.39 0 0 1 .256.083.364.364 0 0 1 .133.227l-.162.025a.264.264 0 0 0-.078-.149.21.21 0 0 0-.14-.05.26.26 0 0 0-.207.092c-.05.057-.075.152-.075.28 0 .133.025.23.075.29.05.058.113.087.194.087.066 0 .12-.019.161-.058a.327.327 0 0 0 .087-.186ZM58.044 9.838l.17.021a.396.396 0 0 1-.149.232.44.44 0 0 1-.277.082.448.448 0 0 1-.339-.128c-.083-.088-.124-.212-.124-.372 0-.162.041-.29.124-.38a.432.432 0 0 1 .33-.137c.13 0 .237.046.32.137a.525.525 0 0 1 .123.372l-.004.041h-.723a.37.37 0 0 0 .09.248.267.267 0 0 0 .203.087c.06 0 .112-.017.153-.05a.323.323 0 0 0 .103-.153zm-.541-.264h.546a.335.335 0 0 0-.067-.186.252.252 0 0 0-.202-.095.26.26 0 0 0-.19.078.292.292 0 0 0-.087.203zm0 0" fill="var(--text-color)"/>
 <path d="M16.536 16.952H2.99V3.405h27.067v13.547zm0 0" fill="var(--background-color)" fill-rule="evenodd" stroke="var(--text-color)" stroke-linejoin="round" stroke-miterlimit="10" stroke-width=".032"/>
 <path d="M4.582 6.237V4.893h.504c.101 0 .183.015.244.041.063.028.113.07.149.129a.303.303 0 0 1 .004.339.324.324 0 0 1-.14.12.362.362 0 0 1 .19.124.32.32 0 0 1 .066.202.38.38 0 0 1-.14.302.472.472 0 0 1-.15.066.912.912 0 0 1-.215.02Zm.177-.777h.294a.62.62 0 0 0 .17-.017.186.186 0 0 0 .099-.066.193.193 0 0 0 .037-.12.208.208 0 0 0-.033-.116.16.16 0 0 0-.095-.07.696.696 0 0 0-.203-.02H4.76Zm0 .62h.335a.535.535 0 0 0 .12-.009.327.327 0 0 0 .104-.037.18.18 0 0 0 .066-.074.224.224 0 0 0-.013-.24.19.19 0 0 0-.107-.079.586.586 0 0 0-.195-.024h-.31ZM5.809 6.237V4.893h.165v1.344ZM6.174 5.749c0-.179.05-.312.149-.401a.46.46 0 0 1 .306-.108c.134 0 .245.045.33.133.085.089.128.21.128.363 0 .125-.02.224-.057.298a.399.399 0 0 1-.166.166.497.497 0 0 1-.235.057.445.445 0 0 1-.331-.128c-.083-.088-.124-.215-.124-.38zm.17 0c0 .127.026.222.082.285a.26.26 0 0 0 .203.091c.082 0 .15-.03.206-.095.055-.063.083-.158.083-.285 0-.121-.028-.212-.083-.273a.265.265 0 0 0-.206-.095.258.258 0 0 0-.203.095c-.056.06-.083.153-.083.277ZM7.93 5.881l.162.02a.425.425 0 0 1-.141.261.384.384 0 0 1-.265.095.418.418 0 0 1-.322-.128c-.08-.088-.12-.213-.12-.376 0-.104.017-.195.05-.273a.362.362 0 0 1 .16-.178.455.455 0 0 1 .232-.062.39.39 0 0 1 .257.083.364.364 0 0 1 .132.227l-.161.025a.264.264 0 0 0-.079-.149.21.21 0 0 0-.14-.05.26.26 0 0 0-.207.092c-.05.058-.074.152-.074.28 0 .133.024.23.074.29.05.058.114.087.194.087.066 0 .12-.018.162-.058a.327.327 0 0 0 .086-.186ZM8.246 6.237V4.893h.166v.765l.388-.393h.215l-.372.36.41.612H8.85l-.323-.496-.115.111v.385ZM9.754 6.237V4.893h.177v.55h.699v-.55h.178v1.344h-.178v-.633h-.699v.633ZM11.743 5.923l.17.02a.396.396 0 0 1-.149.232.44.44 0 0 1-.277.082.448.448 0 0 1-.339-.128c-.083-.088-.124-.212-.124-.372 0-.162.041-.29.124-.38a.432.432 0 0 1 .33-.137c.13 0 .236.046.32.137a.525.525 0 0 1 .123.372l-.004.041h-.723a.37.37 0 0 0 .09.248.267.267 0 0 0 .203.087c.06 0 .112-.016.153-.05a.323.323 0 0 0 .103-.152zm-.541-.265h.546a.335.335 0 0 0-.067-.186.252.252 0 0 0-.202-.095.26.26 0 0 0-.19.078.292.292 0 0 0-.087.203zM12.772 6.117a.656.656 0 0 1-.182.111.557.557 0 0 1-.177.03c-.108 0-.19-.026-.248-.08a.254.254 0 0 1-.087-.198.25.25 0 0 1 .033-.128.242.242 0 0 1 .087-.095.445.445 0 0 1 .12-.058c.03-.008.078-.016.144-.025.133-.013.23-.03.294-.053v-.046c0-.066-.016-.112-.046-.14-.041-.039-.103-.058-.186-.058a.303.303 0 0 0-.173.041.266.266 0 0 0-.083.145l-.161-.02a.423.423 0 0 1 .074-.166.302.302 0 0 1 .145-.1.597.597 0 0 1 .219-.037c.085 0 .153.01.202.03.052.019.091.044.116.074a.296.296 0 0 1 .054.111c.005.031.008.082.008.153v.22c0 .154.002.252.009.293.008.04.021.077.04.116h-.169a.251.251 0 0 1-.033-.12Zm-.016-.368a1.115 1.115 0 0 1-.269.062.49.49 0 0 0-.145.033.14.14 0 0 0-.066.054.142.142 0 0 0-.02.078c0 .045.016.082.05.112.032.028.08.041.144.041a.34.34 0 0 0 .17-.041.263.263 0 0 0 .11-.116.413.413 0 0 0 .026-.165ZM13.826 6.237v-.124a.307.307 0 0 1-.273.144.397.397 0 0 1-.368-.24.664.664 0 0 1-.05-.264c0-.1.015-.187.046-.265a.383.383 0 0 1 .364-.248c.058 0 .11.013.157.038a.305.305 0 0 1 .112.099v-.484h.165v1.344Zm-.52-.484c0 .124.025.218.078.281a.236.236 0 0 0 .368.004c.05-.06.074-.15.074-.273 0-.132-.027-.229-.079-.293a.233.233 0 0 0-.372-.004c-.047.06-.07.156-.07.285zM14.89 5.923l.17.02a.396.396 0 0 1-.149.232.44.44 0 0 1-.277.082.448.448 0 0 1-.339-.128c-.082-.088-.124-.212-.124-.372 0-.162.042-.29.124-.38a.432.432 0 0 1 .331-.137c.13 0 .236.046.318.137a.525.525 0 0 1 .124.372l-.004.041h-.723a.37.37 0 0 0 .09.248.267.267 0 0 0 .203.087c.06 0 .112-.016.153-.05a.323.323 0 0 0 .104-.152zm-.541-.265h.546a.335.335 0 0 0-.066-.186.252.252 0 0 0-.203-.095.26.26 0 0 0-.19.078.292.292 0 0 0-.087.203zM15.279 6.237v-.972h.149v.145a.44.44 0 0 1 .103-.137.191.191 0 0 1 .107-.033c.058 0 .114.019.17.054l-.054.153a.24.24 0 0 0-.124-.037.166.166 0 0 0-.1.033.172.172 0 0 0-.057.09.604.604 0 0 0-.029.195v.509Zm0 0" fill="var(--text-color)"/>
 <path d="m14.5 15.444h-6.034v-3.016h12.038v3.016z" fill="var(--background-color)" fill-rule="evenodd" stroke="var(--text-color)" stroke-linejoin="round" stroke-miterlimit="10" stroke-width=".032"/>
 <path d="M9.586 14.677v-1.344h.265l.318.951.066.199c.014-.05.038-.121.07-.215l.323-.935h.24v1.344h-.174v-1.125l-.388 1.125h-.162l-.388-1.145v1.145ZM11.77 14.363l.17.02a.396.396 0 0 1-.149.232.44.44 0 0 1-.277.083.448.448 0 0 1-.339-.129c-.082-.087-.124-.211-.124-.372 0-.162.042-.289.124-.38a.432.432 0 0 1 .33-.136c.13 0 .237.045.32.136a.525.525 0 0 1 .123.372l-.004.041h-.723a.37.37 0 0 0 .09.249.267.267 0 0 0 .203.086c.06 0 .112-.016.153-.05a.323.323 0 0 0 .104-.152zm-.541-.265h.546a.335.335 0 0 0-.066-.186.252.252 0 0 0-.203-.095.26.26 0 0 0-.19.079.292.292 0 0 0-.087.202zM12.159 14.677v-.972h.148v.145a.44.44 0 0 1 .104-.136.191.191 0 0 1 .107-.033c.058 0 .114.018.17.053l-.054.153a.24.24 0 0 0-.124-.037.166.166 0 0 0-.1.033.172.172 0 0 0-.057.091.604.604 0 0 0-.029.194v.509ZM12.798 14.677v-1.344h.165v.765l.389-.393h.215l-.372.36.409.612h-.203l-.322-.496-.116.111v.385ZM13.746 14.677v-1.344h.166v1.344ZM14.839 14.363l.17.02a.396.396 0 0 1-.15.232.44.44 0 0 1-.277.083.448.448 0 0 1-.339-.129c-.082-.087-.124-.211-.124-.372 0-.162.042-.289.124-.38a.432.432 0 0 1 .331-.136c.13 0 .236.045.319.136a.525.525 0 0 1 .124.372l-.005.041h-.723a.37.37 0 0 0 .09.249.267.267 0 0 0 .203.086c.06 0 .112-.016.153-.05a.323.323 0 0 0 .104-.152zm-.542-.265h.546a.335.335 0 0 0-.066-.186.252.252 0 0 0-.203-.095.26.26 0 0 0-.19.079.292.292 0 0 0-.087.202zM15.76 14.677v-1.344h.595c.118 0 .207.013.268.038a.3.3 0 0 1 .15.128.373.373 0 0 1-.034.442c-.06.066-.156.108-.285.124a.501.501 0 0 1 .107.066c.052.05.102.11.15.182l.23.364h-.222l-.178-.281a2.708 2.708 0 0 0-.128-.182.373.373 0 0 0-.091-.091.41.41 0 0 0-.079-.037 1.097 1.097 0 0 0-.1-.004h-.206v.595Zm.177-.752h.38a.567.567 0 0 0 .19-.025.192.192 0 0 0 .104-.079.218.218 0 0 0 .037-.12.202.202 0 0 0-.07-.157c-.044-.041-.116-.062-.215-.062h-.426ZM17.048 14.19c0-.18.05-.313.149-.402a.46.46 0 0 1 .306-.107c.134 0 .245.044.33.132.085.089.129.21.129.364 0 .124-.02.223-.058.297a.399.399 0 0 1-.166.166.497.497 0 0 1-.235.058.445.445 0 0 1-.331-.129c-.083-.087-.124-.215-.124-.38zm.17 0c0 .126.026.221.082.284a.26.26 0 0 0 .203.091c.082 0 .15-.03.206-.095.055-.063.083-.158.083-.285 0-.12-.028-.212-.083-.273a.265.265 0 0 0-.206-.095.258.258 0 0 0-.203.095c-.056.061-.083.153-.083.277ZM18.08 14.19c0-.18.05-.313.148-.402a.46.46 0 0 1 .306-.107c.135 0 .245.044.33.132.086.089.13.21.13.364 0 .124-.02.223-.059.297a.399.399 0 0 1-.165.166.497.497 0 0 1-.236.058.445.445 0 0 1-.33-.129c-.083-.087-.125-.215-.125-.38zm.169 0c0 .126.027.221.083.284a.26.26 0 0 0 .202.091c.083 0 .151-.03.207-.095.055-.063.083-.158.083-.285 0-.12-.028-.212-.083-.273a.265.265 0 0 0-.207-.095.258.258 0 0 0-.202.095c-.056.061-.083.153-.083.277ZM19.559 14.528l.025.149a.737.737 0 0 1-.124.012.288.288 0 0 1-.14-.029.157.157 0 0 1-.071-.074.552.552 0 0 1-.02-.194v-.558h-.12v-.129h.12v-.243l.165-.1v.343h.165v.129h-.165v.566a.28.28 0 0 0 .008.09.06.06 0 0 0 .029.034.112.112 0 0 0 .058.012c.016 0 .039-.002.07-.008zm0 0" fill="var(--text-color)"/>
 <path d="m11.748 10.92h-6.007v-2.99h12.039v2.99z" fill="var(--background-color)" fill-rule="evenodd" stroke="var(--text-color)" stroke-linejoin="round" stroke-miterlimit="10" stroke-width=".032"/>
 <path d="M7.553 10.153V8.809h.509c.088 0 .155.004.202.012a.348.348 0 0 1 .273.194.412.412 0 0 1 .041.183c0 .113-.037.21-.111.289-.072.08-.203.12-.393.12h-.343v.546Zm.178-.703h.347c.116 0 .197-.022.244-.066a.23.23 0 0 0 .075-.182.225.225 0 0 0-.046-.14.203.203 0 0 0-.112-.084.738.738 0 0 0-.165-.012h-.343ZM8.799 10.153V9.18h.148v.145a.44.44 0 0 1 .104-.137.191.191 0 0 1 .107-.033c.058 0 .114.019.17.054l-.054.153a.24.24 0 0 0-.124-.037.166.166 0 0 0-.1.033.172.172 0 0 0-.057.09.604.604 0 0 0-.03.195v.509ZM10.103 9.838l.17.021a.396.396 0 0 1-.149.232.44.44 0 0 1-.277.082.448.448 0 0 1-.339-.128c-.083-.088-.124-.212-.124-.372 0-.162.041-.29.124-.38a.432.432 0 0 1 .33-.137c.13 0 .236.046.32.137a.525.525 0 0 1 .123.372l-.004.041h-.723a.37.37 0 0 0 .09.248.267.267 0 0 0 .203.087c.06 0 .112-.017.153-.05a.323.323 0 0 0 .103-.153zm-.541-.264h.546a.335.335 0 0 0-.067-.186.252.252 0 0 0-.202-.095.26.26 0 0 0-.19.078.292.292 0 0 0-.087.203zM10.738 10.153l-.368-.972h.174l.206.583c.025.06.047.126.067.194.013-.051.033-.113.057-.186l.22-.591h.17l-.369.972ZM11.95 10.153V8.809h.178v.55h.699v-.55h.177v1.344h-.177V9.52h-.699v.633ZM13.911 10.033a.656.656 0 0 1-.182.111.557.557 0 0 1-.177.03c-.108 0-.19-.027-.249-.08a.254.254 0 0 1-.086-.198.25.25 0 0 1 .033-.128.242.242 0 0 1 .087-.095.445.445 0 0 1 .12-.058c.03-.008.078-.016.144-.025.132-.013.23-.03.294-.053V9.49c0-.066-.016-.113-.046-.14-.041-.039-.103-.058-.186-.058a.303.303 0 0 0-.173.041.266.266 0 0 0-.083.145l-.161-.021a.423.423 0 0 1 .074-.165.302.302 0 0 1 .145-.1.597.597 0 0 1 .219-.037c.085 0 .153.01.202.03.052.019.091.044.116.074a.296.296 0 0 1 .054.111c.005.031.008.082.008.153v.22c0 .154.002.251.008.293.009.04.022.077.042.116h-.17a.251.251 0 0 1-.033-.12Zm-.016-.368a1.115 1.115 0 0 1-.27.062.49.49 0 0 0-.144.033.14.14 0 0 0-.066.054.142.142 0 0 0-.02.078c0 .045.016.082.049.112.033.028.08.041.145.041a.34.34 0 0 0 .17-.041.263.263 0 0 0 .11-.116.413.413 0 0 0 .026-.165ZM14.266 9.863l.161-.025c.01.064.038.114.079.15.041.035.1.053.174.053.076 0 .133-.015.17-.046a.151.151 0 0 0 .053-.111.105.105 0 0 0-.046-.087.613.613 0 0 0-.17-.058 1.434 1.434 0 0 1-.251-.078.24.24 0 0 1-.108-.091.267.267 0 0 1-.033-.133c0-.043.01-.083.03-.12a.275.275 0 0 1 .078-.09.476.476 0 0 1 .248-.07c.076 0 .144.01.202.032.058.023.1.053.128.091a.353.353 0 0 1 .058.15l-.16.024a.185.185 0 0 0-.067-.12.245.245 0 0 0-.149-.041c-.074 0-.128.012-.161.037-.033.025-.05.054-.05.087 0 .022.006.041.02.058.014.02.035.035.063.045.016.006.066.02.149.041.116.033.195.06.24.079.046.02.082.049.107.087a.23.23 0 0 1 .041.14.277.277 0 0 1-.05.157.308.308 0 0 1-.136.112.532.532 0 0 1-.202.037c-.127 0-.223-.026-.29-.078a.364.364 0 0 1-.128-.232zM15.285 10.153V8.809h.165v.484a.363.363 0 0 1 .29-.137.37.37 0 0 1 .186.046.242.242 0 0 1 .116.115c.024.05.037.123.037.22v.616h-.166v-.616c0-.083-.018-.142-.053-.178a.2.2 0 0 0-.153-.058.28.28 0 0 0-.14.037.22.22 0 0 0-.092.103.5.5 0 0 0-.025.178v.534Zm0 0" fill="var(--text-color)"/>
 <path d="m23.787 10.92h-4.525v-2.99h9.023v2.99z" fill="var(--background-color)" fill-rule="evenodd" stroke="var(--text-color)" stroke-linejoin="round" stroke-miterlimit="10" stroke-width=".032"/>
 <path d="M21.18 10.153V8.809h.181l.703 1.054V8.81h.174v1.344h-.182l-.707-1.055v1.055ZM22.446 9.665c0-.18.05-.312.148-.401a.46.46 0 0 1 .306-.108c.135 0 .245.045.331.133.085.088.128.21.128.363 0 .124-.02.224-.058.298a.399.399 0 0 1-.165.165.497.497 0 0 1-.236.058.445.445 0 0 1-.33-.128c-.083-.088-.124-.215-.124-.38zm.17 0c0 .127.026.222.082.285a.26.26 0 0 0 .202.09c.083 0 .151-.03.207-.094.055-.063.083-.158.083-.285 0-.121-.028-.212-.083-.273a.265.265 0 0 0-.207-.095.258.258 0 0 0-.202.095c-.056.06-.083.153-.083.277ZM23.54 10.153V9.18h.148v.136a.35.35 0 0 1 .31-.16c.058 0 .112.01.161.032.05.023.085.05.108.083a.327.327 0 0 1 .054.12c.005.033.008.087.008.161v.6h-.166V9.56a.433.433 0 0 0-.02-.153.144.144 0 0 0-.066-.078.234.234 0 0 0-.116-.03c-.07 0-.13.024-.182.067-.05.045-.074.128-.074.252v.534ZM25.234 9.797l.16.02a.425.425 0 0 1-.14.261.384.384 0 0 1-.264.095.418.418 0 0 1-.323-.128c-.08-.088-.12-.213-.12-.376 0-.105.017-.195.05-.273a.362.362 0 0 1 .161-.178.455.455 0 0 1 .232-.062.39.39 0 0 1 .256.083.364.364 0 0 1 .132.227l-.16.025a.264.264 0 0 0-.08-.149.21.21 0 0 0-.14-.05.26.26 0 0 0-.207.092c-.05.057-.074.152-.074.28 0 .133.025.23.074.29.05.058.114.087.195.087.066 0 .12-.019.16-.058a.327.327 0 0 0 .088-.186ZM26.215 9.838l.17.021a.396.396 0 0 1-.15.232.44.44 0 0 1-.276.082.448.448 0 0 1-.34-.128c-.082-.088-.123-.212-.123-.372 0-.162.041-.29.124-.38a.432.432 0 0 1 .33-.137c.13 0 .236.046.319.137a.525.525 0 0 1 .124.372l-.004.041h-.724a.37.37 0 0 0 .091.248.267.267 0 0 0 .203.087c.06 0 .112-.017.153-.05a.323.323 0 0 0 .103-.153zm-.541-.264h.545a.335.335 0 0 0-.066-.186.252.252 0 0 0-.202-.095.26.26 0 0 0-.19.078.292.292 0 0 0-.087.203zm0 0" fill="var(--text-color)"/>
 <path d="m79.692 16.952h-13.546v-13.547h27.067v13.547z" fill="var(--background-color)" fill-rule="evenodd" stroke="var(--text-color)" stroke-linejoin="round" stroke-miterlimit="10" stroke-width=".032"/>
 <path d="M67.711 6.237V4.893h.505c.1 0 .183.015.243.041.064.028.113.07.15.129a.303.303 0 0 1 .004.339.324.324 0 0 1-.141.12.362.362 0 0 1 .19.124.32.32 0 0 1 .066.202.38.38 0 0 1-.14.302.472.472 0 0 1-.15.066.912.912 0 0 1-.214.02Zm.178-.777h.294a.62.62 0 0 0 .169-.017.186.186 0 0 0 .1-.066.193.193 0 0 0 .036-.12.208.208 0 0 0-.033-.116.16.16 0 0 0-.095-.07.696.696 0 0 0-.202-.02h-.269Zm0 .62h.335a.535.535 0 0 0 .12-.009.327.327 0 0 0 .103-.037.18.18 0 0 0 .066-.074.224.224 0 0 0-.012-.24.19.19 0 0 0-.108-.079.586.586 0 0 0-.194-.024h-.31ZM68.939 6.237V4.893h.165v1.344ZM69.303 5.749c0-.179.05-.312.15-.401a.46.46 0 0 1 .305-.108c.135 0 .245.045.33.133.086.089.129.21.129.363 0 .125-.02.224-.058.298a.399.399 0 0 1-.165.166.497.497 0 0 1-.236.057.445.445 0 0 1-.33-.128c-.083-.088-.125-.215-.125-.38zm.17 0c0 .127.027.222.083.285a.26.26 0 0 0 .202.091c.083 0 .151-.03.207-.095.055-.063.083-.158.083-.285 0-.121-.028-.212-.083-.273a.265.265 0 0 0-.207-.095.258.258 0 0 0-.202.095c-.056.06-.083.153-.083.277ZM71.06 5.881l.161.02a.425.425 0 0 1-.14.261.384.384 0 0 1-.265.095.418.418 0 0 1-.322-.128c-.081-.088-.12-.213-.12-.376 0-.104.016-.195.05-.273a.362.362 0 0 1 .16-.178.455.455 0 0 1 .232-.062.39.39 0 0 1 .256.083.364.364 0 0 1 .133.227l-.162.025a.264.264 0 0 0-.078-.149.21.21 0 0 0-.14-.05.26.26 0 0 0-.207.092c-.05.058-.075.152-.075.28 0 .133.025.23.075.29.05.058.113.087.194.087.066 0 .12-.018.161-.058a.327.327 0 0 0 .087-.186ZM71.376 6.237V4.893h.165v.765l.389-.393h.215l-.372.36.409.612h-.203l-.322-.496-.116.111v.385ZM72.883 6.237V4.893h.178v.55h.699v-.55h.177v1.344h-.177v-.633h-.7v.633ZM74.873 5.923l.17.02a.396.396 0 0 1-.15.232.44.44 0 0 1-.276.082.448.448 0 0 1-.34-.128c-.082-.088-.123-.212-.123-.372 0-.162.041-.29.124-.38a.432.432 0 0 1 .33-.137c.13 0 .236.046.319.137a.525.525 0 0 1 .124.372l-.004.041h-.724a.37.37 0 0 0 .091.248.267.267 0 0 0 .203.087c.06 0 .111-.016.153-.05a.323.323 0 0 0 .103-.152zm-.542-.265h.546a.335.335 0 0 0-.066-.186.252.252 0 0 0-.203-.095.26.26 0 0 0-.19.078.292.292 0 0 0-.087.203zM75.902 6.117a.656.656 0 0 1-.182.111.557.557 0 0 1-.178.03c-.107 0-.19-.026-.248-.08a.254.254 0 0 1-.087-.198.25.25 0 0 1 .033-.128.242.242 0 0 1 .087-.095.445.445 0 0 1 .12-.058c.03-.008.079-.016.145-.025.132-.013.23-.03.293-.053v-.046c0-.066-.015-.112-.045-.14-.041-.039-.103-.058-.186-.058a.303.303 0 0 0-.174.041.266.266 0 0 0-.082.145l-.162-.02a.423.423 0 0 1 .075-.166.302.302 0 0 1 .144-.1.597.597 0 0 1 .22-.037c.084 0 .152.01.202.03.052.019.091.044.116.074a.296.296 0 0 1 .054.111c.005.031.008.082.008.153v.22c0 .154.002.252.008.293.008.04.022.077.041.116h-.17a.251.251 0 0 1-.032-.12Zm-.017-.368a1.115 1.115 0 0 1-.268.062.49.49 0 0 0-.145.033.14.14 0 0 0-.066.054.142.142 0 0 0-.02.078c0 .045.016.082.049.112.033.028.08.041.144.041a.34.34 0 0 0 .17-.041.263.263 0 0 0 .112-.116.413.413 0 0 0 .024-.165ZM76.956 6.237v-.124a.307.307 0 0 1-.273.144.397.397 0 0 1-.368-.24.664.664 0 0 1-.05-.264c0-.1.015-.187.046-.265a.383.383 0 0 1 .363-.248c.058 0 .11.013.158.038a.305.305 0 0 1 .111.099v-.484h.166v1.344Zm-.521-.484c0 .124.026.218.078.281a.236.236 0 0 0 .368.004c.05-.06.075-.15.075-.273 0-.132-.027-.229-.079-.293a.233.233 0 0 0-.372-.004c-.048.06-.07.156-.07.285zM78.02 5.923l.17.02a.396.396 0 0 1-.15.232.44.44 0 0 1-.276.082.448.448 0 0 1-.34-.128c-.082-.088-.123-.212-.123-.372 0-.162.041-.29.124-.38a.432.432 0 0 1 .33-.137c.13 0 .236.046.319.137a.525.525 0 0 1 .124.372l-.004.041h-.724a.37.37 0 0 0 .091.248.267.267 0 0 0 .203.087c.06 0 .111-.016.153-.05a.323.323 0 0 0 .103-.152zm-.541-.265h.545a.335.335 0 0 0-.066-.186.252.252 0 0 0-.202-.095.26.26 0 0 0-.19.078.292.292 0 0 0-.087.203zM78.408 6.237v-.972h.15v.145a.44.44 0 0 1 .102-.137.191.191 0 0 1 .108-.033c.058 0 .114.019.17.054l-.054.153a.24.24 0 0 0-.124-.037.166.166 0 0 0-.1.033.172.172 0 0 0-.057.09.604.604 0 0 0-.03.195v.509Zm0 0" fill="var(--text-color)"/>
 <path d="m77.92 15.444h-6.006v-3.016h12.012v3.016z" fill="var(--background-color)" fill-rule="evenodd" stroke="var(--text-color)" stroke-linejoin="round" stroke-miterlimit="10" stroke-width=".032"/>
 <path d="M73.033 14.677v-1.344h.265l.318.951.067.199c.013-.05.037-.121.07-.215l.322-.935h.24v1.344h-.174v-1.125l-.388 1.125h-.161l-.389-1.145v1.145ZM75.218 14.363l.17.02a.396.396 0 0 1-.15.232.44.44 0 0 1-.277.083.448.448 0 0 1-.339-.129c-.082-.087-.124-.211-.124-.372 0-.162.042-.289.124-.38a.432.432 0 0 1 .331-.136c.13 0 .236.045.318.136a.525.525 0 0 1 .124.372l-.004.041h-.723a.37.37 0 0 0 .09.249.267.267 0 0 0 .203.086c.06 0 .112-.016.153-.05a.323.323 0 0 0 .104-.152zm-.542-.265h.546a.335.335 0 0 0-.066-.186.252.252 0 0 0-.203-.095.26.26 0 0 0-.19.079.292.292 0 0 0-.087.202zM75.606 14.677v-.972h.149v.145a.44.44 0 0 1 .103-.136.191.191 0 0 1 .107-.033c.058 0 .114.018.17.053l-.054.153a.24.24 0 0 0-.124-.037.166.166 0 0 0-.1.033.172.172 0 0 0-.057.091.604.604 0 0 0-.029.194v.509ZM76.219 14.677v-1.344h.165v.765l.389-.393h.215l-.373.36.41.612h-.203l-.322-.496-.116.111v.385ZM77.167 14.677v-1.344h.165v1.344ZM78.286 14.363l.17.02a.396.396 0 0 1-.15.232.44.44 0 0 1-.276.083.448.448 0 0 1-.34-.129c-.082-.087-.123-.211-.123-.372 0-.162.04-.289.124-.38a.432.432 0 0 1 .33-.136c.13 0 .236.045.319.136a.525.525 0 0 1 .124.372l-.004.041h-.724a.37.37 0 0 0 .091.249.267.267 0 0 0 .203.086c.06 0 .111-.016.153-.05a.323.323 0 0 0 .103-.152zm-.542-.265h.546a.335.335 0 0 0-.066-.186.252.252 0 0 0-.203-.095.26.26 0 0 0-.19.079.292.292 0 0 0-.087.202zM79.206 14.677v-1.344h.596c.118 0 .208.013.269.038a.3.3 0 0 1 .148.128.373.373 0 0 1-.033.442c-.06.066-.156.108-.285.124a.501.501 0 0 1 .107.066c.052.05.102.11.15.182l.23.364h-.222l-.178-.281a2.708 2.708 0 0 0-.128-.182.373.373 0 0 0-.091-.091.41.41 0 0 0-.079-.037 1.097 1.097 0 0 0-.1-.004h-.206v.595Zm.178-.752h.38a.567.567 0 0 0 .19-.025.192.192 0 0 0 .104-.079.218.218 0 0 0 .037-.12.202.202 0 0 0-.07-.157c-.044-.041-.116-.062-.215-.062h-.426ZM80.469 14.19c0-.18.05-.313.149-.402a.46.46 0 0 1 .305-.107c.135 0 .245.044.331.132.085.089.128.21.128.364 0 .124-.02.223-.058.297a.399.399 0 0 1-.165.166.497.497 0 0 1-.236.058.445.445 0 0 1-.33-.129c-.083-.087-.124-.215-.124-.38zm.17 0c0 .126.026.221.082.284a.26.26 0 0 0 .202.091c.083 0 .151-.03.207-.095.055-.063.083-.158.083-.285 0-.12-.028-.212-.083-.273a.265.265 0 0 0-.207-.095.258.258 0 0 0-.202.095c-.056.061-.083.153-.083.277ZM81.527 14.19c0-.18.05-.313.148-.402a.46.46 0 0 1 .306-.107c.135 0 .245.044.331.132.085.089.128.21.128.364 0 .124-.02.223-.058.297a.399.399 0 0 1-.165.166.497.497 0 0 1-.236.058.445.445 0 0 1-.33-.129c-.083-.087-.124-.215-.124-.38zm.169 0c0 .126.027.221.083.284a.26.26 0 0 0 .202.091c.083 0 .151-.03.207-.095.055-.063.083-.158.083-.285 0-.12-.028-.212-.083-.273a.265.265 0 0 0-.207-.095.258.258 0 0 0-.202.095c-.056.061-.083.153-.083.277ZM83.006 14.528l.025.149a.737.737 0 0 1-.124.012.288.288 0 0 1-.14-.029.157.157 0 0 1-.071-.074.552.552 0 0 1-.02-.194v-.558h-.12v-.129h.12v-.243l.165-.1v.343h.165v.129h-.165v.566a.28.28 0 0 0 .008.09.06.06 0 0 0 .029.034.112.112 0 0 0 .058.012c.016 0 .04-.002.07-.008zm0 0" fill="var(--text-color)"/>
 <path d="m75.169 10.92h-6.006v-2.99h12.037v2.99z" fill="var(--background-color)" fill-rule="evenodd" stroke="var(--text-color)" stroke-linejoin="round" stroke-miterlimit="10" stroke-width=".032"/>
 <path d="M71 10.153V8.809h.509c.088 0 .155.004.202.012a.348.348 0 0 1 .273.194.412.412 0 0 1 .042.183c0 .113-.038.21-.112.289-.072.08-.203.12-.393.12h-.343v.546Zm.178-.703h.347c.116 0 .197-.022.244-.066a.23.23 0 0 0 .075-.182.225.225 0 0 0-.046-.14.203.203 0 0 0-.111-.084.738.738 0 0 0-.166-.012h-.343ZM72.246 10.153V9.18h.148v.145a.44.44 0 0 1 .104-.137.191.191 0 0 1 .107-.033c.058 0 .114.019.17.054l-.054.153a.24.24 0 0 0-.124-.037.166.166 0 0 0-.1.033.172.172 0 0 0-.057.09.604.604 0 0 0-.029.195v.509ZM73.524 9.838l.17.021a.396.396 0 0 1-.15.232.44.44 0 0 1-.276.082.448.448 0 0 1-.34-.128c-.082-.088-.123-.212-.123-.372 0-.162.041-.29.124-.38a.432.432 0 0 1 .33-.137c.13 0 .236.046.319.137a.525.525 0 0 1 .124.372l-.004.041h-.724a.37.37 0 0 0 .091.248.267.267 0 0 0 .203.087c.06 0 .111-.017.153-.05a.323.323 0 0 0 .103-.153zm-.541-.264h.545a.335.335 0 0 0-.066-.186.252.252 0 0 0-.202-.095.26.26 0 0 0-.19.078.292.292 0 0 0-.087.203zM74.185 10.153l-.368-.972h.174l.207.583c.024.06.046.126.066.194.013-.051.033-.113.058-.186l.219-.591h.17l-.369.972ZM75.397 10.153V8.809h.178v.55h.699v-.55h.178v1.344h-.178V9.52h-.699v.633ZM77.358 10.033a.656.656 0 0 1-.182.111.557.557 0 0 1-.177.03c-.108 0-.19-.027-.248-.08a.254.254 0 0 1-.087-.198.25.25 0 0 1 .033-.128.242.242 0 0 1 .087-.095.445.445 0 0 1 .12-.058c.03-.008.078-.016.144-.025.133-.013.23-.03.294-.053V9.49c0-.066-.016-.113-.046-.14-.041-.039-.103-.058-.186-.058a.303.303 0 0 0-.173.041.266.266 0 0 0-.083.145l-.161-.021a.423.423 0 0 1 .074-.165.302.302 0 0 1 .145-.1.597.597 0 0 1 .219-.037c.085 0 .153.01.202.03.052.019.091.044.116.074a.296.296 0 0 1 .054.111c.005.031.008.082.008.153v.22c0 .154.002.251.009.293.008.04.021.077.04.116h-.169a.251.251 0 0 1-.033-.12Zm-.016-.368a1.115 1.115 0 0 1-.269.062.49.49 0 0 0-.145.033.14.14 0 0 0-.066.054.142.142 0 0 0-.02.078c0 .045.016.082.05.112.032.028.08.041.144.041a.34.34 0 0 0 .17-.041.263.263 0 0 0 .11-.116.413.413 0 0 0 .026-.165ZM77.713 9.863l.162-.025c.01.064.037.114.078.15.041.035.1.053.174.053.076 0 .133-.015.17-.046a.151.151 0 0 0 .053-.111.105.105 0 0 0-.046-.087.613.613 0 0 0-.169-.058 1.434 1.434 0 0 1-.252-.078.24.24 0 0 1-.108-.091.267.267 0 0 1-.033-.133c0-.043.01-.083.03-.12a.275.275 0 0 1 .078-.09.476.476 0 0 1 .248-.07c.076 0 .144.01.202.032.058.023.1.053.129.091a.353.353 0 0 1 .057.15l-.16.024a.185.185 0 0 0-.067-.12.245.245 0 0 0-.149-.041c-.074 0-.128.012-.161.037-.033.025-.05.054-.05.087 0 .022.007.041.021.058.013.02.034.035.062.045.017.006.066.02.149.041.116.033.195.06.24.079.046.02.082.049.107.087a.23.23 0 0 1 .041.14.277.277 0 0 1-.05.157.308.308 0 0 1-.136.112.532.532 0 0 1-.202.037c-.127 0-.223-.026-.29-.078a.364.364 0 0 1-.128-.232zM78.732 10.153V8.809h.165v.484a.363.363 0 0 1 .29-.137.37.37 0 0 1 .186.046.242.242 0 0 1 .116.115c.024.05.037.123.037.22v.616h-.166v-.616c0-.083-.018-.142-.053-.178a.2.2 0 0 0-.153-.058.28.28 0 0 0-.14.037.22.22 0 0 0-.092.103.5.5 0 0 0-.025.178v.534Zm0 0" fill="var(--text-color)"/>
 <path d="m87.207 10.92h-4.497v-2.99h9.022v2.99z" fill="var(--background-color)" fill-rule="evenodd" stroke="var(--text-color)" stroke-linejoin="round" stroke-miterlimit="10" stroke-width=".032"/>
 <path d="M84.626 10.153V8.809h.182l.703 1.054V8.81h.174v1.344h-.182l-.707-1.055v1.055ZM85.893 9.665c0-.18.05-.312.149-.401a.46.46 0 0 1 .305-.108c.135 0 .245.045.331.133.085.088.128.21.128.363 0 .124-.02.224-.057.298a.399.399 0 0 1-.166.165.497.497 0 0 1-.236.058.445.445 0 0 1-.33-.128c-.083-.088-.124-.215-.124-.38zm.17 0c0 .127.026.222.082.285a.26.26 0 0 0 .202.09c.083 0 .151-.03.207-.094.055-.063.083-.158.083-.285 0-.121-.028-.212-.083-.273a.265.265 0 0 0-.207-.095.258.258 0 0 0-.202.095c-.056.06-.083.153-.083.277ZM87.013 10.153V9.18h.148v.136a.35.35 0 0 1 .31-.16c.058 0 .112.01.162.032.05.023.084.05.107.083a.327.327 0 0 1 .054.12c.005.033.008.087.008.161v.6h-.165V9.56a.433.433 0 0 0-.02-.153.144.144 0 0 0-.067-.078.234.234 0 0 0-.116-.03c-.069 0-.13.024-.182.067-.05.045-.074.128-.074.252v.534ZM88.707 9.797l.161.02a.425.425 0 0 1-.14.261.384.384 0 0 1-.265.095.418.418 0 0 1-.322-.128c-.08-.088-.12-.213-.12-.376 0-.105.016-.195.05-.273a.362.362 0 0 1 .16-.178.455.455 0 0 1 .232-.062.39.39 0 0 1 .256.083.364.364 0 0 1 .133.227l-.161.025a.264.264 0 0 0-.079-.149.21.21 0 0 0-.14-.05.26.26 0 0 0-.207.092c-.05.057-.075.152-.075.28 0 .133.025.23.075.29.05.058.113.087.194.087.066 0 .12-.019.161-.058a.327.327 0 0 0 .087-.186ZM89.689 9.838l.17.021a.396.396 0 0 1-.15.232.44.44 0 0 1-.277.082.448.448 0 0 1-.339-.128c-.082-.088-.124-.212-.124-.372 0-.162.042-.29.124-.38a.432.432 0 0 1 .331-.137c.13 0 .236.046.318.137a.525.525 0 0 1 .124.372l-.004.041h-.723a.37.37 0 0 0 .09.248.267.267 0 0 0 .203.087c.06 0 .112-.017.153-.05a.323.323 0 0 0 .104-.153zm-.542-.264h.546a.335.335 0 0 0-.066-.186.252.252 0 0 0-.203-.095.26.26 0 0 0-.19.078.292.292 0 0 0-.087.203zm0 0" fill="var(--text-color)"/>
 <path transform="translate(-427.3 285.17)" d="m496.46-275.73-1.8 0.582v-1.19z" fill="var(--text-color)" fill-rule="evenodd" stroke-width=".26458"/>
 <path d="m61.648 9.438h6.085" fill="none" stroke="var(--text-color)" stroke-miterlimit="10" stroke-width=".026"/>
 <path transform="translate(-427.3 285.17)" d="m464.9-275.73-1.8 0.582v-1.19z" fill="var(--text-color)" fill-rule="evenodd" stroke-width=".26458"/>
 <path d="m30.057 9.438h6.085" fill="none" stroke="var(--text-color)" stroke-miterlimit="10" stroke-width=".026"/>
 <path d="m97.738 9.438-1.8 0.582v-1.19z" fill="var(--text-color)" fill-rule="evenodd"/>
 <path d="m93.213 9.438h3.07" fill="none" stroke="var(--text-color)" stroke-miterlimit="10" stroke-width=".026"/>
 <path transform="translate(-427.3 285.17)" d="m433.31-275.73-1.798 0.582v-1.19z" fill="var(--text-color)" fill-rule="evenodd" stroke-width=".26458"/>
 <path d="m0 9.438h4.577" fill="none" stroke="var(--text-color)" stroke-miterlimit="10" stroke-width=".026"/>
 <path d="M63.165 27.827v-1.344h.264l.318.951.067.198c.013-.05.037-.12.07-.215l.322-.934h.24v1.344h-.174v-1.125l-.388 1.125h-.161l-.389-1.145v1.145ZM65.349 27.513l.17.02a.396.396 0 0 1-.15.232.44.44 0 0 1-.277.082.448.448 0 0 1-.339-.128c-.082-.088-.124-.212-.124-.372 0-.162.042-.29.124-.38a.432.432 0 0 1 .331-.137c.13 0 .236.046.318.137a.525.525 0 0 1 .124.372l-.004.041H64.8a.37.37 0 0 0 .09.248.267.267 0 0 0 .203.087c.06 0 .112-.016.153-.05a.323.323 0 0 0 .104-.152zm-.542-.265h.546a.335.335 0 0 0-.066-.186.252.252 0 0 0-.203-.095.26.26 0 0 0-.19.078.292.292 0 0 0-.087.203zM65.737 27.827v-.972h.149V27a.44.44 0 0 1 .103-.137.191.191 0 0 1 .107-.033c.058 0 .114.019.17.054l-.054.153a.24.24 0 0 0-.124-.037.166.166 0 0 0-.1.033.172.172 0 0 0-.057.09.604.604 0 0 0-.029.195v.509ZM66.35 27.827v-1.344h.165v.765l.389-.393h.215l-.372.36.409.612h-.203l-.322-.496-.116.111v.385ZM67.298 27.827v-1.344h.165v1.344ZM68.417 27.513l.17.02a.396.396 0 0 1-.15.232.44.44 0 0 1-.276.082.448.448 0 0 1-.34-.128c-.082-.088-.123-.212-.123-.372 0-.162.04-.29.124-.38a.432.432 0 0 1 .33-.137c.13 0 .236.046.319.137a.525.525 0 0 1 .124.372l-.004.041h-.724a.37.37 0 0 0 .091.248.267.267 0 0 0 .203.087c.06 0 .111-.016.153-.05a.323.323 0 0 0 .103-.152zm-.542-.265h.546a.335.335 0 0 0-.066-.186.252.252 0 0 0-.203-.095.26.26 0 0 0-.19.078.292.292 0 0 0-.087.203zM69.325 27.827v-1.344h.504c.102 0 .183.015.244.041.063.028.113.07.15.129a.303.303 0 0 1 .004.339.324.324 0 0 1-.141.12.362.362 0 0 1 .19.124.32.32 0 0 1 .066.202.38.38 0 0 1-.14.302.472.472 0 0 1-.15.066.912.912 0 0 1-.214.02Zm.178-.777h.293a.62.62 0 0 0 .17-.017.186.186 0 0 0 .1-.066.193.193 0 0 0 .036-.12.208.208 0 0 0-.033-.116.16.16 0 0 0-.095-.07.696.696 0 0 0-.202-.02h-.27Zm0 .62h.335a.535.535 0 0 0 .12-.009.327.327 0 0 0 .103-.037.18.18 0 0 0 .066-.074.224.224 0 0 0-.012-.24.19.19 0 0 0-.108-.079.586.586 0 0 0-.194-.024h-.31ZM70.552 27.827v-.972h.15V27a.44.44 0 0 1 .103-.137.191.191 0 0 1 .107-.033c.058 0 .114.019.17.054l-.054.153a.24.24 0 0 0-.124-.037.166.166 0 0 0-.1.033.172.172 0 0 0-.057.09.604.604 0 0 0-.03.195v.509ZM71.828 27.707a.656.656 0 0 1-.182.111.557.557 0 0 1-.177.03c-.108 0-.19-.026-.248-.08a.254.254 0 0 1-.087-.198.25.25 0 0 1 .033-.128.242.242 0 0 1 .087-.095.445.445 0 0 1 .12-.058c.03-.008.078-.016.144-.025.133-.013.23-.03.294-.053v-.046c0-.066-.016-.112-.046-.14-.041-.039-.103-.058-.186-.058a.303.303 0 0 0-.173.041.266.266 0 0 0-.083.145l-.161-.02a.423.423 0 0 1 .074-.166.302.302 0 0 1 .145-.1.597.597 0 0 1 .219-.037c.085 0 .153.01.202.03.052.019.091.044.116.074a.296.296 0 0 1 .054.111c.005.031.008.082.008.153v.22c0 .154.002.252.009.293.008.04.021.077.04.116h-.169a.251.251 0 0 1-.033-.12Zm-.016-.368a1.115 1.115 0 0 1-.269.062.49.49 0 0 0-.145.033.14.14 0 0 0-.066.054.142.142 0 0 0-.02.078c0 .045.016.082.05.112.032.028.08.041.144.041a.34.34 0 0 0 .17-.041.263.263 0 0 0 .11-.116.413.413 0 0 0 .026-.165ZM72.25 27.827v-.972h.148v.137a.35.35 0 0 1 .31-.162c.058 0 .112.012.162.033.05.023.084.05.107.083a.327.327 0 0 1 .054.12c.005.033.008.087.008.161v.6h-.165v-.591a.433.433 0 0 0-.021-.153.144.144 0 0 0-.066-.079.234.234 0 0 0-.116-.029c-.07 0-.13.023-.182.066-.05.045-.074.128-.074.252v.534ZM73.944 27.471l.161.02a.425.425 0 0 1-.14.261.384.384 0 0 1-.265.095.418.418 0 0 1-.322-.128c-.081-.088-.12-.213-.12-.376 0-.104.016-.195.05-.273a.362.362 0 0 1 .16-.178.455.455 0 0 1 .232-.062.39.39 0 0 1 .256.083.364.364 0 0 1 .133.227l-.162.025a.264.264 0 0 0-.078-.149.21.21 0 0 0-.14-.05.26.26 0 0 0-.207.092c-.05.058-.075.152-.075.28 0 .133.025.23.075.29.05.058.113.087.194.087.066 0 .12-.018.161-.058a.327.327 0 0 0 .087-.186ZM74.26 27.827v-1.344h.165v.484a.363.363 0 0 1 .29-.137.37.37 0 0 1 .186.046.242.242 0 0 1 .115.116c.025.05.038.123.038.219v.616h-.166v-.616c0-.083-.018-.142-.053-.178a.2.2 0 0 0-.153-.058.28.28 0 0 0-.141.037.22.22 0 0 0-.09.104.5.5 0 0 0-.026.177v.534ZM75.858 27.827v-.844h-.144v-.128h.144v-.103c0-.066.007-.116.021-.149a.2.2 0 0 1 .079-.103.317.317 0 0 1 .173-.042c.044 0 .095.007.153.017l-.025.145a.712.712 0 0 0-.099-.009c-.05 0-.086.012-.107.033-.02.023-.03.062-.03.12v.091h.191v.128h-.19v.844ZM76.29 27.339c0-.179.049-.312.148-.401a.46.46 0 0 1 .306-.108c.134 0 .245.045.33.133.085.089.129.21.129.364 0 .124-.02.223-.058.297a.399.399 0 0 1-.165.166.497.497 0 0 1-.236.057.445.445 0 0 1-.33-.128c-.084-.088-.125-.215-.125-.38zm.169 0c0 .127.026.222.082.285a.26.26 0 0 0 .203.091c.083 0 .15-.03.207-.095.054-.063.082-.158.082-.285 0-.121-.028-.212-.082-.273a.265.265 0 0 0-.207-.095.258.258 0 0 0-.203.095c-.056.06-.082.153-.082.277ZM77.405 27.827v-.972h.149V27a.44.44 0 0 1 .103-.137.191.191 0 0 1 .107-.033c.058 0 .114.019.17.054l-.054.153a.24.24 0 0 0-.124-.037.166.166 0 0 0-.099.033.172.172 0 0 0-.058.09.604.604 0 0 0-.029.195v.509ZM78.911 27.827V26.64h-.442v-.157h1.063v.157h-.443v1.187ZM79.546 27.827l.356-.505-.327-.467h.207l.149.228.066.107.074-.107.166-.228h.194l-.335.455.364.517h-.203l-.202-.302-.05-.083-.256.385ZM80.513 27.471l.165-.02c.019.094.05.16.095.202a.247.247 0 0 0 .17.062.275.275 0 0 0 .277-.281.246.246 0 0 0-.075-.186.259.259 0 0 0-.19-.074.562.562 0 0 0-.116.016l.017-.145c.01.003.02.005.029.005.068 0 .13-.018.186-.054.058-.038.086-.096.086-.174 0-.06-.02-.11-.062-.149a.213.213 0 0 0-.157-.062.231.231 0 0 0-.165.062.306.306 0 0 0-.079.182l-.165-.029a.412.412 0 0 1 .137-.256.405.405 0 0 1 .268-.091.41.41 0 0 1 .199.05.337.337 0 0 1 .194.297.285.285 0 0 1-.05.162.308.308 0 0 1-.136.111c.08.02.142.058.186.116a.35.35 0 0 1 .066.215c0 .119-.043.219-.128.302a.457.457 0 0 1-.327.12.432.432 0 0 1-.293-.104.413.413 0 0 1-.132-.277zM.03 1.368V.025H.21V1.21H.87v.157ZM1.014.88c0-.178.05-.312.149-.4a.46.46 0 0 1 .306-.108c.134 0 .245.045.33.132.085.09.129.21.129.364 0 .124-.02.223-.058.298a.399.399 0 0 1-.165.165.497.497 0 0 1-.236.058.445.445 0 0 1-.33-.128c-.083-.088-.125-.215-.125-.38zm.17 0c0 .128.027.223.082.286a.26.26 0 0 0 .203.09c.083 0 .15-.03.207-.094.054-.063.082-.158.082-.286 0-.12-.028-.211-.082-.272a.265.265 0 0 0-.207-.095.258.258 0 0 0-.203.095c-.055.06-.082.153-.082.277ZM2.134 1.368V.397h.149v.136a.35.35 0 0 1 .31-.16c.058 0 .112.01.161.032.05.023.085.05.108.083a.327.327 0 0 1 .053.12c.006.033.009.087.009.16v.6h-.166v-.59a.433.433 0 0 0-.02-.154.144.144 0 0 0-.067-.078.234.234 0 0 0-.115-.03c-.07 0-.13.024-.182.067-.05.044-.075.128-.075.252v.533ZM3.163 1.451l.157.02c.008.05.027.085.058.108.041.033.096.05.165.05a.28.28 0 0 0 .178-.05.242.242 0 0 0 .087-.128 1.1 1.1 0 0 0 .012-.21.347.347 0 0 1-.273.127.368.368 0 0 1-.31-.144.56.56 0 0 1-.107-.348c0-.093.016-.178.05-.256a.383.383 0 0 1 .372-.248c.112 0 .206.048.28.14V.398h.154v.84c0 .15-.016.257-.046.322a.334.334 0 0 1-.149.148.481.481 0 0 1-.244.058.47.47 0 0 1-.28-.078c-.073-.053-.107-.132-.104-.236Zm.136-.587c0 .127.025.221.075.281.05.058.112.087.19.087a.24.24 0 0 0 .19-.087c.052-.058.079-.15.079-.277C3.833.75 3.806.66 3.754.6A.25.25 0 0 0 3.56.51a.239.239 0 0 0-.186.09.41.41 0 0 0-.075.265zM4.889 1.054l.17.02a.396.396 0 0 1-.15.232.44.44 0 0 1-.276.083.448.448 0 0 1-.34-.128c-.082-.088-.123-.212-.123-.372 0-.162.041-.29.124-.38a.432.432 0 0 1 .33-.137c.13 0 .236.046.319.137a.525.525 0 0 1 .124.372l-.004.04h-.724a.37.37 0 0 0 .091.249.267.267 0 0 0 .203.087c.06 0 .111-.017.153-.05a.323.323 0 0 0 .103-.153zM4.347.79h.546a.335.335 0 0 0-.066-.186.252.252 0 0 0-.203-.095.26.26 0 0 0-.19.078.292.292 0 0 0-.087.203zM5.215 1.079l.161-.025c.01.064.038.114.079.149.041.036.1.054.174.054.076 0 .133-.015.169-.046a.151.151 0 0 0 .054-.111.105.105 0 0 0-.046-.087.613.613 0 0 0-.17-.058 1.434 1.434 0 0 1-.251-.079.24.24 0 0 1-.108-.09.267.267 0 0 1-.033-.133c0-.043.01-.084.029-.12a.275.275 0 0 1 .079-.09.476.476 0 0 1 .248-.07c.076 0 .144.01.202.032.058.023.1.053.128.091a.353.353 0 0 1 .058.149L5.827.67A.185.185 0 0 0 5.76.55a.245.245 0 0 0-.149-.041c-.074 0-.128.012-.161.037-.033.025-.05.053-.05.087 0 .022.006.04.02.057.014.02.035.036.063.046.016.006.066.02.149.041.115.033.195.06.24.079.046.02.082.048.107.087a.23.23 0 0 1 .041.14.277.277 0 0 1-.05.157.308.308 0 0 1-.136.112.532.532 0 0 1-.202.037c-.127 0-.224-.026-.29-.078a.364.364 0 0 1-.128-.232zM6.594 1.22l.024.148a.737.737 0 0 1-.124.013.288.288 0 0 1-.14-.03.157.157 0 0 1-.07-.074.552.552 0 0 1-.021-.194V.525h-.12V.397h.12V.153l.165-.1v.344h.166v.128h-.166v.566a.28.28 0 0 0 .008.091.06.06 0 0 0 .03.033.112.112 0 0 0 .057.013c.017 0 .04-.002.07-.008zM7.314 1.368V.025h.509c.088 0 .155.004.202.012a.348.348 0 0 1 .273.194.412.412 0 0 1 .041.182c0 .114-.037.21-.111.29-.072.08-.203.12-.393.12h-.343v.545Zm.178-.702h.347c.116 0 .197-.022.244-.067a.23.23 0 0 0 .075-.181.225.225 0 0 0-.046-.141A.203.203 0 0 0 8 .194a.738.738 0 0 0-.165-.012h-.343ZM8.533 1.368V.397h.15v.145a.44.44 0 0 1 .102-.137.191.191 0 0 1 .108-.033c.058 0 .114.019.17.054l-.054.153a.24.24 0 0 0-.124-.037.166.166 0 0 0-.1.033.172.172 0 0 0-.057.09.604.604 0 0 0-.03.195v.508ZM9.11.88c0-.178.05-.312.15-.4a.46.46 0 0 1 .305-.108c.135 0 .245.045.331.132.085.09.128.21.128.364 0 .124-.02.223-.058.298a.399.399 0 0 1-.165.165.497.497 0 0 1-.236.058.445.445 0 0 1-.33-.128c-.083-.088-.125-.215-.125-.38zm.17 0c0 .128.027.223.083.286a.26.26 0 0 0 .202.09c.083 0 .151-.03.207-.094.055-.063.083-.158.083-.286 0-.12-.028-.211-.083-.272a.265.265 0 0 0-.207-.095.258.258 0 0 0-.202.095c-.056.06-.083.153-.083.277ZM10.168.88c0-.178.05-.312.15-.4a.46.46 0 0 1 .305-.108c.134 0 .245.045.33.132.086.09.129.21.129.364 0 .124-.02.223-.058.298a.399.399 0 0 1-.165.165.497.497 0 0 1-.236.058.445.445 0 0 1-.33-.128c-.083-.088-.125-.215-.125-.38zm.17 0c0 .128.027.223.082.286a.26.26 0 0 0 .203.09c.083 0 .151-.03.207-.094.055-.063.082-.158.082-.286 0-.12-.027-.211-.082-.272a.265.265 0 0 0-.207-.095.258.258 0 0 0-.203.095c-.055.06-.082.153-.082.277ZM11.325 1.368V.525h-.144V.397h.144V.294c0-.067.007-.116.021-.15a.2.2 0 0 1 .079-.103.317.317 0 0 1 .173-.041c.044 0 .095.006.153.017l-.025.144a.712.712 0 0 0-.099-.008c-.05 0-.086.011-.107.033-.02.023-.03.062-.03.12v.09h.19v.129h-.19v.843ZM11.752.963V.798h.508v.165zM12.365.88c0-.178.05-.312.149-.4a.46.46 0 0 1 .306-.108c.134 0 .244.045.33.132.085.09.128.21.128.364 0 .124-.02.223-.057.298a.399.399 0 0 1-.166.165.497.497 0 0 1-.235.058.445.445 0 0 1-.331-.128c-.083-.088-.124-.215-.124-.38zm.17 0c0 .128.026.223.082.286a.26.26 0 0 0 .203.09c.082 0 .15-.03.206-.094.055-.063.083-.158.083-.286 0-.12-.028-.211-.083-.272a.265.265 0 0 0-.206-.095.258.258 0 0 0-.203.095c-.056.06-.083.153-.083.277ZM13.522 1.368V.525h-.145V.397h.145V.294c0-.067.006-.116.02-.15a.2.2 0 0 1 .079-.103.317.317 0 0 1 .174-.041c.043 0 .095.006.153.017l-.025.144a.712.712 0 0 0-.1-.008c-.049 0-.085.011-.107.033-.02.023-.029.062-.029.12v.09h.19v.129h-.19v.843ZM13.948.963V.798h.509v.165zM14.88 1.368 14.524.025h.182l.202.88c.022.094.042.186.058.277l.058-.252.257-.905h.215l.194.682c.046.168.08.327.103.475.017-.084.038-.183.066-.293l.211-.864h.178l-.368 1.343h-.17L15.425.343l-.041-.157a7.054 7.054 0 0 1-.037.157l-.286 1.025ZM16.44.88c0-.178.05-.312.149-.4a.46.46 0 0 1 .306-.108c.134 0 .245.045.33.132.085.09.129.21.129.364 0 .124-.02.223-.058.298a.399.399 0 0 1-.165.165.497.497 0 0 1-.236.058.445.445 0 0 1-.33-.128c-.084-.088-.125-.215-.125-.38zm.17 0c0 .128.026.223.082.286a.26.26 0 0 0 .203.09c.083 0 .15-.03.207-.094.054-.063.082-.158.082-.286 0-.12-.028-.211-.082-.272a.265.265 0 0 0-.207-.095.258.258 0 0 0-.203.095c-.056.06-.082.153-.082.277ZM17.53 1.368V.397h.148v.145a.44.44 0 0 1 .104-.137.191.191 0 0 1 .107-.033c.058 0 .114.019.17.054l-.054.153a.24.24 0 0 0-.124-.037.166.166 0 0 0-.1.033.172.172 0 0 0-.057.09.604.604 0 0 0-.03.195v.508ZM18.169 1.368V.025h.165V.79l.389-.393h.215l-.372.36.409.611h-.203L18.45.872l-.116.112v.384ZM20.631.897l.178.046a.615.615 0 0 1-.203.334.55.55 0 0 1-.355.116.644.644 0 0 1-.352-.087.557.557 0 0 1-.206-.256.924.924 0 0 1-.07-.364c0-.14.025-.261.078-.364a.549.549 0 0 1 .227-.24.664.664 0 0 1 .327-.082.55.55 0 0 1 .339.103.54.54 0 0 1 .19.29l-.174.041a.409.409 0 0 0-.136-.21.345.345 0 0 0-.223-.071.445.445 0 0 0-.26.074.386.386 0 0 0-.145.203.797.797 0 0 0-.042.256c0 .114.017.213.05.298.033.086.083.15.153.194a.455.455 0 0 0 .231.062.38.38 0 0 0 .252-.087.449.449 0 0 0 .141-.256zM21 1.368V.025h.166v.484a.363.363 0 0 1 .289-.137.37.37 0 0 1 .186.046.242.242 0 0 1 .116.115c.025.05.037.123.037.22v.615h-.165V.752c0-.082-.019-.141-.054-.177a.2.2 0 0 0-.153-.058.28.28 0 0 0-.14.037.22.22 0 0 0-.092.103.5.5 0 0 0-.024.178v.533ZM22.695 1.249a.656.656 0 0 1-.182.111.557.557 0 0 1-.178.03c-.107 0-.19-.027-.248-.08A.254.254 0 0 1 22 1.113a.25.25 0 0 1 .033-.128.242.242 0 0 1 .087-.095.445.445 0 0 1 .12-.058c.03-.008.079-.017.145-.025.132-.013.23-.03.293-.054V.707c0-.066-.015-.113-.045-.14-.042-.039-.104-.058-.186-.058a.303.303 0 0 0-.174.04.266.266 0 0 0-.083.146l-.16-.021a.423.423 0 0 1 .074-.165.302.302 0 0 1 .144-.1.597.597 0 0 1 .22-.037c.084 0 .152.01.202.029.052.02.09.044.116.074a.296.296 0 0 1 .053.112c.006.031.009.082.009.153v.22c0 .154.002.251.008.293.008.039.022.077.041.115h-.17a.251.251 0 0 1-.032-.12ZM22.678.88a1.115 1.115 0 0 1-.268.062.49.49 0 0 0-.145.033.14.14 0 0 0-.066.053.142.142 0 0 0-.021.079c0 .044.017.082.05.112.033.027.08.04.144.04a.34.34 0 0 0 .17-.04.263.263 0 0 0 .111-.116.413.413 0 0 0 .025-.166ZM23.116.215v-.19h.165v.19zm0 1.153V.397h.165v.971ZM23.539 1.368V.397h.149v.136a.35.35 0 0 1 .31-.16c.057 0 .111.01.16.032.05.023.086.05.108.083a.327.327 0 0 1 .054.12c.005.033.008.087.008.16v.6h-.165v-.59a.433.433 0 0 0-.02-.154.144.144 0 0 0-.067-.078.234.234 0 0 0-.116-.03c-.069 0-.13.024-.182.067-.05.044-.074.128-.074.252v.533Zm0 0" fill="var(--text-color)"/>
 <path d="m61.648 41.003h-3.016v-3.017h6.033v3.017z" fill="var(--background-color)" fill-rule="evenodd" stroke="var(--text-color)" stroke-linejoin="round" stroke-miterlimit="10" stroke-width=".032"/>
 <path d="M60.548 40.368v-1.187h-.442v-.157h1.063v.157h-.443v1.187ZM61.183 40.368l.356-.504-.327-.468h.207l.149.228.066.107.075-.107.165-.228h.194l-.335.455.364.517h-.202l-.203-.302-.05-.082-.256.384ZM62.15 40.012l.165-.02c.019.094.05.161.095.202a.247.247 0 0 0 .17.062.275.275 0 0 0 .277-.281.246.246 0 0 0-.075-.186.259.259 0 0 0-.19-.074.562.562 0 0 0-.116.016l.017-.144c.01.003.02.004.029.004.068 0 .13-.018.186-.054.058-.038.087-.096.087-.174 0-.06-.021-.11-.062-.148a.213.213 0 0 0-.158-.062.231.231 0 0 0-.165.062.306.306 0 0 0-.078.181l-.166-.028a.412.412 0 0 1 .137-.257.405.405 0 0 1 .268-.09.41.41 0 0 1 .199.049.337.337 0 0 1 .194.298.285.285 0 0 1-.05.16.308.308 0 0 1-.136.112c.08.02.142.058.186.116a.35.35 0 0 1 .066.215c0 .119-.043.22-.128.302a.457.457 0 0 1-.327.12.432.432 0 0 1-.293-.104.413.413 0 0 1-.132-.277zm0 0" fill="var(--text-color)"/>
 <path transform="translate(-427.3 285.17)" d="m488.95-251.68 0.609 1.799h-1.218z" fill="var(--text-color)" fill-rule="evenodd" stroke-width=".26458"/>
 <path d="m61.648 37.986v-3.068" fill="none" stroke="var(--text-color)" stroke-miterlimit="10" stroke-width=".026"/>
</svg>
