<?xml version="1.0" encoding="UTF-8"?>
<svg height="35.25mm" version="1.1" viewBox="0 0 61.52 15.25" xmlns="http://www.w3.org/2000/svg">
 <path transform="translate(-55.827 -111.92)" d="m66.33 113.45-1.799 0.608v-1.217z" fill="var(--text-color)" fill-rule="evenodd" stroke-width=".26458"/>
 <path d="m0 1.535h9.049" fill="none" stroke="var(--text-color)" stroke-miterlimit="10" stroke-width=".026458"/>
 <path transform="translate(-55.827 -111.92)" d="m94.826 114.96-1.8 0.61v-1.218z" fill="var(--text-color)" fill-rule="evenodd" stroke-width=".26458"/>
 <path d="m34.501 3.043h3.07" fill="none" stroke="var(--text-color)" stroke-miterlimit="10" stroke-width=".026"/>
 <path d="m61.516 1.535-1.8 0.609v-1.218z" fill="var(--text-color)" fill-rule="evenodd"/>
 <path d="M43.497 1.535H60.06" fill="none" stroke="var(--text-color)" stroke-miterlimit="10" stroke-width=".026"/>
 <path d="m16.51 15.24h-12.012v-9.155h23.997v9.155z" fill="var(--background-color)" fill-rule="evenodd" stroke="var(--text-color)" stroke-linejoin="round" stroke-miterlimit="10" stroke-width=".03175"/>
 <path d="M6.063 8.837V7.473h.504c.102 0 .183.014.244.041a.342.342 0 0 1 .203.306.31.31 0 0 1-.05.17.324.324 0 0 1-.14.12.356.356 0 0 1 .19.128.33.33 0 0 1 .066.202.38.38 0 0 1-.14.306.415.415 0 0 1-.15.07.912.912 0 0 1-.214.021Zm.178-.79h.293a.62.62 0 0 0 .17-.016.186.186 0 0 0 .099-.066.193.193 0 0 0 .037-.12.215.215 0 0 0-.033-.12.16.16 0 0 0-.095-.07.696.696 0 0 0-.203-.02h-.268Zm0 .63h.335a.535.535 0 0 0 .12-.01.265.265 0 0 0 .103-.032.207.207 0 0 0 .066-.079.232.232 0 0 0-.012-.244.19.19 0 0 0-.108-.078.586.586 0 0 0-.194-.025h-.31ZM7.316 8.837V7.473h.165v1.364ZM7.682 8.341c0-.182.05-.316.149-.405a.46.46 0 0 1 .306-.107c.134 0 .245.044.33.132a.51.51 0 0 1 .129.368c0 .127-.02.227-.058.302a.428.428 0 0 1-.166.17.497.497 0 0 1-.235.057.436.436 0 0 1-.331-.132c-.083-.088-.124-.216-.124-.385zm.17 0c0 .127.026.222.082.285a.255.255 0 0 0 .203.096c.082 0 .15-.031.206-.096.055-.063.083-.159.083-.289a.414.414 0 0 0-.083-.277.265.265 0 0 0-.206-.095.258.258 0 0 0-.203.095c-.056.064-.082.157-.082.281ZM9.412 8.473l.161.025a.427.427 0 0 1-.14.265.384.384 0 0 1-.265.095.41.41 0 0 1-.322-.132c-.08-.088-.12-.215-.12-.38 0-.105.016-.197.05-.278a.362.362 0 0 1 .16-.177.455.455 0 0 1 .232-.062.39.39 0 0 1 .257.082.364.364 0 0 1 .132.228l-.161.024a.264.264 0 0 0-.079-.148.21.21 0 0 0-.14-.05.26.26 0 0 0-.207.09c-.05.062-.075.157-.075.286 0 .132.025.23.075.29.05.06.114.09.194.09.066 0 .12-.018.161-.057a.33.33 0 0 0 .087-.19ZM9.728 8.837V7.473h.166v.777l.388-.4h.215l-.372.367.41.62h-.203l-.323-.504-.115.112v.392Zm0 0" fill="var(--text-color)"/>
 <path d="m8.996 13.706h-2.99v-3.043h6.006v3.043z" fill="var(--background-color)" fill-rule="evenodd" stroke="var(--text-color)" stroke-linejoin="round" stroke-miterlimit="10" stroke-width=".032"/>
 <path d="M7.37 12.965V11.6h.178v1.364ZM8.209 12.816l.025.149a.737.737 0 0 1-.124.012.288.288 0 0 1-.14-.029.157.157 0 0 1-.071-.074.593.593 0 0 1-.02-.199v-.57h-.12v-.128h.12v-.244l.165-.104v.348h.165v.128h-.165v.579c0 .05.002.081.008.095.005.011.014.02.029.029a.112.112 0 0 0 .058.012c.016 0 .039 0 .07-.004zM9.018 12.646l.17.021a.397.397 0 0 1-.15.236.44.44 0 0 1-.277.082.44.44 0 0 1-.339-.132c-.082-.088-.124-.213-.124-.376 0-.165.042-.294.124-.385a.432.432 0 0 1 .331-.136c.13 0 .236.046.318.136.083.09.124.214.124.377l-.004.045h-.723a.37.37 0 0 0 .09.248.267.267 0 0 0 .203.087c.06 0 .112-.014.153-.045a.322.322 0 0 0 .104-.158zm-.542-.268h.546a.344.344 0 0 0-.066-.19.252.252 0 0 0-.203-.096.26.26 0 0 0-.19.079.296.296 0 0 0-.087.207ZM9.41 12.965v-.988h.149v.136a.336.336 0 0 1 .12-.111.34.34 0 0 1 .173-.046c.071 0 .13.016.178.046.046.03.08.072.1.124a.342.342 0 0 1 .297-.17c.096 0 .17.028.223.083.052.052.079.135.079.248v.678h-.166v-.624a.439.439 0 0 0-.016-.141.139.139 0 0 0-.058-.07.175.175 0 0 0-.1-.03.232.232 0 0 0-.169.071c-.044.044-.066.118-.066.22v.574h-.165v-.641a.276.276 0 0 0-.042-.165c-.028-.039-.072-.058-.132-.058a.23.23 0 0 0-.215.144.659.659 0 0 0-.025.207v.513Zm0 0" fill="var(--text-color)"/>
 <path d="m16.51 13.706h-3.016v-3.043h6.006v3.043z" fill="var(--background-color)" fill-rule="evenodd" stroke="var(--text-color)" stroke-linejoin="round" stroke-miterlimit="10" stroke-width=".032"/>
 <path d="M14.858 12.965V11.6h.178v1.364ZM15.697 12.816l.025.149a.737.737 0 0 1-.124.012.288.288 0 0 1-.141-.029.157.157 0 0 1-.07-.074.593.593 0 0 1-.021-.199v-.57h-.12v-.128h.12v-.244l.165-.104v.348h.166v.128h-.166v.579c0 .05.002.081.009.095.005.011.014.02.029.029a.112.112 0 0 0 .057.012c.017 0 .04 0 .07-.004zM16.532 12.646l.169.021a.397.397 0 0 1-.149.236.44.44 0 0 1-.277.082.44.44 0 0 1-.339-.132c-.082-.088-.124-.213-.124-.376 0-.165.042-.294.124-.385a.432.432 0 0 1 .331-.136c.13 0 .236.046.318.136.083.09.124.214.124.377l-.004.045h-.723a.37.37 0 0 0 .09.248.267.267 0 0 0 .203.087c.06 0 .112-.014.153-.045a.322.322 0 0 0 .104-.158zm-.542-.268h.546a.344.344 0 0 0-.066-.19.252.252 0 0 0-.203-.096.26.26 0 0 0-.19.079.296.296 0 0 0-.087.207ZM16.924 12.965v-.988h.149v.136a.336.336 0 0 1 .12-.111.34.34 0 0 1 .173-.046c.071 0 .13.016.178.046.046.03.08.072.1.124a.342.342 0 0 1 .297-.17c.096 0 .17.028.223.083.052.052.079.135.079.248v.678h-.166v-.624a.439.439 0 0 0-.016-.141.139.139 0 0 0-.058-.07.175.175 0 0 0-.1-.03.232.232 0 0 0-.169.071c-.044.044-.066.118-.066.22v.574h-.165v-.641a.276.276 0 0 0-.042-.165c-.028-.039-.072-.058-.132-.058a.23.23 0 0 0-.215.144.659.659 0 0 0-.025.207v.513Zm0 0" fill="var(--text-color)"/>
 <path d="m23.998 13.706h-2.99v-3.043h6.005v3.043z" fill="var(--background-color)" fill-rule="evenodd" stroke="var(--text-color)" stroke-linejoin="round" stroke-miterlimit="10" stroke-width=".032"/>
 <path d="m23.453 12.965v-0.19h0.19v0.19zm0.529 0v-0.19h0.19v0.19zm0.528 0v-0.19h0.19v0.19z" fill="var(--text-color)"/>
 <path d="M42.016 4.578h-3.017V0h6.006v4.578Zm0 0" fill="var(--background-color)" fill-rule="evenodd"/>
 <path d="M42.016 4.578h-3.017V0h6.006v4.578Zm0 0" fill="none" stroke="var(--text-color)" stroke-linejoin="round" stroke-miterlimit="10" stroke-width=".03175"/>
 <path d="M39.995 3.122V1.758h.178v.562h.698v-.562h.178v1.364h-.178v-.645h-.698v.645ZM41.955 3.002a.656.656 0 0 1-.182.112.557.557 0 0 1-.177.029c-.108 0-.19-.026-.249-.079a.26.26 0 0 1-.086-.202c0-.05.01-.093.033-.132a.242.242 0 0 1 .087-.096.445.445 0 0 1 .12-.057c.03-.009.078-.017.144-.025a1.51 1.51 0 0 0 .294-.058v-.041c0-.069-.016-.117-.046-.145-.041-.038-.103-.058-.186-.058a.303.303 0 0 0-.173.041c-.037.028-.065.078-.083.15l-.161-.026a.465.465 0 0 1 .074-.17.302.302 0 0 1 .145-.098.674.674 0 0 1 .219-.033c.085 0 .153.01.202.029.052.02.091.044.116.074a.296.296 0 0 1 .054.112c.005.03.008.082.008.157v.223c0 .155.002.252.008.293a.458.458 0 0 0 .042.12h-.17a.27.27 0 0 1-.033-.12Zm-.016-.376a1.115 1.115 0 0 1-.27.062.57.57 0 0 0-.144.037.14.14 0 0 0-.066.054.142.142 0 0 0-.02.079c0 .044.016.081.049.111.033.031.08.046.145.046a.34.34 0 0 0 .17-.042.29.29 0 0 0 .11-.12.413.413 0 0 0 .026-.165zM42.31 2.829l.161-.03c.01.067.038.119.079.154.041.036.1.054.174.054.076 0 .133-.015.17-.046a.151.151 0 0 0 .053-.112.108.108 0 0 0-.046-.09.826.826 0 0 0-.17-.054 1.641 1.641 0 0 1-.251-.083.24.24 0 0 1-.108-.09.278.278 0 0 1 .075-.352.336.336 0 0 1 .107-.046.578.578 0 0 1 .343.012c.058.023.1.053.128.092a.356.356 0 0 1 .058.153l-.161.02a.18.18 0 0 0-.066-.116.227.227 0 0 0-.149-.045c-.074 0-.128.012-.161.037a.111.111 0 0 0-.05.091c0 .023.006.041.02.058a.179.179 0 0 0 .063.046c.016.006.066.02.149.04.115.034.195.06.24.08.046.019.082.048.107.086a.277.277 0 0 1-.008.302.302.302 0 0 1-.137.116.532.532 0 0 1-.202.037c-.127 0-.224-.026-.29-.079a.367.367 0 0 1-.128-.235zM43.329 3.122V1.758h.165v.488a.369.369 0 0 1 .29-.132c.071 0 .133.014.186.04a.241.241 0 0 1 .116.12c.024.05.037.125.037.224v.624h-.166v-.624c0-.085-.018-.147-.053-.186a.2.2 0 0 0-.153-.058.265.265 0 0 0-.14.041.22.22 0 0 0-.092.104.538.538 0 0 0-.025.182v.541Zm0 0" fill="var(--text-color)"/>
 <path d="m45.005 15.24h-12.012v-9.155h24.025v9.155z" fill="var(--background-color)" fill-rule="evenodd" stroke="var(--text-color)" stroke-linejoin="round" stroke-miterlimit="10" stroke-width=".03175"/>
 <path d="M34.664 8.837V7.473h.505c.101 0 .183.014.244.041a.342.342 0 0 1 .203.306.31.31 0 0 1-.05.17.324.324 0 0 1-.141.12.356.356 0 0 1 .19.128.33.33 0 0 1 .066.202.38.38 0 0 1-.14.306.415.415 0 0 1-.15.07.912.912 0 0 1-.214.021Zm.178-.79h.294a.62.62 0 0 0 .17-.016.186.186 0 0 0 .098-.066.193.193 0 0 0 .038-.12.215.215 0 0 0-.034-.12.16.16 0 0 0-.095-.07.696.696 0 0 0-.202-.02h-.269Zm0 .63h.335a.535.535 0 0 0 .12-.01.265.265 0 0 0 .103-.032.207.207 0 0 0 .066-.079.232.232 0 0 0-.012-.244.19.19 0 0 0-.108-.078.586.586 0 0 0-.194-.025h-.31ZM35.918 8.837V7.473h.165v1.364ZM36.283 8.341c0-.182.05-.316.15-.405a.46.46 0 0 1 .305-.107c.135 0 .245.044.331.132a.51.51 0 0 1 .128.368c0 .127-.02.227-.058.302a.428.428 0 0 1-.165.17.497.497 0 0 1-.236.057.436.436 0 0 1-.33-.132c-.083-.088-.125-.216-.125-.385zm.17 0c0 .127.027.222.083.285a.255.255 0 0 0 .202.096c.083 0 .151-.031.207-.096.055-.063.083-.159.083-.289a.414.414 0 0 0-.083-.277.265.265 0 0 0-.207-.095.258.258 0 0 0-.202.095c-.056.064-.083.157-.083.281ZM38.014 8.473l.16.025a.427.427 0 0 1-.14.265.384.384 0 0 1-.264.095.41.41 0 0 1-.323-.132c-.08-.088-.12-.215-.12-.38 0-.105.017-.197.05-.278a.362.362 0 0 1 .161-.177.455.455 0 0 1 .232-.062.39.39 0 0 1 .256.082.364.364 0 0 1 .132.228l-.16.024a.264.264 0 0 0-.08-.148.21.21 0 0 0-.14-.05.26.26 0 0 0-.207.09c-.05.062-.074.157-.074.286 0 .132.025.23.074.29.05.06.114.09.195.09.066 0 .12-.018.16-.057a.33.33 0 0 0 .088-.19ZM38.33 8.837V7.473h.165v.777l.389-.4h.215l-.372.367.409.62h-.203l-.322-.504-.116.112v.392Zm0 0" fill="var(--text-color)"/>
 <path d="m37.518 13.706h-3.017v-3.043h6.006v3.043z" fill="var(--background-color)" fill-rule="evenodd" stroke="var(--text-color)" stroke-linejoin="round" stroke-miterlimit="10" stroke-width=".032"/>
 <path d="M35.813 12.965V11.6h.178v1.364ZM36.652 12.816l.025.149a.737.737 0 0 1-.124.012.288.288 0 0 1-.141-.029.157.157 0 0 1-.07-.074.593.593 0 0 1-.021-.199v-.57h-.12v-.128h.12v-.244l.165-.104v.348h.166v.128h-.166v.579c0 .05.002.081.009.095.005.011.014.02.029.029a.112.112 0 0 0 .057.012c.017 0 .04 0 .07-.004zM37.487 12.646l.169.021a.397.397 0 0 1-.149.236.44.44 0 0 1-.277.082.44.44 0 0 1-.339-.132c-.082-.088-.124-.213-.124-.376 0-.165.042-.294.124-.385a.432.432 0 0 1 .331-.136c.13 0 .236.046.318.136.083.09.124.214.124.377l-.004.045h-.723a.37.37 0 0 0 .09.248.267.267 0 0 0 .203.087c.06 0 .112-.014.153-.045a.322.322 0 0 0 .104-.158zm-.542-.268h.546a.344.344 0 0 0-.066-.19.252.252 0 0 0-.203-.096.26.26 0 0 0-.19.079.296.296 0 0 0-.087.207ZM37.852 12.965v-.988h.15v.136a.336.336 0 0 1 .12-.111.34.34 0 0 1 .173-.046c.071 0 .13.016.178.046.046.03.08.072.099.124a.342.342 0 0 1 .297-.17c.097 0 .171.028.224.083.051.052.078.135.078.248v.678h-.165v-.624a.439.439 0 0 0-.017-.141.139.139 0 0 0-.058-.07.175.175 0 0 0-.099-.03.232.232 0 0 0-.17.071c-.044.044-.065.118-.065.22v.574h-.166v-.641a.276.276 0 0 0-.041-.165c-.028-.039-.072-.058-.132-.058a.23.23 0 0 0-.215.144.659.659 0 0 0-.025.207v.513Zm0 0" fill="var(--text-color)"/>
 <path d="m45.005 13.706h-2.989v-3.043h6.006v3.043z" fill="var(--background-color)" fill-rule="evenodd" stroke="var(--text-color)" stroke-linejoin="round" stroke-miterlimit="10" stroke-width=".032"/>
 <path d="M43.3 12.965V11.6h.178v1.364ZM44.14 12.816l.024.149a.737.737 0 0 1-.124.012.288.288 0 0 1-.14-.029.157.157 0 0 1-.07-.074.593.593 0 0 1-.021-.199v-.57h-.12v-.128h.12v-.244l.165-.104v.348h.165v.128h-.165v.579c0 .05.002.081.008.095.006.011.015.02.03.029a.112.112 0 0 0 .057.012c.017 0 .04 0 .07-.004zM44.974 12.646l.17.021a.397.397 0 0 1-.15.236.44.44 0 0 1-.276.082.44.44 0 0 1-.34-.132c-.082-.088-.123-.213-.123-.376 0-.165.041-.294.124-.385a.432.432 0 0 1 .33-.136c.13 0 .236.046.319.136.083.09.124.214.124.377l-.004.045h-.724a.37.37 0 0 0 .091.248.267.267 0 0 0 .203.087c.06 0 .112-.014.153-.045a.322.322 0 0 0 .103-.158zm-.541-.268h.545a.344.344 0 0 0-.066-.19.252.252 0 0 0-.202-.096.26.26 0 0 0-.19.079.296.296 0 0 0-.087.207ZM45.366 12.965v-.988h.15v.136a.336.336 0 0 1 .12-.111.34.34 0 0 1 .173-.046c.071 0 .13.016.178.046.046.03.08.072.099.124a.342.342 0 0 1 .297-.17c.097 0 .171.028.224.083.051.052.078.135.078.248v.678h-.165v-.624a.439.439 0 0 0-.017-.141.139.139 0 0 0-.058-.07.175.175 0 0 0-.099-.03.232.232 0 0 0-.17.071c-.044.044-.065.118-.065.22v.574h-.166v-.641a.276.276 0 0 0-.041-.165c-.028-.039-.072-.058-.132-.058a.23.23 0 0 0-.215.144.659.659 0 0 0-.025.207v.513Zm0 0" fill="var(--text-color)"/>
 <path d="m52.52 13.706h-3.017v-3.043h6.007v3.043z" fill="var(--background-color)" fill-rule="evenodd" stroke="var(--text-color)" stroke-linejoin="round" stroke-miterlimit="10" stroke-width=".032"/>
 <path d="m51.895 12.965v-0.19h0.19v0.19zm0.529 0v-0.19h0.19v0.19zm0.529 0v-0.19h0.19v0.19z" fill="var(--text-color)"/>
 <path d="M34.501 6.085V3.043" fill="none" stroke="var(--text-color)" stroke-linejoin="round" stroke-miterlimit="10" stroke-width=".032"/>
 <path transform="translate(-55.827 -111.92)" d="m66.33 114.96-1.799 0.61v-1.218z" fill="var(--text-color)" fill-rule="evenodd" stroke-width=".26458"/>
 <path d="m6.006 3.043h3.043" fill="none" stroke="var(--text-color)" stroke-miterlimit="10" stroke-width=".026"/>
 <path transform="translate(-55.827 -111.92)" d="m94.826 113.45-1.8 0.608v-1.217z" fill="var(--text-color)" fill-rule="evenodd" stroke-width=".26458"/>
 <path d="m16.51 1.535h21.06" fill="none" stroke="var(--text-color)" stroke-miterlimit="10" stroke-width=".026"/>
 <path d="M13.494 4.578h-2.99V0h6.006v4.578Zm0 0" fill="var(--background-color)" fill-rule="evenodd"/>
 <path d="M13.494 4.578h-2.99V0h6.006v4.578Zm0 0" fill="none" stroke="var(--text-color)" stroke-linejoin="round" stroke-miterlimit="10" stroke-width=".03175"/>
 <path d="M11.393 3.122V1.758h.178v.562h.699v-.562h.178v1.364h-.178v-.645h-.699v.645ZM13.354 3.002a.656.656 0 0 1-.182.112.557.557 0 0 1-.178.029c-.107 0-.19-.026-.248-.079a.26.26 0 0 1-.087-.202c0-.05.01-.093.033-.132a.242.242 0 0 1 .087-.096.445.445 0 0 1 .12-.057c.03-.009.079-.017.145-.025a1.51 1.51 0 0 0 .293-.058v-.041c0-.069-.015-.117-.045-.145-.042-.038-.104-.058-.186-.058a.303.303 0 0 0-.174.041c-.036.028-.064.078-.083.15l-.16-.026a.465.465 0 0 1 .074-.17.302.302 0 0 1 .144-.098.674.674 0 0 1 .22-.033c.084 0 .152.01.202.029.052.02.09.044.116.074a.296.296 0 0 1 .053.112c.006.03.009.082.009.157v.223c0 .155.002.252.008.293a.458.458 0 0 0 .041.12h-.17a.27.27 0 0 1-.032-.12Zm-.017-.376a1.115 1.115 0 0 1-.269.062.57.57 0 0 0-.144.037.14.14 0 0 0-.066.054.142.142 0 0 0-.021.079c0 .044.016.081.05.111.033.031.08.046.144.046a.34.34 0 0 0 .17-.042.29.29 0 0 0 .111-.12.413.413 0 0 0 .025-.165zM13.709 2.829l.16-.03c.011.067.038.119.08.154.04.036.099.054.173.054.077 0 .133-.015.17-.046a.151.151 0 0 0 .053-.112.108.108 0 0 0-.045-.09.826.826 0 0 0-.17-.054 1.641 1.641 0 0 1-.252-.083.24.24 0 0 1-.107-.09.278.278 0 0 1 .074-.352.336.336 0 0 1 .108-.046.578.578 0 0 1 .343.012c.058.023.1.053.128.092a.356.356 0 0 1 .058.153l-.161.02a.18.18 0 0 0-.067-.116.227.227 0 0 0-.148-.045c-.075 0-.129.012-.162.037a.111.111 0 0 0-.05.091c0 .023.007.041.021.058a.179.179 0 0 0 .062.046c.017.006.067.02.15.04.115.034.195.06.239.08.047.019.083.048.108.086a.277.277 0 0 1-.008.302.302.302 0 0 1-.137.116.532.532 0 0 1-.203.037c-.127 0-.223-.026-.29-.079a.367.367 0 0 1-.127-.235zM14.728 3.122V1.758h.165v.488a.369.369 0 0 1 .29-.132c.07 0 .133.014.185.04a.241.241 0 0 1 .116.12c.025.05.037.125.037.224v.624h-.165v-.624c0-.085-.019-.147-.054-.186a.2.2 0 0 0-.153-.058.265.265 0 0 0-.14.041.22.22 0 0 0-.091.104.538.538 0 0 0-.025.182v.541Zm0 0" fill="var(--text-color)"/>
 <path d="M6.006 6.085V3.043" fill="none" stroke="var(--text-color)" stroke-linejoin="round" stroke-miterlimit="10" stroke-width=".032"/>
</svg>
