<?xml version="1.0" encoding="UTF-8"?>
<svg height="70.5mm" version="1.1" viewBox="0 0 79.25 23.35" xmlns="http://www.w3.org/2000/svg">
 <path d="m7.099 7.821h-5.847v-3.863h11.695v3.863z" fill="var(--background-color)" fill-rule="evenodd" stroke="var(--text-color)" stroke-linejoin="round" stroke-miterlimit="10" stroke-width=".032"/>
 <path d="M3.945 6.55V5.398h.153v1.154ZM4.921 6.55v-.107a.265.265 0 0 1-.235.129.353.353 0 0 1-.186-.054.404.404 0 0 1-.133-.157.529.529 0 0 1-.045-.228c0-.082.013-.158.041-.227a.347.347 0 0 1 .128-.157.338.338 0 0 1 .186-.054.278.278 0 0 1 .232.116v-.414h.145v1.154Zm-.45-.417c0 .108.021.188.066.24a.21.21 0 0 0 .161.079.196.196 0 0 0 .157-.075c.044-.05.066-.126.066-.231 0-.116-.022-.2-.066-.252a.204.204 0 0 0-.322 0c-.042.05-.062.13-.062.24zM5.85 6.282l.148.017a.386.386 0 0 1-.132.202.378.378 0 0 1-.24.07.396.396 0 0 1-.293-.111.445.445 0 0 1-.108-.318c0-.14.035-.25.108-.327.074-.08.17-.12.285-.12.113 0 .205.04.277.116.071.074.108.182.108.322v.038h-.629a.32.32 0 0 0 .079.21c.046.048.104.07.173.07a.23.23 0 0 0 .133-.037.272.272 0 0 0 .09-.132zm-.468-.231h.468a.283.283 0 0 0-.054-.157.214.214 0 0 0-.174-.083.226.226 0 0 0-.165.066.263.263 0 0 0-.075.174zM6.174 6.55v-.834h.128v.12a.3.3 0 0 1 .27-.14c.049 0 .094.01.136.028a.19.19 0 0 1 .095.07.282.282 0 0 1 .045.104.858.858 0 0 1 .008.14v.513h-.14v-.509c0-.057-.006-.1-.017-.128a.132.132 0 0 0-.062-.07.23.23 0 0 0-.256.033c-.044.04-.066.112-.066.22v.454ZM7.411 6.423l.02.128a.562.562 0 0 1-.107.012.233.233 0 0 1-.12-.024.162.162 0 0 1-.062-.062.535.535 0 0 1-.016-.17v-.484h-.103v-.107h.103v-.207l.14-.087v.294h.145v.107h-.145v.492c0 .04.003.065.009.079.005.011.013.02.025.029.01.006.026.008.05.008a.256.256 0 0 0 .061-.008zM7.552 5.559v-.162h.14v.162Zm0 .992v-.835h.14v.835ZM8.233 6.423l.02.128a.562.562 0 0 1-.107.012.233.233 0 0 1-.12-.024.162.162 0 0 1-.062-.062.535.535 0 0 1-.017-.17v-.484h-.103v-.107h.103v-.207l.141-.087v.294h.145v.107h-.145v.492c0 .04.002.065.008.079.005.011.014.02.025.029.01.006.027.008.05.008a.256.256 0 0 0 .062-.008zM8.373 5.559v-.162h.14v.162Zm0 .992v-.835h.14v.835ZM9.319 6.282l.149.017a.386.386 0 0 1-.133.202.378.378 0 0 1-.24.07.396.396 0 0 1-.293-.111.445.445 0 0 1-.108-.318c0-.14.036-.25.108-.327.074-.08.17-.12.285-.12.113 0 .205.04.277.116.072.074.108.182.108.322v.038h-.629a.32.32 0 0 0 .079.21c.046.048.104.07.173.07a.23.23 0 0 0 .133-.037.272.272 0 0 0 .09-.132zm-.467-.231h.467a.283.283 0 0 0-.054-.157.214.214 0 0 0-.174-.083.226.226 0 0 0-.165.066.263.263 0 0 0-.074.174zM9.586 6.303l.14-.025c.008.058.03.102.066.132a.243.243 0 0 0 .153.042c.066 0 .114-.013.145-.038a.125.125 0 0 0 .045-.095c0-.03-.014-.054-.041-.074a.577.577 0 0 0-.145-.05 1.235 1.235 0 0 1-.219-.066.219.219 0 0 1-.09-.078.235.235 0 0 1-.03-.116c0-.035.009-.068.025-.1a.225.225 0 0 1 .07-.082.277.277 0 0 1 .091-.041.493.493 0 0 1 .298.012c.05.02.085.046.107.079a.265.265 0 0 1 .05.128l-.136.02a.172.172 0 0 0-.058-.103.2.2 0 0 0-.128-.037c-.067 0-.114.011-.14.033-.029.023-.042.048-.042.074 0 .02.005.037.016.05a.146.146 0 0 0 .058.041c.014.007.055.017.124.033.101.028.172.05.211.067a.208.208 0 0 1 .091.074.2.2 0 0 1 .037.124.238.238 0 0 1-.041.132.294.294 0 0 1-.12.1.462.462 0 0 1-.178.033.408.408 0 0 1-.252-.067.33.33 0 0 1-.107-.202Zm0 0" fill="var(--text-color)"/>
 <path d="m22.71 7.821h-5.847v-3.863h11.694v3.863z" fill="var(--background-color)" fill-rule="evenodd" stroke="var(--text-color)" stroke-linejoin="round" stroke-miterlimit="10" stroke-width=".032"/>
 <path d="M18.448 6.55V5.535h-.384v-.137h.922v.137H18.6V6.55ZM19.029 6.55v-.834h.128v.124a.363.363 0 0 1 .091-.116.159.159 0 0 1 .091-.029c.05 0 .1.016.149.046l-.05.132a.227.227 0 0 0-.103-.029.142.142 0 0 0-.087.029.12.12 0 0 0-.05.074.524.524 0 0 0-.024.166v.438ZM20.135 6.448a.534.534 0 0 1-.153.095.415.415 0 0 1-.153.029c-.094 0-.166-.022-.215-.067a.228.228 0 0 1-.075-.173c0-.042.01-.079.03-.112a.214.214 0 0 1 .074-.082.268.268 0 0 1 .103-.046.914.914 0 0 1 .124-.025c.116-.01.2-.026.256-.045v-.037c0-.058-.014-.1-.041-.124-.036-.03-.09-.046-.161-.046-.07 0-.12.012-.153.037-.031.023-.053.062-.066.12l-.14-.02a.36.36 0 0 1 .061-.141.272.272 0 0 1 .128-.087.588.588 0 0 1 .19-.029c.072 0 .13.008.174.025.044.016.077.04.1.066a.21.21 0 0 1 .045.095c.002.025.004.07.004.132V6.2c0 .132.002.217.008.252.008.033.02.066.037.099h-.148a.336.336 0 0 1-.03-.103Zm-.009-.315c-.052.02-.13.037-.235.05a.55.55 0 0 0-.124.029.13.13 0 0 0-.058.05.128.128 0 0 0-.017.066c0 .036.014.068.042.095.03.025.072.037.128.037a.277.277 0 0 0 .144-.037.225.225 0 0 0 .096-.1.302.302 0 0 0 .024-.14zM20.488 6.55v-.834h.128v.12a.3.3 0 0 1 .27-.14c.049 0 .094.01.136.028a.19.19 0 0 1 .095.07.282.282 0 0 1 .045.104.858.858 0 0 1 .008.14v.513h-.14v-.509c0-.057-.006-.1-.017-.128a.132.132 0 0 0-.062-.07.23.23 0 0 0-.256.033c-.045.04-.066.112-.066.22v.454ZM21.33 6.303l.14-.025c.008.058.03.102.066.132a.243.243 0 0 0 .153.042c.066 0 .114-.013.145-.038a.125.125 0 0 0 .045-.095c0-.03-.014-.054-.04-.074a.577.577 0 0 0-.146-.05 1.235 1.235 0 0 1-.219-.066.219.219 0 0 1-.09-.078.235.235 0 0 1-.03-.116c0-.035.009-.068.025-.1a.225.225 0 0 1 .07-.082.277.277 0 0 1 .091-.041.493.493 0 0 1 .298.012c.05.02.085.046.108.079a.265.265 0 0 1 .05.128l-.137.02a.172.172 0 0 0-.058-.103.2.2 0 0 0-.128-.037c-.066 0-.114.011-.14.033-.029.023-.042.048-.042.074 0 .02.005.037.016.05a.146.146 0 0 0 .058.041c.014.007.055.017.124.033.102.028.172.05.211.067a.208.208 0 0 1 .091.074.2.2 0 0 1 .037.124.238.238 0 0 1-.041.132.294.294 0 0 1-.12.1.462.462 0 0 1-.178.033.408.408 0 0 1-.252-.067.33.33 0 0 1-.107-.202ZM22.78 6.448a.534.534 0 0 1-.152.095.415.415 0 0 1-.153.029c-.094 0-.166-.022-.215-.067a.228.228 0 0 1-.075-.173c0-.042.01-.079.03-.112a.214.214 0 0 1 .074-.082.268.268 0 0 1 .103-.046.914.914 0 0 1 .124-.025c.116-.01.2-.026.256-.045v-.037c0-.058-.014-.1-.041-.124-.036-.03-.09-.046-.161-.046-.07 0-.12.012-.153.037-.031.023-.053.062-.066.12l-.14-.02a.36.36 0 0 1 .061-.141.272.272 0 0 1 .128-.087.588.588 0 0 1 .19-.029c.072 0 .13.008.174.025.044.016.077.04.1.066a.21.21 0 0 1 .045.095c.002.025.004.07.004.132V6.2c0 .132.002.217.008.252.008.033.02.066.037.099h-.148a.336.336 0 0 1-.03-.103Zm-.008-.315c-.052.02-.13.037-.235.05a.55.55 0 0 0-.124.029.13.13 0 0 0-.058.05.128.128 0 0 0-.017.066c0 .036.014.068.042.095.03.025.072.037.128.037a.277.277 0 0 0 .144-.037.225.225 0 0 0 .096-.1.302.302 0 0 0 .024-.14zM23.68 6.245l.14.017a.358.358 0 0 1-.115.227.338.338 0 0 1-.232.083.372.372 0 0 1-.28-.112.463.463 0 0 1-.104-.322c0-.091.014-.17.045-.236a.31.31 0 0 1 .137-.153.41.41 0 0 1 .202-.054c.091 0 .166.024.223.07a.323.323 0 0 1 .112.195l-.136.02a.234.234 0 0 0-.07-.124.178.178 0 0 0-.125-.045.216.216 0 0 0-.173.078c-.045.053-.066.135-.066.244 0 .111.02.193.062.244.043.05.1.075.17.075a.2.2 0 0 0 .14-.05c.038-.033.062-.085.07-.157zM24.264 6.423l.02.128a.562.562 0 0 1-.107.012.233.233 0 0 1-.12-.024.162.162 0 0 1-.062-.062.535.535 0 0 1-.016-.17v-.484h-.103v-.107h.103v-.207l.14-.087v.294h.145v.107h-.145v.492c0 .04.003.065.009.079.005.011.013.02.025.029.01.006.026.008.05.008a.256.256 0 0 0 .061-.008zM24.405 5.559v-.162h.14v.162Zm0 .992v-.835h.14v.835ZM24.722 6.133c0-.154.042-.268.128-.343a.396.396 0 0 1 .265-.095.37.37 0 0 1 .28.116.42.42 0 0 1 .112.31.557.557 0 0 1-.05.256.339.339 0 0 1-.14.145.417.417 0 0 1-.202.05.386.386 0 0 1-.286-.112c-.072-.077-.107-.186-.107-.327zm.145 0c0 .108.022.188.07.24a.226.226 0 0 0 .178.079c.07 0 .13-.026.177-.079.047-.052.07-.133.07-.244 0-.104-.023-.183-.07-.235a.232.232 0 0 0-.177-.079.229.229 0 0 0-.178.079c-.048.052-.07.132-.07.24zM25.675 6.55v-.834h.128v.12a.3.3 0 0 1 .269-.14c.05 0 .095.01.136.028a.19.19 0 0 1 .095.07.282.282 0 0 1 .046.104.858.858 0 0 1 .008.14v.513h-.14v-.509c0-.057-.007-.1-.017-.128a.132.132 0 0 0-.062-.07.23.23 0 0 0-.256.033c-.045.04-.067.112-.067.22v.454ZM26.544 6.303l.14-.025c.009.058.03.102.067.132a.243.243 0 0 0 .153.042c.066 0 .113-.013.144-.038a.125.125 0 0 0 .046-.095c0-.03-.015-.054-.042-.074a.577.577 0 0 0-.144-.05 1.235 1.235 0 0 1-.22-.066.219.219 0 0 1-.09-.078.235.235 0 0 1-.03-.116c0-.035.009-.068.025-.1a.225.225 0 0 1 .07-.082.277.277 0 0 1 .092-.041.493.493 0 0 1 .298.012c.049.02.084.046.107.079a.265.265 0 0 1 .05.128l-.137.02a.172.172 0 0 0-.058-.103.2.2 0 0 0-.128-.037c-.066 0-.114.011-.14.033-.028.023-.042.048-.042.074 0 .02.005.037.017.05a.146.146 0 0 0 .058.041c.013.007.054.017.124.033.1.028.171.05.21.067a.208.208 0 0 1 .091.074.2.2 0 0 1 .038.124.238.238 0 0 1-.042.132.294.294 0 0 1-.12.1.462.462 0 0 1-.177.033.408.408 0 0 1-.253-.067.33.33 0 0 1-.107-.202Zm0 0" fill="var(--text-color)"/>
 <path d="m39.59 9.117h-5.848v-6.455h11.696v6.455z" fill="var(--background-color)" fill-rule="evenodd" stroke="var(--text-color)" stroke-linejoin="round" stroke-miterlimit="10" stroke-width=".032"/>
 <path d="M37.286 5.757V4.74h-.384v-.136h.922v.136h-.385v1.017ZM37.895 5.757v-.835h.128v.124a.363.363 0 0 1 .091-.116.159.159 0 0 1 .091-.029c.05 0 .1.016.149.046l-.05.132a.227.227 0 0 0-.103-.029.142.142 0 0 0-.087.03.12.12 0 0 0-.05.074.524.524 0 0 0-.024.165v.438ZM38.979 5.757v-.124a.306.306 0 0 1-.265.145.356.356 0 0 1-.14-.03.24.24 0 0 1-.1-.07.303.303 0 0 1-.041-.107.68.68 0 0 1-.008-.132v-.517h.144v.463a.78.78 0 0 0 .009.149c.008.04.026.07.053.09.03.02.067.03.108.03a.22.22 0 0 0 .12-.033.172.172 0 0 0 .078-.087.43.43 0 0 0 .025-.165v-.447h.145v.835ZM39.27 5.51l.14-.026c.01.058.03.103.067.133a.243.243 0 0 0 .153.04c.066 0 .114-.011.145-.036a.125.125 0 0 0 .045-.095c0-.03-.014-.055-.041-.075a.577.577 0 0 0-.145-.05 1.235 1.235 0 0 1-.219-.066.219.219 0 0 1-.091-.078.235.235 0 0 1-.029-.116c0-.035.008-.068.025-.099a.225.225 0 0 1 .07-.083.277.277 0 0 1 .091-.041.493.493 0 0 1 .298.012c.05.02.085.046.107.079a.265.265 0 0 1 .05.128l-.137.02a.172.172 0 0 0-.057-.103.2.2 0 0 0-.129-.037c-.066 0-.113.012-.14.033-.028.023-.041.048-.041.075 0 .02.005.036.016.05a.146.146 0 0 0 .058.04c.013.007.055.017.124.034.101.028.172.05.21.066a.208.208 0 0 1 .092.074.2.2 0 0 1 .037.124.238.238 0 0 1-.041.133.294.294 0 0 1-.12.099.462.462 0 0 1-.178.033.408.408 0 0 1-.252-.066.33.33 0 0 1-.108-.203ZM40.458 5.629l.02.128a.562.562 0 0 1-.107.013.233.233 0 0 1-.12-.025.162.162 0 0 1-.062-.062.535.535 0 0 1-.016-.17V5.03h-.103v-.108h.103v-.207l.14-.086v.293h.145v.108h-.145v.492c0 .039.002.065.009.078.005.011.013.02.025.029.01.006.026.008.05.008a.256.256 0 0 0 .061-.008zM41.2 5.488l.148.017a.386.386 0 0 1-.132.203.378.378 0 0 1-.24.07.396.396 0 0 1-.294-.112.445.445 0 0 1-.107-.318c0-.14.035-.25.107-.327.075-.08.17-.12.286-.12.112 0 .204.04.277.116.07.075.107.182.107.323v.037h-.628a.32.32 0 0 0 .078.21c.047.048.105.07.174.07a.23.23 0 0 0 .132-.036.272.272 0 0 0 .091-.133zm-.468-.231h.467a.283.283 0 0 0-.054-.157.214.214 0 0 0-.173-.083.226.226 0 0 0-.166.066.263.263 0 0 0-.074.174zM42.07 5.757V5.65a.265.265 0 0 1-.236.128.353.353 0 0 1-.186-.054.404.404 0 0 1-.133-.157.529.529 0 0 1-.045-.227c0-.083.013-.159.041-.228a.347.347 0 0 1 .128-.157.338.338 0 0 1 .187-.054.278.278 0 0 1 .231.116v-.413h.145v1.153Zm-.451-.417c0 .107.022.188.066.24a.21.21 0 0 0 .161.078.196.196 0 0 0 .157-.074c.044-.05.066-.127.066-.232 0-.116-.022-.2-.066-.252a.204.204 0 0 0-.322 0c-.042.05-.062.13-.062.24zM36.043 7.53V6.513h-.385v-.137h.922v.137h-.384V7.53ZM36.707 7.53V6.376h.14v.414a.32.32 0 0 1 .253-.116c.063 0 .117.013.161.037.047.025.08.06.1.104a.472.472 0 0 1 .028.186v.529h-.14V7c0-.07-.016-.121-.046-.152-.03-.033-.074-.05-.132-.05a.241.241 0 0 0-.12.033.197.197 0 0 0-.078.091.365.365 0 0 0-.025.149v.459ZM37.607 6.538v-.162h.14v.162Zm0 .992v-.835h.14v.835ZM37.974 7.53v-.835h.128v.124a.363.363 0 0 1 .09-.116.159.159 0 0 1 .092-.029c.05 0 .099.016.148.046l-.05.132a.227.227 0 0 0-.103-.03.142.142 0 0 0-.086.03.12.12 0 0 0-.05.074.524.524 0 0 0-.025.166v.438ZM39.08 7.53v-.108a.265.265 0 0 1-.236.129.353.353 0 0 1-.187-.054.404.404 0 0 1-.132-.157.529.529 0 0 1-.045-.228c0-.082.013-.158.041-.227a.347.347 0 0 1 .128-.157.338.338 0 0 1 .186-.054.278.278 0 0 1 .232.116v-.414h.144V7.53Zm-.451-.418c0 .108.021.188.066.24a.21.21 0 0 0 .16.079.196.196 0 0 0 .158-.075c.043-.05.066-.126.066-.231 0-.116-.023-.2-.066-.252a.204.204 0 0 0-.322 0c-.042.05-.062.13-.062.24zM39.9 7.53V6.376h.438c.076 0 .136.004.178.009a.384.384 0 0 1 .14.058.254.254 0 0 1 .091.111c.025.048.037.1.037.157 0 .097-.032.18-.095.248-.06.07-.173.104-.339.104h-.297v.467Zm.153-.604h.301c.1 0 .17-.017.211-.053a.204.204 0 0 0 .062-.158.2.2 0 0 0-.037-.124.177.177 0 0 0-.095-.07.9.9 0 0 0-.145-.008h-.297zM41.513 7.427a.534.534 0 0 1-.153.095.415.415 0 0 1-.153.029c-.094 0-.165-.022-.215-.067a.228.228 0 0 1-.074-.173c0-.042.009-.079.029-.112a.214.214 0 0 1 .074-.083.268.268 0 0 1 .103-.045.914.914 0 0 1 .124-.025c.116-.01.2-.026.257-.045v-.037c0-.058-.015-.1-.042-.125-.036-.03-.09-.045-.16-.045s-.12.012-.154.037c-.03.023-.053.062-.066.12l-.14-.02a.36.36 0 0 1 .061-.141.272.272 0 0 1 .129-.087.588.588 0 0 1 .19-.029c.071 0 .129.008.173.025.044.016.077.04.1.066a.21.21 0 0 1 .045.095c.002.025.004.07.004.132v.186c0 .133.002.218.008.253.009.033.021.066.038.099h-.15a.336.336 0 0 1-.028-.103Zm-.008-.315c-.053.02-.132.037-.236.05a.55.55 0 0 0-.124.029.13.13 0 0 0-.058.05.128.128 0 0 0-.016.066c0 .036.013.068.04.095.03.025.073.037.13.037a.277.277 0 0 0 .144-.037.225.225 0 0 0 .095-.1.302.302 0 0 0 .025-.14zM41.862 7.53v-.835h.129v.124a.363.363 0 0 1 .09-.116.159.159 0 0 1 .091-.029c.05 0 .1.016.15.046l-.05.132a.227.227 0 0 0-.104-.03.142.142 0 0 0-.087.03.12.12 0 0 0-.05.074.524.524 0 0 0-.024.166v.438ZM42.732 7.402l.021.128a.562.562 0 0 1-.107.012.233.233 0 0 1-.12-.025.162.162 0 0 1-.062-.062.535.535 0 0 1-.017-.169v-.484h-.103v-.107h.103v-.207l.14-.087v.294h.145v.107h-.144v.492c0 .04.002.065.008.079.005.011.013.02.025.029.01.006.027.008.05.008a.256.256 0 0 0 .061-.008zM42.864 7.852l-.016-.132c.033.008.06.012.083.012a.142.142 0 0 0 .074-.016.187.187 0 0 0 .05-.046.863.863 0 0 0 .053-.14l-.318-.835h.153l.178.483c.021.061.041.127.058.195.016-.066.037-.13.062-.19l.177-.488h.145l-.322.847c-.033.093-.06.157-.079.19a.284.284 0 0 1-.087.104.208.208 0 0 1-.115.033.347.347 0 0 1-.096-.017zm0 0" fill="var(--text-color)"/>
 <path d="m56.496 9.117h-5.846v-6.455h11.694v6.455z" fill="var(--background-color)" fill-rule="evenodd" stroke="var(--text-color)" stroke-linejoin="round" stroke-miterlimit="10" stroke-width=".032"/>
 <path d="m52.685 6.146.157.037a.475.475 0 0 1-.484.389.57.57 0 0 1-.305-.075.49.49 0 0 1-.178-.223.811.811 0 0 1-.058-.31c0-.118.022-.221.066-.31a.48.48 0 0 1 .199-.207.576.576 0 0 1 .28-.07.449.449 0 0 1 .459.335l-.152.037a.345.345 0 0 0-.12-.182.304.304 0 0 0-.19-.058.371.371 0 0 0-.224.066.33.33 0 0 0-.128.17.722.722 0 0 0-.033.219c0 .1.014.186.041.26a.32.32 0 0 0 .137.162.37.37 0 0 0 .194.053.325.325 0 0 0 .22-.074c.06-.05.1-.122.12-.22zM52.951 6.133c0-.154.043-.268.129-.343a.396.396 0 0 1 .264-.095.37.37 0 0 1 .281.116.42.42 0 0 1 .112.31.557.557 0 0 1-.05.256.339.339 0 0 1-.14.145.417.417 0 0 1-.203.05.386.386 0 0 1-.285-.112c-.072-.077-.108-.186-.108-.327zm.145 0c0 .108.023.188.07.24a.226.226 0 0 0 .178.079c.072 0 .13-.026.178-.079.046-.052.07-.133.07-.244 0-.104-.024-.183-.07-.235a.232.232 0 0 0-.178-.079.229.229 0 0 0-.178.079c-.047.052-.07.132-.07.24zM54.454 6.55v-.123a.306.306 0 0 1-.264.145.356.356 0 0 1-.14-.03.24.24 0 0 1-.1-.07.303.303 0 0 1-.041-.107.68.68 0 0 1-.009-.132v-.517h.145v.463a.78.78 0 0 0 .008.149c.009.039.026.069.054.09.03.02.066.03.108.03a.22.22 0 0 0 .12-.034.172.172 0 0 0 .078-.086.43.43 0 0 0 .025-.166v-.446h.144v.835ZM54.831 6.55v-.834h.128v.12a.3.3 0 0 1 .27-.14c.049 0 .094.01.136.028a.19.19 0 0 1 .095.07.282.282 0 0 1 .045.104.858.858 0 0 1 .008.14v.513h-.14v-.509c0-.057-.006-.1-.017-.128a.132.132 0 0 0-.062-.07.23.23 0 0 0-.256.033c-.044.04-.066.112-.066.22v.454ZM56.04 6.423l.021.128a.562.562 0 0 1-.107.012.233.233 0 0 1-.12-.024.162.162 0 0 1-.062-.062.535.535 0 0 1-.017-.17v-.484h-.103v-.107h.103v-.207l.141-.087v.294h.145v.107h-.145v.492c0 .04.002.065.008.079.005.011.014.02.025.029.01.006.027.008.05.008a.256.256 0 0 0 .062-.008zM56.782 6.282l.148.017a.386.386 0 0 1-.132.202.378.378 0 0 1-.24.07.396.396 0 0 1-.293-.111.445.445 0 0 1-.108-.318c0-.14.036-.25.108-.327.074-.08.17-.12.285-.12.113 0 .205.04.277.116.071.074.108.182.108.322v.038h-.629a.32.32 0 0 0 .079.21c.046.048.104.07.173.07a.23.23 0 0 0 .133-.037.272.272 0 0 0 .09-.132zm-.468-.231h.468a.283.283 0 0 0-.054-.157.214.214 0 0 0-.174-.083.226.226 0 0 0-.165.066.263.263 0 0 0-.075.174zM57.102 6.55v-.834h.128v.124a.363.363 0 0 1 .091-.116.159.159 0 0 1 .091-.029c.05 0 .1.016.149.046l-.05.132a.227.227 0 0 0-.103-.029.142.142 0 0 0-.087.029.12.12 0 0 0-.05.074.524.524 0 0 0-.024.166v.438ZM57.636 6.873V5.716h.128v.107a.28.28 0 0 1 .244-.128c.071 0 .135.02.19.058a.332.332 0 0 1 .124.153c.027.066.042.14.042.22a.571.571 0 0 1-.046.23.347.347 0 0 1-.318.215.3.3 0 0 1-.132-.028.335.335 0 0 1-.091-.079v.41Zm.128-.735c0 .107.022.188.066.24.044.049.097.074.158.074a.203.203 0 0 0 .16-.079c.047-.052.071-.134.071-.248 0-.104-.023-.183-.066-.236a.199.199 0 0 0-.157-.082c-.061 0-.115.029-.161.087-.048.055-.07.136-.07.244ZM59.109 6.448a.534.534 0 0 1-.153.095.415.415 0 0 1-.153.029c-.094 0-.166-.022-.215-.067a.228.228 0 0 1-.075-.173c0-.042.01-.079.03-.112a.214.214 0 0 1 .074-.082.268.268 0 0 1 .103-.046.914.914 0 0 1 .124-.025c.116-.01.2-.026.256-.045v-.037c0-.058-.014-.1-.041-.124-.036-.03-.09-.046-.161-.046-.07 0-.12.012-.153.037-.031.023-.053.062-.066.12l-.14-.02a.36.36 0 0 1 .061-.141.272.272 0 0 1 .128-.087.588.588 0 0 1 .19-.029c.072 0 .13.008.174.025.044.016.077.04.1.066a.21.21 0 0 1 .045.095c.002.025.004.07.004.132V6.2c0 .132.002.217.008.252.008.033.02.066.037.099h-.148a.336.336 0 0 1-.03-.103Zm-.009-.315c-.052.02-.13.037-.235.05a.55.55 0 0 0-.124.029.13.13 0 0 0-.058.05.128.128 0 0 0-.017.066c0 .036.014.068.042.095.03.025.072.037.128.037a.277.277 0 0 0 .144-.037.225.225 0 0 0 .096-.1.302.302 0 0 0 .024-.14zM59.458 6.55v-.834h.128v.124a.363.363 0 0 1 .091-.116.159.159 0 0 1 .091-.029c.05 0 .1.016.149.046l-.05.132a.227.227 0 0 0-.103-.029.142.142 0 0 0-.087.029.12.12 0 0 0-.05.074.524.524 0 0 0-.024.166v.438ZM60.328 6.423l.02.128a.562.562 0 0 1-.107.012.233.233 0 0 1-.12-.024.162.162 0 0 1-.062-.062.535.535 0 0 1-.016-.17v-.484h-.104v-.107h.104v-.207l.14-.087v.294h.145v.107h-.145v.492c0 .04.002.065.009.079.005.011.013.02.024.029.01.006.027.008.05.008a.256.256 0 0 0 .062-.008zM60.46 6.873l-.016-.132c.033.008.06.012.082.012a.142.142 0 0 0 .075-.016.187.187 0 0 0 .05-.046.863.863 0 0 0 .053-.14l-.318-.835h.153l.177.484c.022.06.042.126.058.194.017-.066.038-.13.062-.19l.178-.488h.145l-.323.847c-.033.093-.06.157-.078.19a.284.284 0 0 1-.087.104.208.208 0 0 1-.116.033.347.347 0 0 1-.095-.017zm0 0" fill="var(--text-color)"/>
 <path d="m73.404 9.117h-5.874v-6.455h11.72v6.455z" fill="var(--background-color)" fill-rule="evenodd" stroke="var(--text-color)" stroke-linejoin="round" stroke-miterlimit="10" stroke-width=".03175"/>
 <path d="M71.358 6.55V5.398h.438c.077 0 .137.004.178.009a.384.384 0 0 1 .14.058.254.254 0 0 1 .092.111c.024.048.037.1.037.157 0 .098-.032.18-.095.248-.061.07-.174.104-.34.104h-.297v.467Zm.153-.603h.302c.1 0 .17-.017.21-.053a.204.204 0 0 0 .063-.158.2.2 0 0 0-.037-.124.177.177 0 0 0-.096-.07.9.9 0 0 0-.144-.008h-.298zM72.975 6.55v-.123a.306.306 0 0 1-.264.145.356.356 0 0 1-.14-.03.24.24 0 0 1-.1-.07.303.303 0 0 1-.041-.107.68.68 0 0 1-.009-.132v-.517h.145v.463a.78.78 0 0 0 .008.149c.009.039.026.069.054.09.03.02.066.03.108.03a.22.22 0 0 0 .12-.034.172.172 0 0 0 .078-.086.43.43 0 0 0 .025-.166v-.446h.145v.835ZM73.457 6.55h-.132V5.398h.14v.41a.284.284 0 0 1 .232-.112c.052 0 .1.012.145.033.046.02.084.049.115.087.03.036.054.082.07.136.017.053.025.11.025.17a.485.485 0 0 1-.107.335.338.338 0 0 1-.256.116.263.263 0 0 1-.232-.124zm-.004-.425c0 .102.013.176.041.22a.202.202 0 0 0 .182.107.203.203 0 0 0 .162-.079c.046-.055.07-.134.07-.24 0-.11-.023-.19-.066-.244a.203.203 0 0 0-.157-.078.21.21 0 0 0-.166.083c-.044.052-.066.13-.066.231zM74.22 6.55V5.398h.145v1.154ZM74.595 5.559v-.162h.14v.162Zm0 .992v-.835h.14v.835ZM75.512 6.245l.14.017a.358.358 0 0 1-.115.227.338.338 0 0 1-.232.083.372.372 0 0 1-.28-.112.463.463 0 0 1-.104-.322c0-.091.014-.17.045-.236a.31.31 0 0 1 .137-.153.41.41 0 0 1 .202-.054c.091 0 .166.024.224.07a.323.323 0 0 1 .111.195l-.136.02a.234.234 0 0 0-.07-.124.178.178 0 0 0-.125-.045.216.216 0 0 0-.173.078c-.045.053-.066.135-.066.244 0 .111.02.193.062.244.043.05.1.075.17.075a.2.2 0 0 0 .14-.05c.038-.033.062-.085.07-.157zm0 0" fill="var(--text-color)"/>
 <path d="m64.937 1.365v9.048" fill="none" stroke="var(--text-color)" stroke-linejoin="round" stroke-miterlimit="10" stroke-width=".032"/>
 <path d="m7.099 22.082h-5.847v-3.89h11.695v3.89z" fill="var(--background-color)" fill-rule="evenodd" stroke="var(--text-color)" stroke-linejoin="round" stroke-miterlimit="10" stroke-width=".032"/>
 <path d="M3.945 20.838v-1.153h.153v1.153ZM4.921 20.838v-.107a.265.265 0 0 1-.235.128.353.353 0 0 1-.186-.054.404.404 0 0 1-.133-.157.529.529 0 0 1-.045-.227c0-.083.013-.158.041-.228a.347.347 0 0 1 .128-.157.338.338 0 0 1 .186-.053.278.278 0 0 1 .232.115v-.413h.145v1.153Zm-.45-.417c0 .107.021.188.066.24a.21.21 0 0 0 .161.078.196.196 0 0 0 .157-.074c.044-.05.066-.126.066-.232 0-.115-.022-.2-.066-.252a.204.204 0 0 0-.322 0c-.042.05-.062.13-.062.24zM5.85 20.57l.148.016a.386.386 0 0 1-.132.203.378.378 0 0 1-.24.07.396.396 0 0 1-.293-.112.445.445 0 0 1-.108-.318c0-.14.035-.249.108-.326.074-.08.17-.12.285-.12.113 0 .205.039.277.115.071.075.108.182.108.323v.037h-.629a.32.32 0 0 0 .079.21c.046.048.104.071.173.071a.23.23 0 0 0 .133-.037.272.272 0 0 0 .09-.132zm-.468-.232h.468a.283.283 0 0 0-.054-.157.214.214 0 0 0-.174-.083.226.226 0 0 0-.165.067.263.263 0 0 0-.075.173zM6.174 20.838v-.835h.128v.12a.3.3 0 0 1 .27-.14c.049 0 .094.01.136.029a.19.19 0 0 1 .095.07.282.282 0 0 1 .045.103.858.858 0 0 1 .008.14v.513h-.14v-.508c0-.058-.006-.1-.017-.128a.132.132 0 0 0-.062-.07.23.23 0 0 0-.256.033c-.044.039-.066.111-.066.219v.454ZM7.411 20.71l.02.128a.562.562 0 0 1-.107.013.233.233 0 0 1-.12-.025.162.162 0 0 1-.062-.062.535.535 0 0 1-.016-.17v-.483h-.103v-.108h.103v-.206l.14-.087v.293h.145v.108h-.145v.492c0 .039.003.065.009.078.005.012.013.021.025.03.01.005.026.008.05.008a.256.256 0 0 0 .061-.009zM7.552 19.846v-.161h.14v.161Zm0 .992v-.835h.14v.835ZM8.233 20.71l.02.128a.562.562 0 0 1-.107.013.233.233 0 0 1-.12-.025.162.162 0 0 1-.062-.062.535.535 0 0 1-.017-.17v-.483h-.103v-.108h.103v-.206l.141-.087v.293h.145v.108h-.145v.492c0 .039.002.065.008.078.005.012.014.021.025.03.01.005.027.008.05.008a.256.256 0 0 0 .062-.009zM8.373 19.846v-.161h.14v.161Zm0 .992v-.835h.14v.835ZM9.319 20.57l.149.016a.386.386 0 0 1-.133.203.378.378 0 0 1-.24.07.396.396 0 0 1-.293-.112.445.445 0 0 1-.108-.318c0-.14.036-.249.108-.326.074-.08.17-.12.285-.12.113 0 .205.039.277.115.072.075.108.182.108.323v.037h-.629a.32.32 0 0 0 .079.21c.046.048.104.071.173.071a.23.23 0 0 0 .133-.037.272.272 0 0 0 .09-.132zm-.467-.232h.467a.283.283 0 0 0-.054-.157.214.214 0 0 0-.174-.083.226.226 0 0 0-.165.067.263.263 0 0 0-.074.173zM9.586 20.59l.14-.024c.008.057.03.102.066.132a.243.243 0 0 0 .153.041c.066 0 .114-.012.145-.037a.125.125 0 0 0 .045-.095c0-.03-.014-.055-.041-.075a.577.577 0 0 0-.145-.05 1.235 1.235 0 0 1-.219-.065.219.219 0 0 1-.09-.079.235.235 0 0 1-.03-.116c0-.035.009-.068.025-.099a.225.225 0 0 1 .07-.082.277.277 0 0 1 .091-.042.493.493 0 0 1 .298.012c.05.02.085.046.107.08a.265.265 0 0 1 .05.127l-.136.021a.172.172 0 0 0-.058-.103.2.2 0 0 0-.128-.038c-.067 0-.114.012-.14.033-.029.023-.042.048-.042.075 0 .02.005.036.016.05a.146.146 0 0 0 .058.04c.014.007.055.017.124.034.101.028.172.05.211.066a.208.208 0 0 1 .091.074.2.2 0 0 1 .037.125.238.238 0 0 1-.041.132.294.294 0 0 1-.12.099.462.462 0 0 1-.178.033.408.408 0 0 1-.252-.066.33.33 0 0 1-.107-.203Zm0 0" fill="var(--text-color)"/>
 <path d="m24.006 22.082h-5.846v-3.89h11.694v3.89z" fill="var(--background-color)" fill-rule="evenodd" stroke="var(--text-color)" stroke-linejoin="round" stroke-miterlimit="10" stroke-width=".032"/>
 <path d="M19.797 20.838v-1.017h-.384v-.136h.922v.136h-.385v1.017ZM20.378 20.838v-.835h.129v.124a.363.363 0 0 1 .09-.115.159.159 0 0 1 .091-.03c.05 0 .1.016.15.046l-.05.132a.227.227 0 0 0-.104-.029.142.142 0 0 0-.086.03.12.12 0 0 0-.05.074.524.524 0 0 0-.025.165v.438ZM21.484 20.735a.534.534 0 0 1-.153.095.415.415 0 0 1-.153.03c-.094 0-.165-.023-.215-.067a.228.228 0 0 1-.074-.174c0-.041.009-.078.029-.111a.214.214 0 0 1 .074-.083.268.268 0 0 1 .103-.045.914.914 0 0 1 .124-.025c.116-.01.2-.026.257-.046v-.037c0-.058-.015-.1-.042-.124-.036-.03-.09-.045-.16-.045s-.12.012-.154.037c-.03.022-.052.062-.066.12l-.14-.021a.36.36 0 0 1 .062-.14.272.272 0 0 1 .128-.087.588.588 0 0 1 .19-.03c.071 0 .129.009.173.025.044.017.077.04.1.067a.21.21 0 0 1 .045.095c.002.024.004.069.004.132v.186c0 .132.002.217.009.252.008.033.02.066.037.1h-.149a.336.336 0 0 1-.029-.104Zm-.008-.314c-.053.02-.132.036-.236.05a.55.55 0 0 0-.124.028.13.13 0 0 0-.058.05.128.128 0 0 0-.016.066c0 .036.013.068.041.095.03.025.072.037.128.037a.277.277 0 0 0 .145-.037.225.225 0 0 0 .095-.099.302.302 0 0 0 .025-.14zM21.838 20.838v-.835h.128v.12a.3.3 0 0 1 .268-.14c.05 0 .096.01.137.029a.19.19 0 0 1 .095.07.282.282 0 0 1 .045.103.858.858 0 0 1 .009.14v.513h-.14v-.508c0-.058-.007-.1-.017-.128a.132.132 0 0 0-.062-.07.23.23 0 0 0-.256.033c-.045.039-.067.111-.067.219v.454ZM22.679 20.59l.14-.024c.009.057.03.102.067.132a.243.243 0 0 0 .153.041c.066 0 .113-.012.144-.037a.125.125 0 0 0 .046-.095c0-.03-.015-.055-.041-.075a.577.577 0 0 0-.145-.05 1.235 1.235 0 0 1-.22-.065.219.219 0 0 1-.09-.079.235.235 0 0 1-.03-.116c0-.035.01-.068.026-.099a.225.225 0 0 1 .07-.082.277.277 0 0 1 .09-.042.493.493 0 0 1 .298.012c.05.02.085.046.108.08a.265.265 0 0 1 .05.127l-.137.021a.172.172 0 0 0-.058-.103.2.2 0 0 0-.128-.038c-.066 0-.114.012-.14.033-.028.023-.042.048-.042.075 0 .02.005.036.017.05a.146.146 0 0 0 .058.04c.013.007.054.017.124.034.101.028.171.05.21.066a.208.208 0 0 1 .091.074.2.2 0 0 1 .038.125.238.238 0 0 1-.042.132.294.294 0 0 1-.12.099.462.462 0 0 1-.177.033.408.408 0 0 1-.253-.066.33.33 0 0 1-.107-.203ZM24.13 20.735a.534.534 0 0 1-.153.095.415.415 0 0 1-.153.03c-.094 0-.165-.023-.215-.067a.228.228 0 0 1-.074-.174c0-.041.009-.078.029-.111a.214.214 0 0 1 .074-.083.268.268 0 0 1 .103-.045.914.914 0 0 1 .124-.025c.116-.01.2-.026.257-.046v-.037c0-.058-.015-.1-.042-.124-.036-.03-.09-.045-.16-.045s-.12.012-.154.037c-.03.022-.052.062-.066.12l-.14-.021a.36.36 0 0 1 .062-.14.272.272 0 0 1 .128-.087.588.588 0 0 1 .19-.03c.071 0 .129.009.173.025.044.017.077.04.1.067a.21.21 0 0 1 .045.095c.002.024.004.069.004.132v.186c0 .132.002.217.009.252.008.033.02.066.037.1h-.149a.336.336 0 0 1-.029-.104Zm-.008-.314c-.053.02-.132.036-.236.05a.55.55 0 0 0-.124.028.13.13 0 0 0-.058.05.128.128 0 0 0-.016.066c0 .036.013.068.041.095.03.025.072.037.128.037a.277.277 0 0 0 .145-.037.225.225 0 0 0 .095-.099.302.302 0 0 0 .025-.14zM25.03 20.532l.14.017a.358.358 0 0 1-.116.227.338.338 0 0 1-.231.083.372.372 0 0 1-.282-.112.463.463 0 0 1-.103-.322c0-.09.015-.17.046-.236a.31.31 0 0 1 .136-.153.41.41 0 0 1 .203-.053c.09 0 .165.023.223.07a.323.323 0 0 1 .111.194l-.136.02a.234.234 0 0 0-.07-.123.178.178 0 0 0-.124-.046.216.216 0 0 0-.174.079c-.044.053-.066.134-.066.244 0 .11.02.192.062.244.043.05.1.074.17.074a.2.2 0 0 0 .14-.05c.038-.032.062-.084.07-.157zM25.614 20.71l.02.128a.562.562 0 0 1-.107.013.233.233 0 0 1-.12-.025.162.162 0 0 1-.062-.062.535.535 0 0 1-.017-.17v-.483h-.103v-.108h.103v-.206l.14-.087v.293h.146v.108h-.145v.492c0 .039.002.065.008.078.005.012.014.021.025.03.01.005.027.008.05.008a.256.256 0 0 0 .062-.009zM25.754 19.846v-.161h.14v.161Zm0 .992v-.835h.14v.835ZM26.071 20.42c0-.153.043-.268.128-.342a.396.396 0 0 1 .265-.095.37.37 0 0 1 .281.115.42.42 0 0 1 .112.31.557.557 0 0 1-.05.257.339.339 0 0 1-.14.144.417.417 0 0 1-.203.05.386.386 0 0 1-.285-.112c-.073-.076-.108-.186-.108-.326zm.145 0c0 .108.023.189.07.24a.226.226 0 0 0 .178.08c.071 0 .13-.027.178-.08.046-.051.07-.133.07-.243 0-.105-.024-.183-.07-.236a.232.232 0 0 0-.178-.078.229.229 0 0 0-.178.078c-.047.053-.07.132-.07.24zM27.052 20.838v-.835h.128v.12a.3.3 0 0 1 .269-.14c.05 0 .095.01.136.029a.19.19 0 0 1 .095.07.282.282 0 0 1 .046.103.858.858 0 0 1 .008.14v.513h-.14v-.508c0-.058-.007-.1-.017-.128a.132.132 0 0 0-.062-.07.23.23 0 0 0-.256.033c-.045.039-.067.111-.067.219v.454ZM27.893 20.59l.14-.024c.01.057.03.102.067.132a.243.243 0 0 0 .153.041c.066 0 .114-.012.145-.037a.125.125 0 0 0 .045-.095c0-.03-.014-.055-.041-.075a.577.577 0 0 0-.145-.05 1.235 1.235 0 0 1-.22-.065.219.219 0 0 1-.09-.079.235.235 0 0 1-.029-.116c0-.035.008-.068.025-.099a.225.225 0 0 1 .07-.082.277.277 0 0 1 .091-.042.493.493 0 0 1 .298.012c.05.02.084.046.107.08a.265.265 0 0 1 .05.127l-.137.021a.172.172 0 0 0-.057-.103.2.2 0 0 0-.129-.038c-.066 0-.113.012-.14.033-.028.023-.042.048-.042.075 0 .02.006.036.017.05a.146.146 0 0 0 .058.04c.013.007.055.017.124.034.101.028.171.05.21.066a.208.208 0 0 1 .092.074.2.2 0 0 1 .037.125.238.238 0 0 1-.041.132.294.294 0 0 1-.12.099.462.462 0 0 1-.178.033.408.408 0 0 1-.252-.066.33.33 0 0 1-.108-.203Zm0 0" fill="var(--text-color)"/>
 <path d="m40.886 23.378h-5.847v-6.482h11.722v6.482z" fill="var(--background-color)" fill-rule="evenodd" stroke="var(--text-color)" stroke-linejoin="round" stroke-miterlimit="10" stroke-width=".03175"/>
 <path d="M38.867 20.838v-1.153h.439c.076 0 .136.003.177.008a.384.384 0 0 1 .14.058.254.254 0 0 1 .092.112c.025.047.037.099.037.157 0 .097-.032.18-.095.248-.061.07-.174.103-.34.103h-.297v.467Zm.153-.603h.302c.1 0 .17-.018.21-.054a.204.204 0 0 0 .063-.157.2.2 0 0 0-.037-.124.177.177 0 0 0-.095-.07.9.9 0 0 0-.145-.009h-.298zM40.485 20.838v-.124a.306.306 0 0 1-.265.145.356.356 0 0 1-.14-.029.24.24 0 0 1-.1-.07.303.303 0 0 1-.041-.108.68.68 0 0 1-.008-.132v-.517h.144v.463a.78.78 0 0 0 .009.15c.008.038.025.068.053.09.03.02.066.03.108.03a.22.22 0 0 0 .12-.034.172.172 0 0 0 .078-.087.43.43 0 0 0 .025-.165v-.447h.145v.835ZM40.966 20.838h-.132v-1.153h.14v.41a.284.284 0 0 1 .232-.112c.052 0 .1.011.145.033.046.02.085.048.116.087.03.036.053.081.07.136.016.053.025.11.025.17a.485.485 0 0 1-.108.334.338.338 0 0 1-.256.116.263.263 0 0 1-.232-.124zm-.004-.425c0 .102.014.175.042.219a.202.202 0 0 0 .181.107.203.203 0 0 0 .162-.078c.046-.055.07-.135.07-.24 0-.11-.023-.191-.066-.244a.203.203 0 0 0-.157-.079.21.21 0 0 0-.166.083c-.044.053-.066.13-.066.232zM41.73 20.838v-1.153h.144v1.153ZM42.104 19.846v-.161h.14v.161Zm0 .992v-.835h.14v.835ZM43.021 20.532l.14.017a.358.358 0 0 1-.115.227.338.338 0 0 1-.232.083.372.372 0 0 1-.28-.112.463.463 0 0 1-.104-.322c0-.09.014-.17.045-.236a.31.31 0 0 1 .137-.153.41.41 0 0 1 .202-.053c.091 0 .166.023.224.07a.323.323 0 0 1 .111.194l-.136.02a.234.234 0 0 0-.07-.123.178.178 0 0 0-.124-.046.216.216 0 0 0-.174.079c-.044.053-.066.134-.066.244 0 .11.02.192.062.244.043.05.1.074.17.074a.2.2 0 0 0 .14-.05c.038-.032.062-.084.07-.157zm0 0" fill="var(--text-color)"/>
 <path d="m15.566 16.896v6.482" fill="none" stroke="var(--text-color)" stroke-linejoin="round" stroke-miterlimit="10" stroke-width=".03175"/>
 <path transform="translate(-30.25 -142.83)" d="m65.288 162.96-1.931 0.662v-1.297z" fill="var(--text-color)" fill-rule="evenodd" stroke-width=".26458"/>
 <path d="m29.853 20.124h3.625" fill="none" stroke="var(--text-color)" stroke-miterlimit="10" stroke-width=".026"/>
 <path d="M0 15.309v-1.154h.157l.608.906v-.906h.149v1.154H.757l-.612-.906v.906ZM1.722 15.04l.148.016a.386.386 0 0 1-.132.203.378.378 0 0 1-.24.07.396.396 0 0 1-.293-.111.445.445 0 0 1-.108-.319c0-.14.035-.249.108-.326.074-.08.17-.12.285-.12.113 0 .205.04.277.116.071.074.107.182.107.322v.037h-.628a.32.32 0 0 0 .079.211c.046.048.104.07.173.07a.23.23 0 0 0 .133-.037.272.272 0 0 0 .09-.132zm-.468-.232h.468a.283.283 0 0 0-.054-.157.214.214 0 0 0-.174-.082.226.226 0 0 0-.165.066.263.263 0 0 0-.075.173zM2.227 15.309l-.257-.835h.15l.131.48.05.181.046-.174.132-.487h.145l.128.483.041.161.05-.16.144-.484h.137l-.265.835h-.145l-.136-.5-.033-.145-.17.645ZM3.678 15.309v-1.154h.438c.077 0 .137.003.178.008a.384.384 0 0 1 .14.058.254.254 0 0 1 .092.112c.024.048.037.1.037.157 0 .097-.032.18-.095.248-.061.07-.174.103-.34.103h-.297v.468Zm.153-.604h.302c.1 0 .17-.018.21-.054a.204.204 0 0 0 .063-.157.2.2 0 0 0-.037-.124.177.177 0 0 0-.096-.07.9.9 0 0 0-.144-.008H3.83zM4.741 15.309v-.835h.129v.124a.363.363 0 0 1 .09-.116.159.159 0 0 1 .092-.03c.05 0 .099.016.148.046l-.05.133a.227.227 0 0 0-.103-.03.142.142 0 0 0-.086.03.12.12 0 0 0-.05.074.524.524 0 0 0-.025.165v.439ZM5.301 14.316v-.16h.141v.16Zm0 .993v-.835h.141v.835ZM5.904 15.309l-.318-.835h.148l.182.5c.019.052.038.11.054.17.014-.044.031-.098.054-.162l.186-.508h.145l-.319.835ZM7.012 15.205a.534.534 0 0 1-.153.095.415.415 0 0 1-.153.03c-.094 0-.165-.022-.215-.067a.228.228 0 0 1-.074-.173c0-.042.01-.079.029-.112a.214.214 0 0 1 .074-.083.268.268 0 0 1 .104-.045.914.914 0 0 1 .124-.025c.115-.01.2-.026.256-.046v-.037c0-.058-.015-.099-.041-.124-.037-.03-.09-.045-.162-.045-.069 0-.12.012-.153.037-.03.023-.052.062-.066.12l-.14-.02a.36.36 0 0 1 .062-.141.272.272 0 0 1 .128-.087.588.588 0 0 1 .19-.03c.071 0 .13.01.174.026a.21.21 0 0 1 .145.161c.001.025.003.07.003.132v.186c0 .133.002.217.009.252.008.033.02.067.037.1H7.04a.336.336 0 0 1-.029-.104Zm-.008-.314c-.053.02-.131.036-.236.05a.55.55 0 0 0-.124.029.13.13 0 0 0-.058.05.128.128 0 0 0-.016.065c0 .037.013.069.041.095.03.025.072.038.128.038a.277.277 0 0 0 .145-.038.225.225 0 0 0 .095-.099.302.302 0 0 0 .025-.14zM7.911 15.003l.141.016a.358.358 0 0 1-.116.228.338.338 0 0 1-.231.082.372.372 0 0 1-.281-.111.463.463 0 0 1-.104-.323c0-.09.015-.17.046-.235a.31.31 0 0 1 .136-.153.41.41 0 0 1 .203-.054c.09 0 .165.024.223.07a.323.323 0 0 1 .112.194l-.137.021a.234.234 0 0 0-.07-.124.178.178 0 0 0-.124-.045.216.216 0 0 0-.174.078c-.044.053-.066.135-.066.244 0 .11.02.192.062.244.043.05.1.074.17.074a.2.2 0 0 0 .14-.05c.038-.032.062-.084.07-.156zM8.177 15.631l-.016-.132c.033.008.06.012.082.012a.142.142 0 0 0 .075-.016.187.187 0 0 0 .05-.046.863.863 0 0 0 .053-.14l-.318-.835h.153l.178.483c.021.061.041.126.058.195.016-.067.037-.13.062-.19l.177-.488h.145l-.322.847c-.034.093-.06.157-.079.19a.284.284 0 0 1-.087.104.208.208 0 0 1-.116.033.347.347 0 0 1-.095-.017zM9.468 15.309v-1.154H9.7l.273.815c.027.077.046.135.058.173l.062-.186.277-.802h.206v1.154h-.149v-.968l-.334.968h-.141l-.335-.984v.984ZM10.724 14.891c0-.154.043-.269.129-.343a.396.396 0 0 1 .264-.095.37.37 0 0 1 .281.116.42.42 0 0 1 .112.31.557.557 0 0 1-.05.256.339.339 0 0 1-.14.145.417.417 0 0 1-.203.05.386.386 0 0 1-.285-.112c-.072-.077-.108-.186-.108-.327zm.145 0c0 .108.023.188.07.24a.226.226 0 0 0 .178.078c.071 0 .13-.025.178-.078.046-.052.07-.133.07-.244 0-.104-.024-.183-.07-.236a.232.232 0 0 0-.178-.078.229.229 0 0 0-.178.078c-.047.053-.07.133-.07.24zM12.223 15.309V15.2a.265.265 0 0 1-.236.128.353.353 0 0 1-.186-.053.404.404 0 0 1-.132-.158.529.529 0 0 1-.045-.227c0-.083.013-.158.041-.227a.347.347 0 0 1 .128-.157.338.338 0 0 1 .186-.054.278.278 0 0 1 .232.116v-.414h.144v1.154Zm-.45-.418c0 .108.021.188.066.24a.21.21 0 0 0 .16.078.196.196 0 0 0 .158-.074c.043-.05.066-.126.066-.232 0-.115-.023-.199-.066-.252a.204.204 0 0 0-.322 0c-.042.05-.063.13-.063.24zM13.179 15.04l.149.016a.386.386 0 0 1-.133.203.378.378 0 0 1-.24.07.396.396 0 0 1-.293-.111.445.445 0 0 1-.107-.319c0-.14.035-.249.107-.326.075-.08.17-.12.285-.12.113 0 .205.04.277.116.072.074.108.182.108.322v.037h-.629a.32.32 0 0 0 .079.211c.047.048.104.07.174.07a.23.23 0 0 0 .132-.037.272.272 0 0 0 .09-.132zm-.467-.232h.467a.283.283 0 0 0-.054-.157.214.214 0 0 0-.173-.082.226.226 0 0 0-.166.066.263.263 0 0 0-.074.173zM13.5 15.309v-1.154h.144v1.154ZM.43 1.153V.136H.045V0h.922v.136H.583v1.017ZM1.038 1.153V.318h.129v.124a.363.363 0 0 1 .09-.115.159.159 0 0 1 .092-.03c.05 0 .099.016.148.046l-.05.132a.227.227 0 0 0-.103-.029.142.142 0 0 0-.086.03.12.12 0 0 0-.05.074.524.524 0 0 0-.025.165v.438ZM2.118 1.05a.534.534 0 0 1-.153.095.415.415 0 0 1-.153.03c-.094 0-.165-.023-.215-.067a.228.228 0 0 1-.074-.174c0-.041.01-.078.029-.111A.214.214 0 0 1 1.626.74.268.268 0 0 1 1.73.695.914.914 0 0 1 1.854.67c.115-.01.2-.026.256-.046V.587c0-.058-.015-.1-.041-.124-.037-.03-.09-.045-.162-.045-.069 0-.12.012-.153.037-.03.022-.052.062-.066.12l-.14-.021a.36.36 0 0 1 .062-.14.272.272 0 0 1 .128-.087.588.588 0 0 1 .19-.03c.071 0 .13.009.174.025.043.017.076.04.099.067a.21.21 0 0 1 .045.095c.002.024.004.069.004.132v.186c0 .132.002.217.009.252.008.033.02.066.037.1h-.149a.336.336 0 0 1-.029-.104ZM2.11.736c-.053.02-.131.036-.236.05a.55.55 0 0 0-.124.028.13.13 0 0 0-.058.05.128.128 0 0 0-.016.066c0 .036.013.068.041.095.03.025.072.037.128.037a.277.277 0 0 0 .145-.037.225.225 0 0 0 .095-.099.302.302 0 0 0 .025-.14zM3.017 1.153v-.107a.265.265 0 0 1-.235.128.353.353 0 0 1-.186-.054.404.404 0 0 1-.133-.157.529.529 0 0 1-.045-.227c0-.083.013-.158.041-.228a.347.347 0 0 1 .128-.157.338.338 0 0 1 .187-.053.278.278 0 0 1 .231.115V0h.145v1.153Zm-.45-.417c0 .107.022.188.066.24a.21.21 0 0 0 .161.078.196.196 0 0 0 .157-.074c.044-.05.066-.126.066-.232 0-.115-.022-.2-.066-.252a.204.204 0 0 0-.322 0c-.042.05-.062.13-.062.24zM3.399.161V0h.14v.161Zm0 .992V.318h.14v.835ZM4.08 1.025l.02.128a.562.562 0 0 1-.107.013.233.233 0 0 1-.12-.025.162.162 0 0 1-.062-.062.535.535 0 0 1-.017-.17V.427h-.103V.318h.103V.112l.141-.087v.293h.145v.108h-.145v.492c0 .039.002.065.008.078.005.012.014.021.025.03.01.005.027.008.05.008a.256.256 0 0 0 .062-.009zM4.22.161V0h.14v.161Zm0 .992V.318h.14v.835ZM4.537.736c0-.154.043-.269.129-.343A.396.396 0 0 1 4.93.298a.37.37 0 0 1 .281.115.42.42 0 0 1 .112.31.557.557 0 0 1-.05.257.339.339 0 0 1-.14.144.417.417 0 0 1-.203.05.386.386 0 0 1-.285-.112C4.573.986 4.537.876 4.537.736zm.145 0c0 .107.023.188.07.24a.226.226 0 0 0 .178.078c.071 0 .13-.026.178-.078.046-.052.07-.134.07-.244 0-.105-.024-.183-.07-.236A.232.232 0 0 0 4.93.418a.229.229 0 0 0-.178.078c-.047.053-.07.132-.07.24zM5.49 1.153V.318h.129v.12a.3.3 0 0 1 .268-.14c.05 0 .095.01.137.029a.19.19 0 0 1 .095.07.282.282 0 0 1 .045.103.858.858 0 0 1 .009.14v.513h-.141V.645c0-.058-.006-.1-.017-.128a.132.132 0 0 0-.062-.07.23.23 0 0 0-.256.033c-.044.039-.066.111-.066.219v.454ZM6.963 1.05a.534.534 0 0 1-.153.095.415.415 0 0 1-.153.03c-.094 0-.165-.023-.215-.067a.228.228 0 0 1-.074-.174c0-.041.009-.078.029-.111A.214.214 0 0 1 6.47.74a.268.268 0 0 1 .103-.045.914.914 0 0 1 .124-.025c.116-.01.2-.026.257-.046V.587c0-.058-.015-.1-.042-.124-.036-.03-.09-.045-.16-.045s-.12.012-.154.037c-.03.022-.053.062-.066.12l-.14-.021a.36.36 0 0 1 .061-.14.272.272 0 0 1 .129-.087.588.588 0 0 1 .19-.03c.071 0 .129.009.173.025.044.017.077.04.1.067a.21.21 0 0 1 .045.095c.002.024.004.069.004.132v.186c0 .132.002.217.008.252.009.033.021.066.038.1h-.15a.336.336 0 0 1-.028-.104ZM6.955.736c-.053.02-.132.036-.236.05a.55.55 0 0 0-.124.028.13.13 0 0 0-.058.05.128.128 0 0 0-.016.066c0 .036.013.068.04.095.03.025.073.037.13.037a.277.277 0 0 0 .144-.037.225.225 0 0 0 .095-.099.302.302 0 0 0 .025-.14zM7.312 1.153V0h.145v1.153ZM8.155 1.153V0h.438c.076 0 .136.003.178.008a.384.384 0 0 1 .14.058.254.254 0 0 1 .091.112c.025.047.037.099.037.157 0 .097-.032.18-.095.248-.06.07-.173.103-.339.103h-.297v.467ZM8.308.55h.301c.1 0 .17-.018.211-.054A.204.204 0 0 0 8.882.34a.2.2 0 0 0-.037-.124.177.177 0 0 0-.095-.07.9.9 0 0 0-.145-.009h-.297zM9.218 1.153V.318h.128v.124a.363.363 0 0 1 .091-.115.159.159 0 0 1 .091-.03c.05 0 .1.016.149.046l-.05.132a.227.227 0 0 0-.103-.029.142.142 0 0 0-.087.03.12.12 0 0 0-.05.074.524.524 0 0 0-.024.165v.438ZM9.778.161V0h.14v.161Zm0 .992V.318h.14v.835ZM10.38 1.153l-.318-.835h.149l.182.5c.018.053.037.11.054.17.013-.043.03-.097.053-.161l.186-.509h.145l-.318.835ZM11.489 1.05a.534.534 0 0 1-.153.095.415.415 0 0 1-.153.03c-.094 0-.166-.023-.215-.067a.228.228 0 0 1-.075-.174c0-.041.01-.078.03-.111a.214.214 0 0 1 .074-.083.268.268 0 0 1 .103-.045.914.914 0 0 1 .124-.025c.116-.01.2-.026.256-.046V.587c0-.058-.014-.1-.041-.124-.036-.03-.09-.045-.161-.045-.07 0-.12.012-.153.037-.031.022-.053.062-.066.12l-.141-.021a.36.36 0 0 1 .062-.14.272.272 0 0 1 .128-.087.588.588 0 0 1 .19-.03c.072 0 .13.009.174.025.043.017.076.04.1.067a.21.21 0 0 1 .045.095c.002.024.004.069.004.132v.186c0 .132.002.217.008.252.008.033.02.066.037.1h-.149a.336.336 0 0 1-.028-.104ZM11.48.736c-.052.02-.131.036-.235.05a.55.55 0 0 0-.124.028.13.13 0 0 0-.058.05.128.128 0 0 0-.017.066c0 .036.014.068.042.095.03.025.072.037.128.037a.277.277 0 0 0 .144-.037.225.225 0 0 0 .095-.099.302.302 0 0 0 .025-.14zM12.388.847l.14.017a.358.358 0 0 1-.115.227.338.338 0 0 1-.232.083.372.372 0 0 1-.281-.112.463.463 0 0 1-.103-.322c0-.09.014-.17.045-.236a.31.31 0 0 1 .137-.153.41.41 0 0 1 .202-.053c.091 0 .165.023.223.07a.323.323 0 0 1 .112.194l-.136.02a.234.234 0 0 0-.07-.123.178.178 0 0 0-.125-.046.216.216 0 0 0-.173.079c-.045.053-.067.134-.067.244 0 .11.021.192.062.244.044.05.1.074.17.074a.2.2 0 0 0 .14-.05c.039-.032.063-.084.07-.157zM12.654 1.476l-.017-.132c.033.008.06.012.083.012a.142.142 0 0 0 .074-.017.187.187 0 0 0 .05-.045.863.863 0 0 0 .054-.14l-.319-.836h.153l.178.484c.022.061.041.126.058.194.016-.066.037-.129.062-.19l.178-.488h.144l-.322.848c-.033.093-.06.157-.079.19a.284.284 0 0 1-.086.103.208.208 0 0 1-.116.033.347.347 0 0 1-.095-.016zM13.945 1.153V0h.231l.273.814c.027.078.047.136.058.174l.062-.186.277-.802h.207v1.153h-.15V.186l-.334.967h-.14L14.093.17v.984ZM15.2.736c0-.154.043-.269.129-.343a.396.396 0 0 1 .265-.095.37.37 0 0 1 .28.115.42.42 0 0 1 .112.31.557.557 0 0 1-.05.257.339.339 0 0 1-.14.144.417.417 0 0 1-.202.05.386.386 0 0 1-.286-.112c-.072-.076-.107-.186-.107-.326zm.145 0c0 .107.023.188.07.24a.226.226 0 0 0 .179.078c.07 0 .13-.026.177-.078.047-.052.07-.134.07-.244 0-.105-.023-.183-.07-.236a.232.232 0 0 0-.177-.078.229.229 0 0 0-.178.078c-.048.053-.07.132-.07.24zM16.7 1.153v-.107a.265.265 0 0 1-.236.128.353.353 0 0 1-.186-.054.404.404 0 0 1-.132-.157.529.529 0 0 1-.046-.227c0-.083.014-.158.041-.228a.347.347 0 0 1 .129-.157.338.338 0 0 1 .186-.053.278.278 0 0 1 .231.115V0h.145v1.153Zm-.451-.417c0 .107.022.188.066.24a.21.21 0 0 0 .161.078.196.196 0 0 0 .157-.074c.044-.05.067-.126.067-.232 0-.115-.023-.2-.067-.252a.204.204 0 0 0-.322 0c-.041.05-.062.13-.062.24zM17.628.885l.149.016a.386.386 0 0 1-.133.203.378.378 0 0 1-.24.07.396.396 0 0 1-.293-.112.445.445 0 0 1-.108-.318c0-.14.036-.249.108-.326.074-.08.17-.12.285-.12.113 0 .205.039.277.115.072.075.108.182.108.323v.037h-.629a.32.32 0 0 0 .079.21c.046.048.104.071.174.071a.23.23 0 0 0 .132-.037.272.272 0 0 0 .09-.132zM17.16.653h.467a.283.283 0 0 0-.054-.157.214.214 0 0 0-.174-.083.226.226 0 0 0-.165.067.263.263 0 0 0-.074.173zM17.976 1.153V0h.144v1.153Zm0 0" fill="var(--text-color)"/>
 <path transform="translate(-30.25 -142.83)" d="m63.991 148.72-1.93 0.661v-1.297z" fill="var(--text-color)" fill-rule="evenodd" stroke-width=".26458"/>
 <path d="m28.557 5.89h3.625" fill="none" stroke="var(--text-color)" stroke-miterlimit="10" stroke-width=".026"/>
 <path transform="translate(-30.25 -142.83)" d="m80.899 148.72-1.959 0.661v-1.297z" fill="var(--text-color)" fill-rule="evenodd" stroke-width=".26458"/>
 <path d="m45.438 5.89h3.65" fill="none" stroke="var(--text-color)" stroke-miterlimit="10" stroke-width=".026"/>
 <path d="m12.947 5.89h3.916" fill="none" stroke="var(--text-color)" stroke-linejoin="round" stroke-miterlimit="10" stroke-width=".032"/>
</svg>
