<?xml version="1.0" encoding="UTF-8" standalone="no"?>
<!-- Created with Inkscape (http://www.inkscape.org/) -->

<svg
   height="35.25mm"
   viewBox="0 0 62.48 13.7"
   version="1.1"
   id="diag3"
   xmlns="http://www.w3.org/2000/svg"
   xmlns:svg="http://www.w3.org/2000/svg">
  <defs
     id="defs1">
    <clipPath
       id="clip-0">
      <path
         clip-rule="nonzero"
         d="m 211,231.30078 h 98 v 51.80078 h -98 z m 0,0"
         id="path88" />
    </clipPath>
    <clipPath
       id="clip-1">
      <path
         clip-rule="nonzero"
         d="m 210,231.30078 h 99 v 51.80078 h -99 z m 0,0"
         id="path89" />
    </clipPath>
    <clipPath
       id="clip-2">
      <path
         clip-rule="nonzero"
         d="m 188,254 h 30 v 1 h -30 z m 0,0"
         id="path90" />
    </clipPath>
    <clipPath
       id="clip-3">
      <path
         clip-rule="nonzero"
         d="m 326,231.30078 h 98.39844 v 51.80078 H 326 Z m 0,0"
         id="path91" />
    </clipPath>
  </defs>
  <g
     id="layer1"
     transform="translate(-51.064582,-129.11667)">
    <g
       clip-path="url(#clip-0)"
       id="g3071"
       transform="matrix(0.26458333,0,0,0.26458333,1.3229163,67.918336)">
      <path
         fill-rule="evenodd"
         fill="var(--background-color)"
         fill-opacity="1"
         d="m 260,283.19922 h -49 v -51.89844 h 97.89844 v 51.89844 z m 0,0"
         id="path3070" />
    </g>
    <g
       clip-path="url(#clip-1)"
       id="g3072"
       transform="matrix(0.26458333,0,0,0.26458333,1.3229163,67.918336)">
      <path
         fill="none"
         stroke-width="0.12"
         stroke-linecap="butt"
         stroke-linejoin="round"
         stroke="var(--text-color)"
         stroke-opacity="1"
         stroke-miterlimit="10"
         d="m 260,508.80078 h -49 v 51.89844 h 97.89844 v -51.89844 z m 0,0"
         transform="matrix(1,0,0,-1,0,792)"
         id="path3071" />
    </g>
    <g
       fill="var(--text-color)"
       fill-opacity="1"
       id="g3073"
       transform="matrix(0.26458333,0,0,0.26458333,1.3229163,67.918336)">
      <g
         id="use3072"
         transform="translate(216.8,242)">
        <path
           d="m 0.53125,0 v -5.15625 h 1.921875 c 0.394531,0 0.710937,0.054688 0.953125,0.15625 0.238281,0.105469 0.421875,0.265625 0.546875,0.484375 0.132813,0.21875 0.203125,0.445313 0.203125,0.671875 0,0.230469 -0.0625,0.445312 -0.1875,0.640625 -0.117188,0.1875 -0.292969,0.339844 -0.53125,0.453125 0.3125,0.09375 0.550781,0.257812 0.71875,0.484375 0.164062,0.21875 0.25,0.476563 0.25,0.765625 0,0.25 -0.054688,0.480469 -0.15625,0.6875 C 4.15625,-0.613281 4.03125,-0.457031 3.875,-0.34375 3.726562,-0.226562 3.539062,-0.140625 3.3125,-0.078125 3.09375,-0.0234375 2.816406,0 2.484375,0 Z M 1.203125,-2.984375 H 2.3125 c 0.300781,0 0.519531,-0.019531 0.65625,-0.0625 0.175781,-0.050781 0.304688,-0.132813 0.390625,-0.25 0.082031,-0.125 0.125,-0.273437 0.125,-0.453125 0,-0.175781 -0.042969,-0.328125 -0.125,-0.453125 -0.074219,-0.132813 -0.1875,-0.222656 -0.34375,-0.265625 -0.148437,-0.050781 -0.40625,-0.078125 -0.78125,-0.078125 h -1.03125 z m 0,2.375 h 1.28125 c 0.21875,0 0.375,-0.007813 0.46875,-0.03125 0.15625,-0.019531 0.285156,-0.0625 0.390625,-0.125 0.101562,-0.070313 0.1875,-0.171875 0.25,-0.296875 0.070312,-0.125 0.109375,-0.269531 0.109375,-0.4375 0,-0.1875 -0.054687,-0.347656 -0.15625,-0.484375 C 3.453125,-2.128906 3.316406,-2.226562 3.140625,-2.28125 2.972656,-2.34375 2.722656,-2.375 2.390625,-2.375 h -1.1875 z m 0,0"
           id="path40" />
      </g>
    </g>
    <g
       fill="var(--text-color)"
       fill-opacity="1"
       id="g3074"
       transform="matrix(0.26458333,0,0,0.26458333,1.3229163,67.918336)">
      <g
         id="use3073"
         transform="translate(221.60281,242)">
        <path
           d="M 0.453125,0 V -5.15625 H 1.09375 V 0 Z m 0,0"
           id="path18" />
      </g>
    </g>
    <g
       fill="var(--text-color)"
       fill-opacity="1"
       id="g3075"
       transform="matrix(0.26458333,0,0,0.26458333,1.3229163,67.918336)">
      <g
         id="use3074"
         transform="translate(223.20616,242)">
        <path
           d="m 0.234375,-1.875 c 0,-0.6875 0.191406,-1.195312 0.578125,-1.53125 0.320312,-0.269531 0.710938,-0.40625 1.171875,-0.40625 0.507813,0 0.925781,0.167969 1.25,0.5 0.332031,0.335938 0.5,0.796875 0.5,1.390625 0,0.480469 -0.074219,0.859375 -0.21875,1.140625 C 3.367188,-0.507812 3.15625,-0.296875 2.875,-0.140625 2.601562,0.00390625 2.304688,0.078125 1.984375,0.078125 c -0.523437,0 -0.945313,-0.1640625 -1.265625,-0.5 C 0.394531,-0.753906 0.234375,-1.238281 0.234375,-1.875 Z m 0.65625,0 c 0,0.480469 0.101563,0.839844 0.3125,1.078125 0.207031,0.242187 0.46875,0.359375 0.78125,0.359375 0.3125,0 0.570313,-0.117188 0.78125,-0.359375 0.207031,-0.238281 0.3125,-0.601563 0.3125,-1.09375 0,-0.457031 -0.105469,-0.804687 -0.3125,-1.046875 -0.210937,-0.238281 -0.46875,-0.359375 -0.78125,-0.359375 -0.3125,0 -0.574219,0.121094 -0.78125,0.359375 -0.210937,0.242188 -0.3125,0.59375 -0.3125,1.0625 z m 0,0"
           id="path48" />
      </g>
      <g
         id="use3075"
         transform="translate(227.2037,242)">
        <path
           d="m 2.90625,-1.375 0.625,0.09375 c -0.074219,0.429688 -0.25,0.761719 -0.53125,1 -0.273438,0.2421875 -0.617188,0.359375 -1.03125,0.359375 -0.511719,0 -0.921875,-0.1640625 -1.234375,-0.5 -0.304687,-0.332031 -0.453125,-0.8125 -0.453125,-1.4375 0,-0.394531 0.066406,-0.742187 0.203125,-1.046875 0.132813,-0.300781 0.335937,-0.523438 0.609375,-0.671875 0.269531,-0.15625 0.566406,-0.234375 0.890625,-0.234375 0.40625,0 0.734375,0.105469 0.984375,0.3125 0.257812,0.199219 0.425781,0.484375 0.5,0.859375 l -0.609375,0.09375 c -0.0625,-0.25 -0.171875,-0.4375 -0.328125,-0.5625 -0.148438,-0.125 -0.324219,-0.1875 -0.53125,-0.1875 -0.3125,0 -0.570312,0.117187 -0.765625,0.34375 C 1.035156,-2.722656 0.9375,-2.363281 0.9375,-1.875 c 0,0.5 0.09375,0.867188 0.28125,1.09375 0.1875,0.230469 0.4375,0.34375 0.75,0.34375 0.25,0 0.457031,-0.070312 0.625,-0.21875 0.164062,-0.15625 0.269531,-0.394531 0.3125,-0.71875 z m 0,0"
           id="path24" />
      </g>
    </g>
    <g
       fill="var(--text-color)"
       fill-opacity="1"
       id="g3076"
       transform="matrix(0.26458333,0,0,0.26458333,1.3229163,67.918336)">
      <g
         id="use3076"
         transform="translate(230.90648,242)">
        <path
           d="m 0.484375,0 v -5.15625 h 0.625 v 2.9375 l 1.5,-1.515625 h 0.8125 L 2,-2.34375 3.5625,0 H 2.78125 L 1.5625,-1.90625 1.109375,-1.484375 V 0 Z m 0,0"
           id="path22" />
      </g>
    </g>
    <path
       fill-rule="evenodd"
       fill="var(--background-color)"
       fill-opacity="1"
       stroke-width="0.03175"
       stroke-linecap="butt"
       stroke-linejoin="round"
       stroke="var(--text-color)"
       stroke-opacity="1"
       stroke-miterlimit="10"
       d="m 66.304995,136.73687 h -6.112288 v -3.04271 h 12.197704 v 3.04271 z m 0,0"
       id="path3076" />
    <g
       fill="var(--text-color)"
       fill-opacity="1"
       id="g3077"
       transform="matrix(0.26458333,0,0,0.26458333,1.3229163,67.918336)">
      <g
         id="use3077"
         transform="translate(228.8,257.60001)">
        <path
           d="M 0.546875,0 V -5.15625 H 2.5 c 0.332031,0 0.59375,0.015625 0.78125,0.046875 0.25,0.042969 0.457031,0.125 0.625,0.25 0.175781,0.117187 0.316406,0.28125 0.421875,0.5 0.101563,0.210937 0.15625,0.4375 0.15625,0.6875 0,0.449219 -0.140625,0.824219 -0.421875,1.125 -0.28125,0.304687 -0.78125,0.453125 -1.5,0.453125 H 1.234375 V 0 Z m 0.6875,-2.703125 H 2.5625 c 0.4375,0 0.75,-0.082031 0.9375,-0.25 0.1875,-0.164063 0.28125,-0.394531 0.28125,-0.6875 0,-0.21875 -0.058594,-0.398437 -0.171875,-0.546875 C 3.503906,-4.34375 3.363281,-4.445312 3.1875,-4.5 3.070312,-4.53125 2.859375,-4.546875 2.546875,-4.546875 h -1.3125 z m 0,0"
           id="path32" />
      </g>
    </g>
    <g
       fill="var(--text-color)"
       fill-opacity="1"
       id="g3078"
       transform="matrix(0.26458333,0,0,0.26458333,1.3229163,67.918336)">
      <g
         id="use3078"
         transform="translate(233.60281,257.60001)">
        <path
           d="m 0.46875,0 v -3.734375 h 0.5625 v 0.5625 C 1.175781,-3.429688 1.3125,-3.601562 1.4375,-3.6875 c 0.125,-0.082031 0.257812,-0.125 0.40625,-0.125 0.207031,0 0.421875,0.070312 0.640625,0.203125 L 2.28125,-3.03125 C 2.125,-3.125 1.96875,-3.171875 1.8125,-3.171875 c -0.136719,0 -0.261719,0.042969 -0.375,0.125 C 1.332031,-2.960938 1.253906,-2.84375 1.203125,-2.6875 1.128906,-2.46875 1.09375,-2.222656 1.09375,-1.953125 V 0 Z m 0,0"
           id="path14" />
      </g>
    </g>
    <g
       fill="var(--text-color)"
       fill-opacity="1"
       id="g3080"
       transform="matrix(0.26458333,0,0,0.26458333,1.3229163,67.918336)">
      <g
         id="use3079"
         transform="translate(236.00423,257.60001)">
        <path
           d="M 3.03125,-1.203125 3.671875,-1.125 c -0.09375,0.386719 -0.28125,0.683594 -0.5625,0.890625 -0.28125,0.2109375 -0.640625,0.3125 -1.078125,0.3125 -0.542969,0 -0.976562,-0.1640625 -1.296875,-0.5 -0.3125,-0.332031 -0.46875,-0.804687 -0.46875,-1.421875 0,-0.625 0.160156,-1.109375 0.484375,-1.453125 C 1.070312,-3.640625 1.488281,-3.8125 2,-3.8125 c 0.5,0 0.90625,0.171875 1.21875,0.515625 0.320312,0.335937 0.484375,0.808594 0.484375,1.421875 0,0.042969 0,0.101562 0,0.171875 h -2.78125 c 0.019531,0.40625 0.132813,0.71875 0.34375,0.9375 0.207031,0.21875 0.46875,0.328125 0.78125,0.328125 0.226563,0 0.421875,-0.054688 0.578125,-0.171875 0.164062,-0.125 0.300781,-0.320313 0.40625,-0.59375 z M 0.953125,-2.21875 H 3.03125 C 3,-2.539062 2.921875,-2.78125 2.796875,-2.9375 2.585938,-3.175781 2.328125,-3.296875 2.015625,-3.296875 1.722656,-3.296875 1.476562,-3.195312 1.28125,-3 1.082031,-2.8125 0.972656,-2.550781 0.953125,-2.21875 Z m 0,0"
           id="path36" />
      </g>
      <g
         id="use3080"
         transform="translate(240.00179,257.60001)">
        <path
           d="M 1.515625,0 0.09375,-3.734375 H 0.765625 L 1.5625,-1.5 c 0.082031,0.242188 0.160156,0.492188 0.234375,0.75 0.050781,-0.195312 0.128906,-0.429688 0.234375,-0.703125 l 0.828125,-2.28125 h 0.65625 L 2.09375,0 Z m 0,0"
           id="path12" />
      </g>
    </g>
    <g
       fill="var(--text-color)"
       fill-opacity="1"
       id="g3082"
       transform="matrix(0.26458333,0,0,0.26458333,1.3229163,67.918336)">
      <g
         id="use3082"
         transform="translate(245.60268,257.60001)">
        <path
           d="M 0.578125,0 V -5.15625 H 1.25 v 2.125 h 2.6875 v -2.125 H 4.609375 V 0 H 3.9375 V -2.4375 H 1.25 V 0 Z m 0,0"
           id="path42" />
      </g>
    </g>
    <g
       fill="var(--text-color)"
       fill-opacity="1"
       id="g3084"
       transform="matrix(0.26458333,0,0,0.26458333,1.3229163,67.918336)">
      <g
         id="use3083"
         transform="translate(250.80093,257.60001)">
        <path
           d="M 2.90625,-0.453125 C 2.675781,-0.253906 2.453125,-0.113281 2.234375,-0.03125 2.015625,0.0390625 1.78125,0.078125 1.53125,0.078125 1.125,0.078125 0.8125,-0.0195312 0.59375,-0.21875 0.375,-0.414062 0.265625,-0.671875 0.265625,-0.984375 c 0,-0.1875 0.039063,-0.351563 0.125,-0.5 0.082031,-0.15625 0.1875,-0.273437 0.3125,-0.359375 0.132813,-0.09375 0.289063,-0.164062 0.46875,-0.21875 0.113281,-0.03125 0.300781,-0.0625 0.5625,-0.09375 0.5,-0.0625 0.875,-0.132812 1.125,-0.21875 0,-0.082031 0,-0.132812 0,-0.15625 0,-0.257812 -0.0625,-0.441406 -0.1875,-0.546875 -0.15625,-0.144531 -0.398437,-0.21875 -0.71875,-0.21875 -0.292969,0 -0.511719,0.054687 -0.65625,0.15625 -0.136719,0.105469 -0.242187,0.292969 -0.3125,0.5625 L 0.375,-2.671875 c 0.050781,-0.257813 0.140625,-0.472656 0.265625,-0.640625 0.132813,-0.164062 0.320313,-0.289062 0.5625,-0.375 0.238281,-0.082031 0.519531,-0.125 0.84375,-0.125 0.320313,0 0.582031,0.039062 0.78125,0.109375 0.195313,0.074219 0.34375,0.167969 0.4375,0.28125 0.09375,0.117187 0.15625,0.257813 0.1875,0.421875 0.019531,0.117188 0.03125,0.3125 0.03125,0.59375 v 0.84375 c 0,0.585938 0.015625,0.953125 0.046875,1.109375 C 3.5625,-0.296875 3.613281,-0.144531 3.6875,0 H 3.03125 C 2.96875,-0.132812 2.925781,-0.285156 2.90625,-0.453125 Z M 2.859375,-1.875 c -0.230469,0.09375 -0.574219,0.171875 -1.03125,0.234375 -0.261719,0.042969 -0.449219,0.089844 -0.5625,0.140625 -0.105469,0.042969 -0.1875,0.109375 -0.25,0.203125 C 0.960938,-1.210938 0.9375,-1.113281 0.9375,-1 c 0,0.167969 0.0625,0.308594 0.1875,0.421875 0.125,0.117187 0.3125,0.171875 0.5625,0.171875 0.238281,0 0.453125,-0.050781 0.640625,-0.15625 0.195313,-0.113281 0.335937,-0.265625 0.421875,-0.453125 0.070312,-0.132813 0.109375,-0.34375 0.109375,-0.625 z m 0,0"
           id="path34" />
      </g>
      <g
         id="use3084"
         transform="translate(254.79849,257.60001)">
        <path
           d="m 0.21875,-1.109375 0.625,-0.109375 c 0.039062,0.25 0.140625,0.445312 0.296875,0.578125 0.15625,0.136719 0.378906,0.203125 0.671875,0.203125 0.289062,0 0.503906,-0.054688 0.640625,-0.171875 0.144531,-0.125 0.21875,-0.265625 0.21875,-0.421875 0,-0.144531 -0.0625,-0.257812 -0.1875,-0.34375 -0.09375,-0.050781 -0.3125,-0.117188 -0.65625,-0.203125 C 1.367188,-1.703125 1.050781,-1.804688 0.875,-1.890625 0.695312,-1.972656 0.5625,-2.085938 0.46875,-2.234375 0.375,-2.390625 0.328125,-2.5625 0.328125,-2.75 c 0,-0.164062 0.035156,-0.316406 0.109375,-0.453125 C 0.507812,-3.347656 0.613281,-3.46875 0.75,-3.5625 0.851562,-3.632812 0.988281,-3.691406 1.15625,-3.734375 1.320312,-3.785156 1.503906,-3.8125 1.703125,-3.8125 c 0.289063,0 0.546875,0.042969 0.765625,0.125 0.21875,0.085938 0.378906,0.199219 0.484375,0.34375 0.101563,0.136719 0.175781,0.328125 0.21875,0.578125 L 2.5625,-2.6875 C 2.53125,-2.875 2.445312,-3.019531 2.3125,-3.125 2.175781,-3.238281 1.988281,-3.296875 1.75,-3.296875 1.457031,-3.296875 1.25,-3.25 1.125,-3.15625 1,-3.0625 0.9375,-2.945312 0.9375,-2.8125 c 0,0.085938 0.023438,0.15625 0.078125,0.21875 0.050781,0.0625 0.128906,0.121094 0.234375,0.171875 0.0625,0.023437 0.25,0.074219 0.5625,0.15625 0.445312,0.125 0.757812,0.226563 0.9375,0.296875 0.175781,0.074219 0.3125,0.183594 0.40625,0.328125 C 3.257812,-1.492188 3.3125,-1.3125 3.3125,-1.09375 3.3125,-0.882812 3.25,-0.6875 3.125,-0.5 3.007812,-0.3125 2.832031,-0.164062 2.59375,-0.0625 2.363281,0.03125 2.101562,0.078125 1.8125,0.078125 c -0.480469,0 -0.851562,-0.0976562 -1.109375,-0.296875 -0.25,-0.195312 -0.414063,-0.492188 -0.484375,-0.890625 z m 0,0"
           id="path16" />
      </g>
    </g>
    <g
       fill="var(--text-color)"
       fill-opacity="1"
       id="g3085"
       transform="matrix(0.26458333,0,0,0.26458333,1.3229163,67.918336)">
      <g
         id="use3085"
         transform="translate(258.4006,257.60001)">
        <path
           d="m 0.46875,0 v -5.15625 h 0.640625 v 1.84375 c 0.289063,-0.332031 0.660156,-0.5 1.109375,-0.5 0.28125,0 0.519531,0.054688 0.71875,0.15625 0.207031,0.105469 0.351562,0.257812 0.4375,0.453125 0.09375,0.1875 0.140625,0.46875 0.140625,0.84375 V 0 H 2.875 V -2.359375 C 2.875,-2.679688 2.804688,-2.914062 2.671875,-3.0625 2.535156,-3.207031 2.34375,-3.28125 2.09375,-3.28125 c -0.1875,0 -0.367188,0.054688 -0.53125,0.15625 -0.167969,0.09375 -0.289062,0.226562 -0.359375,0.390625 -0.0625,0.167969 -0.09375,0.398437 -0.09375,0.6875 V 0 Z m 0,0"
           id="path20" />
      </g>
    </g>
    <path
       fill-rule="evenodd"
       fill="var(--background-color)"
       fill-opacity="1"
       stroke-width="0.03175"
       stroke-linecap="butt"
       stroke-linejoin="round"
       stroke="var(--text-color)"
       stroke-opacity="1"
       stroke-miterlimit="10"
       d="m 77.734788,136.73687 h -3.810619 v -3.04271 h 7.620207 v 3.04271 z m 0,0"
       id="path3085" />
    <g
       fill="var(--text-color)"
       fill-opacity="1"
       id="g3086"
       transform="matrix(0.26458333,0,0,0.26458333,1.3229163,67.918336)">
      <g
         id="use3086"
         transform="translate(278.60001,257.60001)">
        <path
           d="M 0.546875,0 V -5.15625 H 1.25 l 2.703125,4.046875 V -5.15625 H 4.59375 V 0 H 3.90625 L 1.203125,-4.046875 V 0 Z m 0,0"
           id="path28" />
      </g>
    </g>
    <g
       fill="var(--text-color)"
       fill-opacity="1"
       id="g3089"
       transform="matrix(0.26458333,0,0,0.26458333,1.3229163,67.918336)">
      <g
         id="use3087"
         transform="translate(283.79825,257.60001)">
        <path
           d="m 0.234375,-1.875 c 0,-0.6875 0.191406,-1.195312 0.578125,-1.53125 0.320312,-0.269531 0.710938,-0.40625 1.171875,-0.40625 0.507813,0 0.925781,0.167969 1.25,0.5 0.332031,0.335938 0.5,0.796875 0.5,1.390625 0,0.480469 -0.074219,0.859375 -0.21875,1.140625 C 3.367188,-0.507812 3.15625,-0.296875 2.875,-0.140625 2.601562,0.00390625 2.304688,0.078125 1.984375,0.078125 c -0.523437,0 -0.945313,-0.1640625 -1.265625,-0.5 C 0.394531,-0.753906 0.234375,-1.238281 0.234375,-1.875 Z m 0.65625,0 c 0,0.480469 0.101563,0.839844 0.3125,1.078125 0.207031,0.242187 0.46875,0.359375 0.78125,0.359375 0.3125,0 0.570313,-0.117188 0.78125,-0.359375 0.207031,-0.238281 0.3125,-0.601563 0.3125,-1.09375 0,-0.457031 -0.105469,-0.804687 -0.3125,-1.046875 -0.210937,-0.238281 -0.46875,-0.359375 -0.78125,-0.359375 -0.3125,0 -0.574219,0.121094 -0.78125,0.359375 -0.210937,0.242188 -0.3125,0.59375 -0.3125,1.0625 z m 0,0"
           id="path49" />
      </g>
      <g
         id="use3088"
         transform="translate(287.79581,257.60001)">
        <path
           d="m 0.46875,0 v -3.734375 h 0.578125 v 0.53125 c 0.269531,-0.40625 0.664063,-0.609375 1.1875,-0.609375 0.21875,0 0.421875,0.042969 0.609375,0.125 0.1875,0.074219 0.328125,0.179688 0.421875,0.3125 0.09375,0.125 0.160156,0.28125 0.203125,0.46875 C 3.488281,-2.789062 3.5,-2.585938 3.5,-2.296875 V 0 H 2.875 V -2.265625 C 2.875,-2.523438 2.847656,-2.71875 2.796875,-2.84375 2.742188,-2.976562 2.65625,-3.082031 2.53125,-3.15625 c -0.125,-0.070312 -0.273438,-0.109375 -0.4375,-0.109375 -0.273438,0 -0.507812,0.089844 -0.703125,0.265625 -0.1875,0.167969 -0.28125,0.484375 -0.28125,0.953125 V 0 Z m 0,0"
           id="path30" />
      </g>
      <g
         id="use3089"
         transform="translate(291.79337,257.60001)">
        <path
           d="m 2.90625,-1.375 0.625,0.09375 c -0.074219,0.429688 -0.25,0.761719 -0.53125,1 -0.273438,0.2421875 -0.617188,0.359375 -1.03125,0.359375 -0.511719,0 -0.921875,-0.1640625 -1.234375,-0.5 -0.304687,-0.332031 -0.453125,-0.8125 -0.453125,-1.4375 0,-0.394531 0.066406,-0.742187 0.203125,-1.046875 0.132813,-0.300781 0.335937,-0.523438 0.609375,-0.671875 0.269531,-0.15625 0.566406,-0.234375 0.890625,-0.234375 0.40625,0 0.734375,0.105469 0.984375,0.3125 0.257812,0.199219 0.425781,0.484375 0.5,0.859375 l -0.609375,0.09375 c -0.0625,-0.25 -0.171875,-0.4375 -0.328125,-0.5625 -0.148438,-0.125 -0.324219,-0.1875 -0.53125,-0.1875 -0.3125,0 -0.570312,0.117187 -0.765625,0.34375 C 1.035156,-2.722656 0.9375,-2.363281 0.9375,-1.875 c 0,0.5 0.09375,0.867188 0.28125,1.09375 0.1875,0.230469 0.4375,0.34375 0.75,0.34375 0.25,0 0.457031,-0.070312 0.625,-0.21875 0.164062,-0.15625 0.269531,-0.394531 0.3125,-0.71875 z m 0,0"
           id="path25" />
      </g>
    </g>
    <g
       fill="var(--text-color)"
       fill-opacity="1"
       id="g3090"
       transform="matrix(0.26458333,0,0,0.26458333,1.3229163,67.918336)">
      <g
         id="use3090"
         transform="translate(295.49615,257.60001)">
        <path
           d="M 3.03125,-1.203125 3.671875,-1.125 c -0.09375,0.386719 -0.28125,0.683594 -0.5625,0.890625 -0.28125,0.2109375 -0.640625,0.3125 -1.078125,0.3125 -0.542969,0 -0.976562,-0.1640625 -1.296875,-0.5 -0.3125,-0.332031 -0.46875,-0.804687 -0.46875,-1.421875 0,-0.625 0.160156,-1.109375 0.484375,-1.453125 C 1.070312,-3.640625 1.488281,-3.8125 2,-3.8125 c 0.5,0 0.90625,0.171875 1.21875,0.515625 0.320312,0.335937 0.484375,0.808594 0.484375,1.421875 0,0.042969 0,0.101562 0,0.171875 h -2.78125 c 0.019531,0.40625 0.132813,0.71875 0.34375,0.9375 0.207031,0.21875 0.46875,0.328125 0.78125,0.328125 0.226563,0 0.421875,-0.054688 0.578125,-0.171875 0.164062,-0.125 0.300781,-0.320313 0.40625,-0.59375 z M 0.953125,-2.21875 H 3.03125 C 3,-2.539062 2.921875,-2.78125 2.796875,-2.9375 2.585938,-3.175781 2.328125,-3.296875 2.015625,-3.296875 1.722656,-3.296875 1.476562,-3.195312 1.28125,-3 1.082031,-2.8125 0.972656,-2.550781 0.953125,-2.21875 Z m 0,0"
           id="path37" />
      </g>
    </g>
    <path
       fill-rule="evenodd"
       fill="var(--background-color)"
       fill-opacity="1"
       stroke-width="0.03175"
       stroke-linecap="butt"
       stroke-linejoin="round"
       stroke="var(--text-color)"
       stroke-opacity="1"
       stroke-miterlimit="10"
       d="m 63.262287,141.31334 h -3.06958 v -3.04271 h 6.112288 v 3.04271 z m 0,0"
       id="path3090" />
    <g
       fill="var(--text-color)"
       fill-opacity="1"
       id="g3091"
       transform="matrix(0.26458333,0,0,0.26458333,1.3229163,67.918336)">
      <g
         id="use3091"
         transform="translate(230,275)">
        <path
           d="m 1.859375,0 v -4.546875 h -1.6875 V -5.15625 H 4.25 v 0.609375 H 2.546875 V 0 Z m 0,0"
           id="path1" />
      </g>
    </g>
    <g
       fill="var(--text-color)"
       fill-opacity="1"
       id="g3092"
       transform="matrix(0.26458333,0,0,0.26458333,1.3229163,67.918336)">
      <g
         id="use3092"
         transform="translate(234.29953,275)">
        <path
           d="m 0.046875,0 1.375,-1.9375 L 0.15625,-3.734375 H 0.9375 l 0.578125,0.875 C 1.617188,-2.691406 1.707031,-2.550781 1.78125,-2.4375 1.882812,-2.59375 1.976562,-2.734375 2.0625,-2.859375 l 0.625,-0.875 h 0.75 l -1.28125,1.75 L 3.546875,0 H 2.765625 L 2,-1.15625 1.796875,-1.46875 0.8125,0 Z m 0,0"
           id="path44" />
      </g>
    </g>
    <path
       fill-rule="evenodd"
       fill="var(--background-color)"
       fill-opacity="1"
       stroke-width="0.03175"
       stroke-linecap="butt"
       stroke-linejoin="round"
       stroke="var(--text-color)"
       stroke-opacity="1"
       stroke-miterlimit="10"
       d="m 70.881461,141.31334 h -3.068547 v -3.04271 h 6.111255 v 3.04271 z m 0,0"
       id="path3092" />
    <g
       fill="var(--text-color)"
       fill-opacity="1"
       id="g3093"
       transform="matrix(0.26458333,0,0,0.26458333,1.3229163,67.918336)">
      <g
         id="use3093"
         transform="translate(258.79999,275)">
        <path
           d="m 1.859375,0 v -4.546875 h -1.6875 V -5.15625 H 4.25 v 0.609375 H 2.546875 V 0 Z m 0,0"
           id="path3" />
      </g>
    </g>
    <g
       fill="var(--text-color)"
       fill-opacity="1"
       id="g3094"
       transform="matrix(0.26458333,0,0,0.26458333,1.3229163,67.918336)">
      <g
         id="use3094"
         transform="translate(263.09952,275)">
        <path
           d="m 0.046875,0 1.375,-1.9375 L 0.15625,-3.734375 H 0.9375 l 0.578125,0.875 C 1.617188,-2.691406 1.707031,-2.550781 1.78125,-2.4375 1.882812,-2.59375 1.976562,-2.734375 2.0625,-2.859375 l 0.625,-0.875 h 0.75 l -1.28125,1.75 L 3.546875,0 H 2.765625 L 2,-1.15625 1.796875,-1.46875 0.8125,0 Z m 0,0"
           id="path45" />
      </g>
    </g>
    <path
       fill-rule="evenodd"
       fill="var(--background-color)"
       fill-opacity="1"
       stroke-width="0.03175"
       stroke-linecap="butt"
       stroke-linejoin="round"
       stroke="var(--text-color)"
       stroke-opacity="1"
       stroke-miterlimit="10"
       d="M 78.475828,141.31334 H 75.43312 v -3.04271 h 6.111256 v 3.04271 z m 0,0"
       id="path3094" />
    <g
       fill="var(--text-color)"
       fill-opacity="1"
       id="g3095"
       transform="matrix(0.26458333,0,0,0.26458333,1.3229163,67.918336)">
      <g
         id="use3095"
         transform="translate(288.79999,275)">
        <path
           d="M 0.65625,0 V -0.71875 H 1.375 V 0 Z m 0,0"
           id="path6" />
      </g>
    </g>
    <g
       fill="var(--text-color)"
       fill-opacity="1"
       id="g3096"
       transform="matrix(0.26458333,0,0,0.26458333,1.3229163,67.918336)">
      <g
         id="use3096"
         transform="translate(290.79877,275)">
        <path
           d="M 0.65625,0 V -0.71875 H 1.375 V 0 Z m 0,0"
           id="path7" />
      </g>
    </g>
    <g
       fill="var(--text-color)"
       fill-opacity="1"
       id="g3097"
       transform="matrix(0.26458333,0,0,0.26458333,1.3229163,67.918336)">
      <g
         id="use3097"
         transform="translate(292.79755,275)">
        <path
           d="M 0.65625,0 V -0.71875 H 1.375 V 0 Z m 0,0"
           id="path8" />
      </g>
    </g>
    <path
       fill-rule="evenodd"
       fill="var(--text-color)"
       fill-opacity="1"
       d="m 60.192707,135.22792 -1.799373,0.60875 v -1.21646 z m 0,0"
       id="path3097"
       style="stroke-width:0.264583" />
    <g
       clip-path="url(#clip-2)"
       id="g3098"
       transform="matrix(0.26458333,0,0,0.26458333,1.3229163,67.918336)">
      <path
         fill="none"
         stroke-width="0.1"
         stroke-linecap="butt"
         stroke-linejoin="miter"
         stroke="var(--text-color)"
         stroke-opacity="1"
         stroke-miterlimit="10"
         d="m 188,537.60156 h 29"
         transform="matrix(1,0,0,-1,0,792)"
         id="path3098" />
    </g>
    <g
       clip-path="url(#clip-3)"
       id="g3099"
       transform="matrix(0.26458333,0,0,0.26458333,1.3229163,67.918336)">
      <path
         fill-rule="evenodd"
         fill="var(--background-color)"
         fill-opacity="1"
         stroke-width="0.12"
         stroke-linecap="butt"
         stroke-linejoin="round"
         stroke="var(--text-color)"
         stroke-opacity="1"
         stroke-miterlimit="10"
         d="m 375.10156,508.80078 h -48.90234 v 51.89844 h 97.90234 v -51.89844 z m 0,0"
         transform="matrix(1,0,0,-1,0,792)"
         id="path3099" />
    </g>
    <g
       fill="var(--text-color)"
       fill-opacity="1"
       id="g3100"
       transform="matrix(0.26458333,0,0,0.26458333,1.3229163,67.918336)">
      <g
         id="use3099"
         transform="translate(332,242)">
        <path
           d="m 0.53125,0 v -5.15625 h 1.921875 c 0.394531,0 0.710937,0.054688 0.953125,0.15625 0.238281,0.105469 0.421875,0.265625 0.546875,0.484375 0.132813,0.21875 0.203125,0.445313 0.203125,0.671875 0,0.230469 -0.0625,0.445312 -0.1875,0.640625 -0.117188,0.1875 -0.292969,0.339844 -0.53125,0.453125 0.3125,0.09375 0.550781,0.257812 0.71875,0.484375 0.164062,0.21875 0.25,0.476563 0.25,0.765625 0,0.25 -0.054688,0.480469 -0.15625,0.6875 C 4.15625,-0.613281 4.03125,-0.457031 3.875,-0.34375 3.726562,-0.226562 3.539062,-0.140625 3.3125,-0.078125 3.09375,-0.0234375 2.816406,0 2.484375,0 Z M 1.203125,-2.984375 H 2.3125 c 0.300781,0 0.519531,-0.019531 0.65625,-0.0625 0.175781,-0.050781 0.304688,-0.132813 0.390625,-0.25 0.082031,-0.125 0.125,-0.273437 0.125,-0.453125 0,-0.175781 -0.042969,-0.328125 -0.125,-0.453125 -0.074219,-0.132813 -0.1875,-0.222656 -0.34375,-0.265625 -0.148437,-0.050781 -0.40625,-0.078125 -0.78125,-0.078125 h -1.03125 z m 0,2.375 h 1.28125 c 0.21875,0 0.375,-0.007813 0.46875,-0.03125 0.15625,-0.019531 0.285156,-0.0625 0.390625,-0.125 0.101562,-0.070313 0.1875,-0.171875 0.25,-0.296875 0.070312,-0.125 0.109375,-0.269531 0.109375,-0.4375 0,-0.1875 -0.054687,-0.347656 -0.15625,-0.484375 C 3.453125,-2.128906 3.316406,-2.226562 3.140625,-2.28125 2.972656,-2.34375 2.722656,-2.375 2.390625,-2.375 h -1.1875 z m 0,0"
           id="path41" />
      </g>
    </g>
    <g
       fill="var(--text-color)"
       fill-opacity="1"
       id="g3101"
       transform="matrix(0.26458333,0,0,0.26458333,1.3229163,67.918336)">
      <g
         id="use3100"
         transform="translate(336.80283,242)">
        <path
           d="M 0.453125,0 V -5.15625 H 1.09375 V 0 Z m 0,0"
           id="path19" />
      </g>
    </g>
    <g
       fill="var(--text-color)"
       fill-opacity="1"
       id="g3102"
       transform="matrix(0.26458333,0,0,0.26458333,1.3229163,67.918336)">
      <g
         id="use3101"
         transform="translate(338.40616,242)">
        <path
           d="m 0.234375,-1.875 c 0,-0.6875 0.191406,-1.195312 0.578125,-1.53125 0.320312,-0.269531 0.710938,-0.40625 1.171875,-0.40625 0.507813,0 0.925781,0.167969 1.25,0.5 0.332031,0.335938 0.5,0.796875 0.5,1.390625 0,0.480469 -0.074219,0.859375 -0.21875,1.140625 C 3.367188,-0.507812 3.15625,-0.296875 2.875,-0.140625 2.601562,0.00390625 2.304688,0.078125 1.984375,0.078125 c -0.523437,0 -0.945313,-0.1640625 -1.265625,-0.5 C 0.394531,-0.753906 0.234375,-1.238281 0.234375,-1.875 Z m 0.65625,0 c 0,0.480469 0.101563,0.839844 0.3125,1.078125 0.207031,0.242187 0.46875,0.359375 0.78125,0.359375 0.3125,0 0.570313,-0.117188 0.78125,-0.359375 0.207031,-0.238281 0.3125,-0.601563 0.3125,-1.09375 0,-0.457031 -0.105469,-0.804687 -0.3125,-1.046875 -0.210937,-0.238281 -0.46875,-0.359375 -0.78125,-0.359375 -0.3125,0 -0.574219,0.121094 -0.78125,0.359375 -0.210937,0.242188 -0.3125,0.59375 -0.3125,1.0625 z m 0,0"
           id="path50" />
      </g>
      <g
         id="use3102"
         transform="translate(342.40372,242)">
        <path
           d="m 2.90625,-1.375 0.625,0.09375 c -0.074219,0.429688 -0.25,0.761719 -0.53125,1 -0.273438,0.2421875 -0.617188,0.359375 -1.03125,0.359375 -0.511719,0 -0.921875,-0.1640625 -1.234375,-0.5 -0.304687,-0.332031 -0.453125,-0.8125 -0.453125,-1.4375 0,-0.394531 0.066406,-0.742187 0.203125,-1.046875 0.132813,-0.300781 0.335937,-0.523438 0.609375,-0.671875 0.269531,-0.15625 0.566406,-0.234375 0.890625,-0.234375 0.40625,0 0.734375,0.105469 0.984375,0.3125 0.257812,0.199219 0.425781,0.484375 0.5,0.859375 l -0.609375,0.09375 c -0.0625,-0.25 -0.171875,-0.4375 -0.328125,-0.5625 -0.148438,-0.125 -0.324219,-0.1875 -0.53125,-0.1875 -0.3125,0 -0.570312,0.117187 -0.765625,0.34375 C 1.035156,-2.722656 0.9375,-2.363281 0.9375,-1.875 c 0,0.5 0.09375,0.867188 0.28125,1.09375 0.1875,0.230469 0.4375,0.34375 0.75,0.34375 0.25,0 0.457031,-0.070312 0.625,-0.21875 0.164062,-0.15625 0.269531,-0.394531 0.3125,-0.71875 z m 0,0"
           id="path26" />
      </g>
    </g>
    <g
       fill="var(--text-color)"
       fill-opacity="1"
       id="g3103"
       transform="matrix(0.26458333,0,0,0.26458333,1.3229163,67.918336)">
      <g
         id="use3103"
         transform="translate(346.10648,242)">
        <path
           d="m 0.484375,0 v -5.15625 h 0.625 v 2.9375 l 1.5,-1.515625 h 0.8125 L 2,-2.34375 3.5625,0 H 2.78125 L 1.5625,-1.90625 1.109375,-1.484375 V 0 Z m 0,0"
           id="path23" />
      </g>
    </g>
    <path
       fill-rule="evenodd"
       fill="var(--background-color)"
       fill-opacity="1"
       stroke-width="0.03175"
       stroke-linecap="butt"
       stroke-linejoin="round"
       stroke="var(--text-color)"
       stroke-opacity="1"
       stroke-miterlimit="10"
       d="M 96.757917,136.73687 H 90.6725 v -3.04271 h 12.1977 v 3.04271 z m 0,0"
       id="path3103" />
    <g
       fill="var(--text-color)"
       fill-opacity="1"
       id="g3104"
       transform="matrix(0.26458333,0,0,0.26458333,1.3229163,67.918336)">
      <g
         id="use3104"
         transform="translate(343.89999,257.60001)">
        <path
           d="M 0.546875,0 V -5.15625 H 2.5 c 0.332031,0 0.59375,0.015625 0.78125,0.046875 0.25,0.042969 0.457031,0.125 0.625,0.25 0.175781,0.117187 0.316406,0.28125 0.421875,0.5 0.101563,0.210937 0.15625,0.4375 0.15625,0.6875 0,0.449219 -0.140625,0.824219 -0.421875,1.125 -0.28125,0.304687 -0.78125,0.453125 -1.5,0.453125 H 1.234375 V 0 Z m 0.6875,-2.703125 H 2.5625 c 0.4375,0 0.75,-0.082031 0.9375,-0.25 0.1875,-0.164063 0.28125,-0.394531 0.28125,-0.6875 0,-0.21875 -0.058594,-0.398437 -0.171875,-0.546875 C 3.503906,-4.34375 3.363281,-4.445312 3.1875,-4.5 3.070312,-4.53125 2.859375,-4.546875 2.546875,-4.546875 h -1.3125 z m 0,0"
           id="path33" />
      </g>
    </g>
    <g
       fill="var(--text-color)"
       fill-opacity="1"
       id="g3105"
       transform="matrix(0.26458333,0,0,0.26458333,1.3229163,67.918336)">
      <g
         id="use3105"
         transform="translate(348.70282,257.60001)">
        <path
           d="m 0.46875,0 v -3.734375 h 0.5625 v 0.5625 C 1.175781,-3.429688 1.3125,-3.601562 1.4375,-3.6875 c 0.125,-0.082031 0.257812,-0.125 0.40625,-0.125 0.207031,0 0.421875,0.070312 0.640625,0.203125 L 2.28125,-3.03125 C 2.125,-3.125 1.96875,-3.171875 1.8125,-3.171875 c -0.136719,0 -0.261719,0.042969 -0.375,0.125 C 1.332031,-2.960938 1.253906,-2.84375 1.203125,-2.6875 1.128906,-2.46875 1.09375,-2.222656 1.09375,-1.953125 V 0 Z m 0,0"
           id="path15" />
      </g>
    </g>
    <g
       fill="var(--text-color)"
       fill-opacity="1"
       id="g3107"
       transform="matrix(0.26458333,0,0,0.26458333,1.3229163,67.918336)">
      <g
         id="use3106"
         transform="translate(351.10422,257.60001)">
        <path
           d="M 3.03125,-1.203125 3.671875,-1.125 c -0.09375,0.386719 -0.28125,0.683594 -0.5625,0.890625 -0.28125,0.2109375 -0.640625,0.3125 -1.078125,0.3125 -0.542969,0 -0.976562,-0.1640625 -1.296875,-0.5 -0.3125,-0.332031 -0.46875,-0.804687 -0.46875,-1.421875 0,-0.625 0.160156,-1.109375 0.484375,-1.453125 C 1.070312,-3.640625 1.488281,-3.8125 2,-3.8125 c 0.5,0 0.90625,0.171875 1.21875,0.515625 0.320312,0.335937 0.484375,0.808594 0.484375,1.421875 0,0.042969 0,0.101562 0,0.171875 h -2.78125 c 0.019531,0.40625 0.132813,0.71875 0.34375,0.9375 0.207031,0.21875 0.46875,0.328125 0.78125,0.328125 0.226563,0 0.421875,-0.054688 0.578125,-0.171875 0.164062,-0.125 0.300781,-0.320313 0.40625,-0.59375 z M 0.953125,-2.21875 H 3.03125 C 3,-2.539062 2.921875,-2.78125 2.796875,-2.9375 2.585938,-3.175781 2.328125,-3.296875 2.015625,-3.296875 1.722656,-3.296875 1.476562,-3.195312 1.28125,-3 1.082031,-2.8125 0.972656,-2.550781 0.953125,-2.21875 Z m 0,0"
           id="path38" />
      </g>
      <g
         id="use3107"
         transform="translate(355.10178,257.60001)">
        <path
           d="M 1.515625,0 0.09375,-3.734375 H 0.765625 L 1.5625,-1.5 c 0.082031,0.242188 0.160156,0.492188 0.234375,0.75 0.050781,-0.195312 0.128906,-0.429688 0.234375,-0.703125 l 0.828125,-2.28125 h 0.65625 L 2.09375,0 Z m 0,0"
           id="path13" />
      </g>
    </g>
    <g
       fill="var(--text-color)"
       fill-opacity="1"
       id="g3109"
       transform="matrix(0.26458333,0,0,0.26458333,1.3229163,67.918336)">
      <g
         id="use3109"
         transform="translate(360.70267,257.60001)">
        <path
           d="M 0.578125,0 V -5.15625 H 1.25 v 2.125 h 2.6875 v -2.125 H 4.609375 V 0 H 3.9375 V -2.4375 H 1.25 V 0 Z m 0,0"
           id="path43" />
      </g>
    </g>
    <g
       fill="var(--text-color)"
       fill-opacity="1"
       id="g3110"
       transform="matrix(0.26458333,0,0,0.26458333,1.3229163,67.918336)">
      <g
         id="use3110"
         transform="translate(365.80026,257.60001)">
        <path
           d="M 2.90625,-0.453125 C 2.675781,-0.253906 2.453125,-0.113281 2.234375,-0.03125 2.015625,0.0390625 1.78125,0.078125 1.53125,0.078125 1.125,0.078125 0.8125,-0.0195312 0.59375,-0.21875 0.375,-0.414062 0.265625,-0.671875 0.265625,-0.984375 c 0,-0.1875 0.039063,-0.351563 0.125,-0.5 0.082031,-0.15625 0.1875,-0.273437 0.3125,-0.359375 0.132813,-0.09375 0.289063,-0.164062 0.46875,-0.21875 0.113281,-0.03125 0.300781,-0.0625 0.5625,-0.09375 0.5,-0.0625 0.875,-0.132812 1.125,-0.21875 0,-0.082031 0,-0.132812 0,-0.15625 0,-0.257812 -0.0625,-0.441406 -0.1875,-0.546875 -0.15625,-0.144531 -0.398437,-0.21875 -0.71875,-0.21875 -0.292969,0 -0.511719,0.054687 -0.65625,0.15625 -0.136719,0.105469 -0.242187,0.292969 -0.3125,0.5625 L 0.375,-2.671875 c 0.050781,-0.257813 0.140625,-0.472656 0.265625,-0.640625 0.132813,-0.164062 0.320313,-0.289062 0.5625,-0.375 0.238281,-0.082031 0.519531,-0.125 0.84375,-0.125 0.320313,0 0.582031,0.039062 0.78125,0.109375 0.195313,0.074219 0.34375,0.167969 0.4375,0.28125 0.09375,0.117187 0.15625,0.257813 0.1875,0.421875 0.019531,0.117188 0.03125,0.3125 0.03125,0.59375 v 0.84375 c 0,0.585938 0.015625,0.953125 0.046875,1.109375 C 3.5625,-0.296875 3.613281,-0.144531 3.6875,0 H 3.03125 C 2.96875,-0.132812 2.925781,-0.285156 2.90625,-0.453125 Z M 2.859375,-1.875 c -0.230469,0.09375 -0.574219,0.171875 -1.03125,0.234375 -0.261719,0.042969 -0.449219,0.089844 -0.5625,0.140625 -0.105469,0.042969 -0.1875,0.109375 -0.25,0.203125 C 0.960938,-1.210938 0.9375,-1.113281 0.9375,-1 c 0,0.167969 0.0625,0.308594 0.1875,0.421875 0.125,0.117187 0.3125,0.171875 0.5625,0.171875 0.238281,0 0.453125,-0.050781 0.640625,-0.15625 0.195313,-0.113281 0.335937,-0.265625 0.421875,-0.453125 0.070312,-0.132813 0.109375,-0.34375 0.109375,-0.625 z m 0,0"
           id="path35" />
      </g>
    </g>
    <g
       fill="var(--text-color)"
       fill-opacity="1"
       id="g3111"
       transform="matrix(0.26458333,0,0,0.26458333,1.3229163,67.918336)">
      <g
         id="use3111"
         transform="translate(369.8985,257.60001)">
        <path
           d="m 0.21875,-1.109375 0.625,-0.109375 c 0.039062,0.25 0.140625,0.445312 0.296875,0.578125 0.15625,0.136719 0.378906,0.203125 0.671875,0.203125 0.289062,0 0.503906,-0.054688 0.640625,-0.171875 0.144531,-0.125 0.21875,-0.265625 0.21875,-0.421875 0,-0.144531 -0.0625,-0.257812 -0.1875,-0.34375 -0.09375,-0.050781 -0.3125,-0.117188 -0.65625,-0.203125 C 1.367188,-1.703125 1.050781,-1.804688 0.875,-1.890625 0.695312,-1.972656 0.5625,-2.085938 0.46875,-2.234375 0.375,-2.390625 0.328125,-2.5625 0.328125,-2.75 c 0,-0.164062 0.035156,-0.316406 0.109375,-0.453125 C 0.507812,-3.347656 0.613281,-3.46875 0.75,-3.5625 0.851562,-3.632812 0.988281,-3.691406 1.15625,-3.734375 1.320312,-3.785156 1.503906,-3.8125 1.703125,-3.8125 c 0.289063,0 0.546875,0.042969 0.765625,0.125 0.21875,0.085938 0.378906,0.199219 0.484375,0.34375 0.101563,0.136719 0.175781,0.328125 0.21875,0.578125 L 2.5625,-2.6875 C 2.53125,-2.875 2.445312,-3.019531 2.3125,-3.125 2.175781,-3.238281 1.988281,-3.296875 1.75,-3.296875 1.457031,-3.296875 1.25,-3.25 1.125,-3.15625 1,-3.0625 0.9375,-2.945312 0.9375,-2.8125 c 0,0.085938 0.023438,0.15625 0.078125,0.21875 0.050781,0.0625 0.128906,0.121094 0.234375,0.171875 0.0625,0.023437 0.25,0.074219 0.5625,0.15625 0.445312,0.125 0.757812,0.226563 0.9375,0.296875 0.175781,0.074219 0.3125,0.183594 0.40625,0.328125 C 3.257812,-1.492188 3.3125,-1.3125 3.3125,-1.09375 3.3125,-0.882812 3.25,-0.6875 3.125,-0.5 3.007812,-0.3125 2.832031,-0.164062 2.59375,-0.0625 2.363281,0.03125 2.101562,0.078125 1.8125,0.078125 c -0.480469,0 -0.851562,-0.0976562 -1.109375,-0.296875 -0.25,-0.195312 -0.414063,-0.492188 -0.484375,-0.890625 z m 0,0"
           id="path17" />
      </g>
    </g>
    <g
       fill="var(--text-color)"
       fill-opacity="1"
       id="g3112"
       transform="matrix(0.26458333,0,0,0.26458333,1.3229163,67.918336)">
      <g
         id="use3112"
         transform="translate(373.50061,257.60001)">
        <path
           d="m 0.46875,0 v -5.15625 h 0.640625 v 1.84375 c 0.289063,-0.332031 0.660156,-0.5 1.109375,-0.5 0.28125,0 0.519531,0.054688 0.71875,0.15625 0.207031,0.105469 0.351562,0.257812 0.4375,0.453125 0.09375,0.1875 0.140625,0.46875 0.140625,0.84375 V 0 H 2.875 V -2.359375 C 2.875,-2.679688 2.804688,-2.914062 2.671875,-3.0625 2.535156,-3.207031 2.34375,-3.28125 2.09375,-3.28125 c -0.1875,0 -0.367188,0.054688 -0.53125,0.15625 -0.167969,0.09375 -0.289062,0.226562 -0.359375,0.390625 -0.0625,0.167969 -0.09375,0.398437 -0.09375,0.6875 V 0 Z m 0,0"
           id="path21" />
      </g>
    </g>
    <path
       fill-rule="evenodd"
       fill="var(--background-color)"
       fill-opacity="1"
       stroke-width="0.03175"
       stroke-linecap="butt"
       stroke-linejoin="round"
       stroke="var(--text-color)"
       stroke-opacity="1"
       stroke-miterlimit="10"
       d="m 108.18771,136.73687 h -3.80959 v -3.04271 h 7.62021 v 3.04271 z m 0,0"
       id="path3112" />
    <g
       fill="var(--text-color)"
       fill-opacity="1"
       id="g3113"
       transform="matrix(0.26458333,0,0,0.26458333,1.3229163,67.918336)">
      <g
         id="use3113"
         transform="translate(393.70001,257.60001)">
        <path
           d="M 0.546875,0 V -5.15625 H 1.25 l 2.703125,4.046875 V -5.15625 H 4.59375 V 0 H 3.90625 L 1.203125,-4.046875 V 0 Z m 0,0"
           id="path29" />
      </g>
    </g>
    <g
       fill="var(--text-color)"
       fill-opacity="1"
       id="g3115"
       transform="matrix(0.26458333,0,0,0.26458333,1.3229163,67.918336)">
      <g
         id="use3114"
         transform="translate(398.89825,257.60001)">
        <path
           d="m 0.234375,-1.875 c 0,-0.6875 0.191406,-1.195312 0.578125,-1.53125 0.320312,-0.269531 0.710938,-0.40625 1.171875,-0.40625 0.507813,0 0.925781,0.167969 1.25,0.5 0.332031,0.335938 0.5,0.796875 0.5,1.390625 0,0.480469 -0.074219,0.859375 -0.21875,1.140625 C 3.367188,-0.507812 3.15625,-0.296875 2.875,-0.140625 2.601562,0.00390625 2.304688,0.078125 1.984375,0.078125 c -0.523437,0 -0.945313,-0.1640625 -1.265625,-0.5 C 0.394531,-0.753906 0.234375,-1.238281 0.234375,-1.875 Z m 0.65625,0 c 0,0.480469 0.101563,0.839844 0.3125,1.078125 0.207031,0.242187 0.46875,0.359375 0.78125,0.359375 0.3125,0 0.570313,-0.117188 0.78125,-0.359375 0.207031,-0.238281 0.3125,-0.601563 0.3125,-1.09375 0,-0.457031 -0.105469,-0.804687 -0.3125,-1.046875 -0.210937,-0.238281 -0.46875,-0.359375 -0.78125,-0.359375 -0.3125,0 -0.574219,0.121094 -0.78125,0.359375 -0.210937,0.242188 -0.3125,0.59375 -0.3125,1.0625 z m 0,0"
           id="path51" />
      </g>
      <g
         id="use3115"
         transform="translate(402.89581,257.60001)">
        <path
           d="m 0.46875,0 v -3.734375 h 0.578125 v 0.53125 c 0.269531,-0.40625 0.664063,-0.609375 1.1875,-0.609375 0.21875,0 0.421875,0.042969 0.609375,0.125 0.1875,0.074219 0.328125,0.179688 0.421875,0.3125 0.09375,0.125 0.160156,0.28125 0.203125,0.46875 C 3.488281,-2.789062 3.5,-2.585938 3.5,-2.296875 V 0 H 2.875 V -2.265625 C 2.875,-2.523438 2.847656,-2.71875 2.796875,-2.84375 2.742188,-2.976562 2.65625,-3.082031 2.53125,-3.15625 c -0.125,-0.070312 -0.273438,-0.109375 -0.4375,-0.109375 -0.273438,0 -0.507812,0.089844 -0.703125,0.265625 -0.1875,0.167969 -0.28125,0.484375 -0.28125,0.953125 V 0 Z m 0,0"
           id="path31" />
      </g>
    </g>
    <g
       fill="var(--text-color)"
       fill-opacity="1"
       id="g3116"
       transform="matrix(0.26458333,0,0,0.26458333,1.3229163,67.918336)">
      <g
         id="use3116"
         transform="translate(406.99402,257.60001)">
        <path
           d="m 2.90625,-1.375 0.625,0.09375 c -0.074219,0.429688 -0.25,0.761719 -0.53125,1 -0.273438,0.2421875 -0.617188,0.359375 -1.03125,0.359375 -0.511719,0 -0.921875,-0.1640625 -1.234375,-0.5 -0.304687,-0.332031 -0.453125,-0.8125 -0.453125,-1.4375 0,-0.394531 0.066406,-0.742187 0.203125,-1.046875 0.132813,-0.300781 0.335937,-0.523438 0.609375,-0.671875 0.269531,-0.15625 0.566406,-0.234375 0.890625,-0.234375 0.40625,0 0.734375,0.105469 0.984375,0.3125 0.257812,0.199219 0.425781,0.484375 0.5,0.859375 l -0.609375,0.09375 c -0.0625,-0.25 -0.171875,-0.4375 -0.328125,-0.5625 -0.148438,-0.125 -0.324219,-0.1875 -0.53125,-0.1875 -0.3125,0 -0.570312,0.117187 -0.765625,0.34375 C 1.035156,-2.722656 0.9375,-2.363281 0.9375,-1.875 c 0,0.5 0.09375,0.867188 0.28125,1.09375 0.1875,0.230469 0.4375,0.34375 0.75,0.34375 0.25,0 0.457031,-0.070312 0.625,-0.21875 0.164062,-0.15625 0.269531,-0.394531 0.3125,-0.71875 z m 0,0"
           id="path27" />
      </g>
    </g>
    <g
       fill="var(--text-color)"
       fill-opacity="1"
       id="g3117"
       transform="matrix(0.26458333,0,0,0.26458333,1.3229163,67.918336)">
      <g
         id="use3117"
         transform="translate(410.59613,257.60001)">
        <path
           d="M 3.03125,-1.203125 3.671875,-1.125 c -0.09375,0.386719 -0.28125,0.683594 -0.5625,0.890625 -0.28125,0.2109375 -0.640625,0.3125 -1.078125,0.3125 -0.542969,0 -0.976562,-0.1640625 -1.296875,-0.5 -0.3125,-0.332031 -0.46875,-0.804687 -0.46875,-1.421875 0,-0.625 0.160156,-1.109375 0.484375,-1.453125 C 1.070312,-3.640625 1.488281,-3.8125 2,-3.8125 c 0.5,0 0.90625,0.171875 1.21875,0.515625 0.320312,0.335937 0.484375,0.808594 0.484375,1.421875 0,0.042969 0,0.101562 0,0.171875 h -2.78125 c 0.019531,0.40625 0.132813,0.71875 0.34375,0.9375 0.207031,0.21875 0.46875,0.328125 0.78125,0.328125 0.226563,0 0.421875,-0.054688 0.578125,-0.171875 0.164062,-0.125 0.300781,-0.320313 0.40625,-0.59375 z M 0.953125,-2.21875 H 3.03125 C 3,-2.539062 2.921875,-2.78125 2.796875,-2.9375 2.585938,-3.175781 2.328125,-3.296875 2.015625,-3.296875 1.722656,-3.296875 1.476562,-3.195312 1.28125,-3 1.082031,-2.8125 0.972656,-2.550781 0.953125,-2.21875 Z m 0,0"
           id="path39" />
      </g>
    </g>
    <path
       fill-rule="evenodd"
       fill="var(--background-color)"
       fill-opacity="1"
       stroke-width="0.03175"
       stroke-linecap="butt"
       stroke-linejoin="round"
       stroke="var(--text-color)"
       stroke-opacity="1"
       stroke-miterlimit="10"
       d="M 93.715209,141.31334 H 90.6725 v -3.04271 h 6.085417 v 3.04271 z m 0,0"
       id="path3117" />
    <g
       fill="var(--text-color)"
       fill-opacity="1"
       id="g3118"
       transform="matrix(0.26458333,0,0,0.26458333,1.3229163,67.918336)">
      <g
         id="use3118"
         transform="translate(345.10001,275)">
        <path
           d="m 1.859375,0 v -4.546875 h -1.6875 V -5.15625 H 4.25 v 0.609375 H 2.546875 V 0 Z m 0,0"
           id="path4" />
      </g>
    </g>
    <g
       fill="var(--text-color)"
       fill-opacity="1"
       id="g3119"
       transform="matrix(0.26458333,0,0,0.26458333,1.3229163,67.918336)">
      <g
         id="use3119"
         transform="translate(349.39954,275)">
        <path
           d="m 0.046875,0 1.375,-1.9375 L 0.15625,-3.734375 H 0.9375 l 0.578125,0.875 C 1.617188,-2.691406 1.707031,-2.550781 1.78125,-2.4375 1.882812,-2.59375 1.976562,-2.734375 2.0625,-2.859375 l 0.625,-0.875 h 0.75 l -1.28125,1.75 L 3.546875,0 H 2.765625 L 2,-1.15625 1.796875,-1.46875 0.8125,0 Z m 0,0"
           id="path46" />
      </g>
    </g>
    <path
       fill-rule="evenodd"
       fill="var(--background-color)"
       fill-opacity="1"
       stroke-width="0.03175"
       stroke-linecap="butt"
       stroke-linejoin="round"
       stroke="var(--text-color)"
       stroke-opacity="1"
       stroke-miterlimit="10"
       d="m 101.33542,141.31334 h -3.042713 v -3.04271 h 6.085413 v 3.04271 z m 0,0"
       id="path3119" />
    <g
       fill="var(--text-color)"
       fill-opacity="1"
       id="g3120"
       transform="matrix(0.26458333,0,0,0.26458333,1.3229163,67.918336)">
      <g
         id="use3120"
         transform="translate(373.89999,275)">
        <path
           d="m 1.859375,0 v -4.546875 h -1.6875 V -5.15625 H 4.25 v 0.609375 H 2.546875 V 0 Z m 0,0"
           id="path5" />
      </g>
    </g>
    <g
       fill="var(--text-color)"
       fill-opacity="1"
       id="g3121"
       transform="matrix(0.26458333,0,0,0.26458333,1.3229163,67.918336)">
      <g
         id="use3121"
         transform="translate(378.19952,275)">
        <path
           d="m 0.046875,0 1.375,-1.9375 L 0.15625,-3.734375 H 0.9375 l 0.578125,0.875 C 1.617188,-2.691406 1.707031,-2.550781 1.78125,-2.4375 1.882812,-2.59375 1.976562,-2.734375 2.0625,-2.859375 l 0.625,-0.875 h 0.75 l -1.28125,1.75 L 3.546875,0 H 2.765625 L 2,-1.15625 1.796875,-1.46875 0.8125,0 Z m 0,0"
           id="path47" />
      </g>
    </g>
    <path
       fill-rule="evenodd"
       fill="var(--background-color)"
       fill-opacity="1"
       stroke-width="0.03175"
       stroke-linecap="butt"
       stroke-linejoin="round"
       stroke="var(--text-color)"
       stroke-opacity="1"
       stroke-miterlimit="10"
       d="m 108.95562,141.31334 h -3.04271 v -3.04271 h 6.08542 v 3.04271 z m 0,0"
       id="path3121" />
    <g
       fill="var(--text-color)"
       fill-opacity="1"
       id="g3122"
       transform="matrix(0.26458333,0,0,0.26458333,1.3229163,67.918336)">
      <g
         id="use3122"
         transform="translate(403.89999,275)">
        <path
           d="M 0.65625,0 V -0.71875 H 1.375 V 0 Z m 0,0"
           id="path9" />
      </g>
    </g>
    <g
       fill="var(--text-color)"
       fill-opacity="1"
       id="g3123"
       transform="matrix(0.26458333,0,0,0.26458333,1.3229163,67.918336)">
      <g
         id="use3123"
         transform="translate(405.99945,275)">
        <path
           d="M 0.65625,0 V -0.71875 H 1.375 V 0 Z m 0,0"
           id="path10" />
      </g>
    </g>
    <g
       fill="var(--text-color)"
       fill-opacity="1"
       id="g3124"
       transform="matrix(0.26458333,0,0,0.26458333,1.3229163,67.918336)">
      <g
         id="use3124"
         transform="translate(407.9982,275)">
        <path
           d="M 0.65625,0 V -0.71875 H 1.375 V 0 Z m 0,0"
           id="path11" />
      </g>
    </g>
    <path
       fill-rule="evenodd"
       fill="var(--text-color)"
       fill-opacity="1"
       d="m 90.6725,135.22792 -1.825212,0.60875 v -1.21646 z m 0,0"
       id="path3124"
       style="stroke-width:0.264583" />
    <path
       fill="none"
       stroke-width="0.0264583"
       stroke-linecap="butt"
       stroke-linejoin="miter"
       stroke="var(--text-color)"
       stroke-opacity="1"
       stroke-miterlimit="10"
       d="m 83.052294,135.22792 h 6.164998"
       id="path3125" />
  </g>
</svg>
