<?xml version="1.0" encoding="UTF-8"?>
<svg height="70.5mm" version="1.1" viewBox="0 0 122.03 71.64" xmlns="http://www.w3.org/2000/svg">
 <path d="M22.564 53.075H7.951V0h29.178v53.075zm0 0" fill="var(--background-color)" fill-rule="evenodd" stroke="var(--text-color)" stroke-linejoin="round" stroke-miterlimit="10" stroke-width=".057121"/>
 <g fill="var(--text-color)">
  <path d="M11.336 4.904V2.799h-.781v-.283h1.889V2.8h-.788v2.105ZM12.594 4.904V3.178h.268v.26a.715.715 0 0 1 .178-.245.344.344 0 0 1 .193-.06c.099 0 .198.034.298.097l-.097.275a.421.421 0 0 0-.215-.067.298.298 0 0 0-.179.06.31.31 0 0 0-.104.156c-.035.104-.052.22-.052.342v.908ZM14.82 4.688c-.11.095-.214.162-.312.2-.1.034-.207.053-.32.053-.193 0-.342-.045-.446-.134a.463.463 0 0 1-.15-.357c0-.084.02-.16.06-.23a.464.464 0 0 1 .15-.172.65.65 0 0 1 .215-.096c.054-.015.141-.03.26-.045.233-.03.406-.061.52-.097V3.73c0-.12-.027-.203-.081-.253-.074-.064-.186-.097-.335-.097-.14 0-.241.026-.305.074-.065.045-.115.13-.148.253l-.283-.037a.684.684 0 0 1 .126-.298.56.56 0 0 1 .26-.17c.114-.045.246-.068.395-.068.149 0 .268.02.357.053.093.035.16.08.2.133a.532.532 0 0 1 .097.201c.01.05.015.14.015.268v.394c0 .274.004.446.015.52.015.071.04.138.075.202h-.305a.629.629 0 0 1-.06-.216zm-.022-.655c-.11.045-.268.082-.476.112-.125.02-.212.043-.26.067-.05.02-.09.05-.12.09a.255.255 0 0 0-.037.14c0 .075.03.14.09.194.06.05.145.074.26.074a.575.575 0 0 0 .297-.074.475.475 0 0 0 .201-.2.715.715 0 0 0 .045-.291ZM15.552 4.904V3.178h.26v.246a.622.622 0 0 1 .55-.29c.105 0 .198.02.284.059.089.04.156.09.2.149a.5.5 0 0 1 .09.215c.009.056.015.15.015.283v1.064h-.29v-1.05a.746.746 0 0 0-.038-.267.259.259 0 0 0-.119-.141.479.479 0 0 0-.528.067c-.09.074-.134.223-.134.446v.945Zm0 0"/>
  <path d="m17.288 4.39.29-.044c.015.115.06.204.134.268.075.06.179.089.313.089s.232-.026.297-.082a.25.25 0 0 0 .097-.193.19.19 0 0 0-.082-.157 1.486 1.486 0 0 0-.305-.096 2.608 2.608 0 0 1-.446-.142.443.443 0 0 1-.2-.61.487.487 0 0 1 .148-.163.642.642 0 0 1 .186-.09 1.012 1.012 0 0 1 .61.022.45.45 0 0 1 .223.165.635.635 0 0 1 .104.267l-.29.038a.301.301 0 0 0-.112-.209.406.406 0 0 0-.26-.074c-.134 0-.23.022-.29.067-.06.044-.09.097-.09.156 0 .035.012.07.038.104.024.03.061.056.111.075.03.01.116.035.26.074.209.056.352.1.432.134a.416.416 0 0 1 .194.156c.048.07.074.154.074.253 0 .095-.03.186-.09.275a.554.554 0 0 1-.245.2.956.956 0 0 1-.364.068c-.223 0-.394-.045-.513-.134a.632.632 0 0 1-.224-.417zM20.196 4.688c-.11.095-.214.162-.313.2-.1.034-.206.053-.32.053-.193 0-.341-.045-.446-.134a.463.463 0 0 1-.148-.357c0-.084.018-.16.06-.23a.464.464 0 0 1 .148-.172.65.65 0 0 1 .216-.096c.053-.015.14-.03.26-.045.232-.03.405-.061.52-.097V3.73c0-.12-.027-.203-.081-.253-.075-.064-.186-.097-.335-.097-.14 0-.242.026-.305.074-.065.045-.115.13-.149.253l-.282-.037a.684.684 0 0 1 .126-.298.56.56 0 0 1 .26-.17c.114-.045.246-.068.395-.068.148 0 .267.02.357.053.093.035.16.08.2.133a.532.532 0 0 1 .097.201c.01.05.015.14.015.268v.394c0 .274.004.446.015.52.015.071.039.138.074.202h-.305a.629.629 0 0 1-.06-.216zm-.022-.655c-.11.045-.268.082-.476.112-.125.02-.212.043-.26.067-.051.02-.09.05-.12.09a.255.255 0 0 0-.037.14c0 .075.03.14.09.194.059.05.144.074.26.074a.575.575 0 0 0 .297-.074.475.475 0 0 0 .2-.2.715.715 0 0 0 .046-.291Zm0 0"/>
  <path d="m22.051 4.271.29.038a.73.73 0 0 1-.245.468.712.712 0 0 1-.476.164.744.744 0 0 1-.573-.23c-.14-.153-.208-.374-.208-.663 0-.187.03-.351.089-.49a.638.638 0 0 1 .275-.313.818.818 0 0 1 .417-.112.7.7 0 0 1 .46.15.661.661 0 0 1 .231.4l-.282.046a.468.468 0 0 0-.149-.26.35.35 0 0 0-.245-.09.467.467 0 0 0-.365.156c-.09.104-.134.273-.134.506 0 .229.045.398.134.506.09.104.205.156.35.156a.394.394 0 0 0 .282-.104.539.539 0 0 0 .149-.328zM23.233 4.643l.037.26c-.08.016-.154.023-.223.023a.502.502 0 0 1-.245-.052.283.283 0 0 1-.127-.134c-.02-.054-.03-.167-.03-.342V3.4h-.215v-.223h.215v-.431l.29-.171v.602h.298v.223h-.298v1.012c0 .085.004.14.015.163a.12.12 0 0 0 .045.06c.024.011.06.015.104.015.034 0 .078-.002.134-.008zm0 0"/>
  <path d="M23.546 2.858v-.342h.29v.342zm0 2.046V3.178h.29v1.726ZM24.197 4.04c0-.32.09-.559.268-.713a.802.802 0 0 1 .543-.194c.238 0 .431.08.58.238.152.155.23.37.23.648 0 .219-.035.392-.104.52a.67.67 0 0 1-.29.298.876.876 0 0 1-.416.104.777.777 0 0 1-.588-.23c-.149-.153-.223-.376-.223-.67zm.298 0c0 .22.046.386.14.5.1.109.224.163.373.163a.451.451 0 0 0 .357-.164c.098-.113.148-.282.148-.506 0-.217-.05-.38-.148-.49a.457.457 0 0 0-.357-.164.485.485 0 0 0-.372.164c-.095.11-.141.275-.141.498ZM26.117 4.904V3.178h.26v.246a.622.622 0 0 1 .55-.29c.105 0 .198.02.283.059.09.04.157.09.201.149a.5.5 0 0 1 .09.215c.009.056.014.15.014.283v1.064h-.29v-1.05a.746.746 0 0 0-.037-.267.259.259 0 0 0-.119-.141.479.479 0 0 0-.528.067c-.09.074-.134.223-.134.446v.945Zm0 0"/>
 </g>
 <path d="m22.564 18.564h-11.949v-10.613h23.85v10.613z" fill="var(--background-color)" fill-rule="evenodd" stroke="var(--text-color)" stroke-linejoin="round" stroke-miterlimit="10" stroke-width=".057"/>
 <g fill="var(--text-color)">
  <path d="M15.254 11.788c0-.396.104-.707.312-.93.212-.223.487-.334.826-.334.223 0 .42.052.595.156a.987.987 0 0 1 .402.439c.092.19.14.401.14.64 0 .243-.05.46-.148.654a.978.978 0 0 1-.409.431 1.217 1.217 0 0 1-.58.141c-.223 0-.424-.052-.603-.156a1.015 1.015 0 0 1-.401-.446 1.371 1.371 0 0 1-.134-.595Zm.32 0c0 .288.076.517.23.684a.783.783 0 0 0 .588.246.772.772 0 0 0 .587-.246c.153-.167.231-.405.231-.714 0-.193-.035-.36-.104-.506a.74.74 0 0 0-.29-.342.783.783 0 0 0-.424-.119.824.824 0 0 0-.58.23c-.16.155-.238.41-.238.767zM18.197 12.948l-.528-1.725h.305l.275.996.104.372.09-.357.275-1.011h.297l.26.996.09.335.096-.335.298-.996h.283l-.543 1.725H19.2l-.275-1.034-.067-.297-.35 1.331ZM20.266 12.948v-1.725h.26v.245a.622.622 0 0 1 .55-.29c.105 0 .198.02.283.06.09.04.157.089.201.148a.5.5 0 0 1 .09.216c.009.056.014.149.014.283v1.063h-.29V11.9a.746.746 0 0 0-.037-.268.259.259 0 0 0-.119-.142.479.479 0 0 0-.528.067c-.09.075-.134.224-.134.447v.944ZM23.304 12.39l.297.038a.73.73 0 0 1-.26.416.823.823 0 0 1-.498.141c-.253 0-.454-.076-.603-.23-.148-.158-.223-.376-.223-.655 0-.292.075-.517.223-.676a.769.769 0 0 1 .588-.246c.232 0 .42.08.565.238.149.16.223.38.223.662 0 .02-.003.048-.007.082h-1.287c.01.19.061.335.156.439.099.1.22.148.365.148.108 0 .2-.026.275-.081a.582.582 0 0 0 .186-.276zm-.967-.468h.967c-.015-.149-.052-.257-.112-.327a.454.454 0 0 0-.364-.171.477.477 0 0 0-.342.133.544.544 0 0 0-.149.365zM23.97 12.948v-1.725h.267v.26a.715.715 0 0 1 .178-.245.344.344 0 0 1 .194-.06c.098 0 .197.034.297.097l-.096.275a.421.421 0 0 0-.216-.067.298.298 0 0 0-.179.06.31.31 0 0 0-.104.156c-.035.104-.052.22-.052.342v.907ZM26.997 12.948h-.29v-1.867c-.074.071-.17.14-.283.209a2.246 2.246 0 0 1-.304.148v-.29c.163-.074.304-.165.423-.275.123-.108.212-.216.268-.32h.186zM27.833 11.409l-.074-.447v-.401h.335v.401l-.082.447zM28.334 12.435l.29-.045c.015.116.06.205.134.268.074.06.178.09.312.09s.233-.027.298-.082a.25.25 0 0 0 .096-.194.19.19 0 0 0-.081-.156 1.486 1.486 0 0 0-.305-.097 2.608 2.608 0 0 1-.447-.141.443.443 0 0 1-.2-.61.487.487 0 0 1 .148-.163.642.642 0 0 1 .186-.09 1.012 1.012 0 0 1 .61.022.45.45 0 0 1 .223.164.635.635 0 0 1 .104.268l-.29.037a.301.301 0 0 0-.111-.208.406.406 0 0 0-.26-.074c-.134 0-.231.022-.29.066-.06.045-.09.097-.09.157 0 .035.011.07.037.104.025.03.062.056.112.074.03.011.115.035.26.075.209.055.352.1.432.133a.416.416 0 0 1 .193.157c.048.07.074.154.074.252 0 .095-.03.186-.089.276a.554.554 0 0 1-.245.2.956.956 0 0 1-.365.067c-.223 0-.394-.044-.513-.133a.632.632 0 0 1-.223-.417zM14.922 16.614v-2.388h.9c.153 0 .272.007.357.022.12.02.218.058.298.112a.562.562 0 0 1 .186.23c.048.1.074.209.074.328a.752.752 0 0 1-.193.52c-.13.14-.363.209-.7.209h-.61v.967Zm.313-1.25h.617c.203 0 .346-.037.431-.112a.413.413 0 0 0 .134-.327.404.404 0 0 0-.082-.253.385.385 0 0 0-.193-.141 1.328 1.328 0 0 0-.298-.022h-.61zM18.204 16.614v-.253a.635.635 0 0 1-.55.29c-.101 0-.194-.02-.283-.06a.515.515 0 0 1-.201-.141.61.61 0 0 1-.09-.223 1.534 1.534 0 0 1-.014-.268v-1.071h.29v.96c0 .148.004.25.015.304.018.08.06.142.119.186.06.041.134.06.223.06.09 0 .171-.022.245-.067a.36.36 0 0 0 .164-.179.904.904 0 0 0 .052-.342v-.922h.29v1.726ZM19.196 16.614h-.275v-2.388h.298v.855a.57.57 0 0 1 .468-.238.71.71 0 0 1 .305.067.63.63 0 0 1 .23.186.813.813 0 0 1 .15.275c.033.11.051.227.051.35 0 .297-.074.528-.223.692a.683.683 0 0 1-.528.238.54.54 0 0 1-.476-.253zm-.007-.878c0 .208.03.357.089.446.09.154.212.23.372.23a.43.43 0 0 0 .335-.163c.093-.113.14-.279.14-.498 0-.227-.047-.394-.14-.499a.407.407 0 0 0-.32-.163.421.421 0 0 0-.335.17c-.095.11-.141.269-.141.477zM20.776 16.614v-2.388h.29v2.388ZM21.546 14.568v-.342h.29v.342zm0 2.046v-1.726h.29v1.726Zm0 0"/>
  <path d="m23.432 15.981.29.037a.73.73 0 0 1-.245.47.712.712 0 0 1-.476.163.744.744 0 0 1-.573-.23c-.14-.153-.208-.375-.208-.663 0-.188.03-.351.09-.49a.638.638 0 0 1 .274-.313.818.818 0 0 1 .417-.112.7.7 0 0 1 .46.15.661.661 0 0 1 .231.4l-.282.045a.468.468 0 0 0-.149-.26.35.35 0 0 0-.245-.09.467.467 0 0 0-.365.157c-.089.104-.134.273-.134.506 0 .228.045.398.134.506.09.104.205.156.35.156a.394.394 0 0 0 .282-.104.539.539 0 0 0 .15-.328zm0 0"/>
  <path d="M24.903 16.614v-2.388h.312v1.183l1.19-1.183h.424l-.997.967 1.042 1.42h-.417l-.848-1.204-.394.379v.826ZM28.301 16.056l.298.037a.73.73 0 0 1-.26.416.823.823 0 0 1-.499.142c-.253 0-.454-.077-.602-.23-.15-.159-.224-.376-.224-.655 0-.292.075-.517.224-.677a.769.769 0 0 1 .587-.246c.233 0 .42.08.565.238.15.16.224.38.224.662 0 .02-.004.049-.008.082H27.32c.01.19.062.335.157.439.098.1.219.149.364.149.108 0 .2-.026.275-.082a.582.582 0 0 0 .186-.275zm-.967-.469h.967c-.015-.149-.052-.256-.111-.327a.454.454 0 0 0-.365-.171.477.477 0 0 0-.342.134.544.544 0 0 0-.149.364zM28.959 17.275l-.037-.267c.063.015.12.022.17.022a.303.303 0 0 0 .157-.037.26.26 0 0 0 .097-.09 1.478 1.478 0 0 0 .111-.29l-.654-1.725h.32l.357.997c.044.13.085.264.126.401a4.81 4.81 0 0 1 .119-.394l.372-1.004h.29l-.655 1.755c-.074.188-.13.32-.163.394a.625.625 0 0 1-.186.209.412.412 0 0 1-.238.067.568.568 0 0 1-.186-.038Zm0 0"/>
 </g>
 <path d="m22.564 50.41h-9.282v-10.614h18.564v10.616z" fill="var(--background-color)" fill-rule="evenodd" stroke="var(--text-color)" stroke-linejoin="round" stroke-miterlimit="10" stroke-width=".057"/>
 <path d="M15.35 43.538c0-.396.103-.707.311-.93.212-.223.488-.335.826-.335.223 0 .42.053.595.157a.987.987 0 0 1 .402.438c.093.19.141.402.141.64 0 .244-.05.461-.149.655a.978.978 0 0 1-.409.431 1.217 1.217 0 0 1-.58.141c-.223 0-.424-.052-.602-.156a1.015 1.015 0 0 1-.402-.446 1.371 1.371 0 0 1-.134-.595Zm.319 0c0 .288.076.517.23.684a.783.783 0 0 0 .588.246.772.772 0 0 0 .588-.246c.152-.167.23-.405.23-.714 0-.193-.035-.36-.104-.506a.74.74 0 0 0-.29-.342.783.783 0 0 0-.424-.119.824.824 0 0 0-.58.23c-.16.155-.238.41-.238.767zM18.292 44.698l-.528-1.725h.305l.275.996.104.372.09-.357.275-1.011h.297l.26.996.09.335.097-.335.297-.996h.283l-.543 1.725h-.298l-.275-1.034-.067-.297-.35 1.331ZM20.311 44.698v-1.725h.26v.245a.622.622 0 0 1 .551-.29c.104 0 .197.02.283.06.089.04.156.089.2.148a.5.5 0 0 1 .09.216c.01.056.015.149.015.283v1.063h-.29V43.65a.746.746 0 0 0-.038-.267.259.259 0 0 0-.119-.142.479.479 0 0 0-.528.067c-.089.075-.134.223-.134.447v.944ZM23.35 44.14l.297.038a.73.73 0 0 1-.26.416.823.823 0 0 1-.499.141c-.253 0-.454-.076-.602-.23-.15-.158-.224-.376-.224-.655 0-.292.075-.517.224-.677a.769.769 0 0 1 .587-.245c.233 0 .42.08.565.238.15.16.224.38.224.662 0 .02-.004.048-.008.082h-1.287c.01.19.062.334.157.439.098.1.219.148.364.148.108 0 .2-.026.275-.081a.582.582 0 0 0 .186-.276zm-.968-.468h.967c-.015-.149-.052-.257-.111-.328a.454.454 0 0 0-.365-.17.477.477 0 0 0-.342.133.544.544 0 0 0-.149.365zM24.014 44.698v-1.725h.268v.26a.715.715 0 0 1 .179-.246.344.344 0 0 1 .193-.059c.098 0 .197.033.297.097l-.096.275a.421.421 0 0 0-.216-.067.298.298 0 0 0-.178.06.31.31 0 0 0-.105.156c-.035.104-.052.219-.052.342v.907ZM25.988 43.523c0-.283.026-.508.082-.677a.87.87 0 0 1 .26-.401.658.658 0 0 1 .432-.142.666.666 0 0 1 .573.305c.063.095.113.212.148.35.04.14.06.327.06.565 0 .279-.03.504-.09.677a.799.799 0 0 1-.26.401.682.682 0 0 1-.431.134.664.664 0 0 1-.543-.245c-.154-.197-.23-.52-.23-.967Zm.298 0c0 .392.044.653.134.78.093.131.208.194.342.194.134 0 .245-.063.334-.193.093-.128.142-.389.142-.781 0-.39-.049-.65-.142-.781-.089-.128-.2-.193-.334-.193a.39.39 0 0 0-.327.17c-.1.146-.15.414-.15.804zM27.925 43.159l-.074-.447v-.401h.335v.401l-.082.447zM28.426 44.185l.29-.045c.015.116.06.205.134.268.074.06.178.09.312.09s.233-.027.298-.082a.25.25 0 0 0 .096-.194.19.19 0 0 0-.081-.156 1.486 1.486 0 0 0-.305-.097 2.608 2.608 0 0 1-.447-.141.443.443 0 0 1-.2-.61.487.487 0 0 1 .148-.164.642.642 0 0 1 .186-.089 1.012 1.012 0 0 1 .61.022.45.45 0 0 1 .223.164.635.635 0 0 1 .104.268l-.29.037a.301.301 0 0 0-.111-.208.406.406 0 0 0-.26-.075c-.135 0-.231.023-.29.067-.06.045-.09.097-.09.157 0 .035.011.07.037.104.024.03.062.055.112.074.03.011.115.035.26.074.208.056.352.1.432.134a.416.416 0 0 1 .193.156c.048.071.074.155.074.253 0 .095-.03.186-.089.276a.554.554 0 0 1-.245.2.956.956 0 0 1-.365.067c-.223 0-.394-.044-.513-.134a.632.632 0 0 1-.223-.416zM15.62 47.597l.297-.03a.668.668 0 0 0 .097.298.588.588 0 0 0 .245.186.95.95 0 0 0 .365.067.846.846 0 0 0 .312-.052.44.44 0 0 0 .209-.141.34.34 0 0 0 .074-.209.298.298 0 0 0-.067-.193.451.451 0 0 0-.216-.141 5.582 5.582 0 0 0-.424-.12 2.425 2.425 0 0 1-.46-.148.675.675 0 0 1-.261-.223.583.583 0 0 1 .022-.632.65.65 0 0 1 .298-.238 1.16 1.16 0 0 1 .439-.082c.178 0 .334.03.468.089a.691.691 0 0 1 .312.245.71.71 0 0 1 .12.38l-.305.022a.478.478 0 0 0-.164-.342c-.095-.078-.234-.12-.417-.12-.19 0-.327.036-.416.105a.314.314 0 0 0-.134.253c0 .09.032.162.097.216.06.055.215.111.468.17.257.056.435.105.536.15.137.065.24.146.305.245.063.1.096.212.096.335 0 .13-.037.25-.111.364a.715.715 0 0 1-.313.26 1.11 1.11 0 0 1-.453.09c-.22 0-.402-.03-.55-.09a.776.776 0 0 1-.343-.282.836.836 0 0 1-.126-.432ZM17.882 46.318v-.342h.29v.342zm0 2.045v-1.725h.29v1.725ZM18.586 48.505l.29.044c.01.09.04.153.096.194a.495.495 0 0 0 .298.082.524.524 0 0 0 .312-.082.405.405 0 0 0 .15-.23 1.91 1.91 0 0 0 .021-.373.609.609 0 0 1-.476.223.67.67 0 0 1-.557-.252.997.997 0 0 1-.194-.618c0-.167.03-.321.09-.46a.76.76 0 0 1 .26-.32.692.692 0 0 1 .401-.12c.203 0 .372.086.506.253v-.208h.268v1.487c0 .272-.028.463-.082.573a.603.603 0 0 1-.26.268.928.928 0 0 1-.439.097.828.828 0 0 1-.498-.142c-.13-.089-.192-.228-.186-.416Zm.245-1.034c0 .223.045.387.134.49a.43.43 0 0 0 .342.157.428.428 0 0 0 .335-.149c.09-.104.134-.268.134-.49 0-.213-.049-.373-.142-.477a.419.419 0 0 0-.334-.163.43.43 0 0 0-.335.163c-.09.104-.134.26-.134.469zM20.5 48.363v-1.725h.26v.245a.622.622 0 0 1 .551-.29c.104 0 .197.02.283.06.089.04.156.089.2.149a.5.5 0 0 1 .09.215c.01.056.015.149.015.283v1.063h-.29v-1.048a.746.746 0 0 0-.038-.268.259.259 0 0 0-.119-.141.479.479 0 0 0-.528.067c-.089.074-.134.223-.134.446v.944ZM23.479 48.148c-.11.095-.214.161-.313.2-.1.034-.206.053-.32.053-.193 0-.342-.045-.446-.134a.463.463 0 0 1-.149-.357c0-.084.019-.16.06-.23a.464.464 0 0 1 .149-.172.65.65 0 0 1 .215-.097c.054-.014.142-.03.26-.044.233-.03.406-.062.521-.097v-.082c0-.119-.028-.202-.081-.253-.075-.063-.186-.096-.335-.096-.14 0-.242.026-.305.074-.065.045-.115.13-.149.253l-.282-.037a.684.684 0 0 1 .126-.298.56.56 0 0 1 .26-.17c.114-.045.246-.068.394-.068.15 0 .268.019.357.052.093.036.16.08.201.134a.532.532 0 0 1 .097.201c.01.05.015.14.015.268v.394c0 .273.004.446.015.52.015.071.039.138.074.201h-.305a.629.629 0 0 1-.06-.215zm-.023-.655c-.11.045-.267.082-.476.112-.124.02-.212.043-.26.067-.05.02-.09.05-.119.089a.255.255 0 0 0-.037.141c0 .075.03.14.09.194.059.05.144.074.26.074a.575.575 0 0 0 .297-.074.475.475 0 0 0 .2-.201.715.715 0 0 0 .045-.29ZM24.85 48.103l.038.26c-.08.015-.155.023-.224.023a.502.502 0 0 1-.245-.052.283.283 0 0 1-.126-.134c-.02-.054-.03-.168-.03-.342v-.997h-.216v-.223h.216v-.432l.29-.17v.602h.297v.223h-.297v1.012c0 .085.004.139.015.163a.12.12 0 0 0 .044.06c.025.01.06.015.105.015.033 0 .078-.002.133-.008zM26.294 48.363v-.252a.635.635 0 0 1-.55.29c-.1 0-.194-.02-.283-.06a.515.515 0 0 1-.201-.141.61.61 0 0 1-.09-.223 1.534 1.534 0 0 1-.014-.268v-1.071h.29v.96c0 .148.004.25.015.304.018.08.06.142.119.186.06.041.134.06.223.06.09 0 .171-.023.245-.067a.36.36 0 0 0 .164-.179.904.904 0 0 0 .052-.342v-.922h.29v1.725ZM27.011 48.363v-1.725h.268v.26a.715.715 0 0 1 .178-.245.344.344 0 0 1 .194-.06c.098 0 .197.034.297.097l-.096.275a.421.421 0 0 0-.216-.067.298.298 0 0 0-.179.06.31.31 0 0 0-.104.156c-.035.104-.052.22-.052.342v.907ZM29.297 47.806l.297.037a.73.73 0 0 1-.26.416.823.823 0 0 1-.498.142c-.253 0-.454-.077-.603-.231-.148-.158-.223-.376-.223-.654 0-.292.075-.517.223-.677a.769.769 0 0 1 .588-.246c.232 0 .42.08.565.238.149.16.223.38.223.662 0 .02-.003.049-.007.082h-1.287c.01.19.061.335.156.439.099.1.22.149.365.149.108 0 .2-.026.275-.082a.582.582 0 0 0 .186-.275zm-.967-.469h.967c-.015-.149-.052-.257-.112-.327a.454.454 0 0 0-.364-.171.477.477 0 0 0-.342.134.544.544 0 0 0-.149.364zm0 0" fill="var(--text-color)"/>
 <path d="m21.23 31.846h-5.33v-5.33h10.615v5.33z" fill="var(--background-color)" fill-rule="evenodd" stroke="var(--text-color)" stroke-linejoin="round" stroke-miterlimit="10" stroke-width=".057"/>
 <g fill="var(--text-color)">
  <path d="M17.69 30.608v-2.387h.313v.982h1.242v-.982h.312v2.387h-.312v-1.123h-1.242v1.123ZM21.15 30.393c-.11.094-.213.161-.312.2-.1.034-.206.052-.32.052-.193 0-.342-.044-.446-.133a.463.463 0 0 1-.149-.357c0-.084.019-.16.06-.231a.464.464 0 0 1 .148-.171.65.65 0 0 1 .216-.097c.054-.015.141-.03.26-.044.233-.03.406-.062.521-.097v-.082c0-.119-.028-.203-.082-.253-.074-.063-.186-.096-.334-.096-.14 0-.242.026-.305.074-.065.045-.116.13-.15.253l-.282-.037a.684.684 0 0 1 .127-.298.56.56 0 0 1 .26-.171c.113-.045.245-.067.394-.067.149 0 .268.019.357.052.093.035.16.08.201.134a.532.532 0 0 1 .097.2c.009.051.015.14.015.269v.394c0 .273.003.446.014.52.015.071.04.138.075.201h-.305a.629.629 0 0 1-.06-.215zm-.022-.655c-.11.045-.268.082-.476.112-.125.02-.212.042-.26.067-.05.02-.09.05-.12.089a.255.255 0 0 0-.036.141c0 .074.03.14.089.193.06.05.145.075.26.075a.575.575 0 0 0 .298-.075.475.475 0 0 0 .2-.2.715.715 0 0 0 .045-.29Zm0 0"/>
  <path d="m21.763 30.095.29-.045c.015.116.06.205.134.268.075.06.179.09.313.09s.232-.027.297-.082a.25.25 0 0 0 .097-.194.19.19 0 0 0-.082-.156 1.486 1.486 0 0 0-.305-.097 2.608 2.608 0 0 1-.446-.141.443.443 0 0 1-.2-.61.487.487 0 0 1 .148-.163.642.642 0 0 1 .186-.09 1.012 1.012 0 0 1 .61.022.45.45 0 0 1 .223.164.635.635 0 0 1 .104.268l-.29.037a.301.301 0 0 0-.112-.208.406.406 0 0 0-.26-.074c-.134 0-.23.022-.29.066-.06.045-.09.097-.09.157 0 .035.012.07.038.104.024.03.061.056.111.074.03.011.116.035.26.075.21.055.352.1.432.133a.416.416 0 0 1 .194.157c.048.07.074.154.074.252 0 .095-.03.186-.09.276a.554.554 0 0 1-.245.2.956.956 0 0 1-.364.067c-.223 0-.394-.044-.513-.133a.632.632 0 0 1-.224-.417zM23.548 30.608v-2.387h.29v.855a.643.643 0 0 1 .513-.238c.128 0 .24.028.335.082.093.05.16.119.2.208.045.09.068.22.068.387v1.093h-.298v-1.093c0-.149-.033-.255-.097-.32-.06-.069-.148-.104-.267-.104a.488.488 0 0 0-.246.067.397.397 0 0 0-.163.186.936.936 0 0 0-.045.32v.944Zm0 0"/>
  <path transform="translate(-42.383 -50.43)" d="m66.232 76.946-1.047-3.142h2.142z" fill-rule="evenodd" stroke-width=".47601"/>
 </g>
 <path d="m23.849 18.564v5.428" fill="none" stroke="var(--text-color)" stroke-miterlimit="10" stroke-width=".048"/>
 <path transform="translate(-42.383 -50.43)" d="m63.614 90.226-1.047-3.189h2.094z" fill="var(--text-color)" fill-rule="evenodd" stroke-width=".47601"/>
 <g stroke="var(--text-color)" stroke-miterlimit="10">
  <path d="m21.23 31.846v5.426" fill="none" stroke-width=".048"/>
  <path d="m31.846 18.564v13.282" fill="none" stroke-dasharray="1.1169, 1.1169, 1.1169, 1.1169" stroke-linejoin="round" stroke-width=".057"/>
  <path d="M64.975 53.075H50.411V0h29.18v53.075zm0 0" fill="var(--background-color)" fill-rule="evenodd" stroke-linejoin="round" stroke-width=".057121"/>
 </g>
 <g fill="var(--text-color)">
  <path d="M53.891 4.904V2.799h-.78v-.283h1.888V2.8h-.788v2.105ZM55.1 4.904V3.178h.267v.26a.715.715 0 0 1 .178-.245.344.344 0 0 1 .194-.06c.098 0 .197.034.297.097l-.096.275a.421.421 0 0 0-.216-.067.298.298 0 0 0-.179.06.31.31 0 0 0-.104.156c-.035.104-.052.22-.052.342v.908ZM57.372 4.688c-.11.095-.214.162-.312.2-.1.034-.207.053-.32.053-.193 0-.342-.045-.446-.134a.463.463 0 0 1-.15-.357c0-.084.02-.16.06-.23a.464.464 0 0 1 .15-.172.65.65 0 0 1 .215-.096c.054-.015.141-.03.26-.045.233-.03.406-.061.52-.097V3.73c0-.12-.027-.203-.081-.253-.074-.064-.186-.097-.335-.097-.14 0-.241.026-.305.074-.065.045-.115.13-.148.253l-.283-.037a.684.684 0 0 1 .126-.298.56.56 0 0 1 .26-.17c.114-.045.246-.068.395-.068.149 0 .268.02.357.053.093.035.16.08.2.133a.532.532 0 0 1 .097.201c.01.05.015.14.015.268v.394c0 .274.004.446.015.52.015.071.04.138.075.202h-.305a.629.629 0 0 1-.06-.216zm-.022-.655c-.11.045-.268.082-.476.112-.125.02-.212.043-.26.067-.05.02-.09.05-.12.09a.255.255 0 0 0-.037.14c0 .075.03.14.09.194.06.05.145.074.26.074a.575.575 0 0 0 .297-.074.475.475 0 0 0 .201-.2.715.715 0 0 0 .045-.291ZM58.058 4.904V3.178h.26v.246a.622.622 0 0 1 .55-.29c.104 0 .197.02.283.059.09.04.156.09.2.149a.5.5 0 0 1 .09.215c.01.056.015.15.015.283v1.064h-.29v-1.05a.746.746 0 0 0-.037-.267.259.259 0 0 0-.12-.141.479.479 0 0 0-.528.067c-.089.074-.133.223-.133.446v.945Zm0 0"/>
  <path d="m59.844 4.39.29-.044c.015.115.06.204.134.268.074.06.178.089.312.089s.233-.026.298-.082a.25.25 0 0 0 .096-.193.19.19 0 0 0-.082-.157 1.486 1.486 0 0 0-.304-.096 2.608 2.608 0 0 1-.447-.142.443.443 0 0 1-.2-.61.487.487 0 0 1 .148-.163.642.642 0 0 1 .186-.09 1.012 1.012 0 0 1 .61.022.45.45 0 0 1 .223.165.635.635 0 0 1 .104.267l-.29.038a.301.301 0 0 0-.111-.209.406.406 0 0 0-.26-.074c-.135 0-.231.022-.29.067-.06.044-.09.097-.09.156 0 .035.011.07.037.104.024.03.062.056.112.075.03.01.115.035.26.074.208.056.352.1.431.134a.416.416 0 0 1 .194.156c.048.07.074.154.074.253 0 .095-.03.186-.089.275a.554.554 0 0 1-.245.2.956.956 0 0 1-.365.068c-.223 0-.394-.045-.513-.134a.632.632 0 0 1-.223-.417zM62.751 4.688c-.11.095-.214.162-.312.2-.1.034-.207.053-.32.053-.193 0-.342-.045-.446-.134a.463.463 0 0 1-.149-.357c0-.084.019-.16.06-.23a.464.464 0 0 1 .148-.172.65.65 0 0 1 .216-.096c.054-.015.141-.03.26-.045.233-.03.406-.061.52-.097V3.73c0-.12-.027-.203-.08-.253-.075-.064-.187-.097-.336-.097-.14 0-.241.026-.305.074-.065.045-.115.13-.148.253l-.283-.037a.684.684 0 0 1 .126-.298.56.56 0 0 1 .26-.17c.114-.045.246-.068.395-.068.149 0 .268.02.357.053.093.035.16.08.2.133a.532.532 0 0 1 .098.201c.009.05.014.14.014.268v.394c0 .274.004.446.015.52.015.071.04.138.075.202h-.305a.629.629 0 0 1-.06-.216zm-.022-.655c-.11.045-.268.082-.476.112-.125.02-.212.043-.26.067-.05.02-.09.05-.12.09a.255.255 0 0 0-.037.14c0 .075.03.14.09.194.06.05.145.074.26.074a.575.575 0 0 0 .297-.074.475.475 0 0 0 .201-.2.715.715 0 0 0 .045-.291Zm0 0"/>
  <path d="m64.606 4.271.29.038a.73.73 0 0 1-.245.468.712.712 0 0 1-.476.164.744.744 0 0 1-.573-.23c-.14-.153-.208-.374-.208-.663 0-.187.03-.351.09-.49a.638.638 0 0 1 .274-.313.818.818 0 0 1 .417-.112.7.7 0 0 1 .461.15.661.661 0 0 1 .23.4l-.282.046a.468.468 0 0 0-.149-.26.35.35 0 0 0-.245-.09.467.467 0 0 0-.365.156c-.089.104-.133.273-.133.506 0 .229.044.398.133.506.09.104.205.156.35.156a.394.394 0 0 0 .283-.104.539.539 0 0 0 .148-.328zM65.788 4.643l.037.26c-.08.016-.154.023-.223.023a.502.502 0 0 1-.245-.052.283.283 0 0 1-.127-.134c-.02-.054-.03-.167-.03-.342V3.4h-.215v-.223h.216v-.431l.29-.171v.602h.297v.223h-.297v1.012c0 .085.003.14.015.163a.12.12 0 0 0 .044.06c.024.011.06.015.104.015.034 0 .078-.002.134-.008zm0 0"/>
  <path d="M66.101 2.858v-.342h.29v.342zm0 2.046V3.178h.29v1.726ZM66.752 4.04c0-.32.09-.559.268-.713a.802.802 0 0 1 .543-.194c.238 0 .431.08.58.238.153.155.23.37.23.648 0 .219-.035.392-.103.52a.67.67 0 0 1-.29.298.876.876 0 0 1-.417.104.777.777 0 0 1-.588-.23c-.148-.153-.223-.376-.223-.67zm.298 0c0 .22.046.386.141.5.099.109.223.163.372.163a.451.451 0 0 0 .357-.164c.099-.113.149-.282.149-.506 0-.217-.05-.38-.149-.49a.457.457 0 0 0-.357-.164.485.485 0 0 0-.372.164c-.095.11-.141.275-.141.498ZM68.672 4.904V3.178h.26v.246a.622.622 0 0 1 .551-.29c.104 0 .197.02.283.059.09.04.156.09.2.149a.5.5 0 0 1 .09.215c.01.056.015.15.015.283v1.064h-.29v-1.05a.746.746 0 0 0-.038-.267.259.259 0 0 0-.119-.141.479.479 0 0 0-.528.067c-.089.074-.133.223-.133.446v.945Zm0 0"/>
 </g>
 <path d="m64.975 18.564h-11.945v-10.613h23.895v10.613z" fill="var(--background-color)" fill-rule="evenodd" stroke="var(--text-color)" stroke-linejoin="round" stroke-miterlimit="10" stroke-width=".057"/>
 <path d="M57.81 11.788c0-.396.103-.707.312-.93.212-.223.487-.334.825-.334.223 0 .42.052.595.156a.987.987 0 0 1 .402.439c.093.19.141.401.141.64 0 .243-.05.46-.149.654a.978.978 0 0 1-.409.431 1.217 1.217 0 0 1-.58.141c-.223 0-.424-.052-.602-.156a1.015 1.015 0 0 1-.402-.446 1.371 1.371 0 0 1-.134-.595Zm.32 0c0 .288.075.517.23.684a.783.783 0 0 0 .587.246.772.772 0 0 0 .588-.246c.152-.167.23-.405.23-.714 0-.193-.035-.36-.104-.506a.74.74 0 0 0-.29-.342.783.783 0 0 0-.424-.119.824.824 0 0 0-.58.23c-.16.155-.238.41-.238.767zM60.752 12.948l-.528-1.725h.305l.275.996.105.372c.003-.018.033-.137.089-.357l.275-1.011h.298l.26.996.09.335.096-.335.297-.996h.283l-.543 1.725h-.297l-.276-1.034-.067-.297-.35 1.331ZM62.772 12.948v-1.725h.26v.245a.622.622 0 0 1 .55-.29c.104 0 .197.02.283.06.09.04.156.089.2.148a.5.5 0 0 1 .09.216c.01.056.015.149.015.283v1.063h-.29V11.9a.746.746 0 0 0-.037-.268.259.259 0 0 0-.12-.142.479.479 0 0 0-.528.067c-.089.075-.133.224-.133.447v.944ZM65.81 12.39l.297.038a.73.73 0 0 1-.26.416.823.823 0 0 1-.499.141c-.253 0-.454-.076-.602-.23-.15-.158-.223-.376-.223-.655 0-.292.074-.517.223-.676a.769.769 0 0 1 .587-.246c.233 0 .42.08.566.238.148.16.223.38.223.662 0 .02-.004.048-.008.082h-1.286c.009.19.06.335.156.439.098.1.22.148.364.148.108 0 .201-.026.275-.081a.582.582 0 0 0 .186-.276zm-.968-.468h.967c-.015-.149-.052-.257-.111-.327a.454.454 0 0 0-.365-.171.477.477 0 0 0-.342.133.544.544 0 0 0-.149.365zM66.474 12.948v-1.725h.268v.26a.715.715 0 0 1 .179-.245.344.344 0 0 1 .193-.06c.099 0 .197.034.298.097l-.097.275a.421.421 0 0 0-.216-.067.298.298 0 0 0-.178.06.31.31 0 0 0-.104.156c-.036.104-.052.22-.052.342v.907ZM69.988 12.666v.282h-1.577a.438.438 0 0 1 .03-.2c.039-.108.104-.216.193-.32.09-.105.218-.225.387-.365.257-.208.432-.374.52-.498.094-.128.142-.247.142-.357a.387.387 0 0 0-.126-.29.466.466 0 0 0-.328-.12.453.453 0 0 0-.334.127.489.489 0 0 0-.134.35l-.298-.03c.019-.227.097-.398.23-.513.135-.12.315-.179.544-.179.227 0 .409.065.543.194.134.124.2.28.2.468 0 .095-.02.19-.059.283-.04.09-.104.186-.193.29a3.81 3.81 0 0 1-.454.416 4.233 4.233 0 0 0-.335.305.88.88 0 0 0-.126.157ZM70.385 11.409l-.074-.447v-.401h.335v.401l-.082.447zM70.886 12.435l.29-.045c.015.116.06.205.134.268.074.06.178.09.312.09s.233-.027.298-.082a.25.25 0 0 0 .096-.194.19.19 0 0 0-.081-.156 1.486 1.486 0 0 0-.305-.097 2.608 2.608 0 0 1-.447-.141.443.443 0 0 1-.2-.61.487.487 0 0 1 .148-.163.642.642 0 0 1 .186-.09 1.012 1.012 0 0 1 .61.022.45.45 0 0 1 .223.164.635.635 0 0 1 .104.268l-.29.037a.301.301 0 0 0-.111-.208.406.406 0 0 0-.26-.074c-.134 0-.231.022-.29.066-.06.045-.09.097-.09.157 0 .035.011.07.037.104.025.03.062.056.112.074.03.011.115.035.26.075.209.055.352.1.432.133a.416.416 0 0 1 .193.157c.048.07.074.154.074.252 0 .095-.03.186-.089.276a.554.554 0 0 1-.245.2.956.956 0 0 1-.365.067c-.223 0-.394-.044-.513-.133a.632.632 0 0 1-.223-.417zM57.43 16.614v-2.388h.9c.152 0 .271.007.357.022.119.02.217.058.297.112a.562.562 0 0 1 .186.23c.049.1.075.209.075.328a.752.752 0 0 1-.194.52c-.13.14-.362.209-.699.209h-.61v.967Zm.312-1.25h.618c.202 0 .345-.037.431-.112a.413.413 0 0 0 .134-.327.404.404 0 0 0-.082-.253.385.385 0 0 0-.193-.141 1.328 1.328 0 0 0-.298-.022h-.61zM60.761 16.614v-.253a.635.635 0 0 1-.55.29c-.1 0-.193-.02-.283-.06a.515.515 0 0 1-.2-.141.61.61 0 0 1-.09-.223 1.534 1.534 0 0 1-.014-.268v-1.071h.29v.96c0 .148.003.25.014.304.02.08.06.142.12.186.059.041.133.06.223.06.089 0 .17-.022.245-.067a.36.36 0 0 0 .164-.179.904.904 0 0 0 .052-.342v-.922h.29v1.726ZM61.754 16.614h-.275v-2.388h.297v.855a.57.57 0 0 1 .469-.238.71.71 0 0 1 .305.067.63.63 0 0 1 .23.186.813.813 0 0 1 .15.275c.033.11.051.227.051.35 0 .297-.074.528-.223.692a.683.683 0 0 1-.528.238.54.54 0 0 1-.476-.253zm-.008-.878c0 .208.03.357.09.446.089.154.212.23.372.23a.43.43 0 0 0 .334-.163c.093-.113.142-.279.142-.498 0-.227-.049-.394-.142-.499a.407.407 0 0 0-.32-.163.421.421 0 0 0-.334.17c-.095.11-.142.269-.142.477zM63.334 16.614v-2.388h.29v2.388ZM64.104 14.568v-.342h.29v.342zm0 2.046v-1.726h.29v1.726ZM65.94 15.981l.29.037a.73.73 0 0 1-.245.47.712.712 0 0 1-.476.163.744.744 0 0 1-.573-.23c-.14-.153-.208-.375-.208-.663 0-.188.03-.351.089-.49a.638.638 0 0 1 .275-.313.818.818 0 0 1 .417-.112.7.7 0 0 1 .46.15.661.661 0 0 1 .231.4l-.282.045a.468.468 0 0 0-.15-.26.35.35 0 0 0-.245-.09.467.467 0 0 0-.364.157c-.09.104-.134.273-.134.506 0 .228.045.398.134.506.09.104.204.156.35.156a.394.394 0 0 0 .282-.104.539.539 0 0 0 .149-.328zM67.46 16.614v-2.388h.313v1.183l1.19-1.183h.424l-.997.967 1.041 1.42h-.416l-.848-1.204-.394.379v.826ZM70.859 16.056l.297.037a.73.73 0 0 1-.26.416.823.823 0 0 1-.498.142c-.253 0-.454-.077-.603-.23-.148-.159-.223-.376-.223-.655 0-.292.075-.517.223-.677a.769.769 0 0 1 .588-.246c.232 0 .42.08.565.238.149.16.223.38.223.662 0 .02-.003.049-.007.082h-1.287c.01.19.061.335.156.439.099.1.22.149.365.149.108 0 .2-.026.275-.082a.582.582 0 0 0 .186-.275zm-.967-.469h.967c-.015-.149-.052-.256-.112-.327a.454.454 0 0 0-.364-.171.477.477 0 0 0-.342.134.544.544 0 0 0-.149.364zM71.517 17.275l-.038-.267c.064.015.121.022.171.022a.303.303 0 0 0 .157-.037.26.26 0 0 0 .096-.09 1.478 1.478 0 0 0 .112-.29l-.655-1.725h.32l.357.997c.045.13.086.264.127.401a4.81 4.81 0 0 1 .119-.394l.372-1.004h.29l-.655 1.755c-.074.188-.13.32-.164.394a.625.625 0 0 1-.185.209.412.412 0 0 1-.238.067.568.568 0 0 1-.186-.038Zm0 0" fill="var(--text-color)"/>
 <path d="m64.975 50.41h-9.282v-10.614h18.565v10.616z" fill="var(--background-color)" fill-rule="evenodd" stroke="var(--text-color)" stroke-linejoin="round" stroke-miterlimit="10" stroke-width=".057"/>
 <path d="M57.619 43.538c0-.396.104-.707.312-.93.212-.223.487-.335.826-.335.223 0 .42.053.595.157a.987.987 0 0 1 .401.438c.093.19.142.402.142.64 0 .244-.05.461-.149.655a.978.978 0 0 1-.409.431 1.217 1.217 0 0 1-.58.141c-.223 0-.424-.052-.603-.156a1.015 1.015 0 0 1-.401-.446 1.371 1.371 0 0 1-.134-.595Zm.32 0c0 .288.076.517.23.684a.783.783 0 0 0 .588.246.772.772 0 0 0 .587-.246c.153-.167.231-.405.231-.714 0-.193-.035-.36-.104-.506a.74.74 0 0 0-.29-.342.783.783 0 0 0-.424-.119.824.824 0 0 0-.58.23c-.16.155-.238.41-.238.767zM60.562 44.698l-.528-1.725h.305l.275.996.104.372.09-.357.275-1.011h.297l.26.996.09.335.096-.335.298-.996h.283l-.543 1.725h-.298l-.275-1.034-.067-.297-.35 1.331ZM62.581 44.698v-1.725h.26v.245a.622.622 0 0 1 .55-.29c.105 0 .198.02.283.06.09.04.157.089.201.148a.5.5 0 0 1 .09.216c.009.056.014.149.014.283v1.063h-.29V43.65a.746.746 0 0 0-.037-.267.259.259 0 0 0-.119-.142.479.479 0 0 0-.528.067c-.09.075-.134.223-.134.447v.944ZM65.619 44.14l.297.038a.73.73 0 0 1-.26.416.823.823 0 0 1-.498.141c-.253 0-.454-.076-.603-.23-.148-.158-.223-.376-.223-.655 0-.292.075-.517.223-.677a.769.769 0 0 1 .588-.245c.232 0 .42.08.565.238.149.16.223.38.223.662 0 .02-.003.048-.007.082h-1.287c.01.19.061.334.156.439.099.1.22.148.365.148.108 0 .2-.026.275-.081a.582.582 0 0 0 .186-.276zm-.967-.468h.967c-.015-.149-.052-.257-.112-.328a.454.454 0 0 0-.364-.17.477.477 0 0 0-.342.133.544.544 0 0 0-.149.365zM66.284 44.698v-1.725h.268v.26a.715.715 0 0 1 .178-.246.344.344 0 0 1 .194-.059c.098 0 .197.033.297.097l-.097.275a.421.421 0 0 0-.215-.067.298.298 0 0 0-.179.06.31.31 0 0 0-.104.156c-.035.104-.052.219-.052.342v.907ZM69.359 44.698h-.29v-1.867c-.075.07-.17.14-.283.209a2.246 2.246 0 0 1-.305.148v-.29c.164-.074.305-.165.424-.275.123-.108.212-.216.268-.32h.186zM70.195 43.159l-.074-.447v-.401h.334v.401l-.081.447zM70.696 44.185l.29-.045c.014.116.06.205.133.268.075.06.179.09.313.09s.232-.027.297-.082a.25.25 0 0 0 .097-.194.19.19 0 0 0-.082-.156 1.486 1.486 0 0 0-.305-.097 2.608 2.608 0 0 1-.446-.141.443.443 0 0 1-.2-.61.487.487 0 0 1 .148-.164.642.642 0 0 1 .186-.089 1.012 1.012 0 0 1 .61.022.45.45 0 0 1 .223.164.635.635 0 0 1 .104.268l-.29.037a.301.301 0 0 0-.112-.208.406.406 0 0 0-.26-.075c-.134 0-.23.023-.29.067-.06.045-.09.097-.09.157 0 .035.012.07.038.104.024.03.061.055.112.074.03.011.115.035.26.074.208.056.351.1.431.134a.416.416 0 0 1 .194.156c.048.071.074.155.074.253 0 .095-.03.186-.09.276a.554.554 0 0 1-.245.2.956.956 0 0 1-.364.067c-.223 0-.394-.044-.513-.134a.632.632 0 0 1-.223-.416zM57.89 47.597l.297-.03a.668.668 0 0 0 .097.298.588.588 0 0 0 .245.186.95.95 0 0 0 .365.067.846.846 0 0 0 .312-.052.44.44 0 0 0 .208-.141.34.34 0 0 0 .075-.209.298.298 0 0 0-.067-.193.451.451 0 0 0-.216-.141 5.582 5.582 0 0 0-.424-.12 2.425 2.425 0 0 1-.461-.148.675.675 0 0 1-.26-.223.583.583 0 0 1 .022-.632.65.65 0 0 1 .297-.238 1.16 1.16 0 0 1 .44-.082c.178 0 .334.03.468.089a.691.691 0 0 1 .312.245.71.71 0 0 1 .12.38l-.306.022a.478.478 0 0 0-.163-.342c-.095-.078-.235-.12-.417-.12-.19 0-.327.036-.416.105a.314.314 0 0 0-.134.253c0 .09.031.162.096.216.06.055.216.111.469.17.257.056.435.105.536.15.137.065.24.146.305.245.063.1.096.212.096.335 0 .13-.037.25-.111.364a.715.715 0 0 1-.313.26 1.11 1.11 0 0 1-.453.09c-.22 0-.402-.03-.55-.09a.776.776 0 0 1-.343-.282.836.836 0 0 1-.126-.432ZM60.152 46.318v-.342h.29v.342zm0 2.045v-1.725h.29v1.725ZM60.855 48.505l.29.044c.01.09.041.153.097.194a.495.495 0 0 0 .298.082.524.524 0 0 0 .312-.082.405.405 0 0 0 .149-.23 1.91 1.91 0 0 0 .022-.373.609.609 0 0 1-.476.223.67.67 0 0 1-.558-.252.997.997 0 0 1-.193-.618c0-.167.03-.321.09-.46a.76.76 0 0 1 .26-.32.692.692 0 0 1 .401-.12c.203 0 .372.086.506.253v-.208h.268v1.487c0 .272-.028.463-.082.573a.603.603 0 0 1-.26.268.928.928 0 0 1-.44.097.828.828 0 0 1-.498-.142c-.13-.089-.191-.228-.186-.416Zm.246-1.034c0 .223.044.387.134.49a.43.43 0 0 0 .342.157.428.428 0 0 0 .335-.149c.089-.104.133-.268.133-.49 0-.213-.048-.373-.14-.477a.419.419 0 0 0-.336-.163.43.43 0 0 0-.334.163c-.09.104-.134.26-.134.469zM62.77 48.363v-1.725h.26v.245a.622.622 0 0 1 .55-.29c.105 0 .198.02.283.06.09.04.157.089.201.149a.5.5 0 0 1 .09.215c.009.056.014.149.014.283v1.063h-.29v-1.048a.746.746 0 0 0-.037-.268.259.259 0 0 0-.119-.141.479.479 0 0 0-.528.067c-.09.074-.134.223-.134.446v.944ZM65.748 48.148c-.11.095-.213.161-.312.2-.1.034-.206.053-.32.053-.193 0-.342-.045-.446-.134a.463.463 0 0 1-.149-.357c0-.084.019-.16.06-.23a.464.464 0 0 1 .148-.172.65.65 0 0 1 .216-.097c.054-.014.141-.03.26-.044.233-.03.406-.062.521-.097v-.082c0-.119-.028-.202-.082-.253-.074-.063-.186-.096-.334-.096-.14 0-.242.026-.305.074-.065.045-.116.13-.15.253l-.282-.037a.684.684 0 0 1 .127-.298.56.56 0 0 1 .26-.17c.113-.045.245-.068.394-.068.149 0 .268.019.357.052.093.036.16.08.201.134a.532.532 0 0 1 .097.201c.009.05.015.14.015.268v.394c0 .273.003.446.014.52.015.071.04.138.075.201h-.305a.629.629 0 0 1-.06-.215zm-.022-.655c-.11.045-.268.082-.476.112-.125.02-.212.043-.26.067-.05.02-.09.05-.12.089a.255.255 0 0 0-.036.141c0 .075.03.14.089.194.06.05.145.074.26.074a.575.575 0 0 0 .298-.074.475.475 0 0 0 .2-.201.715.715 0 0 0 .045-.29ZM67.12 48.103l.037.26c-.08.015-.154.023-.223.023a.502.502 0 0 1-.245-.052.283.283 0 0 1-.127-.134c-.02-.054-.03-.168-.03-.342v-.997h-.215v-.223h.216v-.432l.29-.17v.602h.297v.223h-.297v1.012c0 .085.003.139.015.163a.12.12 0 0 0 .044.06c.024.01.06.015.104.015.034 0 .078-.002.134-.008zM68.564 48.363v-.252a.635.635 0 0 1-.55.29c-.101 0-.194-.02-.283-.06a.515.515 0 0 1-.201-.141.61.61 0 0 1-.09-.223 1.534 1.534 0 0 1-.014-.268v-1.071h.29v.96c0 .148.003.25.015.304.018.08.06.142.119.186.06.041.133.06.223.06.089 0 .17-.023.245-.067a.36.36 0 0 0 .164-.179.904.904 0 0 0 .052-.342v-.922h.29v1.725ZM69.28 48.363v-1.725h.269v.26a.715.715 0 0 1 .178-.245.344.344 0 0 1 .193-.06c.099 0 .198.034.298.097l-.097.275a.421.421 0 0 0-.215-.067.298.298 0 0 0-.179.06.31.31 0 0 0-.104.156c-.035.104-.052.22-.052.342v.907ZM71.567 47.806l.297.037a.73.73 0 0 1-.26.416.823.823 0 0 1-.499.142c-.252 0-.453-.077-.602-.231-.149-.158-.223-.376-.223-.654 0-.292.074-.517.223-.677a.769.769 0 0 1 .588-.246c.232 0 .42.08.565.238.149.16.223.38.223.662 0 .02-.004.049-.007.082h-1.287c.01.19.061.335.156.439.099.1.22.149.364.149.108 0 .201-.026.276-.082a.582.582 0 0 0 .186-.275zm-.967-.469h.967c-.015-.149-.052-.257-.112-.327a.454.454 0 0 0-.364-.171.477.477 0 0 0-.343.134.544.544 0 0 0-.148.364zm0 0" fill="var(--text-color)"/>
 <path d="m63.644 31.846h-5.284v-5.33h10.615v5.33z" fill="var(--background-color)" fill-rule="evenodd" stroke="var(--text-color)" stroke-linejoin="round" stroke-miterlimit="10" stroke-width=".057"/>
 <g fill="var(--text-color)">
  <path d="M59.96 30.608v-2.387h.313v.982h1.242v-.982h.312v2.387h-.312v-1.123h-1.242v1.123ZM63.42 30.393c-.11.094-.214.161-.312.2-.1.034-.207.052-.32.052-.193 0-.342-.044-.446-.133a.463.463 0 0 1-.15-.357c0-.084.02-.16.06-.231a.464.464 0 0 1 .15-.171.65.65 0 0 1 .215-.097c.054-.015.141-.03.26-.044.233-.03.406-.062.52-.097v-.082c0-.119-.027-.203-.081-.253-.074-.063-.186-.096-.335-.096-.14 0-.241.026-.305.074-.065.045-.115.13-.148.253l-.283-.037a.684.684 0 0 1 .126-.298.56.56 0 0 1 .26-.171c.114-.045.246-.067.395-.067.149 0 .268.019.357.052.093.035.16.08.2.134a.532.532 0 0 1 .097.2c.01.051.015.14.015.269v.394c0 .273.004.446.015.52.015.071.04.138.075.201h-.305a.629.629 0 0 1-.06-.215zm-.022-.655c-.11.045-.268.082-.476.112-.125.02-.212.042-.26.067-.05.02-.09.05-.12.089a.255.255 0 0 0-.037.141c0 .074.03.14.09.193.059.05.145.075.26.075a.575.575 0 0 0 .297-.075.475.475 0 0 0 .201-.2.715.715 0 0 0 .045-.29Zm0 0"/>
  <path d="m64.033 30.095.29-.045c.015.116.06.205.134.268.075.06.179.09.313.09.133 0 .232-.027.297-.082a.25.25 0 0 0 .097-.194.19.19 0 0 0-.082-.156 1.486 1.486 0 0 0-.305-.097 2.608 2.608 0 0 1-.446-.141.443.443 0 0 1-.201-.61.487.487 0 0 1 .149-.163.642.642 0 0 1 .186-.09 1.012 1.012 0 0 1 .61.022.45.45 0 0 1 .223.164.635.635 0 0 1 .104.268l-.29.037a.301.301 0 0 0-.112-.208.406.406 0 0 0-.26-.074c-.134 0-.23.022-.29.066-.06.045-.09.097-.09.157 0 .035.012.07.038.104.024.03.061.056.111.074.03.011.116.035.26.075.209.055.352.1.432.133a.416.416 0 0 1 .193.157c.049.07.075.154.075.252 0 .095-.03.186-.09.276a.554.554 0 0 1-.245.2.956.956 0 0 1-.364.067c-.224 0-.395-.044-.514-.133a.632.632 0 0 1-.223-.417zM65.818 30.608v-2.387h.29v.855a.643.643 0 0 1 .513-.238c.128 0 .24.028.335.082.092.05.16.119.2.208.045.09.067.22.067.387v1.093h-.297v-1.093c0-.149-.034-.255-.097-.32-.06-.069-.149-.104-.268-.104a.488.488 0 0 0-.245.067.397.397 0 0 0-.164.186.936.936 0 0 0-.044.32v.944Zm0 0"/>
  <path transform="translate(-42.383 -50.43)" d="m108.69 76.946-1.047-3.142h2.093z" fill-rule="evenodd" stroke-width=".47601"/>
 </g>
 <path d="m66.309 18.564v5.428" fill="none" stroke="var(--text-color)" stroke-miterlimit="10" stroke-width=".048"/>
 <path transform="translate(-42.383 -50.43)" d="m106.03 90.226-1.049-3.189h2.142z" fill="var(--text-color)" fill-rule="evenodd" stroke-width=".47601"/>
 <path d="m63.644 31.846v5.426" fill="none" stroke="var(--text-color)" stroke-miterlimit="10" stroke-width=".048"/>
 <path transform="translate(-42.383 -50.43)" d="m98.076 92.892-3.332-0.334 0.857-1.904z" fill="var(--text-color)" fill-rule="evenodd" stroke-width=".47601"/>
 <path d="m31.846 31.846.476.238M32.798 32.274l.476.238M33.75 32.703l.523.238M34.749 33.131l.476.238M35.7 33.559l.525.238M36.701 33.988l.476.238M37.653 34.464l.525.19M38.654 34.892l.476.191M39.606 35.321l.476.19M40.604 35.75l.476.189M41.556 36.177l.476.191M42.508 36.606l.524.19M43.508 37.034l.476.238M44.46 37.464l.523.238M45.459 37.891l.476.238M46.411 38.319l.524.238M47.411 38.748l.476.238M48.363 39.176l.476.238M49.364 39.652l.476.192M50.316 40.082l.476.19M51.314 40.51l.476.189M52.266 40.937l.476.191M53.267 41.366l.095.047" fill="none" stroke="var(--text-color)" stroke-miterlimit="10" stroke-width=".048"/>
 <path d="m40.698 37.318.127-2.55.312.133-.134 1.837c-.015.145-.033.28-.052.41.093-.105.188-.207.283-.306l1.286-1.323.298.133-1.822 1.8ZM43.18 37.808l.253.156a.688.688 0 0 1-.402.268c-.154.04-.325.017-.513-.067-.235-.1-.387-.25-.461-.453-.071-.209-.049-.44.067-.692.119-.268.277-.443.476-.528a.746.746 0 0 1 .632.015.745.745 0 0 1 .424.453c.069.205.046.436-.067.692a.204.204 0 0 1-.037.067l-1.176-.52c-.065.178-.074.334-.03.468a.47.47 0 0 0 .268.275.47.47 0 0 0 .29.037.56.56 0 0 0 .276-.17Zm-.692-.818.885.394c.045-.148.054-.264.03-.35a.453.453 0 0 0-.268-.297.468.468 0 0 0-.364-.015.5.5 0 0 0-.283.268zM43.567 38.59l.699-1.577.238.104-.104.238a.761.761 0 0 1 .26-.149.312.312 0 0 1 .201.023c.09.04.167.11.238.208l-.2.216a.387.387 0 0 0-.172-.15.303.303 0 0 0-.186-.014.285.285 0 0 0-.156.09c-.074.088-.14.189-.193.297l-.365.833zM45.394 37.167l.142-.313.267.12-.141.312zm-.825 1.867.699-1.577.268.119-.7 1.577zM45.333 39.372l.61-1.376-.238-.104.089-.2.238.104.074-.171c.045-.105.086-.18.127-.231a.418.418 0 0 1 .208-.104.534.534 0 0 1 .305.06c.078.035.158.081.238.14l-.134.209a1.033 1.033 0 0 0-.163-.082c-.08-.033-.145-.04-.194-.022-.05.02-.095.078-.134.17l-.067.15.305.133-.089.201-.305-.134-.61 1.376ZM45.862 40.324l.074-.26a.548.548 0 0 0 .141.096c.06.024.112.033.157.03a.278.278 0 0 0 .126-.045.996.996 0 0 0 .171-.164c.01-.01.026-.03.052-.06l.097-1.836.297.126-.074 1.056c-.015.134-.034.276-.052.424.09-.113.178-.22.268-.32l.743-.766.268.12-1.309 1.338a15.14 15.14 0 0 0-.305.298.704.704 0 0 1-.253.111.428.428 0 0 1-.253-.037.433.433 0 0 1-.148-.111Zm0 0" fill="var(--text-color)"/>
 <path d="m74.258 18.564v13.282" fill="none" stroke="var(--text-color)" stroke-dasharray="1.1169, 1.1169, 1.1169, 1.1169" stroke-linejoin="round" stroke-miterlimit="10" stroke-width=".057"/>
 <path d="M107.437 53.075H92.822V0h29.18v53.075zm0 0" fill="var(--background-color)" fill-rule="evenodd" stroke="var(--text-color)" stroke-linejoin="round" stroke-miterlimit="10" stroke-width=".057121"/>
 <g fill="var(--text-color)">
  <path d="M96.16 4.904V2.799h-.78v-.283h1.89V2.8h-.79v2.105ZM97.369 4.904V3.178h.268v.26a.715.715 0 0 1 .178-.245.344.344 0 0 1 .194-.06c.098 0 .197.034.297.097l-.097.275a.421.421 0 0 0-.215-.067.298.298 0 0 0-.179.06.31.31 0 0 0-.104.156c-.035.104-.052.22-.052.342v.908ZM99.642 4.688c-.11.095-.214.162-.312.2-.1.034-.207.053-.32.053-.194 0-.342-.045-.447-.134a.463.463 0 0 1-.148-.357c0-.084.018-.16.06-.23a.464.464 0 0 1 .148-.172.65.65 0 0 1 .216-.096c.054-.015.14-.03.26-.045.232-.03.405-.061.52-.097V3.73c0-.12-.027-.203-.081-.253-.075-.064-.186-.097-.335-.097-.14 0-.242.026-.305.074-.065.045-.115.13-.149.253l-.282-.037a.684.684 0 0 1 .126-.298.56.56 0 0 1 .26-.17c.114-.045.246-.068.395-.068.148 0 .267.02.357.053.093.035.16.08.2.133a.532.532 0 0 1 .097.201c.01.05.015.14.015.268v.394c0 .274.004.446.015.52.015.071.039.138.074.202h-.305a.629.629 0 0 1-.06-.216zm-.022-.655c-.11.045-.268.082-.476.112-.125.02-.212.043-.26.067-.051.02-.09.05-.12.09a.255.255 0 0 0-.037.14c0 .075.03.14.09.194.059.05.144.074.26.074a.575.575 0 0 0 .297-.074.475.475 0 0 0 .2-.2.715.715 0 0 0 .046-.291ZM100.327 4.904V3.178h.26v.246a.622.622 0 0 1 .551-.29c.104 0 .197.02.283.059.089.04.156.09.2.149a.5.5 0 0 1 .09.215c.01.056.015.15.015.283v1.064h-.29v-1.05a.746.746 0 0 0-.038-.267.259.259 0 0 0-.119-.141.479.479 0 0 0-.528.067c-.089.074-.134.223-.134.446v.945ZM102.064 4.39l.29-.044c.014.115.06.204.133.268.075.06.179.089.313.089s.232-.026.297-.082a.25.25 0 0 0 .097-.193.19.19 0 0 0-.082-.157 1.486 1.486 0 0 0-.305-.096 2.608 2.608 0 0 1-.446-.142.443.443 0 0 1-.2-.61.487.487 0 0 1 .148-.163.642.642 0 0 1 .186-.09 1.012 1.012 0 0 1 .61.022.45.45 0 0 1 .223.165.635.635 0 0 1 .104.267l-.29.038a.301.301 0 0 0-.112-.209.406.406 0 0 0-.26-.074c-.134 0-.23.022-.29.067-.06.044-.09.097-.09.156 0 .035.012.07.038.104.024.03.061.056.112.075.03.01.115.035.26.074.208.056.351.1.431.134a.416.416 0 0 1 .194.156c.048.07.074.154.074.253 0 .095-.03.186-.09.275a.554.554 0 0 1-.245.2.956.956 0 0 1-.364.068c-.223 0-.394-.045-.513-.134a.632.632 0 0 1-.223-.417zM105.02 4.688c-.109.095-.213.162-.311.2-.1.034-.207.053-.32.053-.194 0-.342-.045-.447-.134a.463.463 0 0 1-.148-.357c0-.084.018-.16.06-.23a.464.464 0 0 1 .148-.172.65.65 0 0 1 .216-.096c.054-.015.141-.03.26-.045.232-.03.405-.061.52-.097V3.73c0-.12-.027-.203-.081-.253-.075-.064-.186-.097-.335-.097-.14 0-.242.026-.305.074-.065.045-.115.13-.149.253l-.282-.037a.684.684 0 0 1 .126-.298.56.56 0 0 1 .26-.17c.114-.045.246-.068.395-.068.148 0 .267.02.357.053.093.035.16.08.2.133a.532.532 0 0 1 .097.201c.01.05.015.14.015.268v.394c0 .274.004.446.015.52.015.071.039.138.074.202h-.305a.629.629 0 0 1-.06-.216zM105 4.033c-.11.045-.268.082-.476.112-.125.02-.212.043-.26.067-.05.02-.09.05-.12.09a.255.255 0 0 0-.037.14c0 .075.03.14.09.194.059.05.144.074.26.074a.575.575 0 0 0 .297-.074.475.475 0 0 0 .201-.2.715.715 0 0 0 .045-.291Zm0 0"/>
  <path d="m106.876 4.271.29.038a.73.73 0 0 1-.245.468.712.712 0 0 1-.476.164.744.744 0 0 1-.573-.23c-.14-.153-.208-.374-.208-.663 0-.187.03-.351.089-.49a.638.638 0 0 1 .275-.313.818.818 0 0 1 .417-.112.7.7 0 0 1 .46.15.661.661 0 0 1 .231.4l-.282.046a.468.468 0 0 0-.149-.26.35.35 0 0 0-.245-.09.467.467 0 0 0-.365.156c-.09.104-.134.273-.134.506 0 .229.045.398.134.506.09.104.205.156.35.156a.394.394 0 0 0 .282-.104.539.539 0 0 0 .15-.328zM108.058 4.643l.037.26c-.08.016-.154.023-.223.023a.502.502 0 0 1-.245-.052.283.283 0 0 1-.127-.134c-.02-.054-.03-.167-.03-.342V3.4h-.215v-.223h.215v-.431l.29-.171v.602h.298v.223h-.297v1.012c0 .085.003.14.014.163a.12.12 0 0 0 .045.06c.024.011.06.015.104.015.034 0 .078-.002.134-.008zm0 0"/>
  <path d="M108.37 2.858v-.342h.291v.342zm0 2.046V3.178h.291v1.726ZM108.972 4.04c0-.32.09-.559.268-.713a.802.802 0 0 1 .543-.194c.238 0 .431.08.58.238.152.155.23.37.23.648 0 .219-.035.392-.104.52a.67.67 0 0 1-.29.298.876.876 0 0 1-.416.104.777.777 0 0 1-.588-.23c-.148-.153-.223-.376-.223-.67zm.298 0c0 .22.046.386.141.5.099.109.223.163.372.163a.451.451 0 0 0 .357-.164c.098-.113.149-.282.149-.506 0-.217-.05-.38-.15-.49a.457.457 0 0 0-.356-.164.485.485 0 0 0-.372.164c-.095.11-.141.275-.141.498ZM110.939 4.904V3.178h.26v.246a.622.622 0 0 1 .55-.29c.105 0 .198.02.283.059.09.04.156.09.201.149a.5.5 0 0 1 .09.215c.009.056.014.15.014.283v1.064h-.29v-1.05a.746.746 0 0 0-.037-.267.259.259 0 0 0-.12-.141.479.479 0 0 0-.528.067c-.088.074-.133.223-.133.446v.945Zm0 0"/>
 </g>
 <path d="m107.44 18.564h-11.949v-10.613h23.85v10.613z" fill="var(--background-color)" fill-rule="evenodd" stroke="var(--text-color)" stroke-linejoin="round" stroke-miterlimit="10" stroke-width=".057"/>
 <path d="M100.079 11.788c0-.396.104-.707.312-.93.212-.223.488-.334.826-.334.223 0 .42.052.595.156a.987.987 0 0 1 .402.439c.093.19.14.401.14.64 0 .243-.05.46-.148.654a.978.978 0 0 1-.409.431 1.217 1.217 0 0 1-.58.141c-.223 0-.424-.052-.602-.156a1.015 1.015 0 0 1-.402-.446 1.371 1.371 0 0 1-.134-.595Zm.32 0c0 .288.076.517.23.684a.783.783 0 0 0 .588.246.772.772 0 0 0 .588-.246c.152-.167.23-.405.23-.714 0-.193-.035-.36-.104-.506a.74.74 0 0 0-.29-.342.783.783 0 0 0-.424-.119.824.824 0 0 0-.58.23c-.16.155-.238.41-.238.767zM103.022 12.948l-.528-1.725h.305l.275.996.104.372.09-.357.275-1.011h.297l.26.996.09.335.097-.335.297-.996h.283l-.543 1.725h-.298l-.275-1.034-.067-.297-.35 1.331ZM105.041 12.948v-1.725h.26v.245a.622.622 0 0 1 .551-.29c.104 0 .197.02.283.06.089.04.156.089.2.148a.5.5 0 0 1 .09.216c.009.056.015.149.015.283v1.063h-.29V11.9a.746.746 0 0 0-.038-.268.259.259 0 0 0-.119-.142.479.479 0 0 0-.528.067c-.09.075-.134.224-.134.447v.944ZM108.079 12.39l.298.038a.73.73 0 0 1-.26.416.823.823 0 0 1-.5.141c-.252 0-.453-.076-.602-.23-.148-.158-.223-.376-.223-.655 0-.292.075-.517.223-.676a.769.769 0 0 1 .588-.246c.232 0 .42.08.565.238.149.16.223.38.223.662 0 .02-.003.048-.007.082h-1.287c.01.19.062.335.156.439.099.1.22.148.365.148.108 0 .2-.026.275-.081a.582.582 0 0 0 .186-.276zm-.967-.468h.967c-.015-.149-.052-.257-.112-.327a.454.454 0 0 0-.364-.171.477.477 0 0 0-.342.133.544.544 0 0 0-.149.365zM108.744 12.948v-1.725h.268v.26a.715.715 0 0 1 .178-.245.344.344 0 0 1 .194-.06c.098 0 .197.034.297.097l-.096.275a.421.421 0 0 0-.216-.067.298.298 0 0 0-.179.06.31.31 0 0 0-.104.156c-.035.104-.052.22-.052.342v.907ZM110.718 12.316l.29-.037c.034.17.091.29.171.364.084.07.183.104.298.104a.485.485 0 0 0 .49-.498.432.432 0 0 0-.133-.327.443.443 0 0 0-.335-.134 1.01 1.01 0 0 0-.208.03l.037-.253h.045a.602.602 0 0 0 .334-.097c.105-.063.157-.165.157-.305a.343.343 0 0 0-.112-.26.384.384 0 0 0-.283-.112.381.381 0 0 0-.282.112.555.555 0 0 0-.149.32l-.29-.052a.753.753 0 0 1 .238-.454.715.715 0 0 1 .476-.164c.128 0 .247.03.357.09a.586.586 0 0 1 .342.528.513.513 0 0 1-.327.483.58.58 0 0 1 .327.208.6.6 0 0 1 .12.38.723.723 0 0 1-.231.535.786.786 0 0 1-.573.216.748.748 0 0 1-.52-.186.737.737 0 0 1-.239-.491zM112.655 11.409l-.074-.447v-.401h.334v.401l-.081.447zM113.156 12.435l.29-.045c.015.116.06.205.134.268.074.06.178.09.312.09s.232-.027.298-.082a.25.25 0 0 0 .096-.194.19.19 0 0 0-.082-.156 1.486 1.486 0 0 0-.305-.097 2.608 2.608 0 0 1-.446-.141.443.443 0 0 1-.2-.61.487.487 0 0 1 .148-.163.642.642 0 0 1 .186-.09 1.012 1.012 0 0 1 .61.022.45.45 0 0 1 .223.164.635.635 0 0 1 .104.268l-.29.037a.301.301 0 0 0-.111-.208.406.406 0 0 0-.26-.074c-.135 0-.231.022-.29.066-.06.045-.09.097-.09.157 0 .035.011.07.037.104.024.03.061.056.112.074.03.011.115.035.26.075.208.055.351.1.431.133a.416.416 0 0 1 .194.157c.048.07.074.154.074.252 0 .095-.03.186-.09.276a.554.554 0 0 1-.245.2.956.956 0 0 1-.364.067c-.223 0-.394-.044-.513-.133a.632.632 0 0 1-.223-.417zM99.7 16.614v-2.388h.9c.152 0 .271.007.357.022.119.02.217.058.297.112a.562.562 0 0 1 .186.23c.048.1.074.209.074.328a.752.752 0 0 1-.193.52c-.13.14-.363.209-.7.209h-.609v.967Zm.312-1.25h.617c.203 0 .346-.037.432-.112a.413.413 0 0 0 .134-.327.404.404 0 0 0-.082-.253.385.385 0 0 0-.194-.141 1.328 1.328 0 0 0-.297-.022h-.61zM103.031 16.614v-.253a.635.635 0 0 1-.55.29c-.1 0-.194-.02-.283-.06a.515.515 0 0 1-.2-.141.61.61 0 0 1-.09-.223 1.534 1.534 0 0 1-.015-.268v-1.071h.29v.96c0 .148.004.25.015.304.019.08.06.142.12.186.059.041.133.06.222.06.09 0 .171-.022.246-.067a.36.36 0 0 0 .163-.179.904.904 0 0 0 .052-.342v-.922h.29v1.726ZM104.024 16.614h-.276v-2.388h.298v.855a.57.57 0 0 1 .469-.238.71.71 0 0 1 .304.067.63.63 0 0 1 .231.186.813.813 0 0 1 .149.275c.033.11.052.227.052.35 0 .297-.075.528-.223.692a.683.683 0 0 1-.528.238.54.54 0 0 1-.476-.253zm-.008-.878c0 .208.03.357.09.446.089.154.211.23.371.23a.43.43 0 0 0 .335-.163c.093-.113.141-.279.141-.498 0-.227-.048-.394-.141-.499a.407.407 0 0 0-.32-.163.421.421 0 0 0-.334.17c-.095.11-.142.269-.142.477zM105.604 16.614v-2.388h.29v2.388ZM106.374 14.568v-.342h.29v.342zm0 2.046v-1.726h.29v1.726ZM108.21 15.981l.29.037a.73.73 0 0 1-.246.47.712.712 0 0 1-.476.163.744.744 0 0 1-.572-.23c-.14-.153-.209-.375-.209-.663 0-.188.03-.351.09-.49a.638.638 0 0 1 .275-.313.818.818 0 0 1 .416-.112.7.7 0 0 1 .461.15.661.661 0 0 1 .231.4l-.283.045a.468.468 0 0 0-.148-.26.35.35 0 0 0-.246-.09.467.467 0 0 0-.364.157c-.09.104-.134.273-.134.506 0 .228.044.398.134.506.089.104.204.156.35.156a.394.394 0 0 0 .282-.104.539.539 0 0 0 .149-.328zM109.73 16.614v-2.388h.313v1.183l1.19-1.183h.423l-.996.967 1.041 1.42h-.416l-.848-1.204-.394.379v.826ZM113.129 16.056l.297.037a.73.73 0 0 1-.26.416.823.823 0 0 1-.499.142c-.252 0-.453-.077-.602-.23-.149-.159-.223-.376-.223-.655 0-.292.074-.517.223-.677a.769.769 0 0 1 .588-.246c.232 0 .42.08.565.238.149.16.223.38.223.662 0 .02-.004.049-.007.082h-1.287c.01.19.061.335.156.439.099.1.22.149.364.149.108 0 .201-.026.276-.082a.582.582 0 0 0 .186-.275zm-.967-.469h.967c-.015-.149-.052-.256-.112-.327a.454.454 0 0 0-.364-.171.477.477 0 0 0-.343.134.544.544 0 0 0-.148.364zM113.786 17.275l-.037-.267c.063.015.121.022.171.022a.303.303 0 0 0 .156-.037.26.26 0 0 0 .097-.09 1.478 1.478 0 0 0 .112-.29l-.655-1.725h.32l.357.997c.045.13.086.264.126.401a4.81 4.81 0 0 1 .12-.394l.371-1.004h.29l-.654 1.755c-.075.188-.13.32-.164.394a.625.625 0 0 1-.186.209.412.412 0 0 1-.238.067.568.568 0 0 1-.186-.038Zm0 0" fill="var(--text-color)"/>
 <path d="m107.44 50.41h-9.282v-10.614h18.564v10.616z" fill="var(--background-color)" fill-rule="evenodd" stroke="var(--text-color)" stroke-linejoin="round" stroke-miterlimit="10" stroke-width=".057"/>
 <path d="M100.174 43.538c0-.396.104-.707.313-.93.212-.223.487-.335.825-.335.223 0 .42.053.595.157a.987.987 0 0 1 .402.438c.093.19.141.402.141.64 0 .244-.05.461-.149.655a.978.978 0 0 1-.409.431 1.217 1.217 0 0 1-.58.141c-.223 0-.424-.052-.602-.156a1.015 1.015 0 0 1-.402-.446 1.371 1.371 0 0 1-.134-.595Zm.32 0c0 .288.076.517.23.684a.783.783 0 0 0 .588.246.772.772 0 0 0 .588-.246c.152-.167.23-.405.23-.714 0-.193-.035-.36-.104-.506a.74.74 0 0 0-.29-.342.783.783 0 0 0-.424-.119.824.824 0 0 0-.58.23c-.16.155-.238.41-.238.767zM103.117 44.698l-.528-1.725h.305l.275.996.105.372c.003-.018.033-.137.089-.357l.275-1.011h.298l.26.996.09.335.096-.335.297-.996h.283l-.543 1.725h-.298l-.275-1.034-.067-.297-.35 1.331ZM105.136 44.698v-1.725h.26v.245a.622.622 0 0 1 .551-.29c.104 0 .197.02.283.06.089.04.156.089.2.148a.5.5 0 0 1 .09.216c.01.056.015.149.015.283v1.063h-.29V43.65a.746.746 0 0 0-.038-.267.259.259 0 0 0-.119-.142.479.479 0 0 0-.528.067c-.089.075-.133.223-.133.447v.944ZM108.174 44.14l.298.038a.73.73 0 0 1-.26.416.823.823 0 0 1-.499.141c-.253 0-.454-.076-.602-.23-.15-.158-.223-.376-.223-.655 0-.292.074-.517.223-.677a.769.769 0 0 1 .587-.245c.233 0 .42.08.565.238.15.16.224.38.224.662 0 .02-.004.048-.008.082h-1.287c.01.19.062.334.157.439.098.1.22.148.364.148.108 0 .2-.026.275-.081a.582.582 0 0 0 .186-.276zm-.967-.468h.967c-.015-.149-.052-.257-.111-.328a.454.454 0 0 0-.365-.17.477.477 0 0 0-.342.133.544.544 0 0 0-.149.365zM108.84 44.698v-1.725h.267v.26a.715.715 0 0 1 .179-.246.344.344 0 0 1 .193-.059c.099 0 .197.033.298.097l-.097.275a.421.421 0 0 0-.216-.067.298.298 0 0 0-.178.06.31.31 0 0 0-.104.156c-.036.104-.053.219-.053.342v.907ZM112.353 44.416v.282h-1.577a.438.438 0 0 1 .03-.2c.039-.109.104-.216.193-.32.09-.105.218-.225.387-.365.257-.208.431-.374.52-.498.094-.129.142-.248.142-.357a.387.387 0 0 0-.126-.29.466.466 0 0 0-.328-.12.453.453 0 0 0-.334.127.489.489 0 0 0-.134.35l-.298-.03c.019-.227.097-.398.23-.513.135-.12.315-.179.544-.179.227 0 .409.065.543.194.134.124.2.28.2.468 0 .095-.02.19-.059.283-.04.089-.104.186-.193.29a3.81 3.81 0 0 1-.454.416 4.233 4.233 0 0 0-.335.305.88.88 0 0 0-.126.157ZM112.75 43.159l-.074-.447v-.401h.335v.401l-.082.447zM113.25 44.185l.291-.045c.015.116.06.205.134.268.074.06.178.09.312.09s.233-.027.298-.082a.25.25 0 0 0 .096-.194.19.19 0 0 0-.081-.156 1.486 1.486 0 0 0-.305-.097 2.608 2.608 0 0 1-.447-.141.443.443 0 0 1-.2-.61.487.487 0 0 1 .148-.164.642.642 0 0 1 .186-.089 1.012 1.012 0 0 1 .61.022.45.45 0 0 1 .223.164.635.635 0 0 1 .104.268l-.29.037a.301.301 0 0 0-.111-.208.406.406 0 0 0-.26-.075c-.134 0-.231.023-.29.067-.06.045-.09.097-.09.157 0 .035.011.07.037.104.025.03.062.055.112.074.03.011.115.035.26.074.208.056.352.1.432.134a.416.416 0 0 1 .193.156c.048.071.074.155.074.253 0 .095-.03.186-.089.276a.554.554 0 0 1-.245.2.956.956 0 0 1-.365.067c-.223 0-.394-.044-.513-.134a.632.632 0 0 1-.223-.416zM100.445 47.597l.297-.03a.668.668 0 0 0 .097.298.588.588 0 0 0 .246.186.95.95 0 0 0 .364.067.846.846 0 0 0 .312-.052.44.44 0 0 0 .209-.141.34.34 0 0 0 .074-.209.298.298 0 0 0-.067-.193.451.451 0 0 0-.216-.141 5.582 5.582 0 0 0-.424-.12 2.425 2.425 0 0 1-.46-.148.675.675 0 0 1-.261-.223.583.583 0 0 1 .022-.632.65.65 0 0 1 .298-.238 1.16 1.16 0 0 1 .439-.082c.178 0 .334.03.468.089a.691.691 0 0 1 .313.245.71.71 0 0 1 .119.38l-.305.022a.478.478 0 0 0-.164-.342c-.095-.078-.234-.12-.416-.12-.19 0-.328.036-.417.105a.314.314 0 0 0-.134.253c0 .09.032.162.097.216.06.055.216.111.468.17.257.056.435.105.536.15.138.065.24.146.305.245.063.1.097.212.097.335 0 .13-.038.25-.112.364a.715.715 0 0 1-.312.26 1.11 1.11 0 0 1-.454.09c-.22 0-.402-.03-.55-.09a.776.776 0 0 1-.343-.282.836.836 0 0 1-.126-.432ZM102.708 46.318v-.342h.29v.342zm0 2.045v-1.725h.29v1.725ZM103.41 48.505l.29.044c.01.09.042.153.098.194a.495.495 0 0 0 .297.082.524.524 0 0 0 .312-.082.405.405 0 0 0 .15-.23 1.91 1.91 0 0 0 .022-.373.609.609 0 0 1-.477.223.67.67 0 0 1-.557-.252.997.997 0 0 1-.194-.618c0-.167.03-.321.09-.46a.76.76 0 0 1 .26-.32.692.692 0 0 1 .401-.12c.203 0 .372.086.506.253v-.208h.268v1.487c0 .272-.028.463-.082.573a.603.603 0 0 1-.26.268.928.928 0 0 1-.439.097.828.828 0 0 1-.498-.142c-.13-.089-.192-.228-.186-.416Zm.246-1.034c0 .223.045.387.134.49a.43.43 0 0 0 .342.157.428.428 0 0 0 .335-.149c.09-.104.134-.268.134-.49 0-.213-.049-.373-.141-.477a.419.419 0 0 0-.335-.163.43.43 0 0 0-.335.163c-.09.104-.134.26-.134.469zM105.325 48.363v-1.725h.26v.245a.622.622 0 0 1 .551-.29c.104 0 .197.02.283.06.09.04.156.089.2.149a.5.5 0 0 1 .09.215c.01.056.015.149.015.283v1.063h-.29v-1.048a.746.746 0 0 0-.038-.268.259.259 0 0 0-.119-.141.479.479 0 0 0-.528.067c-.089.074-.133.223-.133.446v.944ZM108.304 48.148c-.11.095-.214.161-.313.2-.1.034-.206.053-.32.053-.193 0-.342-.045-.446-.134a.463.463 0 0 1-.148-.357c0-.084.018-.16.059-.23a.464.464 0 0 1 .149-.172.65.65 0 0 1 .215-.097c.054-.014.142-.03.26-.044.233-.03.406-.062.521-.097v-.082c0-.119-.027-.202-.081-.253-.075-.063-.186-.096-.335-.096-.14 0-.242.026-.305.074-.065.045-.115.13-.149.253l-.282-.037a.684.684 0 0 1 .126-.298.56.56 0 0 1 .26-.17c.114-.045.246-.068.395-.068.148 0 .267.019.357.052.093.036.16.08.2.134a.532.532 0 0 1 .097.201c.01.05.015.14.015.268v.394c0 .273.004.446.015.52.015.071.039.138.074.201h-.305a.629.629 0 0 1-.06-.215zm-.023-.655c-.11.045-.267.082-.476.112-.124.02-.212.043-.26.067-.05.02-.09.05-.119.089a.255.255 0 0 0-.037.141c0 .075.03.14.09.194.059.05.144.074.26.074a.575.575 0 0 0 .297-.074.475.475 0 0 0 .2-.201.715.715 0 0 0 .045-.29ZM109.675 48.103l.038.26c-.08.015-.155.023-.223.023a.502.502 0 0 1-.246-.052.283.283 0 0 1-.126-.134c-.02-.054-.03-.168-.03-.342v-.997h-.216v-.223h.216v-.432l.29-.17v.602h.297v.223h-.297v1.012c0 .085.004.139.015.163a.12.12 0 0 0 .044.06c.025.01.06.015.105.015.033 0 .078-.002.133-.008zM111.072 48.363v-.252a.635.635 0 0 1-.55.29c-.1 0-.193-.02-.283-.06a.515.515 0 0 1-.2-.141.61.61 0 0 1-.09-.223 1.534 1.534 0 0 1-.015-.268v-1.071h.29v.96c0 .148.004.25.015.304.019.08.06.142.12.186.059.041.133.06.222.06.09 0 .171-.023.246-.067a.36.36 0 0 0 .163-.179.904.904 0 0 0 .053-.342v-.922h.29v1.725ZM111.84 48.363v-1.725h.267v.26a.715.715 0 0 1 .179-.245.344.344 0 0 1 .193-.06c.099 0 .197.034.298.097l-.097.275a.421.421 0 0 0-.216-.067.298.298 0 0 0-.178.06.31.31 0 0 0-.104.156c-.036.104-.052.22-.052.342v.907ZM114.125 47.806l.298.037a.73.73 0 0 1-.26.416.823.823 0 0 1-.499.142c-.253 0-.454-.077-.602-.231-.149-.158-.223-.376-.223-.654 0-.292.074-.517.223-.677a.769.769 0 0 1 .587-.246c.233 0 .42.08.566.238.148.16.223.38.223.662 0 .02-.004.049-.008.082h-1.286c.009.19.06.335.156.439.098.1.22.149.364.149.108 0 .201-.026.275-.082a.582.582 0 0 0 .186-.275zm-.967-.469h.967c-.015-.149-.052-.257-.111-.327a.454.454 0 0 0-.365-.171.477.477 0 0 0-.342.134.544.544 0 0 0-.149.364zm0 0" fill="var(--text-color)"/>
 <path d="m106.1 31.846h-5.331v-5.33h10.613v5.33z" fill="var(--background-color)" fill-rule="evenodd" stroke="var(--text-color)" stroke-linejoin="round" stroke-miterlimit="10" stroke-width=".057"/>
 <g fill="var(--text-color)">
  <path d="M102.516 30.608v-2.387h.312v.982h1.242v-.982h.312v2.387h-.312v-1.123h-1.242v1.123ZM105.975 30.393c-.11.094-.213.161-.312.2-.1.034-.206.052-.32.052-.193 0-.342-.044-.446-.133a.463.463 0 0 1-.149-.357c0-.084.019-.16.06-.231a.464.464 0 0 1 .149-.171.65.65 0 0 1 .215-.097c.054-.015.142-.03.26-.044.233-.03.406-.062.521-.097v-.082c0-.119-.028-.203-.082-.253-.074-.063-.186-.096-.334-.096-.14 0-.242.026-.305.074-.065.045-.116.13-.149.253l-.283-.037a.684.684 0 0 1 .127-.298.56.56 0 0 1 .26-.171c.114-.045.246-.067.394-.067.149 0 .268.019.357.052.093.035.16.08.201.134a.532.532 0 0 1 .097.2c.01.051.015.14.015.269v.394c0 .273.003.446.015.52.014.071.039.138.074.201h-.305a.629.629 0 0 1-.06-.215zm-.022-.655c-.11.045-.268.082-.476.112-.124.02-.212.042-.26.067-.05.02-.09.05-.12.089a.255.255 0 0 0-.036.141c0 .074.03.14.089.193.06.05.145.075.26.075a.575.575 0 0 0 .298-.075.475.475 0 0 0 .2-.2.715.715 0 0 0 .045-.29Zm0 0"/>
  <path d="m106.589 30.095.29-.045c.015.116.06.205.134.268.074.06.178.09.312.09s.232-.027.297-.082a.25.25 0 0 0 .097-.194.19.19 0 0 0-.082-.156 1.486 1.486 0 0 0-.305-.097 2.608 2.608 0 0 1-.446-.141.443.443 0 0 1-.2-.61.487.487 0 0 1 .148-.163.642.642 0 0 1 .186-.09 1.012 1.012 0 0 1 .61.022.45.45 0 0 1 .223.164.635.635 0 0 1 .104.268l-.29.037a.301.301 0 0 0-.112-.208.406.406 0 0 0-.26-.074c-.134 0-.23.022-.29.066-.06.045-.09.097-.09.157 0 .035.012.07.038.104.024.03.061.056.112.074.03.011.115.035.26.075.208.055.351.1.431.133a.416.416 0 0 1 .194.157c.048.07.074.154.074.252 0 .095-.03.186-.09.276a.554.554 0 0 1-.245.2.956.956 0 0 1-.364.067c-.223 0-.394-.044-.513-.133a.632.632 0 0 1-.223-.417zM108.373 30.608v-2.387h.29v.855a.643.643 0 0 1 .513-.238c.128 0 .24.028.335.082.093.05.16.119.2.208.045.09.068.22.068.387v1.093h-.298v-1.093c0-.149-.033-.255-.097-.32-.06-.069-.148-.104-.267-.104a.488.488 0 0 0-.246.067.397.397 0 0 0-.163.186.936.936 0 0 0-.045.32v.944Zm0 0"/>
  <path transform="translate(-42.383 -50.43)" d="m151.1 76.946-1.047-3.142h2.142z" fill-rule="evenodd" stroke-width=".47601"/>
 </g>
 <path d="m108.72 18.564v5.428" fill="none" stroke="var(--text-color)" stroke-miterlimit="10" stroke-width=".048"/>
 <path transform="translate(-42.383 -50.43)" d="m148.49 90.226-1.047-3.189h2.094z" fill="var(--text-color)" fill-rule="evenodd" stroke-width=".47601"/>
 <path d="m106.1 31.846v5.426" fill="none" stroke="var(--text-color)" stroke-miterlimit="10" stroke-width=".048"/>
 <path transform="translate(-42.383 -50.43)" d="m145.82 76.946-1.047-3.142h2.094z" fill="var(--text-color)" fill-rule="evenodd" stroke-width=".47601"/>
 <path d="m103.44 21.23v2.762" fill="none" stroke="var(--text-color)" stroke-miterlimit="10" stroke-width=".048"/>
 <path transform="translate(-42.383 -50.43)" d="m140.54 92.892-3.332-0.334 0.855-1.904z" fill="var(--text-color)" fill-rule="evenodd" stroke-width=".47601"/>
 <path d="m74.258 31.846.476.238M75.21 32.274l.524.238M76.21 32.703l.476.238M77.21 33.131l.476.238M78.162 33.559l.476.238M79.114 33.988l.523.238M80.113 34.464l.476.19M81.065 34.892l.476.191M82.065 35.321l.476.19M83.017 35.75l.476.189M84.016 36.177l.476.191M84.968 36.606l.476.19M85.968 37.034l.476.238M86.92 37.464l.476.238M87.872 37.891l.525.238M88.873 38.319l.476.238M89.825 38.748l.476.238M90.823 39.176l.476.238M91.775 39.652l.476.192M92.776 40.082l.476.19M93.728 40.51l.476.189M94.68 40.937l.522.191M95.678 41.366l.143.047" fill="none" stroke="var(--text-color)" stroke-miterlimit="10" stroke-width=".048"/>
 <path d="m83.11 37.318.127-2.55.313.133-.134 1.837c-.015.145-.034.28-.052.41.093-.105.187-.207.282-.306l1.287-1.323.297.133-1.822 1.8ZM85.638 37.829l.253.156a.688.688 0 0 1-.402.267c-.154.04-.325.017-.513-.066-.234-.1-.387-.251-.461-.454-.07-.208-.048-.439.067-.692.119-.268.277-.442.476-.528a.746.746 0 0 1 .632.015.745.745 0 0 1 .424.454c.069.204.046.435-.067.691a.204.204 0 0 1-.037.067l-1.175-.52c-.065.178-.075.334-.03.468a.47.47 0 0 0 .268.275.47.47 0 0 0 .29.038.56.56 0 0 0 .275-.171Zm-.692-.819.885.395c.045-.15.054-.264.03-.35a.453.453 0 0 0-.268-.297.468.468 0 0 0-.364-.015.5.5 0 0 0-.283.267zM86.025 38.61l.7-1.577.237.104-.104.238a.761.761 0 0 1 .26-.149.312.312 0 0 1 .201.023c.09.04.168.11.238.208l-.2.216a.387.387 0 0 0-.172-.149.303.303 0 0 0-.186-.015.285.285 0 0 0-.156.09c-.074.089-.14.189-.193.297l-.365.833zM87.852 37.187l.142-.312.268.119-.142.312zm-.825 1.867.699-1.577.268.12-.7 1.576zM87.791 39.393l.61-1.376-.238-.104.09-.201.237.104.075-.171c.044-.104.085-.18.126-.23a.418.418 0 0 1 .208-.105.534.534 0 0 1 .305.06c.078.035.158.081.238.14l-.134.21a1.033 1.033 0 0 0-.163-.083c-.08-.033-.145-.04-.194-.022-.05.02-.094.078-.133.171l-.067.149.305.134-.09.2-.305-.133-.61 1.376ZM88.277 40.325l.075-.26a.548.548 0 0 0 .141.096c.06.024.112.034.156.03a.278.278 0 0 0 .127-.045.996.996 0 0 0 .17-.163l.053-.06.096-1.837.298.127-.074 1.056c-.015.134-.034.275-.053.424.09-.114.179-.22.268-.32l.744-.766.268.119-1.31 1.339a15.14 15.14 0 0 0-.304.297.704.704 0 0 1-.253.112.428.428 0 0 1-.253-.038.433.433 0 0 1-.149-.111Zm0 0" fill="var(--text-color)"/>
 <path d="m64.975 71.64h-11.945v-10.614h23.895v10.614z" fill="var(--background-color)" fill-rule="evenodd" stroke="var(--text-color)" stroke-linejoin="round" stroke-miterlimit="10" stroke-width=".057121"/>
 <g fill="var(--text-color)">
  <path d="M57.619 64.816c0-.397.104-.707.312-.93.212-.223.487-.335.826-.335.223 0 .42.052.595.156a.987.987 0 0 1 .401.44c.093.189.142.4.142.639 0 .243-.05.46-.149.654a.978.978 0 0 1-.409.432 1.217 1.217 0 0 1-.58.141c-.223 0-.424-.052-.603-.156a1.015 1.015 0 0 1-.401-.446 1.371 1.371 0 0 1-.134-.595Zm.32 0c0 .288.076.516.23.684a.783.783 0 0 0 .588.245.772.772 0 0 0 .587-.245c.153-.168.231-.406.231-.714 0-.194-.035-.36-.104-.506a.74.74 0 0 0-.29-.342.783.783 0 0 0-.424-.12.824.824 0 0 0-.58.231c-.16.155-.238.41-.238.767zM60.562 65.976l-.528-1.726h.305l.275.997.104.372.09-.357.275-1.012h.297l.26.997.09.335.096-.335.298-.997h.283l-.543 1.726h-.298l-.275-1.034-.067-.298-.35 1.332ZM62.581 65.976V64.25h.26v.246a.622.622 0 0 1 .55-.29c.105 0 .198.02.283.06.09.04.157.088.201.148a.5.5 0 0 1 .09.216c.009.055.014.148.014.282v1.064h-.29v-1.049a.746.746 0 0 0-.037-.268.259.259 0 0 0-.119-.141.479.479 0 0 0-.528.067c-.09.074-.134.223-.134.446v.945ZM65.619 65.418l.297.037a.73.73 0 0 1-.26.417.823.823 0 0 1-.498.141c-.253 0-.454-.076-.603-.23-.148-.159-.223-.376-.223-.655 0-.292.075-.517.223-.677a.769.769 0 0 1 .588-.245c.232 0 .42.08.565.238.149.16.223.379.223.662 0 .02-.003.048-.007.081h-1.287c.01.19.061.335.156.44.099.1.22.148.365.148.108 0 .2-.026.275-.082a.582.582 0 0 0 .186-.275zm-.967-.469h.967c-.015-.148-.052-.256-.112-.327a.454.454 0 0 0-.364-.17.477.477 0 0 0-.342.133.544.544 0 0 0-.149.364zM66.284 65.976V64.25h.268v.26a.715.715 0 0 1 .178-.245.344.344 0 0 1 .194-.06c.098 0 .197.034.297.097l-.097.276a.421.421 0 0 0-.215-.067.298.298 0 0 0-.179.06.31.31 0 0 0-.104.155c-.035.104-.052.22-.052.342v.908ZM69.798 65.693v.283H68.22a.438.438 0 0 1 .03-.201c.039-.108.104-.216.193-.32.09-.104.218-.225.387-.364.256-.209.431-.374.52-.499.093-.128.142-.247.142-.357a.387.387 0 0 0-.127-.29.466.466 0 0 0-.327-.119.453.453 0 0 0-.335.127.489.489 0 0 0-.134.35l-.297-.03c.018-.227.097-.398.23-.514.134-.119.315-.178.543-.178.227 0 .41.065.543.193.134.125.201.281.201.469 0 .095-.02.19-.06.282-.04.09-.103.186-.193.29a3.81 3.81 0 0 1-.453.417 4.233 4.233 0 0 0-.335.305.88.88 0 0 0-.127.156ZM70.195 64.436l-.074-.446v-.402h.334v.402l-.081.446zM70.696 65.463l.29-.045c.014.115.06.205.133.268.075.06.179.089.313.089s.232-.026.297-.082a.25.25 0 0 0 .097-.193.19.19 0 0 0-.082-.156 1.486 1.486 0 0 0-.305-.097 2.608 2.608 0 0 1-.446-.141.443.443 0 0 1-.2-.61.487.487 0 0 1 .148-.164.642.642 0 0 1 .186-.09 1.012 1.012 0 0 1 .61.022.45.45 0 0 1 .223.165.635.635 0 0 1 .104.268l-.29.037a.301.301 0 0 0-.112-.209.406.406 0 0 0-.26-.074c-.134 0-.23.022-.29.067-.06.045-.09.097-.09.156 0 .036.012.07.038.104.024.03.061.056.112.075.03.01.115.035.26.074.208.056.351.1.431.134a.416.416 0 0 1 .194.156c.048.07.074.155.074.253 0 .095-.03.186-.09.275a.554.554 0 0 1-.245.201.956.956 0 0 1-.364.067c-.223 0-.394-.045-.513-.134a.632.632 0 0 1-.223-.416zM56.62 69.689V67.3h.9c.153 0 .272.008.358.023.119.02.217.057.297.111a.562.562 0 0 1 .186.23c.048.101.075.209.075.328a.752.752 0 0 1-.194.52c-.13.14-.362.209-.699.209h-.61v.967Zm.313-1.25h.617c.203 0 .346-.037.432-.111a.413.413 0 0 0 .134-.328.404.404 0 0 0-.082-.253.385.385 0 0 0-.194-.14 1.328 1.328 0 0 0-.297-.023h-.61zM58.814 69.689v-1.726h.268v.26a.715.715 0 0 1 .179-.245.344.344 0 0 1 .193-.06c.098 0 .197.034.297.097l-.096.275a.421.421 0 0 0-.216-.067.298.298 0 0 0-.178.06.31.31 0 0 0-.105.156c-.035.104-.052.22-.052.342v.908ZM59.918 67.643v-.342h.29v.342zm0 2.046v-1.726h.29v1.726Zm0 0"/>
  <path d="m61.106 69.689-.654-1.726h.305l.372 1.034c.039.11.076.227.111.35.024-.093.062-.205.112-.335l.38-1.049h.304l-.655 1.726ZM63.419 69.473c-.11.095-.214.162-.313.2-.1.034-.206.053-.32.053-.193 0-.342-.045-.446-.134a.463.463 0 0 1-.148-.357c0-.084.018-.16.059-.23a.464.464 0 0 1 .149-.172.65.65 0 0 1 .215-.096c.054-.015.142-.03.26-.045.233-.03.406-.061.521-.097v-.081c0-.12-.027-.203-.081-.253-.075-.064-.186-.097-.335-.097-.14 0-.242.026-.305.074-.065.045-.115.13-.149.253l-.282-.037a.684.684 0 0 1 .126-.297.56.56 0 0 1 .26-.172c.114-.044.246-.066.395-.066.148 0 .267.018.357.052.093.035.16.08.2.133a.532.532 0 0 1 .097.201c.01.05.015.14.015.268v.394c0 .274.004.446.015.52.015.072.039.138.074.202h-.305a.629.629 0 0 1-.06-.216zm-.023-.655c-.11.045-.267.082-.476.112-.124.02-.212.043-.26.067-.05.02-.09.05-.119.09a.255.255 0 0 0-.037.14c0 .075.03.14.09.194.059.05.144.074.26.074a.575.575 0 0 0 .297-.074.475.475 0 0 0 .2-.2.715.715 0 0 0 .045-.291Zm0 0"/>
  <path d="m64.79 69.428.038.26c-.08.016-.155.023-.223.023a.502.502 0 0 1-.246-.052.283.283 0 0 1-.126-.134c-.02-.054-.03-.167-.03-.342v-.997h-.216v-.223h.216v-.431l.29-.171v.602h.297v.223h-.297v1.012c0 .085.004.14.015.163a.12.12 0 0 0 .044.06c.025.011.06.015.105.015.033 0 .078-.002.133-.008zM66.24 69.13l.297.038a.73.73 0 0 1-.26.417.823.823 0 0 1-.499.14c-.253 0-.453-.075-.602-.23-.149-.158-.223-.375-.223-.654 0-.292.074-.517.223-.677a.769.769 0 0 1 .587-.245c.233 0 .42.08.566.238.148.16.223.379.223.661 0 .02-.004.049-.008.082h-1.286c.009.19.06.335.156.44.098.1.22.148.364.148.108 0 .201-.026.275-.082a.582.582 0 0 0 .186-.275zm-.968-.468h.967c-.015-.148-.052-.256-.111-.327a.454.454 0 0 0-.365-.171.477.477 0 0 0-.342.134.544.544 0 0 0-.149.364zM67.887 69.689V67.3h.312v1.183l1.19-1.183h.424l-.996.967 1.04 1.42h-.416l-.848-1.204-.394.38v.825ZM71.235 69.13l.298.038a.73.73 0 0 1-.26.417.823.823 0 0 1-.499.14c-.253 0-.453-.075-.602-.23-.149-.158-.223-.375-.223-.654 0-.292.074-.517.223-.677a.769.769 0 0 1 .587-.245c.233 0 .42.08.566.238.148.16.223.379.223.661 0 .02-.004.049-.008.082h-1.286c.009.19.061.335.156.44.098.1.22.148.364.148.108 0 .201-.026.275-.082a.582.582 0 0 0 .186-.275zm-.967-.468h.967c-.015-.148-.052-.256-.111-.327a.454.454 0 0 0-.365-.171.477.477 0 0 0-.342.134.544.544 0 0 0-.149.364zM71.893 70.35l-.037-.267c.063.015.12.022.171.022a.303.303 0 0 0 .156-.037.26.26 0 0 0 .097-.09 1.478 1.478 0 0 0 .111-.29l-.654-1.725h.32l.357.997c.044.13.085.264.126.401a4.81 4.81 0 0 1 .12-.394l.371-1.004h.29l-.654 1.755c-.075.188-.13.32-.164.395a.625.625 0 0 1-.186.208.412.412 0 0 1-.238.067.568.568 0 0 1-.186-.037Zm0 0"/>
 </g>
 <path d="m22.564 71.64h-11.949v-10.614h23.85v10.614z" fill="var(--background-color)" fill-rule="evenodd" stroke="var(--text-color)" stroke-linejoin="round" stroke-miterlimit="10" stroke-width=".057121"/>
 <g fill="var(--text-color)">
  <path d="M15.35 64.816c0-.397.103-.707.311-.93.212-.223.488-.335.826-.335.223 0 .42.052.595.156a.987.987 0 0 1 .402.44c.093.189.141.4.141.639 0 .243-.05.46-.149.654a.978.978 0 0 1-.409.432 1.217 1.217 0 0 1-.58.141c-.223 0-.424-.052-.602-.156a1.015 1.015 0 0 1-.402-.446 1.371 1.371 0 0 1-.134-.595Zm.319 0c0 .288.076.516.23.684a.783.783 0 0 0 .588.245.772.772 0 0 0 .588-.245c.152-.168.23-.406.23-.714 0-.194-.035-.36-.104-.506a.74.74 0 0 0-.29-.342.783.783 0 0 0-.424-.12.824.824 0 0 0-.58.231c-.16.155-.238.41-.238.767zM18.292 65.976l-.528-1.726h.305l.275.997.104.372.09-.357.275-1.012h.297l.26.997.09.335.097-.335.297-.997h.283l-.543 1.726h-.298l-.275-1.034-.067-.298-.35 1.332ZM20.311 65.976V64.25h.26v.246a.622.622 0 0 1 .551-.29c.104 0 .197.02.283.06.089.04.156.088.2.148a.5.5 0 0 1 .09.216c.01.055.015.148.015.282v1.064h-.29v-1.049a.746.746 0 0 0-.038-.268.259.259 0 0 0-.119-.141.479.479 0 0 0-.528.067c-.089.074-.134.223-.134.446v.945ZM23.35 65.418l.297.037a.73.73 0 0 1-.26.417.823.823 0 0 1-.499.141c-.253 0-.454-.076-.602-.23-.15-.159-.224-.376-.224-.655 0-.292.075-.517.224-.677a.769.769 0 0 1 .587-.245c.233 0 .42.08.565.238.15.16.224.379.224.662 0 .02-.004.048-.008.081h-1.287c.01.19.062.335.157.44.098.1.219.148.364.148.108 0 .2-.026.275-.082a.582.582 0 0 0 .186-.275zm-.968-.469h.967c-.015-.148-.052-.256-.111-.327a.454.454 0 0 0-.365-.17.477.477 0 0 0-.342.133.544.544 0 0 0-.149.364zM24.014 65.976V64.25h.268v.26a.715.715 0 0 1 .179-.245.344.344 0 0 1 .193-.06c.098 0 .197.034.297.097l-.096.276a.421.421 0 0 0-.216-.067.298.298 0 0 0-.178.06.31.31 0 0 0-.105.155c-.035.104-.052.22-.052.342v.908ZM27.042 65.976h-.29v-1.867c-.074.07-.169.14-.282.208a2.246 2.246 0 0 1-.305.149v-.29c.163-.074.305-.166.424-.275.122-.108.212-.216.267-.32h.186zM27.929 64.436l-.075-.446v-.402h.335v.402l-.082.446zM28.382 65.463l.29-.045c.015.115.06.205.134.268.075.06.179.089.313.089s.232-.026.297-.082a.25.25 0 0 0 .097-.193.19.19 0 0 0-.082-.156 1.486 1.486 0 0 0-.305-.097 2.608 2.608 0 0 1-.446-.141.443.443 0 0 1-.2-.61.487.487 0 0 1 .148-.164.642.642 0 0 1 .186-.09 1.012 1.012 0 0 1 .61.022.45.45 0 0 1 .223.165.635.635 0 0 1 .104.268l-.29.037a.301.301 0 0 0-.112-.209.406.406 0 0 0-.26-.074c-.134 0-.23.022-.29.067-.06.045-.09.097-.09.156 0 .036.012.07.038.104.024.03.061.056.112.075.03.01.115.035.26.074.208.056.351.1.431.134a.416.416 0 0 1 .194.156c.048.07.074.155.074.253 0 .095-.03.186-.09.275a.554.554 0 0 1-.245.201.956.956 0 0 1-.364.067c-.223 0-.394-.045-.513-.134a.632.632 0 0 1-.224-.416zM14.351 69.689V67.3h.9c.152 0 .271.008.357.023.119.02.217.057.297.111a.562.562 0 0 1 .186.23c.049.101.075.209.075.328a.752.752 0 0 1-.194.52c-.13.14-.362.209-.699.209h-.61v.967Zm.312-1.25h.618c.202 0 .346-.037.431-.111a.413.413 0 0 0 .134-.328.404.404 0 0 0-.082-.253.385.385 0 0 0-.193-.14 1.328 1.328 0 0 0-.298-.023h-.61zM16.495 69.689v-1.726h.267v.26a.715.715 0 0 1 .179-.245.344.344 0 0 1 .193-.06c.099 0 .197.034.298.097l-.097.275a.421.421 0 0 0-.216-.067.298.298 0 0 0-.178.06.31.31 0 0 0-.104.156c-.036.104-.052.22-.052.342v.908ZM17.644 67.643v-.342h.29v.342zm0 2.046v-1.726h.29v1.726Zm0 0"/>
  <path d="m18.833 69.689-.654-1.726h.305l.372 1.034c.039.11.076.227.111.35.024-.093.061-.205.112-.335l.379-1.049h.305l-.655 1.726ZM21.146 69.473c-.11.095-.214.162-.313.2-.1.034-.206.053-.32.053-.193 0-.342-.045-.446-.134a.463.463 0 0 1-.149-.357c0-.084.019-.16.06-.23a.464.464 0 0 1 .149-.172.65.65 0 0 1 .215-.096c.054-.015.142-.03.26-.045.233-.03.406-.061.521-.097v-.081c0-.12-.028-.203-.081-.253-.075-.064-.186-.097-.335-.097-.14 0-.242.026-.305.074-.065.045-.115.13-.149.253l-.282-.037a.684.684 0 0 1 .126-.297.56.56 0 0 1 .26-.172c.114-.044.246-.066.394-.066.15 0 .268.018.357.052.093.035.16.08.201.133a.532.532 0 0 1 .097.201c.01.05.015.14.015.268v.394c0 .274.004.446.015.52.015.072.039.138.074.202h-.305a.629.629 0 0 1-.06-.216zm-.023-.655c-.11.045-.267.082-.476.112-.124.02-.212.043-.26.067-.05.02-.09.05-.119.09a.255.255 0 0 0-.037.14c0 .075.03.14.09.194.059.05.144.074.26.074a.575.575 0 0 0 .297-.074.475.475 0 0 0 .2-.2.715.715 0 0 0 .045-.291Zm0 0"/>
  <path d="m22.517 69.428.038.26c-.08.016-.155.023-.224.023a.502.502 0 0 1-.245-.052.283.283 0 0 1-.126-.134c-.02-.054-.03-.167-.03-.342v-.997h-.216v-.223h.216v-.431l.29-.171v.602h.297v.223h-.297v1.012c0 .085.004.14.015.163a.12.12 0 0 0 .044.06c.025.011.06.015.105.015.033 0 .078-.002.133-.008zM23.966 69.13l.298.038a.73.73 0 0 1-.26.417.823.823 0 0 1-.499.14c-.253 0-.454-.075-.602-.23-.15-.158-.223-.375-.223-.654 0-.292.074-.517.223-.677a.769.769 0 0 1 .587-.245c.233 0 .42.08.566.238.148.16.223.379.223.661 0 .02-.004.049-.008.082h-1.286c.009.19.06.335.156.44.098.1.22.148.364.148.108 0 .201-.026.275-.082a.582.582 0 0 0 .186-.275zM23 68.663h.967c-.015-.148-.052-.256-.111-.327a.454.454 0 0 0-.365-.171.477.477 0 0 0-.342.134.544.544 0 0 0-.149.364zM25.614 69.689V67.3h.312v1.183l1.19-1.183h.424l-.997.967 1.042 1.42h-.417l-.848-1.204-.394.38v.825ZM28.962 69.13l.298.038a.73.73 0 0 1-.26.417.823.823 0 0 1-.499.14c-.253 0-.454-.075-.602-.23-.149-.158-.223-.375-.223-.654 0-.292.074-.517.223-.677a.769.769 0 0 1 .587-.245c.233 0 .42.08.566.238.148.16.223.379.223.661 0 .02-.004.049-.008.082h-1.286c.009.19.06.335.156.44.098.1.22.148.364.148.108 0 .201-.026.275-.082a.582.582 0 0 0 .186-.275zm-.967-.468h.967c-.015-.148-.052-.256-.111-.327a.454.454 0 0 0-.365-.171.477.477 0 0 0-.342.134.544.544 0 0 0-.149.364zM29.62 70.35l-.037-.267c.063.015.12.022.17.022a.303.303 0 0 0 .157-.037.26.26 0 0 0 .097-.09 1.478 1.478 0 0 0 .111-.29l-.654-1.725h.32l.357.997c.044.13.085.264.126.401a4.81 4.81 0 0 1 .12-.394l.371-1.004h.29l-.654 1.755c-.075.188-.13.32-.164.395a.625.625 0 0 1-.186.208.412.412 0 0 1-.238.067.568.568 0 0 1-.186-.037Zm0 0"/>
  <path transform="translate(-42.383 -50.43)" d="m140.54 98.175-1.953 2.761-1.238-1.666z" fill-rule="evenodd" stroke-width=".47601"/>
 </g>
 <path d="m76.924 63.69.428-.332M77.781 63.025l.428-.286M78.638 62.406l.428-.333M79.494 61.74l.43-.286M80.304 61.12l.428-.332M81.16 60.502l.43-.333M82.017 59.836l.43-.286M82.874 59.217l.428-.333M83.731 58.55l.428-.285M84.589 57.932l.427-.335M85.444 57.313l.43-.333M86.301 56.645l.43-.333M87.158 56.028l.428-.335M88.015 55.36l.428-.284M88.824 54.741l.428-.333M89.682 54.076l.427-.287M90.539 53.456l.427-.332M91.394 52.837l.43-.333M92.251 52.172l.43-.333M93.108 51.552l.428-.333M93.966 50.887l.427-.333M94.823 50.267l.427-.332M95.678 49.602l.43-.287" fill="none" stroke="var(--text-color)" stroke-miterlimit="10" stroke-width=".048"/>
 <path d="m84.626 58.708.224-.209c.085.09.167.15.253.179.089.03.19.033.304.007a.997.997 0 0 0 .558-.394.454.454 0 0 0 .082-.245.34.34 0 0 0-.067-.208.284.284 0 0 0-.17-.112.464.464 0 0 0-.254.015c-.07.02-.208.074-.416.163a2.055 2.055 0 0 1-.461.15.582.582 0 0 1-.328-.016.605.605 0 0 1-.253-.193.582.582 0 0 1-.111-.327.625.625 0 0 1 .097-.372c.07-.123.169-.233.297-.327.145-.105.286-.173.424-.209a.633.633 0 0 1 .394.008.709.709 0 0 1 .327.238l-.23.193c-.104-.113-.216-.17-.335-.17-.123-.005-.256.047-.401.155-.153.116-.246.227-.276.335a.298.298 0 0 0 .045.275c.05.07.119.108.208.112.08.01.238-.037.476-.142.238-.107.411-.173.52-.193a.691.691 0 0 1 .388.007c.113.041.204.11.275.209a.676.676 0 0 1 .037.758c-.07.13-.171.244-.305.342a1.5 1.5 0 0 1-.498.253.703.703 0 0 1-.446-.022.887.887 0 0 1-.358-.26ZM85.712 56.296l-.2-.275.23-.171.2.275Zm1.227 1.636-1.033-1.383.23-.171 1.034 1.383zM87.587 57.624l.26-.141c.06.065.123.1.194.104.09 0 .182-.037.283-.112a.498.498 0 0 0 .2-.253.383.383 0 0 0-.014-.275 1.908 1.908 0 0 0-.209-.312.59.59 0 0 1-.245.461c-.19.145-.387.19-.595.134a.994.994 0 0 1-.528-.38 1.166 1.166 0 0 1-.201-.423.75.75 0 0 1 .015-.417.685.685 0 0 1 .245-.335.647.647 0 0 1 .566-.096l-.127-.171.208-.157.893 1.19c.163.22.256.391.282.514a.564.564 0 0 1-.052.364.957.957 0 0 1-.297.342.877.877 0 0 1-.484.186c-.154.004-.286-.07-.394-.223Zm-.424-.974c.134.178.268.282.402.312.134.03.255.006.364-.074a.422.422 0 0 0 .179-.32c.015-.138-.045-.298-.179-.476-.13-.173-.264-.275-.401-.305a.45.45 0 0 0-.372.074.449.449 0 0 0-.164.328c-.01.14.049.293.171.46zM89.036 56.364l-1.034-1.383.208-.157.149.201a.615.615 0 0 1 .26-.565.706.706 0 0 1 .268-.126.544.544 0 0 1 .245 0c.075.02.143.063.209.126.039.035.098.104.178.208l.64.856-.238.178-.625-.84a.931.931 0 0 0-.193-.194.25.25 0 0 0-.179-.037.468.468 0 0 0-.387.364c-.024.116.03.26.164.44l.565.758zm0 0" fill="var(--text-color)"/>
 <path transform="translate(-42.383 -50.43)" d="m98.076 98.175-1.904 2.761-1.285-1.666z" fill="var(--text-color)" fill-rule="evenodd" stroke-width=".47601"/>
 <path d="m34.464 63.69.428-.332M35.321 63.025l.428-.286M36.177 62.406l.43-.333M37.034 61.74l.43-.286M37.891 61.12l.428-.332M38.748 60.502l.428-.333M39.606 59.836l.427-.286M40.46 59.217l.43-.333M41.318 58.55l.43-.285M42.127 57.932l.43-.335M42.984 57.313l.43-.333M43.841 56.645l.428-.333M44.699 56.028l.427-.335M45.556 55.36l.427-.284M46.411 54.741l.43-.333M47.268 54.076l.43-.287M48.125 53.456l.428-.332M48.983 52.837l.427-.333M49.84 52.172l.427-.333M50.649 51.552l.427-.333M51.506 50.887l.428-.333M52.361 50.267l.43-.332M53.218 49.602l.43-.287" fill="none" stroke="var(--text-color)" stroke-miterlimit="10" stroke-width=".048"/>
 <path d="m42.166 58.708.223-.209c.086.09.168.15.253.179.09.03.19.033.305.007a.997.997 0 0 0 .558-.394.454.454 0 0 0 .082-.245.34.34 0 0 0-.067-.208.284.284 0 0 0-.171-.112.464.464 0 0 0-.253.015c-.07.02-.208.074-.416.163a2.055 2.055 0 0 1-.462.15.582.582 0 0 1-.327-.016.605.605 0 0 1-.253-.193.582.582 0 0 1-.111-.327.625.625 0 0 1 .096-.372c.071-.123.17-.233.298-.327.145-.105.286-.173.424-.209a.633.633 0 0 1 .394.008.709.709 0 0 1 .327.238l-.23.193c-.104-.113-.216-.17-.335-.17-.123-.005-.257.047-.402.155-.152.116-.245.227-.275.335a.298.298 0 0 0 .045.275c.05.07.119.108.208.112.08.01.238-.037.476-.142.238-.107.411-.173.52-.193a.691.691 0 0 1 .388.007c.113.041.204.11.275.209a.676.676 0 0 1 .037.758c-.07.13-.171.244-.305.342a1.5 1.5 0 0 1-.498.253.703.703 0 0 1-.447-.022.887.887 0 0 1-.357-.26ZM43.252 56.296l-.2-.275.23-.171.2.275Zm1.227 1.636-1.034-1.383.23-.171 1.035 1.383zM45.087 57.654l.26-.141c.06.065.123.1.194.104.09 0 .182-.037.282-.112a.498.498 0 0 0 .201-.253.383.383 0 0 0-.015-.275 1.908 1.908 0 0 0-.208-.312.59.59 0 0 1-.245.461c-.19.145-.387.19-.595.134a.994.994 0 0 1-.528-.38 1.166 1.166 0 0 1-.201-.423.75.75 0 0 1 .015-.417.685.685 0 0 1 .245-.335.647.647 0 0 1 .565-.096l-.126-.171.208-.157.893 1.19c.163.22.256.39.282.514a.564.564 0 0 1-.052.364.957.957 0 0 1-.297.342.877.877 0 0 1-.484.186c-.154.004-.286-.07-.394-.223Zm-.424-.974c.134.178.268.282.402.312.134.03.255.006.364-.074a.422.422 0 0 0 .179-.32c.015-.138-.045-.298-.179-.476-.13-.173-.264-.275-.401-.305a.45.45 0 0 0-.372.074.449.449 0 0 0-.164.328c-.01.139.048.293.171.46zM46.535 56.394l-1.033-1.383.208-.157.149.201a.615.615 0 0 1 .26-.565.706.706 0 0 1 .268-.126.544.544 0 0 1 .245 0c.074.02.143.063.208.126.04.035.099.104.179.208l.64.856-.239.178-.624-.84a.931.931 0 0 0-.194-.194.25.25 0 0 0-.178-.037.468.468 0 0 0-.387.364c-.024.116.03.26.164.44l.565.758zm0 0" fill="var(--text-color)"/>
 <path d="m107.44 71.64h-11.949v-10.614h23.85v10.614z" fill="var(--background-color)" fill-rule="evenodd" stroke="var(--text-color)" stroke-linejoin="round" stroke-miterlimit="10" stroke-width=".057121"/>
 <g fill="var(--text-color)">
  <path d="M100.174 64.816c0-.397.104-.707.313-.93.212-.223.487-.335.825-.335.223 0 .42.052.595.156a.987.987 0 0 1 .402.44c.093.189.141.4.141.639 0 .243-.05.46-.149.654a.978.978 0 0 1-.409.432 1.217 1.217 0 0 1-.58.141c-.223 0-.424-.052-.602-.156a1.015 1.015 0 0 1-.402-.446 1.371 1.371 0 0 1-.134-.595Zm.32 0c0 .288.076.516.23.684a.783.783 0 0 0 .588.245.772.772 0 0 0 .588-.245c.152-.168.23-.406.23-.714 0-.194-.035-.36-.104-.506a.74.74 0 0 0-.29-.342.783.783 0 0 0-.424-.12.824.824 0 0 0-.58.231c-.16.155-.238.41-.238.767zM103.117 65.976l-.528-1.726h.305l.275.997.105.372c.003-.019.033-.138.089-.357l.275-1.012h.298l.26.997.09.335.096-.335.297-.997h.283l-.543 1.726h-.298l-.275-1.034-.067-.298-.35 1.332ZM105.136 65.976V64.25h.26v.246a.622.622 0 0 1 .551-.29c.104 0 .197.02.283.06.089.04.156.088.2.148a.5.5 0 0 1 .09.216c.01.055.015.148.015.282v1.064h-.29v-1.049a.746.746 0 0 0-.038-.268.259.259 0 0 0-.119-.141.479.479 0 0 0-.528.067c-.089.074-.133.223-.133.446v.945ZM108.174 65.418l.298.037a.73.73 0 0 1-.26.417.823.823 0 0 1-.499.141c-.253 0-.454-.076-.602-.23-.15-.159-.223-.376-.223-.655 0-.292.074-.517.223-.677a.769.769 0 0 1 .587-.245c.233 0 .42.08.565.238.15.16.224.379.224.662 0 .02-.004.048-.008.081h-1.287c.01.19.062.335.157.44.098.1.22.148.364.148.108 0 .2-.026.275-.082a.582.582 0 0 0 .186-.275zm-.967-.469h.967c-.015-.148-.052-.256-.111-.327a.454.454 0 0 0-.365-.17.477.477 0 0 0-.342.133.544.544 0 0 0-.149.364zM108.84 65.976V64.25h.267v.26a.715.715 0 0 1 .179-.245.344.344 0 0 1 .193-.06c.099 0 .197.034.298.097l-.097.276a.421.421 0 0 0-.216-.067.298.298 0 0 0-.178.06.31.31 0 0 0-.104.155c-.036.104-.053.22-.053.342v.908ZM110.767 65.344l.29-.038c.033.17.09.29.17.365.085.07.183.104.298.104a.485.485 0 0 0 .49-.498.432.432 0 0 0-.133-.328.443.443 0 0 0-.334-.133 1.01 1.01 0 0 0-.209.03l.038-.254h.044a.602.602 0 0 0 .335-.096c.104-.064.156-.166.156-.305a.343.343 0 0 0-.111-.26.384.384 0 0 0-.283-.112.381.381 0 0 0-.283.111.555.555 0 0 0-.148.32l-.29-.052a.753.753 0 0 1 .237-.453.715.715 0 0 1 .477-.164c.128 0 .247.03.357.09a.586.586 0 0 1 .342.527.513.513 0 0 1-.328.484.58.58 0 0 1 .328.208.6.6 0 0 1 .119.38.723.723 0 0 1-.23.535.786.786 0 0 1-.574.215.748.748 0 0 1-.52-.186.737.737 0 0 1-.238-.49zM112.704 64.436l-.075-.446v-.402h.335v.402l-.082.446zM113.204 65.463l.29-.045c.015.115.06.205.134.268.075.06.179.089.313.089.133 0 .232-.026.297-.082a.25.25 0 0 0 .097-.193.19.19 0 0 0-.082-.156 1.486 1.486 0 0 0-.305-.097 2.608 2.608 0 0 1-.446-.141.443.443 0 0 1-.201-.61.487.487 0 0 1 .149-.164.642.642 0 0 1 .186-.09 1.012 1.012 0 0 1 .61.022.45.45 0 0 1 .223.165.635.635 0 0 1 .104.268l-.29.037a.301.301 0 0 0-.112-.209.406.406 0 0 0-.26-.074c-.134 0-.23.022-.29.067-.06.045-.09.097-.09.156 0 .036.012.07.038.104.024.03.061.056.111.075.03.01.116.035.26.074.209.056.352.1.432.134a.416.416 0 0 1 .193.156c.049.07.075.155.075.253 0 .095-.03.186-.09.275a.554.554 0 0 1-.245.201.956.956 0 0 1-.364.067c-.224 0-.395-.045-.514-.134a.632.632 0 0 1-.223-.416zM99.176 69.689V67.3h.9c.152 0 .272.008.357.023.119.02.218.057.298.111a.562.562 0 0 1 .185.23c.049.101.075.209.075.328a.752.752 0 0 1-.194.52c-.13.14-.362.209-.699.209h-.61v.967Zm.312-1.25h.618c.202 0 .346-.037.431-.111a.413.413 0 0 0 .134-.328.404.404 0 0 0-.082-.253.385.385 0 0 0-.193-.14 1.328 1.328 0 0 0-.298-.023h-.61zM101.32 69.689v-1.726h.267v.26a.715.715 0 0 1 .179-.245.344.344 0 0 1 .193-.06c.099 0 .197.034.298.097l-.097.275a.421.421 0 0 0-.216-.067.298.298 0 0 0-.178.06.31.31 0 0 0-.104.156c-.036.104-.052.22-.052.342v.908ZM102.47 67.643v-.342h.29v.342zm0 2.046v-1.726h.29v1.726Zm0 0"/>
  <path d="m103.658 69.689-.654-1.726h.305l.372 1.034c.039.11.076.227.111.35.024-.093.062-.205.112-.335l.38-1.049h.304l-.654 1.726ZM105.97 69.473c-.109.095-.213.162-.312.2-.1.034-.206.053-.32.053-.193 0-.342-.045-.446-.134a.463.463 0 0 1-.148-.357c0-.084.018-.16.059-.23a.464.464 0 0 1 .149-.172.65.65 0 0 1 .215-.096c.054-.015.142-.03.26-.045.233-.03.406-.061.521-.097v-.081c0-.12-.027-.203-.081-.253-.075-.064-.186-.097-.335-.097-.14 0-.242.026-.305.074-.065.045-.115.13-.149.253l-.282-.037a.684.684 0 0 1 .126-.297.56.56 0 0 1 .26-.172c.114-.044.246-.066.395-.066.148 0 .267.018.357.052.093.035.16.08.2.133a.532.532 0 0 1 .097.201c.01.05.015.14.015.268v.394c0 .274.004.446.015.52.015.072.039.138.074.202h-.305a.629.629 0 0 1-.06-.216zm-.022-.655c-.11.045-.267.082-.476.112-.124.02-.212.043-.26.067-.05.02-.09.05-.119.09a.255.255 0 0 0-.037.14c0 .075.03.14.09.194.059.05.144.074.26.074a.575.575 0 0 0 .297-.074.475.475 0 0 0 .2-.2.715.715 0 0 0 .045-.291Zm0 0"/>
  <path d="m107.342 69.428.038.26c-.08.016-.155.023-.223.023a.502.502 0 0 1-.246-.052.283.283 0 0 1-.126-.134c-.02-.054-.03-.167-.03-.342v-.997h-.216v-.223h.216v-.431l.29-.171v.602h.297v.223h-.297v1.012c0 .085.004.14.015.163a.12.12 0 0 0 .044.06c.025.011.06.015.105.015.033 0 .078-.002.133-.008zM108.791 69.13l.298.038a.73.73 0 0 1-.26.417.823.823 0 0 1-.499.14c-.253 0-.453-.075-.602-.23-.149-.158-.223-.375-.223-.654 0-.292.074-.517.223-.677a.769.769 0 0 1 .587-.245c.233 0 .42.08.566.238.148.16.223.379.223.661 0 .02-.004.049-.008.082h-1.286c.009.19.061.335.156.44.098.1.22.148.364.148.108 0 .201-.026.275-.082a.582.582 0 0 0 .186-.275zm-.967-.468h.967c-.015-.148-.052-.256-.111-.327a.454.454 0 0 0-.365-.171.477.477 0 0 0-.342.134.544.544 0 0 0-.149.364zM110.439 69.689V67.3h.312v1.183l1.19-1.183h.424l-.996.967 1.04 1.42h-.416l-.848-1.204-.394.38v.825ZM113.787 69.13l.298.038a.73.73 0 0 1-.26.417.823.823 0 0 1-.499.14c-.253 0-.453-.075-.602-.23-.149-.158-.223-.375-.223-.654 0-.292.074-.517.223-.677a.769.769 0 0 1 .587-.245c.233 0 .42.08.566.238.148.16.223.379.223.661 0 .02-.004.049-.008.082h-1.286c.009.19.061.335.156.44.098.1.22.148.364.148.108 0 .201-.026.275-.082a.582.582 0 0 0 .186-.275zm-.967-.468h.967c-.014-.148-.052-.256-.111-.327a.454.454 0 0 0-.365-.171.477.477 0 0 0-.342.134.544.544 0 0 0-.149.364zM114.445 70.35l-.037-.267c.063.015.12.022.171.022a.303.303 0 0 0 .156-.037.26.26 0 0 0 .097-.09 1.478 1.478 0 0 0 .111-.29l-.654-1.725h.32l.357.997c.044.13.085.264.126.401a4.81 4.81 0 0 1 .12-.394l.371-1.004h.29l-.654 1.755c-.075.188-.13.32-.164.395a.625.625 0 0 1-.186.208.412.412 0 0 1-.238.067.568.568 0 0 1-.186-.037Zm0 0"/>
 </g>
 <path d="m79.59 21.23h23.847" fill="none" stroke="var(--text-color)" stroke-linejoin="round" stroke-miterlimit="10" stroke-width=".057"/>
 <path transform="translate(-42.383 -50.43)" d="m103.41 76.946-1.095-3.142h2.142z" fill="var(--text-color)" fill-rule="evenodd" stroke-width=".47601"/>
 <path d="m61.026 21.23v2.762" fill="none" stroke="var(--text-color)" stroke-miterlimit="10" stroke-width=".048"/>
 <path d="m37.129 21.23h23.897" fill="none" stroke="var(--text-color)" stroke-linejoin="round" stroke-miterlimit="10" stroke-width=".057"/>
 <path transform="translate(-42.383 -50.43)" d="m60.947 76.946-1.047-3.142h2.096z" fill="var(--text-color)" fill-rule="evenodd" stroke-width=".47601"/>
 <path d="m18.564 21.23v2.762" fill="none" stroke="var(--text-color)" stroke-miterlimit="10" stroke-width=".048"/>
 <path d="m0 21.23h18.564" fill="none" stroke="var(--text-color)" stroke-linejoin="round" stroke-miterlimit="10" stroke-width=".057121"/>
</svg>
