<?xml version="1.0" encoding="UTF-8"?>
<svg height="35.25mm" version="1.1" viewBox="0 0 138.62 30.51" xmlns="http://www.w3.org/2000/svg" xmlns:xlink="http://www.w3.org/1999/xlink">
 <defs>
  <path id="a" d="M11.25 1.61H.969v-.298l5.25-6.5-5.25-6.39v-.281h10.015l.204 2.64h-.329c-.136-1.332-.78-2-1.937-2H3.125l4.406 5.36L2.594.234H9c1.29 0 2.102-.644 2.438-1.937l.312.047Zm0 0"/>
  <path id="b" d="M1.89-4.578.97-1.406l.375-.313c.406-.343.664-.597.781-.765.04-.051.063-.086.063-.11 0-.02-.008-.039-.016-.062-.012-.02-.04-.035-.078-.047a1.146 1.146 0 0 0-.203-.016h-.11l.032-.125h1.421l-.03.125c-.169.012-.313.04-.438.078a1.15 1.15 0 0 0-.329.188A6.684 6.684 0 0 0 2-2.125l-.266.25c.04.156.098.371.172.64.114.47.192.747.235.829.039.086.082.125.125.125.03 0 .07-.016.125-.047.113-.082.234-.211.359-.39l.11.077c-.231.293-.407.485-.532.579-.125.093-.242.14-.344.14a.258.258 0 0 1-.218-.11c-.086-.124-.227-.624-.422-1.5l-.438.391L.562 0h-.5l1.079-3.672.093-.312c.008-.051.016-.098.016-.141a.157.157 0 0 0-.063-.125.25.25 0 0 0-.171-.063c-.055 0-.133.012-.235.032v-.11zm0 0"/>
  <path id="t" d="M.563-2.844h2.046v.094L.375-.437h.953c.219 0 .36-.004.422-.016a.31.31 0 0 0 .156-.11c.051-.062.114-.164.188-.312h.11L1.921 0h-2.11v-.094l2.25-2.312h-.937c-.2 0-.32.008-.36.015a.424.424 0 0 0-.187.094c-.055.055-.11.149-.172.281H.281zm0 0"/>
  <path id="c" d="M.719-1.156v-.313h3.828v.313zm0-1.39v-.313h3.828v.312zm0 0"/>
  <path id="e" d="M2.266-2.156c.132-.29.285-.504.453-.64.195-.165.445-.25.75-.25.375 0 .676.136.906.405.219.262.328.579.328.954 0 .343-.101.648-.297.906-.218.293-.496.437-.828.437-.398 0-.762-.304-1.094-.922-.25.5-.601.75-1.046.75-.336 0-.602-.113-.797-.343-.211-.227-.313-.508-.313-.844 0-.3.086-.57.266-.813a.873.873 0 0 1 .734-.375.79.79 0 0 1 .578.235c.114.105.235.273.36.5zm.312.656c.258.574.598.86 1.016.86.289 0 .52-.102.687-.313.164-.195.25-.442.25-.735a1.22 1.22 0 0 0-.25-.75c-.18-.226-.402-.343-.672-.343-.261 0-.484.156-.671.469a9.242 9.242 0 0 0-.36.812Zm-.39-.406c-.211-.457-.5-.688-.876-.688a.71.71 0 0 0-.578.266.946.946 0 0 0-.218.625c0 .23.062.437.187.625.133.21.317.312.547.312.25 0 .457-.132.625-.406.082-.125.188-.367.313-.734zm0 0"/>
  <path id="h" d="m0.719-1.75v-0.313h3.828v0.313z"/>
  <path id="i" d="M.375 0a.691.691 0 0 1-.031-.172c0-.258.195-.695.594-1.312.03-.04.328-.457.89-1.25-.094-.414-.187-.696-.281-.844-.156-.227-.406-.344-.75-.344H.78l.39-.36h.095c.3 0 .523.095.671.282.102.125.196.355.282.688l.437 1.75c.227.78.477 1.304.75 1.562H2.72c-.211-.27-.387-.672-.531-1.203l-.313-1.313c-.375.524-.602.844-.672.97-.242.398-.36.76-.36 1.093 0 .18.063.328.188.453Zm0 0"/>
  <path id="s" d="M1.734 1.36C1.316 1.015.992.52.766-.126a5.295 5.295 0 0 1-.297-1.781c0-.602.101-1.192.312-1.766.227-.676.547-1.172.953-1.484V-5c-.304.281-.53.766-.687 1.453a7.325 7.325 0 0 0 0 3.297c.156.695.383 1.18.687 1.453zm0 0"/>
  <path id="u" d="M.328 1.203C.618.941.844.477 1-.187a6.48 6.48 0 0 0 .203-1.579c0-.601-.058-1.175-.172-1.718C.883-4.204.648-4.707.328-5v-.156c.414.293.738.781.969 1.468.187.586.281 1.18.281 1.782 0 .625-.094 1.218-.281 1.781-.23.688-.555 1.18-.969 1.484zm0 0"/>
  <path id="d" d="M.234-2.156c0-.5.07-.926.22-1.281.155-.364.358-.633.609-.813.195-.133.398-.203.609-.203.332 0 .633.172.906.516.332.417.5.992.5 1.718 0 .5-.074.93-.219 1.281-.148.356-.336.618-.562.782-.23.156-.45.234-.656.234-.418 0-.766-.242-1.047-.734-.242-.414-.36-.914-.36-1.5Zm.641.078c0 .605.07 1.094.219 1.469.125.324.304.484.547.484a.58.58 0 0 0 .375-.156c.125-.102.218-.281.28-.531.095-.364.142-.88.142-1.547 0-.5-.055-.914-.157-1.25-.074-.25-.172-.426-.297-.532a.475.475 0 0 0-.312-.109c-.149 0-.277.07-.39.203-.157.18-.266.461-.329.844a7.78 7.78 0 0 0-.078 1.125zm0 0"/>
  <path id="f" d="M.625-.016a1.44 1.44 0 0 1-.047-.28c0-.438.328-1.161.985-2.173.039-.07.53-.77 1.468-2.094-.136-.695-.289-1.164-.453-1.406-.262-.375-.683-.562-1.265-.562h-.016l.64-.61h.172c.5 0 .868.157 1.11.47.176.218.336.605.484 1.155l.735 2.922c.375 1.305.789 2.164 1.25 2.578H4.53c-.355-.437-.652-1.101-.89-2l-.5-2.171c-.637.867-1.012 1.402-1.125 1.609-.407.668-.61 1.273-.61 1.812 0 .305.102.555.313.75zm0 0"/>
  <path id="k" d="M1.719-1.922h-.203l-.329-2.39C1.063-5.282 1-6.079 1-6.704c0-.195.055-.367.172-.516a.52.52 0 0 1 .453-.218c.406 0 .61.265.61.796 0 .625-.063 1.414-.188 2.36zM1.203-.859a.558.558 0 0 1 .406-.172c.157 0 .297.058.422.172a.6.6 0 0 1 0 .843.587.587 0 0 1-.844-.015.597.597 0 0 1-.171-.422.57.57 0 0 1 .187-.406zm0 0"/>
  <path id="l" d="M2.703-2.766a.575.575 0 0 1-.172-.406c0-.156.055-.297.172-.422a.587.587 0 0 1 .828.828.558.558 0 0 1-.422.188.563.563 0 0 1-.406-.188zm0 0"/>
  <path id="n" d="M2.89 2.281C2.192 1.687 1.657.86 1.282-.203a9.012 9.012 0 0 1-.484-2.969c0-1.008.164-1.992.5-2.953.383-1.133.914-1.96 1.594-2.484v.265c-.5.469-.887 1.278-1.157 2.422-.21.899-.312 1.813-.312 2.75 0 .93.101 1.844.312 2.75C2.004.742 2.391 1.551 2.891 2Zm0 0"/>
  <path id="p" d="m0 .14 2.297-8.156h.765L.783.141zm0 0"/>
  <path id="r" d="M.547 2c.488-.438.863-1.21 1.125-2.313.226-.894.344-1.769.344-2.624a13.5 13.5 0 0 0-.297-2.876c-.25-1.195-.64-2.039-1.172-2.53v-.266c.687.492 1.223 1.312 1.61 2.468.32.97.484 1.961.484 2.97a9.115 9.115 0 0 1-.485 2.968C1.77.93 1.234 1.757.546 2.28Zm0 0"/>
  <path id="x" d="M1.188 0v-.531h6.375V0Zm6.375-6.36v.579L2.64-3.813l4.921 1.97v.562L1.188-3.813Zm0 0"/>
  <path id="A" d="m1.188-5.703 6.375 2.547-6.375 2.531v-0.547l4.953-2-4.954-1.953z"/>
  <path id="g" d="M1.313-2.031c-.024.187-.032.34-.032.453 0 .324.11.594.328.812.227.22.504.329.829.329.257 0 .507-.051.75-.157.238-.101.593-.336 1.062-.703l.11.156C3.515-.297 2.702.125 1.921.125c-.524 0-.918-.16-1.188-.484a1.723 1.723 0 0 1-.39-1.094c0-.531.16-1.078.484-1.64a3.66 3.66 0 0 1 1.25-1.298c.5-.312 1.016-.468 1.547-.468.383 0 .664.078.844.234.187.148.281.328.281.547 0 .293-.121.574-.36.844-.312.355-.773.64-1.374.859-.407.148-.977.262-1.704.344zm.046-.25c.532-.063.961-.164 1.297-.313.438-.195.766-.43.985-.703.218-.281.328-.547.328-.797a.489.489 0 0 0-.14-.36c-.095-.093-.231-.14-.407-.14-.367 0-.758.2-1.172.594-.406.387-.703.96-.89 1.719Zm0 0"/>
  <path id="j" d="M3.156-7.64 1.625-2.36l.625-.515c.664-.57 1.102-.992 1.313-1.266.062-.082.093-.148.093-.203a.116.116 0 0 0-.031-.078c-.023-.031-.063-.055-.125-.078a1.328 1.328 0 0 0-.344-.031H2.97l.062-.203h2.36l-.063.203c-.273.023-.508.07-.703.14a2.177 2.177 0 0 0-.563.297c-.367.274-.605.461-.718.563l-.453.406c.07.262.164.621.28 1.078.196.774.333 1.227.407 1.36.063.148.129.218.203.218.063 0 .133-.031.219-.094.188-.132.383-.347.594-.64l.187.125c-.386.492-.683.812-.89.969-.211.156-.403.234-.579.234a.4.4 0 0 1-.343-.172c-.149-.207-.387-1.039-.719-2.5l-.734.64L.953 0H.11l1.797-6.125.14-.531c.02-.082.032-.16.032-.235 0-.082-.039-.148-.11-.203-.062-.062-.155-.093-.28-.093-.086 0-.215.015-.391.046v-.187zm0 0"/>
  <path id="o" d="M5.234-4.86 3.47 1.204c-.086.281-.125.461-.125.547 0 .082.02.148.062.203.04.063.098.11.172.14.113.04.258.063.438.063l-.047.203H1.39l.046-.203c.352-.031.57-.062.657-.094a.722.722 0 0 0 .328-.265c.094-.125.191-.383.297-.766l.75-2.64C3-.922 2.555-.438 2.14-.156c-.293.195-.563.297-.813.297a.904.904 0 0 1-.812-.438C.336-.586.25-.907.25-1.25c0-.54.164-1.11.5-1.703a4.436 4.436 0 0 1 1.313-1.469c.425-.289.812-.437 1.156-.437.25 0 .457.062.625.187.164.125.289.324.375.594l.172-.61ZM4-3.811a.775.775 0 0 0-.219-.563.666.666 0 0 0-.5-.219c-.437 0-.902.375-1.39 1.125-.493.75-.735 1.461-.735 2.125 0 .274.063.48.188.625.125.137.27.203.437.203.219 0 .469-.125.75-.375a4.444 4.444 0 0 0 1.047-1.406C3.86-2.879 4-3.383 4-3.812Zm0 0"/>
  <path id="q" d="m2.438-4.86-.376 1.235c.395-.457.743-.773 1.047-.953a1.83 1.83 0 0 1 .954-.281c.312 0 .582.125.812.375.227.25.344.578.344.984 0 .793-.324 1.594-.969 2.406C3.602-.28 2.852.125 2 .125c-.18 0-.34-.023-.484-.063a1.454 1.454 0 0 1-.454-.203L.672 1.25c-.086.27-.125.445-.125.531 0 .07.02.133.062.188.04.062.11.11.204.14.093.032.28.047.562.047l-.063.203h-2.53l.062-.203c.336-.023.558-.086.672-.187.117-.094.234-.367.359-.813L1.25-3.562c.082-.29.125-.473.125-.547a.273.273 0 0 0-.094-.22c-.054-.062-.136-.093-.25-.093-.105 0-.25.016-.437.047v-.219zM1.188-.561c.218.261.515.39.89.39.188 0 .379-.05.578-.156.196-.102.383-.254.563-.453.187-.207.351-.442.5-.703.144-.27.273-.582.39-.938.125-.363.188-.723.188-1.078 0-.29-.07-.508-.203-.656a.565.565 0 0 0-.453-.235c-.399 0-.782.227-1.157.672a4.16 4.16 0 0 0-.828 1.547zm0 0"/>
  <path id="v" d="M2.469-7c.144 0 .27.055.375.156a.542.542 0 0 1 .156.39.513.513 0 0 1-.156.376.51.51 0 0 1-.375.156.552.552 0 0 1-.39-.156.498.498 0 0 1-.157-.375A.536.536 0 0 1 2.469-7Zm.062 2.14L1.47-1.093c-.074.25-.11.403-.11.453 0 .063.016.11.047.141a.2.2 0 0 0 .125.047c.051 0 .117-.024.203-.078.196-.164.399-.395.61-.688l.187.125a3.605 3.605 0 0 1-.86.938C1.43.03 1.196.125.97.125A.522.522 0 0 1 .609 0a.45.45 0 0 1-.14-.328c0-.133.047-.36.14-.672l.704-2.406c.113-.383.171-.63.171-.735a.213.213 0 0 0-.093-.187.305.305 0 0 0-.22-.078c-.085 0-.25.023-.5.062v-.218Zm0 0"/>
  <path id="w" d="m3.281-4.734-.11.359h-.78l-.594 2.344C1.535-1 1.27-.195 1 .375c-.375.79-.777 1.344-1.203 1.656-.332.227-.664.344-1 .344a.815.815 0 0 1-.547-.188.45.45 0 0 1-.172-.359.38.38 0 0 1 .14-.297.491.491 0 0 1 .345-.125c.093 0 .18.032.25.094a.281.281 0 0 1 .093.203c0 .082-.039.156-.125.219-.05.05-.078.094-.078.125s.012.05.031.062c.032.032.086.047.157.047.156 0 .324-.054.5-.156.168-.094.32-.234.453-.422.125-.187.242-.465.36-.828C.253.594.39.098.608-.734l.938-3.641H.609l.079-.36c.3 0 .507-.019.625-.062a.678.678 0 0 0 .328-.234c.093-.114.222-.332.39-.657.207-.425.41-.757.61-1 .257-.312.535-.546.828-.703.289-.164.566-.25.828-.25.27 0 .488.075.656.22.164.136.25.28.25.437a.485.485 0 0 1-.125.328.418.418 0 0 1-.312.125.408.408 0 0 1-.282-.094.345.345 0 0 1-.093-.234c0-.063.02-.133.062-.22.05-.081.078-.14.078-.171 0-.05-.015-.086-.047-.11a.433.433 0 0 0-.218-.046c-.22 0-.422.07-.61.203-.242.2-.453.496-.64.89-.094.22-.274.747-.532 1.579zm0 0"/>
  <path id="y" d="M.922-4.734h3.422v.14L.609-.734h1.579c.374 0 .609-.008.703-.032a.638.638 0 0 0 .28-.187c.095-.094.192-.266.298-.516h.187L3.187 0h-3.5v-.156l3.735-3.86H1.859c-.324 0-.523.008-.593.016a.694.694 0 0 0-.297.172 1.739 1.739 0 0 0-.297.453H.469Zm0 0"/>
  <path id="m" d="M3.688 6.61h-.079c-.668 0-1.171-.446-1.515-1.329-.336-.781-.5-1.836-.5-3.156l.015-8.828c0-1.25-.308-1.879-.921-1.89v-.47l.265-.03c.438-.145.656-.774.656-1.891l-.015-8.813c0-1.344.18-2.414.547-3.219.351-.8.867-1.203 1.546-1.203v.469l-.343.047-.266.156c-.574.43-.871 1.543-.89 3.344l-.047 8.39c-.024 1.387-.352 2.387-.985 3 .633.594.961 1.602.985 3.016l.046 8.36c.02 2.363.508 3.554 1.47 3.578h.03zm0 0"/>
  <path id="B" d="M.688 6.61v-.47l.343-.046c.758-.262 1.14-1.438 1.14-3.532 0-.93-.01-2.328-.03-4.203a268.22 268.22 0 0 1-.047-4.187c0-1.32.328-2.317.984-2.984-.656-.614-.984-1.614-.984-3 0-.926.015-2.333.047-4.22.02-1.874.03-3.273.03-4.202 0-2.344-.495-3.516-1.483-3.516v-.469h.078c.644 0 1.14.414 1.484 1.235.352.824.531 1.898.531 3.218 0 1.055-.039 2.516-.11 4.391-.054 1.96-.077 3.422-.077 4.39 0 1.282.328 1.922.984 1.922h.11v.47l-.329.03c-.511.137-.765.766-.765 1.891 0 .98.023 2.445.078 4.39.07 1.9.11 3.364.11 4.407 0 2.988-.7 4.484-2.095 4.484zm0 0"/>
  <path id="z" d="m1.297-6.563 1.766-.875h.187v6.157c0 .406.016.664.047.765A.432.432 0 0 0 3.5-.28c.113.054.336.078.672.078V0h-2.75v-.203c.344 0 .562-.024.656-.078a.464.464 0 0 0 .219-.203c.039-.094.062-.36.062-.797V-5.22c0-.531-.015-.867-.046-1.015a.461.461 0 0 0-.157-.25.36.36 0 0 0-.234-.079c-.125 0-.309.055-.547.157zm0 0"/>
 </defs>
 <g fill="var(--text-color)">
  <use transform="translate(-125.46 -364.88)" x="125.4" y="385.3" xlink:href="#a"/>
  <use transform="translate(-125.46 -364.88)" x="125.4" y="393.6" xlink:href="#b"/>
  <use transform="translate(-125.46 -364.88)" x="129.1" y="393.6" xlink:href="#c"/>
  <use transform="translate(-125.46 -364.88)" x="134.4" y="393.6" xlink:href="#d"/>
  <use transform="translate(-125.46 -364.88)" x="129.1" y="372.6" xlink:href="#e"/>
  <use transform="translate(-125.46 -364.88)" x="141.1" y="377.9" xlink:href="#f"/>
  <use transform="translate(-125.46 -364.88)" x="147.9" y="371.9" xlink:href="#b"/>
  <use transform="translate(-125.46 -364.88)" x="152.4" y="377.9" xlink:href="#g"/>
  <use transform="translate(-125.46 -364.88)" x="157.7" y="371.9" xlink:href="#h"/>
  <use transform="translate(-125.46 -364.88)" x="162.9" y="371.9" xlink:href="#i"/>
  <path d="m14.936 15.818h26.203v-0.5h-26.203z" fill-rule="evenodd"/>
  <use transform="translate(-125.46 -364.88)" x="149.4" y="391.3" xlink:href="#j"/>
  <use transform="translate(-125.46 -364.88)" x="155.4" y="391.3" xlink:href="#k"/>
  <use transform="translate(-125.46 -364.88)" x="165.9" y="383.8" xlink:href="#l"/>
  <use transform="translate(-125.46 -364.88)" x="171.2" y="389.1" xlink:href="#m"/>
  <use transform="translate(-125.46 -364.88)" x="175.7" y="377.9" xlink:href="#n"/>
  <use transform="translate(-125.46 -364.88)" x="179.4" y="377.9" xlink:href="#o"/>
  <use transform="translate(-125.46 -364.88)" x="186.2" y="377.9" xlink:href="#p"/>
  <use transform="translate(-125.46 -364.88)" x="192.2" y="377.9" xlink:href="#q"/>
  <use transform="translate(-125.46 -364.88)" x="198.1" y="377.9" xlink:href="#r"/>
  <use transform="translate(-125.46 -364.88)" x="201.1" y="372.6" xlink:href="#s"/>
  <use transform="translate(-125.46 -364.88)" x="204.2" y="372.6" xlink:href="#t"/>
  <use transform="translate(-125.46 -364.88)" x="207.2" y="372.6" xlink:href="#h"/>
  <use transform="translate(-125.46 -364.88)" x="213.1" y="372.6" xlink:href="#b"/>
  <use transform="translate(-125.46 -364.88)" x="216.9" y="372.6" xlink:href="#u"/>
  <use transform="translate(-125.46 -364.88)" x="228.9" y="377.9" xlink:href="#v"/>
  <use transform="translate(-125.46 -364.88)" x="231.902" y="377.9" xlink:href="#w"/>
  <use transform="translate(-125.46 -364.88)" x="238.6" y="377.9" xlink:href="#j"/>
  <use transform="translate(-125.46 -364.88)" x="244.7" y="377.9" xlink:href="#x"/>
  <use transform="translate(-125.46 -364.88)" x="255.1" y="377.9" xlink:href="#y"/>
  <use transform="translate(-125.46 -364.88)" x="194.4" y="391.3" xlink:href="#z"/>
  <use transform="translate(-125.46 -364.88)" x="228.9" y="391.3" xlink:href="#v"/>
  <use transform="translate(-125.46 -364.88)" x="231.902" y="391.3" xlink:href="#w"/>
  <use transform="translate(-125.46 -364.88)" x="238.6" y="391.3" xlink:href="#j"/>
  <use transform="translate(-125.46 -364.88)" x="244.7" y="391.3" xlink:href="#A"/>
  <use transform="translate(-125.46 -364.88)" x="255.1" y="391.3" xlink:href="#y"/>
  <use transform="translate(-125.46 -364.88)" x="260.4" y="389.1" xlink:href="#B"/>
 </g>
</svg>
