<?xml version="1.0" encoding="UTF-8" standalone="no"?>
<!-- Created with Inkscape (http://www.inkscape.org/) -->

<svg
   height="35.25mm"
   viewBox="0 0 61.52 15.25"
   version="1.1"
   id="diag2"
   xmlns="http://www.w3.org/2000/svg"
   xmlns:svg="http://www.w3.org/2000/svg">
  <defs
     id="defs1">
    <clipPath
       id="clip-0">
      <path
         clip-rule="nonzero"
         d="M 189.80078,598 H 225 v 1 h -35.19922 z m 0,0"
         id="path110" />
    </clipPath>
    <clipPath
       id="clip-1">
      <path
         clip-rule="nonzero"
         d="m 415,596 h 7.60156 v 5 H 415 Z m 0,0"
         id="path111" />
    </clipPath>
    <clipPath
       id="clip-2">
      <path
         clip-rule="nonzero"
         d="m 206,615 h 92 v 35.39844 h -92 z m 0,0"
         id="path112" />
    </clipPath>
    <clipPath
       id="clip-3">
      <path
         clip-rule="nonzero"
         d="m 337,592.69922 h 23 V 610 h -23 z m 0,0"
         id="path113" />
    </clipPath>
    <clipPath
       id="clip-4">
      <path
         clip-rule="nonzero"
         d="m 337,592.69922 h 23 V 611 h -23 z m 0,0"
         id="path114" />
    </clipPath>
    <clipPath
       id="clip-5">
      <path
         clip-rule="nonzero"
         d="m 314,615 h 92 v 35.39844 h -92 z m 0,0"
         id="path115" />
    </clipPath>
    <clipPath
       id="clip-6">
      <path
         clip-rule="nonzero"
         d="m 229,592.69922 h 24 V 610 h -24 z m 0,0"
         id="path116" />
    </clipPath>
    <clipPath
       id="clip-7">
      <path
         clip-rule="nonzero"
         d="m 229,592.69922 h 24 V 611 h -24 z m 0,0"
         id="path117" />
    </clipPath>
  </defs>
  <g
     id="layer1"
     transform="translate(-55.827083,-111.91874)">
    <path
       fill-rule="evenodd"
       fill="var(--text-color)"
       fill-opacity="1"
       d="m 66.330835,113.45353 -1.799373,0.60875 v -1.2175 z m 0,0"
       id="path2192"
       style="stroke-width:0.264583" />
    <g
       clip-path="url(#clip-0)"
       id="g2193"
       transform="matrix(0.26458333,0,0,0.26458333,5.6089603,-44.89959)">
      <path
         fill="none"
         stroke-width="0.1"
         stroke-linecap="butt"
         stroke-linejoin="miter"
         stroke="var(--text-color)"
         stroke-opacity="1"
         stroke-miterlimit="10"
         d="M 189.80078,193.5 H 224"
         transform="matrix(1,0,0,-1,0,792)"
         id="path2193" />
    </g>
    <path
       fill-rule="evenodd"
       fill="var(--text-color)"
       fill-opacity="1"
       d="m 94.826253,114.96145 -1.799373,0.60875 v -1.2175 z m 0,0"
       id="path2194"
       style="stroke-width:0.264583" />
    <path
       fill="none"
       stroke-width="0.0264583"
       stroke-linecap="butt"
       stroke-linejoin="miter"
       stroke="var(--text-color)"
       stroke-opacity="1"
       stroke-miterlimit="10"
       d="m 90.328336,114.96145 h 3.06958"
       id="path2195" />
    <g
       clip-path="url(#clip-1)"
       id="g2196"
       transform="matrix(0.26458333,0,0,0.26458333,5.6089603,-44.89959)">
      <path
         fill-rule="evenodd"
         fill="var(--text-color)"
         fill-opacity="1"
         d="M 422.30078,598.5 415.5,600.80078 v -4.60156 z m 0,0"
         id="path2196" />
    </g>
    <path
       fill="none"
       stroke-width="0.0264583"
       stroke-linecap="butt"
       stroke-linejoin="miter"
       stroke="var(--text-color)"
       stroke-opacity="1"
       stroke-miterlimit="10"
       d="M 99.324169,113.45354 H 115.8875"
       id="path2197" />
    <g
       clip-path="url(#clip-2)"
       id="g2198"
       transform="matrix(0.26458333,0,0,0.26458333,5.6089603,-44.89959)">
      <path
         fill-rule="evenodd"
         fill="var(--background-color)"
         fill-opacity="1"
         stroke-width="0.12"
         stroke-linecap="butt"
         stroke-linejoin="round"
         stroke="var(--text-color)"
         stroke-opacity="1"
         stroke-miterlimit="10"
         d="m 252.19922,141.69922 h -45.39844 v 34.60156 H 297.5 v -34.60156 z m 0,0"
         transform="matrix(1,0,0,-1,0,792)"
         id="path2198" />
    </g>
    <g
       fill="var(--text-color)"
       fill-opacity="1"
       id="g2199"
       transform="matrix(0.26458333,0,0,0.26458333,5.6089603,-44.89959)">
      <g
         id="use2198"
         transform="translate(212.2,626.09998)">
        <path
           d="m 0.515625,0 v -5.15625 h 1.90625 c 0.382813,0 0.691406,0.054688 0.921875,0.15625 0.238281,0.105469 0.425781,0.265625 0.5625,0.484375 0.132812,0.21875 0.203125,0.445313 0.203125,0.671875 0,0.230469 -0.0625,0.445312 -0.1875,0.640625 -0.117187,0.1875 -0.292969,0.339844 -0.53125,0.453125 0.3125,0.09375 0.550781,0.257812 0.71875,0.484375 0.164063,0.21875 0.25,0.476563 0.25,0.765625 0,0.25 -0.054687,0.480469 -0.15625,0.6875 -0.105469,0.199219 -0.230469,0.355469 -0.375,0.46875 -0.148437,0.117188 -0.335937,0.203125 -0.5625,0.265625 C 3.046875,-0.0234375 2.773438,0 2.453125,0 Z M 1.1875,-2.984375 h 1.109375 c 0.289063,0 0.503906,-0.019531 0.640625,-0.0625 0.164062,-0.050781 0.289062,-0.132813 0.375,-0.25 0.09375,-0.125 0.140625,-0.273437 0.140625,-0.453125 0,-0.175781 -0.042969,-0.328125 -0.125,-0.453125 C 3.242188,-4.335938 3.125,-4.425781 2.96875,-4.46875 2.820312,-4.519531 2.566406,-4.546875 2.203125,-4.546875 H 1.1875 Z m 0,2.375 h 1.265625 c 0.21875,0 0.367187,-0.007813 0.453125,-0.03125 0.15625,-0.019531 0.285156,-0.0625 0.390625,-0.125 0.101563,-0.070313 0.1875,-0.171875 0.25,-0.296875 C 3.617188,-1.1875 3.65625,-1.332031 3.65625,-1.5 3.65625,-1.6875 3.601562,-1.847656 3.5,-1.984375 3.40625,-2.128906 3.269531,-2.226562 3.09375,-2.28125 2.925781,-2.34375 2.679688,-2.375 2.359375,-2.375 H 1.1875 Z m 0,0"
           id="path32" />
      </g>
    </g>
    <g
       fill="var(--text-color)"
       fill-opacity="1"
       id="g2200"
       transform="matrix(0.26458333,0,0,0.26458333,5.6089603,-44.89959)">
      <g
         id="use2199"
         transform="translate(216.99884,626.09998)">
        <path
           d="m 0.453125,0 v -5.15625 h 0.625 V 0 Z m 0,0"
           id="path1" />
      </g>
    </g>
    <g
       fill="var(--text-color)"
       fill-opacity="1"
       id="g2201"
       transform="matrix(0.26458333,0,0,0.26458333,5.6089603,-44.89959)">
      <g
         id="use2200"
         transform="translate(218.60083,626.09998)">
        <path
           d="m 0.234375,-1.875 c 0,-0.6875 0.1875,-1.195312 0.5625,-1.53125 0.320313,-0.269531 0.707031,-0.40625 1.15625,-0.40625 0.507813,0 0.925781,0.167969 1.25,0.5 0.320313,0.335938 0.484375,0.796875 0.484375,1.390625 0,0.480469 -0.074219,0.859375 -0.21875,1.140625 -0.148438,0.273438 -0.355469,0.484375 -0.625,0.640625 -0.273438,0.14453125 -0.570312,0.21875 -0.890625,0.21875 -0.511719,0 -0.929687,-0.1640625 -1.25,-0.5 -0.3125,-0.332031 -0.46875,-0.816406 -0.46875,-1.453125 z m 0.640625,0 c 0,0.480469 0.101562,0.839844 0.3125,1.078125 0.207031,0.242187 0.460938,0.359375 0.765625,0.359375 0.3125,0 0.570313,-0.117188 0.78125,-0.359375 0.207031,-0.238281 0.3125,-0.601563 0.3125,-1.09375 0,-0.457031 -0.105469,-0.804687 -0.3125,-1.046875 -0.210937,-0.238281 -0.46875,-0.359375 -0.78125,-0.359375 -0.304687,0 -0.558594,0.121094 -0.765625,0.359375 C 0.976562,-2.695312 0.875,-2.34375 0.875,-1.875 Z m 0,0"
           id="path22" />
      </g>
    </g>
    <g
       fill="var(--text-color)"
       fill-opacity="1"
       id="g2202"
       transform="matrix(0.26458333,0,0,0.26458333,5.6089603,-44.89959)">
      <g
         id="use2201"
         transform="translate(222.49945,626.09998)">
        <path
           d="m 2.875,-1.375 0.609375,0.09375 c -0.074219,0.429688 -0.25,0.761719 -0.53125,1 -0.273437,0.2421875 -0.605469,0.359375 -1,0.359375 -0.511719,0 -0.917969,-0.1640625 -1.21875,-0.5 -0.304687,-0.332031 -0.453125,-0.8125 -0.453125,-1.4375 0,-0.394531 0.0625,-0.742187 0.1875,-1.046875 0.132812,-0.300781 0.335938,-0.523438 0.609375,-0.671875 0.269531,-0.15625 0.5625,-0.234375 0.875,-0.234375 0.394531,0 0.71875,0.105469 0.96875,0.3125 0.257813,0.199219 0.425781,0.484375 0.5,0.859375 L 2.8125,-2.546875 c -0.054688,-0.25 -0.152344,-0.4375 -0.296875,-0.5625 -0.148437,-0.125 -0.324219,-0.1875 -0.53125,-0.1875 -0.324219,0 -0.585937,0.117187 -0.78125,0.34375 -0.1875,0.230469 -0.28125,0.589844 -0.28125,1.078125 0,0.5 0.09375,0.867188 0.28125,1.09375 0.1875,0.230469 0.429687,0.34375 0.734375,0.34375 0.25,0 0.453125,-0.070312 0.609375,-0.21875 C 2.710938,-0.8125 2.820312,-1.050781 2.875,-1.375 Z m 0,0"
           id="path40" />
      </g>
    </g>
    <g
       fill="var(--text-color)"
       fill-opacity="1"
       id="g2203"
       transform="matrix(0.26458333,0,0,0.26458333,5.6089603,-44.89959)">
      <g
         id="use2202"
         transform="translate(226.10036,626.09998)">
        <path
           d="m 0.46875,0 v -5.15625 h 0.625 v 2.9375 L 2.5625,-3.734375 H 3.375 L 1.96875,-2.34375 3.515625,0 H 2.75 L 1.53125,-1.90625 1.09375,-1.484375 V 0 Z m 0,0"
           id="path4" />
      </g>
    </g>
    <path
       fill-rule="evenodd"
       fill="var(--background-color)"
       fill-opacity="1"
       stroke-width="0.03175"
       stroke-linecap="butt"
       stroke-linejoin="round"
       stroke="var(--text-color)"
       stroke-opacity="1"
       stroke-miterlimit="10"
       d="m 64.822916,125.62437 h -2.989998 v -3.04271 h 6.005835 v 3.04271 z m 0,0"
       id="path2203" />
    <g
       fill="var(--text-color)"
       fill-opacity="1"
       id="g2204"
       transform="matrix(0.26458333,0,0,0.26458333,5.6089603,-44.89959)">
      <g
         id="use2203"
         transform="translate(217,641.70001)">
        <path
           d="M 0.65625,0 V -5.15625 H 1.328125 V 0 Z m 0,0"
           id="path6" />
      </g>
    </g>
    <g
       fill="var(--text-color)"
       fill-opacity="1"
       id="g2205"
       transform="matrix(0.26458333,0,0,0.26458333,5.6089603,-44.89959)">
      <g
         id="use2204"
         transform="translate(218.99893,641.70001)">
        <path
           d="M 1.828125,-0.5625 1.921875,0 c -0.179687,0.03125 -0.335937,0.046875 -0.46875,0.046875 -0.230469,0 -0.40625,-0.0390625 -0.53125,-0.109375 -0.125,-0.070312 -0.214844,-0.164062 -0.265625,-0.28125 -0.054688,-0.125 -0.078125,-0.375 -0.078125,-0.75 V -3.25 H 0.125 V -3.734375 H 0.578125 V -4.65625 l 0.625,-0.390625 v 1.3125 h 0.625 V -3.25 h -0.625 v 2.1875 c 0,0.1875 0.00781,0.308594 0.03125,0.359375 0.019531,0.042969 0.054687,0.078125 0.109375,0.109375 0.050781,0.03125 0.125,0.046875 0.21875,0.046875 0.0625,0 0.148438,-0.003906 0.265625,-0.015625 z m 0,0"
           id="path14" />
      </g>
    </g>
    <g
       fill="var(--text-color)"
       fill-opacity="1"
       id="g2206"
       transform="matrix(0.26458333,0,0,0.26458333,5.6089603,-44.89959)">
      <g
         id="use2205"
         transform="translate(220.89862,641.70001)">
        <path
           d="M 2.984375,-1.203125 3.625,-1.125 c -0.09375,0.386719 -0.28125,0.683594 -0.5625,0.890625 -0.273438,0.2109375 -0.621094,0.3125 -1.046875,0.3125 -0.542969,0 -0.96875,-0.1640625 -1.28125,-0.5 -0.3125,-0.332031 -0.46875,-0.804687 -0.46875,-1.421875 0,-0.625 0.15625,-1.109375 0.46875,-1.453125 0.320313,-0.34375 0.738281,-0.515625 1.25,-0.515625 0.488281,0 0.890625,0.171875 1.203125,0.515625 0.3125,0.335937 0.46875,0.808594 0.46875,1.421875 0,0.042969 -0.00781,0.101562 -0.015625,0.171875 H 0.90625 c 0.019531,0.40625 0.132812,0.71875 0.34375,0.9375 0.207031,0.21875 0.460938,0.328125 0.765625,0.328125 0.226563,0 0.421875,-0.054688 0.578125,-0.171875 0.164062,-0.125 0.296875,-0.320313 0.390625,-0.59375 z M 0.9375,-2.21875 H 3 C 2.96875,-2.539062 2.882812,-2.78125 2.75,-2.9375 2.550781,-3.175781 2.296875,-3.296875 1.984375,-3.296875 1.703125,-3.296875 1.460938,-3.195312 1.265625,-3 1.066406,-2.8125 0.957031,-2.550781 0.9375,-2.21875 Z m 0,0"
           id="path18" />
      </g>
    </g>
    <g
       fill="var(--text-color)"
       fill-opacity="1"
       id="g2207"
       transform="matrix(0.26458333,0,0,0.26458333,5.6089603,-44.89959)">
      <g
         id="use2206"
         transform="translate(224.89648,641.70001)">
        <path
           d="m 0.46875,0 v -3.734375 h 0.5625 V -3.21875 C 1.144531,-3.394531 1.296875,-3.535156 1.484375,-3.640625 1.679688,-3.753906 1.898438,-3.8125 2.140625,-3.8125 c 0.269531,0 0.492187,0.058594 0.671875,0.171875 0.175781,0.117187 0.300781,0.273437 0.375,0.46875 0.28125,-0.425781 0.65625,-0.640625 1.125,-0.640625 0.363281,0 0.644531,0.105469 0.84375,0.3125 0.195312,0.199219 0.296875,0.511719 0.296875,0.9375 V 0 h -0.625 v -2.359375 c 0,-0.25 -0.023437,-0.425781 -0.0625,-0.53125 -0.042969,-0.113281 -0.117187,-0.203125 -0.21875,-0.265625 -0.105469,-0.070312 -0.230469,-0.109375 -0.375,-0.109375 -0.25,0 -0.464844,0.089844 -0.640625,0.265625 -0.167969,0.167969 -0.25,0.445312 -0.25,0.828125 V 0 h -0.625 v -2.421875 c 0,-0.28125 -0.054688,-0.488281 -0.15625,-0.625 C 2.394531,-3.191406 2.226562,-3.265625 2,-3.265625 1.820312,-3.265625 1.660156,-3.21875 1.515625,-3.125 1.367188,-3.03125 1.257812,-2.894531 1.1875,-2.71875 1.125,-2.539062 1.09375,-2.28125 1.09375,-1.9375 V 0 Z m 0,0"
           id="path36" />
      </g>
    </g>
    <path
       fill-rule="evenodd"
       fill="var(--background-color)"
       fill-opacity="1"
       stroke-width="0.03175"
       stroke-linecap="butt"
       stroke-linejoin="round"
       stroke="var(--text-color)"
       stroke-opacity="1"
       stroke-miterlimit="10"
       d="m 72.33667,125.62437 h -3.015837 v -3.04271 h 6.005835 v 3.04271 z m 0,0"
       id="path2207" />
    <g
       fill="var(--text-color)"
       fill-opacity="1"
       id="g2208"
       transform="matrix(0.26458333,0,0,0.26458333,5.6089603,-44.89959)">
      <g
         id="use2207"
         transform="translate(245.3,641.70001)">
        <path
           d="M 0.65625,0 V -5.15625 H 1.328125 V 0 Z m 0,0"
           id="path7" />
      </g>
    </g>
    <g
       fill="var(--text-color)"
       fill-opacity="1"
       id="g2209"
       transform="matrix(0.26458333,0,0,0.26458333,5.6089603,-44.89959)">
      <g
         id="use2208"
         transform="translate(247.29893,641.70001)">
        <path
           d="M 1.828125,-0.5625 1.921875,0 c -0.179687,0.03125 -0.335937,0.046875 -0.46875,0.046875 -0.230469,0 -0.40625,-0.0390625 -0.53125,-0.109375 -0.125,-0.070312 -0.214844,-0.164062 -0.265625,-0.28125 -0.054688,-0.125 -0.078125,-0.375 -0.078125,-0.75 V -3.25 H 0.125 V -3.734375 H 0.578125 V -4.65625 l 0.625,-0.390625 v 1.3125 h 0.625 V -3.25 h -0.625 v 2.1875 c 0,0.1875 0.00781,0.308594 0.03125,0.359375 0.019531,0.042969 0.054687,0.078125 0.109375,0.109375 0.050781,0.03125 0.125,0.046875 0.21875,0.046875 0.0625,0 0.148438,-0.003906 0.265625,-0.015625 z m 0,0"
           id="path15" />
      </g>
    </g>
    <g
       fill="var(--text-color)"
       fill-opacity="1"
       id="g2210"
       transform="matrix(0.26458333,0,0,0.26458333,5.6089603,-44.89959)">
      <g
         id="use2209"
         transform="translate(249.29785,641.70001)">
        <path
           d="M 2.984375,-1.203125 3.625,-1.125 c -0.09375,0.386719 -0.28125,0.683594 -0.5625,0.890625 -0.273438,0.2109375 -0.621094,0.3125 -1.046875,0.3125 -0.542969,0 -0.96875,-0.1640625 -1.28125,-0.5 -0.3125,-0.332031 -0.46875,-0.804687 -0.46875,-1.421875 0,-0.625 0.15625,-1.109375 0.46875,-1.453125 0.320313,-0.34375 0.738281,-0.515625 1.25,-0.515625 0.488281,0 0.890625,0.171875 1.203125,0.515625 0.3125,0.335937 0.46875,0.808594 0.46875,1.421875 0,0.042969 -0.00781,0.101562 -0.015625,0.171875 H 0.90625 c 0.019531,0.40625 0.132812,0.71875 0.34375,0.9375 0.207031,0.21875 0.460938,0.328125 0.765625,0.328125 0.226563,0 0.421875,-0.054688 0.578125,-0.171875 0.164062,-0.125 0.296875,-0.320313 0.390625,-0.59375 z M 0.9375,-2.21875 H 3 C 2.96875,-2.539062 2.882812,-2.78125 2.75,-2.9375 2.550781,-3.175781 2.296875,-3.296875 1.984375,-3.296875 1.703125,-3.296875 1.460938,-3.195312 1.265625,-3 1.066406,-2.8125 0.957031,-2.550781 0.9375,-2.21875 Z m 0,0"
           id="path19" />
      </g>
    </g>
    <g
       fill="var(--text-color)"
       fill-opacity="1"
       id="g2211"
       transform="matrix(0.26458333,0,0,0.26458333,5.6089603,-44.89959)">
      <g
         id="use2210"
         transform="translate(253.29572,641.70001)">
        <path
           d="m 0.46875,0 v -3.734375 h 0.5625 V -3.21875 C 1.144531,-3.394531 1.296875,-3.535156 1.484375,-3.640625 1.679688,-3.753906 1.898438,-3.8125 2.140625,-3.8125 c 0.269531,0 0.492187,0.058594 0.671875,0.171875 0.175781,0.117187 0.300781,0.273437 0.375,0.46875 0.28125,-0.425781 0.65625,-0.640625 1.125,-0.640625 0.363281,0 0.644531,0.105469 0.84375,0.3125 0.195312,0.199219 0.296875,0.511719 0.296875,0.9375 V 0 h -0.625 v -2.359375 c 0,-0.25 -0.023437,-0.425781 -0.0625,-0.53125 -0.042969,-0.113281 -0.117187,-0.203125 -0.21875,-0.265625 -0.105469,-0.070312 -0.230469,-0.109375 -0.375,-0.109375 -0.25,0 -0.464844,0.089844 -0.640625,0.265625 -0.167969,0.167969 -0.25,0.445312 -0.25,0.828125 V 0 h -0.625 v -2.421875 c 0,-0.28125 -0.054688,-0.488281 -0.15625,-0.625 C 2.394531,-3.191406 2.226562,-3.265625 2,-3.265625 1.820312,-3.265625 1.660156,-3.21875 1.515625,-3.125 1.367188,-3.03125 1.257812,-2.894531 1.1875,-2.71875 1.125,-2.539062 1.09375,-2.28125 1.09375,-1.9375 V 0 Z m 0,0"
           id="path37" />
      </g>
    </g>
    <path
       fill-rule="evenodd"
       fill="var(--background-color)"
       fill-opacity="1"
       stroke-width="0.03175"
       stroke-linecap="butt"
       stroke-linejoin="round"
       stroke="var(--text-color)"
       stroke-opacity="1"
       stroke-miterlimit="10"
       d="m 79.824584,125.62437 h -2.989998 v -3.04271 h 6.005836 v 3.04271 z m 0,0"
       id="path2211" />
    <g
       fill="var(--text-color)"
       fill-opacity="1"
       id="g2212"
       transform="matrix(0.26458333,0,0,0.26458333,5.6089603,-44.89959)">
      <g
         id="use2211"
         transform="translate(277.79999,641.70001)">
        <path
           d="m 0.640625,0 v -0.71875 h 0.71875 V 0 Z m 0,0"
           id="path26" />
      </g>
    </g>
    <g
       fill="var(--text-color)"
       fill-opacity="1"
       id="g2213"
       transform="matrix(0.26458333,0,0,0.26458333,5.6089603,-44.89959)">
      <g
         id="use2212"
         transform="translate(279.79892,641.70001)">
        <path
           d="m 0.640625,0 v -0.71875 h 0.71875 V 0 Z m 0,0"
           id="path27" />
      </g>
    </g>
    <g
       fill="var(--text-color)"
       fill-opacity="1"
       id="g2214"
       transform="matrix(0.26458333,0,0,0.26458333,5.6089603,-44.89959)">
      <g
         id="use2213"
         transform="translate(281.79785,641.70001)">
        <path
           d="m 0.640625,0 v -0.71875 h 0.71875 V 0 Z m 0,0"
           id="path28" />
      </g>
    </g>
    <g
       clip-path="url(#clip-3)"
       id="g2215"
       transform="matrix(0.26458333,0,0,0.26458333,5.6089603,-44.89959)">
      <path
         fill-rule="evenodd"
         fill="var(--background-color)"
         fill-opacity="1"
         d="m 348.60156,610 h -11.40234 v -17.30078 h 22.69922 V 610 Z m 0,0"
         id="path2214" />
    </g>
    <g
       clip-path="url(#clip-4)"
       id="g2216"
       transform="matrix(0.26458333,0,0,0.26458333,5.6089603,-44.89959)">
      <path
         fill="none"
         stroke-width="0.12"
         stroke-linecap="butt"
         stroke-linejoin="round"
         stroke="var(--text-color)"
         stroke-opacity="1"
         stroke-miterlimit="10"
         d="m 348.60156,182 h -11.40234 v 17.30078 h 22.69922 V 182 Z m 0,0"
         transform="matrix(1,0,0,-1,0,792)"
         id="path2215" />
    </g>
    <g
       fill="var(--text-color)"
       fill-opacity="1"
       id="g2217"
       transform="matrix(0.26458333,0,0,0.26458333,5.6089603,-44.89959)">
      <g
         id="use2216"
         transform="translate(340.39999,604.5)">
        <path
           d="m 0.5625,0 v -5.15625 h 0.671875 v 2.125 H 3.875 v -2.125 H 4.546875 V 0 H 3.875 V -2.4375 H 1.234375 V 0 Z m 0,0"
           id="path34" />
      </g>
    </g>
    <g
       fill="var(--text-color)"
       fill-opacity="1"
       id="g2218"
       transform="matrix(0.26458333,0,0,0.26458333,5.6089603,-44.89959)">
      <g
         id="use2217"
         transform="translate(345.49655,604.5)">
        <path
           d="M 2.875,-0.453125 C 2.632812,-0.253906 2.40625,-0.113281 2.1875,-0.03125 1.976562,0.0390625 1.753906,0.078125 1.515625,0.078125 c -0.40625,0 -0.71875,-0.0976562 -0.9375,-0.296875 C 0.359375,-0.414062 0.25,-0.671875 0.25,-0.984375 c 0,-0.1875 0.039062,-0.351563 0.125,-0.5 0.082031,-0.15625 0.191406,-0.273437 0.328125,-0.359375 0.132813,-0.09375 0.285156,-0.164062 0.453125,-0.21875 0.113281,-0.03125 0.296875,-0.0625 0.546875,-0.09375 0.5,-0.0625 0.867187,-0.132812 1.109375,-0.21875 0,-0.082031 0,-0.132812 0,-0.15625 0,-0.257812 -0.058594,-0.441406 -0.171875,-0.546875 C 2.484375,-3.222656 2.25,-3.296875 1.9375,-3.296875 c -0.292969,0 -0.511719,0.054687 -0.65625,0.15625 -0.136719,0.105469 -0.242188,0.292969 -0.3125,0.5625 l -0.609375,-0.09375 c 0.0625,-0.257813 0.15625,-0.472656 0.28125,-0.640625 0.125,-0.164062 0.304687,-0.289062 0.546875,-0.375 0.238281,-0.082031 0.515625,-0.125 0.828125,-0.125 0.320313,0 0.578125,0.039062 0.765625,0.109375 0.195312,0.074219 0.34375,0.167969 0.4375,0.28125 C 3.3125,-3.304688 3.378906,-3.164062 3.421875,-3 c 0.019531,0.117188 0.03125,0.3125 0.03125,0.59375 v 0.84375 c 0,0.585938 0.00781,0.953125 0.03125,1.109375 C 3.515625,-0.296875 3.566406,-0.144531 3.640625,0 H 3 C 2.925781,-0.132812 2.882812,-0.285156 2.875,-0.453125 Z M 2.8125,-1.875 C 2.59375,-1.78125 2.253906,-1.703125 1.796875,-1.640625 1.535156,-1.597656 1.351562,-1.550781 1.25,-1.5 1.144531,-1.457031 1.0625,-1.390625 1,-1.296875 0.945312,-1.210938 0.921875,-1.113281 0.921875,-1 c 0,0.167969 0.0625,0.308594 0.1875,0.421875 0.125,0.117187 0.304687,0.171875 0.546875,0.171875 0.238281,0 0.453125,-0.050781 0.640625,-0.15625 0.1875,-0.113281 0.328125,-0.265625 0.421875,-0.453125 0.0625,-0.132813 0.09375,-0.34375 0.09375,-0.625 z m 0,0"
           id="path12" />
      </g>
    </g>
    <g
       fill="var(--text-color)"
       fill-opacity="1"
       id="g2219"
       transform="matrix(0.26458333,0,0,0.26458333,5.6089603,-44.89959)">
      <g
         id="use2218"
         transform="translate(349.49442,604.5)">
        <path
           d="M 0.21875,-1.109375 0.828125,-1.21875 c 0.039063,0.25 0.140625,0.445312 0.296875,0.578125 0.15625,0.136719 0.375,0.203125 0.65625,0.203125 0.289062,0 0.503906,-0.054688 0.640625,-0.171875 C 2.554688,-0.734375 2.625,-0.875 2.625,-1.03125 2.625,-1.175781 2.566406,-1.289062 2.453125,-1.375 2.367188,-1.425781 2.15625,-1.492188 1.8125,-1.578125 c -0.460938,-0.125 -0.777344,-0.226563 -0.953125,-0.3125 -0.179687,-0.082031 -0.3125,-0.195313 -0.40625,-0.34375 -0.085937,-0.15625 -0.125,-0.328125 -0.125,-0.515625 0,-0.164062 0.035156,-0.316406 0.109375,-0.453125 0.070312,-0.144531 0.171875,-0.265625 0.296875,-0.359375 0.101563,-0.070312 0.238281,-0.128906 0.40625,-0.171875 0.164063,-0.050781 0.34375,-0.078125 0.53125,-0.078125 0.289063,0 0.546875,0.042969 0.765625,0.125 0.21875,0.085938 0.378906,0.199219 0.484375,0.34375 0.101563,0.136719 0.175781,0.328125 0.21875,0.578125 L 2.53125,-2.6875 C 2.5,-2.875 2.414062,-3.019531 2.28125,-3.125 2.144531,-3.238281 1.957031,-3.296875 1.71875,-3.296875 c -0.28125,0 -0.484375,0.046875 -0.609375,0.140625 -0.125,0.09375 -0.1875,0.210938 -0.1875,0.34375 0,0.085938 0.023437,0.15625 0.078125,0.21875 0.050781,0.0625 0.128906,0.121094 0.234375,0.171875 0.0625,0.023437 0.25,0.074219 0.5625,0.15625 0.4375,0.125 0.738281,0.226563 0.90625,0.296875 0.175781,0.074219 0.3125,0.183594 0.40625,0.328125 0.101563,0.148437 0.15625,0.328125 0.15625,0.546875 0,0.210938 -0.0625,0.40625 -0.1875,0.59375 C 2.960938,-0.3125 2.789062,-0.164062 2.5625,-0.0625 2.332031,0.03125 2.078125,0.078125 1.796875,0.078125 c -0.480469,0 -0.84375,-0.0976562 -1.09375,-0.296875 -0.25,-0.195312 -0.414063,-0.492188 -0.484375,-0.890625 z m 0,0"
           id="path10" />
      </g>
    </g>
    <g
       fill="var(--text-color)"
       fill-opacity="1"
       id="g2220"
       transform="matrix(0.26458333,0,0,0.26458333,5.6089603,-44.89959)">
      <g
         id="use2219"
         transform="translate(353.09534,604.5)">
        <path
           d="m 0.46875,0 v -5.15625 h 0.625 v 1.84375 c 0.289062,-0.332031 0.65625,-0.5 1.09375,-0.5 0.269531,0 0.503906,0.054688 0.703125,0.15625 0.207031,0.105469 0.351563,0.257812 0.4375,0.453125 0.09375,0.1875 0.140625,0.46875 0.140625,0.84375 V 0 h -0.625 V -2.359375 C 2.84375,-2.679688 2.773438,-2.914062 2.640625,-3.0625 2.503906,-3.207031 2.3125,-3.28125 2.0625,-3.28125 1.875,-3.28125 1.695312,-3.226562 1.53125,-3.125 1.375,-3.03125 1.257812,-2.898438 1.1875,-2.734375 1.125,-2.566406 1.09375,-2.335938 1.09375,-2.046875 V 0 Z m 0,0"
           id="path24" />
      </g>
    </g>
    <g
       clip-path="url(#clip-5)"
       id="g2221"
       transform="matrix(0.26458333,0,0,0.26458333,5.6089603,-44.89959)">
      <path
         fill-rule="evenodd"
         fill="var(--background-color)"
         fill-opacity="1"
         stroke-width="0.12"
         stroke-linecap="butt"
         stroke-linejoin="round"
         stroke="var(--text-color)"
         stroke-opacity="1"
         stroke-miterlimit="10"
         d="M 359.89844,141.69922 H 314.5 v 34.60156 h 90.80078 v -34.60156 z m 0,0"
         transform="matrix(1,0,0,-1,0,792)"
         id="path2220" />
    </g>
    <g
       fill="var(--text-color)"
       fill-opacity="1"
       id="g2222"
       transform="matrix(0.26458333,0,0,0.26458333,5.6089603,-44.89959)">
      <g
         id="use2221"
         transform="translate(320.29999,626.09998)">
        <path
           d="m 0.515625,0 v -5.15625 h 1.90625 c 0.382813,0 0.691406,0.054688 0.921875,0.15625 0.238281,0.105469 0.425781,0.265625 0.5625,0.484375 0.132812,0.21875 0.203125,0.445313 0.203125,0.671875 0,0.230469 -0.0625,0.445312 -0.1875,0.640625 -0.117187,0.1875 -0.292969,0.339844 -0.53125,0.453125 0.3125,0.09375 0.550781,0.257812 0.71875,0.484375 0.164063,0.21875 0.25,0.476563 0.25,0.765625 0,0.25 -0.054687,0.480469 -0.15625,0.6875 -0.105469,0.199219 -0.230469,0.355469 -0.375,0.46875 -0.148437,0.117188 -0.335937,0.203125 -0.5625,0.265625 C 3.046875,-0.0234375 2.773438,0 2.453125,0 Z M 1.1875,-2.984375 h 1.109375 c 0.289063,0 0.503906,-0.019531 0.640625,-0.0625 0.164062,-0.050781 0.289062,-0.132813 0.375,-0.25 0.09375,-0.125 0.140625,-0.273437 0.140625,-0.453125 0,-0.175781 -0.042969,-0.328125 -0.125,-0.453125 C 3.242188,-4.335938 3.125,-4.425781 2.96875,-4.46875 2.820312,-4.519531 2.566406,-4.546875 2.203125,-4.546875 H 1.1875 Z m 0,2.375 h 1.265625 c 0.21875,0 0.367187,-0.007813 0.453125,-0.03125 0.15625,-0.019531 0.285156,-0.0625 0.390625,-0.125 0.101563,-0.070313 0.1875,-0.171875 0.25,-0.296875 C 3.617188,-1.1875 3.65625,-1.332031 3.65625,-1.5 3.65625,-1.6875 3.601562,-1.847656 3.5,-1.984375 3.40625,-2.128906 3.269531,-2.226562 3.09375,-2.28125 2.925781,-2.34375 2.679688,-2.375 2.359375,-2.375 H 1.1875 Z m 0,0"
           id="path33" />
      </g>
    </g>
    <g
       fill="var(--text-color)"
       fill-opacity="1"
       id="g2223"
       transform="matrix(0.26458333,0,0,0.26458333,5.6089603,-44.89959)">
      <g
         id="use2222"
         transform="translate(325.09885,626.09998)">
        <path
           d="m 0.453125,0 v -5.15625 h 0.625 V 0 Z m 0,0"
           id="path3" />
      </g>
    </g>
    <g
       fill="var(--text-color)"
       fill-opacity="1"
       id="g2224"
       transform="matrix(0.26458333,0,0,0.26458333,5.6089603,-44.89959)">
      <g
         id="use2223"
         transform="translate(326.70084,626.09998)">
        <path
           d="m 0.234375,-1.875 c 0,-0.6875 0.1875,-1.195312 0.5625,-1.53125 0.320313,-0.269531 0.707031,-0.40625 1.15625,-0.40625 0.507813,0 0.925781,0.167969 1.25,0.5 0.320313,0.335938 0.484375,0.796875 0.484375,1.390625 0,0.480469 -0.074219,0.859375 -0.21875,1.140625 -0.148438,0.273438 -0.355469,0.484375 -0.625,0.640625 -0.273438,0.14453125 -0.570312,0.21875 -0.890625,0.21875 -0.511719,0 -0.929687,-0.1640625 -1.25,-0.5 -0.3125,-0.332031 -0.46875,-0.816406 -0.46875,-1.453125 z m 0.640625,0 c 0,0.480469 0.101562,0.839844 0.3125,1.078125 0.207031,0.242187 0.460938,0.359375 0.765625,0.359375 0.3125,0 0.570313,-0.117188 0.78125,-0.359375 0.207031,-0.238281 0.3125,-0.601563 0.3125,-1.09375 0,-0.457031 -0.105469,-0.804687 -0.3125,-1.046875 -0.210937,-0.238281 -0.46875,-0.359375 -0.78125,-0.359375 -0.304687,0 -0.558594,0.121094 -0.765625,0.359375 C 0.976562,-2.695312 0.875,-2.34375 0.875,-1.875 Z m 0,0"
           id="path23" />
      </g>
    </g>
    <g
       fill="var(--text-color)"
       fill-opacity="1"
       id="g2225"
       transform="matrix(0.26458333,0,0,0.26458333,5.6089603,-44.89959)">
      <g
         id="use2224"
         transform="translate(330.59946,626.09998)">
        <path
           d="m 2.875,-1.375 0.609375,0.09375 c -0.074219,0.429688 -0.25,0.761719 -0.53125,1 -0.273437,0.2421875 -0.605469,0.359375 -1,0.359375 -0.511719,0 -0.917969,-0.1640625 -1.21875,-0.5 -0.304687,-0.332031 -0.453125,-0.8125 -0.453125,-1.4375 0,-0.394531 0.0625,-0.742187 0.1875,-1.046875 0.132812,-0.300781 0.335938,-0.523438 0.609375,-0.671875 0.269531,-0.15625 0.5625,-0.234375 0.875,-0.234375 0.394531,0 0.71875,0.105469 0.96875,0.3125 0.257813,0.199219 0.425781,0.484375 0.5,0.859375 L 2.8125,-2.546875 c -0.054688,-0.25 -0.152344,-0.4375 -0.296875,-0.5625 -0.148437,-0.125 -0.324219,-0.1875 -0.53125,-0.1875 -0.324219,0 -0.585937,0.117187 -0.78125,0.34375 -0.1875,0.230469 -0.28125,0.589844 -0.28125,1.078125 0,0.5 0.09375,0.867188 0.28125,1.09375 0.1875,0.230469 0.429687,0.34375 0.734375,0.34375 0.25,0 0.453125,-0.070312 0.609375,-0.21875 C 2.710938,-0.8125 2.820312,-1.050781 2.875,-1.375 Z m 0,0"
           id="path41" />
      </g>
    </g>
    <g
       fill="var(--text-color)"
       fill-opacity="1"
       id="g2226"
       transform="matrix(0.26458333,0,0,0.26458333,5.6089603,-44.89959)">
      <g
         id="use2225"
         transform="translate(334.20035,626.09998)">
        <path
           d="m 0.46875,0 v -5.15625 h 0.625 v 2.9375 L 2.5625,-3.734375 H 3.375 L 1.96875,-2.34375 3.515625,0 H 2.75 L 1.53125,-1.90625 1.09375,-1.484375 V 0 Z m 0,0"
           id="path5" />
      </g>
    </g>
    <path
       fill-rule="evenodd"
       fill="var(--background-color)"
       fill-opacity="1"
       stroke-width="0.03175"
       stroke-linecap="butt"
       stroke-linejoin="round"
       stroke="var(--text-color)"
       stroke-opacity="1"
       stroke-miterlimit="10"
       d="m 93.345205,125.62437 h -3.016869 v -3.04271 h 6.005835 v 3.04271 z m 0,0"
       id="path2226" />
    <g
       fill="var(--text-color)"
       fill-opacity="1"
       id="g2227"
       transform="matrix(0.26458333,0,0,0.26458333,5.6089603,-44.89959)">
      <g
         id="use2226"
         transform="translate(324.5,641.70001)">
        <path
           d="M 0.65625,0 V -5.15625 H 1.328125 V 0 Z m 0,0"
           id="path8" />
      </g>
    </g>
    <g
       fill="var(--text-color)"
       fill-opacity="1"
       id="g2228"
       transform="matrix(0.26458333,0,0,0.26458333,5.6089603,-44.89959)">
      <g
         id="use2227"
         transform="translate(326.49893,641.70001)">
        <path
           d="M 1.828125,-0.5625 1.921875,0 c -0.179687,0.03125 -0.335937,0.046875 -0.46875,0.046875 -0.230469,0 -0.40625,-0.0390625 -0.53125,-0.109375 -0.125,-0.070312 -0.214844,-0.164062 -0.265625,-0.28125 -0.054688,-0.125 -0.078125,-0.375 -0.078125,-0.75 V -3.25 H 0.125 V -3.734375 H 0.578125 V -4.65625 l 0.625,-0.390625 v 1.3125 h 0.625 V -3.25 h -0.625 v 2.1875 c 0,0.1875 0.00781,0.308594 0.03125,0.359375 0.019531,0.042969 0.054687,0.078125 0.109375,0.109375 0.050781,0.03125 0.125,0.046875 0.21875,0.046875 0.0625,0 0.148438,-0.003906 0.265625,-0.015625 z m 0,0"
           id="path16" />
      </g>
    </g>
    <g
       fill="var(--text-color)"
       fill-opacity="1"
       id="g2229"
       transform="matrix(0.26458333,0,0,0.26458333,5.6089603,-44.89959)">
      <g
         id="use2228"
         transform="translate(328.49786,641.70001)">
        <path
           d="M 2.984375,-1.203125 3.625,-1.125 c -0.09375,0.386719 -0.28125,0.683594 -0.5625,0.890625 -0.273438,0.2109375 -0.621094,0.3125 -1.046875,0.3125 -0.542969,0 -0.96875,-0.1640625 -1.28125,-0.5 -0.3125,-0.332031 -0.46875,-0.804687 -0.46875,-1.421875 0,-0.625 0.15625,-1.109375 0.46875,-1.453125 0.320313,-0.34375 0.738281,-0.515625 1.25,-0.515625 0.488281,0 0.890625,0.171875 1.203125,0.515625 0.3125,0.335937 0.46875,0.808594 0.46875,1.421875 0,0.042969 -0.00781,0.101562 -0.015625,0.171875 H 0.90625 c 0.019531,0.40625 0.132812,0.71875 0.34375,0.9375 0.207031,0.21875 0.460938,0.328125 0.765625,0.328125 0.226563,0 0.421875,-0.054688 0.578125,-0.171875 0.164062,-0.125 0.296875,-0.320313 0.390625,-0.59375 z M 0.9375,-2.21875 H 3 C 2.96875,-2.539062 2.882812,-2.78125 2.75,-2.9375 2.550781,-3.175781 2.296875,-3.296875 1.984375,-3.296875 1.703125,-3.296875 1.460938,-3.195312 1.265625,-3 1.066406,-2.8125 0.957031,-2.550781 0.9375,-2.21875 Z m 0,0"
           id="path20" />
      </g>
    </g>
    <g
       fill="var(--text-color)"
       fill-opacity="1"
       id="g2230"
       transform="matrix(0.26458333,0,0,0.26458333,5.6089603,-44.89959)">
      <g
         id="use2229"
         transform="translate(332.39648,641.70001)">
        <path
           d="m 0.46875,0 v -3.734375 h 0.5625 V -3.21875 C 1.144531,-3.394531 1.296875,-3.535156 1.484375,-3.640625 1.679688,-3.753906 1.898438,-3.8125 2.140625,-3.8125 c 0.269531,0 0.492187,0.058594 0.671875,0.171875 0.175781,0.117187 0.300781,0.273437 0.375,0.46875 0.28125,-0.425781 0.65625,-0.640625 1.125,-0.640625 0.363281,0 0.644531,0.105469 0.84375,0.3125 0.195312,0.199219 0.296875,0.511719 0.296875,0.9375 V 0 h -0.625 v -2.359375 c 0,-0.25 -0.023437,-0.425781 -0.0625,-0.53125 -0.042969,-0.113281 -0.117187,-0.203125 -0.21875,-0.265625 -0.105469,-0.070312 -0.230469,-0.109375 -0.375,-0.109375 -0.25,0 -0.464844,0.089844 -0.640625,0.265625 -0.167969,0.167969 -0.25,0.445312 -0.25,0.828125 V 0 h -0.625 v -2.421875 c 0,-0.28125 -0.054688,-0.488281 -0.15625,-0.625 C 2.394531,-3.191406 2.226562,-3.265625 2,-3.265625 1.820312,-3.265625 1.660156,-3.21875 1.515625,-3.125 1.367188,-3.03125 1.257812,-2.894531 1.1875,-2.71875 1.125,-2.539062 1.09375,-2.28125 1.09375,-1.9375 V 0 Z m 0,0"
           id="path38" />
      </g>
    </g>
    <path
       fill-rule="evenodd"
       fill="var(--background-color)"
       fill-opacity="1"
       stroke-width="0.03175"
       stroke-linecap="butt"
       stroke-linejoin="round"
       stroke="var(--text-color)"
       stroke-opacity="1"
       stroke-miterlimit="10"
       d="m 100.83209,125.62437 h -2.988968 v -3.04271 h 6.005838 v 3.04271 z m 0,0"
       id="path2230" />
    <g
       fill="var(--text-color)"
       fill-opacity="1"
       id="g2231"
       transform="matrix(0.26458333,0,0,0.26458333,5.6089603,-44.89959)">
      <g
         id="use2230"
         transform="translate(352.79999,641.70001)">
        <path
           d="M 0.65625,0 V -5.15625 H 1.328125 V 0 Z m 0,0"
           id="path9" />
      </g>
    </g>
    <g
       fill="var(--text-color)"
       fill-opacity="1"
       id="g2232"
       transform="matrix(0.26458333,0,0,0.26458333,5.6089603,-44.89959)">
      <g
         id="use2231"
         transform="translate(354.79892,641.70001)">
        <path
           d="M 1.828125,-0.5625 1.921875,0 c -0.179687,0.03125 -0.335937,0.046875 -0.46875,0.046875 -0.230469,0 -0.40625,-0.0390625 -0.53125,-0.109375 -0.125,-0.070312 -0.214844,-0.164062 -0.265625,-0.28125 -0.054688,-0.125 -0.078125,-0.375 -0.078125,-0.75 V -3.25 H 0.125 V -3.734375 H 0.578125 V -4.65625 l 0.625,-0.390625 v 1.3125 h 0.625 V -3.25 h -0.625 v 2.1875 c 0,0.1875 0.00781,0.308594 0.03125,0.359375 0.019531,0.042969 0.054687,0.078125 0.109375,0.109375 0.050781,0.03125 0.125,0.046875 0.21875,0.046875 0.0625,0 0.148438,-0.003906 0.265625,-0.015625 z m 0,0"
           id="path17" />
      </g>
    </g>
    <g
       fill="var(--text-color)"
       fill-opacity="1"
       id="g2233"
       transform="matrix(0.26458333,0,0,0.26458333,5.6089603,-44.89959)">
      <g
         id="use2232"
         transform="translate(356.79785,641.70001)">
        <path
           d="M 2.984375,-1.203125 3.625,-1.125 c -0.09375,0.386719 -0.28125,0.683594 -0.5625,0.890625 -0.273438,0.2109375 -0.621094,0.3125 -1.046875,0.3125 -0.542969,0 -0.96875,-0.1640625 -1.28125,-0.5 -0.3125,-0.332031 -0.46875,-0.804687 -0.46875,-1.421875 0,-0.625 0.15625,-1.109375 0.46875,-1.453125 0.320313,-0.34375 0.738281,-0.515625 1.25,-0.515625 0.488281,0 0.890625,0.171875 1.203125,0.515625 0.3125,0.335937 0.46875,0.808594 0.46875,1.421875 0,0.042969 -0.00781,0.101562 -0.015625,0.171875 H 0.90625 c 0.019531,0.40625 0.132812,0.71875 0.34375,0.9375 0.207031,0.21875 0.460938,0.328125 0.765625,0.328125 0.226563,0 0.421875,-0.054688 0.578125,-0.171875 0.164062,-0.125 0.296875,-0.320313 0.390625,-0.59375 z M 0.9375,-2.21875 H 3 C 2.96875,-2.539062 2.882812,-2.78125 2.75,-2.9375 2.550781,-3.175781 2.296875,-3.296875 1.984375,-3.296875 1.703125,-3.296875 1.460938,-3.195312 1.265625,-3 1.066406,-2.8125 0.957031,-2.550781 0.9375,-2.21875 Z m 0,0"
           id="path21" />
      </g>
    </g>
    <g
       fill="var(--text-color)"
       fill-opacity="1"
       id="g2234"
       transform="matrix(0.26458333,0,0,0.26458333,5.6089603,-44.89959)">
      <g
         id="use2233"
         transform="translate(360.79572,641.70001)">
        <path
           d="m 0.46875,0 v -3.734375 h 0.5625 V -3.21875 C 1.144531,-3.394531 1.296875,-3.535156 1.484375,-3.640625 1.679688,-3.753906 1.898438,-3.8125 2.140625,-3.8125 c 0.269531,0 0.492187,0.058594 0.671875,0.171875 0.175781,0.117187 0.300781,0.273437 0.375,0.46875 0.28125,-0.425781 0.65625,-0.640625 1.125,-0.640625 0.363281,0 0.644531,0.105469 0.84375,0.3125 0.195312,0.199219 0.296875,0.511719 0.296875,0.9375 V 0 h -0.625 v -2.359375 c 0,-0.25 -0.023437,-0.425781 -0.0625,-0.53125 -0.042969,-0.113281 -0.117187,-0.203125 -0.21875,-0.265625 -0.105469,-0.070312 -0.230469,-0.109375 -0.375,-0.109375 -0.25,0 -0.464844,0.089844 -0.640625,0.265625 -0.167969,0.167969 -0.25,0.445312 -0.25,0.828125 V 0 h -0.625 v -2.421875 c 0,-0.28125 -0.054688,-0.488281 -0.15625,-0.625 C 2.394531,-3.191406 2.226562,-3.265625 2,-3.265625 1.820312,-3.265625 1.660156,-3.21875 1.515625,-3.125 1.367188,-3.03125 1.257812,-2.894531 1.1875,-2.71875 1.125,-2.539062 1.09375,-2.28125 1.09375,-1.9375 V 0 Z m 0,0"
           id="path39" />
      </g>
    </g>
    <path
       fill-rule="evenodd"
       fill="var(--background-color)"
       fill-opacity="1"
       stroke-width="0.03175"
       stroke-linecap="butt"
       stroke-linejoin="round"
       stroke="var(--text-color)"
       stroke-opacity="1"
       stroke-miterlimit="10"
       d="M 108.34687,125.62437 H 105.33 v -3.04271 h 6.00687 v 3.04271 z m 0,0"
       id="path2234" />
    <g
       fill="var(--text-color)"
       fill-opacity="1"
       id="g2235"
       transform="matrix(0.26458333,0,0,0.26458333,5.6089603,-44.89959)">
      <g
         id="use2234"
         transform="translate(385.29999,641.70001)">
        <path
           d="m 0.640625,0 v -0.71875 h 0.71875 V 0 Z m 0,0"
           id="path29" />
      </g>
    </g>
    <g
       fill="var(--text-color)"
       fill-opacity="1"
       id="g2236"
       transform="matrix(0.26458333,0,0,0.26458333,5.6089603,-44.89959)">
      <g
         id="use2235"
         transform="translate(387.29892,641.70001)">
        <path
           d="m 0.640625,0 v -0.71875 h 0.71875 V 0 Z m 0,0"
           id="path30" />
      </g>
    </g>
    <g
       fill="var(--text-color)"
       fill-opacity="1"
       id="g2237"
       transform="matrix(0.26458333,0,0,0.26458333,5.6089603,-44.89959)">
      <g
         id="use2236"
         transform="translate(389.29785,641.70001)">
        <path
           d="m 0.640625,0 v -0.71875 h 0.71875 V 0 Z m 0,0"
           id="path31" />
      </g>
    </g>
    <path
       fill="none"
       stroke-width="0.03175"
       stroke-linecap="butt"
       stroke-linejoin="round"
       stroke="var(--text-color)"
       stroke-opacity="1"
       stroke-miterlimit="10"
       d="m 90.328336,118.00416 v -3.04271"
       id="path2237" />
    <path
       fill-rule="evenodd"
       fill="var(--text-color)"
       fill-opacity="1"
       d="m 66.330835,114.96145 -1.799373,0.60875 v -1.2175 z m 0,0"
       id="path2238"
       style="stroke-width:0.264583" />
    <path
       fill="none"
       stroke-width="0.0264583"
       stroke-linecap="butt"
       stroke-linejoin="miter"
       stroke="var(--text-color)"
       stroke-opacity="1"
       stroke-miterlimit="10"
       d="m 61.832918,114.96145 h 3.042708"
       id="path2239" />
    <path
       fill-rule="evenodd"
       fill="var(--text-color)"
       fill-opacity="1"
       d="m 94.826253,113.45353 -1.799373,0.60875 v -1.2175 z m 0,0"
       id="path2240"
       style="stroke-width:0.264583" />
    <path
       fill="none"
       stroke-width="0.0264583"
       stroke-linecap="butt"
       stroke-linejoin="miter"
       stroke="var(--text-color)"
       stroke-opacity="1"
       stroke-miterlimit="10"
       d="M 72.33667,113.45354 H 93.397916"
       id="path2241" />
    <g
       clip-path="url(#clip-6)"
       id="g2242"
       transform="matrix(0.26458333,0,0,0.26458333,5.6089603,-44.89959)">
      <path
         fill-rule="evenodd"
         fill="var(--background-color)"
         fill-opacity="1"
         d="M 240.80078,610 H 229.5 v -17.30078 h 22.69922 V 610 Z m 0,0"
         id="path2242" />
    </g>
    <g
       clip-path="url(#clip-7)"
       id="g2243"
       transform="matrix(0.26458333,0,0,0.26458333,5.6089603,-44.89959)">
      <path
         fill="none"
         stroke-width="0.12"
         stroke-linecap="butt"
         stroke-linejoin="round"
         stroke="var(--text-color)"
         stroke-opacity="1"
         stroke-miterlimit="10"
         d="M 240.80078,182 H 229.5 v 17.30078 h 22.69922 V 182 Z m 0,0"
         transform="matrix(1,0,0,-1,0,792)"
         id="path2243" />
    </g>
    <g
       fill="var(--text-color)"
       fill-opacity="1"
       id="g2244"
       transform="matrix(0.26458333,0,0,0.26458333,5.6089603,-44.89959)">
      <g
         id="use2243"
         transform="translate(232.3,604.5)">
        <path
           d="m 0.5625,0 v -5.15625 h 0.671875 v 2.125 H 3.875 v -2.125 H 4.546875 V 0 H 3.875 V -2.4375 H 1.234375 V 0 Z m 0,0"
           id="path35" />
      </g>
    </g>
    <g
       fill="var(--text-color)"
       fill-opacity="1"
       id="g2245"
       transform="matrix(0.26458333,0,0,0.26458333,5.6089603,-44.89959)">
      <g
         id="use2244"
         transform="translate(237.39656,604.5)">
        <path
           d="M 2.875,-0.453125 C 2.632812,-0.253906 2.40625,-0.113281 2.1875,-0.03125 1.976562,0.0390625 1.753906,0.078125 1.515625,0.078125 c -0.40625,0 -0.71875,-0.0976562 -0.9375,-0.296875 C 0.359375,-0.414062 0.25,-0.671875 0.25,-0.984375 c 0,-0.1875 0.039062,-0.351563 0.125,-0.5 0.082031,-0.15625 0.191406,-0.273437 0.328125,-0.359375 0.132813,-0.09375 0.285156,-0.164062 0.453125,-0.21875 0.113281,-0.03125 0.296875,-0.0625 0.546875,-0.09375 0.5,-0.0625 0.867187,-0.132812 1.109375,-0.21875 0,-0.082031 0,-0.132812 0,-0.15625 0,-0.257812 -0.058594,-0.441406 -0.171875,-0.546875 C 2.484375,-3.222656 2.25,-3.296875 1.9375,-3.296875 c -0.292969,0 -0.511719,0.054687 -0.65625,0.15625 -0.136719,0.105469 -0.242188,0.292969 -0.3125,0.5625 l -0.609375,-0.09375 c 0.0625,-0.257813 0.15625,-0.472656 0.28125,-0.640625 0.125,-0.164062 0.304687,-0.289062 0.546875,-0.375 0.238281,-0.082031 0.515625,-0.125 0.828125,-0.125 0.320313,0 0.578125,0.039062 0.765625,0.109375 0.195312,0.074219 0.34375,0.167969 0.4375,0.28125 C 3.3125,-3.304688 3.378906,-3.164062 3.421875,-3 c 0.019531,0.117188 0.03125,0.3125 0.03125,0.59375 v 0.84375 c 0,0.585938 0.00781,0.953125 0.03125,1.109375 C 3.515625,-0.296875 3.566406,-0.144531 3.640625,0 H 3 C 2.925781,-0.132812 2.882812,-0.285156 2.875,-0.453125 Z M 2.8125,-1.875 C 2.59375,-1.78125 2.253906,-1.703125 1.796875,-1.640625 1.535156,-1.597656 1.351562,-1.550781 1.25,-1.5 1.144531,-1.457031 1.0625,-1.390625 1,-1.296875 0.945312,-1.210938 0.921875,-1.113281 0.921875,-1 c 0,0.167969 0.0625,0.308594 0.1875,0.421875 0.125,0.117187 0.304687,0.171875 0.546875,0.171875 0.238281,0 0.453125,-0.050781 0.640625,-0.15625 0.1875,-0.113281 0.328125,-0.265625 0.421875,-0.453125 0.0625,-0.132813 0.09375,-0.34375 0.09375,-0.625 z m 0,0"
           id="path13" />
      </g>
    </g>
    <g
       fill="var(--text-color)"
       fill-opacity="1"
       id="g2246"
       transform="matrix(0.26458333,0,0,0.26458333,5.6089603,-44.89959)">
      <g
         id="use2245"
         transform="translate(241.39442,604.5)">
        <path
           d="M 0.21875,-1.109375 0.828125,-1.21875 c 0.039063,0.25 0.140625,0.445312 0.296875,0.578125 0.15625,0.136719 0.375,0.203125 0.65625,0.203125 0.289062,0 0.503906,-0.054688 0.640625,-0.171875 C 2.554688,-0.734375 2.625,-0.875 2.625,-1.03125 2.625,-1.175781 2.566406,-1.289062 2.453125,-1.375 2.367188,-1.425781 2.15625,-1.492188 1.8125,-1.578125 c -0.460938,-0.125 -0.777344,-0.226563 -0.953125,-0.3125 -0.179687,-0.082031 -0.3125,-0.195313 -0.40625,-0.34375 -0.085937,-0.15625 -0.125,-0.328125 -0.125,-0.515625 0,-0.164062 0.035156,-0.316406 0.109375,-0.453125 0.070312,-0.144531 0.171875,-0.265625 0.296875,-0.359375 0.101563,-0.070312 0.238281,-0.128906 0.40625,-0.171875 0.164063,-0.050781 0.34375,-0.078125 0.53125,-0.078125 0.289063,0 0.546875,0.042969 0.765625,0.125 0.21875,0.085938 0.378906,0.199219 0.484375,0.34375 0.101563,0.136719 0.175781,0.328125 0.21875,0.578125 L 2.53125,-2.6875 C 2.5,-2.875 2.414062,-3.019531 2.28125,-3.125 2.144531,-3.238281 1.957031,-3.296875 1.71875,-3.296875 c -0.28125,0 -0.484375,0.046875 -0.609375,0.140625 -0.125,0.09375 -0.1875,0.210938 -0.1875,0.34375 0,0.085938 0.023437,0.15625 0.078125,0.21875 0.050781,0.0625 0.128906,0.121094 0.234375,0.171875 0.0625,0.023437 0.25,0.074219 0.5625,0.15625 0.4375,0.125 0.738281,0.226563 0.90625,0.296875 0.175781,0.074219 0.3125,0.183594 0.40625,0.328125 0.101563,0.148437 0.15625,0.328125 0.15625,0.546875 0,0.210938 -0.0625,0.40625 -0.1875,0.59375 C 2.960938,-0.3125 2.789062,-0.164062 2.5625,-0.0625 2.332031,0.03125 2.078125,0.078125 1.796875,0.078125 c -0.480469,0 -0.84375,-0.0976562 -1.09375,-0.296875 -0.25,-0.195312 -0.414063,-0.492188 -0.484375,-0.890625 z m 0,0"
           id="path11" />
      </g>
    </g>
    <g
       fill="var(--text-color)"
       fill-opacity="1"
       id="g2247"
       transform="matrix(0.26458333,0,0,0.26458333,5.6089603,-44.89959)">
      <g
         id="use2246"
         transform="translate(244.99533,604.5)">
        <path
           d="m 0.46875,0 v -5.15625 h 0.625 v 1.84375 c 0.289062,-0.332031 0.65625,-0.5 1.09375,-0.5 0.269531,0 0.503906,0.054688 0.703125,0.15625 0.207031,0.105469 0.351563,0.257812 0.4375,0.453125 0.09375,0.1875 0.140625,0.46875 0.140625,0.84375 V 0 h -0.625 V -2.359375 C 2.84375,-2.679688 2.773438,-2.914062 2.640625,-3.0625 2.503906,-3.207031 2.3125,-3.28125 2.0625,-3.28125 1.875,-3.28125 1.695312,-3.226562 1.53125,-3.125 1.375,-3.03125 1.257812,-2.898438 1.1875,-2.734375 1.125,-2.566406 1.09375,-2.335938 1.09375,-2.046875 V 0 Z m 0,0"
           id="path25" />
      </g>
    </g>
    <path
       fill="none"
       stroke-width="0.03175"
       stroke-linecap="butt"
       stroke-linejoin="round"
       stroke="var(--text-color)"
       stroke-opacity="1"
       stroke-miterlimit="10"
       d="m 61.832918,118.00416 v -3.04271"
       id="path2247" />
  </g>
</svg>
