<svg xmlns="http://www.w3.org/2000/svg" height="35.25mm" viewBox="0 0 62.48 13.7"><path fill="var(--background-color)" fill-rule="evenodd" d="M19.05 13.731H6.085V0h25.903v13.731zm0 0"/><path fill="none" stroke="var(--text-color)" stroke-linejoin="round" stroke-miterlimit="10" stroke-width=".031749599999999996" d="M19.05 13.731H6.085V0h25.903v13.731zm0 0"/><path fill="var(--text-color)" d="M7.76 2.83V1.468h.51c.103 0 .187.014.251.04.063.029.112.071.145.13a.342.342 0 0 1 .054.177.31.31 0 0 1-.05.17.324.324 0 0 1-.14.12.356.356 0 0 1 .19.127.33.33 0 0 1 .066.203.409.409 0 0 1-.042.182.315.315 0 0 1-.099.124.415.415 0 0 1-.149.07.932.932 0 0 1-.219.02Zm.178-.789h.294c.08 0 .137-.005.173-.016a.186.186 0 0 0 .104-.066.212.212 0 0 0 .033-.12.215.215 0 0 0-.033-.12.143.143 0 0 0-.091-.07.715.715 0 0 0-.207-.021h-.273zm0 .629h.34c.057 0 .099-.002.123-.009a.265.265 0 0 0 .104-.033.207.207 0 0 0 .066-.078.232.232 0 0 0-.013-.244.19.19 0 0 0-.107-.079.602.602 0 0 0-.198-.025h-.315zM9.01 2.83V1.468h.17V2.83Zm0 0"/><g fill="var(--text-color)"><path d="M9.377 2.335c0-.182.05-.317.153-.405a.466.466 0 0 1 .31-.108c.134 0 .245.045.33.132a.5.5 0 0 1 .133.368c0 .127-.02.228-.058.302a.418.418 0 0 1-.17.17.497.497 0 0 1-.235.058.44.44 0 0 1-.335-.133c-.086-.088-.128-.216-.128-.384Zm.174 0c0 .127.026.222.082.285a.26.26 0 0 0 .207.095c.083 0 .15-.03.207-.095.054-.063.082-.16.082-.29a.414.414 0 0 0-.082-.276.265.265 0 0 0-.207-.095.263.263 0 0 0-.207.095c-.056.064-.082.157-.082.28zM11.142 2.467l.165.025a.427.427 0 0 1-.14.264.396.396 0 0 1-.273.096.424.424 0 0 1-.327-.133c-.08-.088-.12-.215-.12-.38 0-.105.018-.196.054-.277a.362.362 0 0 1 .161-.178.461.461 0 0 1 .236-.062c.107 0 .194.028.26.083a.364.364 0 0 1 .132.227l-.16.025a.266.266 0 0 0-.088-.149.21.21 0 0 0-.14-.05.257.257 0 0 0-.203.091c-.052.061-.078.157-.078.286 0 .132.024.23.074.29.05.06.116.09.199.09a.24.24 0 0 0 .165-.058.31.31 0 0 0 .083-.19zm0 0"/></g><path fill="var(--text-color)" d="M11.48 2.83V1.468h.166v.777l.397-.401h.215l-.376.368.413.62h-.207l-.322-.505-.12.112v.393Zm0 0"/><path fill="var(--background-color)" fill-rule="evenodd" stroke="var(--text-color)" stroke-linejoin="round" stroke-miterlimit="10" stroke-width=".032" d="M15.24 7.62H9.128V4.577h12.198V7.62zm0 0"/><path fill="var(--text-color)" d="M10.94 6.958V5.594h.516c.088 0 .158.004.207.012a.38.38 0 0 1 .166.067.322.322 0 0 1 .111.132.412.412 0 0 1 .041.182.419.419 0 0 1-.111.297c-.075.081-.207.12-.397.12h-.351v.554Zm.182-.715h.351c.116 0 .198-.022.248-.066a.23.23 0 0 0 .074-.182.23.23 0 0 0-.045-.145.203.203 0 0 0-.112-.082.763.763 0 0 0-.17-.013h-.346zM12.19 6.958V5.97h.149v.15a.41.41 0 0 1 .107-.137.191.191 0 0 1 .108-.033c.054 0 .111.018.17.053l-.055.153a.24.24 0 0 0-.124-.037.166.166 0 0 0-.099.033.196.196 0 0 0-.062.095.604.604 0 0 0-.029.195v.516Zm0 0"/><g fill="var(--text-color)"><path d="m13.503 6.64.17.02a.397.397 0 0 1-.15.236.462.462 0 0 1-.284.083.452.452 0 0 1-.344-.132c-.082-.088-.124-.213-.124-.376 0-.166.043-.294.129-.385a.432.432 0 0 1 .33-.136c.133 0 .24.045.323.136a.523.523 0 0 1 .128.376v.046h-.736a.37.37 0 0 0 .091.248.273.273 0 0 0 .207.087c.06 0 .111-.015.153-.046a.349.349 0 0 0 .107-.157zm-.55-.269h.55a.362.362 0 0 0-.062-.19.265.265 0 0 0-.207-.095.265.265 0 0 0-.194.079.296.296 0 0 0-.087.206ZM14.16 6.958l-.376-.988h.177l.211.591c.022.065.043.13.062.199.014-.052.034-.114.062-.186l.22-.604h.173l-.376.988Zm0 0"/></g><path fill="var(--text-color)" d="M15.394 6.958V5.594h.177v.562h.712v-.562h.177v1.364h-.177v-.645h-.712v.645Zm0 0"/><g fill="var(--text-color)"><path d="M17.385 6.838a.599.599 0 0 1-.178.112.605.605 0 0 1-.186.029c-.107 0-.19-.026-.248-.079a.26.26 0 0 1-.087-.202c0-.05.01-.093.033-.132a.258.258 0 0 1 .083-.095.43.43 0 0 1 .124-.058c.03-.009.08-.017.149-.025a1.6 1.6 0 0 0 .298-.058v-.041c0-.069-.017-.117-.05-.145-.041-.038-.105-.058-.19-.058a.303.303 0 0 0-.174.041c-.036.028-.064.078-.082.15l-.162-.026a.416.416 0 0 1 .07-.17.326.326 0 0 1 .15-.098.686.686 0 0 1 .223-.033c.084 0 .154.01.206.029.052.02.091.044.116.074a.25.25 0 0 1 .05.112c.005.03.008.082.008.157v.223c0 .155.004.252.012.293a.458.458 0 0 0 .042.12h-.174a.386.386 0 0 1-.033-.12Zm-.012-.376a1.199 1.199 0 0 1-.273.062.66.66 0 0 0-.15.037.14.14 0 0 0-.065.054.142.142 0 0 0-.02.079c0 .044.016.081.049.111.033.031.082.046.149.046a.34.34 0 0 0 .17-.041.265.265 0 0 0 .11-.12.37.37 0 0 0 .03-.166zM17.732 6.665l.165-.03c.01.067.037.119.079.154.04.036.1.054.177.054.077 0 .134-.015.17-.046.038-.033.058-.07.058-.112a.105.105 0 0 0-.05-.09.958.958 0 0 0-.174-.054 1.641 1.641 0 0 1-.252-.083.24.24 0 0 1-.107-.09.26.26 0 0 1-.037-.137c0-.044.009-.084.029-.12a.244.244 0 0 1 .082-.095.49.49 0 0 1 .252-.066c.077 0 .145.011.203.033.058.022.1.052.128.09a.356.356 0 0 1 .058.154l-.161.02a.18.18 0 0 0-.066-.115.227.227 0 0 0-.15-.046c-.077 0-.132.012-.165.037a.111.111 0 0 0-.05.091c0 .023.007.042.021.058a.179.179 0 0 0 .062.046c.017.006.067.02.15.04.117.034.2.06.247.08.047.02.083.048.108.086a.277.277 0 0 1-.008.302.298.298 0 0 1-.141.116.546.546 0 0 1-.207.037.473.473 0 0 1-.293-.079.367.367 0 0 1-.128-.235zm0 0"/></g><path fill="var(--text-color)" d="M18.75 6.958V5.594h.17v.488a.373.373 0 0 1 .294-.132c.074 0 .137.014.19.041a.241.241 0 0 1 .116.12c.025.05.037.124.037.223v.624h-.17v-.624c0-.085-.018-.147-.053-.186a.2.2 0 0 0-.153-.058.265.265 0 0 0-.14.042.214.214 0 0 0-.096.103.538.538 0 0 0-.025.182v.541Zm0 0"/><path fill="var(--background-color)" fill-rule="evenodd" stroke="var(--text-color)" stroke-linejoin="round" stroke-miterlimit="10" stroke-width=".032" d="M26.67 7.62h-3.81V4.577h7.62V7.62zm0 0"/><path fill="var(--text-color)" d="M24.116 6.958V5.594h.186l.715 1.07v-1.07h.17v1.364h-.182l-.715-1.07v1.07Zm0 0"/><g fill="var(--text-color)"><path d="M25.409 6.462c0-.182.05-.316.153-.405a.466.466 0 0 1 .31-.107c.134 0 .245.044.33.132a.5.5 0 0 1 .133.368c0 .127-.02.227-.058.302a.418.418 0 0 1-.17.17.497.497 0 0 1-.235.057.44.44 0 0 1-.335-.132c-.086-.088-.128-.216-.128-.385Zm.173 0c0 .127.027.222.083.285a.26.26 0 0 0 .207.096c.082 0 .15-.031.206-.096.055-.063.083-.159.083-.289a.414.414 0 0 0-.083-.277.265.265 0 0 0-.206-.095.263.263 0 0 0-.207.095c-.056.064-.083.157-.083.281zM26.528 6.958V5.97h.153v.14a.353.353 0 0 1 .314-.16c.058 0 .112.011.162.033a.24.24 0 0 1 .111.082.325.325 0 0 1 .054.124c.005.031.008.085.008.162v.607h-.165v-.6a.433.433 0 0 0-.02-.152.167.167 0 0 0-.071-.083.269.269 0 0 0-.302.041c-.05.045-.074.129-.074.253v.541ZM28.23 6.595l.166.024a.427.427 0 0 1-.14.265.396.396 0 0 1-.273.095.424.424 0 0 1-.327-.132c-.08-.088-.12-.215-.12-.38 0-.105.018-.197.054-.278a.362.362 0 0 1 .161-.177.461.461 0 0 1 .236-.062c.108 0 .194.028.26.082a.364.364 0 0 1 .133.228l-.161.024a.266.266 0 0 0-.087-.148.21.21 0 0 0-.14-.05.257.257 0 0 0-.203.091c-.053.061-.079.156-.079.285 0 .133.025.23.074.29.05.06.116.09.199.09a.24.24 0 0 0 .165-.057.31.31 0 0 0 .083-.19zm0 0"/></g><path fill="var(--text-color)" d="m29.244 6.64.17.02a.397.397 0 0 1-.15.236.462.462 0 0 1-.285.083.452.452 0 0 1-.343-.132c-.083-.088-.124-.213-.124-.376 0-.166.042-.294.128-.385a.432.432 0 0 1 .33-.136c.133 0 .24.045.323.136a.523.523 0 0 1 .128.376v.046h-.735a.37.37 0 0 0 .09.248.273.273 0 0 0 .207.087c.06 0 .112-.015.153-.046a.349.349 0 0 0 .108-.157zm-.55-.269h.55a.362.362 0 0 0-.062-.19.265.265 0 0 0-.207-.095.265.265 0 0 0-.194.079.296.296 0 0 0-.087.206Zm0 0"/><path fill="var(--background-color)" fill-rule="evenodd" stroke="var(--text-color)" stroke-linejoin="round" stroke-miterlimit="10" stroke-width=".032" d="M12.198 12.197h-3.07V9.154h6.112v3.043zm0 0"/><path fill="var(--text-color)" d="M11.604 11.562V10.36h-.446v-.161h1.079v.161h-.45v1.203ZM12.262 11.562l.364-.513-.335-.475h.207l.153.232.07.111.075-.111.165-.232h.199l-.34.463.369.525h-.207l-.203-.306-.053-.083-.26.39Zm0 0"/><path fill="var(--background-color)" fill-rule="evenodd" stroke="var(--text-color)" stroke-linejoin="round" stroke-miterlimit="10" stroke-width=".032" d="M19.817 12.197h-3.069V9.154h6.112v3.043zm0 0"/><path fill="var(--text-color)" d="M19.224 11.562V10.36h-.446v-.161h1.079v.161h-.45v1.203ZM19.882 11.562l.364-.513-.335-.475h.207l.153.232.07.111.075-.111.165-.232h.199l-.34.463.369.525h-.207l-.203-.306-.053-.083-.26.39Zm0 0"/><path fill="var(--background-color)" fill-rule="evenodd" stroke="var(--text-color)" stroke-linejoin="round" stroke-miterlimit="10" stroke-width=".032" d="M27.411 12.197H24.37V9.154h6.11v3.043zm0 0"/><path fill="var(--text-color)" d="M26.844 11.562v-.19h.19v.19ZM27.372 11.562v-.19h.19v.19ZM27.901 11.562v-.19h.19v.19Zm0 0"/><path fill="var(--text-color)" fill-rule="evenodd" d="m60.193 135.228-1.8.609v-1.217zm0 0" style="stroke-width:.264583" transform="translate(-51.065 -129.117)"/><path fill="none" stroke="var(--text-color)" stroke-miterlimit="10" stroke-width=".026458" d="M0 6.111h7.673"/><path fill="var(--background-color)" fill-rule="evenodd" stroke="var(--text-color)" stroke-linejoin="round" stroke-miterlimit="10" stroke-width=".031749599999999996" d="M49.504 13.731H36.565V0H62.47v13.731zm0 0"/><path fill="var(--text-color)" d="M38.24 2.83V1.468h.51c.103 0 .187.014.251.04.063.029.112.071.145.13a.342.342 0 0 1 .054.177.31.31 0 0 1-.05.17.324.324 0 0 1-.14.12.356.356 0 0 1 .19.127.33.33 0 0 1 .066.203.409.409 0 0 1-.042.182.315.315 0 0 1-.099.124.415.415 0 0 1-.149.07.932.932 0 0 1-.219.02Zm.178-.789h.294c.08 0 .137-.005.173-.016a.186.186 0 0 0 .104-.066.212.212 0 0 0 .033-.12.215.215 0 0 0-.033-.12.143.143 0 0 0-.091-.07.715.715 0 0 0-.207-.021h-.273zm0 .629h.34c.057 0 .099-.002.123-.009a.265.265 0 0 0 .104-.033.207.207 0 0 0 .066-.078.232.232 0 0 0-.013-.244.19.19 0 0 0-.107-.079.602.602 0 0 0-.198-.025h-.315zM39.49 2.83V1.468h.17V2.83Zm0 0"/><g fill="var(--text-color)"><path d="M39.857 2.335c0-.182.05-.317.153-.405a.466.466 0 0 1 .31-.108c.134 0 .245.045.33.132a.5.5 0 0 1 .133.368c0 .127-.02.228-.058.302a.418.418 0 0 1-.17.17.497.497 0 0 1-.235.058.44.44 0 0 1-.335-.133c-.086-.088-.128-.216-.128-.384Zm.174 0c0 .127.026.222.082.285a.26.26 0 0 0 .207.095c.083 0 .15-.03.207-.095.054-.063.082-.16.082-.29a.414.414 0 0 0-.082-.276.265.265 0 0 0-.207-.095.263.263 0 0 0-.207.095c-.056.064-.082.157-.082.28zM41.622 2.467l.165.025a.427.427 0 0 1-.14.264.396.396 0 0 1-.273.096.424.424 0 0 1-.327-.133c-.08-.088-.12-.215-.12-.38 0-.105.018-.196.054-.277a.362.362 0 0 1 .161-.178.461.461 0 0 1 .236-.062c.107 0 .194.028.26.083a.364.364 0 0 1 .132.227l-.16.025a.266.266 0 0 0-.088-.149.21.21 0 0 0-.14-.05.257.257 0 0 0-.203.091c-.052.061-.078.157-.078.286 0 .132.025.23.074.29.05.06.116.09.199.09a.24.24 0 0 0 .165-.058.31.31 0 0 0 .083-.19zm0 0"/></g><path fill="var(--text-color)" d="M41.96 2.83V1.468h.166v.777l.397-.401h.215l-.376.368.413.62h-.207l-.322-.505-.12.112v.393Zm0 0"/><path fill="var(--background-color)" fill-rule="evenodd" stroke="var(--text-color)" stroke-linejoin="round" stroke-miterlimit="10" stroke-width=".032" d="M45.693 7.62h-6.085V4.577h12.198V7.62zm0 0"/><path fill="var(--text-color)" d="M41.393 6.958V5.594h.517c.088 0 .157.004.207.012a.38.38 0 0 1 .165.067.322.322 0 0 1 .112.132.412.412 0 0 1 .041.182.419.419 0 0 1-.112.297c-.074.081-.206.12-.396.12h-.352v.554Zm.182-.715h.352c.115 0 .198-.022.248-.066a.23.23 0 0 0 .074-.182.23.23 0 0 0-.045-.145.203.203 0 0 0-.112-.082.763.763 0 0 0-.17-.013h-.347zM42.643 6.958V5.97h.15v.15a.41.41 0 0 1 .107-.137.191.191 0 0 1 .107-.033c.055 0 .112.018.17.053l-.054.153a.24.24 0 0 0-.124-.037.166.166 0 0 0-.1.033.196.196 0 0 0-.061.095.604.604 0 0 0-.03.195v.516Zm0 0"/><g fill="var(--text-color)"><path d="m43.957 6.64.17.02a.397.397 0 0 1-.15.236.462.462 0 0 1-.285.083.452.452 0 0 1-.343-.132c-.083-.088-.124-.213-.124-.376 0-.166.042-.294.128-.385a.432.432 0 0 1 .33-.136c.133 0 .24.045.323.136a.523.523 0 0 1 .128.376v.046H43.4a.37.37 0 0 0 .09.248.273.273 0 0 0 .207.087c.06 0 .112-.015.153-.046a.349.349 0 0 0 .108-.157zm-.55-.269h.55a.362.362 0 0 0-.062-.19.265.265 0 0 0-.207-.095.265.265 0 0 0-.194.079.296.296 0 0 0-.087.206ZM44.613 6.958l-.376-.988h.178l.21.591c.022.065.043.13.063.199.013-.052.034-.114.062-.186l.219-.604h.174l-.377.988Zm0 0"/></g><path fill="var(--text-color)" d="M45.847 6.958V5.594h.178v.562h.711v-.562h.178v1.364h-.178v-.645h-.711v.645ZM47.812 6.838a.599.599 0 0 1-.178.112.605.605 0 0 1-.186.029c-.107 0-.19-.026-.248-.079a.26.26 0 0 1-.087-.202c0-.05.01-.093.033-.132a.258.258 0 0 1 .083-.095.43.43 0 0 1 .124-.058c.03-.009.08-.017.149-.025a1.6 1.6 0 0 0 .298-.058v-.041c0-.069-.017-.117-.05-.145-.041-.038-.106-.058-.19-.058a.303.303 0 0 0-.174.041c-.036.028-.064.078-.083.15l-.16-.026a.416.416 0 0 1 .07-.17.326.326 0 0 1 .148-.098.686.686 0 0 1 .224-.033c.084 0 .154.01.206.029.052.02.091.044.116.074a.25.25 0 0 1 .05.112c.005.03.008.082.008.157v.223c0 .155.004.252.012.293a.458.458 0 0 0 .042.12h-.174a.386.386 0 0 1-.033-.12Zm-.012-.376a1.199 1.199 0 0 1-.273.062.66.66 0 0 0-.15.037.14.14 0 0 0-.065.054.142.142 0 0 0-.021.079c0 .044.017.081.05.111.033.031.082.046.148.046a.34.34 0 0 0 .17-.041.265.265 0 0 0 .112-.12.37.37 0 0 0 .029-.166zM48.185 6.665l.166-.03c.01.067.037.119.078.154.041.036.1.054.178.054.076 0 .133-.015.17-.046.038-.033.057-.07.057-.112a.105.105 0 0 0-.05-.09.958.958 0 0 0-.173-.054 1.641 1.641 0 0 1-.252-.083.24.24 0 0 1-.108-.09.26.26 0 0 1-.037-.137c0-.044.01-.084.03-.12a.244.244 0 0 1 .082-.095.49.49 0 0 1 .252-.066c.076 0 .145.011.203.033.057.022.1.052.128.09a.356.356 0 0 1 .058.154l-.162.02a.18.18 0 0 0-.066-.115.227.227 0 0 0-.149-.046c-.077 0-.132.012-.165.037a.111.111 0 0 0-.05.091c0 .023.007.042.021.058a.179.179 0 0 0 .062.046c.017.006.066.02.149.04.118.034.2.06.248.08.046.02.083.048.107.086a.277.277 0 0 1-.008.302.298.298 0 0 1-.14.116.546.546 0 0 1-.207.037.473.473 0 0 1-.294-.079.367.367 0 0 1-.128-.235zM49.204 6.958V5.594h.17v.488a.373.373 0 0 1 .293-.132c.075 0 .138.014.19.041a.241.241 0 0 1 .116.12c.025.05.038.124.038.223v.624h-.17v-.624c0-.085-.019-.147-.054-.186a.2.2 0 0 0-.153-.058.265.265 0 0 0-.14.042.214.214 0 0 0-.095.103.538.538 0 0 0-.025.182v.541Zm0 0"/><path fill="var(--background-color)" fill-rule="evenodd" stroke="var(--text-color)" stroke-linejoin="round" stroke-miterlimit="10" stroke-width=".032" d="M57.123 7.62h-3.81V4.577h7.62V7.62zm0 0"/><path fill="var(--text-color)" d="M54.57 6.958V5.594h.186l.715 1.07v-1.07h.17v1.364h-.183l-.715-1.07v1.07Zm0 0"/><g fill="var(--text-color)"><path d="M55.862 6.462c0-.182.05-.316.153-.405a.466.466 0 0 1 .31-.107c.135 0 .245.044.33.132a.5.5 0 0 1 .133.368c0 .127-.02.227-.058.302a.418.418 0 0 1-.17.17.497.497 0 0 1-.235.057.44.44 0 0 1-.335-.132c-.085-.088-.128-.216-.128-.385Zm.174 0c0 .127.027.222.082.285a.26.26 0 0 0 .207.096c.083 0 .151-.031.207-.096.055-.063.083-.159.083-.289a.414.414 0 0 0-.083-.277.265.265 0 0 0-.207-.095.263.263 0 0 0-.207.095c-.055.064-.082.157-.082.281zM56.982 6.958V5.97h.153v.14a.353.353 0 0 1 .314-.16c.058 0 .112.011.161.033a.24.24 0 0 1 .112.082.325.325 0 0 1 .054.124c.005.031.008.085.008.162v.607h-.165v-.6a.433.433 0 0 0-.021-.152.167.167 0 0 0-.07-.083.269.269 0 0 0-.302.041c-.05.045-.075.129-.075.253v.541Zm0 0"/></g><path fill="var(--text-color)" d="m58.711 6.595.165.024a.427.427 0 0 1-.14.265.396.396 0 0 1-.273.095.424.424 0 0 1-.327-.132c-.08-.088-.12-.215-.12-.38 0-.105.018-.197.054-.278a.362.362 0 0 1 .162-.177.461.461 0 0 1 .235-.062c.108 0 .195.028.26.082a.364.364 0 0 1 .133.228l-.161.024a.266.266 0 0 0-.087-.148.21.21 0 0 0-.14-.05.257.257 0 0 0-.203.091c-.053.061-.079.156-.079.285 0 .133.025.23.075.29.05.06.115.09.198.09a.24.24 0 0 0 .165-.057.31.31 0 0 0 .083-.19zM59.697 6.64l.17.02a.397.397 0 0 1-.15.236.462.462 0 0 1-.284.083.452.452 0 0 1-.343-.132c-.083-.088-.124-.213-.124-.376 0-.166.042-.294.128-.385a.432.432 0 0 1 .33-.136c.133 0 .24.045.323.136a.523.523 0 0 1 .128.376v.046h-.736a.37.37 0 0 0 .091.248.273.273 0 0 0 .207.087c.06 0 .111-.015.153-.046a.349.349 0 0 0 .107-.157zm-.55-.269h.55a.362.362 0 0 0-.062-.19.265.265 0 0 0-.206-.095.265.265 0 0 0-.195.079.296.296 0 0 0-.087.206Zm0 0"/><path fill="var(--background-color)" fill-rule="evenodd" stroke="var(--text-color)" stroke-linejoin="round" stroke-miterlimit="10" stroke-width=".032" d="M42.65 12.197h-3.042V9.154h6.085v3.043zm0 0"/><path fill="var(--text-color)" d="M42.058 11.562V10.36h-.446v-.161h1.079v.161h-.451v1.203ZM42.716 11.562l.364-.513-.335-.475h.207l.153.232.07.111.074-.111.166-.232h.198l-.339.463.368.525h-.207l-.202-.306-.054-.083-.26.39Zm0 0"/><path fill="var(--background-color)" fill-rule="evenodd" stroke="var(--text-color)" stroke-linejoin="round" stroke-miterlimit="10" stroke-width=".032" d="M50.27 12.197h-3.042V9.154h6.086v3.043zm0 0"/><path fill="var(--text-color)" d="M49.678 11.562V10.36h-.446v-.161h1.079v.161h-.451v1.203ZM50.336 11.562l.364-.513-.335-.475h.207l.153.232.07.111.074-.111.166-.232h.198l-.339.463.368.525h-.207l-.202-.306-.054-.083-.26.39Zm0 0"/><path fill="var(--background-color)" fill-rule="evenodd" stroke="var(--text-color)" stroke-linejoin="round" stroke-miterlimit="10" stroke-width=".032" d="M57.891 12.197h-3.043V9.154h6.086v3.043zm0 0"/><path fill="var(--text-color)" d="M57.297 11.562v-.19h.19v.19ZM57.853 11.562v-.19h.19v.19ZM58.381 11.562v-.19h.19v.19Zm0 0"/><path fill="var(--text-color)" fill-rule="evenodd" d="m90.672 135.228-1.825.609v-1.217zm0 0" style="stroke-width:.264583" transform="translate(-51.065 -129.117)"/><path fill="none" stroke="var(--text-color)" stroke-miterlimit="10" stroke-width=".026" d="M31.988 6.111h6.165"/></svg>